<svg width="41" height="34" viewBox="0 0 41 34" fill="none" xmlns="http://www.w3.org/2000/svg">
<path d="M6.71298 33.3892L10.7831 30.4667C12.5881 29.1706 13.1228 27.6244 12.1232 26.2324C11.2931 25.0762 9.90634 24.8382 8.38385 25.6811C9.14372 25.0461 9.65398 23.8393 8.82381 22.6832C7.78186 21.2321 6.13471 21.503 4.63644 22.5788L0.884864 25.2726L6.71298 33.3892ZM5.56737 24.199C6.26342 23.6992 6.86269 23.6623 7.29472 24.2639C7.71827 24.8538 7.49687 25.4419 6.77723 25.9586L4.81886 27.3648L3.57361 25.6306L5.56737 24.199ZM8.0412 27.0715C8.79623 26.5293 9.57096 26.4379 10.0792 27.1458C10.6129 27.889 10.2651 28.55 9.52182 29.0837L7.23313 30.7271L5.7761 28.6979L8.0412 27.0715ZM15.7447 21.4327L15.9734 21.7513C15.6173 21.8281 15.0928 22.0439 14.5147 22.4589C13.0401 23.5178 12.4968 25.0522 13.3185 26.1966C14.1148 27.3055 15.3424 27.3717 16.5929 26.4737C17.4542 25.8553 17.8471 24.9832 17.9314 24.2789L18.4312 24.975L19.8469 23.9584L17.2039 20.2777C15.8062 18.3311 14.0574 18.4604 12.5945 19.5108C11.4148 20.3579 10.7965 21.5886 10.6801 22.298L11.7983 23.8552C11.9479 22.9431 12.5462 21.8341 13.4782 21.1649C14.2451 20.6142 15.1093 20.5479 15.7447 21.4327ZM14.6631 25.1059C14.2989 24.5986 14.6416 23.9055 15.5854 23.2279C15.9157 22.9907 16.3035 22.7837 16.6341 22.6715L17.2525 23.5327C17.0581 24.0836 16.6004 24.7161 16.0459 25.1143C15.5268 25.487 15.0104 25.5896 14.6631 25.1059ZM20.7784 15.8694C21.6278 15.2595 22.3795 15.4349 22.9556 16.2371L25.5562 19.8589L27.0781 18.7661L24.1979 14.755C23.1644 13.3157 21.8312 12.8784 20.3683 13.9288C19.3774 14.6404 18.8768 15.6614 18.6914 16.4739L18.1408 15.7071L16.7133 16.7321L21.203 22.9847L22.7248 21.892L19.4889 17.3854C19.746 16.8968 20.1767 16.3014 20.7784 15.8694ZM22.61 9.67295L28.4381 17.7896L29.9599 16.6968L28.0794 14.0778L29.0467 13.3831L32.6969 14.7315L34.443 13.4778L29.5848 11.8167L29.9415 7.23362L28.1955 8.48734L28.0538 11.9505L27.0628 12.6621L23.9793 8.36783L22.61 9.67295ZM31.9304 2.98045L32.4311 4.7486L33.953 3.65582L38.7731 10.3685L40.3421 9.24189L34.514 1.12528L31.9304 2.98045Z" fill="#1B502A"/>
</svg>
