<svg width="32" height="45" viewBox="0 0 32 45" fill="none" xmlns="http://www.w3.org/2000/svg">
<path d="M0.717554 5.60437L3.19824 9.95789C4.29837 11.8886 5.78012 12.5821 7.26915 11.7337C8.5058 11.029 8.88755 9.67479 8.20856 8.07248C8.7606 8.89461 9.90735 9.52831 11.144 8.82365C12.6961 7.93923 12.5991 6.27278 11.6859 4.67018L9.39935 0.657373L0.717554 5.60437ZM9.9772 5.42651C10.4014 6.17102 10.3755 6.77087 9.73192 7.13758C9.10098 7.4971 8.53927 7.21539 8.10066 6.44564L6.90705 4.3509L8.76203 3.29391L9.9772 5.42651ZM6.86167 7.58624C7.32186 8.39385 7.33172 9.17389 6.57458 9.60532C5.77959 10.0583 5.1586 9.64322 4.7056 8.84823L3.31067 6.40017L5.48112 5.16342L6.86167 7.58624ZM11.6636 15.8374L11.3228 16.0315C11.2837 15.6694 11.124 15.1251 10.7717 14.5068C9.87286 12.9294 8.40374 12.2287 7.1797 12.9262C5.99353 13.6021 5.79929 14.816 6.56148 16.1536C7.08638 17.0748 7.91265 17.5568 8.60421 17.7143L7.8597 18.1386L8.72255 19.6528L12.6596 17.4094C14.7418 16.223 14.7961 14.4703 13.9045 12.9055C13.1855 11.6436 12.0263 10.9 11.3329 10.71L9.66724 11.6592C10.5587 11.9035 11.599 12.6145 12.1671 13.6114C12.6344 14.4316 12.61 15.2981 11.6636 15.8374ZM8.12369 14.3775C8.66631 14.0683 9.31973 14.4816 9.89496 15.4911C10.0963 15.8445 10.2615 16.2518 10.3386 16.5924L9.41739 17.1173C8.88988 16.8662 8.30865 16.3449 7.9707 15.7518C7.65432 15.1966 7.60632 14.6723 8.12369 14.3775ZM16.6698 21.4255C17.1875 22.334 16.9344 23.0633 16.0763 23.5522L12.2023 25.7597L13.1299 27.3875L17.4203 24.9428C18.9598 24.0656 19.5342 22.7854 18.6426 21.2207C18.0386 20.1607 17.0756 19.556 16.2869 19.2867L17.1071 18.8193L16.2371 17.2924L9.54905 21.1033L10.4766 22.7312L15.297 19.9844C15.756 20.2912 16.3031 20.7819 16.6698 21.4255ZM22.6406 23.8953L13.9588 28.8422L14.8863 30.4701L17.6877 28.8738L18.2774 29.9086L16.5545 33.3977L17.6187 35.2653L19.7789 30.6076L24.2995 31.4417L23.2353 29.5741L19.806 29.071L19.202 28.011L23.7953 25.3937L22.6406 23.8953ZM23.0909 44.8687L24.6178 43.9987L22.2162 39.784L25.6466 40.9051C26.9917 41.3589 28.218 41.7801 29.4546 41.0754C30.8679 40.2701 31.2086 38.6384 30.2451 36.9475C29.4326 35.5216 28.068 34.711 27.3496 34.4183L25.5956 35.4178C26.5842 35.7739 27.9523 36.5322 28.6067 37.6805C29.0309 38.425 28.9419 39.0608 28.374 39.3844C27.8062 39.7079 27.1218 39.563 25.9062 39.2192L20.7199 37.7447L19.4453 38.471L23.0909 44.8687Z" fill="#1B502A"/>
</svg>
