<svg width="10" height="9" viewBox="0 0 10 9" fill="none" xmlns="http://www.w3.org/2000/svg">
<path d="M4.41267 6.30872L1.82096 3.64255C1.5151 3.32885 1.76368 2.83618 2.22788 2.83618H7.41129C7.51517 2.8361 7.61688 2.86297 7.70424 2.91358C7.79159 2.96419 7.86089 3.03638 7.90382 3.12152C7.94676 3.20666 7.96152 3.30113 7.94633 3.39363C7.93115 3.48612 7.88666 3.57271 7.8182 3.64304L5.2265 6.30823C5.17577 6.36047 5.11322 6.40234 5.04304 6.43103C4.97285 6.45971 4.89666 6.47456 4.81958 6.47456C4.7425 6.47456 4.66631 6.45971 4.59613 6.43103C4.52594 6.40234 4.46339 6.36047 4.41267 6.30823V6.30872Z" fill="black"/>
</svg>
