<svg width="120" height="92" viewBox="0 0 120 92" fill="none" xmlns="http://www.w3.org/2000/svg">
<rect width="120" height="92" rx="8" fill="#47A561"/>
<path d="M11.264 16.088C12.064 16.088 12.664 15.864 13.16 15.552V14.976C12.704 15.296 12.08 15.584 11.28 15.584C9.976 15.584 8.992 14.632 8.992 13.256C8.992 11.872 9.976 10.912 11.28 10.912C12.08 10.912 12.704 11.2 13.16 11.52V10.952C12.664 10.64 12.064 10.416 11.264 10.416C9.664 10.416 8.44 11.592 8.44 13.256C8.44 14.92 9.664 16.088 11.264 16.088ZM15.9904 12.168C16.6544 12.168 17.1264 12.544 17.1264 13.368V16H17.6304V13.28C17.6304 12.192 17.0224 11.68 16.1424 11.68C15.4384 11.68 14.9104 11.992 14.5424 12.28V10.392L14.0304 10.496V16H14.5424V12.664C14.8704 12.456 15.4144 12.168 15.9904 12.168ZM20.8026 16.08C22.0586 16.08 22.9706 15.128 22.9706 13.88C22.9706 12.624 22.0586 11.68 20.8026 11.68C19.5466 11.68 18.6346 12.624 18.6346 13.88C18.6346 15.128 19.5466 16.08 20.8026 16.08ZM20.8026 15.6C19.8426 15.6 19.1466 14.856 19.1466 13.88C19.1466 12.896 19.8426 12.16 20.8026 12.16C21.7706 12.16 22.4586 12.896 22.4586 13.88C22.4586 14.856 21.7706 15.6 20.8026 15.6ZM25.951 16.08C27.207 16.08 28.119 15.128 28.119 13.88C28.119 12.624 27.207 11.68 25.951 11.68C24.695 11.68 23.783 12.624 23.783 13.88C23.783 15.128 24.695 16.08 25.951 16.08ZM25.951 15.6C24.991 15.6 24.295 14.856 24.295 13.88C24.295 12.896 24.991 12.16 25.951 12.16C26.919 12.16 27.607 12.896 27.607 13.88C27.607 14.856 26.919 15.6 25.951 15.6ZM30.9474 13.816L30.3474 13.632C29.7794 13.456 29.3794 13.288 29.3794 12.816C29.3794 12.36 29.8354 12.128 30.3474 12.128C30.9314 12.128 31.5314 12.368 31.8434 12.6V12.064C31.5314 11.864 30.9634 11.672 30.3634 11.672C29.4434 11.672 28.8834 12.184 28.8834 12.832C28.8834 13.544 29.3954 13.84 29.9874 14.008L30.6354 14.2C31.1954 14.368 31.5474 14.52 31.5474 14.984C31.5474 15.488 31.1714 15.664 30.5874 15.664C29.9234 15.664 29.2514 15.392 28.8754 15.144V15.672C29.2194 15.88 29.8754 16.12 30.5794 16.12C31.4914 16.12 32.0354 15.72 32.0354 14.968C32.0354 14.312 31.5634 14 30.9474 13.816ZM36.4078 15.744V15.272C36.1118 15.464 35.4958 15.592 34.9598 15.592C34.0238 15.592 33.3278 15.104 33.2718 14.064H36.5198V13.816C36.5198 12.44 35.8638 11.672 34.7118 11.672C33.5758 11.672 32.7518 12.472 32.7518 13.88C32.7518 15.336 33.6718 16.08 34.9198 16.08C35.4558 16.08 36.0878 15.96 36.4078 15.744ZM34.6957 12.128C35.5358 12.128 35.9918 12.68 36.0158 13.688H33.2718C33.3038 12.68 33.8958 12.128 34.6957 12.128ZM42.1156 16.088C42.9156 16.088 43.5156 15.864 44.0116 15.552V14.976C43.5556 15.296 42.9316 15.584 42.1316 15.584C40.8276 15.584 39.8436 14.632 39.8436 13.256C39.8436 11.872 40.8276 10.912 42.1316 10.912C42.9316 10.912 43.5556 11.2 44.0116 11.52V10.952C43.5156 10.64 42.9156 10.416 42.1156 10.416C40.5156 10.416 39.2916 11.592 39.2916 13.256C39.2916 14.92 40.5156 16.088 42.1156 16.088ZM44.882 10.496V16H45.394V10.392L44.882 10.496ZM49.2474 13.328V13.84C49.0394 13.768 48.6874 13.696 48.2554 13.696C47.0954 13.696 46.4234 14.256 46.4234 14.984C46.4234 15.64 46.8714 16.08 47.7354 16.08C48.3994 16.08 48.9354 15.736 49.2794 15.36V16H49.7514V13.336C49.7514 12.128 48.9754 11.68 48.1194 11.68C47.3514 11.68 46.7274 12.056 46.4554 12.352V12.896C46.8074 12.52 47.3674 12.176 48.0714 12.176C48.6874 12.176 49.2474 12.488 49.2474 13.328ZM46.9114 14.96C46.9114 14.448 47.3914 14.064 48.3994 14.064C48.7034 14.064 49.0394 14.128 49.2474 14.192V15.024C48.8714 15.368 48.3674 15.664 47.7994 15.664C47.3034 15.664 46.9114 15.464 46.9114 14.96ZM52.7756 13.816L52.1756 13.632C51.6076 13.456 51.2076 13.288 51.2076 12.816C51.2076 12.36 51.6636 12.128 52.1756 12.128C52.7596 12.128 53.3596 12.368 53.6716 12.6V12.064C53.3596 11.864 52.7916 11.672 52.1916 11.672C51.2716 11.672 50.7116 12.184 50.7116 12.832C50.7116 13.544 51.2236 13.84 51.8156 14.008L52.4636 14.2C53.0236 14.368 53.3756 14.52 53.3756 14.984C53.3756 15.488 52.9996 15.664 52.4156 15.664C51.7516 15.664 51.0796 15.392 50.7036 15.144V15.672C51.0476 15.88 51.7036 16.12 52.4076 16.12C53.3196 16.12 53.8636 15.72 53.8636 14.968C53.8636 14.312 53.3916 14 52.7756 13.816ZM56.5959 13.816L55.9959 13.632C55.4279 13.456 55.0279 13.288 55.0279 12.816C55.0279 12.36 55.4839 12.128 55.9959 12.128C56.5799 12.128 57.1799 12.368 57.4919 12.6V12.064C57.1799 11.864 56.6119 11.672 56.0119 11.672C55.0919 11.672 54.5319 12.184 54.5319 12.832C54.5319 13.544 55.0439 13.84 55.6359 14.008L56.2839 14.2C56.8439 14.368 57.1959 14.52 57.1959 14.984C57.1959 15.488 56.8199 15.664 56.2359 15.664C55.5719 15.664 54.8999 15.392 54.5239 15.144V15.672C54.8679 15.88 55.5239 16.12 56.2279 16.12C57.1399 16.12 57.6839 15.72 57.6839 14.968C57.6839 14.312 57.2119 14 56.5959 13.816ZM58.8882 11.08C59.1282 11.08 59.2962 10.936 59.2962 10.728C59.2962 10.52 59.1282 10.376 58.8882 10.376C58.6562 10.376 58.4882 10.52 58.4882 10.728C58.4882 10.936 58.6562 11.08 58.8882 11.08ZM58.6322 11.76V16H59.1442V11.76H58.6322ZM63.6693 11.976C63.3733 11.776 62.9413 11.672 62.4773 11.672C61.1813 11.672 60.1893 12.536 60.1893 13.88C60.1893 15.184 61.1813 16.08 62.4693 16.08C62.9413 16.08 63.3733 15.96 63.6693 15.76V15.248C63.3893 15.448 62.9573 15.592 62.4853 15.592C61.4693 15.592 60.7093 14.912 60.7093 13.88C60.7093 12.824 61.4693 12.16 62.4933 12.16C62.9573 12.16 63.3893 12.288 63.6693 12.496V11.976Z" fill="#080317"/>
<path d="M11.4531 51V50.0156L12.7266 49.7969V40.7891H10.1484L9.92188 42.3672H8.76562V39.625H18.2188V42.3672H17.0781L16.8438 40.7891H14.2656V49.7969L15.5391 50.0156V51H11.4531ZM22.4375 51V50.0156L23.7109 49.7969V40.7891H21.1328L20.9062 42.3672H19.75V39.625H29.2031V42.3672H28.0625L27.8281 40.7891H25.25V49.7969L26.5234 50.0156V51H22.4375Z" fill="#08051E"/>
<path d="M43.8594 51.1328C43.2344 51.1328 42.737 50.9505 42.3672 50.5859C42.0026 50.2161 41.8203 49.6276 41.8203 48.8203V43.6875H40.4844V42.5469H41.8203V40.5078H43.3594V42.5469H45.1953V43.6875H43.3594V48.8203C43.3594 49.2266 43.4401 49.526 43.6016 49.7188C43.763 49.9115 43.9792 50.0078 44.25 50.0078C44.4323 50.0078 44.6354 49.9922 44.8594 49.9609C45.0833 49.9245 45.2578 49.8932 45.3828 49.8672L45.5938 50.875C45.3698 50.9427 45.0938 51.0026 44.7656 51.0547C44.4427 51.1068 44.1406 51.1328 43.8594 51.1328ZM49.5625 51.1328C48.9375 51.1328 48.4401 50.9505 48.0703 50.5859C47.7057 50.2161 47.5234 49.6276 47.5234 48.8203V43.6875H46.1875V42.5469H47.5234V40.5078H49.0625V42.5469H50.8984V43.6875H49.0625V48.8203C49.0625 49.2266 49.1432 49.526 49.3047 49.7188C49.4661 49.9115 49.6823 50.0078 49.9531 50.0078C50.1354 50.0078 50.3385 49.9922 50.5625 49.9609C50.7865 49.9245 50.9609 49.8932 51.0859 49.8672L51.2969 50.875C51.0729 50.9427 50.7969 51.0026 50.4688 51.0547C50.1458 51.1068 49.8438 51.1328 49.5625 51.1328Z" fill="#08051E"/>
<circle cx="18" cy="73" r="9.5" fill="#B39446" stroke="#409457"/>
<circle cx="33.8335" cy="73" r="9.5" fill="#FEFA97" stroke="#409457"/>
<circle cx="49.6665" cy="73" r="9.5" fill="#D87BF9" stroke="#409457"/>
<circle cx="65.5" cy="73" r="9.5" fill="#F7F9FE" stroke="#409457"/>
</svg>
