<svg width="98" height="18" viewBox="0 0 98 18" fill="none" xmlns="http://www.w3.org/2000/svg">
<path d="M29.852 13H33.992C35.828 13 36.932 12.22 36.932 10.804C36.932 9.628 36.116 8.8 34.688 8.632C35.504 8.572 36.428 8.008 36.428 6.832C36.428 5.356 35.192 4.744 33.668 4.744H29.852V13ZM33.512 6.28C34.22 6.28 34.64 6.544 34.64 7.156C34.64 7.756 34.208 8.044 33.476 8.044H31.484V6.28H33.512ZM33.788 9.4C34.556 9.4 35.12 9.712 35.12 10.432C35.12 11.188 34.568 11.464 33.812 11.464H31.484V9.4H33.788ZM43.5835 12.496V11.14C43.0915 11.404 42.2515 11.668 41.3635 11.668C40.1155 11.668 39.4795 11.2 39.3715 10.264H43.6795V9.544C43.6795 7.648 42.6715 6.52 40.8955 6.52C39.0355 6.52 37.7995 7.792 37.7995 9.82C37.7995 11.944 39.1675 13.12 41.1835 13.12C42.1555 13.12 43.1395 12.844 43.5835 12.496ZM40.7995 7.828C41.7355 7.828 42.1555 8.404 42.1675 9.268H39.3595C39.4195 8.404 39.9115 7.828 40.7995 7.828ZM48.0395 8.02C48.9035 8.02 49.3235 8.5 49.3235 9.316V13H50.8715V8.92C50.8715 7.456 50.1875 6.52 48.6995 6.52C47.7515 6.52 46.9715 6.916 46.4435 7.336V4.528L44.8955 4.744V13H46.4435V8.416C46.8515 8.212 47.4275 8.02 48.0395 8.02ZM55.8669 9.328V9.652C55.5909 9.532 55.1349 9.424 54.5469 9.424C53.0469 9.424 51.9429 10.192 51.9429 11.356C51.9429 12.484 52.7349 13.12 54.0069 13.12C54.8829 13.12 55.5669 12.724 55.9629 12.292V13H57.4029V9.256C57.4029 7.276 56.1669 6.52 54.6789 6.52C53.4789 6.52 52.4709 7.048 52.0509 7.468V9.052C52.5909 8.512 53.5269 8.056 54.4749 8.056C55.2549 8.056 55.8669 8.428 55.8669 9.328ZM53.3709 11.272C53.3709 10.756 53.9349 10.456 54.8949 10.456C55.2309 10.456 55.5909 10.504 55.8669 10.588V11.464C55.4709 11.74 54.8589 11.944 54.2949 11.944C53.7669 11.944 53.3709 11.764 53.3709 11.272ZM60.6662 13H62.4902L65.0102 6.64H63.3542L61.6022 11.656L59.8262 6.64H58.1462L60.6662 13ZM66.618 5.908C67.278 5.908 67.674 5.596 67.674 5.08C67.674 4.564 67.278 4.264 66.618 4.264C65.97 4.264 65.562 4.564 65.562 5.08C65.562 5.596 65.97 5.908 66.618 5.908ZM65.838 6.64V13H67.386V6.64H65.838ZM71.9563 13.12C73.9003 13.12 75.3283 11.692 75.3283 9.82C75.3283 7.9 73.9003 6.52 71.9563 6.52C70.0243 6.52 68.5963 7.9 68.5963 9.82C68.5963 11.692 70.0243 13.12 71.9563 13.12ZM71.9563 11.668C70.9363 11.668 70.1443 10.9 70.1443 9.82C70.1443 8.716 70.9363 7.972 71.9563 7.972C72.9883 7.972 73.7923 8.716 73.7923 9.82C73.7923 10.9 72.9883 11.668 71.9563 11.668ZM79.2735 11.62C78.3975 11.62 77.9895 11.14 77.9895 10.324V6.64H76.4415V10.72C76.4415 12.184 77.1135 13.12 78.6135 13.12C79.6335 13.12 80.4495 12.676 80.9655 12.208V13H82.4055V6.64H80.8695V11.224C80.4735 11.428 79.8855 11.62 79.2735 11.62ZM83.8369 6.64V13H85.3849V8.452C85.7689 8.236 86.3089 8.02 86.8609 8.02C87.3409 8.02 87.7609 8.14 88.0489 8.308V6.664C87.8449 6.568 87.6169 6.52 87.3769 6.52C86.5369 6.52 85.7689 7 85.2889 7.468V6.64H83.8369ZM92.5348 9.328V9.652C92.2588 9.532 91.8028 9.424 91.2148 9.424C89.7148 9.424 88.6108 10.192 88.6108 11.356C88.6108 12.484 89.4028 13.12 90.6748 13.12C91.5508 13.12 92.2348 12.724 92.6308 12.292V13H94.0708V9.256C94.0708 7.276 92.8348 6.52 91.3468 6.52C90.1468 6.52 89.1388 7.048 88.7188 7.468V9.052C89.2588 8.512 90.1948 8.056 91.1428 8.056C91.9228 8.056 92.5348 8.428 92.5348 9.328ZM90.0388 11.272C90.0388 10.756 90.6028 10.456 91.5628 10.456C91.8988 10.456 92.2588 10.504 92.5348 10.588V11.464C92.1388 11.74 91.5268 11.944 90.9628 11.944C90.4348 11.944 90.0388 11.764 90.0388 11.272ZM95.4502 4.744V13H96.9982V4.528L95.4502 4.744Z" fill="black"/>
<path d="M14.25 9H3.75" stroke="black" stroke-width="1.6" stroke-linecap="round" stroke-linejoin="round"/>
<path d="M9 14.25L3.75 9L9 3.75" stroke="black" stroke-width="1.6" stroke-linecap="round" stroke-linejoin="round"/>
</svg>
