<svg width="622" height="187" viewBox="0 0 622 187" fill="none" xmlns="http://www.w3.org/2000/svg">
<rect x="0.276903" y="0.276903" width="793.446" height="186.446" rx="4.15355" fill="white" stroke="url(#paint0_linear_1_62657)" stroke-width="0.553806"/>
<path d="M10.4785 10.8231V16.9194H11.3558V14.846H12.9596C14.3065 14.846 15.2546 14.1548 15.2546 12.8523C15.2546 11.4788 14.3065 10.8231 12.9596 10.8231H10.4785ZM12.8976 11.6472C13.7482 11.6472 14.333 11.9928 14.333 12.8523C14.333 13.6586 13.7482 14.0308 12.8976 14.0308H11.3558V11.6472H12.8976ZM16.1612 12.2232V16.9194H16.9941V13.4282C17.3131 13.189 17.8005 12.932 18.2613 12.932C18.598 12.932 18.8727 13.0295 19.0765 13.1536V12.2763C18.9081 12.1877 18.7132 12.1345 18.5094 12.1345C17.8802 12.1345 17.3043 12.5333 16.941 12.8966V12.2232H16.1612ZM23.7729 16.5916V15.8561C23.4273 16.0511 22.7805 16.2194 22.1513 16.2194C21.1678 16.2194 20.5298 15.7675 20.4678 14.8283H23.8703V14.4384C23.8703 12.9763 23.1349 12.1257 21.8501 12.1257C20.5386 12.1257 19.626 13.0384 19.626 14.5713C19.626 16.1663 20.6361 17.008 22.0716 17.008C22.7184 17.008 23.4362 16.8397 23.7729 16.5916ZM21.8058 12.8434C22.6298 12.8434 23.0374 13.3751 23.0551 14.2612H20.4589C20.5032 13.3662 21.026 12.8434 21.8058 12.8434ZM28.2321 16.9194H29.0118V10.6902L28.1789 10.8231V12.2497C27.9131 12.1877 27.6207 12.1345 27.2396 12.1345C25.9016 12.1345 24.7054 12.9675 24.7054 14.6953C24.7054 16.2549 25.6713 17.008 26.77 17.008C27.4257 17.008 27.9219 16.7599 28.2321 16.503V16.9194ZM27.2839 12.8789C27.6561 12.8789 27.9396 12.9497 28.1789 13.0295V15.8827C27.9219 16.0599 27.4877 16.2637 26.9915 16.2637C26.1232 16.2637 25.5561 15.6789 25.5561 14.6422C25.5561 13.4371 26.3092 12.8789 27.2839 12.8789ZM30.6917 11.5674C31.055 11.5674 31.2854 11.3725 31.2854 11.0801C31.2854 10.7788 31.055 10.5839 30.6917 10.5839C30.3284 10.5839 30.0892 10.7788 30.0892 11.0801C30.0892 11.3725 30.3284 11.5674 30.6917 11.5674ZM30.2664 12.2232V16.9194H31.0993V12.2232H30.2664ZM36.0814 12.489C35.727 12.2497 35.2219 12.1257 34.6814 12.1257C33.2459 12.1257 32.1472 13.1004 32.1472 14.5713C32.1472 15.9979 33.2371 17.008 34.6725 17.008C35.2219 17.008 35.727 16.8751 36.0814 16.6359V15.803C35.727 16.0599 35.2308 16.2194 34.6991 16.2194C33.7067 16.2194 32.9801 15.5637 32.9801 14.5713C32.9801 13.5523 33.7067 12.9143 34.708 12.9143C35.2308 12.9143 35.727 13.0649 36.0814 13.3219V12.489ZM39.8588 16.7156V15.9979C39.6461 16.1308 39.3006 16.2549 38.9284 16.2549C38.4499 16.2549 38.1664 16.0422 38.1664 15.5017V12.9586H39.8234V12.2232H38.1664V11.3371H37.9714L36.6157 12.7459V12.9586H37.3334V15.5903C37.3334 16.7245 37.9892 17.008 38.7246 17.008C39.2474 17.008 39.6284 16.8663 39.8588 16.7156ZM44.6877 16.5916V15.8561C44.3421 16.0511 43.6953 16.2194 43.0662 16.2194C42.0826 16.2194 41.4446 15.7675 41.3826 14.8283H44.7852V14.4384C44.7852 12.9763 44.0497 12.1257 42.7649 12.1257C41.4535 12.1257 40.5408 13.0384 40.5408 14.5713C40.5408 16.1663 41.551 17.008 42.9864 17.008C43.6333 17.008 44.351 16.8397 44.6877 16.5916ZM42.7206 12.8434C43.5447 12.8434 43.9523 13.3751 43.97 14.2612H41.3737C41.418 13.3662 41.9408 12.8434 42.7206 12.8434ZM49.1469 16.9194H49.9267V10.6902L49.0937 10.8231V12.2497C48.8279 12.1877 48.5355 12.1345 48.1545 12.1345C46.8165 12.1345 45.6203 12.9675 45.6203 14.6953C45.6203 16.2549 46.5861 17.008 47.6848 17.008C48.3406 17.008 48.8368 16.7599 49.1469 16.503V16.9194ZM48.1988 12.8789C48.5709 12.8789 48.8545 12.9497 49.0937 13.0295V15.8827C48.8368 16.0599 48.4026 16.2637 47.9064 16.2637C47.038 16.2637 46.4709 15.6789 46.4709 14.6422C46.4709 13.4371 47.2241 12.8789 48.1988 12.8789ZM56.6097 15.3865C56.6097 15.8738 56.2464 16.2017 55.3869 16.2017C54.5363 16.2017 53.5881 15.8384 53.021 15.4397V16.3523C53.4995 16.6802 54.359 17.008 55.3515 17.008C56.5831 17.008 57.5047 16.4321 57.5047 15.3422C57.5047 14.2169 56.7338 13.889 55.7148 13.5789L55.0502 13.3751C54.3413 13.1447 53.8274 12.9675 53.8274 12.3827C53.8274 11.8953 54.2527 11.5586 55.0325 11.5586C55.8477 11.5586 56.6806 11.913 57.1591 12.2409V11.2928C56.7869 11.0358 56.0603 10.7257 55.0591 10.7257C53.8806 10.7257 52.9059 11.3282 52.9059 12.4535C52.9059 13.5434 53.7476 13.8979 54.6249 14.1548L55.4224 14.3941C56.1755 14.6333 56.6097 14.8371 56.6097 15.3865ZM60.2302 17.008C61.577 17.008 62.7732 16.1751 62.7732 14.4472C62.7732 12.8877 61.8074 12.1345 60.7086 12.1345C60.0529 12.1345 59.5567 12.3827 59.2466 12.6396V12.2232H58.4668V18.3195H59.2998V16.8929C59.5656 16.9637 59.8491 17.008 60.2302 17.008ZM60.4783 12.8789C61.3378 12.8789 61.9137 13.4637 61.9137 14.5004C61.9137 15.7055 61.1694 16.2637 60.1947 16.2637C59.8226 16.2637 59.539 16.1928 59.2998 16.1131V13.2687C59.5656 13.0827 59.9732 12.8789 60.4783 12.8789ZM67.7139 16.5916V15.8561C67.3684 16.0511 66.7215 16.2194 66.0924 16.2194C65.1088 16.2194 64.4709 15.7675 64.4088 14.8283H67.8114V14.4384C67.8114 12.9763 67.076 12.1257 65.7911 12.1257C64.4797 12.1257 63.567 13.0384 63.567 14.5713C63.567 16.1663 64.5772 17.008 66.0126 17.008C66.6595 17.008 67.3772 16.8397 67.7139 16.5916ZM65.7468 12.8434C66.5709 12.8434 66.9785 13.3751 66.9962 14.2612H64.4C64.4443 13.3662 64.9671 12.8434 65.7468 12.8434ZM68.868 12.2232V16.9194H69.7009V13.3574C70.0288 13.1624 70.5604 12.932 71.1098 12.932C71.801 12.932 72.2174 13.3219 72.2174 14.0928V16.9194H73.0504V13.9067C73.0504 12.7548 72.4567 12.1345 71.4199 12.1345C70.649 12.1345 70.0465 12.489 69.6478 12.8168V12.2232H68.868ZM77.5641 16.9194H78.3438V10.6902L77.5109 10.8231V12.2497C77.2451 12.1877 76.9527 12.1345 76.5717 12.1345C75.2337 12.1345 74.0374 12.9675 74.0374 14.6953C74.0374 16.2549 75.0033 17.008 76.102 17.008C76.7577 17.008 77.254 16.7599 77.5641 16.503V16.9194ZM76.616 12.8789C76.9881 12.8789 77.2717 12.9497 77.5109 13.0295V15.8827C77.254 16.0599 76.8198 16.2637 76.3236 16.2637C75.4552 16.2637 74.8881 15.6789 74.8881 14.6422C74.8881 13.4371 75.6413 12.8789 76.616 12.8789ZM81.6686 10.8231V16.9194H82.5458V14.846H84.1497C85.4965 14.846 86.4446 14.1548 86.4446 12.8523C86.4446 11.4788 85.4965 10.8231 84.1497 10.8231H81.6686ZM84.0876 11.6472C84.9383 11.6472 85.5231 11.9928 85.5231 12.8523C85.5231 13.6586 84.9383 14.0308 84.0876 14.0308H82.5458V11.6472H84.0876ZM90.1248 14.0662V14.4915C89.9121 14.4118 89.5488 14.3232 89.088 14.3232C87.883 14.3232 87.1032 14.9257 87.1032 15.7498C87.1032 16.5296 87.6437 17.008 88.5918 17.008C89.2918 17.008 89.8412 16.6625 90.1779 16.2992V16.9194H90.9577V14.0574C90.9577 12.6573 90.0716 12.1345 89.0526 12.1345C88.1842 12.1345 87.4665 12.5421 87.1564 12.8611V13.7206C87.5551 13.313 88.2108 12.9586 88.9463 12.9586C89.5754 12.9586 90.1248 13.2687 90.1248 14.0662ZM87.883 15.7144C87.883 15.227 88.3614 14.8991 89.2918 14.8991C89.5931 14.8991 89.9121 14.9523 90.1248 15.0143V15.8118C89.7615 16.1131 89.2564 16.3612 88.7247 16.3612C88.2551 16.3612 87.883 16.1751 87.883 15.7144ZM94.9539 16.7156V15.9979C94.7412 16.1308 94.3956 16.2549 94.0235 16.2549C93.545 16.2549 93.2614 16.0422 93.2614 15.5017V12.9586H94.9184V12.2232H93.2614V11.3371H93.0665L91.7108 12.7459V12.9586H92.4285V15.5903C92.4285 16.7245 93.0842 17.008 93.8197 17.008C94.3425 17.008 94.7235 16.8663 94.9539 16.7156ZM98.6575 16.7156V15.9979C98.4448 16.1308 98.0992 16.2549 97.7271 16.2549C97.2486 16.2549 96.965 16.0422 96.965 15.5017V12.9586H98.622V12.2232H96.965V11.3371H96.7701L95.4144 12.7459V12.9586H96.1321V15.5903C96.1321 16.7245 96.7878 17.008 97.5233 17.008C98.0461 17.008 98.4271 16.8663 98.6575 16.7156ZM103.486 16.5916V15.8561C103.141 16.0511 102.494 16.2194 101.865 16.2194C100.881 16.2194 100.243 15.7675 100.181 14.8283H103.584V14.4384C103.584 12.9763 102.848 12.1257 101.564 12.1257C100.252 12.1257 99.3395 13.0384 99.3395 14.5713C99.3395 16.1663 100.35 17.008 101.785 17.008C102.432 17.008 103.15 16.8397 103.486 16.5916ZM101.519 12.8434C102.343 12.8434 102.751 13.3751 102.769 14.2612H100.172C100.217 13.3662 100.739 12.8434 101.519 12.8434ZM104.64 12.2232V16.9194H105.473V13.4282C105.792 13.189 106.28 12.932 106.74 12.932C107.077 12.932 107.352 13.0295 107.556 13.1536V12.2763C107.387 12.1877 107.192 12.1345 106.989 12.1345C106.359 12.1345 105.783 12.5333 105.42 12.8966V12.2232H104.64ZM108.327 12.2232V16.9194H109.16V13.3574C109.487 13.1624 110.019 12.932 110.569 12.932C111.26 12.932 111.676 13.3219 111.676 14.0928V16.9194H112.509V13.9067C112.509 12.7548 111.915 12.1345 110.879 12.1345C110.108 12.1345 109.505 12.489 109.106 12.8168V12.2232H108.327Z" fill="black"/>
<path d="M11.1181 29.0898H11.9819L13.1672 25.2795L14.3525 29.0898H15.2164L16.4419 24.4826H15.6584L14.7744 28.3666L13.5489 24.4826H12.7855L11.56 28.3733L10.6694 24.4826H9.88589L11.1181 29.0898ZM18.7358 26.0764C19.2582 26.0764 19.5729 26.371 19.5729 26.9536V29.0898H20.2024V26.813C20.2024 25.9424 19.7537 25.4737 18.9702 25.4737C18.4144 25.4737 17.9724 25.7147 17.6711 25.9558V24.3821L17.0416 24.4826V29.0898H17.6711V26.3978C17.9189 26.2505 18.3206 26.0764 18.7358 26.0764ZM24.0824 28.8421V28.2862C23.8212 28.4336 23.3324 28.5608 22.8569 28.5608C22.1136 28.5608 21.6314 28.2193 21.5846 27.5094H24.1561V27.2148C24.1561 26.1098 23.6003 25.467 22.6292 25.467C21.6381 25.467 20.9484 26.1567 20.9484 27.3152C20.9484 28.5206 21.7118 29.1568 22.7967 29.1568C23.2855 29.1568 23.8279 29.0296 24.0824 28.8421ZM22.5958 26.0094C23.2185 26.0094 23.5266 26.4112 23.54 27.0809H21.5779C21.6114 26.4045 22.0065 26.0094 22.5958 26.0094ZM24.9546 25.5406V29.0898H25.5841V26.4514C25.8252 26.2706 26.1935 26.0764 26.5417 26.0764C26.7962 26.0764 27.0038 26.15 27.1578 26.2438V25.5808C27.0305 25.5138 26.8832 25.4737 26.7292 25.4737C26.2537 25.4737 25.8185 25.775 25.5439 26.0496V25.5406H24.9546ZM30.7071 28.8421V28.2862C30.4459 28.4336 29.9571 28.5608 29.4816 28.5608C28.7383 28.5608 28.2561 28.2193 28.2093 27.5094H30.7808V27.2148C30.7808 26.1098 30.2249 25.467 29.2539 25.467C28.2628 25.467 27.5731 26.1567 27.5731 27.3152C27.5731 28.5206 28.3365 29.1568 29.4213 29.1568C29.9102 29.1568 30.4526 29.0296 30.7071 28.8421ZM29.2204 26.0094C29.8432 26.0094 30.1513 26.4112 30.1647 27.0809H28.2026C28.236 26.4045 28.6311 26.0094 29.2204 26.0094ZM33.6059 30.2149C34.0747 30.2149 34.4564 29.9671 34.7242 29.3443L36.3984 25.5406H35.7019L34.5769 28.2862L33.4184 25.5406H32.7153L34.2823 28.9894L34.1617 29.2506C34.0479 29.4916 33.8403 29.639 33.5724 29.639C33.2041 29.639 32.9161 29.4247 32.7889 29.2907V29.9135C32.9295 30.0408 33.2242 30.2149 33.6059 30.2149ZM38.5506 29.1568C39.6153 29.1568 40.3921 28.3599 40.3921 27.3152C40.3921 26.2572 39.6153 25.4737 38.5506 25.4737C37.4858 25.4737 36.709 26.2572 36.709 27.3152C36.709 28.3599 37.4858 29.1568 38.5506 29.1568ZM38.5506 28.5675C37.8541 28.5675 37.3318 28.0318 37.3318 27.3152C37.3318 26.5853 37.8541 26.063 38.5506 26.063C39.2537 26.063 39.7694 26.5853 39.7694 27.3152C39.7694 28.0385 39.2537 28.5675 38.5506 28.5675ZM42.5997 28.5541C42.0773 28.5541 41.7626 28.2595 41.7626 27.6769V25.5406H41.1331V27.8175C41.1331 28.688 41.5818 29.1568 42.3586 29.1568C42.9479 29.1568 43.4033 28.8889 43.7046 28.6412V29.0898H44.2939V25.5406H43.6644V28.226C43.41 28.38 43.0149 28.5541 42.5997 28.5541ZM45.2341 25.5406V29.0898H45.8636V26.4514C46.1047 26.2706 46.473 26.0764 46.8212 26.0764C47.0757 26.0764 47.2833 26.15 47.4373 26.2438V25.5808C47.3101 25.5138 47.1627 25.4737 47.0087 25.4737C46.5333 25.4737 46.098 25.775 45.8234 26.0496V25.5406H45.2341ZM52.3235 25.7415C52.0556 25.5607 51.6739 25.467 51.2654 25.467C50.1806 25.467 49.3502 26.2036 49.3502 27.3152C49.3502 28.3934 50.1739 29.1568 51.2587 29.1568C51.6739 29.1568 52.0556 29.0564 52.3235 28.8756V28.2461C52.0556 28.4403 51.6806 28.5608 51.2788 28.5608C50.5288 28.5608 49.9797 28.0653 49.9797 27.3152C49.9797 26.5451 50.5288 26.063 51.2855 26.063C51.6806 26.063 52.0556 26.1768 52.3235 26.371V25.7415ZM54.5019 28.5541C53.9795 28.5541 53.6648 28.2595 53.6648 27.6769V25.5406H53.0353V27.8175C53.0353 28.688 53.484 29.1568 54.2608 29.1568C54.8501 29.1568 55.3055 28.8889 55.6068 28.6412V29.0898H56.1961V25.5406H55.5666V28.226C55.3122 28.38 54.9171 28.5541 54.5019 28.5541ZM58.7234 27.1679L58.2881 27.0407C57.8328 26.9067 57.5381 26.7996 57.5381 26.4782C57.5381 26.1768 57.8395 26.0295 58.2145 26.0295C58.7167 26.0295 59.2591 26.2304 59.5136 26.4246V25.7951C59.2658 25.6277 58.7569 25.467 58.248 25.467C57.4243 25.467 56.9287 25.9089 56.9287 26.4983C56.9287 27.1143 57.3774 27.3755 57.9064 27.5094L58.3551 27.6434C58.8105 27.7639 59.0783 27.8644 59.0783 28.1724C59.0783 28.5072 58.8172 28.6278 58.3953 28.6278C57.8462 28.6278 57.2903 28.4135 56.9622 28.2059V28.822C57.2301 28.9894 57.7993 29.1836 58.3685 29.1836C59.1654 29.1836 59.6743 28.8287 59.6743 28.159C59.6743 27.6099 59.2926 27.3286 58.7234 27.1679ZM62.4896 28.9358V28.3934C62.3289 28.4938 62.0677 28.5876 61.7864 28.5876C61.4248 28.5876 61.2105 28.4269 61.2105 28.0184V26.0965H62.4628V25.5406H61.2105V24.871H61.0632L60.0386 25.9357V26.0965H60.581V28.0854C60.581 28.9425 61.0766 29.1568 61.6324 29.1568C62.0275 29.1568 62.3155 29.0497 62.4896 28.9358ZM64.8466 29.1568C65.9114 29.1568 66.6882 28.3599 66.6882 27.3152C66.6882 26.2572 65.9114 25.4737 64.8466 25.4737C63.7818 25.4737 63.005 26.2572 63.005 27.3152C63.005 28.3599 63.7818 29.1568 64.8466 29.1568ZM64.8466 28.5675C64.1501 28.5675 63.6278 28.0318 63.6278 27.3152C63.6278 26.5853 64.1501 26.063 64.8466 26.063C65.5497 26.063 66.0654 26.5853 66.0654 27.3152C66.0654 28.0385 65.5497 28.5675 64.8466 28.5675ZM67.4559 25.5406V29.0898H68.0854V26.4045C68.3265 26.2572 68.6948 26.0764 69.0832 26.0764C69.5587 26.0764 69.8533 26.3643 69.8533 26.9268V29.0898H70.4828V26.7527C70.4828 26.6322 70.4761 26.5116 70.456 26.4045C70.7105 26.2505 71.0855 26.0764 71.4806 26.0764C71.9627 26.0764 72.2574 26.3643 72.2574 26.9268V29.0898H72.8802V26.7862C72.8802 25.9357 72.4583 25.4737 71.7217 25.4737C71.1056 25.4737 70.6502 25.775 70.3422 26.0496C70.1614 25.6746 69.8131 25.4737 69.3176 25.4737C68.7618 25.4737 68.3332 25.7415 68.0452 25.9893V25.5406H67.4559ZM76.7595 28.8421V28.2862C76.4983 28.4336 76.0094 28.5608 75.534 28.5608C74.7907 28.5608 74.3085 28.2193 74.2616 27.5094H76.8331V27.2148C76.8331 26.1098 76.2773 25.467 75.3063 25.467C74.3152 25.467 73.6254 26.1567 73.6254 27.3152C73.6254 28.5206 74.3889 29.1568 75.4737 29.1568C75.9626 29.1568 76.505 29.0296 76.7595 28.8421ZM75.2728 26.0094C75.8956 26.0094 76.2036 26.4112 76.217 27.0809H74.2549C74.2884 26.4045 74.6835 26.0094 75.2728 26.0094ZM77.6316 25.5406V29.0898H78.2611V26.4514C78.5022 26.2706 78.8705 26.0764 79.2187 26.0764C79.4732 26.0764 79.6808 26.15 79.8348 26.2438V25.5808C79.7076 25.5138 79.5603 25.4737 79.4062 25.4737C78.9308 25.4737 78.4955 25.775 78.2209 26.0496V25.5406H77.6316ZM82.0046 27.1679L81.5694 27.0407C81.114 26.9067 80.8193 26.7996 80.8193 26.4782C80.8193 26.1768 81.1207 26.0295 81.4957 26.0295C81.998 26.0295 82.5404 26.2304 82.7948 26.4246V25.7951C82.5471 25.6277 82.0381 25.467 81.5292 25.467C80.7055 25.467 80.21 25.9089 80.21 26.4983C80.21 27.1143 80.6586 27.3755 81.1877 27.5094L81.6363 27.6434C82.0917 27.7639 82.3596 27.8644 82.3596 28.1724C82.3596 28.5072 82.0984 28.6278 81.6765 28.6278C81.1274 28.6278 80.5716 28.4135 80.2434 28.2059V28.822C80.5113 28.9894 81.0805 29.1836 81.6497 29.1836C82.4466 29.1836 82.9556 28.8287 82.9556 28.159C82.9556 27.6099 82.5739 27.3286 82.0046 27.1679ZM87.2483 26.9335V27.255C87.0876 27.1947 86.813 27.1277 86.4648 27.1277C85.5541 27.1277 84.9648 27.5831 84.9648 28.2059C84.9648 28.7952 85.3733 29.1568 86.0898 29.1568C86.6188 29.1568 87.034 28.8956 87.2885 28.6211V29.0898H87.8778V26.9268C87.8778 25.8688 87.2081 25.4737 86.438 25.4737C85.7817 25.4737 85.2393 25.7817 85.0049 26.0228V26.6724C85.3063 26.3643 85.8018 26.0965 86.3577 26.0965C86.8331 26.0965 87.2483 26.3308 87.2483 26.9335ZM85.5541 28.1791C85.5541 27.8108 85.9157 27.563 86.6188 27.563C86.8465 27.563 87.0876 27.6032 87.2483 27.6501V28.2528C86.9737 28.4805 86.592 28.668 86.1902 28.668C85.8353 28.668 85.5541 28.5273 85.5541 28.1791ZM88.7818 25.5406V29.0898H89.4113V26.4514C89.6523 26.2706 90.0207 26.0764 90.3689 26.0764C90.6234 26.0764 90.8309 26.15 90.985 26.2438V25.5808C90.8577 25.5138 90.7104 25.4737 90.5564 25.4737C90.0809 25.4737 89.6456 25.775 89.3711 26.0496V25.5406H88.7818ZM94.5343 28.8421V28.2862C94.2731 28.4336 93.7843 28.5608 93.3088 28.5608C92.5655 28.5608 92.0833 28.2193 92.0364 27.5094H94.608V27.2148C94.608 26.1098 94.0521 25.467 93.0811 25.467C92.09 25.467 91.4003 26.1567 91.4003 27.3152C91.4003 28.5206 92.1637 29.1568 93.2485 29.1568C93.7374 29.1568 94.2798 29.0296 94.5343 28.8421ZM93.0476 26.0094C93.6704 26.0094 93.9785 26.4112 93.9919 27.0809H92.0298C92.0632 26.4045 92.4583 26.0094 93.0476 26.0094ZM96.9041 24.4826V29.0898H97.5335V24.3821L96.9041 24.4826ZM98.8019 25.0451C99.0764 25.0451 99.2505 24.8978 99.2505 24.6768C99.2505 24.4491 99.0764 24.3018 98.8019 24.3018C98.5273 24.3018 98.3465 24.4491 98.3465 24.6768C98.3465 24.8978 98.5273 25.0451 98.8019 25.0451ZM98.4804 25.5406V29.0898H99.1099V25.5406H98.4804ZM100.069 24.4826V29.0898H100.699V27.4425H101.322L102.447 29.0898H103.17L101.79 27.1277L103.17 25.5406H102.44L101.348 26.8532H100.699V24.3821L100.069 24.4826ZM106.711 28.8421V28.2862C106.45 28.4336 105.961 28.5608 105.486 28.5608C104.742 28.5608 104.26 28.2193 104.213 27.5094H106.785V27.2148C106.785 26.1098 106.229 25.467 105.258 25.467C104.267 25.467 103.577 26.1567 103.577 27.3152C103.577 28.5206 104.341 29.1568 105.425 29.1568C105.914 29.1568 106.457 29.0296 106.711 28.8421ZM105.225 26.0094C105.847 26.0094 106.155 26.4112 106.169 27.0809H104.207C104.24 26.4045 104.635 26.0094 105.225 26.0094ZM107.583 24.4826V29.0898H108.213V24.3821L107.583 24.4826ZM109.675 30.2149C110.144 30.2149 110.526 29.9671 110.794 29.3443L112.468 25.5406H111.771L110.646 28.2862L109.488 25.5406H108.785L110.352 28.9894L110.231 29.2506C110.117 29.4916 109.91 29.639 109.642 29.639C109.274 29.639 108.986 29.4247 108.858 29.2907V29.9135C108.999 30.0408 109.294 30.2149 109.675 30.2149ZM116.56 28.9358V28.3934C116.399 28.4938 116.138 28.5876 115.856 28.5876C115.495 28.5876 115.281 28.4269 115.281 28.0184V26.0965H116.533V25.5406H115.281V24.871H115.133L114.109 25.9357V26.0965H114.651V28.0854C114.651 28.9425 115.147 29.1568 115.702 29.1568C116.098 29.1568 116.385 29.0497 116.56 28.9358ZM118.917 29.1568C119.981 29.1568 120.758 28.3599 120.758 27.3152C120.758 26.2572 119.981 25.4737 118.917 25.4737C117.852 25.4737 117.075 26.2572 117.075 27.3152C117.075 28.3599 117.852 29.1568 118.917 29.1568ZM118.917 28.5675C118.22 28.5675 117.698 28.0318 117.698 27.3152C117.698 26.5853 118.22 26.063 118.917 26.063C119.62 26.063 120.135 26.5853 120.135 27.3152C120.135 28.0385 119.62 28.5675 118.917 28.5675ZM124.611 27.1679L124.175 27.0407C123.72 26.9067 123.425 26.7996 123.425 26.4782C123.425 26.1768 123.727 26.0295 124.102 26.0295C124.604 26.0295 125.146 26.2304 125.401 26.4246V25.7951C125.153 25.6277 124.644 25.467 124.135 25.467C123.311 25.467 122.816 25.9089 122.816 26.4983C122.816 27.1143 123.265 27.3755 123.794 27.5094L124.242 27.6434C124.698 27.7639 124.966 27.8644 124.966 28.1724C124.966 28.5072 124.704 28.6278 124.282 28.6278C123.733 28.6278 123.178 28.4135 122.849 28.2059V28.822C123.117 28.9894 123.686 29.1836 124.256 29.1836C125.053 29.1836 125.562 28.8287 125.562 28.159C125.562 27.6099 125.18 27.3286 124.611 27.1679ZM127.593 29.1568C128.611 29.1568 129.515 28.5273 129.515 27.2215C129.515 26.0429 128.785 25.4737 127.955 25.4737C127.459 25.4737 127.084 25.6612 126.85 25.8554V25.5406H126.261V30.1479H126.89V29.0698C127.091 29.1233 127.305 29.1568 127.593 29.1568ZM127.781 26.0362C128.43 26.0362 128.866 26.4782 128.866 27.2617C128.866 28.1724 128.303 28.5943 127.566 28.5943C127.285 28.5943 127.071 28.5407 126.89 28.4805V26.3308C127.091 26.1902 127.399 26.0362 127.781 26.0362ZM133.249 28.8421V28.2862C132.988 28.4336 132.499 28.5608 132.024 28.5608C131.28 28.5608 130.798 28.2193 130.751 27.5094H133.323V27.2148C133.323 26.1098 132.767 25.467 131.796 25.467C130.805 25.467 130.115 26.1567 130.115 27.3152C130.115 28.5206 130.879 29.1568 131.963 29.1568C132.452 29.1568 132.995 29.0296 133.249 28.8421ZM131.762 26.0094C132.385 26.0094 132.693 26.4112 132.707 27.0809H130.745C130.778 26.4045 131.173 26.0094 131.762 26.0094ZM134.121 25.5406V29.0898H134.751V26.3978C134.999 26.2505 135.4 26.0764 135.816 26.0764C136.338 26.0764 136.653 26.371 136.653 26.9536V29.0898H137.282V26.813C137.282 25.9424 136.833 25.4737 136.05 25.4737C135.467 25.4737 135.012 25.7415 134.711 25.9893V25.5406H134.121ZM140.693 29.0898H141.283V24.3821L140.653 24.4826V25.5607C140.452 25.5138 140.231 25.4737 139.943 25.4737C138.932 25.4737 138.028 26.1031 138.028 27.409C138.028 28.5876 138.758 29.1568 139.588 29.1568C140.084 29.1568 140.459 28.9693 140.693 28.7751V29.0898ZM139.977 26.0362C140.258 26.0362 140.472 26.0898 140.653 26.15V28.3063C140.459 28.4403 140.131 28.5943 139.756 28.5943C139.1 28.5943 138.671 28.1523 138.671 27.3688C138.671 26.4581 139.24 26.0362 139.977 26.0362Z" fill="#A9A9A9"/>
<rect x="24" y="44" width="1" height="121" fill="#F7F7F7"/>
<rect x="98" y="44" width="1" height="121" fill="#F7F7F7"/>
<rect x="548" y="44" width="1" height="121" fill="#F7F7F7"/>
<rect x="173" y="44" width="1" height="121" fill="#F7F7F7"/>
<rect x="248" y="44" width="1" height="121" fill="#F7F7F7"/>
<rect x="323" y="44" width="1" height="121" fill="#F7F7F7"/>
<rect x="398" y="44" width="1" height="121" fill="#F7F7F7"/>
<rect x="473" y="44" width="1" height="121" fill="#F7F7F7"/>
<rect x="23.8379" y="52.5884" width="752.405" height="0.650158" fill="#F7F7F7"/>
<rect x="23.8379" y="77" width="752.405" height="0.650158" fill="#F7F7F7"/>
<rect x="23.8379" y="101" width="752.405" height="0.650158" fill="#F7F7F7"/>
<rect x="23.8379" y="125" width="752.405" height="0.650158" fill="#F7F7F7"/>
<rect x="23.8379" y="149" width="752.405" height="0.650158" fill="#F7F7F7"/>
<rect x="23.8379" y="165.189" width="753.489" height="0.650158" fill="#F7F7F7"/>
<rect x="34" y="85" width="55" height="81" fill="#FFD5C7"/>
<rect x="334" y="124" width="55" height="42.2602" fill="#D3ECFF"/>
<rect x="558" y="132" width="55" height="33.5915" fill="#629D93"/>
<rect x="109" y="132" width="55" height="33.5915" fill="#EA66FF"/>
<rect x="408" y="101" width="55" height="65.0158" fill="#C3EDB4"/>
<rect x="183" y="104" width="55" height="61.765" fill="#E4E591"/>
<rect x="483" y="112" width="55" height="54.1798" fill="#7BFFE7"/>
<rect x="259" y="107" width="55" height="58.5142" fill="#8D4B8B"/>
<path d="M56.4711 175.693C57.5621 175.693 58.3928 174.884 58.3928 173.738C58.3928 172.58 57.5621 171.772 56.4711 171.772C55.369 171.772 54.5383 172.58 54.5383 173.738C54.5383 174.884 55.369 175.693 56.4711 175.693ZM56.4711 175.327C55.5906 175.327 54.9205 174.674 54.9205 173.738C54.9205 172.791 55.585 172.137 56.4711 172.137C57.3461 172.137 58.0107 172.791 58.0107 173.738C58.0107 174.674 57.3461 175.327 56.4711 175.327ZM60.7611 175.51V175.189C60.6227 175.283 60.4122 175.366 60.1685 175.366C59.8363 175.366 59.6424 175.211 59.6424 174.834V173.018H60.7334V172.702H59.6424V172.148H59.5538L58.8339 172.924V173.018H59.288V174.862C59.288 175.532 59.6923 175.693 60.1021 175.693C60.4067 175.693 60.6282 175.599 60.7611 175.51ZM62.7505 172.985C63.2102 172.985 63.5369 173.245 63.5369 173.815V175.637H63.8858V173.755C63.8858 173.001 63.4649 172.647 62.8558 172.647C62.3684 172.647 62.0029 172.863 61.7481 173.062V171.755L61.3937 171.827V175.637H61.7481V173.328C61.9752 173.184 62.3518 172.985 62.7505 172.985ZM67.1118 175.46V175.133C66.9069 175.266 66.4805 175.355 66.1095 175.355C65.4615 175.355 64.9797 175.017 64.9409 174.297H67.1894V174.126C67.1894 173.173 66.7353 172.641 65.9378 172.641C65.1514 172.641 64.581 173.195 64.581 174.17C64.581 175.178 65.2178 175.693 66.0818 175.693C66.4528 175.693 66.8903 175.61 67.1118 175.46ZM65.9267 172.957C66.5082 172.957 66.8239 173.339 66.8405 174.037H64.9409C64.9631 173.339 65.3729 172.957 65.9267 172.957ZM67.9323 172.702V175.637H68.2867V173.4C68.4972 173.212 68.8627 172.985 69.1784 172.985C69.3777 172.985 69.5328 173.04 69.6546 173.123V172.752C69.5383 172.686 69.411 172.647 69.267 172.647C68.8627 172.647 68.5027 172.918 68.2646 173.156V172.702H67.9323Z" fill="#AAAAAA"/>
<path d="M126.657 175.349C125.693 175.349 125.023 174.69 125.023 173.738C125.023 172.78 125.693 172.115 126.657 172.115C127.216 172.115 127.654 172.315 127.975 172.536V172.143C127.632 171.927 127.2 171.772 126.646 171.772C125.483 171.772 124.641 172.58 124.641 173.738C124.641 174.89 125.483 175.698 126.657 175.698C127.216 175.698 127.632 175.543 127.975 175.327V173.594H126.247V173.91H127.61V175.139C127.344 175.266 127.028 175.349 126.657 175.349ZM128.782 172.702V175.637H129.136V173.4C129.346 173.212 129.712 172.985 130.028 172.985C130.227 172.985 130.382 173.04 130.504 173.123V172.752C130.388 172.686 130.26 172.647 130.116 172.647C129.712 172.647 129.352 172.918 129.114 173.156V172.702H128.782ZM132.399 175.693C133.268 175.693 133.9 175.034 133.9 174.17C133.9 173.3 133.268 172.647 132.399 172.647C131.529 172.647 130.898 173.3 130.898 174.17C130.898 175.034 131.529 175.693 132.399 175.693ZM132.399 175.361C131.734 175.361 131.252 174.846 131.252 174.17C131.252 173.489 131.734 172.979 132.399 172.979C133.069 172.979 133.545 173.489 133.545 174.17C133.545 174.846 133.069 175.361 132.399 175.361ZM136.871 172.852C136.666 172.713 136.367 172.641 136.046 172.641C135.149 172.641 134.462 173.239 134.462 174.17C134.462 175.073 135.149 175.693 136.04 175.693C136.367 175.693 136.666 175.61 136.871 175.471V175.117C136.677 175.255 136.378 175.355 136.051 175.355C135.348 175.355 134.822 174.884 134.822 174.17C134.822 173.439 135.348 172.979 136.057 172.979C136.378 172.979 136.677 173.068 136.871 173.212V172.852ZM139.93 175.46V175.133C139.725 175.266 139.298 175.355 138.927 175.355C138.279 175.355 137.797 175.017 137.759 174.297H140.007V174.126C140.007 173.173 139.553 172.641 138.756 172.641C137.969 172.641 137.399 173.195 137.399 174.17C137.399 175.178 138.036 175.693 138.9 175.693C139.271 175.693 139.708 175.61 139.93 175.46ZM138.744 172.957C139.326 172.957 139.642 173.339 139.658 174.037H137.759C137.781 173.339 138.191 172.957 138.744 172.957ZM140.75 172.702V175.637H141.105V173.4C141.315 173.212 141.68 172.985 141.996 172.985C142.196 172.985 142.351 173.04 142.472 173.123V172.752C142.356 172.686 142.229 172.647 142.085 172.647C141.68 172.647 141.32 172.918 141.082 173.156V172.702H140.75ZM143.204 172.232C143.37 172.232 143.487 172.132 143.487 171.988C143.487 171.844 143.37 171.744 143.204 171.744C143.044 171.744 142.927 171.844 142.927 171.988C142.927 172.132 143.044 172.232 143.204 172.232ZM143.027 172.702V175.637H143.382V172.702H143.027ZM146.636 175.46V175.133C146.431 175.266 146.005 175.355 145.633 175.355C144.986 175.355 144.504 175.017 144.465 174.297H146.713V174.126C146.713 173.173 146.259 172.641 145.462 172.641C144.675 172.641 144.105 173.195 144.105 174.17C144.105 175.178 144.742 175.693 145.606 175.693C145.977 175.693 146.414 175.61 146.636 175.46ZM145.451 172.957C146.032 172.957 146.348 173.339 146.364 174.037H144.465C144.487 173.339 144.897 172.957 145.451 172.957ZM148.697 174.126L148.281 173.998C147.888 173.876 147.611 173.76 147.611 173.433C147.611 173.118 147.927 172.957 148.281 172.957C148.686 172.957 149.101 173.123 149.317 173.284V172.913C149.101 172.774 148.708 172.641 148.293 172.641C147.656 172.641 147.268 172.996 147.268 173.444C147.268 173.937 147.622 174.142 148.032 174.258L148.481 174.391C148.869 174.508 149.112 174.613 149.112 174.934C149.112 175.283 148.852 175.405 148.448 175.405C147.988 175.405 147.523 175.217 147.262 175.045V175.41C147.501 175.554 147.955 175.721 148.442 175.721C149.073 175.721 149.45 175.444 149.45 174.923C149.45 174.469 149.123 174.253 148.697 174.126Z" fill="#AAAAAA"/>
<path d="M201.475 175.698C202.029 175.698 202.444 175.543 202.788 175.327V174.929C202.472 175.15 202.04 175.349 201.486 175.349C200.584 175.349 199.902 174.69 199.902 173.738C199.902 172.78 200.584 172.115 201.486 172.115C202.04 172.115 202.472 172.315 202.788 172.536V172.143C202.444 171.927 202.029 171.772 201.475 171.772C200.368 171.772 199.52 172.586 199.52 173.738C199.52 174.89 200.368 175.698 201.475 175.698ZM205.185 173.788V174.142C205.041 174.092 204.797 174.042 204.498 174.042C203.695 174.042 203.23 174.43 203.23 174.934C203.23 175.388 203.54 175.693 204.138 175.693C204.598 175.693 204.969 175.455 205.207 175.194V175.637H205.534V173.793C205.534 172.957 204.996 172.647 204.404 172.647C203.872 172.647 203.44 172.907 203.252 173.112V173.489C203.495 173.228 203.883 172.99 204.371 172.99C204.797 172.99 205.185 173.206 205.185 173.788ZM203.567 174.918C203.567 174.563 203.9 174.297 204.598 174.297C204.808 174.297 205.041 174.342 205.185 174.386V174.962C204.924 175.2 204.575 175.405 204.182 175.405C203.839 175.405 203.567 175.266 203.567 174.918ZM206.741 171.755L206.386 171.827V175.471C206.68 175.582 207.04 175.693 207.516 175.693C208.33 175.693 208.984 175.161 208.984 174.109C208.984 173.184 208.452 172.647 207.71 172.647C207.289 172.647 206.935 172.835 206.741 172.99V171.755ZM207.638 172.974C208.225 172.974 208.618 173.411 208.618 174.126C208.618 174.967 208.164 175.372 207.505 175.372C207.201 175.372 206.957 175.311 206.741 175.244V173.295C206.929 173.145 207.245 172.974 207.638 172.974ZM209.674 175.804L211.546 171.412H211.23L209.358 175.804H209.674ZM211.683 172.171H213.018V175.637H213.383V172.171H214.718V171.827H211.683V172.171ZM217.002 173.788V174.142C216.858 174.092 216.614 174.042 216.315 174.042C215.512 174.042 215.047 174.43 215.047 174.934C215.047 175.388 215.357 175.693 215.955 175.693C216.415 175.693 216.786 175.455 217.024 175.194V175.637H217.351V173.793C217.351 172.957 216.813 172.647 216.221 172.647C215.689 172.647 215.257 172.907 215.069 173.112V173.489C215.313 173.228 215.7 172.99 216.188 172.99C216.614 172.99 217.002 173.206 217.002 173.788ZM215.385 174.918C215.385 174.563 215.717 174.297 216.415 174.297C216.625 174.297 216.858 174.342 217.002 174.386V174.962C216.741 175.2 216.392 175.405 215.999 175.405C215.656 175.405 215.385 175.266 215.385 174.918ZM220.048 175.637H220.463L219.394 174.131L220.452 172.702H220.037L219.151 173.932L218.259 172.702H217.844L218.901 174.142L217.832 175.637H218.248L219.145 174.33L220.048 175.637ZM221.166 172.232C221.332 172.232 221.449 172.132 221.449 171.988C221.449 171.844 221.332 171.744 221.166 171.744C221.006 171.744 220.889 171.844 220.889 171.988C220.889 172.132 221.006 172.232 221.166 172.232ZM220.989 172.702V175.637H221.343V172.702H220.989Z" fill="#AAAAAA"/>
<path d="M267.829 171.827V175.637H270.46V175.294H268.195V173.876H270.183V173.533H268.195V172.171H270.46V171.827H267.829ZM271.17 172.702V175.637H271.524V173.328C271.751 173.184 272.128 172.985 272.527 172.985C272.986 172.985 273.313 173.245 273.313 173.815V175.637H273.662V173.755C273.662 173.001 273.241 172.647 272.632 172.647C272.128 172.647 271.757 172.879 271.502 173.084V172.702H271.17ZM276.135 175.51V175.189C275.996 175.283 275.786 175.366 275.542 175.366C275.21 175.366 275.016 175.211 275.016 174.834V173.018H276.107V172.702H275.016V172.148H274.927L274.207 172.924V173.018H274.662V174.862C274.662 175.532 275.066 175.693 275.476 175.693C275.78 175.693 276.002 175.599 276.135 175.51ZM279.143 175.46V175.133C278.938 175.266 278.512 175.355 278.141 175.355C277.493 175.355 277.011 175.017 276.972 174.297H279.221V174.126C279.221 173.173 278.767 172.641 277.969 172.641C277.183 172.641 276.612 173.195 276.612 174.17C276.612 175.178 277.249 175.693 278.113 175.693C278.484 175.693 278.922 175.61 279.143 175.46ZM277.958 172.957C278.539 172.957 278.855 173.339 278.872 174.037H276.972C276.994 173.339 277.404 172.957 277.958 172.957ZM279.964 172.702V175.637H280.318V173.4C280.528 173.212 280.894 172.985 281.21 172.985C281.409 172.985 281.564 173.04 281.686 173.123V172.752C281.57 172.686 281.442 172.647 281.298 172.647C280.894 172.647 280.534 172.918 280.296 173.156V172.702H279.964ZM283.858 175.51V175.189C283.719 175.283 283.509 175.366 283.265 175.366C282.933 175.366 282.739 175.211 282.739 174.834V173.018H283.83V172.702H282.739V172.148H282.65L281.93 172.924V173.018H282.385V174.862C282.385 175.532 282.789 175.693 283.199 175.693C283.503 175.693 283.725 175.599 283.858 175.51ZM286.285 173.788V174.142C286.141 174.092 285.897 174.042 285.598 174.042C284.795 174.042 284.33 174.43 284.33 174.934C284.33 175.388 284.64 175.693 285.238 175.693C285.698 175.693 286.069 175.455 286.307 175.194V175.637H286.633V173.793C286.633 172.957 286.096 172.647 285.504 172.647C284.972 172.647 284.54 172.907 284.352 173.112V173.489C284.595 173.228 284.983 172.99 285.471 172.99C285.897 172.99 286.285 173.206 286.285 173.788ZM284.667 174.918C284.667 174.563 285 174.297 285.698 174.297C285.908 174.297 286.141 174.342 286.285 174.386V174.962C286.024 175.2 285.675 175.405 285.282 175.405C284.939 175.405 284.667 175.266 284.667 174.918ZM287.669 172.232C287.835 172.232 287.952 172.132 287.952 171.988C287.952 171.844 287.835 171.744 287.669 171.744C287.509 171.744 287.392 171.844 287.392 171.988C287.392 172.132 287.509 172.232 287.669 172.232ZM287.492 172.702V175.637H287.846V172.702H287.492ZM288.725 172.702V175.637H289.079V173.328C289.306 173.184 289.683 172.985 290.082 172.985C290.541 172.985 290.868 173.245 290.868 173.815V175.637H291.217V173.755C291.217 173.001 290.796 172.647 290.187 172.647C289.683 172.647 289.312 172.879 289.057 173.084V172.702H288.725ZM292.067 172.702V175.637H292.422V173.328C292.638 173.184 292.992 172.985 293.369 172.985C293.795 172.985 294.1 173.239 294.1 173.788V175.637H294.449V173.683C294.449 173.555 294.438 173.444 294.41 173.339C294.642 173.179 295.008 172.985 295.401 172.985C295.822 172.985 296.127 173.239 296.127 173.788V175.637H296.481V173.727C296.481 172.996 296.088 172.647 295.506 172.647C294.986 172.647 294.598 172.902 294.338 173.129C294.177 172.808 293.873 172.647 293.474 172.647C292.998 172.647 292.649 172.885 292.4 173.079V172.702H292.067ZM299.705 175.46V175.133C299.5 175.266 299.074 175.355 298.703 175.355C298.055 175.355 297.573 175.017 297.534 174.297H299.783V174.126C299.783 173.173 299.329 172.641 298.531 172.641C297.745 172.641 297.174 173.195 297.174 174.17C297.174 175.178 297.811 175.693 298.675 175.693C299.046 175.693 299.484 175.61 299.705 175.46ZM298.52 172.957C299.102 172.957 299.417 173.339 299.434 174.037H297.534C297.557 173.339 297.966 172.957 298.52 172.957ZM300.526 172.702V175.637H300.88V173.328C301.107 173.184 301.484 172.985 301.883 172.985C302.342 172.985 302.669 173.245 302.669 173.815V175.637H303.018V173.755C303.018 173.001 302.597 172.647 301.988 172.647C301.484 172.647 301.113 172.879 300.858 173.084V172.702H300.526ZM305.491 175.51V175.189C305.352 175.283 305.142 175.366 304.898 175.366C304.566 175.366 304.372 175.211 304.372 174.834V173.018H305.463V172.702H304.372V172.148H304.283L303.563 172.924V173.018H304.018V174.862C304.018 175.532 304.422 175.693 304.832 175.693C305.136 175.693 305.358 175.599 305.491 175.51Z" fill="#AAAAAA"/>
<path d="M351.786 174.724C351.786 175.095 351.515 175.349 350.905 175.349C350.363 175.349 349.814 175.128 349.471 174.895V175.283C349.792 175.493 350.318 175.693 350.905 175.693C351.631 175.693 352.163 175.355 352.163 174.707C352.163 174.048 351.736 173.843 351.072 173.627L350.662 173.494C350.185 173.339 349.825 173.195 349.825 172.758C349.825 172.392 350.125 172.121 350.706 172.121C351.227 172.121 351.703 172.337 351.974 172.536V172.126C351.747 171.96 351.299 171.766 350.712 171.766C350.014 171.766 349.438 172.121 349.438 172.785C349.438 173.428 349.942 173.644 350.446 173.804L350.961 173.97C351.498 174.148 351.786 174.303 351.786 174.724ZM354.211 172.985C354.671 172.985 354.998 173.245 354.998 173.815V175.637H355.346V173.755C355.346 173.001 354.926 172.647 354.316 172.647C353.829 172.647 353.464 172.863 353.209 173.062V171.755L352.854 171.827V175.637H353.209V173.328C353.436 173.184 353.812 172.985 354.211 172.985ZM357.542 175.693C358.412 175.693 359.043 175.034 359.043 174.17C359.043 173.3 358.412 172.647 357.542 172.647C356.673 172.647 356.042 173.3 356.042 174.17C356.042 175.034 356.673 175.693 357.542 175.693ZM357.542 175.361C356.878 175.361 356.396 174.846 356.396 174.17C356.396 173.489 356.878 172.979 357.542 172.979C358.212 172.979 358.689 173.489 358.689 174.17C358.689 174.846 358.212 175.361 357.542 175.361ZM360.813 175.693C361.671 175.693 362.358 175.139 362.358 174.092C362.358 173.151 361.799 172.647 361.073 172.647C360.625 172.647 360.287 172.841 360.093 173.012V172.702H359.761V176.512H360.115V175.582C360.309 175.643 360.519 175.693 360.813 175.693ZM360.996 172.968C361.605 172.968 361.993 173.395 361.993 174.109C361.993 174.94 361.5 175.372 360.802 175.372C360.508 175.372 360.303 175.311 360.115 175.244V173.295C360.298 173.145 360.602 172.968 360.996 172.968ZM364.128 175.693C364.987 175.693 365.673 175.139 365.673 174.092C365.673 173.151 365.114 172.647 364.388 172.647C363.94 172.647 363.602 172.841 363.408 173.012V172.702H363.076V176.512H363.43V175.582C363.624 175.643 363.835 175.693 364.128 175.693ZM364.311 172.968C364.92 172.968 365.308 173.395 365.308 174.109C365.308 174.94 364.815 175.372 364.117 175.372C363.824 175.372 363.619 175.311 363.43 175.244V173.295C363.613 173.145 363.918 172.968 364.311 172.968ZM366.574 172.232C366.74 172.232 366.856 172.132 366.856 171.988C366.856 171.844 366.74 171.744 366.574 171.744C366.413 171.744 366.297 171.844 366.297 171.988C366.297 172.132 366.413 172.232 366.574 172.232ZM366.397 172.702V175.637H366.751V172.702H366.397ZM367.63 172.702V175.637H367.984V173.328C368.211 173.184 368.588 172.985 368.987 172.985C369.446 172.985 369.773 173.245 369.773 173.815V175.637H370.122V173.755C370.122 173.001 369.701 172.647 369.092 172.647C368.588 172.647 368.217 172.879 367.962 173.084V172.702H367.63ZM373.403 175.261V172.885C373.137 172.774 372.8 172.647 372.345 172.647C371.487 172.647 370.817 173.184 370.817 174.181C370.817 175.006 371.332 175.471 372.085 175.471C372.512 175.471 372.86 175.283 373.049 175.122V175.294C373.049 175.914 372.661 176.236 372.052 176.236C371.587 176.236 371.221 176.058 370.955 175.887V176.258C371.199 176.402 371.598 176.568 372.08 176.568C372.816 176.568 373.403 176.175 373.403 175.261ZM371.182 174.148C371.182 173.395 371.653 172.968 372.34 172.968C372.645 172.968 372.86 173.035 373.049 173.107V174.823C372.86 174.973 372.545 175.15 372.152 175.15C371.57 175.15 371.182 174.801 371.182 174.148Z" fill="#AAAAAA"/>
<path d="M431.652 175.349C430.689 175.349 430.019 174.69 430.019 173.738C430.019 172.78 430.689 172.115 431.652 172.115C432.212 172.115 432.649 172.315 432.97 172.536V172.143C432.627 171.927 432.195 171.772 431.641 171.772C430.478 171.772 429.636 172.58 429.636 173.738C429.636 174.89 430.478 175.698 431.652 175.698C432.212 175.698 432.627 175.543 432.97 175.327V173.594H431.243V173.91H432.605V175.139C432.339 175.266 432.023 175.349 431.652 175.349ZM434.12 176.568C434.48 176.568 434.741 176.368 434.94 175.909L436.352 172.702H435.964L434.907 175.189L433.849 172.702H433.456L434.741 175.582L434.613 175.865C434.508 176.097 434.331 176.241 434.104 176.241C433.832 176.241 433.605 176.08 433.506 175.964V176.335C433.605 176.429 433.827 176.568 434.12 176.568ZM436.843 172.702V175.637H437.198V173.328C437.414 173.184 437.768 172.985 438.145 172.985C438.571 172.985 438.876 173.239 438.876 173.788V175.637H439.225V173.683C439.225 173.555 439.214 173.444 439.186 173.339C439.419 173.179 439.784 172.985 440.177 172.985C440.598 172.985 440.903 173.239 440.903 173.788V175.637H441.257V173.727C441.257 172.996 440.864 172.647 440.283 172.647C439.762 172.647 439.374 172.902 439.114 173.129C438.953 172.808 438.649 172.647 438.25 172.647C437.774 172.647 437.425 172.885 437.176 173.079V172.702H436.843Z" fill="#AAAAAA"/>
<path d="M499.673 175.637H500.083L501.645 172.431V175.637H502.01V171.827H501.517L499.878 175.266L498.239 171.827H497.746V175.637H498.111V172.431L499.673 175.637ZM504.309 175.693C505.178 175.693 505.81 175.034 505.81 174.17C505.81 173.3 505.178 172.647 504.309 172.647C503.439 172.647 502.808 173.3 502.808 174.17C502.808 175.034 503.439 175.693 504.309 175.693ZM504.309 175.361C503.644 175.361 503.162 174.846 503.162 174.17C503.162 173.489 503.644 172.979 504.309 172.979C504.979 172.979 505.455 173.489 505.455 174.17C505.455 174.846 504.979 175.361 504.309 175.361ZM506.882 171.755L506.527 171.827V175.471C506.821 175.582 507.181 175.693 507.657 175.693C508.471 175.693 509.124 175.161 509.124 174.109C509.124 173.184 508.593 172.647 507.851 172.647C507.43 172.647 507.075 172.835 506.882 172.99V171.755ZM507.779 172.974C508.366 172.974 508.759 173.411 508.759 174.126C508.759 174.967 508.305 175.372 507.646 175.372C507.341 175.372 507.097 175.311 506.882 175.244V173.295C507.07 173.145 507.385 172.974 507.779 172.974ZM510.025 172.232C510.191 172.232 510.308 172.132 510.308 171.988C510.308 171.844 510.191 171.744 510.025 171.744C509.864 171.744 509.748 171.844 509.748 171.988C509.748 172.132 509.864 172.232 510.025 172.232ZM509.848 172.702V175.637H510.202V172.702H509.848ZM511.081 171.827V175.637H511.435V171.755L511.081 171.827ZM514.684 175.46V175.133C514.479 175.266 514.053 175.355 513.682 175.355C513.034 175.355 512.552 175.017 512.513 174.297H514.762V174.126C514.762 173.173 514.308 172.641 513.51 172.641C512.724 172.641 512.153 173.195 512.153 174.17C512.153 175.178 512.79 175.693 513.654 175.693C514.025 175.693 514.463 175.61 514.684 175.46ZM513.499 172.957C514.081 172.957 514.396 173.339 514.413 174.037H512.513C512.536 173.339 512.945 172.957 513.499 172.957ZM516.891 175.637H518.492C519.272 175.637 519.81 175.316 519.81 174.607C519.81 174.054 519.461 173.699 518.824 173.616C519.239 173.533 519.566 173.234 519.566 172.763C519.566 172.082 519.057 171.827 518.386 171.827H516.891V175.637ZM518.359 172.171C518.835 172.171 519.178 172.331 519.178 172.819C519.178 173.267 518.813 173.483 518.32 173.483H517.257V172.171H518.359ZM518.42 173.799C518.99 173.799 519.416 174.02 519.416 174.546C519.416 175.095 519.001 175.294 518.464 175.294H517.257V173.799H518.42ZM520.696 172.232C520.862 172.232 520.978 172.132 520.978 171.988C520.978 171.844 520.862 171.744 520.696 171.744C520.535 171.744 520.419 171.844 520.419 171.988C520.419 172.132 520.535 172.232 520.696 172.232ZM520.518 172.702V175.637H520.873V172.702H520.518ZM521.751 171.827V175.637H522.106V171.755L521.751 171.827ZM522.979 171.827V175.637H523.333V171.755L522.979 171.827Z" fill="#AAAAAA"/>
<path d="M572.811 171.781V175.592H575.441V175.248H573.176V173.83H575.164V173.487H573.176V172.125H575.441V171.781H572.811ZM578.267 175.592H578.594V171.709L578.239 171.781V172.712C578.045 172.651 577.835 172.601 577.541 172.601C576.683 172.601 575.996 173.149 575.996 174.201C575.996 175.143 576.556 175.647 577.287 175.647C577.73 175.647 578.078 175.448 578.267 175.281V175.592ZM577.552 172.922C577.851 172.922 578.056 172.983 578.239 173.05V175.005C578.062 175.149 577.746 175.326 577.359 175.326C576.749 175.326 576.362 174.899 576.362 174.185C576.362 173.354 576.855 172.922 577.552 172.922ZM580.58 175.309C580.12 175.309 579.793 175.049 579.793 174.478V172.656H579.439V174.539C579.439 175.292 579.86 175.647 580.474 175.647C580.973 175.647 581.349 175.414 581.604 175.209V175.592H581.936V172.656H581.582V174.96C581.361 175.11 580.978 175.309 580.58 175.309ZM585.063 172.806C584.858 172.667 584.559 172.595 584.238 172.595C583.34 172.595 582.654 173.194 582.654 174.124C582.654 175.027 583.34 175.647 584.232 175.647C584.559 175.647 584.858 175.564 585.063 175.425V175.071C584.869 175.209 584.57 175.309 584.243 175.309C583.54 175.309 583.014 174.838 583.014 174.124C583.014 173.393 583.54 172.933 584.249 172.933C584.57 172.933 584.869 173.022 585.063 173.166V172.806ZM587.54 173.742V174.096C587.396 174.046 587.152 173.997 586.853 173.997C586.05 173.997 585.585 174.384 585.585 174.888C585.585 175.342 585.895 175.647 586.493 175.647C586.953 175.647 587.324 175.409 587.562 175.149V175.592H587.889V173.747C587.889 172.911 587.352 172.601 586.759 172.601C586.227 172.601 585.795 172.861 585.607 173.066V173.443C585.851 173.182 586.238 172.944 586.726 172.944C587.152 172.944 587.54 173.16 587.54 173.742ZM585.923 174.872C585.923 174.517 586.255 174.251 586.953 174.251C587.163 174.251 587.396 174.296 587.54 174.34V174.916C587.28 175.154 586.931 175.359 586.537 175.359C586.194 175.359 585.923 175.221 585.923 174.872ZM590.364 175.464V175.143C590.226 175.237 590.015 175.32 589.772 175.32C589.439 175.32 589.246 175.165 589.246 174.789V172.972H590.337V172.656H589.246V172.103H589.157L588.437 172.878V172.972H588.891V174.816C588.891 175.486 589.295 175.647 589.705 175.647C590.01 175.647 590.231 175.553 590.364 175.464ZM591.18 172.186C591.346 172.186 591.462 172.086 591.462 171.942C591.462 171.798 591.346 171.698 591.18 171.698C591.019 171.698 590.903 171.798 590.903 171.942C590.903 172.086 591.019 172.186 591.18 172.186ZM591.002 172.656V175.592H591.357V172.656H591.002ZM593.581 175.647C594.451 175.647 595.082 174.988 595.082 174.124C595.082 173.254 594.451 172.601 593.581 172.601C592.712 172.601 592.08 173.254 592.08 174.124C592.08 174.988 592.712 175.647 593.581 175.647ZM593.581 175.315C592.917 175.315 592.435 174.8 592.435 174.124C592.435 173.443 592.917 172.933 593.581 172.933C594.251 172.933 594.728 173.443 594.728 174.124C594.728 174.8 594.251 175.315 593.581 175.315ZM595.799 172.656V175.592H596.154V173.282C596.381 173.138 596.758 172.939 597.156 172.939C597.616 172.939 597.943 173.199 597.943 173.77V175.592H598.292V173.709C598.292 172.955 597.871 172.601 597.262 172.601C596.758 172.601 596.387 172.834 596.132 173.039V172.656H595.799Z" fill="#AAAAAA"/>
<path d="M13.9272 167.055C14.7413 167.055 15.4447 166.452 15.4447 165.095C15.4447 163.744 14.7413 163.134 13.9272 163.134C13.1076 163.134 12.4098 163.744 12.4098 165.095C12.4098 166.452 13.1076 167.055 13.9272 167.055ZM13.9272 166.712C13.2848 166.712 12.7864 166.18 12.7864 165.095C12.7864 164.015 13.2848 163.483 13.9272 163.483C14.5697 163.483 15.0681 164.015 15.0681 165.095C15.0681 166.18 14.5697 166.712 13.9272 166.712Z" fill="#AAAAAA"/>
<path d="M16.7467 151V150.668H14.6201L15.8939 149.466C16.3424 149.051 16.7135 148.691 16.7135 148.148C16.7135 147.505 16.2483 147.134 15.5893 147.134C14.9358 147.134 14.454 147.494 14.2657 147.666V148.059C14.5038 147.832 14.969 147.467 15.5671 147.467C16.0655 147.467 16.3424 147.76 16.3424 148.165C16.3424 148.574 16.0766 148.84 15.6446 149.261L14.1438 150.723V151H16.7467Z" fill="#AAAAAA"/>
<path d="M15.7353 123.19L13.5478 125.843V126.119H15.7353V127H16.1008V126.119H16.8651V125.793H16.1008V123.19H15.7353ZM13.9742 125.793L15.7353 123.666V125.793H13.9742Z" fill="#AAAAAA"/>
<path d="M15.7281 101.726C15.7281 100.929 15.1466 100.475 14.4488 100.475C13.9393 100.475 13.5572 100.691 13.3246 100.945C13.6181 100.104 14.4821 99.4335 14.914 99.1898H14.3824C13.8286 99.5055 12.8649 100.414 12.8649 101.51C12.8649 102.54 13.4852 103.055 14.3159 103.055C15.1355 103.055 15.7281 102.546 15.7281 101.726ZM13.236 101.521C13.236 101.438 13.2471 101.361 13.2637 101.278C13.524 101.001 13.895 100.785 14.3879 100.785C14.9196 100.785 15.3626 101.112 15.3626 101.732C15.3626 102.358 14.9306 102.723 14.327 102.723C13.7178 102.723 13.236 102.352 13.236 101.521Z" fill="#AAAAAA"/>
<path d="M14.2931 79.0554C15.218 79.0554 15.733 78.557 15.733 77.9422C15.733 77.4936 15.4616 77.1115 14.9521 76.9343C15.3398 76.7848 15.5558 76.4746 15.5558 76.1202C15.5558 75.5553 15.0795 75.1344 14.2931 75.1344C13.5178 75.1344 13.0415 75.5498 13.0415 76.1091C13.0415 76.4636 13.252 76.7792 13.6452 76.9343C13.1246 77.1115 12.8588 77.4936 12.8588 77.9478C12.8588 78.557 13.3738 79.0554 14.2931 79.0554ZM13.3959 76.1257C13.3959 75.7159 13.7504 75.4501 14.2931 75.4501C14.8414 75.4501 15.1958 75.7215 15.1958 76.1257C15.1958 76.5411 14.8414 76.8125 14.2931 76.8125C13.7504 76.8125 13.3959 76.5356 13.3959 76.1257ZM13.2187 77.9256C13.2187 77.4327 13.6285 77.0838 14.2931 77.0838C14.9577 77.0838 15.3675 77.4272 15.3675 77.9201C15.3675 78.3964 14.9577 78.7397 14.2931 78.7397C13.6285 78.7397 13.2187 78.3964 13.2187 77.9256Z" fill="#AAAAAA"/>
<path d="M9.73421 51.1898L9.58468 51.5166H10.2659V55H10.6258V51.1898H9.73421ZM13.0712 55.0554C13.8852 55.0554 14.5886 54.4517 14.5886 53.0949C14.5886 51.7436 13.8852 51.1344 13.0712 51.1344C12.2515 51.1344 11.5537 51.7436 11.5537 53.0949C11.5537 54.4517 12.2515 55.0554 13.0712 55.0554ZM13.0712 54.712C12.4287 54.712 11.9303 54.1804 11.9303 53.0949C11.9303 52.015 12.4287 51.4833 13.0712 51.4833C13.7136 51.4833 14.212 52.015 14.212 53.0949C14.212 54.1804 13.7136 54.712 13.0712 54.712Z" fill="#AAAAAA"/>
<defs>
<linearGradient id="paint0_linear_1_62657" x1="397" y1="0" x2="397" y2="187" gradientUnits="userSpaceOnUse">
<stop stop-color="#E8E8E8"/>
<stop offset="1" stop-color="#EDF0F1" stop-opacity="0"/>
</linearGradient>
</defs>
</svg>
