<svg width="70" height="70" viewBox="0 0 70 70" fill="none" xmlns="http://www.w3.org/2000/svg">
<mask id="mask0_86_58024" style="mask-type:alpha" maskUnits="userSpaceOnUse" x="-1" y="0" width="71" height="70">
<circle cx="34.999" cy="35" r="35" transform="rotate(-180 34.999 35)" fill="#3FCA66"/>
</mask>
<g mask="url(#mask0_86_58024)">
<rect x="35.2158" y="88.5295" width="46.25" height="6.25" rx="1.26937" transform="rotate(-136 35.2158 88.5295)" fill="#3FCA66"/>
<rect x="41.2993" y="82.2361" width="38.5641" height="6.25" rx="1.26937" transform="rotate(-136 41.2993 82.2361)" fill="#3FCA66"/>
<rect x="47.3779" y="75.9402" width="30.7846" height="6.25" rx="1.26937" transform="rotate(-136 47.3779 75.9402)" fill="#3FCA66"/>
<rect x="40.9712" y="21.1011" width="29.7967" height="6.25" rx="1.26937" transform="rotate(-136 40.9712 21.1011)" fill="#3FCA66"/>
<rect x="53.4614" y="20.9983" width="38.7086" height="6.25" rx="1.26937" transform="rotate(-136 53.4614 20.9983)" fill="#3FCA66"/>
<rect x="64.9636" y="19.9404" width="46.25" height="6.25" rx="1.26937" transform="rotate(-136 64.9636 19.9404)" fill="#3FCA66"/>
<rect x="25.6064" y="44.3447" width="72.5" height="6.25" rx="1.26937" transform="rotate(-136 25.6064 44.3447)" fill="#3FCA66"/>
<rect x="59.5339" y="63.3525" width="72.5" height="6.25" rx="1.26937" transform="rotate(-136 59.5339 63.3525)" fill="#3FCA66"/>
<rect x="89.429" y="79.3447" width="72.5" height="6.25" rx="1.26937" transform="rotate(-136 89.429 79.3447)" fill="#3FCA66"/>
</g>
</svg>
