<svg width="67" height="78" viewBox="0 0 67 78" fill="none" xmlns="http://www.w3.org/2000/svg">
<rect width="66.567" height="38.7299" transform="translate(33.8589 0.118896) rotate(60.325)" fill="#45AE63"/>
<path d="M17.7178 21.6473L20.1985 26.0009C21.2986 27.9315 22.7804 28.6251 24.2694 27.7766C25.506 27.072 25.8878 25.7178 25.2088 24.1154C25.7608 24.9376 26.9076 25.5713 28.1442 24.8666C29.6964 23.9822 29.5993 22.3157 28.6861 20.7131L26.3996 16.7003L17.7178 21.6473ZM26.9774 21.4695C27.4017 22.214 27.3757 22.8138 26.7322 23.1805C26.1012 23.5401 25.5395 23.2584 25.1009 22.4886L23.9073 20.3939L25.7623 19.3369L26.9774 21.4695ZM23.8619 23.6292C24.3221 24.4368 24.332 25.2169 23.5748 25.6483C22.7798 26.1013 22.1588 25.6862 21.7058 24.8912L20.3109 22.4431L22.4814 21.2064L23.8619 23.6292ZM28.6638 31.8803L28.3231 32.0745C28.2839 31.7123 28.1242 31.1681 27.7719 30.5498C26.8731 28.9724 25.404 28.2717 24.1799 28.9691C22.9938 29.645 22.7995 30.859 23.5617 32.1966C24.0866 33.1177 24.9129 33.5997 25.6045 33.7573L24.8599 34.1815L25.7228 35.6958L29.6599 33.4524C31.742 32.266 31.7964 30.5132 30.9048 28.9485C30.1857 27.6866 29.0265 26.943 28.3332 26.753L26.6675 27.7021C27.5589 27.9464 28.5993 28.6575 29.1673 29.6544C29.6347 30.4746 29.6102 31.341 28.6638 31.8803ZM25.1239 30.4204C25.6665 30.1113 26.32 30.5246 26.8952 31.5341C27.0965 31.8874 27.2618 32.2948 27.3388 32.6353L26.4176 33.1602C25.8901 32.9092 25.3089 32.3878 24.9709 31.7948C24.6546 31.2395 24.6066 30.7153 25.1239 30.4204ZM33.67 37.4684C34.1877 38.377 33.9346 39.1063 33.0766 39.5952L29.2026 41.8027L30.1301 43.4305L34.4205 40.9858C35.96 40.1085 36.5345 38.8284 35.6429 37.2637C35.0389 36.2037 34.0758 35.599 33.2871 35.3296L34.1073 34.8623L33.2373 33.3354L26.5493 37.1463L27.4769 38.7741L32.2973 36.0274C32.7563 36.3342 33.3033 36.8249 33.67 37.4684ZM39.6408 39.9382L30.959 44.8852L31.8866 46.5131L34.688 44.9168L35.2776 45.9515L33.5548 49.4406L34.6189 51.3082L36.7792 46.6505L41.2998 47.4847L40.2356 45.6171L36.8062 45.1139L36.2023 44.0539L40.7955 41.4366L39.6408 39.9382ZM40.0911 60.9117L41.618 60.0417L39.2164 55.827L42.6468 56.948C43.9919 57.4018 45.2182 57.8231 46.4549 57.1184C47.8682 56.3131 48.2088 54.6814 47.2453 52.9905C46.4328 51.5645 45.0683 50.754 44.3499 50.4613L42.5958 51.4608C43.5844 51.8169 44.9526 52.5751 45.6069 53.7234C46.0311 54.468 45.9421 55.1038 45.3742 55.4273C44.8064 55.7509 44.122 55.606 42.9065 55.2622L37.7201 53.7877L36.4456 54.5139L40.0911 60.9117Z" fill="#1B502A"/>
</svg>
