<svg width="23" height="22" viewBox="0 0 23 22" fill="none" xmlns="http://www.w3.org/2000/svg">
<path d="M19.8974 4.53097C19.5809 4.09666 19.2334 3.68592 18.8574 3.30199C18.8307 3.27508 18.8054 3.24835 18.7786 3.22144C17.5903 2.0319 16.1452 1.13048 14.5543 0.586426V15.0164C14.5543 15.5001 14.459 15.9791 14.2739 16.4259C14.0888 16.8728 13.8175 17.2789 13.4755 17.6209C13.1335 17.963 12.7274 18.2343 12.2805 18.4194C11.8336 18.6044 11.3547 18.6997 10.871 18.6997H8.67529V21.7548C9.43955 21.9178 10.2188 22.0001 11.0003 22.0001C13.0295 22.0002 15.0192 21.4392 16.7494 20.379C18.4796 19.3187 19.8826 17.8004 20.8035 15.9922C21.7244 14.184 22.1271 12.1563 21.9672 10.1334C21.8074 8.11055 21.091 6.17133 19.8974 4.53027V4.53097Z" fill="#0064AF"/>
<path d="M11.0003 1.82505e-09C8.97114 0.000193228 6.98159 0.561574 5.25164 1.62206C3.52171 2.68255 2.11876 4.20083 1.19796 6.00899C0.277163 7.81716 -0.125617 9.84477 0.0341653 11.8676C0.193947 13.8904 0.910068 15.8296 2.10333 17.4708C2.42049 17.905 2.76856 18.3157 3.14484 18.6996C3.17071 18.7257 3.19605 18.7517 3.22191 18.7795C4.41005 19.9689 5.85466 20.8705 7.44506 21.4152V6.98385C7.44548 6.00702 7.83381 5.07033 8.52468 4.37976C9.21556 3.68919 10.1524 3.30124 11.1292 3.30124H13.3249V0.246144C12.5609 0.0824911 11.7817 -1.41687e-05 11.0003 1.82505e-09Z" fill="#003572"/>
</svg>
