<svg width="20" height="18" viewBox="0 0 20 18" fill="none" xmlns="http://www.w3.org/2000/svg">
<path d="M18.4451 15.7775C18.7801 15.1585 19.0579 14.5102 19.2752 13.8408C19.4807 13.2076 19.6404 12.5605 19.753 11.9045C19.8645 11.264 19.9371 10.6174 19.9705 9.96818C19.9873 9.65438 20 9.33597 20 9.00013C20 8.66429 19.9873 8.34589 19.9705 8.03189C19.9369 7.38274 19.8643 6.73618 19.753 6.09578C19.6404 5.43972 19.4807 4.79262 19.2752 4.15949H5.4537C5.13984 4.77358 4.90255 5.42388 4.74716 6.09578C4.59732 6.73196 4.50121 7.37962 4.45979 8.03189C4.43872 8.33957 4.42454 8.65969 4.42454 9.00013C4.42454 9.34057 4.43872 9.66051 4.45979 9.96818C4.50115 10.6205 4.59727 11.2682 4.74716 11.9045C4.90242 12.5764 5.13971 13.2267 5.4537 13.8408H15.0976C15.4122 13.2269 15.6499 12.5766 15.8051 11.9045C15.955 11.2682 16.0511 10.6205 16.0925 9.96818C16.1138 9.66051 16.1281 9.34076 16.1281 9.00013C16.1281 8.6595 16.1138 8.33957 16.0925 8.03189H8.33564C8.3115 8.33343 8.29732 8.6549 8.29732 9.00013C8.29732 9.34536 8.3115 9.66664 8.33564 9.96818H14.1524C14.1065 10.6244 13.9891 11.2737 13.8024 11.9045H6.74993C6.56324 11.2736 6.44555 10.6244 6.39896 9.96818C6.3752 9.66664 6.36064 9.34574 6.36064 9.00013C6.36064 8.65452 6.37463 8.33343 6.39896 8.03189C6.44563 7.37573 6.56331 6.72658 6.74993 6.09578H17.7876C17.9132 6.73453 17.9947 7.38117 18.0315 8.03112C18.0506 8.34244 18.0635 8.66333 18.0635 8.99936C18.0635 9.3354 18.0501 9.6561 18.0315 9.96742C17.9947 10.6177 17.9131 11.2647 17.7872 11.9037C17.6573 12.5646 17.4687 13.2126 17.2236 13.84C16.9585 14.5308 16.6007 15.1823 16.1601 15.7767H4.39101C3.95013 15.1824 3.59222 14.5309 3.32717 13.84C3.08208 13.2126 2.89353 12.5646 2.76374 11.9037C2.6375 11.2647 2.55589 10.6177 2.51947 9.96742C2.50031 9.6561 2.48767 9.33693 2.48767 8.99936C2.48767 8.6618 2.50108 8.34244 2.51947 8.03112C2.55595 7.38088 2.63756 6.73396 2.76374 6.09502C2.89355 5.43411 3.08212 4.78611 3.32717 4.15872C3.5923 3.46802 3.95021 2.81661 4.39101 2.22243H18.4447C17.7221 0.896696 17.0184 0.286133 17.0184 0.286133H3.53254C3.53254 0.286133 2.82926 0.896696 2.10681 2.22243C1.77188 2.84131 1.49403 3.48942 1.27669 4.15872C1.07118 4.79188 0.911443 5.43897 0.798704 6.09502C0.687242 6.73541 0.614564 7.38195 0.581069 8.03112C0.56421 8.34512 0.551758 8.66333 0.551758 8.99936C0.551758 9.3354 0.56421 9.65361 0.581069 9.96742C0.614521 10.6166 0.687198 11.2633 0.798704 11.9037C0.911443 12.5598 1.07118 13.2069 1.27669 13.84C1.49389 14.5095 1.77174 15.1577 2.10681 15.7767C2.82926 17.1018 3.53254 17.713 3.53254 17.713H17.0188C17.0188 17.713 17.7225 17.1026 18.4451 15.7775Z" fill="#90601D"/>
</svg>
