<svg width="136" height="34" viewBox="0 0 136 34" fill="none" xmlns="http://www.w3.org/2000/svg">
<mask id="mask0_1_12725" style="mask-type:alpha" maskUnits="userSpaceOnUse" x="0" y="0" width="36" height="34">
<ellipse cx="17.9225" cy="17.3212" rx="17.9225" ry="16.6488" transform="rotate(-180 17.9225 17.3212)" fill="#3FCA66"/>
</mask>
<g mask="url(#mask0_1_12725)">
<rect width="22.8866" height="3.08485" rx="1.26937" transform="matrix(-0.744381 -0.667755 0.720689 -0.693259 18.0336 42.7849)" fill="#3FCA66"/>
<rect width="19.0833" height="3.08485" rx="1.26937" transform="matrix(-0.744381 -0.667755 0.720689 -0.693259 21.1478 39.7905)" fill="#3FCA66"/>
<rect width="15.2336" height="3.08485" rx="1.26937" transform="matrix(-0.744381 -0.667755 0.720689 -0.693259 24.2601 36.7964)" fill="#3FCA66"/>
<rect width="14.7447" height="3.08485" rx="1.26937" transform="matrix(-0.744381 -0.667755 0.720689 -0.693259 20.9805 10.7112)" fill="#3FCA66"/>
<rect width="19.1547" height="3.08485" rx="1.26937" transform="matrix(-0.744381 -0.667755 0.720689 -0.693259 27.376 10.6614)" fill="#3FCA66"/>
<rect width="22.8866" height="3.08485" rx="1.26937" transform="matrix(-0.744381 -0.667755 0.720689 -0.693259 33.2653 10.1582)" fill="#3FCA66"/>
<rect width="35.8762" height="3.08485" rx="1.26937" transform="matrix(-0.744381 -0.667755 0.720689 -0.693259 13.1121 21.7666)" fill="#3FCA66"/>
<rect width="35.8762" height="3.08485" rx="1.26937" transform="matrix(-0.744381 -0.667755 0.720689 -0.693259 30.4857 30.8091)" fill="#3FCA66"/>
<rect width="35.8762" height="3.08485" rx="1.26937" transform="matrix(-0.744381 -0.667755 0.720689 -0.693259 45.7942 38.416)" fill="#3FCA66"/>
</g>
<path d="M61.3055 21.2545C61.3055 22.4467 60.3489 23.2487 58.0855 23.2487C55.8454 23.2487 53.3487 22.36 51.8553 21.3846V23.6172C53.1154 24.4192 55.3788 25.2212 57.9921 25.2212C61.2355 25.2212 63.6623 23.8122 63.6623 21.1461C63.6623 18.3933 61.6322 17.5913 58.9488 16.8327L57.1988 16.3342C55.3321 15.7706 53.9787 15.3371 53.9787 13.9065C53.9787 12.7143 55.0987 11.8907 57.1521 11.8907C59.2988 11.8907 61.4922 12.7577 62.7522 13.5597V11.2404C61.7722 10.6118 59.8589 9.85316 57.2221 9.85316C54.1187 9.85316 51.552 11.3271 51.552 14.0799C51.552 16.746 53.7687 17.613 56.0788 18.2416L58.1788 18.8269C60.1622 19.4121 61.3055 19.9106 61.3055 21.2545Z" fill="#3FCA66"/>
<path d="M70.8394 25.2212C74.3862 25.2212 77.5362 23.1837 77.5362 18.9569C77.5362 15.142 74.9929 13.2996 72.0995 13.2996C70.3728 13.2996 69.0661 13.9065 68.2494 14.5351V13.5163H66.196V28.4291H68.3894V24.9394C69.0894 25.1128 69.8361 25.2212 70.8394 25.2212ZM71.4928 15.1203C73.7562 15.1203 75.2729 16.5509 75.2729 19.087C75.2729 22.0348 73.3128 23.4004 70.7461 23.4004C69.7661 23.4004 69.0194 23.227 68.3894 23.0319V16.0741C69.0894 15.6189 70.1628 15.1203 71.4928 15.1203Z" fill="#3FCA66"/>
<path d="M81.3767 11.9123C82.3334 11.9123 82.94 11.4355 82.94 10.7202C82.94 9.98321 82.3334 9.50635 81.3767 9.50635C80.42 9.50635 79.79 9.98321 79.79 10.7202C79.79 11.4355 80.42 11.9123 81.3767 11.9123ZM80.2566 13.5163V25.0044H82.45V13.5163H80.2566Z" fill="#3FCA66"/>
<path d="M85.7928 13.5163V25.0044H87.9862V16.2908C88.8495 15.8139 90.2495 15.2504 91.6962 15.2504C93.5163 15.2504 94.613 16.2041 94.613 18.0899V25.0044H96.8064V17.6347C96.8064 14.8169 95.243 13.2996 92.5129 13.2996C90.4829 13.2996 88.8962 14.1666 87.8462 14.9686V13.5163H85.7928Z" fill="#3FCA66"/>
<path d="M107.293 18.0249V19.0653C106.733 18.8702 105.776 18.6535 104.562 18.6535C101.389 18.6535 99.3357 20.1274 99.3357 22.1432C99.3357 24.0507 100.759 25.2212 103.256 25.2212C105.099 25.2212 106.546 24.3758 107.433 23.4871V25.0044H109.486V18.0032C109.486 14.5784 107.153 13.2996 104.469 13.2996C102.182 13.2996 100.292 14.2967 99.4757 15.077V17.1795C100.526 16.1824 102.252 15.3154 104.189 15.3154C105.846 15.3154 107.293 16.0741 107.293 18.0249ZM101.389 22.0565C101.389 20.8644 102.649 20.0624 105.099 20.0624C105.893 20.0624 106.733 20.1924 107.293 20.3441V22.295C106.336 23.0319 105.006 23.6388 103.606 23.6388C102.369 23.6388 101.389 23.1837 101.389 22.0565Z" fill="#3FCA66"/>
<path d="M122.413 14.1666C121.479 13.5814 120.149 13.2779 118.726 13.2779C114.946 13.2779 112.052 15.6622 112.052 19.2604C112.052 22.7501 114.923 25.2212 118.703 25.2212C120.149 25.2212 121.479 24.896 122.413 24.3108V22.2733C121.479 22.9019 120.173 23.292 118.773 23.292C116.159 23.292 114.246 21.688 114.246 19.2604C114.246 16.7677 116.159 15.207 118.796 15.207C120.173 15.207 121.479 15.5755 122.413 16.2041V14.1666Z" fill="#3FCA66"/>
<path d="M130.89 15.2504C132.71 15.2504 133.807 16.2041 133.807 18.0899V25.0044H136V17.6347C136 14.8169 134.437 13.2996 131.706 13.2996C129.77 13.2996 128.23 14.0799 127.18 14.8602V9.76646L124.986 10.0916V25.0044H127.18V16.2908C128.043 15.8139 129.443 15.2504 130.89 15.2504Z" fill="#3FCA66"/>
</svg>
