<svg width="25" height="24" viewBox="0 0 25 24" fill="none" xmlns="http://www.w3.org/2000/svg">
<g filter="url(#filter0_d_1_62706)">
<mask id="mask0_1_62706" style="mask-type:alpha" maskUnits="userSpaceOnUse" x="4" y="0" width="17" height="16">
<circle cx="12.2926" cy="7.78163" r="7.7816" transform="rotate(-180 12.2926 7.78163)" fill="#3FCA66"/>
</mask>
<g mask="url(#mask0_1_62706)">
<rect x="12.3389" y="19.6831" width="10.2828" height="1.38957" rx="0.694786" transform="rotate(-136 12.3389 19.6831)" fill="#3FCA66"/>
<rect x="13.6919" y="18.2839" width="8.57402" height="1.38957" rx="0.694786" transform="rotate(-136 13.6919 18.2839)" fill="#3FCA66"/>
<rect x="15.043" y="16.884" width="6.84438" height="1.38957" rx="0.694786" transform="rotate(-136 15.043 16.884)" fill="#3FCA66"/>
<rect x="13.6191" y="4.69165" width="6.62474" height="1.38957" rx="0.694786" transform="rotate(-136 13.6191 4.69165)" fill="#3FCA66"/>
<rect x="16.3955" y="4.6687" width="8.60614" height="1.38957" rx="0.694786" transform="rotate(-136 16.3955 4.6687)" fill="#3FCA66"/>
<rect x="18.9521" y="4.43359" width="10.2828" height="1.38957" rx="0.694786" transform="rotate(-136 18.9521 4.43359)" fill="#3FCA66"/>
<rect x="10.2026" y="9.85938" width="16.119" height="1.38957" rx="0.694786" transform="rotate(-136 10.2026 9.85938)" fill="#3FCA66"/>
<rect x="17.7466" y="14.0854" width="16.119" height="1.38957" rx="0.694786" transform="rotate(-136 17.7466 14.0854)" fill="#3FCA66"/>
<rect x="24.3916" y="17.6411" width="16.119" height="1.38957" rx="0.694786" transform="rotate(-136 24.3916 17.6411)" fill="#3FCA66"/>
</g>
</g>
<defs>
<filter id="filter0_d_1_62706" x="0.51123" y="0" width="23.563" height="23.5632" filterUnits="userSpaceOnUse" color-interpolation-filters="sRGB">
<feFlood flood-opacity="0" result="BackgroundImageFix"/>
<feColorMatrix in="SourceAlpha" type="matrix" values="0 0 0 0 0 0 0 0 0 0 0 0 0 0 0 0 0 0 127 0" result="hardAlpha"/>
<feOffset dy="4"/>
<feGaussianBlur stdDeviation="2"/>
<feComposite in2="hardAlpha" operator="out"/>
<feColorMatrix type="matrix" values="0 0 0 0 0 0 0 0 0 0 0 0 0 0 0 0 0 0 0.25 0"/>
<feBlend mode="normal" in2="BackgroundImageFix" result="effect1_dropShadow_1_62706"/>
<feBlend mode="normal" in="SourceGraphic" in2="effect1_dropShadow_1_62706" result="shape"/>
</filter>
</defs>
</svg>
