<svg width="120" height="92" viewBox="0 0 120 92" fill="none" xmlns="http://www.w3.org/2000/svg">
<rect width="120" height="92" rx="8" fill="#5ACC79"/>
<path d="M11.264 16.088C12.064 16.088 12.664 15.864 13.16 15.552V14.976C12.704 15.296 12.08 15.584 11.28 15.584C9.976 15.584 8.992 14.632 8.992 13.256C8.992 11.872 9.976 10.912 11.28 10.912C12.08 10.912 12.704 11.2 13.16 11.52V10.952C12.664 10.64 12.064 10.416 11.264 10.416C9.664 10.416 8.44 11.592 8.44 13.256C8.44 14.92 9.664 16.088 11.264 16.088ZM15.9904 12.168C16.6544 12.168 17.1264 12.544 17.1264 13.368V16H17.6304V13.28C17.6304 12.192 17.0224 11.68 16.1424 11.68C15.4384 11.68 14.9104 11.992 14.5424 12.28V10.392L14.0304 10.496V16H14.5424V12.664C14.8704 12.456 15.4144 12.168 15.9904 12.168ZM20.8026 16.08C22.0586 16.08 22.9706 15.128 22.9706 13.88C22.9706 12.624 22.0586 11.68 20.8026 11.68C19.5466 11.68 18.6346 12.624 18.6346 13.88C18.6346 15.128 19.5466 16.08 20.8026 16.08ZM20.8026 15.6C19.8426 15.6 19.1466 14.856 19.1466 13.88C19.1466 12.896 19.8426 12.16 20.8026 12.16C21.7706 12.16 22.4586 12.896 22.4586 13.88C22.4586 14.856 21.7706 15.6 20.8026 15.6ZM25.951 16.08C27.207 16.08 28.119 15.128 28.119 13.88C28.119 12.624 27.207 11.68 25.951 11.68C24.695 11.68 23.783 12.624 23.783 13.88C23.783 15.128 24.695 16.08 25.951 16.08ZM25.951 15.6C24.991 15.6 24.295 14.856 24.295 13.88C24.295 12.896 24.991 12.16 25.951 12.16C26.919 12.16 27.607 12.896 27.607 13.88C27.607 14.856 26.919 15.6 25.951 15.6ZM30.9474 13.816L30.3474 13.632C29.7794 13.456 29.3794 13.288 29.3794 12.816C29.3794 12.36 29.8354 12.128 30.3474 12.128C30.9314 12.128 31.5314 12.368 31.8434 12.6V12.064C31.5314 11.864 30.9634 11.672 30.3634 11.672C29.4434 11.672 28.8834 12.184 28.8834 12.832C28.8834 13.544 29.3954 13.84 29.9874 14.008L30.6354 14.2C31.1954 14.368 31.5474 14.52 31.5474 14.984C31.5474 15.488 31.1714 15.664 30.5874 15.664C29.9234 15.664 29.2514 15.392 28.8754 15.144V15.672C29.2194 15.88 29.8754 16.12 30.5794 16.12C31.4914 16.12 32.0354 15.72 32.0354 14.968C32.0354 14.312 31.5634 14 30.9474 13.816ZM36.4078 15.744V15.272C36.1118 15.464 35.4958 15.592 34.9598 15.592C34.0238 15.592 33.3278 15.104 33.2718 14.064H36.5198V13.816C36.5198 12.44 35.8638 11.672 34.7118 11.672C33.5758 11.672 32.7518 12.472 32.7518 13.88C32.7518 15.336 33.6718 16.08 34.9198 16.08C35.4558 16.08 36.0878 15.96 36.4078 15.744ZM34.6957 12.128C35.5358 12.128 35.9918 12.68 36.0158 13.688H33.2718C33.3038 12.68 33.8958 12.128 34.6957 12.128ZM42.3796 16H42.9716L45.2276 11.368V16H45.7556V10.496H45.0436L42.6756 15.464L40.3076 10.496H39.5956V16H40.1236V11.368L42.3796 16ZM49.076 16.08C50.332 16.08 51.244 15.128 51.244 13.88C51.244 12.624 50.332 11.68 49.076 11.68C47.82 11.68 46.908 12.624 46.908 13.88C46.908 15.128 47.82 16.08 49.076 16.08ZM49.076 15.6C48.116 15.6 47.42 14.856 47.42 13.88C47.42 12.896 48.116 12.16 49.076 12.16C50.044 12.16 50.732 12.896 50.732 13.88C50.732 14.856 50.044 15.6 49.076 15.6ZM55.3364 16H55.8084V10.392L55.2964 10.496V11.84C55.0164 11.752 54.7124 11.68 54.2884 11.68C53.0484 11.68 52.0564 12.472 52.0564 13.992C52.0564 15.352 52.8644 16.08 53.9204 16.08C54.5604 16.08 55.0644 15.792 55.3364 15.552V16ZM54.3044 12.144C54.7364 12.144 55.0324 12.232 55.2964 12.328V15.152C55.0404 15.36 54.5844 15.616 54.0244 15.616C53.1444 15.616 52.5844 15 52.5844 13.968C52.5844 12.768 53.2964 12.144 54.3044 12.144ZM60.5015 15.744V15.272C60.2055 15.464 59.5895 15.592 59.0535 15.592C58.1175 15.592 57.4215 15.104 57.3655 14.064H60.6135V13.816C60.6135 12.44 59.9575 11.672 58.8055 11.672C57.6695 11.672 56.8455 12.472 56.8455 13.88C56.8455 15.336 57.7655 16.08 59.0135 16.08C59.5495 16.08 60.1815 15.96 60.5015 15.744ZM58.7895 12.128C59.6295 12.128 60.0855 12.68 60.1095 13.688H57.3655C57.3975 12.68 57.9895 12.128 58.7895 12.128ZM61.6867 11.76V16H62.1987V12.768C62.5027 12.496 63.0307 12.168 63.4867 12.168C63.7747 12.168 63.9987 12.248 64.1747 12.368V11.832C64.0067 11.736 63.8227 11.68 63.6147 11.68C63.0307 11.68 62.5107 12.072 62.1667 12.416V11.76H61.6867ZM64.9679 11.76V16H65.4799V12.664C65.8079 12.456 66.3519 12.168 66.9279 12.168C67.5919 12.168 68.0639 12.544 68.0639 13.368V16H68.5679V13.28C68.5679 12.192 67.9599 11.68 67.0799 11.68C66.3519 11.68 65.8159 12.016 65.4479 12.312V11.76H64.9679Z" fill="#080317"/>
<path d="M8.16 41.04H11.632V50H13.808V41.04H17.296V38.992H8.16V41.04ZM17.5975 41.04H21.0695V50H23.2455V41.04H26.7335V38.992H17.5975V41.04Z" fill="#08051E"/>
<path d="M42.952 49.632V48.704C42.552 48.976 41.944 49.216 41.24 49.216C40.28 49.216 39.72 48.768 39.72 47.68V42.432H42.872V41.52H39.72V39.92H39.464L37.384 42.16V42.432H38.696V47.76C38.696 49.696 39.864 50.16 41.048 50.16C41.928 50.16 42.568 49.888 42.952 49.632ZM49.4676 49.632V48.704C49.0676 48.976 48.4596 49.216 47.7556 49.216C46.7956 49.216 46.2356 48.768 46.2356 47.68V42.432H49.3876V41.52H46.2356V39.92H45.9796L43.8996 42.16V42.432H45.2116V47.76C45.2116 49.696 46.3796 50.16 47.5636 50.16C48.4436 50.16 49.0836 49.888 49.4676 49.632Z" fill="#08051E"/>
<circle cx="18" cy="72" r="9.5" fill="#2A2E43" stroke="#78E295"/>
<circle cx="34" cy="72" r="9.5" fill="#F7F9FE" stroke="#78E295"/>
<circle cx="50" cy="72" r="9.5" fill="#DE8452" stroke="#78E295"/>
<circle cx="65" cy="72" r="9.5" fill="#24A6DE" stroke="#78E295"/>
</svg>
