<svg width="102" height="29" viewBox="0 0 102 29" fill="none" xmlns="http://www.w3.org/2000/svg">
<path d="M1.69222 0.175551L0.950982 2.36962H2.90785V10.375H5.35394V0.175551H1.69222ZM14.5315 10.375V8.15128H9.95067L12.3375 6.03134C13.3604 5.12703 14.3536 4.29684 14.3536 2.84401C14.3536 1.21329 13.0639 0.0273037 10.9884 0.0273037C9.32803 0.0273037 7.8752 0.753717 7.19326 1.25776V3.7928C8.09757 3.05156 9.50592 2.29549 10.7512 2.29549C11.4035 2.29549 11.8038 2.51787 11.8038 2.99226C11.8038 3.437 11.448 3.88175 10.6474 4.68228L6.76334 8.50708V10.375H14.5315ZM17.893 0.0273037C16.3809 0.0273037 15.2691 1.18364 15.2691 2.79954C15.2691 4.40061 16.3809 5.57177 17.9227 5.57177C19.4645 5.57177 20.5467 4.40061 20.5467 2.79954C20.5467 1.18364 19.4645 0.0273037 17.893 0.0273037ZM17.1222 10.375H19.2717L25.4982 0.175551H23.3782L17.1222 10.375ZM17.9079 1.6432C18.5009 1.6432 18.8122 2.14725 18.8122 2.79954C18.8122 3.45183 18.5009 3.95587 17.9079 3.95587C17.3445 3.95587 17.0036 3.45183 17.0036 2.79954C17.0036 2.10277 17.3445 1.6432 17.9079 1.6432ZM24.7273 4.97878C23.2151 4.97878 22.1033 6.13511 22.1033 7.75101C22.1033 9.35209 23.2151 10.5232 24.7569 10.5232C26.2987 10.5232 27.3809 9.35209 27.3809 7.75101C27.3809 6.13511 26.2987 4.97878 24.7273 4.97878ZM23.8378 7.75101C23.8378 7.05425 24.1787 6.59468 24.7421 6.59468C25.3351 6.59468 25.6464 7.09872 25.6464 7.75101C25.6464 8.4033 25.3351 8.90735 24.7421 8.90735C24.1787 8.90735 23.8378 8.4033 23.8378 7.75101ZM1.77922 28.375H5.53034C7.28087 28.375 8.41216 27.6486 8.41216 26.172C8.41216 24.993 7.62621 24.2071 6.24484 24.0285C7.10224 23.9094 7.9001 23.3021 7.9001 22.2184C7.9001 20.7537 6.73308 20.1821 5.26836 20.1821H1.77922V28.375ZM5.16118 21.2895C6.0424 21.2895 6.62591 21.5873 6.62591 22.4327C6.62591 23.2306 6.00668 23.6117 5.10164 23.6117H2.95814V21.2895H5.16118ZM5.36363 24.6001C6.37583 24.6001 7.12606 25.0049 7.12606 25.9338C7.12606 26.9222 6.38774 27.2675 5.42317 27.2675H2.95814V24.6001H5.36363ZM15.0173 27.9344V26.946C14.5529 27.208 13.6835 27.4342 12.8381 27.4342C11.5162 27.4342 10.6588 26.8269 10.5755 25.5646H15.1483V25.0407C15.1483 23.0758 14.1599 21.9326 12.4332 21.9326C10.6707 21.9326 9.44418 23.1592 9.44418 25.2193C9.44418 27.3628 10.8017 28.4941 12.7309 28.4941C13.6002 28.4941 14.5648 28.2678 15.0173 27.9344ZM12.3736 22.8972C13.4811 22.8972 14.0289 23.6117 14.0527 24.8025H10.5636C10.6231 23.5998 11.3257 22.8972 12.3736 22.8972ZM20.3313 28.1011V27.1365C20.0455 27.3152 19.5811 27.4819 19.0809 27.4819C18.4379 27.4819 18.0568 27.1961 18.0568 26.4697V23.052H20.2836V22.0636H18.0568V20.8728H17.7948L15.9728 22.7662V23.052H16.9374V26.5888C16.9374 28.113 17.8186 28.4941 18.807 28.4941C19.5096 28.4941 20.0217 28.3036 20.3313 28.1011ZM25.3086 28.1011V27.1365C25.0228 27.3152 24.5584 27.4819 24.0582 27.4819C23.4152 27.4819 23.0341 27.1961 23.0341 26.4697V23.052H25.261V22.0636H23.0341V20.8728H22.7721L20.9501 22.7662V23.052H21.9147V26.5888C21.9147 28.113 22.7959 28.4941 23.7843 28.4941C24.4869 28.4941 24.999 28.3036 25.3086 28.1011ZM31.7983 27.9344V26.946C31.3338 27.208 30.4645 27.4342 29.619 27.4342C28.2972 27.4342 27.4398 26.8269 27.3565 25.5646H31.9293V25.0407C31.9293 23.0758 30.9409 21.9326 29.2142 21.9326C27.4517 21.9326 26.2252 23.1592 26.2252 25.2193C26.2252 27.3628 27.5827 28.4941 29.5119 28.4941C30.3812 28.4941 31.3457 28.2678 31.7983 27.9344ZM29.1546 22.8972C30.2621 22.8972 30.8099 23.6117 30.8337 24.8025H27.3445C27.4041 23.5998 28.1067 22.8972 29.1546 22.8972ZM33.3492 22.0636V28.375H34.4686V23.6831C34.8973 23.3616 35.5523 23.0163 36.1715 23.0163C36.624 23.0163 36.9932 23.1472 37.2671 23.314V22.135C37.0408 22.016 36.7788 21.9445 36.5049 21.9445C35.6594 21.9445 34.8854 22.4804 34.3972 22.9686V22.0636H33.3492ZM41.1093 20.1821V28.375H42.2882V25.5885H44.4436C46.2537 25.5885 47.5279 24.6596 47.5279 22.9091C47.5279 21.0633 46.2537 20.1821 44.4436 20.1821H41.1093ZM44.3603 21.2895C45.5035 21.2895 46.2894 21.754 46.2894 22.9091C46.2894 23.9927 45.5035 24.4929 44.3603 24.4929H42.2882V21.2895H44.3603ZM54.0217 27.9344V26.946C53.5573 27.208 52.688 27.4342 51.8425 27.4342C50.5207 27.4342 49.6633 26.8269 49.5799 25.5646H54.1527V25.0407C54.1527 23.0758 53.1643 21.9326 51.4376 21.9326C49.6752 21.9326 48.4486 23.1592 48.4486 25.2193C48.4486 27.3628 49.8062 28.4941 51.7353 28.4941C52.6046 28.4941 53.5692 28.2678 54.0217 27.9344ZM51.3781 22.8972C52.4855 22.8972 53.0333 23.6117 53.0571 24.8025H49.568C49.6275 23.5998 50.3301 22.8972 51.3781 22.8972ZM55.5727 22.0636V28.375H56.6921V23.6831C57.1208 23.3616 57.7757 23.0163 58.395 23.0163C58.8475 23.0163 59.2166 23.1472 59.4905 23.314V22.135C59.2643 22.016 59.0023 21.9445 58.7284 21.9445C57.8829 21.9445 57.1089 22.4804 56.6206 22.9686V22.0636H55.5727ZM59.979 23.052H60.8959V28.375H62.0153V23.052H63.6944V22.0636H62.0153V22.0398C62.0153 21.3253 62.444 20.9204 63.0989 20.9204C63.5753 20.9204 64.0278 21.099 64.2898 21.3015V20.3607C64.0754 20.2178 63.5991 19.9915 62.9679 19.9915C61.8486 19.9915 60.8959 20.6227 60.8959 22.0517V22.0636H59.979V23.052ZM67.9113 28.4941C69.8047 28.4941 71.1861 27.077 71.1861 25.2193C71.1861 23.3378 69.8047 21.9445 67.9113 21.9445C66.0179 21.9445 64.6365 23.3378 64.6365 25.2193C64.6365 27.077 66.0179 28.4941 67.9113 28.4941ZM67.9113 27.4462C66.6728 27.4462 65.744 26.4935 65.744 25.2193C65.744 23.9213 66.6728 22.9924 67.9113 22.9924C69.1617 22.9924 70.0786 23.9213 70.0786 25.2193C70.0786 26.5054 69.1617 27.4462 67.9113 27.4462ZM72.5514 22.0636V28.375H73.6707V23.6831C74.0994 23.3616 74.7544 23.0163 75.3736 23.0163C75.8262 23.0163 76.1953 23.1472 76.4692 23.314V22.135C76.2429 22.016 75.981 21.9445 75.7071 21.9445C74.8616 21.9445 74.0875 22.4804 73.5993 22.9686V22.0636H72.5514ZM77.5054 22.0636V28.375H78.6248V23.5998C79.0535 23.3378 79.7085 23.0163 80.3991 23.0163C81.2446 23.0163 81.7686 23.5283 81.7686 24.5286V28.375H82.888V24.219C82.888 24.0046 82.8761 23.7903 82.8404 23.5998C83.2929 23.3259 83.9597 23.0163 84.6623 23.0163C85.5197 23.0163 86.0437 23.5283 86.0437 24.5286V28.375H87.1512V24.2785C87.1512 22.7662 86.4009 21.9445 85.091 21.9445C83.9955 21.9445 83.1857 22.4804 82.6379 22.9686C82.3164 22.3018 81.6972 21.9445 80.8159 21.9445C79.8275 21.9445 79.0654 22.4208 78.5534 22.8614V22.0636H77.5054ZM94.0495 27.9344V26.946C93.5851 27.208 92.7158 27.4342 91.8703 27.4342C90.5485 27.4342 89.6911 26.8269 89.6077 25.5646H94.1805V25.0407C94.1805 23.0758 93.1921 21.9326 91.4654 21.9326C89.703 21.9326 88.4764 23.1592 88.4764 25.2193C88.4764 27.3628 89.834 28.4941 91.7631 28.4941C92.6324 28.4941 93.597 28.2678 94.0495 27.9344ZM91.4059 22.8972C92.5134 22.8972 93.0611 23.6117 93.085 24.8025H89.5958C89.6554 23.5998 90.358 22.8972 91.4059 22.8972ZM100.042 28.375H101.09V20.0034L99.9709 20.1821V22.0993C99.6136 22.016 99.2206 21.9445 98.7086 21.9445C96.9104 21.9445 95.3028 23.0639 95.3028 25.386C95.3028 27.4819 96.6008 28.4941 98.0774 28.4941C98.9586 28.4941 99.6255 28.1607 100.042 27.8153V28.375ZM98.7681 22.9448C99.2683 22.9448 99.6493 23.0401 99.9709 23.1472V26.9817C99.6255 27.2199 99.042 27.4938 98.3751 27.4938C97.2081 27.4938 96.446 26.7078 96.446 25.3146C96.446 23.695 97.4582 22.9448 98.7681 22.9448Z" fill="black"/>
</svg>
