<svg width="23" height="22" viewBox="0 0 23 22" fill="none" xmlns="http://www.w3.org/2000/svg">
<path d="M5.16586 14.1039C4.93255 13.8431 4.79507 13.5106 4.77614 13.1612V8.80399C4.79501 8.45454 4.93249 8.12199 5.16586 7.86128L5.47408 7.55295C5.57744 7.44936 5.63548 7.30898 5.63548 7.16262C5.63548 7.01626 5.57744 6.87587 5.47408 6.77229L2.20478 3.50136C2.10111 3.39808 1.96076 3.34009 1.81444 3.34009C1.66812 3.34009 1.52777 3.39808 1.4241 3.50136L0.179639 4.74628C0.0767601 4.85013 0.019043 4.99041 0.019043 5.13662C0.019043 5.28282 0.0767601 5.4231 0.179639 5.52695L2.51299 7.86117C2.74677 8.12166 2.88444 8.45432 2.90313 8.80389V13.1611C2.88449 13.5105 2.7468 13.8429 2.51299 14.1031L0.179639 16.4382C0.0767601 16.5421 0.019043 16.6824 0.019043 16.8285C0.019043 16.9748 0.0767601 17.1151 0.179639 17.2189L1.4241 18.4638C1.52778 18.5671 1.66813 18.6251 1.81444 18.6251C1.96075 18.6251 2.1011 18.5671 2.20478 18.4638L5.47408 15.1927C5.57743 15.089 5.63547 14.9487 5.63547 14.8024C5.63547 14.6559 5.57743 14.5156 5.47408 14.4121L5.16586 14.1039Z" fill="#583BD1"/>
<path d="M14.1505 16.8511C13.8899 17.0845 13.5576 17.2222 13.2083 17.2415H8.85399C8.50446 17.2222 8.1719 17.0846 7.911 16.8511L7.60352 16.542C7.49948 16.439 7.35909 16.3813 7.21282 16.3813C7.06653 16.3813 6.92614 16.439 6.82211 16.542L3.55323 19.8129C3.45003 19.9168 3.39209 20.0573 3.39209 20.2037C3.39209 20.3501 3.45003 20.4906 3.55323 20.5944L4.79768 21.8394C4.90159 21.9423 5.0419 22 5.18813 22C5.33436 22 5.47467 21.9423 5.57858 21.8394L7.91142 19.504C8.17224 19.2707 8.5047 19.1331 8.85409 19.1138H13.2097C13.559 19.133 13.8913 19.2706 14.1518 19.504L16.4857 21.8394C16.5896 21.9423 16.7298 22 16.876 22C17.0221 22 17.1624 21.9423 17.2662 21.8394L18.5106 20.5944C18.6139 20.4906 18.6718 20.3501 18.6718 20.2037C18.6718 20.0573 18.6139 19.9168 18.5106 19.8129L15.2394 16.5417C15.1356 16.4388 14.9954 16.3811 14.8493 16.3811C14.7032 16.3811 14.5629 16.4388 14.4591 16.5417L14.1505 16.8511Z" fill="#583BD1"/>
<path d="M16.9745 7.89491C17.2084 8.1559 17.3464 8.48895 17.3653 8.83898V13.1945C17.3462 13.5443 17.2083 13.8771 16.9745 14.1378L16.6662 14.4469C16.5632 14.5506 16.5054 14.6909 16.5054 14.8372C16.5054 14.9835 16.5632 15.1238 16.6662 15.2275L19.9364 18.4981C20.0401 18.6013 20.1805 18.6592 20.3267 18.6592C20.473 18.6592 20.6134 18.6013 20.717 18.4981L21.9615 17.2525C22.0647 17.1488 22.1227 17.0084 22.1227 16.8621C22.1227 16.7158 22.0647 16.5753 21.9615 16.4717L19.6286 14.1374C19.3947 13.8767 19.2567 13.5439 19.2376 13.1941L19.2382 8.83856C19.257 8.48856 19.3947 8.15549 19.6286 7.89449L21.9615 5.56027C22.0647 5.4568 22.1227 5.31656 22.1227 5.17035C22.1227 5.02415 22.0647 4.88391 21.9615 4.78043L20.717 3.53479C20.6658 3.48351 20.6049 3.44283 20.538 3.41509C20.471 3.38734 20.3993 3.37305 20.3267 3.37305C20.2543 3.37305 20.1825 3.38734 20.1156 3.41509C20.0485 3.44283 19.9877 3.48351 19.9364 3.53479L16.6662 6.80519C16.5632 6.90896 16.5054 7.0493 16.5054 7.19558C16.5054 7.34186 16.5632 7.48219 16.6662 7.58596L16.9745 7.89491Z" fill="#583BD1"/>
<path d="M7.98991 5.14882C8.2504 4.9151 8.58287 4.77737 8.93228 4.75843H13.287C13.6363 4.77771 13.9686 4.91539 14.2292 5.14882L14.5382 5.45776C14.5893 5.50903 14.6501 5.54969 14.7171 5.57744C14.784 5.60518 14.8557 5.61946 14.9281 5.61946C15.0006 5.61946 15.0724 5.60518 15.1392 5.57744C15.2062 5.54969 15.267 5.50903 15.3182 5.45776L18.5879 2.18663C18.6911 2.08279 18.749 1.94231 18.749 1.79588C18.749 1.64947 18.6911 1.50899 18.5879 1.40514L17.3435 0.161673C17.2399 0.0581507 17.0995 0 16.9531 0C16.8067 0 16.6663 0.0581507 16.5627 0.161673L14.2293 2.4959C13.9687 2.72932 13.6364 2.867 13.2871 2.88628H8.93228C8.58287 2.86734 8.2504 2.72961 7.98991 2.4959L5.65655 0.161673C5.55265 0.0587808 5.41236 0.00106377 5.26615 0.00106377C5.11996 0.00106377 4.97966 0.0587808 4.87576 0.161673L3.6313 1.40659C3.52813 1.51042 3.47021 1.65088 3.47021 1.79729C3.47021 1.94369 3.52813 2.08415 3.6313 2.18798L6.90028 5.45766C7.00385 5.56119 7.14427 5.61933 7.29068 5.61933C7.43708 5.61933 7.57751 5.56119 7.68108 5.45766L7.98991 5.14882Z" fill="#583BD1"/>
</svg>
