<svg width="20" height="22" viewBox="0 0 20 22" fill="none" xmlns="http://www.w3.org/2000/svg">
<path d="M15.8303 0C14.7354 0.00123436 13.6857 0.436647 12.9115 1.21071C12.1373 1.98477 11.7018 3.03427 11.7006 4.12897V6.88151H8.25929V4.12897C8.25369 3.03758 7.81614 1.9928 7.04229 1.22304C6.26844 0.453278 5.22124 0.0211632 4.12964 0.0211632C3.03805 0.0211632 1.99085 0.453278 1.217 1.22304C0.443149 1.9928 0.00559461 3.03758 0 4.12897V17.8922C0.00559461 18.9836 0.443149 20.0283 1.217 20.7981C1.99085 21.5678 3.03805 22 4.12964 22C5.22124 22 6.26844 21.5678 7.04229 20.7981C7.81614 20.0283 8.25369 18.9836 8.25929 17.8922V16.5159L6.88272 15.8277V17.8922C6.88272 18.4367 6.72125 18.9688 6.41873 19.4215C6.11621 19.8742 5.68622 20.227 5.18315 20.4353C4.68006 20.6436 4.1265 20.6982 3.59244 20.592C3.05838 20.4857 2.56782 20.2236 2.1828 19.8386C1.79777 19.4536 1.53556 18.9631 1.42934 18.4292C1.32313 17.8951 1.37766 17.3417 1.58606 16.8387C1.79445 16.3358 2.14735 15.9058 2.60012 15.6034C3.05287 15.3009 3.58518 15.1395 4.1297 15.1395H15.8303C16.3748 15.1395 16.9071 15.3009 17.3598 15.6035C17.8126 15.9059 18.1655 16.3358 18.3738 16.8388C18.5822 17.3418 18.6368 17.8953 18.5305 18.4292C18.4243 18.9632 18.1621 19.4536 17.777 19.8386C17.392 20.2236 16.9015 20.4858 16.3674 20.592C15.8333 20.6982 15.2798 20.6436 14.7767 20.4353C14.2737 20.227 13.8437 19.8742 13.5411 19.4215C13.2387 18.9688 13.0772 18.4367 13.0772 17.8922V16.5159L11.7006 15.8277V17.8922C11.7062 18.9836 12.1437 20.0283 12.9176 20.7981C13.6915 21.5678 14.7387 22 15.8302 22C16.9218 22 17.969 21.5678 18.7429 20.7981C19.5168 20.0283 19.9542 18.9836 19.9599 17.8922V4.12897C19.9587 3.03429 19.5232 1.9848 18.749 1.21075C17.9749 0.436688 16.9251 0.00126307 15.8303 0ZM13.0772 4.12897C13.0772 3.58454 13.2386 3.05233 13.5411 2.59965C13.8437 2.14697 14.2735 1.79414 14.7767 1.58577C15.2797 1.37742 15.8332 1.32289 16.3674 1.42909C16.9014 1.53529 17.3919 1.79744 17.777 2.1824C18.1621 2.56737 18.4243 3.05784 18.5305 3.59181C18.6368 4.12577 18.5822 4.67924 18.3738 5.18222C18.1655 5.68521 17.8126 6.11512 17.3599 6.41759C16.9071 6.72006 16.3748 6.88151 15.8303 6.88151H13.0772V4.12897ZM4.1297 1.37633C4.8596 1.37718 5.55936 1.66748 6.07547 2.18351C6.59158 2.69954 6.88189 3.3992 6.88272 4.12897V6.88151H4.1297C3.7667 6.88379 3.40684 6.81426 3.07083 6.67695C2.73481 6.53964 2.42926 6.33725 2.17179 6.08143C1.91429 5.8256 1.70995 5.52139 1.57051 5.18629C1.43108 4.85121 1.35929 4.49185 1.35929 4.12892C1.35929 3.76598 1.43108 3.40663 1.57051 3.07153C1.70995 2.73644 1.91429 2.43223 2.17179 2.1764C2.42926 1.92058 2.73481 1.71818 3.07083 1.58087C3.40684 1.44356 3.7667 1.37405 4.1297 1.37633ZM15.8303 13.7629H4.1297C3.11326 13.7621 2.13251 14.1375 1.37657 14.8169V7.20383C2.13252 7.88318 3.11327 8.2586 4.1297 8.25772H15.8303C16.8467 8.25859 17.8275 7.88317 18.5833 7.20383V14.8169C17.8275 14.1375 16.8467 13.7621 15.8303 13.7629Z" fill="#324D5C"/>
</svg>
