<svg width="120" height="117" viewBox="0 0 120 117" fill="none" xmlns="http://www.w3.org/2000/svg">
<rect y="0.464844" width="120" height="116" rx="8" fill="#47A561"/>
<path d="M11.264 16.5528C12.064 16.5528 12.664 16.3288 13.16 16.0168V15.4408C12.704 15.7608 12.08 16.0488 11.28 16.0488C9.976 16.0488 8.992 15.0968 8.992 13.7208C8.992 12.3368 9.976 11.3768 11.28 11.3768C12.08 11.3768 12.704 11.6648 13.16 11.9848V11.4168C12.664 11.1048 12.064 10.8808 11.264 10.8808C9.664 10.8808 8.44 12.0568 8.44 13.7208C8.44 15.3848 9.664 16.5528 11.264 16.5528ZM15.9904 12.6328C16.6544 12.6328 17.1264 13.0088 17.1264 13.8328V16.4648H17.6304V13.7448C17.6304 12.6568 17.0224 12.1448 16.1424 12.1448C15.4384 12.1448 14.9104 12.4568 14.5424 12.7448V10.8568L14.0304 10.9608V16.4648H14.5424V13.1288C14.8704 12.9208 15.4144 12.6328 15.9904 12.6328ZM20.8026 16.5448C22.0586 16.5448 22.9706 15.5928 22.9706 14.3448C22.9706 13.0888 22.0586 12.1448 20.8026 12.1448C19.5466 12.1448 18.6346 13.0888 18.6346 14.3448C18.6346 15.5928 19.5466 16.5448 20.8026 16.5448ZM20.8026 16.0648C19.8426 16.0648 19.1466 15.3208 19.1466 14.3448C19.1466 13.3608 19.8426 12.6248 20.8026 12.6248C21.7706 12.6248 22.4586 13.3608 22.4586 14.3448C22.4586 15.3208 21.7706 16.0648 20.8026 16.0648ZM25.951 16.5448C27.207 16.5448 28.119 15.5928 28.119 14.3448C28.119 13.0888 27.207 12.1448 25.951 12.1448C24.695 12.1448 23.783 13.0888 23.783 14.3448C23.783 15.5928 24.695 16.5448 25.951 16.5448ZM25.951 16.0648C24.991 16.0648 24.295 15.3208 24.295 14.3448C24.295 13.3608 24.991 12.6248 25.951 12.6248C26.919 12.6248 27.607 13.3608 27.607 14.3448C27.607 15.3208 26.919 16.0648 25.951 16.0648ZM30.9474 14.2808L30.3474 14.0968C29.7794 13.9208 29.3794 13.7528 29.3794 13.2808C29.3794 12.8248 29.8354 12.5928 30.3474 12.5928C30.9314 12.5928 31.5314 12.8328 31.8434 13.0648V12.5288C31.5314 12.3288 30.9634 12.1368 30.3634 12.1368C29.4434 12.1368 28.8834 12.6488 28.8834 13.2968C28.8834 14.0088 29.3954 14.3048 29.9874 14.4728L30.6354 14.6648C31.1954 14.8328 31.5474 14.9848 31.5474 15.4488C31.5474 15.9528 31.1714 16.1288 30.5874 16.1288C29.9234 16.1288 29.2514 15.8568 28.8754 15.6088V16.1368C29.2194 16.3448 29.8754 16.5848 30.5794 16.5848C31.4914 16.5848 32.0354 16.1848 32.0354 15.4328C32.0354 14.7768 31.5634 14.4648 30.9474 14.2808ZM36.4078 16.2088V15.7368C36.1118 15.9288 35.4958 16.0568 34.9598 16.0568C34.0238 16.0568 33.3278 15.5688 33.2718 14.5288H36.5198V14.2808C36.5198 12.9048 35.8638 12.1368 34.7118 12.1368C33.5758 12.1368 32.7518 12.9368 32.7518 14.3448C32.7518 15.8008 33.6718 16.5448 34.9198 16.5448C35.4558 16.5448 36.0878 16.4248 36.4078 16.2088ZM34.6957 12.5928C35.5358 12.5928 35.9918 13.1448 36.0158 14.1528H33.2718C33.3038 13.1448 33.8958 12.5928 34.6957 12.5928ZM40.0596 10.9608H39.5396V16.4648H40.0756V11.8888L43.4436 16.4648H43.9476V10.9608H43.4116V15.5528L40.0596 10.9608ZM48.7203 16.2088V15.7368C48.4243 15.9288 47.8083 16.0568 47.2723 16.0568C46.3363 16.0568 45.6403 15.5688 45.5843 14.5288H48.8323V14.2808C48.8323 12.9048 48.1763 12.1368 47.0243 12.1368C45.8883 12.1368 45.0643 12.9368 45.0643 14.3448C45.0643 15.8008 45.9843 16.5448 47.2323 16.5448C47.7683 16.5448 48.4003 16.4248 48.7203 16.2088ZM47.0082 12.5928C47.8483 12.5928 48.3043 13.1448 48.3283 14.1528H45.5843C45.6163 13.1448 46.2083 12.5928 47.0082 12.5928ZM51.8494 16.5448C53.1054 16.5448 54.0174 15.5928 54.0174 14.3448C54.0174 13.0888 53.1054 12.1448 51.8494 12.1448C50.5934 12.1448 49.6814 13.0888 49.6814 14.3448C49.6814 15.5928 50.5934 16.5448 51.8494 16.5448ZM51.8494 16.0648C50.8894 16.0648 50.1934 15.3208 50.1934 14.3448C50.1934 13.3608 50.8894 12.6248 51.8494 12.6248C52.8174 12.6248 53.5054 13.3608 53.5054 14.3448C53.5054 15.3208 52.8174 16.0648 51.8494 16.0648Z" fill="#080317"/>
<path d="M11.4531 67.4648V66.4805L12.7266 66.2617V57.2539H10.1484L9.92188 58.832H8.76562V56.0898H18.2188V58.832H17.0781L16.8438 57.2539H14.2656V66.2617L15.5391 66.4805V67.4648H11.4531ZM22.4375 67.4648V66.4805L23.7109 66.2617V57.2539H21.1328L20.9062 58.832H19.75V56.0898H29.2031V58.832H28.0625L27.8281 57.2539H25.25V66.2617L26.5234 66.4805V67.4648H22.4375Z" fill="#08051E"/>
<path d="M43.8594 67.5977C43.2344 67.5977 42.737 67.4154 42.3672 67.0508C42.0026 66.681 41.8203 66.0924 41.8203 65.2852V60.1523H40.4844V59.0117H41.8203V56.9727H43.3594V59.0117H45.1953V60.1523H43.3594V65.2852C43.3594 65.6914 43.4401 65.9909 43.6016 66.1836C43.763 66.3763 43.9792 66.4727 44.25 66.4727C44.4323 66.4727 44.6354 66.457 44.8594 66.4258C45.0833 66.3893 45.2578 66.3581 45.3828 66.332L45.5938 67.3398C45.3698 67.4076 45.0938 67.4674 44.7656 67.5195C44.4427 67.5716 44.1406 67.5977 43.8594 67.5977ZM49.5625 67.5977C48.9375 67.5977 48.4401 67.4154 48.0703 67.0508C47.7057 66.681 47.5234 66.0924 47.5234 65.2852V60.1523H46.1875V59.0117H47.5234V56.9727H49.0625V59.0117H50.8984V60.1523H49.0625V65.2852C49.0625 65.6914 49.1432 65.9909 49.3047 66.1836C49.4661 66.3763 49.6823 66.4727 49.9531 66.4727C50.1354 66.4727 50.3385 66.457 50.5625 66.4258C50.7865 66.3893 50.9609 66.3581 51.0859 66.332L51.2969 67.3398C51.0729 67.4076 50.7969 67.4674 50.4688 67.5195C50.1458 67.5716 49.8438 67.5977 49.5625 67.5977Z" fill="#08051E"/>
<circle cx="18" cy="89.4648" r="9.5" fill="#F7F5F2" stroke="#409457"/>
<path d="M43.3335 89.4648C43.3335 94.7115 39.0802 98.9648 33.8335 98.9648C28.5868 98.9648 24.3335 94.7115 24.3335 89.4648C24.3335 84.2181 28.5868 79.9648 33.8335 79.9648C39.0802 79.9648 43.3335 84.2181 43.3335 89.4648Z" fill="#54FCC0" stroke="#409457"/>
<circle cx="49.6665" cy="89.4648" r="9.5" fill="#FF7DBC" stroke="#409457"/>
<circle cx="65.5" cy="89.4648" r="9.5" fill="#D9FF6F" stroke="#409457"/>
</svg>
