<svg width="120" height="117" viewBox="0 0 120 117" fill="none" xmlns="http://www.w3.org/2000/svg">
<rect y="0.464844" width="120" height="116" rx="8" fill="#47A561"/>
<path d="M12.264 16.5528C13.064 16.5528 13.664 16.3288 14.16 16.0168V15.4408C13.704 15.7608 13.08 16.0488 12.28 16.0488C10.976 16.0488 9.992 15.0968 9.992 13.7208C9.992 12.3368 10.976 11.3768 12.28 11.3768C13.08 11.3768 13.704 11.6648 14.16 11.9848V11.4168C13.664 11.1048 13.064 10.8808 12.264 10.8808C10.664 10.8808 9.44 12.0568 9.44 13.7208C9.44 15.3848 10.664 16.5528 12.264 16.5528ZM16.9904 12.6328C17.6544 12.6328 18.1264 13.0088 18.1264 13.8328V16.4648H18.6304V13.7448C18.6304 12.6568 18.0224 12.1448 17.1424 12.1448C16.4384 12.1448 15.9104 12.4568 15.5424 12.7448V10.8568L15.0304 10.9608V16.4648H15.5424V13.1288C15.8704 12.9208 16.4144 12.6328 16.9904 12.6328ZM21.8026 16.5448C23.0586 16.5448 23.9706 15.5928 23.9706 14.3448C23.9706 13.0888 23.0586 12.1448 21.8026 12.1448C20.5466 12.1448 19.6346 13.0888 19.6346 14.3448C19.6346 15.5928 20.5466 16.5448 21.8026 16.5448ZM21.8026 16.0648C20.8426 16.0648 20.1466 15.3208 20.1466 14.3448C20.1466 13.3608 20.8426 12.6248 21.8026 12.6248C22.7706 12.6248 23.4586 13.3608 23.4586 14.3448C23.4586 15.3208 22.7706 16.0648 21.8026 16.0648ZM26.951 16.5448C28.207 16.5448 29.119 15.5928 29.119 14.3448C29.119 13.0888 28.207 12.1448 26.951 12.1448C25.695 12.1448 24.783 13.0888 24.783 14.3448C24.783 15.5928 25.695 16.5448 26.951 16.5448ZM26.951 16.0648C25.991 16.0648 25.295 15.3208 25.295 14.3448C25.295 13.3608 25.991 12.6248 26.951 12.6248C27.919 12.6248 28.607 13.3608 28.607 14.3448C28.607 15.3208 27.919 16.0648 26.951 16.0648ZM31.9474 14.2808L31.3474 14.0968C30.7794 13.9208 30.3794 13.7528 30.3794 13.2808C30.3794 12.8248 30.8354 12.5928 31.3474 12.5928C31.9314 12.5928 32.5314 12.8328 32.8434 13.0648V12.5288C32.5314 12.3288 31.9634 12.1368 31.3634 12.1368C30.4434 12.1368 29.8834 12.6488 29.8834 13.2968C29.8834 14.0088 30.3954 14.3048 30.9874 14.4728L31.6354 14.6648C32.1954 14.8328 32.5474 14.9848 32.5474 15.4488C32.5474 15.9528 32.1714 16.1288 31.5874 16.1288C30.9234 16.1288 30.2514 15.8568 29.8754 15.6088V16.1368C30.2194 16.3448 30.8754 16.5848 31.5794 16.5848C32.4914 16.5848 33.0354 16.1848 33.0354 15.4328C33.0354 14.7768 32.5634 14.4648 31.9474 14.2808ZM37.4078 16.2088V15.7368C37.1118 15.9288 36.4958 16.0568 35.9598 16.0568C35.0238 16.0568 34.3278 15.5688 34.2718 14.5288H37.5198V14.2808C37.5198 12.9048 36.8638 12.1368 35.7118 12.1368C34.5758 12.1368 33.7518 12.9368 33.7518 14.3448C33.7518 15.8008 34.6718 16.5448 35.9198 16.5448C36.4558 16.5448 37.0878 16.4248 37.4078 16.2088ZM35.6957 12.5928C36.5358 12.5928 36.9918 13.1448 37.0158 14.1528H34.2718C34.3038 13.1448 34.8958 12.5928 35.6957 12.5928ZM43.1156 16.5528C43.9156 16.5528 44.5156 16.3288 45.0116 16.0168V15.4408C44.5556 15.7608 43.9316 16.0488 43.1316 16.0488C41.8276 16.0488 40.8436 15.0968 40.8436 13.7208C40.8436 12.3368 41.8276 11.3768 43.1316 11.3768C43.9316 11.3768 44.5556 11.6648 45.0116 11.9848V11.4168C44.5156 11.1048 43.9156 10.8808 43.1156 10.8808C41.5156 10.8808 40.2916 12.0568 40.2916 13.7208C40.2916 15.3848 41.5156 16.5528 43.1156 16.5528ZM45.882 10.9608V16.4648H46.394V10.8568L45.882 10.9608ZM50.2474 13.7928V14.3048C50.0394 14.2328 49.6874 14.1608 49.2554 14.1608C48.0954 14.1608 47.4234 14.7208 47.4234 15.4488C47.4234 16.1048 47.8714 16.5448 48.7354 16.5448C49.3994 16.5448 49.9354 16.2008 50.2794 15.8248V16.4648H50.7514V13.8008C50.7514 12.5928 49.9754 12.1448 49.1194 12.1448C48.3514 12.1448 47.7274 12.5208 47.4554 12.8168V13.3608C47.8074 12.9848 48.3674 12.6408 49.0714 12.6408C49.6874 12.6408 50.2474 12.9528 50.2474 13.7928ZM47.9114 15.4248C47.9114 14.9128 48.3914 14.5288 49.3994 14.5288C49.7034 14.5288 50.0394 14.5928 50.2474 14.6568V15.4888C49.8714 15.8328 49.3674 16.1288 48.7994 16.1288C48.3034 16.1288 47.9114 15.9288 47.9114 15.4248ZM53.7756 14.2808L53.1756 14.0968C52.6076 13.9208 52.2076 13.7528 52.2076 13.2808C52.2076 12.8248 52.6636 12.5928 53.1756 12.5928C53.7596 12.5928 54.3596 12.8328 54.6716 13.0648V12.5288C54.3596 12.3288 53.7916 12.1368 53.1916 12.1368C52.2716 12.1368 51.7116 12.6488 51.7116 13.2968C51.7116 14.0088 52.2236 14.3048 52.8156 14.4728L53.4636 14.6648C54.0236 14.8328 54.3756 14.9848 54.3756 15.4488C54.3756 15.9528 53.9996 16.1288 53.4156 16.1288C52.7516 16.1288 52.0796 15.8568 51.7036 15.6088V16.1368C52.0476 16.3448 52.7036 16.5848 53.4076 16.5848C54.3196 16.5848 54.8636 16.1848 54.8636 15.4328C54.8636 14.7768 54.3916 14.4648 53.7756 14.2808ZM57.5959 14.2808L56.9959 14.0968C56.4279 13.9208 56.0279 13.7528 56.0279 13.2808C56.0279 12.8248 56.4839 12.5928 56.9959 12.5928C57.5799 12.5928 58.1799 12.8328 58.4919 13.0648V12.5288C58.1799 12.3288 57.6119 12.1368 57.0119 12.1368C56.0919 12.1368 55.5319 12.6488 55.5319 13.2968C55.5319 14.0088 56.0439 14.3048 56.6359 14.4728L57.2839 14.6648C57.8439 14.8328 58.1959 14.9848 58.1959 15.4488C58.1959 15.9528 57.8199 16.1288 57.2359 16.1288C56.5719 16.1288 55.8999 15.8568 55.5239 15.6088V16.1368C55.8679 16.3448 56.5239 16.5848 57.2279 16.5848C58.1399 16.5848 58.6839 16.1848 58.6839 15.4328C58.6839 14.7768 58.2119 14.4648 57.5959 14.2808ZM59.8882 11.5448C60.1282 11.5448 60.2962 11.4008 60.2962 11.1928C60.2962 10.9848 60.1282 10.8408 59.8882 10.8408C59.6562 10.8408 59.4882 10.9848 59.4882 11.1928C59.4882 11.4008 59.6562 11.5448 59.8882 11.5448ZM59.6322 12.2248V16.4648H60.1442V12.2248H59.6322ZM64.6693 12.4408C64.3733 12.2408 63.9413 12.1368 63.4773 12.1368C62.1813 12.1368 61.1893 13.0008 61.1893 14.3448C61.1893 15.6488 62.1813 16.5448 63.4693 16.5448C63.9413 16.5448 64.3733 16.4248 64.6693 16.2248V15.7128C64.3893 15.9128 63.9573 16.0568 63.4853 16.0568C62.4693 16.0568 61.7093 15.3768 61.7093 14.3448C61.7093 13.2888 62.4693 12.6248 63.4933 12.6248C63.9573 12.6248 64.3893 12.7528 64.6693 12.9608V12.4408Z" fill="#080317"/>
<path d="M12.4531 67.4648V66.4805L13.7266 66.2617V57.2539H11.1484L10.9219 58.832H9.76562V56.0898H19.2188V58.832H18.0781L17.8438 57.2539H15.2656V66.2617L16.5391 66.4805V67.4648H12.4531ZM23.4375 67.4648V66.4805L24.7109 66.2617V57.2539H22.1328L21.9062 58.832H20.75V56.0898H30.2031V58.832H29.0625L28.8281 57.2539H26.25V66.2617L27.5234 66.4805V67.4648H23.4375Z" fill="#08051E"/>
<path d="M44.8594 67.5977C44.2344 67.5977 43.737 67.4154 43.3672 67.0508C43.0026 66.681 42.8203 66.0924 42.8203 65.2852V60.1523H41.4844V59.0117H42.8203V56.9727H44.3594V59.0117H46.1953V60.1523H44.3594V65.2852C44.3594 65.6914 44.4401 65.9909 44.6016 66.1836C44.763 66.3763 44.9792 66.4727 45.25 66.4727C45.4323 66.4727 45.6354 66.457 45.8594 66.4258C46.0833 66.3893 46.2578 66.3581 46.3828 66.332L46.5938 67.3398C46.3698 67.4076 46.0938 67.4674 45.7656 67.5195C45.4427 67.5716 45.1406 67.5977 44.8594 67.5977ZM50.5625 67.5977C49.9375 67.5977 49.4401 67.4154 49.0703 67.0508C48.7057 66.681 48.5234 66.0924 48.5234 65.2852V60.1523H47.1875V59.0117H48.5234V56.9727H50.0625V59.0117H51.8984V60.1523H50.0625V65.2852C50.0625 65.6914 50.1432 65.9909 50.3047 66.1836C50.4661 66.3763 50.6823 66.4727 50.9531 66.4727C51.1354 66.4727 51.3385 66.457 51.5625 66.4258C51.7865 66.3893 51.9609 66.3581 52.0859 66.332L52.2969 67.3398C52.0729 67.4076 51.7969 67.4674 51.4688 67.5195C51.1458 67.5716 50.8438 67.5977 50.5625 67.5977Z" fill="#08051E"/>
<circle cx="19" cy="89.4648" r="9.5" fill="#B39446" stroke="#409457"/>
<circle cx="34.8335" cy="89.4648" r="9.5" fill="#FEFA97" stroke="#409457"/>
<circle cx="50.6665" cy="89.4648" r="9.5" fill="#D87BF9" stroke="#409457"/>
<circle cx="66.5" cy="89.4648" r="9.5" fill="#F7F9FE" stroke="#409457"/>
</svg>
