<svg width="120" height="117" viewBox="0 0 120 117" fill="none" xmlns="http://www.w3.org/2000/svg">
<rect y="0.464844" width="120" height="116" rx="8" fill="#5ACC79"/>
<path d="M11.264 16.5528C12.064 16.5528 12.664 16.3288 13.16 16.0168V15.4408C12.704 15.7608 12.08 16.0488 11.28 16.0488C9.976 16.0488 8.992 15.0968 8.992 13.7208C8.992 12.3368 9.976 11.3768 11.28 11.3768C12.08 11.3768 12.704 11.6648 13.16 11.9848V11.4168C12.664 11.1048 12.064 10.8808 11.264 10.8808C9.664 10.8808 8.44 12.0568 8.44 13.7208C8.44 15.3848 9.664 16.5528 11.264 16.5528ZM15.9904 12.6328C16.6544 12.6328 17.1264 13.0088 17.1264 13.8328V16.4648H17.6304V13.7448C17.6304 12.6568 17.0224 12.1448 16.1424 12.1448C15.4384 12.1448 14.9104 12.4568 14.5424 12.7448V10.8568L14.0304 10.9608V16.4648H14.5424V13.1288C14.8704 12.9208 15.4144 12.6328 15.9904 12.6328ZM20.8026 16.5448C22.0586 16.5448 22.9706 15.5928 22.9706 14.3448C22.9706 13.0888 22.0586 12.1448 20.8026 12.1448C19.5466 12.1448 18.6346 13.0888 18.6346 14.3448C18.6346 15.5928 19.5466 16.5448 20.8026 16.5448ZM20.8026 16.0648C19.8426 16.0648 19.1466 15.3208 19.1466 14.3448C19.1466 13.3608 19.8426 12.6248 20.8026 12.6248C21.7706 12.6248 22.4586 13.3608 22.4586 14.3448C22.4586 15.3208 21.7706 16.0648 20.8026 16.0648ZM25.951 16.5448C27.207 16.5448 28.119 15.5928 28.119 14.3448C28.119 13.0888 27.207 12.1448 25.951 12.1448C24.695 12.1448 23.783 13.0888 23.783 14.3448C23.783 15.5928 24.695 16.5448 25.951 16.5448ZM25.951 16.0648C24.991 16.0648 24.295 15.3208 24.295 14.3448C24.295 13.3608 24.991 12.6248 25.951 12.6248C26.919 12.6248 27.607 13.3608 27.607 14.3448C27.607 15.3208 26.919 16.0648 25.951 16.0648ZM30.9474 14.2808L30.3474 14.0968C29.7794 13.9208 29.3794 13.7528 29.3794 13.2808C29.3794 12.8248 29.8354 12.5928 30.3474 12.5928C30.9314 12.5928 31.5314 12.8328 31.8434 13.0648V12.5288C31.5314 12.3288 30.9634 12.1368 30.3634 12.1368C29.4434 12.1368 28.8834 12.6488 28.8834 13.2968C28.8834 14.0088 29.3954 14.3048 29.9874 14.4728L30.6354 14.6648C31.1954 14.8328 31.5474 14.9848 31.5474 15.4488C31.5474 15.9528 31.1714 16.1288 30.5874 16.1288C29.9234 16.1288 29.2514 15.8568 28.8754 15.6088V16.1368C29.2194 16.3448 29.8754 16.5848 30.5794 16.5848C31.4914 16.5848 32.0354 16.1848 32.0354 15.4328C32.0354 14.7768 31.5634 14.4648 30.9474 14.2808ZM36.4078 16.2088V15.7368C36.1118 15.9288 35.4958 16.0568 34.9598 16.0568C34.0238 16.0568 33.3278 15.5688 33.2718 14.5288H36.5198V14.2808C36.5198 12.9048 35.8638 12.1368 34.7118 12.1368C33.5758 12.1368 32.7518 12.9368 32.7518 14.3448C32.7518 15.8008 33.6718 16.5448 34.9198 16.5448C35.4558 16.5448 36.0878 16.4248 36.4078 16.2088ZM34.6957 12.5928C35.5358 12.5928 35.9918 13.1448 36.0158 14.1528H33.2718C33.3038 13.1448 33.8958 12.5928 34.6957 12.5928ZM42.3796 16.4648H42.9716L45.2276 11.8328V16.4648H45.7556V10.9608H45.0436L42.6756 15.9288L40.3076 10.9608H39.5956V16.4648H40.1236V11.8328L42.3796 16.4648ZM49.076 16.5448C50.332 16.5448 51.244 15.5928 51.244 14.3448C51.244 13.0888 50.332 12.1448 49.076 12.1448C47.82 12.1448 46.908 13.0888 46.908 14.3448C46.908 15.5928 47.82 16.5448 49.076 16.5448ZM49.076 16.0648C48.116 16.0648 47.42 15.3208 47.42 14.3448C47.42 13.3608 48.116 12.6248 49.076 12.6248C50.044 12.6248 50.732 13.3608 50.732 14.3448C50.732 15.3208 50.044 16.0648 49.076 16.0648ZM55.3364 16.4648H55.8084V10.8568L55.2964 10.9608V12.3048C55.0164 12.2168 54.7124 12.1448 54.2884 12.1448C53.0484 12.1448 52.0564 12.9368 52.0564 14.4568C52.0564 15.8168 52.8644 16.5448 53.9204 16.5448C54.5604 16.5448 55.0644 16.2568 55.3364 16.0168V16.4648ZM54.3044 12.6088C54.7364 12.6088 55.0324 12.6968 55.2964 12.7928V15.6168C55.0404 15.8248 54.5844 16.0808 54.0244 16.0808C53.1444 16.0808 52.5844 15.4648 52.5844 14.4328C52.5844 13.2328 53.2964 12.6088 54.3044 12.6088ZM60.5015 16.2088V15.7368C60.2055 15.9288 59.5895 16.0568 59.0535 16.0568C58.1175 16.0568 57.4215 15.5688 57.3655 14.5288H60.6135V14.2808C60.6135 12.9048 59.9575 12.1368 58.8055 12.1368C57.6695 12.1368 56.8455 12.9368 56.8455 14.3448C56.8455 15.8008 57.7655 16.5448 59.0135 16.5448C59.5495 16.5448 60.1815 16.4248 60.5015 16.2088ZM58.7895 12.5928C59.6295 12.5928 60.0855 13.1448 60.1095 14.1528H57.3655C57.3975 13.1448 57.9895 12.5928 58.7895 12.5928ZM61.6867 12.2248V16.4648H62.1987V13.2328C62.5027 12.9608 63.0307 12.6328 63.4867 12.6328C63.7747 12.6328 63.9987 12.7128 64.1747 12.8328V12.2968C64.0067 12.2008 63.8227 12.1448 63.6147 12.1448C63.0307 12.1448 62.5107 12.5368 62.1667 12.8808V12.2248H61.6867ZM64.9679 12.2248V16.4648H65.4799V13.1288C65.8079 12.9208 66.3519 12.6328 66.9279 12.6328C67.5919 12.6328 68.0639 13.0088 68.0639 13.8328V16.4648H68.5679V13.7448C68.5679 12.6568 67.9599 12.1448 67.0799 12.1448C66.3519 12.1448 65.8159 12.4808 65.4479 12.7768V12.2248H64.9679Z" fill="#080317"/>
<path d="M8.16 57.5048H11.632V66.4648H13.808V57.5048H17.296V55.4568H8.16V57.5048ZM17.5975 57.5048H21.0695V66.4648H23.2455V57.5048H26.7335V55.4568H17.5975V57.5048Z" fill="#08051E"/>
<path d="M42.952 66.0968V65.1688C42.552 65.4408 41.944 65.6808 41.24 65.6808C40.28 65.6808 39.72 65.2328 39.72 64.1448V58.8968H42.872V57.9848H39.72V56.3848H39.464L37.384 58.6248V58.8968H38.696V64.2248C38.696 66.1608 39.864 66.6248 41.048 66.6248C41.928 66.6248 42.568 66.3528 42.952 66.0968ZM49.4676 66.0968V65.1688C49.0676 65.4408 48.4596 65.6808 47.7556 65.6808C46.7956 65.6808 46.2356 65.2328 46.2356 64.1448V58.8968H49.3876V57.9848H46.2356V56.3848H45.9796L43.8996 58.6248V58.8968H45.2116V64.2248C45.2116 66.1608 46.3796 66.6248 47.5636 66.6248C48.4436 66.6248 49.0836 66.3528 49.4676 66.0968Z" fill="#08051E"/>
<circle cx="18" cy="88.4648" r="9.5" fill="#2A2E43" stroke="#78E295"/>
<circle cx="34" cy="88.4648" r="9.5" fill="#F7F9FE" stroke="#78E295"/>
<circle cx="50" cy="88.4648" r="9.5" fill="#DE8452" stroke="#78E295"/>
<circle cx="65" cy="88.4648" r="9.5" fill="#24A6DE" stroke="#78E295"/>
</svg>
