<svg width="48" height="49" viewBox="0 0 48 49" fill="none" xmlns="http://www.w3.org/2000/svg">
<rect y="0.5" width="48" height="48" rx="8" fill="#53C171"/>
<path d="M29 33.5V31.5C29 30.4391 28.5786 29.4217 27.8284 28.6716C27.0783 27.9214 26.0609 27.5 25 27.5H17C15.9391 27.5 14.9217 27.9214 14.1716 28.6716C13.4214 29.4217 13 30.4391 13 31.5V33.5" stroke="black" stroke-width="2" stroke-linecap="round" stroke-linejoin="round"/>
<path d="M21 23.5C23.2091 23.5 25 21.7091 25 19.5C25 17.2909 23.2091 15.5 21 15.5C18.7909 15.5 17 17.2909 17 19.5C17 21.7091 18.7909 23.5 21 23.5Z" stroke="black" stroke-width="2" stroke-linecap="round" stroke-linejoin="round"/>
<path d="M35 33.5V31.5C34.9993 30.6137 34.7044 29.7528 34.1614 29.0523C33.6184 28.3519 32.8581 27.8516 32 27.63" stroke="black" stroke-width="2" stroke-linecap="round" stroke-linejoin="round"/>
<path d="M28 15.63C28.8604 15.8503 29.623 16.3507 30.1676 17.0523C30.7122 17.7539 31.0078 18.6168 31.0078 19.505C31.0078 20.3932 30.7122 21.2561 30.1676 21.9577C29.623 22.6593 28.8604 23.1597 28 23.38" stroke="black" stroke-width="2" stroke-linecap="round" stroke-linejoin="round"/>
</svg>
