<svg width="320" height="521" viewBox="0 0 320 521" fill="none" xmlns="http://www.w3.org/2000/svg">
<g clip-path="url(#clip0_88_135500)">
<rect x="0.501953" y="0.5" width="318" height="520" rx="11.5" fill="white" fill-opacity="0.1" stroke="url(#paint0_linear_88_135500)"/>
<path d="M36.0654 24.5762H159.502V63.7032H36.0654C25.2608 63.7032 16.502 54.9443 16.502 44.1397C16.502 33.3351 25.2608 24.5762 36.0654 24.5762Z" fill="#BADFC5" stroke="white"/>
<g clip-path="url(#clip1_88_135500)">
<path d="M52.002 44C52.002 41.8783 51.1591 39.8434 49.6588 38.3431C48.1585 36.8429 46.1237 36 44.002 36C41.8802 36 39.8454 36.8429 38.3451 38.3431C36.8448 39.8434 36.002 41.8783 36.002 44C36.002 46.1217 36.8448 48.1566 38.3451 49.6569C39.8454 51.1571 41.8802 52 44.002 52C46.1237 52 48.1585 51.1571 49.6588 49.6569C51.1591 48.1566 52.002 46.1217 52.002 44V44ZM46.098 41.197C46.1441 41.1492 46.1992 41.1112 46.2603 41.0849C46.3213 41.0587 46.3869 41.045 46.4533 41.0444C46.5196 41.0438 46.5855 41.0564 46.6469 41.0816C46.7084 41.1067 46.7642 41.1439 46.8112 41.1908C46.8581 41.2377 46.8952 41.2936 46.9204 41.355C46.9455 41.4165 46.9582 41.4823 46.9576 41.5487C46.957 41.6151 46.9432 41.6807 46.917 41.7417C46.8908 41.8027 46.8527 41.8579 46.805 41.904L42.709 46H45.477C45.6096 46 45.7367 46.0527 45.8305 46.1464C45.9243 46.2402 45.977 46.3674 45.977 46.5C45.977 46.6326 45.9243 46.7598 45.8305 46.8536C45.7367 46.9473 45.6096 47 45.477 47H41.502C41.3693 47 41.2422 46.9473 41.1484 46.8536C41.0546 46.7598 41.002 46.6326 41.002 46.5V42.525C41.002 42.3924 41.0546 42.2652 41.1484 42.1714C41.2422 42.0777 41.3693 42.025 41.502 42.025C41.6346 42.025 41.7617 42.0777 41.8555 42.1714C41.9493 42.2652 42.002 42.3924 42.002 42.525V45.293L46.098 41.197Z" fill="#525252"/>
</g>
<path d="M65.9164 49H68.0444L70.7464 42.42V49H72.6504V39.368H70.0324L66.9804 47.166L63.9284 39.368H61.3104V49H63.2144V42.42L65.9164 49ZM78.0845 49.14C80.3525 49.14 82.0185 47.474 82.0185 45.29C82.0185 43.05 80.3525 41.44 78.0845 41.44C75.8305 41.44 74.1645 43.05 74.1645 45.29C74.1645 47.474 75.8305 49.14 78.0845 49.14ZM78.0845 47.446C76.8945 47.446 75.9705 46.55 75.9705 45.29C75.9705 44.002 76.8945 43.134 78.0845 43.134C79.2885 43.134 80.2265 44.002 80.2265 45.29C80.2265 46.55 79.2885 47.446 78.0845 47.446ZM87.0272 43.19C88.0352 43.19 88.5252 43.75 88.5252 44.702V49H90.3312V44.24C90.3312 42.532 89.5332 41.44 87.7972 41.44C86.6212 41.44 85.6552 41.958 85.0532 42.49V41.58H83.3592V49H85.1652V43.652C85.6412 43.414 86.3132 43.19 87.0272 43.19ZM98.3851 48.412V46.83C97.8111 47.138 96.8311 47.446 95.7951 47.446C94.3391 47.446 93.5971 46.9 93.4711 45.808H98.4971V44.968C98.4971 42.756 97.3211 41.44 95.2491 41.44C93.0791 41.44 91.6371 42.924 91.6371 45.29C91.6371 47.768 93.2331 49.14 95.5851 49.14C96.7191 49.14 97.8671 48.818 98.3851 48.412ZM95.1371 42.966C96.2291 42.966 96.7191 43.638 96.7331 44.646H93.4571C93.5271 43.638 94.1011 42.966 95.1371 42.966ZM101.316 51.352C102.394 51.352 103.346 50.806 103.962 49.364L107.364 41.58H105.362L103.374 46.69L101.246 41.58H99.2298L102.548 48.692L102.38 49.042C102.17 49.448 101.75 49.7 101.218 49.7C100.35 49.7 99.6918 49.224 99.4118 48.958V50.666C99.7758 50.974 100.448 51.352 101.316 51.352ZM111.199 39.368V49H113.103V39.368H111.199ZM118.596 43.19C119.604 43.19 120.094 43.75 120.094 44.702V49H121.9V44.24C121.9 42.532 121.102 41.44 119.366 41.44C118.19 41.44 117.224 41.958 116.622 42.49V41.58H114.928V49H116.734V43.652C117.21 43.414 117.882 43.19 118.596 43.19Z" fill="#07051A"/>
<path d="M199.176 49H200.212L204.16 40.894V49H205.084V39.368H203.838L199.694 48.062L195.55 39.368H194.304V49H195.228V40.894L199.176 49ZM210.895 49.14C213.093 49.14 214.689 47.474 214.689 45.29C214.689 43.092 213.093 41.44 210.895 41.44C208.697 41.44 207.101 43.092 207.101 45.29C207.101 47.474 208.697 49.14 210.895 49.14ZM210.895 48.3C209.215 48.3 207.997 46.998 207.997 45.29C207.997 43.568 209.215 42.28 210.895 42.28C212.589 42.28 213.793 43.568 213.793 45.29C213.793 46.998 212.589 48.3 210.895 48.3ZM216.502 41.58V49H217.398V43.162C217.972 42.798 218.924 42.294 219.932 42.294C221.094 42.294 221.92 42.952 221.92 44.394V49H222.802V44.24C222.802 42.336 221.738 41.44 220.198 41.44C218.924 41.44 217.986 42.028 217.342 42.546V41.58H216.502ZM230.958 48.552V47.726C230.44 48.062 229.362 48.286 228.424 48.286C226.786 48.286 225.568 47.432 225.47 45.612H231.154V45.178C231.154 42.77 230.006 41.426 227.99 41.426C226.002 41.426 224.56 42.826 224.56 45.29C224.56 47.838 226.17 49.14 228.354 49.14C229.292 49.14 230.398 48.93 230.958 48.552ZM227.962 42.224C229.432 42.224 230.23 43.19 230.272 44.954H225.47C225.526 43.19 226.562 42.224 227.962 42.224ZM233.9 51.352C234.81 51.352 235.468 50.848 235.972 49.686L239.542 41.58H238.562L235.888 47.866L233.214 41.58H232.22L235.468 48.86L235.146 49.574C234.88 50.162 234.432 50.526 233.858 50.526C233.172 50.526 232.598 50.12 232.346 49.826V50.764C232.598 51.002 233.158 51.352 233.9 51.352ZM248.642 49.14C251.4 49.14 253.5 47.096 253.5 44.198C253.5 41.272 251.4 39.228 248.642 39.228C245.856 39.228 243.756 41.272 243.756 44.198C243.756 47.096 245.856 49.14 248.642 49.14ZM248.642 48.216C246.416 48.216 244.722 46.564 244.722 44.198C244.722 41.804 246.402 40.152 248.642 40.152C250.854 40.152 252.534 41.804 252.534 44.198C252.534 46.564 250.854 48.216 248.642 48.216ZM258.199 48.286C257.037 48.286 256.211 47.628 256.211 46.186V41.58H255.315V46.34C255.315 48.244 256.379 49.14 257.933 49.14C259.193 49.14 260.145 48.552 260.789 48.034V49H261.629V41.58H260.733V47.404C260.173 47.782 259.207 48.286 258.199 48.286ZM267.937 48.678V47.866C267.587 48.104 267.055 48.314 266.439 48.314C265.599 48.314 265.109 47.922 265.109 46.97V42.378H267.867V41.58H265.109V40.18H264.885L263.065 42.14V42.378H264.213V47.04C264.213 48.734 265.235 49.14 266.271 49.14C267.041 49.14 267.601 48.902 267.937 48.678Z" fill="#D8D8D8"/>
<rect x="16.502" y="24.5" width="286" height="39" rx="19.5" stroke="#F3F3F3"/>
<rect x="159.252" y="24.25" width="0.5" height="39.5" stroke="#F3F3F3" strokeWidth="0.5"/>
<circle cx="159.502" cy="149" r="68" fill="#FB96BB"/>
<path d="M227.502 149C227.502 163.462 222.891 177.548 214.339 189.211C205.787 200.873 193.739 209.506 179.946 213.854C166.153 218.202 151.333 218.039 137.639 213.389C123.944 208.74 112.089 199.845 103.795 187.997L159.502 149H227.502Z" fill="#7B9CFF"/>
<path d="M227.502 149C227.502 134.087 222.6 119.588 213.55 107.735C204.5 95.8816 191.805 87.3321 177.419 83.4028C163.033 79.4736 147.754 80.3823 133.935 85.9893C120.117 91.5962 108.524 101.59 100.944 114.433L159.502 149H227.502Z" fill="#FFD485"/>
<path d="M131.665 116V113.943H125.987L129.115 111.104C130.356 109.999 131.495 108.996 131.495 107.33C131.495 105.426 130.033 104.134 127.755 104.134C125.834 104.134 124.219 105.052 123.505 105.613V107.976C124.44 107.177 126.004 106.225 127.551 106.225C128.554 106.225 129.149 106.684 129.149 107.449C129.149 108.214 128.605 108.826 127.551 109.863L123.046 114.283V116H131.665ZM133.383 104.304L132.652 106.327H134.845V116H137.106V104.304H133.383ZM141.552 104.134C139.903 104.134 138.679 105.375 138.679 107.194C138.679 108.996 139.903 110.254 141.569 110.254C143.235 110.254 144.442 108.996 144.442 107.194C144.442 105.375 143.235 104.134 141.552 104.134ZM140.583 116H142.589L149.848 104.304H147.876L140.583 116ZM141.552 105.647C142.334 105.647 142.81 106.293 142.81 107.177C142.81 108.078 142.334 108.741 141.552 108.741C140.804 108.741 140.311 108.078 140.311 107.177C140.311 106.259 140.804 105.647 141.552 105.647ZM148.896 110.05C147.247 110.05 146.023 111.308 146.023 113.11C146.023 114.912 147.247 116.17 148.913 116.17C150.579 116.17 151.786 114.912 151.786 113.11C151.786 111.308 150.579 110.05 148.896 110.05ZM147.655 113.11C147.655 112.175 148.148 111.563 148.896 111.563C149.678 111.563 150.154 112.209 150.154 113.11C150.154 114.011 149.678 114.657 148.896 114.657C148.148 114.657 147.655 114.011 147.655 113.11Z" fill="#222B2D"/>
<path d="M227.502 149C227.502 140.07 225.743 131.228 222.326 122.978C218.908 114.727 213.9 107.231 207.585 100.917C201.271 94.6024 193.775 89.5935 185.524 86.1762C177.274 82.7589 168.432 81 159.502 81L159.502 149H227.502Z" fill="#9EECF2"/>
<path d="M172.405 116.504L171.674 118.527H173.867V128.2H176.128V116.504H172.405ZM179.215 116.504L178.552 122.964H182.258C183.771 122.964 184.859 123.355 184.859 124.664C184.859 125.786 183.89 126.313 182.513 126.313C180.779 126.313 179.079 125.514 178.263 124.834V127.129C179.096 127.69 180.66 128.37 182.683 128.37C185.335 128.37 187.171 126.976 187.171 124.664C187.171 122.131 185.488 120.924 182.921 120.924H180.932L181.204 118.561H186.542V116.504H179.215ZM190.901 116.334C189.252 116.334 188.028 117.575 188.028 119.394C188.028 121.196 189.252 122.454 190.918 122.454C192.584 122.454 193.791 121.196 193.791 119.394C193.791 117.575 192.584 116.334 190.901 116.334ZM189.932 128.2H191.938L199.197 116.504H197.225L189.932 128.2ZM190.901 117.847C191.683 117.847 192.159 118.493 192.159 119.377C192.159 120.278 191.683 120.941 190.901 120.941C190.153 120.941 189.66 120.278 189.66 119.377C189.66 118.459 190.153 117.847 190.901 117.847ZM198.245 122.25C196.596 122.25 195.372 123.508 195.372 125.31C195.372 127.112 196.596 128.37 198.262 128.37C199.928 128.37 201.135 127.112 201.135 125.31C201.135 123.508 199.928 122.25 198.245 122.25ZM197.004 125.31C197.004 124.375 197.497 123.763 198.245 123.763C199.027 123.763 199.503 124.409 199.503 125.31C199.503 126.211 199.027 126.857 198.245 126.857C197.497 126.857 197.004 126.211 197.004 125.31Z" fill="#222B2D"/>
<path d="M159.183 180.304L152.944 188.022V189.671H159.183V192H161.444V189.671H163.552V187.648H161.444V180.304H159.183ZM155.511 187.648L159.183 183.058V187.648H155.511ZM170.655 180.304L164.416 188.022V189.671H170.655V192H172.916V189.671H175.024V187.648H172.916V180.304H170.655ZM166.983 187.648L170.655 183.058V187.648H166.983ZM178.641 180.134C176.992 180.134 175.768 181.375 175.768 183.194C175.768 184.996 176.992 186.254 178.658 186.254C180.324 186.254 181.531 184.996 181.531 183.194C181.531 181.375 180.324 180.134 178.641 180.134ZM177.672 192H179.678L186.937 180.304H184.965L177.672 192ZM178.641 181.647C179.423 181.647 179.899 182.293 179.899 183.177C179.899 184.078 179.423 184.741 178.641 184.741C177.893 184.741 177.4 184.078 177.4 183.177C177.4 182.259 177.893 181.647 178.641 181.647ZM185.985 186.05C184.336 186.05 183.112 187.308 183.112 189.11C183.112 190.912 184.336 192.17 186.002 192.17C187.668 192.17 188.875 190.912 188.875 189.11C188.875 187.308 187.668 186.05 185.985 186.05ZM184.744 189.11C184.744 188.175 185.237 187.563 185.985 187.563C186.767 187.563 187.243 188.209 187.243 189.11C187.243 190.011 186.767 190.657 185.985 190.657C185.237 190.657 184.744 190.011 184.744 189.11Z" fill="#222B2D"/>
<path d="M114.665 156V153.943H108.987L112.115 151.104C113.356 149.999 114.495 148.996 114.495 147.33C114.495 145.426 113.033 144.134 110.755 144.134C108.834 144.134 107.219 145.052 106.505 145.613V147.976C107.44 147.177 109.004 146.225 110.551 146.225C111.554 146.225 112.149 146.684 112.149 147.449C112.149 148.214 111.605 148.826 110.551 149.863L106.046 154.283V156H114.665ZM121.381 156.17C124.067 156.17 126.294 154.317 126.294 150.152C126.294 146.004 124.067 144.134 121.381 144.134C118.695 144.134 116.485 146.004 116.485 150.152C116.485 154.317 118.695 156.17 121.381 156.17ZM121.381 153.994C119.834 153.994 118.865 152.702 118.865 150.152C118.865 147.602 119.834 146.327 121.381 146.327C122.945 146.327 123.914 147.602 123.914 150.152C123.914 152.702 122.945 153.994 121.381 153.994ZM130.595 144.134C128.946 144.134 127.722 145.375 127.722 147.194C127.722 148.996 128.946 150.254 130.612 150.254C132.278 150.254 133.485 148.996 133.485 147.194C133.485 145.375 132.278 144.134 130.595 144.134ZM129.626 156H131.632L138.891 144.304H136.919L129.626 156ZM130.595 145.647C131.377 145.647 131.853 146.293 131.853 147.177C131.853 148.078 131.377 148.741 130.595 148.741C129.847 148.741 129.354 148.078 129.354 147.177C129.354 146.259 129.847 145.647 130.595 145.647ZM137.939 150.05C136.29 150.05 135.066 151.308 135.066 153.11C135.066 154.912 136.29 156.17 137.956 156.17C139.622 156.17 140.829 154.912 140.829 153.11C140.829 151.308 139.622 150.05 137.939 150.05ZM136.698 153.11C136.698 152.175 137.191 151.563 137.939 151.563C138.721 151.563 139.197 152.209 139.197 153.11C139.197 154.011 138.721 154.657 137.939 154.657C137.191 154.657 136.698 154.011 136.698 153.11Z" fill="#222B2D"/>
<g opacity="0.11">
<rect x="24.002" y="233" width="271" height="68" rx="12" fill="#FFFAFA"/>
<rect x="24.502" y="233.5" width="270" height="67" rx="11.5" stroke="#FFB6B6" stroke-opacity="0.08"/>
</g>
<path d="M97.8471 282.12L97.5771 282.71H98.8071V289H99.4571V282.12H97.8471ZM105.463 289V288.4H101.623L103.923 286.23C104.733 285.48 105.403 284.83 105.403 283.85C105.403 282.69 104.563 282.02 103.373 282.02C102.193 282.02 101.323 282.67 100.983 282.98V283.69C101.413 283.28 102.253 282.62 103.333 282.62C104.233 282.62 104.733 283.15 104.733 283.88C104.733 284.62 104.253 285.1 103.473 285.86L100.763 288.5V289H105.463ZM107.81 282.02C106.97 282.02 106.31 282.65 106.31 283.67C106.31 284.68 106.97 285.32 107.82 285.32C108.67 285.32 109.33 284.68 109.33 283.67C109.33 282.65 108.67 282.02 107.81 282.02ZM107.14 289H107.76L112.19 282.12H111.59L107.14 289ZM107.81 282.49C108.4 282.49 108.82 282.95 108.82 283.65C108.82 284.37 108.4 284.84 107.81 284.84C107.24 284.84 106.81 284.37 106.81 283.65C106.81 282.95 107.24 282.49 107.81 282.49ZM111.53 285.8C110.68 285.8 110.02 286.44 110.02 287.45C110.02 288.47 110.68 289.1 111.53 289.1C112.39 289.1 113.04 288.47 113.04 287.45C113.04 286.44 112.39 285.8 111.53 285.8ZM110.53 287.44C110.53 286.73 110.95 286.27 111.53 286.27C112.11 286.27 112.53 286.74 112.53 287.44C112.53 288.15 112.11 288.62 111.53 288.62C110.95 288.62 110.53 288.15 110.53 287.44ZM117.174 281.99L116.534 282.12V288.7C117.064 288.9 117.714 289.1 118.574 289.1C120.044 289.1 121.224 288.14 121.224 286.24C121.224 284.57 120.264 283.6 118.924 283.6C118.164 283.6 117.524 283.94 117.174 284.22V281.99ZM118.794 284.19C119.854 284.19 120.564 284.98 120.564 286.27C120.564 287.79 119.744 288.52 118.554 288.52C118.004 288.52 117.564 288.41 117.174 288.29V284.77C117.514 284.5 118.084 284.19 118.794 284.19ZM126.81 288.68V288.09C126.44 288.33 125.67 288.49 125 288.49C123.83 288.49 122.96 287.88 122.89 286.58H126.95V286.27C126.95 284.55 126.13 283.59 124.69 283.59C123.27 283.59 122.24 284.59 122.24 286.35C122.24 288.17 123.39 289.1 124.95 289.1C125.62 289.1 126.41 288.95 126.81 288.68ZM124.67 284.16C125.72 284.16 126.29 284.85 126.32 286.11H122.89C122.93 284.85 123.67 284.16 124.67 284.16ZM131.222 288.77V288.19C130.972 288.36 130.592 288.51 130.152 288.51C129.552 288.51 129.202 288.23 129.202 287.55V284.27H131.172V283.7H129.202V282.7H129.042L127.742 284.1V284.27H128.562V287.6C128.562 288.81 129.292 289.1 130.032 289.1C130.582 289.1 130.982 288.93 131.222 288.77ZM135.294 288.77V288.19C135.044 288.36 134.664 288.51 134.224 288.51C133.624 288.51 133.274 288.23 133.274 287.55V284.27H135.244V283.7H133.274V282.7H133.114L131.814 284.1V284.27H132.634V287.6C132.634 288.81 133.364 289.1 134.104 289.1C134.654 289.1 135.054 288.93 135.294 288.77ZM140.726 288.68V288.09C140.356 288.33 139.586 288.49 138.916 288.49C137.746 288.49 136.876 287.88 136.806 286.58H140.866V286.27C140.866 284.55 140.046 283.59 138.606 283.59C137.186 283.59 136.156 284.59 136.156 286.35C136.156 288.17 137.306 289.1 138.866 289.1C139.536 289.1 140.326 288.95 140.726 288.68ZM138.586 284.16C139.636 284.16 140.206 284.85 140.236 286.11H136.806C136.846 284.85 137.586 284.16 138.586 284.16ZM142.208 283.7V289H142.848V284.96C143.228 284.62 143.888 284.21 144.458 284.21C144.818 284.21 145.098 284.31 145.318 284.46V283.79C145.108 283.67 144.878 283.6 144.618 283.6C143.888 283.6 143.238 284.09 142.808 284.52V283.7H142.208ZM151.603 288.77V288.19C151.353 288.36 150.973 288.51 150.533 288.51C149.933 288.51 149.583 288.23 149.583 287.55V284.27H151.553V283.7H149.583V282.7H149.423L148.123 284.1V284.27H148.943V287.6C148.943 288.81 149.673 289.1 150.413 289.1C150.963 289.1 151.363 288.93 151.603 288.77ZM155.195 284.21C156.025 284.21 156.615 284.68 156.615 285.71V289H157.245V285.6C157.245 284.24 156.485 283.6 155.385 283.6C154.505 283.6 153.845 283.99 153.385 284.35V281.99L152.745 282.12V289H153.385V284.83C153.795 284.57 154.475 284.21 155.195 284.21ZM162.02 285.66V286.3C161.76 286.21 161.32 286.12 160.78 286.12C159.33 286.12 158.49 286.82 158.49 287.73C158.49 288.55 159.05 289.1 160.13 289.1C160.96 289.1 161.63 288.67 162.06 288.2V289H162.65V285.67C162.65 284.16 161.68 283.6 160.61 283.6C159.65 283.6 158.87 284.07 158.53 284.44V285.12C158.97 284.65 159.67 284.22 160.55 284.22C161.32 284.22 162.02 284.61 162.02 285.66ZM159.1 287.7C159.1 287.06 159.7 286.58 160.96 286.58C161.34 286.58 161.76 286.66 162.02 286.74V287.78C161.55 288.21 160.92 288.58 160.21 288.58C159.59 288.58 159.1 288.33 159.1 287.7ZM164.19 283.7V289H164.83V284.83C165.24 284.57 165.92 284.21 166.64 284.21C167.47 284.21 168.06 284.68 168.06 285.71V289H168.69V285.6C168.69 284.24 167.93 283.6 166.83 283.6C165.92 283.6 165.25 284.02 164.79 284.39V283.7H164.19ZM172.589 282.12V289H173.229V281.99L172.589 282.12ZM178.046 285.66V286.3C177.786 286.21 177.346 286.12 176.806 286.12C175.356 286.12 174.516 286.82 174.516 287.73C174.516 288.55 175.076 289.1 176.156 289.1C176.986 289.1 177.656 288.67 178.086 288.2V289H178.676V285.67C178.676 284.16 177.706 283.6 176.636 283.6C175.676 283.6 174.896 284.07 174.556 284.44V285.12C174.996 284.65 175.696 284.22 176.576 284.22C177.346 284.22 178.046 284.61 178.046 285.66ZM175.126 287.7C175.126 287.06 175.726 286.58 176.986 286.58C177.366 286.58 177.786 286.66 178.046 286.74V287.78C177.576 288.21 176.946 288.58 176.236 288.58C175.616 288.58 175.126 288.33 175.126 287.7ZM182.456 286.27L181.706 286.04C180.996 285.82 180.496 285.61 180.496 285.02C180.496 284.45 181.066 284.16 181.706 284.16C182.436 284.16 183.186 284.46 183.576 284.75V284.08C183.186 283.83 182.476 283.59 181.726 283.59C180.576 283.59 179.876 284.23 179.876 285.04C179.876 285.93 180.516 286.3 181.256 286.51L182.066 286.75C182.766 286.96 183.206 287.15 183.206 287.73C183.206 288.36 182.736 288.58 182.006 288.58C181.176 288.58 180.336 288.24 179.866 287.93V288.59C180.296 288.85 181.116 289.15 181.996 289.15C183.136 289.15 183.816 288.65 183.816 287.71C183.816 286.89 183.226 286.5 182.456 286.27ZM187.921 288.77V288.19C187.671 288.36 187.291 288.51 186.851 288.51C186.251 288.51 185.901 288.23 185.901 287.55V284.27H187.871V283.7H185.901V282.7H185.741L184.441 284.1V284.27H185.261V287.6C185.261 288.81 185.991 289.1 186.731 289.1C187.281 289.1 187.681 288.93 187.921 288.77ZM191.427 283.7V289H192.067V284.83C192.457 284.57 193.097 284.21 193.777 284.21C194.547 284.21 195.097 284.67 195.097 285.66V289H195.727V285.47C195.727 285.24 195.707 285.04 195.657 284.85C196.077 284.56 196.737 284.21 197.447 284.21C198.207 284.21 198.757 284.67 198.757 285.66V289H199.397V285.55C199.397 284.23 198.687 283.6 197.637 283.6C196.697 283.6 195.997 284.06 195.527 284.47C195.237 283.89 194.687 283.6 193.967 283.6C193.107 283.6 192.477 284.03 192.027 284.38V283.7H191.427ZM203.359 289.1C204.929 289.1 206.069 287.91 206.069 286.35C206.069 284.78 204.929 283.6 203.359 283.6C201.789 283.6 200.649 284.78 200.649 286.35C200.649 287.91 201.789 289.1 203.359 289.1ZM203.359 288.5C202.159 288.5 201.289 287.57 201.289 286.35C201.289 285.12 202.159 284.2 203.359 284.2C204.569 284.2 205.429 285.12 205.429 286.35C205.429 287.57 204.569 288.5 203.359 288.5ZM207.364 283.7V289H208.004V284.83C208.414 284.57 209.094 284.21 209.814 284.21C210.644 284.21 211.234 284.68 211.234 285.71V289H211.864V285.6C211.864 284.24 211.104 283.6 210.004 283.6C209.094 283.6 208.424 284.02 207.964 284.39V283.7H207.364ZM216.329 288.77V288.19C216.079 288.36 215.699 288.51 215.259 288.51C214.659 288.51 214.309 288.23 214.309 287.55V284.27H216.279V283.7H214.309V282.7H214.149L212.849 284.1V284.27H213.669V287.6C213.669 288.81 214.399 289.1 215.139 289.1C215.689 289.1 216.089 288.93 216.329 288.77ZM219.922 284.21C220.752 284.21 221.342 284.68 221.342 285.71V289H221.972V285.6C221.972 284.24 221.212 283.6 220.112 283.6C219.232 283.6 218.572 283.99 218.112 284.35V281.99L217.472 282.12V289H218.112V284.83C218.522 284.57 219.202 284.21 219.922 284.21Z" fill="#CACACA"/>
<path d="M117.934 268.568V267.144C119.934 266.936 121.326 265.848 121.326 264.008C121.326 261.832 119.742 261.208 117.998 260.728L116.766 260.376C115.582 260.056 114.798 259.8 114.798 259C114.798 258.328 115.422 257.928 116.526 257.928C117.966 257.928 119.598 258.568 120.574 259.192V256.856C120.062 256.536 119.182 256.12 117.934 255.944V254.472H115.934V255.88C113.998 256.088 112.478 257.224 112.478 259.16C112.478 261.288 114.062 261.976 115.79 262.408L117.246 262.792C118.398 263.112 119.086 263.368 119.086 264.104C119.086 264.76 118.622 265.176 117.278 265.176C115.774 265.176 113.918 264.52 112.862 263.768V266.024C113.486 266.456 114.574 266.92 115.934 267.112V268.568H117.934ZM123.509 247.736L122.305 251.068H125.917V267H129.641V247.736H123.509ZM146.793 267V263.612H137.441L142.593 258.936C144.637 257.116 146.513 255.464 146.513 252.72C146.513 249.584 144.105 247.456 140.353 247.456C137.189 247.456 134.529 248.968 133.353 249.892V253.784C134.893 252.468 137.469 250.9 140.017 250.9C141.669 250.9 142.649 251.656 142.649 252.916C142.649 254.176 141.753 255.184 140.017 256.892L132.597 264.172V267H146.793ZM153.207 262.912H149.427L147.803 270.22H150.799L153.207 262.912ZM156.846 247.736L155.754 258.376H161.858C164.35 258.376 166.142 259.02 166.142 261.176C166.142 263.024 164.546 263.892 162.278 263.892C159.422 263.892 156.622 262.576 155.278 261.456V265.236C156.65 266.16 159.226 267.28 162.558 267.28C166.926 267.28 169.95 264.984 169.95 261.176C169.95 257.004 167.178 255.016 162.95 255.016H159.674L160.122 251.124H168.914V247.736H156.846ZM187.378 260.364C187.378 256.556 184.774 254.036 180.966 254.036C179.062 254.036 177.55 254.68 176.514 255.436C178.418 252.104 182.226 249.164 184.438 247.736H179.146C176.262 249.556 171.894 253.868 171.894 259.328C171.894 264.228 174.834 267.28 179.65 267.28C184.298 267.28 187.378 264.452 187.378 260.364ZM175.73 259.44C175.73 259.104 175.758 258.768 175.814 258.46C176.934 257.704 178.446 257.116 180.042 257.116C182.142 257.116 183.57 258.236 183.57 260.448C183.57 262.604 182.002 263.892 179.79 263.892C177.438 263.892 175.73 262.38 175.73 259.44ZM198.077 267.28C202.501 267.28 206.169 264.228 206.169 257.368C206.169 250.536 202.501 247.456 198.077 247.456C193.653 247.456 190.013 250.536 190.013 257.368C190.013 264.228 193.653 267.28 198.077 267.28ZM198.077 263.696C195.529 263.696 193.933 261.568 193.933 257.368C193.933 253.168 195.529 251.068 198.077 251.068C200.653 251.068 202.249 253.168 202.249 257.368C202.249 261.568 200.653 263.696 198.077 263.696Z" fill="white"/>
<rect x="80.002" y="280" width="12" height="12" rx="6" fill="#8CEAA6"/>
<path d="M86.5638 285.146L86.002 284.892L86.5638 284.638L86.8201 284.081L87.0765 284.638L87.6383 284.892L87.0765 285.146L86.8201 285.703L86.5638 285.146ZM83.8201 286.243L84.0765 285.686L84.6383 285.432L84.0765 285.178L83.8201 284.622L83.5638 285.178L83.002 285.432L83.5638 285.686L83.8201 286.243ZM85.0474 284.892L85.3447 284.241L86.002 283.946L85.3447 283.651L85.0474 283L84.7501 283.651L84.0929 283.946L84.7501 284.241L85.0474 284.892ZM83.9565 288L85.5929 286.376L86.6838 287.457L89.002 284.873L88.6174 284.492L86.6838 286.646L85.5929 285.565L83.5474 287.595L83.9565 288Z" fill="#070519"/>
<path d="M38.002 342H282.502" stroke="#E7E7E7" strokeWidth="3" stroke-dasharray="4 4"/>
<rect x="38.002" y="340" width="245" height="4" rx="2" fill="#7B9CFF"/>
<path d="M41.678 327.02C41.678 327.824 41.09 328.376 39.77 328.376C38.594 328.376 37.406 327.896 36.662 327.392V328.232C37.358 328.688 38.498 329.12 39.77 329.12C41.342 329.12 42.494 328.388 42.494 326.984C42.494 325.556 41.57 325.112 40.13 324.644L39.242 324.356C38.21 324.02 37.43 323.708 37.43 322.76C37.43 321.968 38.078 321.38 39.338 321.38C40.466 321.38 41.498 321.848 42.086 322.28V321.392C41.594 321.032 40.622 320.612 39.35 320.612C37.838 320.612 36.59 321.38 36.59 322.82C36.59 324.212 37.682 324.68 38.774 325.028L39.89 325.388C41.054 325.772 41.678 326.108 41.678 327.02ZM47.8809 324.992V325.76C47.5689 325.652 47.0409 325.544 46.3929 325.544C44.6529 325.544 43.6449 326.384 43.6449 327.476C43.6449 328.46 44.3169 329.12 45.6129 329.12C46.6089 329.12 47.4129 328.604 47.9289 328.04V329H48.6369V325.004C48.6369 323.192 47.4729 322.52 46.1889 322.52C45.0369 322.52 44.1009 323.084 43.6929 323.528V324.344C44.2209 323.78 45.0609 323.264 46.1169 323.264C47.0409 323.264 47.8809 323.732 47.8809 324.992ZM44.3769 327.44C44.3769 326.672 45.0969 326.096 46.6089 326.096C47.0649 326.096 47.5689 326.192 47.8809 326.288V327.536C47.3169 328.052 46.5609 328.496 45.7089 328.496C44.9649 328.496 44.3769 328.196 44.3769 327.44ZM50.4851 320.744V329H51.2531V320.588L50.4851 320.744ZM57.0333 324.992V325.76C56.7213 325.652 56.1933 325.544 55.5453 325.544C53.8053 325.544 52.7973 326.384 52.7973 327.476C52.7973 328.46 53.4693 329.12 54.7653 329.12C55.7613 329.12 56.5653 328.604 57.0813 328.04V329H57.7893V325.004C57.7893 323.192 56.6253 322.52 55.3413 322.52C54.1893 322.52 53.2533 323.084 52.8453 323.528V324.344C53.3733 323.78 54.2133 323.264 55.2693 323.264C56.1933 323.264 57.0333 323.732 57.0333 324.992ZM53.5293 327.44C53.5293 326.672 54.2493 326.096 55.7613 326.096C56.2173 326.096 56.7213 326.192 57.0333 326.288V327.536C56.4693 328.052 55.7133 328.496 54.8613 328.496C54.1173 328.496 53.5293 328.196 53.5293 327.44ZM59.6375 322.64V329H60.4055V324.152C60.8615 323.744 61.6535 323.252 62.3375 323.252C62.7695 323.252 63.1055 323.372 63.3695 323.552V322.748C63.1175 322.604 62.8415 322.52 62.5295 322.52C61.6535 322.52 60.8735 323.108 60.3575 323.624V322.64H59.6375ZM65.3033 331.016C66.0833 331.016 66.6473 330.584 67.0793 329.588L70.1393 322.64H69.2993L67.0073 328.028L64.7153 322.64H63.8633L66.6473 328.88L66.3713 329.492C66.1433 329.996 65.7593 330.308 65.2673 330.308C64.6793 330.308 64.1873 329.96 63.9713 329.708V330.512C64.1873 330.716 64.6673 331.016 65.3033 331.016Z" fill="#CACACA"/>
<path d="M240.919 330.176V329.108C242.419 328.952 243.463 328.136 243.463 326.756C243.463 325.124 242.275 324.656 240.967 324.296L240.043 324.032C239.155 323.792 238.567 323.6 238.567 323C238.567 322.496 239.035 322.196 239.863 322.196C240.943 322.196 242.167 322.676 242.899 323.144V321.392C242.515 321.152 241.855 320.84 240.919 320.708V319.604H239.419V320.66C237.967 320.816 236.827 321.668 236.827 323.12C236.827 324.716 238.015 325.232 239.311 325.556L240.403 325.844C241.267 326.084 241.783 326.276 241.783 326.828C241.783 327.32 241.435 327.632 240.427 327.632C239.299 327.632 237.907 327.14 237.115 326.576V328.268C237.583 328.592 238.399 328.94 239.419 329.084V330.176H240.919ZM246.621 329L250.221 322.064V320.744H244.101V322.196H248.493L244.809 329H246.621ZM254.335 329.108C256.471 329.108 257.719 328.016 257.719 326.6C257.719 325.7 257.227 324.956 256.267 324.512C256.963 324.14 257.299 323.516 257.299 322.892C257.299 321.62 256.195 320.612 254.335 320.612C252.511 320.612 251.383 321.608 251.383 322.868C251.383 323.492 251.707 324.14 252.439 324.512C251.455 324.968 250.975 325.724 250.975 326.636C250.975 328.028 252.223 329.108 254.335 329.108ZM252.943 322.964C252.943 322.292 253.555 321.968 254.335 321.968C255.127 321.968 255.751 322.328 255.751 322.988C255.751 323.684 255.127 324.044 254.347 324.044C253.555 324.044 252.943 323.66 252.943 322.964ZM252.571 326.48C252.571 325.568 253.399 325.112 254.347 325.112C255.283 325.112 256.123 325.532 256.123 326.444C256.123 327.344 255.271 327.764 254.335 327.764C253.411 327.764 252.571 327.356 252.571 326.48ZM260.484 327.248H258.864L258.168 330.38H259.452L260.484 327.248ZM267.804 324.032C267.804 321.932 266.556 320.624 264.492 320.624C262.488 320.624 261.18 321.836 261.18 323.588C261.18 325.22 262.296 326.3 263.928 326.3C264.744 326.3 265.38 326.036 265.824 325.7C265.008 327.116 263.388 328.388 262.44 329H264.696C265.944 328.22 267.804 326.372 267.804 324.032ZM262.8 323.552C262.8 322.628 263.484 322.076 264.42 322.076C265.44 322.076 266.172 322.724 266.172 323.984C266.172 324.128 266.16 324.26 266.136 324.404C265.668 324.728 265.008 324.98 264.312 324.98C263.412 324.98 262.8 324.5 262.8 323.552ZM269.567 320.744L269.099 325.304H271.715C272.783 325.304 273.551 325.58 273.551 326.504C273.551 327.296 272.867 327.668 271.895 327.668C270.671 327.668 269.471 327.104 268.895 326.624V328.244C269.483 328.64 270.587 329.12 272.015 329.12C273.887 329.12 275.183 328.136 275.183 326.504C275.183 324.716 273.995 323.864 272.183 323.864H270.779L270.971 322.196H274.739V320.744H269.567ZM282.653 326.156C282.653 324.524 281.537 323.444 279.905 323.444C279.089 323.444 278.441 323.72 277.997 324.044C278.813 322.616 280.445 321.356 281.393 320.744H279.125C277.889 321.524 276.017 323.372 276.017 325.712C276.017 327.812 277.277 329.12 279.341 329.12C281.333 329.12 282.653 327.908 282.653 326.156ZM277.661 325.76C277.661 325.616 277.673 325.472 277.697 325.34C278.177 325.016 278.825 324.764 279.509 324.764C280.409 324.764 281.021 325.244 281.021 326.192C281.021 327.116 280.349 327.668 279.401 327.668C278.393 327.668 277.661 327.02 277.661 325.76Z" fill="#E0E0E2"/>
<path d="M38.002 393H282.502" stroke="#E7E7E7" strokeWidth="3" stroke-dasharray="4 4"/>
<rect x="38.002" y="391" width="245" height="4" rx="2" fill="#FB96BB"/>
<path d="M37.118 371.744V380H37.91V371.744H37.118ZM39.9734 373.64V380H40.7414V374.996C41.2334 374.684 42.0494 374.252 42.9134 374.252C43.9094 374.252 44.6174 374.816 44.6174 376.052V380H45.3734V375.92C45.3734 374.288 44.4614 373.52 43.1414 373.52C42.0494 373.52 41.2454 374.024 40.6934 374.468V373.64H39.9734ZM52.0996 373.964C51.6556 373.664 51.0076 373.508 50.3116 373.508C48.3676 373.508 46.8796 374.804 46.8796 376.82C46.8796 378.776 48.3676 380.12 50.2996 380.12C51.0076 380.12 51.6556 379.94 52.0996 379.64V378.872C51.6796 379.172 51.0316 379.388 50.3236 379.388C48.7996 379.388 47.6596 378.368 47.6596 376.82C47.6596 375.236 48.7996 374.24 50.3356 374.24C51.0316 374.24 51.6796 374.432 52.0996 374.744V373.964ZM56.4949 380.12C58.3789 380.12 59.7469 378.692 59.7469 376.82C59.7469 374.936 58.3789 373.52 56.4949 373.52C54.6109 373.52 53.2429 374.936 53.2429 376.82C53.2429 378.692 54.6109 380.12 56.4949 380.12ZM56.4949 379.4C55.0549 379.4 54.0109 378.284 54.0109 376.82C54.0109 375.344 55.0549 374.24 56.4949 374.24C57.9469 374.24 58.9789 375.344 58.9789 376.82C58.9789 378.284 57.9469 379.4 56.4949 379.4ZM61.3015 373.64V380H62.0695V374.996C62.5375 374.684 63.3055 374.252 64.1215 374.252C65.0455 374.252 65.7055 374.804 65.7055 375.992V380H66.4615V375.764C66.4615 375.488 66.4375 375.248 66.3775 375.02C66.8815 374.672 67.6735 374.252 68.5255 374.252C69.4375 374.252 70.0975 374.804 70.0975 375.992V380H70.8655V375.86C70.8655 374.276 70.0135 373.52 68.7535 373.52C67.6255 373.52 66.7855 374.072 66.2215 374.564C65.8735 373.868 65.2135 373.52 64.3495 373.52C63.3175 373.52 62.5615 374.036 62.0215 374.456V373.64H61.3015ZM77.8519 379.616V378.908C77.4079 379.196 76.4839 379.388 75.6799 379.388C74.2759 379.388 73.2319 378.656 73.1479 377.096H78.0199V376.724C78.0199 374.66 77.0359 373.508 75.3079 373.508C73.6039 373.508 72.3679 374.708 72.3679 376.82C72.3679 379.004 73.7479 380.12 75.6199 380.12C76.4239 380.12 77.3719 379.94 77.8519 379.616ZM75.2839 374.192C76.5439 374.192 77.2279 375.02 77.2639 376.532H73.1479C73.1959 375.02 74.0839 374.192 75.2839 374.192Z" fill="#CACACA"/>
<path d="M243.403 381.176V380.108C244.903 379.952 245.947 379.136 245.947 377.756C245.947 376.124 244.759 375.656 243.451 375.296L242.527 375.032C241.639 374.792 241.051 374.6 241.051 374C241.051 373.496 241.519 373.196 242.347 373.196C243.427 373.196 244.651 373.676 245.383 374.144V372.392C244.999 372.152 244.339 371.84 243.403 371.708V370.604H241.903V371.66C240.451 371.816 239.311 372.668 239.311 374.12C239.311 375.716 240.499 376.232 241.795 376.556L242.887 376.844C243.751 377.084 244.267 377.276 244.267 377.828C244.267 378.32 243.919 378.632 242.911 378.632C241.783 378.632 240.391 378.14 239.599 377.576V379.268C240.067 379.592 240.883 379.94 241.903 380.084V381.176H243.403ZM247.054 371.744L246.538 373.172H248.086V380H249.682V371.744H247.054ZM257.656 377.156C257.656 375.524 256.54 374.444 254.908 374.444C254.092 374.444 253.444 374.72 253 375.044C253.816 373.616 255.448 372.356 256.396 371.744H254.128C252.892 372.524 251.02 374.372 251.02 376.712C251.02 378.812 252.28 380.12 254.344 380.12C256.336 380.12 257.656 378.908 257.656 377.156ZM252.664 376.76C252.664 376.616 252.676 376.472 252.7 376.34C253.18 376.016 253.828 375.764 254.512 375.764C255.412 375.764 256.024 376.244 256.024 377.192C256.024 378.116 255.352 378.668 254.404 378.668C253.396 378.668 252.664 378.02 252.664 376.76ZM260.25 378.248H258.63L257.934 381.38H259.218L260.25 378.248ZM260.874 377.672V379.28C261.462 379.688 262.482 380.12 263.802 380.12C266.01 380.12 267.174 378.932 267.174 377.528C267.174 376.04 266.034 375.176 264.462 375.176H263.958L266.79 373.244V371.744H261.066V373.196H264.618L262.062 375.32V376.34H263.934C264.93 376.34 265.542 376.688 265.542 377.432C265.542 378.164 264.906 378.668 263.61 378.668C262.458 378.668 261.378 378.104 260.874 377.672ZM271.781 380.12C273.677 380.12 275.249 378.812 275.249 375.872C275.249 372.944 273.677 371.624 271.781 371.624C269.885 371.624 268.325 372.944 268.325 375.872C268.325 378.812 269.885 380.12 271.781 380.12ZM271.781 378.584C270.689 378.584 270.005 377.672 270.005 375.872C270.005 374.072 270.689 373.172 271.781 373.172C272.885 373.172 273.569 374.072 273.569 375.872C273.569 377.672 272.885 378.584 271.781 378.584ZM282.497 380V378.548H278.489L280.697 376.544C281.573 375.764 282.377 375.056 282.377 373.88C282.377 372.536 281.345 371.624 279.737 371.624C278.381 371.624 277.241 372.272 276.737 372.668V374.336C277.397 373.772 278.501 373.1 279.593 373.1C280.301 373.1 280.721 373.424 280.721 373.964C280.721 374.504 280.337 374.936 279.593 375.668L276.413 378.788V380H282.497Z" fill="#E0E0E2"/>
<path d="M38.002 444H282.502" stroke="#E7E7E7" strokeWidth="3" stroke-dasharray="4 4"/>
<rect x="38.002" y="442" width="245" height="4" rx="2" fill="#FFD485"/>
<path d="M36.11 423.488H39.002V431H39.794V423.488H42.686V422.744H36.11V423.488ZM47.6348 426.992V427.76C47.3228 427.652 46.7948 427.544 46.1468 427.544C44.4068 427.544 43.3988 428.384 43.3988 429.476C43.3988 430.46 44.0708 431.12 45.3668 431.12C46.3628 431.12 47.1668 430.604 47.6828 430.04V431H48.3908V427.004C48.3908 425.192 47.2268 424.52 45.9428 424.52C44.7908 424.52 43.8548 425.084 43.4468 425.528V426.344C43.9748 425.78 44.8148 425.264 45.8708 425.264C46.7948 425.264 47.6348 425.732 47.6348 426.992ZM44.1308 429.44C44.1308 428.672 44.8508 428.096 46.3628 428.096C46.8188 428.096 47.3228 428.192 47.6348 428.288V429.536C47.0708 430.052 46.3148 430.496 45.4628 430.496C44.7188 430.496 44.1308 430.196 44.1308 429.44ZM54.235 431H55.135L52.819 427.736L55.111 424.64H54.211L52.291 427.304L50.359 424.64H49.459L51.751 427.76L49.435 431H50.335L52.279 428.168L54.235 431ZM59.2664 422.744V431H60.0584V427.46H61.5464L64.5824 431H65.5784L62.4584 427.46H62.7224C64.3904 427.46 65.4824 426.668 65.4824 425.168C65.4824 423.5 64.3544 422.744 62.5784 422.744H59.2664ZM62.5544 423.488C63.8624 423.488 64.6664 423.98 64.6664 425.168C64.6664 426.284 63.8504 426.812 62.5544 426.812H60.0584V423.488H62.5544ZM72.262 430.616V429.908C71.818 430.196 70.894 430.388 70.09 430.388C68.686 430.388 67.642 429.656 67.558 428.096H72.43V427.724C72.43 425.66 71.446 424.508 69.718 424.508C68.014 424.508 66.778 425.708 66.778 427.82C66.778 430.004 68.158 431.12 70.03 431.12C70.834 431.12 71.782 430.94 72.262 430.616ZM69.694 425.192C70.954 425.192 71.638 426.02 71.674 427.532H67.558C67.606 426.02 68.494 425.192 69.694 425.192ZM77.5558 430.724V430.028C77.2558 430.232 76.7998 430.412 76.2718 430.412C75.5518 430.412 75.1318 430.076 75.1318 429.26V425.324H77.4958V424.64H75.1318V423.44H74.9398L73.3798 425.12V425.324H74.3638V429.32C74.3638 430.772 75.2398 431.12 76.1278 431.12C76.7878 431.12 77.2678 430.916 77.5558 430.724ZM81.3385 430.388C80.3425 430.388 79.6345 429.824 79.6345 428.588V424.64H78.8665V428.72C78.8665 430.352 79.7785 431.12 81.1105 431.12C82.1905 431.12 83.0065 430.616 83.5585 430.172V431H84.2785V424.64H83.5105V429.632C83.0305 429.956 82.2025 430.388 81.3385 430.388ZM86.1687 424.64V431H86.9367V426.152C87.3927 425.744 88.1847 425.252 88.8687 425.252C89.3007 425.252 89.6367 425.372 89.9007 425.552V424.748C89.6487 424.604 89.3727 424.52 89.0607 424.52C88.1847 424.52 87.4047 425.108 86.8887 425.624V424.64H86.1687ZM91.0906 424.64V431H91.8586V425.996C92.3506 425.684 93.1666 425.252 94.0306 425.252C95.0266 425.252 95.7346 425.816 95.7346 427.052V431H96.4906V426.92C96.4906 425.288 95.5786 424.52 94.2586 424.52C93.1666 424.52 92.3626 425.024 91.8106 425.468V424.64H91.0906Z" fill="#CACACA"/>
<path d="M243.321 432.176V431.108C244.821 430.952 245.865 430.136 245.865 428.756C245.865 427.124 244.677 426.656 243.369 426.296L242.445 426.032C241.557 425.792 240.969 425.6 240.969 425C240.969 424.496 241.437 424.196 242.265 424.196C243.345 424.196 244.569 424.676 245.301 425.144V423.392C244.917 423.152 244.257 422.84 243.321 422.708V421.604H241.821V422.66C240.369 422.816 239.229 423.668 239.229 425.12C239.229 426.716 240.417 427.232 241.713 427.556L242.805 427.844C243.669 428.084 244.185 428.276 244.185 428.828C244.185 429.32 243.837 429.632 242.829 429.632C241.701 429.632 240.309 429.14 239.517 428.576V430.268C239.985 430.592 240.801 430.94 241.821 431.084V432.176H243.321ZM246.972 422.744L246.456 424.172H248.004V431H249.6V422.744H246.972ZM257.538 426.032C257.538 423.932 256.29 422.624 254.226 422.624C252.222 422.624 250.914 423.836 250.914 425.588C250.914 427.22 252.03 428.3 253.662 428.3C254.478 428.3 255.114 428.036 255.558 427.7C254.742 429.116 253.122 430.388 252.174 431H254.43C255.678 430.22 257.538 428.372 257.538 426.032ZM252.534 425.552C252.534 424.628 253.218 424.076 254.154 424.076C255.174 424.076 255.906 424.724 255.906 425.984C255.906 426.128 255.894 426.26 255.87 426.404C255.402 426.728 254.742 426.98 254.046 426.98C253.146 426.98 252.534 426.5 252.534 425.552ZM260.25 429.248H258.63L257.934 432.38H259.218L260.25 429.248ZM264.75 431.12C266.646 431.12 268.218 429.812 268.218 426.872C268.218 423.944 266.646 422.624 264.75 422.624C262.854 422.624 261.294 423.944 261.294 426.872C261.294 429.812 262.854 431.12 264.75 431.12ZM264.75 429.584C263.658 429.584 262.974 428.672 262.974 426.872C262.974 425.072 263.658 424.172 264.75 424.172C265.854 424.172 266.538 425.072 266.538 426.872C266.538 428.672 265.854 429.584 264.75 429.584ZM269.358 428.672V430.28C269.946 430.688 270.966 431.12 272.286 431.12C274.494 431.12 275.658 429.932 275.658 428.528C275.658 427.04 274.518 426.176 272.946 426.176H272.442L275.274 424.244V422.744H269.55V424.196H273.102L270.546 426.32V427.34H272.418C273.414 427.34 274.026 427.688 274.026 428.432C274.026 429.164 273.39 429.668 272.094 429.668C270.942 429.668 269.862 429.104 269.358 428.672ZM282.497 431V429.548H278.489L280.697 427.544C281.573 426.764 282.377 426.056 282.377 424.88C282.377 423.536 281.345 422.624 279.737 422.624C278.381 422.624 277.241 423.272 276.737 423.668V425.336C277.397 424.772 278.501 424.1 279.593 424.1C280.301 424.1 280.721 424.424 280.721 424.964C280.721 425.504 280.337 425.936 279.593 426.668L276.413 429.788V431H282.497Z" fill="#E0E0E2"/>
<path d="M38.002 495H282.502" stroke="#E7E7E7" strokeWidth="3" stroke-dasharray="4 4"/>
<rect x="38.002" y="493" width="245" height="4" rx="2" fill="#9EECF2"/>
<path d="M37.118 473.744V482H37.91V478.46H39.398L42.434 482H43.43L40.31 478.46H40.574C42.242 478.46 43.334 477.668 43.334 476.168C43.334 474.5 42.206 473.744 40.43 473.744H37.118ZM40.406 474.488C41.714 474.488 42.518 474.98 42.518 476.168C42.518 477.284 41.702 477.812 40.406 477.812H37.91V474.488H40.406ZM50.1136 481.616V480.908C49.6696 481.196 48.7456 481.388 47.9416 481.388C46.5376 481.388 45.4936 480.656 45.4096 479.096H50.2816V478.724C50.2816 476.66 49.2976 475.508 47.5696 475.508C45.8656 475.508 44.6296 476.708 44.6296 478.82C44.6296 481.004 46.0096 482.12 47.8816 482.12C48.6856 482.12 49.6336 481.94 50.1136 481.616ZM47.5456 476.192C48.8056 476.192 49.4896 477.02 49.5256 478.532H45.4096C45.4576 477.02 46.3456 476.192 47.5456 476.192ZM51.3154 476.324H52.2634V482H53.0314V476.324H54.8194V475.64H53.0314V475.496C53.0314 474.728 53.4634 474.248 54.2074 474.248C54.7114 474.248 55.1674 474.44 55.4554 474.656V473.984C55.2514 473.828 54.7714 473.588 54.1354 473.588C53.1754 473.588 52.2634 474.14 52.2634 475.52V475.64H51.3154V476.324ZM58.6041 481.388C57.6081 481.388 56.9001 480.824 56.9001 479.588V475.64H56.1321V479.72C56.1321 481.352 57.0441 482.12 58.3761 482.12C59.4561 482.12 60.2721 481.616 60.8241 481.172V482H61.5441V475.64H60.7761V480.632C60.2961 480.956 59.4681 481.388 58.6041 481.388ZM63.4343 475.64V482H64.2023V476.996C64.6943 476.684 65.5103 476.252 66.3743 476.252C67.3703 476.252 68.0783 476.816 68.0783 478.052V482H68.8343V477.92C68.8343 476.288 67.9223 475.52 66.6023 475.52C65.5103 475.52 64.7063 476.024 64.1543 476.468V475.64H63.4343ZM75.2605 482H75.9685V473.588L75.2005 473.744V475.76C74.7805 475.628 74.3245 475.52 73.6885 475.52C71.8285 475.52 70.3405 476.708 70.3405 478.988C70.3405 481.028 71.5525 482.12 73.1365 482.12C74.0965 482.12 74.8525 481.688 75.2605 481.328V482ZM73.7125 476.216C74.3605 476.216 74.8045 476.348 75.2005 476.492V480.728C74.8165 481.04 74.1325 481.424 73.2925 481.424C71.9725 481.424 71.1325 480.5 71.1325 478.952C71.1325 477.152 72.2005 476.216 73.7125 476.216Z" fill="#CACACA"/>
<path d="M247.715 483.176V482.108C249.215 481.952 250.259 481.136 250.259 479.756C250.259 478.124 249.071 477.656 247.763 477.296L246.839 477.032C245.951 476.792 245.363 476.6 245.363 476C245.363 475.496 245.831 475.196 246.659 475.196C247.739 475.196 248.963 475.676 249.695 476.144V474.392C249.311 474.152 248.651 473.84 247.715 473.708V472.604H246.215V473.66C244.763 473.816 243.623 474.668 243.623 476.12C243.623 477.716 244.811 478.232 246.107 478.556L247.199 478.844C248.063 479.084 248.579 479.276 248.579 479.828C248.579 480.32 248.231 480.632 247.223 480.632C246.095 480.632 244.703 480.14 243.911 479.576V481.268C244.379 481.592 245.195 481.94 246.215 482.084V483.176H247.715ZM254.534 482.108C256.67 482.108 257.918 481.016 257.918 479.6C257.918 478.7 257.426 477.956 256.466 477.512C257.162 477.14 257.498 476.516 257.498 475.892C257.498 474.62 256.394 473.612 254.534 473.612C252.71 473.612 251.582 474.608 251.582 475.868C251.582 476.492 251.906 477.14 252.638 477.512C251.654 477.968 251.174 478.724 251.174 479.636C251.174 481.028 252.422 482.108 254.534 482.108ZM253.142 475.964C253.142 475.292 253.754 474.968 254.534 474.968C255.326 474.968 255.95 475.328 255.95 475.988C255.95 476.684 255.326 477.044 254.546 477.044C253.754 477.044 253.142 476.66 253.142 475.964ZM252.77 479.48C252.77 478.568 253.598 478.112 254.546 478.112C255.482 478.112 256.322 478.532 256.322 479.444C256.322 480.344 255.47 480.764 254.534 480.764C253.61 480.764 252.77 480.356 252.77 479.48ZM260.683 480.248H259.063L258.367 483.38H259.651L260.683 480.248ZM267.415 482V480.548H263.407L265.615 478.544C266.491 477.764 267.295 477.056 267.295 475.88C267.295 474.536 266.263 473.624 264.655 473.624C263.299 473.624 262.159 474.272 261.655 474.668V476.336C262.315 475.772 263.419 475.1 264.511 475.1C265.219 475.1 265.639 475.424 265.639 475.964C265.639 476.504 265.255 476.936 264.511 477.668L261.331 480.788V482H267.415ZM270.68 482L274.28 475.064V473.744H268.16V475.196H272.552L268.868 482H270.68ZM278.754 482.12C280.65 482.12 282.222 480.812 282.222 477.872C282.222 474.944 280.65 473.624 278.754 473.624C276.858 473.624 275.298 474.944 275.298 477.872C275.298 480.812 276.858 482.12 278.754 482.12ZM278.754 480.584C277.662 480.584 276.978 479.672 276.978 477.872C276.978 476.072 277.662 475.172 278.754 475.172C279.858 475.172 280.542 476.072 280.542 477.872C280.542 479.672 279.858 480.584 278.754 480.584Z" fill="#E0E0E2"/>
</g>
<defs>
<linearGradient id="paint0_linear_88_135500" x1="159.502" y1="0" x2="159.502" y2="521" gradientUnits="userSpaceOnUse">
<stop stop-color="#4A4A4A"/>
<stop offset="1" stop-opacity="0"/>
</linearGradient>
<clipPath id="clip0_88_135500">
<rect width="319" height="521" fill="white" transform="translate(0.00195312)"/>
</clipPath>
<clipPath id="clip1_88_135500">
<rect width="16" height="16" fill="white" transform="matrix(-1 0 0 1 52.002 36)"/>
</clipPath>
</defs>
</svg>
