<svg width="475" height="567" viewBox="0 0 475 567" fill="none" xmlns="http://www.w3.org/2000/svg">
<g id="Group 127">
<g id="Group 11291">
<g id="Ellipse 55" opacity="0.45" filter="url(#filter0_f_612_6300)">
<ellipse cx="237.5" cy="447" rx="113.5" ry="24" fill="#999FA2" fill-opacity="0.54"/>
</g>
<ellipse id="Ellipse 57" cx="218.5" cy="460.5" rx="159.5" ry="3.5" fill="url(#paint0_linear_612_6300)"/>
</g>
<rect id="Rectangle 366" x="31.4999" y="0.499817" width="374" height="460" rx="7.5" fill="white" fill-opacity="0.1" stroke="url(#paint1_linear_612_6300)"/>
<g id="Group 114">
<g id="Group 104">
<g id="Rectangle 340" opacity="0.11">
<rect x="45.9997" y="345" width="345" height="92" rx="12" fill="#FFFAFA"/>
<rect x="46.4997" y="345.5" width="344" height="91" rx="11.5" stroke="#FFB6B6" stroke-opacity="0.08"/>
</g>
<g id="Mask group">
<mask id="mask0_612_6300" style="mask-type:alpha" maskUnits="userSpaceOnUse" x="45" y="344" width="346" height="93">
<rect id="Rectangle 350" x="46.4998" y="345.5" width="344" height="91" rx="7.5" fill="#181351" stroke="url(#paint2_linear_612_6300)"/>
</mask>
<g mask="url(#mask0_612_6300)">
<rect id="Rectangle 376" x="289" y="358" width="1" height="66" fill="#36353D"/>
<g id="Group 132">
<path id="$ 1,800" d="M310.471 384.14V383.12C311.947 383.012 313.003 382.244 313.003 380.876C313.003 379.364 311.959 378.908 310.591 378.488L309.667 378.212C308.707 377.912 308.011 377.672 308.011 376.88C308.011 376.22 308.575 375.764 309.643 375.764C310.747 375.764 311.863 376.232 312.523 376.688V375.404C312.127 375.116 311.419 374.792 310.471 374.672V373.628H309.391V374.636C307.927 374.72 306.763 375.536 306.763 376.964C306.763 378.452 307.891 378.956 309.091 379.292L310.195 379.616C311.227 379.94 311.791 380.192 311.791 380.936C311.791 381.596 311.323 382.04 310.135 382.04C308.983 382.04 307.711 381.56 306.943 381.02V382.244C307.471 382.616 308.347 382.976 309.391 383.096V384.14H310.471ZM316.883 374.744L316.475 375.788H317.987V383H319.139V374.744H316.883ZM321.948 381.632H320.736L320.052 384.416H320.976L321.948 381.632ZM326.014 383.12C328.078 383.12 329.254 382.028 329.254 380.66C329.254 379.724 328.714 378.932 327.67 378.524C328.45 378.176 328.858 377.528 328.858 376.82C328.858 375.572 327.79 374.624 326.014 374.624C324.262 374.624 323.194 375.56 323.194 376.796C323.194 377.504 323.59 378.164 324.382 378.524C323.326 378.932 322.786 379.736 322.786 380.684C322.786 382.04 323.962 383.12 326.014 383.12ZM324.322 376.856C324.322 376.076 325.018 375.608 326.014 375.608C327.022 375.608 327.718 376.088 327.718 376.88C327.718 377.672 327.01 378.164 326.014 378.164C325.018 378.164 324.322 377.66 324.322 376.856ZM323.95 380.576C323.95 379.592 324.802 378.968 326.014 378.968C327.226 378.968 328.09 379.568 328.09 380.564C328.09 381.536 327.226 382.124 326.014 382.124C324.814 382.124 323.95 381.536 323.95 380.576ZM334.004 383.12C335.84 383.12 337.376 381.812 337.376 378.872C337.376 375.944 335.84 374.624 334.004 374.624C332.18 374.624 330.644 375.944 330.644 378.872C330.644 381.812 332.18 383.12 334.004 383.12ZM334.004 382.004C332.744 382.004 331.856 380.972 331.856 378.872C331.856 376.784 332.744 375.74 334.004 375.74C335.264 375.74 336.164 376.784 336.164 378.872C336.164 380.972 335.264 382.004 334.004 382.004ZM342.419 383.12C344.255 383.12 345.791 381.812 345.791 378.872C345.791 375.944 344.255 374.624 342.419 374.624C340.595 374.624 339.059 375.944 339.059 378.872C339.059 381.812 340.595 383.12 342.419 383.12ZM342.419 382.004C341.159 382.004 340.271 380.972 340.271 378.872C340.271 376.784 341.159 375.74 342.419 375.74C343.679 375.74 344.579 376.784 344.579 378.872C344.579 380.972 343.679 382.004 342.419 382.004Z" fill="white"/>
<path id="Expense" d="M306.931 360.496V366H310.731V365.504H307.459V363.456H310.331V362.96H307.459V360.992H310.731V360.496H306.931ZM314.421 366H315.021L313.477 363.824L315.005 361.76H314.405L313.125 363.536L311.837 361.76H311.237L312.765 363.84L311.221 366H311.821L313.117 364.112L314.421 366ZM317.292 366.08C318.532 366.08 319.524 365.28 319.524 363.768C319.524 362.408 318.716 361.68 317.668 361.68C317.02 361.68 316.532 361.96 316.252 362.208V361.76H315.772V367.264H316.284V365.92C316.564 366.008 316.868 366.08 317.292 366.08ZM317.556 362.144C318.436 362.144 318.996 362.76 318.996 363.792C318.996 364.992 318.284 365.616 317.276 365.616C316.852 365.616 316.556 365.528 316.284 365.432V362.616C316.548 362.4 316.988 362.144 317.556 362.144ZM323.993 365.744V365.272C323.697 365.464 323.081 365.592 322.545 365.592C321.609 365.592 320.913 365.104 320.857 364.064H324.105V363.816C324.105 362.44 323.449 361.672 322.297 361.672C321.161 361.672 320.337 362.472 320.337 363.88C320.337 365.336 321.257 366.08 322.505 366.08C323.041 366.08 323.673 365.96 323.993 365.744ZM322.281 362.128C323.121 362.128 323.577 362.68 323.601 363.688H320.857C320.889 362.68 321.481 362.128 322.281 362.128ZM325.179 361.76V366H325.691V362.664C326.019 362.456 326.563 362.168 327.139 362.168C327.803 362.168 328.275 362.544 328.275 363.368V366H328.779V363.28C328.779 362.192 328.171 361.68 327.291 361.68C326.563 361.68 326.027 362.016 325.659 362.312V361.76H325.179ZM331.799 363.816L331.199 363.632C330.631 363.456 330.231 363.288 330.231 362.816C330.231 362.36 330.687 362.128 331.199 362.128C331.783 362.128 332.383 362.368 332.695 362.6V362.064C332.383 361.864 331.815 361.672 331.215 361.672C330.295 361.672 329.735 362.184 329.735 362.832C329.735 363.544 330.247 363.84 330.839 364.008L331.487 364.2C332.047 364.368 332.399 364.52 332.399 364.984C332.399 365.488 332.023 365.664 331.439 365.664C330.775 365.664 330.103 365.392 329.727 365.144V365.672C330.071 365.88 330.727 366.12 331.431 366.12C332.343 366.12 332.887 365.72 332.887 364.968C332.887 364.312 332.415 364 331.799 363.816ZM337.259 365.744V365.272C336.963 365.464 336.347 365.592 335.811 365.592C334.875 365.592 334.179 365.104 334.123 364.064H337.371V363.816C337.371 362.44 336.715 361.672 335.563 361.672C334.427 361.672 333.603 362.472 333.603 363.88C333.603 365.336 334.523 366.08 335.771 366.08C336.307 366.08 336.939 365.96 337.259 365.744ZM335.547 362.128C336.387 362.128 336.843 362.68 336.867 363.688H334.123C334.155 362.68 334.747 362.128 335.547 362.128Z" fill="#CACACA"/>
</g>
<g id="Group 131">
<path id="$ 500" d="M310.199 424.14V423.12C311.675 423.012 312.731 422.244 312.731 420.876C312.731 419.364 311.687 418.908 310.319 418.488L309.395 418.212C308.435 417.912 307.739 417.672 307.739 416.88C307.739 416.22 308.303 415.764 309.371 415.764C310.475 415.764 311.591 416.232 312.251 416.688V415.404C311.855 415.116 311.147 414.792 310.199 414.672V413.628H309.119V414.636C307.655 414.72 306.491 415.536 306.491 416.964C306.491 418.452 307.619 418.956 308.819 419.292L309.923 419.616C310.955 419.94 311.519 420.192 311.519 420.936C311.519 421.596 311.051 422.04 309.863 422.04C308.711 422.04 307.439 421.56 306.671 421.02V422.244C307.199 422.616 308.075 422.976 309.119 423.096V424.14H310.199ZM317.319 414.744L316.875 418.992H319.251C320.475 418.992 321.447 419.388 321.447 420.564C321.447 421.632 320.571 422.064 319.515 422.064C318.303 422.064 317.175 421.488 316.587 421.008V422.196C317.115 422.58 318.183 423.12 319.587 423.12C321.267 423.12 322.635 422.268 322.635 420.564C322.635 418.728 321.303 417.936 319.551 417.936H318.087L318.339 415.8H322.143V414.744H317.319ZM327.276 423.12C329.112 423.12 330.648 421.812 330.648 418.872C330.648 415.944 329.112 414.624 327.276 414.624C325.452 414.624 323.916 415.944 323.916 418.872C323.916 421.812 325.452 423.12 327.276 423.12ZM327.276 422.004C326.016 422.004 325.128 420.972 325.128 418.872C325.128 416.784 326.016 415.74 327.276 415.74C328.536 415.74 329.436 416.784 329.436 418.872C329.436 420.972 328.536 422.004 327.276 422.004ZM335.69 423.12C337.526 423.12 339.062 421.812 339.062 418.872C339.062 415.944 337.526 414.624 335.69 414.624C333.866 414.624 332.33 415.944 332.33 418.872C332.33 421.812 333.866 423.12 335.69 423.12ZM335.69 422.004C334.43 422.004 333.542 420.972 333.542 418.872C333.542 416.784 334.43 415.74 335.69 415.74C336.95 415.74 337.85 416.784 337.85 418.872C337.85 420.972 336.95 422.004 335.69 422.004Z" fill="white"/>
<path id="Total Budget" d="M306.306 400.992H308.234V406H308.762V400.992H310.69V400.496H306.306V400.992ZM313.341 406.08C314.597 406.08 315.509 405.128 315.509 403.88C315.509 402.624 314.597 401.68 313.341 401.68C312.085 401.68 311.173 402.624 311.173 403.88C311.173 405.128 312.085 406.08 313.341 406.08ZM313.341 405.6C312.381 405.6 311.685 404.856 311.685 403.88C311.685 402.896 312.381 402.16 313.341 402.16C314.309 402.16 314.997 402.896 314.997 403.88C314.997 404.856 314.309 405.6 313.341 405.6ZM318.89 405.816V405.352C318.69 405.488 318.386 405.608 318.034 405.608C317.554 405.608 317.274 405.384 317.274 404.84V402.216H318.85V401.76H317.274V400.96H317.146L316.106 402.08V402.216H316.762V404.88C316.762 405.848 317.346 406.08 317.938 406.08C318.378 406.08 318.698 405.944 318.89 405.816ZM322.396 403.328V403.84C322.188 403.768 321.836 403.696 321.404 403.696C320.244 403.696 319.572 404.256 319.572 404.984C319.572 405.64 320.02 406.08 320.884 406.08C321.548 406.08 322.084 405.736 322.428 405.36V406H322.9V403.336C322.9 402.128 322.124 401.68 321.268 401.68C320.5 401.68 319.876 402.056 319.604 402.352V402.896C319.956 402.52 320.516 402.176 321.22 402.176C321.836 402.176 322.396 402.488 322.396 403.328ZM320.06 404.96C320.06 404.448 320.54 404.064 321.548 404.064C321.852 404.064 322.188 404.128 322.396 404.192V405.024C322.02 405.368 321.516 405.664 320.948 405.664C320.452 405.664 320.06 405.464 320.06 404.96ZM324.132 400.496V406H324.644V400.392L324.132 400.496ZM327.908 406H330.22C331.348 406 332.124 405.536 332.124 404.512C332.124 403.712 331.62 403.2 330.7 403.08C331.3 402.96 331.772 402.528 331.772 401.848C331.772 400.864 331.036 400.496 330.068 400.496H327.908V406ZM330.028 400.992C330.716 400.992 331.212 401.224 331.212 401.928C331.212 402.576 330.684 402.888 329.972 402.888H328.436V400.992H330.028ZM330.116 403.344C330.94 403.344 331.556 403.664 331.556 404.424C331.556 405.216 330.956 405.504 330.18 405.504H328.436V403.344H330.116ZM334.748 405.592C334.084 405.592 333.612 405.216 333.612 404.392V401.76H333.1V404.48C333.1 405.568 333.708 406.08 334.596 406.08C335.316 406.08 335.86 405.744 336.228 405.448V406H336.708V401.76H336.196V405.088C335.876 405.304 335.324 405.592 334.748 405.592ZM341.024 406H341.496V400.392L340.984 400.496V401.84C340.704 401.752 340.4 401.68 339.976 401.68C338.736 401.68 337.744 402.472 337.744 403.992C337.744 405.352 338.552 406.08 339.608 406.08C340.248 406.08 340.752 405.792 341.024 405.552V406ZM339.992 402.144C340.424 402.144 340.72 402.232 340.984 402.328V405.152C340.728 405.36 340.272 405.616 339.712 405.616C338.832 405.616 338.272 405 338.272 403.968C338.272 402.768 338.984 402.144 339.992 402.144ZM346.269 405.456V402.024C345.885 401.864 345.397 401.68 344.741 401.68C343.501 401.68 342.533 402.456 342.533 403.896C342.533 405.088 343.277 405.76 344.365 405.76C344.981 405.76 345.485 405.488 345.757 405.256V405.504C345.757 406.4 345.197 406.864 344.317 406.864C343.645 406.864 343.117 406.608 342.733 406.36V406.896C343.085 407.104 343.661 407.344 344.357 407.344C345.421 407.344 346.269 406.776 346.269 405.456ZM343.061 403.848C343.061 402.76 343.741 402.144 344.733 402.144C345.173 402.144 345.485 402.24 345.757 402.344V404.824C345.485 405.04 345.029 405.296 344.461 405.296C343.621 405.296 343.061 404.792 343.061 403.848ZM350.954 405.744V405.272C350.658 405.464 350.042 405.592 349.506 405.592C348.57 405.592 347.874 405.104 347.818 404.064H351.066V403.816C351.066 402.44 350.41 401.672 349.258 401.672C348.122 401.672 347.298 402.472 347.298 403.88C347.298 405.336 348.218 406.08 349.466 406.08C350.002 406.08 350.634 405.96 350.954 405.744ZM349.242 402.128C350.082 402.128 350.538 402.68 350.562 403.688H347.818C347.85 402.68 348.442 402.128 349.242 402.128ZM354.484 405.816V405.352C354.284 405.488 353.98 405.608 353.628 405.608C353.148 405.608 352.868 405.384 352.868 404.84V402.216H354.444V401.76H352.868V400.96H352.74L351.7 402.08V402.216H352.356V404.88C352.356 405.848 352.94 406.08 353.532 406.08C353.972 406.08 354.292 405.944 354.484 405.816Z" fill="#CACACA"/>
</g>
</g>
</g>
</g>
</g>
<g id="Group 130">
<g id="$ -2,300">
<path d="M73.9549 416.568V415.144C75.9549 414.936 77.3469 413.848 77.3469 412.008C77.3469 409.832 75.7629 409.208 74.0189 408.728L72.7869 408.376C71.6029 408.056 70.8189 407.8 70.8189 407C70.8189 406.328 71.4429 405.928 72.5469 405.928C73.9869 405.928 75.6189 406.568 76.5949 407.192V404.856C76.0829 404.536 75.2029 404.12 73.9549 403.944V402.472H71.9549V403.88C70.0189 404.088 68.4989 405.224 68.4989 407.16C68.4989 409.288 70.0829 409.976 71.8109 410.408L73.2669 410.792C74.4189 411.112 75.1069 411.368 75.1069 412.104C75.1069 412.76 74.6429 413.176 73.2989 413.176C71.7949 413.176 69.9389 412.52 68.8829 411.768V414.024C69.5069 414.456 70.5949 414.92 71.9549 415.112V416.568H73.9549ZM82.9213 395.736L81.7173 399.068H85.3293V415H89.0533V395.736H82.9213ZM96.349 410.912H92.569L90.945 418.22H93.941L96.349 410.912ZM97.8046 409.568V413.32C99.1766 414.272 101.557 415.28 104.637 415.28C109.789 415.28 112.505 412.508 112.505 409.232C112.505 405.76 109.845 403.744 106.177 403.744H105.001L111.609 399.236V395.736H98.2526V399.124H106.541L100.577 404.08V406.46H104.945C107.269 406.46 108.697 407.272 108.697 409.008C108.697 410.716 107.213 411.892 104.189 411.892C101.501 411.892 98.9806 410.576 97.8046 409.568ZM123.255 415.28C127.679 415.28 131.347 412.228 131.347 405.368C131.347 398.536 127.679 395.456 123.255 395.456C118.831 395.456 115.191 398.536 115.191 405.368C115.191 412.228 118.831 415.28 123.255 415.28ZM123.255 411.696C120.707 411.696 119.111 409.568 119.111 405.368C119.111 401.168 120.707 399.068 123.255 399.068C125.831 399.068 127.427 401.168 127.427 405.368C127.427 409.568 125.831 411.696 123.255 411.696ZM143.052 415.28C147.476 415.28 151.144 412.228 151.144 405.368C151.144 398.536 147.476 395.456 143.052 395.456C138.628 395.456 134.988 398.536 134.988 405.368C134.988 412.228 138.628 415.28 143.052 415.28ZM143.052 411.696C140.504 411.696 138.908 409.568 138.908 405.368C138.908 401.168 140.504 399.068 143.052 399.068C145.628 399.068 147.224 401.168 147.224 405.368C147.224 409.568 145.628 411.696 143.052 411.696Z" fill="white"/>
</g>
<g id="Group 129">
<g id="Frame 27">
<g id="ic:baseline-auto-graph">
<rect x="61.9998" y="367" width="12" height="12" rx="6" fill="#EA8C8C"/>
<path id="Vector" d="M64.1424 376.01L66.7125 373.459L68.4259 375.157L72.067 371.098L71.463 370.5L68.4259 373.883L66.7125 372.185L63.4998 375.373L64.1424 376.01Z" fill="#131227"/>
</g>
<path id="Over Spent" d="M84.3357 377.1C86.3057 377.1 87.8057 375.64 87.8057 373.57C87.8057 371.48 86.3057 370.02 84.3357 370.02C82.3457 370.02 80.8457 371.48 80.8457 373.57C80.8457 375.64 82.3457 377.1 84.3357 377.1ZM84.3357 376.44C82.7457 376.44 81.5357 375.26 81.5357 373.57C81.5357 371.86 82.7357 370.68 84.3357 370.68C85.9157 370.68 87.1157 371.86 87.1157 373.57C87.1157 375.26 85.9157 376.44 84.3357 376.44ZM90.6821 377H91.4221L93.6521 371.7H92.9621L91.0621 376.41L89.1421 371.7H88.4521L90.6821 377ZM98.8132 376.68V376.09C98.4432 376.33 97.6732 376.49 97.0032 376.49C95.8332 376.49 94.9632 375.88 94.8932 374.58H98.9532V374.27C98.9532 372.55 98.1332 371.59 96.6932 371.59C95.2732 371.59 94.2432 372.59 94.2432 374.35C94.2432 376.17 95.3932 377.1 96.9532 377.1C97.6232 377.1 98.4132 376.95 98.8132 376.68ZM96.6732 372.16C97.7232 372.16 98.2932 372.85 98.3232 374.11H94.8932C94.9332 372.85 95.6732 372.16 96.6732 372.16ZM100.295 371.7V377H100.935V372.96C101.315 372.62 101.975 372.21 102.545 372.21C102.905 372.21 103.185 372.31 103.405 372.46V371.79C103.195 371.67 102.965 371.6 102.705 371.6C101.975 371.6 101.325 372.09 100.895 372.52V371.7H100.295ZM110.7 375.35C110.7 376.02 110.21 376.48 109.11 376.48C108.13 376.48 107.14 376.08 106.52 375.66V376.36C107.1 376.74 108.05 377.1 109.11 377.1C110.42 377.1 111.38 376.49 111.38 375.32C111.38 374.13 110.61 373.76 109.41 373.37L108.67 373.13C107.81 372.85 107.16 372.59 107.16 371.8C107.16 371.14 107.7 370.65 108.75 370.65C109.69 370.65 110.55 371.04 111.04 371.4V370.66C110.63 370.36 109.82 370.01 108.76 370.01C107.5 370.01 106.46 370.65 106.46 371.85C106.46 373.01 107.37 373.4 108.28 373.69L109.21 373.99C110.18 374.31 110.7 374.59 110.7 375.35ZM114.529 377.1C116.079 377.1 117.319 376.1 117.319 374.21C117.319 372.51 116.309 371.6 114.999 371.6C114.189 371.6 113.579 371.95 113.229 372.26V371.7H112.629V378.58H113.269V376.9C113.619 377.01 113.999 377.1 114.529 377.1ZM114.859 372.18C115.959 372.18 116.659 372.95 116.659 374.24C116.659 375.74 115.769 376.52 114.509 376.52C113.979 376.52 113.609 376.41 113.269 376.29V372.77C113.599 372.5 114.149 372.18 114.859 372.18ZM122.905 376.68V376.09C122.535 376.33 121.765 376.49 121.095 376.49C119.925 376.49 119.055 375.88 118.985 374.58H123.045V374.27C123.045 372.55 122.225 371.59 120.785 371.59C119.365 371.59 118.335 372.59 118.335 374.35C118.335 376.17 119.485 377.1 121.045 377.1C121.715 377.1 122.505 376.95 122.905 376.68ZM120.765 372.16C121.815 372.16 122.385 372.85 122.415 374.11H118.985C119.025 372.85 119.765 372.16 120.765 372.16ZM124.386 371.7V377H125.026V372.83C125.436 372.57 126.116 372.21 126.836 372.21C127.666 372.21 128.256 372.68 128.256 373.71V377H128.886V373.6C128.886 372.24 128.126 371.6 127.026 371.6C126.116 371.6 125.446 372.02 124.986 372.39V371.7H124.386ZM133.352 376.77V376.19C133.102 376.36 132.722 376.51 132.282 376.51C131.682 376.51 131.332 376.23 131.332 375.55V372.27H133.302V371.7H131.332V370.7H131.172L129.872 372.1V372.27H130.692V375.6C130.692 376.81 131.422 377.1 132.162 377.1C132.712 377.1 133.112 376.93 133.352 376.77Z" fill="#CACACA"/>
</g>
</g>
</g>
<g id="Group 117">
<g id="Group 126">
<g id="Frame 25">
<g id="Group 125">
<circle id="Ellipse 37" cx="135" cy="311" r="9.5" fill="#08061D" stroke="#A6D8C3"/>
<circle id="Ellipse 38" cx="135" cy="311" r="7" fill="#8CEAA6"/>
</g>
<g id="Group 113">
<path id="Comparing with Budget" d="M159.092 315.654C160.506 315.654 161.486 315.276 162.326 314.772V313.33C161.57 313.862 160.52 314.352 159.148 314.352C157.048 314.352 155.522 312.882 155.522 310.698C155.522 308.514 157.048 307.03 159.148 307.03C160.52 307.03 161.57 307.52 162.326 308.052V306.61C161.486 306.106 160.506 305.728 159.092 305.728C156.222 305.728 154.066 307.786 154.066 310.698C154.066 313.61 156.222 315.654 159.092 315.654ZM167.212 315.64C169.438 315.64 171.062 313.974 171.062 311.79C171.062 309.578 169.438 307.94 167.212 307.94C164.986 307.94 163.362 309.578 163.362 311.79C163.362 313.974 164.986 315.64 167.212 315.64ZM167.212 314.408C165.756 314.408 164.664 313.288 164.664 311.79C164.664 310.264 165.756 309.172 167.212 309.172C168.682 309.172 169.76 310.264 169.76 311.79C169.76 313.302 168.682 314.408 167.212 314.408ZM172.667 308.08V315.5H173.983V309.886C174.487 309.578 175.257 309.2 176.069 309.2C177.063 309.2 177.679 309.802 177.679 310.978V315.5H178.995V310.614C178.995 310.362 178.981 310.11 178.939 309.886C179.471 309.564 180.255 309.2 181.081 309.2C182.089 309.2 182.705 309.802 182.705 310.978V315.5H184.007V310.684C184.007 308.906 183.125 307.94 181.585 307.94C180.297 307.94 179.345 308.57 178.701 309.144C178.323 308.36 177.595 307.94 176.559 307.94C175.397 307.94 174.501 308.5 173.899 309.018V308.08H172.667ZM188.701 315.64C190.829 315.64 192.719 314.324 192.719 311.594C192.719 309.13 191.193 307.94 189.457 307.94C188.421 307.94 187.637 308.332 187.147 308.738V308.08H185.915V317.712H187.231V315.458C187.651 315.57 188.099 315.64 188.701 315.64ZM189.093 309.116C190.451 309.116 191.361 310.04 191.361 311.678C191.361 313.582 190.185 314.464 188.645 314.464C188.057 314.464 187.609 314.352 187.231 314.226V309.732C187.651 309.438 188.295 309.116 189.093 309.116ZM198.706 310.992V311.664C198.37 311.538 197.796 311.398 197.068 311.398C195.164 311.398 193.932 312.35 193.932 313.652C193.932 314.884 194.786 315.64 196.284 315.64C197.39 315.64 198.258 315.094 198.79 314.52V315.5H200.022V310.978C200.022 308.766 198.622 307.94 197.012 307.94C195.64 307.94 194.506 308.584 194.016 309.088V310.446C194.646 309.802 195.682 309.242 196.844 309.242C197.838 309.242 198.706 309.732 198.706 310.992ZM195.164 313.596C195.164 312.826 195.92 312.308 197.39 312.308C197.866 312.308 198.37 312.392 198.706 312.49V313.75C198.132 314.226 197.334 314.618 196.494 314.618C195.752 314.618 195.164 314.324 195.164 313.596ZM201.911 308.08V315.5H203.227V309.984C203.731 309.606 204.501 309.2 205.229 309.2C205.761 309.2 206.195 309.354 206.517 309.55V308.164C206.251 308.024 205.943 307.94 205.621 307.94C204.627 307.94 203.717 308.57 203.143 309.144V308.08H201.911ZM208.436 307.044C209.01 307.044 209.374 306.736 209.374 306.274C209.374 305.798 209.01 305.49 208.436 305.49C207.862 305.49 207.484 305.798 207.484 306.274C207.484 306.736 207.862 307.044 208.436 307.044ZM207.764 308.08V315.5H209.08V308.08H207.764ZM211.085 308.08V315.5H212.401V309.872C212.919 309.564 213.759 309.2 214.627 309.2C215.719 309.2 216.377 309.816 216.377 311.034V315.5H217.693V310.74C217.693 308.92 216.755 307.94 215.117 307.94C213.899 307.94 212.947 308.5 212.317 309.018V308.08H211.085ZM226.001 314.338V308.556C225.315 308.276 224.405 307.94 223.187 307.94C221.059 307.94 219.253 309.228 219.253 311.762C219.253 313.778 220.555 314.968 222.417 314.968C223.425 314.968 224.195 314.562 224.685 314.184V314.506C224.685 315.864 223.887 316.62 222.361 316.62C221.255 316.62 220.331 316.2 219.659 315.738V317.082C220.275 317.46 221.283 317.852 222.487 317.852C224.419 317.852 226.001 316.844 226.001 314.338ZM220.597 311.608C220.597 309.984 221.675 309.116 223.173 309.116C223.803 309.116 224.279 309.242 224.685 309.396V313.134C224.251 313.442 223.551 313.778 222.739 313.778C221.493 313.778 220.597 313.064 220.597 311.608ZM232.614 315.5H234.14L236.086 309.564L238.004 315.5H239.544L241.812 308.08H240.398L238.76 314.254L236.828 308.08H235.33L233.398 314.254L231.774 308.08H230.346L232.614 315.5ZM243.75 307.044C244.324 307.044 244.688 306.736 244.688 306.274C244.688 305.798 244.324 305.49 243.75 305.49C243.176 305.49 242.798 305.798 242.798 306.274C242.798 306.736 243.176 307.044 243.75 307.044ZM243.078 308.08V315.5H244.394V308.08H243.078ZM250.824 315.178V314.044C250.488 314.254 249.942 314.45 249.354 314.45C248.598 314.45 248.15 314.114 248.15 313.26V309.242H250.768V308.08H248.15V306.68H247.842L245.7 308.906V309.242H246.834V313.4C246.834 315.192 247.87 315.64 249.032 315.64C249.858 315.64 250.46 315.416 250.824 315.178ZM255.793 309.2C256.885 309.2 257.543 309.816 257.543 311.034V315.5H258.859V310.74C258.859 308.92 257.921 307.94 256.283 307.94C255.121 307.94 254.197 308.444 253.567 308.948V305.658L252.251 305.868V315.5H253.567V309.872C254.085 309.564 254.925 309.2 255.793 309.2ZM264.068 315.5H268.478C270.536 315.5 271.866 314.646 271.866 312.91C271.866 311.524 270.942 310.6 269.318 310.39C270.326 310.25 271.264 309.536 271.264 308.262C271.264 306.54 269.892 305.868 268.17 305.868H264.068V315.5ZM268.044 307.17C269.08 307.17 269.766 307.52 269.766 308.514C269.766 309.452 269.038 309.9 267.974 309.9H265.454V307.17H268.044ZM268.282 311.062C269.472 311.062 270.354 311.538 270.354 312.63C270.354 313.792 269.486 314.198 268.352 314.198H265.454V311.062H268.282ZM276.439 314.38C275.347 314.38 274.689 313.764 274.689 312.546V308.08H273.373V312.84C273.373 314.66 274.311 315.64 275.935 315.64C277.167 315.64 278.119 315.08 278.749 314.562V315.5H279.981V308.08H278.665V313.694C278.133 314.016 277.307 314.38 276.439 314.38ZM287.169 315.5H288.401V305.658L287.085 305.868V308.122C286.665 308.024 286.203 307.94 285.601 307.94C283.487 307.94 281.597 309.256 281.597 311.986C281.597 314.45 283.123 315.64 284.859 315.64C285.895 315.64 286.679 315.248 287.169 314.842V315.5ZM285.671 309.116C286.259 309.116 286.707 309.228 287.085 309.354V313.862C286.679 314.142 285.993 314.464 285.209 314.464C283.837 314.464 282.941 313.54 282.941 311.902C282.941 309.998 284.131 309.116 285.671 309.116ZM296.753 314.338V308.556C296.067 308.276 295.157 307.94 293.939 307.94C291.811 307.94 290.005 309.228 290.005 311.762C290.005 313.778 291.307 314.968 293.169 314.968C294.177 314.968 294.947 314.562 295.437 314.184V314.506C295.437 315.864 294.639 316.62 293.113 316.62C292.007 316.62 291.083 316.2 290.411 315.738V317.082C291.027 317.46 292.035 317.852 293.239 317.852C295.171 317.852 296.753 316.844 296.753 314.338ZM291.349 311.608C291.349 309.984 292.427 309.116 293.925 309.116C294.555 309.116 295.031 309.242 295.437 309.396V313.134C295.003 313.442 294.303 313.778 293.491 313.778C292.245 313.778 291.349 313.064 291.349 311.608ZM304.897 314.982V313.82C304.351 314.128 303.329 314.394 302.335 314.394C300.781 314.394 299.773 313.68 299.675 312.196H305.051V311.58C305.051 309.27 303.889 307.926 301.859 307.926C299.787 307.926 298.345 309.368 298.345 311.79C298.345 314.31 299.941 315.64 302.209 315.64C303.231 315.64 304.365 315.374 304.897 314.982ZM301.789 309.06C303.091 309.06 303.735 309.9 303.763 311.3H299.661C299.731 309.886 300.557 309.06 301.789 309.06ZM311.144 315.178V314.044C310.808 314.254 310.262 314.45 309.674 314.45C308.918 314.45 308.47 314.114 308.47 313.26V309.242H311.088V308.08H308.47V306.68H308.162L306.02 308.906V309.242H307.154V313.4C307.154 315.192 308.19 315.64 309.352 315.64C310.178 315.64 310.78 315.416 311.144 315.178Z" fill="#FFFAFA"/>
</g>
</g>
</g>
<g id="Group 129_2">
<g id="Group 112">
<path id="Income" d="M266.405 39.4829V49.1149H267.329V39.4829H266.405ZM269.737 41.6949V49.1149H270.633V43.2769C271.207 42.9129 272.159 42.4089 273.167 42.4089C274.329 42.4089 275.155 43.0669 275.155 44.5089V49.1149H276.037V44.3549C276.037 42.4509 274.973 41.5549 273.433 41.5549C272.159 41.5549 271.221 42.1429 270.577 42.6609V41.6949H269.737ZM283.884 42.0729C283.366 41.7229 282.61 41.5409 281.798 41.5409C279.53 41.5409 277.794 43.0529 277.794 45.4049C277.794 47.6869 279.53 49.2549 281.784 49.2549C282.61 49.2549 283.366 49.0449 283.884 48.6949V47.7989C283.394 48.1489 282.638 48.4009 281.812 48.4009C280.034 48.4009 278.704 47.2109 278.704 45.4049C278.704 43.5569 280.034 42.3949 281.826 42.3949C282.638 42.3949 283.394 42.6189 283.884 42.9829V42.0729ZM289.012 49.2549C291.21 49.2549 292.806 47.5889 292.806 45.4049C292.806 43.2069 291.21 41.5549 289.012 41.5549C286.814 41.5549 285.218 43.2069 285.218 45.4049C285.218 47.5889 286.814 49.2549 289.012 49.2549ZM289.012 48.4149C287.332 48.4149 286.114 47.1129 286.114 45.4049C286.114 43.6829 287.332 42.3949 289.012 42.3949C290.706 42.3949 291.91 43.6829 291.91 45.4049C291.91 47.1129 290.706 48.4149 289.012 48.4149ZM294.619 41.6949V49.1149H295.515V43.2769C296.061 42.9129 296.957 42.4089 297.909 42.4089C298.987 42.4089 299.757 43.0529 299.757 44.4389V49.1149H300.639V44.1729C300.639 43.8509 300.611 43.5709 300.541 43.3049C301.129 42.8989 302.053 42.4089 303.047 42.4089C304.111 42.4089 304.881 43.0529 304.881 44.4389V49.1149H305.777V44.2849C305.777 42.4369 304.783 41.5549 303.313 41.5549C301.997 41.5549 301.017 42.1989 300.359 42.7729C299.953 41.9609 299.183 41.5549 298.175 41.5549C296.971 41.5549 296.089 42.1569 295.459 42.6469V41.6949H294.619ZM313.928 48.6669V47.8409C313.41 48.1769 312.332 48.4009 311.394 48.4009C309.756 48.4009 308.538 47.5469 308.44 45.7269H314.124V45.2929C314.124 42.8849 312.976 41.5409 310.96 41.5409C308.972 41.5409 307.53 42.9409 307.53 45.4049C307.53 47.9529 309.14 49.2549 311.324 49.2549C312.262 49.2549 313.368 49.0449 313.928 48.6669ZM310.932 42.3389C312.402 42.3389 313.2 43.3049 313.242 45.0689H308.44C308.496 43.3049 309.532 42.3389 310.932 42.3389Z" fill="#FFFAFA"/>
</g>
<rect id="Rectangle 356" x="75.4998" y="24.5759" width="286" height="39.127" rx="19.5635" stroke="#F3F3F3"/>
<path id="Rectangle 358" d="M95.0633 24.5759H218.5V63.7029H95.0633C84.2587 63.7029 75.4998 54.944 75.4998 44.1394C75.4998 33.3347 84.2587 24.5759 95.0633 24.5759Z" fill="#BADFC5" stroke="white"/>
<path id="Expense_2" d="M120.179 39.4829V49.1149H127.501V47.3229H122.083V45.1529H126.801V43.3609H122.083V41.2749H127.501V39.4829H120.179ZM133.729 49.1149H135.787L133.183 45.3909L135.759 41.6949H133.729L131.965 44.4109L130.187 41.6949H128.129L130.719 45.4049L128.129 49.1149H130.159L131.951 46.3429L133.729 49.1149ZM139.782 49.2549C141.854 49.2549 143.926 48.0369 143.926 45.2229C143.926 42.6329 142.246 41.5549 140.65 41.5549C139.684 41.5549 139.012 41.8489 138.522 42.2409V41.6949H136.828V51.3269H138.634V49.1569C138.97 49.2129 139.334 49.2549 139.782 49.2549ZM140.076 43.1649C141.238 43.1649 142.064 43.8929 142.064 45.3489C142.064 47.0289 140.944 47.6449 139.684 47.6449C139.278 47.6449 138.928 47.5749 138.634 47.4909V43.5569C138.984 43.3609 139.502 43.1649 140.076 43.1649ZM151.703 48.5269V46.9449C151.129 47.2529 150.149 47.5609 149.113 47.5609C147.657 47.5609 146.915 47.0149 146.789 45.9229H151.815V45.0829C151.815 42.8709 150.639 41.5549 148.567 41.5549C146.397 41.5549 144.955 43.0389 144.955 45.4049C144.955 47.8829 146.551 49.2549 148.903 49.2549C150.037 49.2549 151.185 48.9329 151.703 48.5269ZM148.455 43.0809C149.547 43.0809 150.037 43.7529 150.051 44.7609H146.775C146.845 43.7529 147.419 43.0809 148.455 43.0809ZM156.902 43.3049C157.91 43.3049 158.4 43.8649 158.4 44.8169V49.1149H160.206V44.3549C160.206 42.6469 159.408 41.5549 157.672 41.5549C156.496 41.5549 155.53 42.0729 154.928 42.6049V41.6949H153.234V49.1149H155.04V43.7669C155.516 43.5289 156.188 43.3049 156.902 43.3049ZM165.362 44.8729L164.634 44.6629C163.724 44.4249 163.178 44.2709 163.178 43.7669C163.178 43.3469 163.654 43.1509 164.284 43.1509C165.362 43.1509 166.58 43.5849 167.112 43.9909V42.2129C166.622 41.8909 165.474 41.5549 164.382 41.5549C162.534 41.5549 161.428 42.5069 161.428 43.8509C161.428 45.2089 162.422 45.7549 163.626 46.0349L164.354 46.2169C165.236 46.4409 165.726 46.5949 165.726 47.0569C165.726 47.5329 165.334 47.7009 164.592 47.7009C163.486 47.7009 162.324 47.2809 161.596 46.8469V48.5829C162.114 48.8909 163.346 49.2829 164.494 49.2829C166.258 49.2829 167.42 48.5129 167.42 47.0009C167.42 45.8809 166.692 45.2089 165.362 44.8729ZM175.11 48.5269V46.9449C174.536 47.2529 173.556 47.5609 172.52 47.5609C171.064 47.5609 170.322 47.0149 170.196 45.9229H175.222V45.0829C175.222 42.8709 174.046 41.5549 171.974 41.5549C169.804 41.5549 168.362 43.0389 168.362 45.4049C168.362 47.8829 169.958 49.2549 172.31 49.2549C173.444 49.2549 174.592 48.9329 175.11 48.5269ZM171.862 43.0809C172.954 43.0809 173.444 43.7529 173.458 44.7609H170.182C170.252 43.7529 170.826 43.0809 171.862 43.0809Z" fill="#07051A"/>
<rect id="Rectangle 357" x="218.25" y="24.3259" width="0.5" height="39.627" stroke="#F3F3F3" stroke-width="0.5"/>
</g>
</g>
<g id="Group 124">
<g id="Group 122">
<rect id="Rectangle 376_2" opacity="0.1" x="91.9998" y="93.9997" width="1" height="156" fill="#F7F7F7"/>
<rect id="Rectangle 377" opacity="0.1" x="134" y="93.9997" width="1" height="156" fill="#F7F7F7"/>
<rect id="Rectangle 378" opacity="0.1" x="181" y="93.9997" width="1" height="156" fill="#F7F7F7"/>
<rect id="Rectangle 379" opacity="0.1" x="228" y="93.9997" width="1" height="156" fill="#F7F7F7"/>
<rect id="Rectangle 380" opacity="0.1" x="275" y="93.9997" width="1" height="156" fill="#F7F7F7"/>
<rect id="Rectangle 381" opacity="0.1" x="322" y="93.9997" width="1" height="156" fill="#F7F7F7"/>
<rect id="Rectangle 382" opacity="0.1" x="369" y="93.9997" width="1" height="156" fill="#F7F7F7"/>
<rect id="Rectangle 389" opacity="0.1" x="91.9998" y="120" width="278" height="1" fill="#F7F7F7"/>
<rect id="Rectangle 396" opacity="0.1" x="91.9998" y="146" width="278" height="1" fill="#F7F7F7"/>
<rect id="Rectangle 403" opacity="0.1" x="91.9998" y="172" width="278" height="1" fill="#F7F7F7"/>
<rect id="Rectangle 410" opacity="0.1" x="91.9998" y="198" width="278" height="1" fill="#F7F7F7"/>
<rect id="Rectangle 417" opacity="0.1" x="91.9998" y="224" width="278" height="1" fill="#F7F7F7"/>
<rect id="Rectangle 424" opacity="0.1" x="91.9998" y="250" width="278" height="1" fill="#F7F7F7"/>
</g>
<g id="Group 123">
<path id="0" d="M77.4984 249.1C78.9684 249.1 80.2384 248.01 80.2384 245.56C80.2384 243.12 78.9684 242.02 77.4984 242.02C76.0184 242.02 74.7584 243.12 74.7584 245.56C74.7584 248.01 76.0184 249.1 77.4984 249.1ZM77.4984 248.48C76.3384 248.48 75.4384 247.52 75.4384 245.56C75.4384 243.61 76.3384 242.65 77.4984 242.65C78.6584 242.65 79.5584 243.61 79.5584 245.56C79.5584 247.52 78.6584 248.48 77.4984 248.48Z" fill="#C0C0C0"/>
<path id="Feb" d="M127.048 258.12V265H127.708V262.01H131.278V261.39H127.708V258.74H131.778V258.12H127.048ZM137.204 264.68V264.09C136.834 264.33 136.064 264.49 135.394 264.49C134.224 264.49 133.354 263.88 133.284 262.58H137.344V262.27C137.344 260.55 136.524 259.59 135.084 259.59C133.664 259.59 132.634 260.59 132.634 262.35C132.634 264.17 133.784 265.1 135.344 265.1C136.014 265.1 136.804 264.95 137.204 264.68ZM135.064 260.16C136.114 260.16 136.684 260.85 136.714 262.11H133.284C133.324 260.85 134.064 260.16 135.064 260.16ZM139.325 257.99L138.685 258.12V264.7C139.215 264.9 139.865 265.1 140.725 265.1C142.195 265.1 143.375 264.14 143.375 262.24C143.375 260.57 142.415 259.6 141.075 259.6C140.315 259.6 139.675 259.94 139.325 260.22V257.99ZM140.945 260.19C142.005 260.19 142.715 260.98 142.715 262.27C142.715 263.79 141.895 264.52 140.705 264.52C140.155 264.52 139.715 264.41 139.325 264.29V260.77C139.665 260.5 140.235 260.19 140.945 260.19Z" fill="#C0C0C0"/>
<path id="Apr" d="M172.799 265L173.759 262.73H177.139L178.099 265H178.829L175.869 258.12H175.039L172.079 265H172.799ZM175.449 258.75L176.889 262.14H174.009L175.449 258.75ZM181.593 265.1C183.143 265.1 184.383 264.1 184.383 262.21C184.383 260.51 183.373 259.6 182.063 259.6C181.253 259.6 180.643 259.95 180.293 260.26V259.7H179.693V266.58H180.333V264.9C180.683 265.01 181.063 265.1 181.593 265.1ZM181.923 260.18C183.023 260.18 183.723 260.95 183.723 262.24C183.723 263.74 182.833 264.52 181.573 264.52C181.043 264.52 180.673 264.41 180.333 264.29V260.77C180.663 260.5 181.213 260.18 181.923 260.18ZM185.679 259.7V265H186.319V260.96C186.699 260.62 187.359 260.21 187.929 260.21C188.289 260.21 188.569 260.31 188.789 260.46V259.79C188.579 259.67 188.349 259.6 188.089 259.6C187.359 259.6 186.709 260.09 186.279 260.52V259.7H185.679Z" fill="#C0C0C0"/>
<path id="Jul" d="M221.392 263.63V264.36C221.852 264.73 222.602 265.11 223.512 265.11C224.752 265.11 225.682 264.44 225.682 262.97V258.12H225.012V262.97C225.012 264.05 224.352 264.47 223.502 264.47C222.652 264.47 221.842 264.06 221.392 263.63ZM229.325 264.49C228.495 264.49 227.905 264.02 227.905 262.99V259.7H227.265V263.1C227.265 264.46 228.025 265.1 229.135 265.1C230.035 265.1 230.715 264.68 231.175 264.31V265H231.775V259.7H231.135V263.86C230.735 264.13 230.045 264.49 229.325 264.49ZM233.35 258.12V265H233.99V257.99L233.35 258.12Z" fill="#C0C0C0"/>
<path id="Aug" d="M266.846 265L267.806 262.73H271.186L272.146 265H272.876L269.916 258.12H269.086L266.126 265H266.846ZM269.496 258.75L270.936 262.14H268.056L269.496 258.75ZM275.751 264.49C274.921 264.49 274.331 264.02 274.331 262.99V259.7H273.691V263.1C273.691 264.46 274.451 265.1 275.561 265.1C276.461 265.1 277.141 264.68 277.601 264.31V265H278.201V259.7H277.561V263.86C277.161 264.13 276.471 264.49 275.751 264.49ZM284.166 264.32V260.03C283.686 259.83 283.076 259.6 282.256 259.6C280.706 259.6 279.496 260.57 279.496 262.37C279.496 263.86 280.426 264.7 281.786 264.7C282.556 264.7 283.186 264.36 283.526 264.07V264.38C283.526 265.5 282.826 266.08 281.726 266.08C280.886 266.08 280.226 265.76 279.746 265.45V266.12C280.186 266.38 280.906 266.68 281.776 266.68C283.106 266.68 284.166 265.97 284.166 264.32ZM280.156 262.31C280.156 260.95 281.006 260.18 282.246 260.18C282.796 260.18 283.186 260.3 283.526 260.43V263.53C283.186 263.8 282.616 264.12 281.906 264.12C280.856 264.12 280.156 263.49 280.156 262.31Z" fill="#C0C0C0"/>
<path id="Oct" d="M317.319 265.1C319.289 265.1 320.789 263.64 320.789 261.57C320.789 259.48 319.289 258.02 317.319 258.02C315.329 258.02 313.829 259.48 313.829 261.57C313.829 263.64 315.329 265.1 317.319 265.1ZM317.319 264.44C315.729 264.44 314.519 263.26 314.519 261.57C314.519 259.86 315.719 258.68 317.319 258.68C318.899 258.68 320.099 259.86 320.099 261.57C320.099 263.26 318.899 264.44 317.319 264.44ZM326.206 259.97C325.836 259.72 325.296 259.59 324.716 259.59C323.096 259.59 321.856 260.67 321.856 262.35C321.856 263.98 323.096 265.1 324.706 265.1C325.296 265.1 325.836 264.95 326.206 264.7V264.06C325.856 264.31 325.316 264.49 324.726 264.49C323.456 264.49 322.506 263.64 322.506 262.35C322.506 261.03 323.456 260.2 324.736 260.2C325.316 260.2 325.856 260.36 326.206 260.62V259.97ZM330.368 264.77V264.19C330.118 264.36 329.738 264.51 329.298 264.51C328.698 264.51 328.348 264.23 328.348 263.55V260.27H330.318V259.7H328.348V258.7H328.188L326.888 260.1V260.27H327.708V263.6C327.708 264.81 328.438 265.1 329.178 265.1C329.728 265.1 330.128 264.93 330.368 264.77Z" fill="#C0C0C0"/>
<path id="Dec" d="M361.167 258.12V265H363.427C365.637 265 367.137 263.62 367.137 261.57C367.137 259.5 365.637 258.12 363.427 258.12H361.167ZM363.427 258.74C365.257 258.74 366.467 259.86 366.467 261.57C366.467 263.26 365.257 264.38 363.427 264.38H361.827V258.74H363.427ZM372.768 264.68V264.09C372.398 264.33 371.628 264.49 370.958 264.49C369.788 264.49 368.918 263.88 368.848 262.58H372.908V262.27C372.908 260.55 372.088 259.59 370.648 259.59C369.228 259.59 368.198 260.59 368.198 262.35C368.198 264.17 369.348 265.1 370.908 265.1C371.578 265.1 372.368 264.95 372.768 264.68ZM370.628 260.16C371.678 260.16 372.248 260.85 372.278 262.11H368.848C368.888 260.85 369.628 260.16 370.628 260.16ZM378.32 259.97C377.95 259.72 377.41 259.59 376.83 259.59C375.21 259.59 373.97 260.67 373.97 262.35C373.97 263.98 375.21 265.1 376.82 265.1C377.41 265.1 377.95 264.95 378.32 264.7V264.06C377.97 264.31 377.43 264.49 376.84 264.49C375.57 264.49 374.62 263.64 374.62 262.35C374.62 261.03 375.57 260.2 376.85 260.2C377.43 260.2 377.97 260.36 378.32 260.62V259.97Z" fill="#C0C0C0"/>
<path id="100" d="M61.0442 216.12L60.7742 216.71H62.0042V223H62.6542V216.12H61.0442ZM67.0697 223.1C68.5397 223.1 69.8097 222.01 69.8097 219.56C69.8097 217.12 68.5397 216.02 67.0697 216.02C65.5897 216.02 64.3297 217.12 64.3297 219.56C64.3297 222.01 65.5897 223.1 67.0697 223.1ZM67.0697 222.48C65.9097 222.48 65.0097 221.52 65.0097 219.56C65.0097 217.61 65.9097 216.65 67.0697 216.65C68.2297 216.65 69.1297 217.61 69.1297 219.56C69.1297 221.52 68.2297 222.48 67.0697 222.48ZM74.0326 223.1C75.5026 223.1 76.7726 222.01 76.7726 219.56C76.7726 217.12 75.5026 216.02 74.0326 216.02C72.5526 216.02 71.2926 217.12 71.2926 219.56C71.2926 222.01 72.5526 223.1 74.0326 223.1ZM74.0326 222.48C72.8726 222.48 71.9726 221.52 71.9726 219.56C71.9726 217.61 72.8726 216.65 74.0326 216.65C75.1926 216.65 76.0926 217.61 76.0926 219.56C76.0926 221.52 75.1926 222.48 74.0326 222.48Z" fill="#C0C0C0"/>
<path id="200" d="M61.3433 197V196.4H57.5033L59.8033 194.23C60.6133 193.48 61.2833 192.83 61.2833 191.85C61.2833 190.69 60.4433 190.02 59.2533 190.02C58.0733 190.02 57.2033 190.67 56.8633 190.98V191.69C57.2933 191.28 58.1333 190.62 59.2133 190.62C60.1133 190.62 60.6133 191.15 60.6133 191.88C60.6133 192.62 60.1333 193.1 59.3533 193.86L56.6433 196.5V197H61.3433ZM65.2806 197.1C66.7506 197.1 68.0206 196.01 68.0206 193.56C68.0206 191.12 66.7506 190.02 65.2806 190.02C63.8006 190.02 62.5406 191.12 62.5406 193.56C62.5406 196.01 63.8006 197.1 65.2806 197.1ZM65.2806 196.48C64.1206 196.48 63.2206 195.52 63.2206 193.56C63.2206 191.61 64.1206 190.65 65.2806 190.65C66.4406 190.65 67.3406 191.61 67.3406 193.56C67.3406 195.52 66.4406 196.48 65.2806 196.48ZM72.2435 197.1C73.7135 197.1 74.9835 196.01 74.9835 193.56C74.9835 191.12 73.7135 190.02 72.2435 190.02C70.7635 190.02 69.5035 191.12 69.5035 193.56C69.5035 196.01 70.7635 197.1 72.2435 197.1ZM72.2435 196.48C71.0835 196.48 70.1835 195.52 70.1835 193.56C70.1835 191.61 71.0835 190.65 72.2435 190.65C73.4035 190.65 74.3035 191.61 74.3035 193.56C74.3035 195.52 73.4035 196.48 72.2435 196.48Z" fill="#C0C0C0"/>
<path id="300" d="M56.6121 169.73V170.41C57.0521 170.75 57.8021 171.1 58.7721 171.1C60.4321 171.1 61.3221 170.14 61.3221 169.01C61.3221 167.85 60.5021 166.99 59.0621 166.99H58.3021L61.0621 164.73V164.12H56.8221V164.72H60.1821L57.4621 167.09V167.51H58.9121C60.0321 167.51 60.6521 168.13 60.6521 168.98C60.6521 169.83 59.9921 170.5 58.7221 170.5C57.7621 170.5 57.0121 170.08 56.6121 169.73ZM65.2318 171.1C66.7018 171.1 67.9718 170.01 67.9718 167.56C67.9718 165.12 66.7018 164.02 65.2318 164.02C63.7518 164.02 62.4918 165.12 62.4918 167.56C62.4918 170.01 63.7518 171.1 65.2318 171.1ZM65.2318 170.48C64.0718 170.48 63.1718 169.52 63.1718 167.56C63.1718 165.61 64.0718 164.65 65.2318 164.65C66.3918 164.65 67.2918 165.61 67.2918 167.56C67.2918 169.52 66.3918 170.48 65.2318 170.48ZM72.1947 171.1C73.6647 171.1 74.9347 170.01 74.9347 167.56C74.9347 165.12 73.6647 164.02 72.1947 164.02C70.7147 164.02 69.4547 165.12 69.4547 167.56C69.4547 170.01 70.7147 171.1 72.1947 171.1ZM72.1947 170.48C71.0347 170.48 70.1347 169.52 70.1347 167.56C70.1347 165.61 71.0347 164.65 72.1947 164.65C73.3547 164.65 74.2547 165.61 74.2547 167.56C74.2547 169.52 73.3547 170.48 72.1947 170.48Z" fill="#C0C0C0"/>
<path id="400" d="M58.5101 138.12L54.5601 142.91V143.41H58.5101V145H59.1701V143.41H60.5501V142.82H59.1701V138.12H58.5101ZM55.3301 142.82L58.5101 138.98V142.82H55.3301ZM64.2738 145.1C65.7438 145.1 67.0138 144.01 67.0138 141.56C67.0138 139.12 65.7438 138.02 64.2738 138.02C62.7938 138.02 61.5338 139.12 61.5338 141.56C61.5338 144.01 62.7938 145.1 64.2738 145.1ZM64.2738 144.48C63.1138 144.48 62.2138 143.52 62.2138 141.56C62.2138 139.61 63.1138 138.65 64.2738 138.65C65.4338 138.65 66.3338 139.61 66.3338 141.56C66.3338 143.52 65.4338 144.48 64.2738 144.48ZM71.2367 145.1C72.7067 145.1 73.9767 144.01 73.9767 141.56C73.9767 139.12 72.7067 138.02 71.2367 138.02C69.7567 138.02 68.4967 139.12 68.4967 141.56C68.4967 144.01 69.7567 145.1 71.2367 145.1ZM71.2367 144.48C70.0767 144.48 69.1767 143.52 69.1767 141.56C69.1767 139.61 70.0767 138.65 71.2367 138.65C72.3967 138.65 73.2967 139.61 73.2967 141.56C73.2967 143.52 72.3967 144.48 71.2367 144.48Z" fill="#C0C0C0"/>
<path id="500" d="M56.3424 112.12L55.9724 115.43H57.7924C58.9124 115.43 59.8824 115.85 59.8824 117.02C59.8824 118.09 59.0024 118.5 58.0624 118.5C57.0624 118.5 56.1724 118.02 55.6724 117.61V118.3C56.0724 118.61 56.9324 119.1 58.1024 119.1C59.3524 119.1 60.5424 118.49 60.5424 117.02C60.5424 115.45 59.3424 114.84 57.9224 114.84H56.6624L56.9024 112.72H60.1024V112.12H56.3424ZM64.4515 119.1C65.9215 119.1 67.1915 118.01 67.1915 115.56C67.1915 113.12 65.9215 112.02 64.4515 112.02C62.9715 112.02 61.7115 113.12 61.7115 115.56C61.7115 118.01 62.9715 119.1 64.4515 119.1ZM64.4515 118.48C63.2915 118.48 62.3915 117.52 62.3915 115.56C62.3915 113.61 63.2915 112.65 64.4515 112.65C65.6115 112.65 66.5115 113.61 66.5115 115.56C66.5115 117.52 65.6115 118.48 64.4515 118.48ZM71.4144 119.1C72.8844 119.1 74.1544 118.01 74.1544 115.56C74.1544 113.12 72.8844 112.02 71.4144 112.02C69.9344 112.02 68.6744 113.12 68.6744 115.56C68.6744 118.01 69.9344 119.1 71.4144 119.1ZM71.4144 118.48C70.2544 118.48 69.3544 117.52 69.3544 115.56C69.3544 113.61 70.2544 112.65 71.4144 112.65C72.5744 112.65 73.4744 113.61 73.4744 115.56C73.4744 117.52 72.5744 118.48 71.4144 118.48Z" fill="#C0C0C0"/>
</g>
</g>
<path id="Vector 33" d="M131.793 200.873L111.633 222.267C110.584 223.38 110 224.852 110 226.381V244.5C110 247.814 112.686 250.5 116 250.5H363C366.314 250.5 369 247.814 369 244.5V174.666C369 173.266 368.51 171.91 367.616 170.833L350.141 149.783C348.314 147.583 345.189 146.978 342.673 148.336L324.88 157.945C323.085 158.914 320.92 158.905 319.133 157.92L298.502 146.552C297.84 146.187 297.253 145.701 296.771 145.118L282.232 127.514C279.386 124.068 273.906 124.832 272.111 128.925L256.68 164.109C254.943 168.069 249.715 168.947 246.78 165.772L232.51 150.337C230.285 147.931 226.541 147.754 224.1 149.941L205.691 166.433C204.91 167.132 203.961 167.615 202.936 167.833L183.241 172.023C181.798 172.33 180.518 173.158 179.647 174.35L159.159 202.363C157.584 204.518 154.774 205.372 152.266 204.46L138.21 199.349C135.958 198.53 133.436 199.129 131.793 200.873Z" fill="url(#paint3_linear_612_6300)"/>
<path id="Vector 37" d="M110 224L131.793 200.873C133.436 199.129 135.958 198.53 138.21 199.349L152.266 204.46C154.774 205.372 157.584 204.518 159.159 202.363L179.647 174.35C180.518 173.158 181.798 172.33 183.241 172.023L202.936 167.833C203.961 167.615 204.911 167.132 205.691 166.433L224.1 149.941C226.541 147.754 230.285 147.931 232.51 150.337L246.78 165.772C249.715 168.947 254.943 168.069 256.68 164.109L272.111 128.925C273.906 124.832 279.386 124.068 282.232 127.514L296.771 145.118C297.253 145.701 297.84 146.187 298.502 146.552L319.133 157.92C320.92 158.905 323.085 158.914 324.88 157.945L342.673 148.336C345.189 146.978 348.314 147.583 350.141 149.783L369 172.5" stroke="#BFCBEE" stroke-width="3"/>
<path id="Vector 35" d="M131.973 193.067L110.587 237.772C110.201 238.58 110 239.465 110 240.361V244.5C110 247.814 112.686 250.5 116 250.5H363C366.314 250.5 369 247.814 369 244.5V209.823C369 204.974 363.548 202.128 359.57 204.9L351.821 210.299C348.325 212.735 343.475 210.852 342.538 206.695L328.333 143.663C326.956 137.554 318.316 137.374 316.686 143.42L302.164 197.288C300.788 202.393 293.962 203.352 291.232 198.824L278.415 177.558C276.777 174.841 273.307 173.868 270.496 175.339L255.341 183.265C253.048 184.464 250.245 184.059 248.386 182.258L232.531 166.903C230.262 164.706 226.679 164.644 224.335 166.76L208.462 181.093C206.668 182.713 204.076 183.099 201.888 182.07L185.947 174.577C183.594 173.471 180.796 174.006 179.017 175.904L160.928 195.205C159.176 197.074 156.431 197.625 154.094 196.576L139.842 190.182C136.871 188.848 133.379 190.129 131.973 193.067Z" fill="url(#paint4_linear_612_6300)"/>
<path id="Vector 36" d="M110 239L131.973 193.067C133.379 190.129 136.871 188.848 139.842 190.182L154.094 196.576C156.431 197.625 159.176 197.074 160.928 195.205L179.017 175.904C180.796 174.006 183.594 173.471 185.947 174.577L201.888 182.07C204.076 183.099 206.668 182.713 208.462 181.093L224.335 166.76C226.679 164.644 230.262 164.706 232.531 166.903L248.386 182.258C250.245 184.059 253.048 184.464 255.341 183.265L270.496 175.339C273.307 173.868 276.777 174.841 278.415 177.558L291.232 198.824C293.962 203.352 300.788 202.393 302.164 197.288L316.686 143.42C318.316 137.374 326.956 137.554 328.333 143.663L342.538 206.695C343.475 210.852 348.325 212.735 351.821 210.299L369 198.329" stroke="#A6D8C3" stroke-width="3"/>
</g>
<defs>
<filter id="filter0_f_612_6300" x="-0.000183105" y="299" width="475" height="296" filterUnits="userSpaceOnUse" color-interpolation-filters="sRGB">
<feFlood flood-opacity="0" result="BackgroundImageFix"/>
<feBlend mode="normal" in="SourceGraphic" in2="BackgroundImageFix" result="shape"/>
<feGaussianBlur stdDeviation="62" result="effect1_foregroundBlur_612_6300"/>
</filter>
<linearGradient id="paint0_linear_612_6300" x1="218.5" y1="457" x2="218.5" y2="464" gradientUnits="userSpaceOnUse">
<stop stop-color="#060412" stop-opacity="0"/>
<stop offset="1" stop-color="#141226"/>
</linearGradient>
<linearGradient id="paint1_linear_612_6300" x1="218.5" y1="-0.000183105" x2="218.5" y2="461" gradientUnits="userSpaceOnUse">
<stop stop-color="#4A4A4A"/>
<stop offset="1" stop-opacity="0"/>
</linearGradient>
<linearGradient id="paint2_linear_612_6300" x1="218.5" y1="345" x2="218.5" y2="437" gradientUnits="userSpaceOnUse">
<stop stop-color="#1F195A"/>
<stop offset="1" stop-opacity="0"/>
</linearGradient>
<linearGradient id="paint3_linear_612_6300" x1="239.5" y1="32.8338" x2="239.5" y2="250.5" gradientUnits="userSpaceOnUse">
<stop stop-color="#CCD9FF"/>
<stop offset="0.782106" stop-color="#7B9CFF" stop-opacity="0"/>
</linearGradient>
<linearGradient id="paint4_linear_612_6300" x1="239.5" y1="120" x2="239.5" y2="250.5" gradientUnits="userSpaceOnUse">
<stop offset="0.38808" stop-color="#BFEEDA"/>
<stop offset="0.701366" stop-color="#BFEEDA" stop-opacity="0"/>
</linearGradient>
</defs>
</svg>
