<svg width="21" height="21" viewBox="0 0 21 21" fill="none" xmlns="http://www.w3.org/2000/svg">
<path d="M15.749 7C17.1988 7 18.374 5.82475 18.374 4.375C18.374 2.92525 17.1988 1.75 15.749 1.75C14.2993 1.75 13.124 2.92525 13.124 4.375C13.124 5.82475 14.2993 7 15.749 7Z" stroke="#3FCA66" stroke-width="2" stroke-linecap="round" stroke-linejoin="round"/>
<path d="M5.24902 13.125C6.69877 13.125 7.87402 11.9497 7.87402 10.5C7.87402 9.05025 6.69877 7.875 5.24902 7.875C3.79928 7.875 2.62402 9.05025 2.62402 10.5C2.62402 11.9497 3.79928 13.125 5.24902 13.125Z" stroke="#3FCA66" stroke-width="2" stroke-linecap="round" stroke-linejoin="round"/>
<path d="M15.749 19.25C17.1988 19.25 18.374 18.0747 18.374 16.625C18.374 15.1753 17.1988 14 15.749 14C14.2993 14 13.124 15.1753 13.124 16.625C13.124 18.0747 14.2993 19.25 15.749 19.25Z" stroke="#3FCA66" stroke-width="2" stroke-linecap="round" stroke-linejoin="round"/>
<path d="M7.51514 11.8213L13.4914 15.3038" stroke="#3FCA66" stroke-width="2" stroke-linecap="round" stroke-linejoin="round"/>
<path d="M13.4826 5.69629L7.51514 9.17879" stroke="#3FCA66" stroke-width="2" stroke-linecap="round" stroke-linejoin="round"/>
</svg>
