<svg width="448" height="118" viewBox="0 0 448 118" fill="none" xmlns="http://www.w3.org/2000/svg">
<mask id="mask0_76_9732" style="mask-type:alpha" maskUnits="userSpaceOnUse" x="-1" y="0" width="119" height="118">
<ellipse cx="58.9567" cy="59" rx="58.9573" ry="59" transform="rotate(-180 58.9567 59)" fill="#FFFFE0"/>
</mask>
<g mask="url(#mask0_76_9732)">
<rect width="77.9351" height="10.532" rx="1.26937" transform="matrix(-0.719089 -0.694918 0.694398 -0.719591 59.3223 149.235)" fill="#FFFFE0"/>
<rect width="64.9838" height="10.532" rx="1.26937" transform="matrix(-0.719089 -0.694918 0.694398 -0.719591 69.5684 138.627)" fill="#FFFFE0"/>
<rect width="51.8746" height="10.532" rx="1.26937" transform="matrix(-0.719089 -0.694918 0.694398 -0.719591 79.8066 128.014)" fill="#FFFFE0"/>
<rect width="50.2099" height="10.532" rx="1.26937" transform="matrix(-0.719089 -0.694918 0.694398 -0.719591 69.0156 35.5708)" fill="#FFFFE0"/>
<rect width="65.2272" height="10.532" rx="1.26937" transform="matrix(-0.719089 -0.694918 0.694398 -0.719591 90.0547 35.397)" fill="#FFFFE0"/>
<rect width="77.9351" height="10.532" rx="1.26937" transform="matrix(-0.719089 -0.694918 0.694398 -0.719591 109.428 33.6138)" fill="#FFFFE0"/>
<rect width="122.169" height="10.532" rx="1.26937" transform="matrix(-0.719089 -0.694918 0.694398 -0.719591 43.1328 74.7529)" fill="#FFFFE0"/>
<rect width="122.169" height="10.532" rx="1.26937" transform="matrix(-0.719089 -0.694918 0.694398 -0.719591 100.285 106.794)" fill="#FFFFE0"/>
<rect width="122.169" height="10.532" rx="1.26937" transform="matrix(-0.719089 -0.694918 0.694398 -0.719591 150.645 133.753)" fill="#FFFFE0"/>
</g>
<path d="M201.669 72.9374C201.669 77.1621 198.522 80.0042 191.076 80.0042C183.708 80.0042 175.494 76.8549 170.582 73.3982V81.3101C174.727 84.1522 182.172 86.9943 190.769 86.9943C201.439 86.9943 209.422 82.0014 209.422 72.5533C209.422 62.7979 202.744 59.9558 193.916 57.2673L188.16 55.5006C182.019 53.5034 177.567 51.9672 177.567 46.8974C177.567 42.6727 181.251 39.7537 188.006 39.7537C195.068 39.7537 202.283 42.8263 206.428 45.6684V37.4493C203.204 35.2217 196.91 32.5332 188.236 32.5332C178.027 32.5332 169.584 37.7566 169.584 47.5119C169.584 56.9601 176.876 60.0326 184.475 62.2602L191.383 64.3342C197.908 66.4082 201.669 68.1749 201.669 72.9374Z" fill="#FFFFE0"/>
<path d="M233.031 86.9943C244.699 86.9943 255.061 79.7738 255.061 64.7951C255.061 51.2758 246.694 44.7466 237.176 44.7466C231.496 44.7466 227.198 46.8974 224.511 49.125V45.5148H217.756V98.3628H224.972V85.9957C227.275 86.6102 229.731 86.9943 233.031 86.9943ZM235.181 51.199C242.626 51.199 247.616 56.2687 247.616 65.256C247.616 75.7027 241.168 80.5419 232.724 80.5419C229.501 80.5419 227.044 79.9274 224.972 79.2361V54.5788C227.275 52.9657 230.805 51.199 235.181 51.199Z" fill="#FFFFE0"/>
<path d="M267.694 39.8305C270.842 39.8305 272.837 38.1406 272.837 35.6058C272.837 32.9941 270.842 31.3042 267.694 31.3042C264.547 31.3042 262.475 32.9941 262.475 35.6058C262.475 38.1406 264.547 39.8305 267.694 39.8305ZM264.01 45.5148V86.2262H271.225V45.5148H264.01Z" fill="#FFFFE0"/>
<path d="M282.222 45.5148V86.2262H289.437V55.347C292.277 53.6571 296.882 51.6599 301.641 51.6599C307.629 51.6599 311.236 55.0397 311.236 61.7225V86.2262H318.452V60.1094C318.452 50.1236 313.309 44.7466 304.328 44.7466C297.65 44.7466 292.43 47.8192 288.976 50.6613V45.5148H282.222Z" fill="#FFFFE0"/>
<path d="M352.947 61.4921V65.1792C351.104 64.4878 347.957 63.7197 343.966 63.7197C333.527 63.7197 326.772 68.943 326.772 76.0867C326.772 82.8464 331.454 86.9943 339.667 86.9943C345.731 86.9943 350.49 83.9986 353.407 80.8492V86.2262H360.162V61.4153C360.162 49.2787 352.486 44.7466 343.659 44.7466C336.137 44.7466 329.919 48.2801 327.233 51.0454V58.4963C330.687 54.9629 336.367 51.8903 342.738 51.8903C348.188 51.8903 352.947 54.5788 352.947 61.4921ZM333.527 75.7795C333.527 71.5547 337.672 68.7126 345.731 68.7126C348.341 68.7126 351.104 69.1735 352.947 69.7112V76.6244C349.8 79.2361 345.424 81.3869 340.819 81.3869C336.751 81.3869 333.527 79.7738 333.527 75.7795Z" fill="#FFFFE0"/>
<path d="M402.686 47.8192C399.615 45.7452 395.24 44.6698 390.558 44.6698C378.123 44.6698 368.605 53.1194 368.605 65.8705C368.605 78.2375 378.046 86.9943 390.481 86.9943C395.24 86.9943 399.615 85.8421 402.686 83.7681V76.5476C399.615 78.7752 395.317 80.1579 390.711 80.1579C382.114 80.1579 375.82 74.4736 375.82 65.8705C375.82 57.0369 382.114 51.5063 390.788 51.5063C395.317 51.5063 399.615 52.8121 402.686 55.0397V47.8192Z" fill="#FFFFE0"/>
<path d="M430.572 51.6599C436.559 51.6599 440.166 55.0397 440.166 61.7225V86.2262H447.382V60.1094C447.382 50.1236 442.239 44.7466 433.258 44.7466C426.887 44.7466 421.821 47.5119 418.367 50.2772V32.226L411.152 33.3782V86.2262H418.367V55.347C421.207 53.6571 425.813 51.6599 430.572 51.6599Z" fill="#FFFFE0"/>
</svg>
