<svg width="19" height="16" viewBox="0 0 19 16" fill="none" xmlns="http://www.w3.org/2000/svg">
<path d="M18.366 2.41888C17.6966 2.7125 16.9833 2.90713 16.2397 3.00163C17.0047 2.54488 17.5886 1.82713 17.8631 0.962C17.1498 1.38725 16.3623 1.68763 15.5231 1.85525C14.8458 1.13413 13.8806 0.6875 12.8276 0.6875C10.7846 0.6875 9.13984 2.34575 9.13984 4.37863C9.13984 4.67113 9.16459 4.95238 9.22534 5.22013C6.15747 5.0705 3.44284 3.60013 1.61922 1.36025C1.30084 1.91263 1.11409 2.54488 1.11409 3.2255C1.11409 4.5035 1.77222 5.63638 2.75322 6.29225C2.16034 6.281 1.57872 6.10888 1.08597 5.83775C1.08597 5.849 1.08597 5.86363 1.08597 5.87825C1.08597 7.6715 2.36509 9.161 4.04247 9.50413C3.74209 9.58625 3.41472 9.62563 3.07497 9.62563C2.83872 9.62563 2.60022 9.61213 2.37634 9.56263C2.85447 11.024 4.21122 12.0984 5.82447 12.1333C4.56897 13.1154 2.97484 13.7071 1.24909 13.7071C0.946467 13.7071 0.656217 13.6936 0.365967 13.6565C2.00059 14.7106 3.93784 15.3125 6.02697 15.3125C12.8175 15.3125 16.53 9.6875 16.53 4.81175C16.53 4.64863 16.5243 4.49113 16.5165 4.33475C17.2488 3.815 17.8642 3.16588 18.366 2.41888Z" fill="#03A9F4"/>
</svg>
