<svg width="284" height="63" viewBox="0 0 284 63" fill="none" xmlns="http://www.w3.org/2000/svg">
<path d="M1.312 0.456843V11.4648H2.896V7.72084H5.792C8.224 7.72084 9.936 6.47284 9.936 4.12084C9.936 1.64084 8.224 0.456843 5.792 0.456843H1.312ZM5.68 1.94484C7.216 1.94484 8.272 2.56884 8.272 4.12084C8.272 5.57684 7.216 6.24884 5.68 6.24884H2.896V1.94484H5.68ZM11.5731 0.456843V11.4648H13.0771V0.216844L11.5731 0.456843ZM20.3155 6.31284V7.08084C19.9315 6.93684 19.2755 6.77684 18.4435 6.77684C16.2675 6.77684 14.8595 7.86484 14.8595 9.35284C14.8595 10.7608 15.8355 11.6248 17.5475 11.6248C18.8115 11.6248 19.8035 11.0008 20.4115 10.3448V11.4648H21.8195V6.29684C21.8195 3.76884 20.2195 2.82484 18.3795 2.82484C16.8115 2.82484 15.5155 3.56084 14.9555 4.13684V5.68884C15.6755 4.95284 16.8595 4.31284 18.1875 4.31284C19.3235 4.31284 20.3155 4.87284 20.3155 6.31284ZM16.2675 9.28884C16.2675 8.40884 17.1315 7.81684 18.8115 7.81684C19.3555 7.81684 19.9315 7.91284 20.3155 8.02484V9.46484C19.6595 10.0088 18.7475 10.4568 17.7875 10.4568C16.9395 10.4568 16.2675 10.1208 16.2675 9.28884ZM23.9794 2.98484V11.4648H25.4834V5.03284C26.0754 4.68084 27.0354 4.26484 28.0274 4.26484C29.2754 4.26484 30.0274 4.96884 30.0274 6.36084V11.4648H31.5314V6.02484C31.5314 3.94484 30.4594 2.82484 28.5874 2.82484C27.1954 2.82484 26.1074 3.46484 25.3874 4.05684V2.98484H23.9794ZM36.5559 4.31284H37.7879V11.4648H39.2919V4.31284H41.5479V2.98484H39.2919V2.95284C39.2919 1.99284 39.8679 1.44884 40.7479 1.44884C41.3879 1.44884 41.9959 1.68884 42.3479 1.96084V0.696843C42.0599 0.504843 41.4199 0.200843 40.5719 0.200843C39.0679 0.200843 37.7879 1.04884 37.7879 2.96884V2.98484H36.5559V4.31284ZM47.2138 11.6248C49.7578 11.6248 51.6138 9.72084 51.6138 7.22484C51.6138 4.69684 49.7578 2.82484 47.2138 2.82484C44.6698 2.82484 42.8138 4.69684 42.8138 7.22484C42.8138 9.72084 44.6698 11.6248 47.2138 11.6248ZM47.2138 10.2168C45.5498 10.2168 44.3018 8.93684 44.3018 7.22484C44.3018 5.48084 45.5498 4.23284 47.2138 4.23284C48.8938 4.23284 50.1258 5.48084 50.1258 7.22484C50.1258 8.95284 48.8938 10.2168 47.2138 10.2168ZM53.4481 2.98484V11.4648H54.9521V5.16084C55.5281 4.72884 56.4081 4.26484 57.2401 4.26484C57.8481 4.26484 58.3441 4.44084 58.7121 4.66484V3.08084C58.4081 2.92084 58.0561 2.82484 57.6881 2.82484C56.5521 2.82484 55.5121 3.54484 54.8561 4.20084V2.98484H53.4481ZM65.1865 0.216844L63.6825 0.456843V10.9528C64.5465 11.2728 65.6025 11.6248 67.0745 11.6248C69.4265 11.6248 71.4585 10.1688 71.4585 7.04884C71.4585 4.29684 69.8745 2.82484 67.8265 2.82484C66.7065 2.82484 65.7625 3.27284 65.1865 3.68884V0.216844ZM67.4105 4.20084C68.8505 4.20084 69.9065 5.22484 69.9065 7.12884C69.9065 9.35284 68.6745 10.2808 67.0105 10.2808C66.2905 10.2808 65.6985 10.1528 65.1865 9.99284V4.88884C65.6985 4.55284 66.4825 4.20084 67.4105 4.20084ZM74.0919 1.80084C74.7479 1.80084 75.1639 1.44884 75.1639 0.920843C75.1639 0.376843 74.7479 0.0248432 74.0919 0.0248432C73.4359 0.0248432 73.0039 0.376843 73.0039 0.920843C73.0039 1.44884 73.4359 1.80084 74.0919 1.80084ZM73.3239 2.98484V11.4648H74.8279V2.98484H73.3239ZM84.432 10.1368V3.52884C83.648 3.20884 82.608 2.82484 81.216 2.82484C78.784 2.82484 76.72 4.29684 76.72 7.19284C76.72 9.49684 78.208 10.8568 80.336 10.8568C81.488 10.8568 82.368 10.3928 82.928 9.96084V10.3288C82.928 11.8808 82.016 12.7448 80.272 12.7448C79.008 12.7448 77.952 12.2648 77.184 11.7368V13.2728C77.888 13.7048 79.04 14.1528 80.416 14.1528C82.624 14.1528 84.432 13.0008 84.432 10.1368ZM78.256 7.01684C78.256 5.16084 79.488 4.16884 81.2 4.16884C81.92 4.16884 82.464 4.31284 82.928 4.48884V8.76084C82.432 9.11284 81.632 9.49684 80.704 9.49684C79.28 9.49684 78.256 8.68084 78.256 7.01684ZM97.3174 10.8728V9.54484C96.6934 9.89684 95.5254 10.2008 94.3894 10.2008C92.6134 10.2008 91.4614 9.38484 91.3494 7.68884H97.4934V6.98484C97.4934 4.34484 96.1654 2.80884 93.8454 2.80884C91.4774 2.80884 89.8294 4.45684 89.8294 7.22484C89.8294 10.1048 91.6534 11.6248 94.2454 11.6248C95.4134 11.6248 96.7094 11.3208 97.3174 10.8728ZM93.7654 4.10484C95.2534 4.10484 95.9894 5.06484 96.0214 6.66484H91.3334C91.4134 5.04884 92.3574 4.10484 93.7654 4.10484ZM104.825 11.4648H106.553L103.529 7.16084L106.521 2.98484H104.809L102.489 6.34484L100.169 2.98484H98.4413L101.449 7.17684L98.4253 11.4648H100.137L102.489 7.96084L104.825 11.4648ZM111.101 11.6248C113.533 11.6248 115.693 10.1208 115.693 7.00084C115.693 4.18484 113.949 2.82484 111.965 2.82484C110.781 2.82484 109.885 3.27284 109.325 3.73684V2.98484H107.917V13.9928H109.421V11.4168C109.901 11.5448 110.413 11.6248 111.101 11.6248ZM111.549 4.16884C113.101 4.16884 114.141 5.22484 114.141 7.09684C114.141 9.27284 112.797 10.2808 111.037 10.2808C110.365 10.2808 109.853 10.1528 109.421 10.0088V4.87284C109.901 4.53684 110.637 4.16884 111.549 4.16884ZM124.614 10.8728V9.54484C123.99 9.89684 122.822 10.2008 121.686 10.2008C119.91 10.2008 118.758 9.38484 118.646 7.68884H124.79V6.98484C124.79 4.34484 123.462 2.80884 121.142 2.80884C118.774 2.80884 117.126 4.45684 117.126 7.22484C117.126 10.1048 118.95 11.6248 121.542 11.6248C122.71 11.6248 124.006 11.3208 124.614 10.8728ZM121.062 4.10484C122.55 4.10484 123.286 5.06484 123.318 6.66484H118.63C118.71 5.04884 119.654 4.10484 121.062 4.10484ZM126.698 2.98484V11.4648H128.202V5.03284C128.794 4.68084 129.754 4.26484 130.746 4.26484C131.994 4.26484 132.746 4.96884 132.746 6.36084V11.4648H134.25V6.02484C134.25 3.94484 133.178 2.82484 131.306 2.82484C129.914 2.82484 128.826 3.46484 128.106 4.05684V2.98484H126.698ZM140.225 6.87284L139.185 6.56884C138.097 6.24884 137.393 5.99284 137.393 5.22484C137.393 4.50484 138.113 4.15284 139.009 4.15284C140.209 4.15284 141.505 4.63284 142.113 5.09684V3.59284C141.521 3.19284 140.305 2.80884 139.089 2.80884C137.121 2.80884 135.937 3.86484 135.937 5.27284C135.937 6.74484 137.009 7.36884 138.273 7.68884L139.345 8.00884C140.433 8.29684 141.073 8.53684 141.073 9.27284C141.073 10.0728 140.449 10.3608 139.441 10.3608C138.129 10.3608 136.801 9.84884 136.017 9.35284V10.8248C136.657 11.2248 138.017 11.6888 139.377 11.6888C141.281 11.6888 142.497 10.8408 142.497 9.24084C142.497 7.92884 141.585 7.25684 140.225 6.87284ZM151.255 10.8728V9.54484C150.631 9.89684 149.463 10.2008 148.327 10.2008C146.551 10.2008 145.399 9.38484 145.287 7.68884H151.431V6.98484C151.431 4.34484 150.103 2.80884 147.783 2.80884C145.415 2.80884 143.767 4.45684 143.767 7.22484C143.767 10.1048 145.591 11.6248 148.183 11.6248C149.351 11.6248 150.647 11.3208 151.255 10.8728ZM147.703 4.10484C149.191 4.10484 149.927 5.06484 149.959 6.66484H145.271C145.351 5.04884 146.295 4.10484 147.703 4.10484ZM157.131 6.87284L156.091 6.56884C155.003 6.24884 154.299 5.99284 154.299 5.22484C154.299 4.50484 155.019 4.15284 155.915 4.15284C157.115 4.15284 158.411 4.63284 159.019 5.09684V3.59284C158.427 3.19284 157.211 2.80884 155.995 2.80884C154.027 2.80884 152.843 3.86484 152.843 5.27284C152.843 6.74484 153.915 7.36884 155.179 7.68884L156.251 8.00884C157.339 8.29684 157.979 8.53684 157.979 9.27284C157.979 10.0728 157.355 10.3608 156.347 10.3608C155.035 10.3608 153.707 9.84884 152.923 9.35284V10.8248C153.563 11.2248 154.923 11.6888 156.283 11.6888C158.187 11.6888 159.403 10.8408 159.403 9.24084C159.403 7.92884 158.491 7.25684 157.131 6.87284ZM162.337 9.64084H160.721L159.809 13.3528H161.041L162.337 9.64084ZM167.417 2.98484V11.4648H168.921V5.04884C169.497 4.69684 170.377 4.26484 171.305 4.26484C172.441 4.26484 173.145 4.95284 173.145 6.29684V11.4648H174.649V5.88084C174.649 5.59284 174.633 5.30484 174.585 5.04884C175.193 4.68084 176.089 4.26484 177.033 4.26484C178.185 4.26484 178.889 4.95284 178.889 6.29684V11.4648H180.377V5.96084C180.377 3.92884 179.369 2.82484 177.609 2.82484C176.137 2.82484 175.049 3.54484 174.313 4.20084C173.881 3.30484 173.049 2.82484 171.865 2.82484C170.537 2.82484 169.513 3.46484 168.825 4.05684V2.98484H167.417ZM187.566 6.31284V7.08084C187.182 6.93684 186.526 6.77684 185.694 6.77684C183.518 6.77684 182.11 7.86484 182.11 9.35284C182.11 10.7608 183.086 11.6248 184.798 11.6248C186.062 11.6248 187.054 11.0008 187.662 10.3448V11.4648H189.07V6.29684C189.07 3.76884 187.47 2.82484 185.63 2.82484C184.062 2.82484 182.766 3.56084 182.206 4.13684V5.68884C182.926 4.95284 184.11 4.31284 185.438 4.31284C186.574 4.31284 187.566 4.87284 187.566 6.31284ZM183.518 9.28884C183.518 8.40884 184.382 7.81684 186.062 7.81684C186.606 7.81684 187.182 7.91284 187.566 8.02484V9.46484C186.91 10.0088 185.998 10.4568 185.038 10.4568C184.19 10.4568 183.518 10.1208 183.518 9.28884ZM191.229 2.98484V11.4648H192.733V5.03284C193.325 4.68084 194.285 4.26484 195.277 4.26484C196.525 4.26484 197.277 4.96884 197.277 6.36084V11.4648H198.781V6.02484C198.781 3.94484 197.709 2.82484 195.837 2.82484C194.445 2.82484 193.357 3.46484 192.637 4.05684V2.98484H191.229ZM205.972 6.31284V7.08084C205.588 6.93684 204.932 6.77684 204.1 6.77684C201.924 6.77684 200.516 7.86484 200.516 9.35284C200.516 10.7608 201.492 11.6248 203.204 11.6248C204.468 11.6248 205.46 11.0008 206.068 10.3448V11.4648H207.476V6.29684C207.476 3.76884 205.876 2.82484 204.036 2.82484C202.468 2.82484 201.172 3.56084 200.612 4.13684V5.68884C201.332 4.95284 202.516 4.31284 203.844 4.31284C204.98 4.31284 205.972 4.87284 205.972 6.31284ZM201.924 9.28884C201.924 8.40884 202.788 7.81684 204.468 7.81684C205.012 7.81684 205.588 7.91284 205.972 8.02484V9.46484C205.316 10.0088 204.404 10.4568 203.444 10.4568C202.596 10.4568 201.924 10.1208 201.924 9.28884ZM216.948 10.1368V3.52884C216.164 3.20884 215.124 2.82484 213.732 2.82484C211.3 2.82484 209.236 4.29684 209.236 7.19284C209.236 9.49684 210.724 10.8568 212.852 10.8568C214.004 10.8568 214.884 10.3928 215.444 9.96084V10.3288C215.444 11.8808 214.532 12.7448 212.788 12.7448C211.524 12.7448 210.468 12.2648 209.7 11.7368V13.2728C210.404 13.7048 211.556 14.1528 212.932 14.1528C215.14 14.1528 216.948 13.0008 216.948 10.1368ZM210.772 7.01684C210.772 5.16084 212.004 4.16884 213.716 4.16884C214.436 4.16884 214.98 4.31284 215.444 4.48884V8.76084C214.948 9.11284 214.148 9.49684 213.22 9.49684C211.796 9.49684 210.772 8.68084 210.772 7.01684ZM226.255 10.8728V9.54484C225.631 9.89684 224.463 10.2008 223.327 10.2008C221.551 10.2008 220.399 9.38484 220.287 7.68884H226.431V6.98484C226.431 4.34484 225.103 2.80884 222.783 2.80884C220.415 2.80884 218.767 4.45684 218.767 7.22484C218.767 10.1048 220.591 11.6248 223.183 11.6248C224.351 11.6248 225.647 11.3208 226.255 10.8728ZM222.703 4.10484C224.191 4.10484 224.927 5.06484 224.959 6.66484H220.271C220.351 5.04884 221.295 4.10484 222.703 4.10484ZM235.101 11.6248C237.533 11.6248 239.693 10.1208 239.693 7.00084C239.693 4.18484 237.949 2.82484 235.965 2.82484C234.781 2.82484 233.885 3.27284 233.325 3.73684V2.98484H231.917V13.9928H233.421V11.4168C233.901 11.5448 234.413 11.6248 235.101 11.6248ZM235.549 4.16884C237.101 4.16884 238.141 5.22484 238.141 7.09684C238.141 9.27284 236.797 10.2808 235.037 10.2808C234.365 10.2808 233.853 10.1528 233.421 10.0088V4.87284C233.901 4.53684 234.637 4.16884 235.549 4.16884ZM241.526 2.98484V11.4648H243.03V5.16084C243.606 4.72884 244.486 4.26484 245.318 4.26484C245.926 4.26484 246.422 4.44084 246.79 4.66484V3.08084C246.486 2.92084 246.134 2.82484 245.766 2.82484C244.63 2.82484 243.59 3.54484 242.934 4.20084V2.98484H241.526ZM252.183 11.6248C254.727 11.6248 256.583 9.72084 256.583 7.22484C256.583 4.69684 254.727 2.82484 252.183 2.82484C249.639 2.82484 247.783 4.69684 247.783 7.22484C247.783 9.72084 249.639 11.6248 252.183 11.6248ZM252.183 10.2168C250.519 10.2168 249.271 8.93684 249.271 7.22484C249.271 5.48084 250.519 4.23284 252.183 4.23284C253.863 4.23284 255.095 5.48084 255.095 7.22484C255.095 8.95284 253.863 10.2168 252.183 10.2168ZM264.481 1.80084C265.137 1.80084 265.553 1.44884 265.553 0.920843C265.553 0.376843 265.137 0.0248432 264.481 0.0248432C263.825 0.0248432 263.393 0.376843 263.393 0.920843C263.393 1.44884 263.825 1.80084 264.481 1.80084ZM257.681 4.31284H258.913V11.4648H260.417V4.31284H263.761V11.4648H265.249V2.98484H260.417V2.77684C260.417 1.84884 260.865 1.43284 261.729 1.43284C261.969 1.43284 262.193 1.46484 262.433 1.52884V0.280843C262.161 0.232843 261.873 0.184843 261.569 0.184843C260.241 0.184843 258.913 0.824843 258.913 2.88884V2.98484H257.681V4.31284ZM272.676 11.0968V9.80084C272.292 10.0408 271.668 10.2648 270.996 10.2648C270.132 10.2648 269.62 9.88084 269.62 8.90484V4.31284H272.612V2.98484H269.62V1.38484H269.268L266.82 3.92884V4.31284H268.116V9.06484C268.116 11.1128 269.3 11.6248 270.628 11.6248C271.572 11.6248 272.26 11.3688 272.676 11.0968ZM278.1 6.87284L277.06 6.56884C275.972 6.24884 275.268 5.99284 275.268 5.22484C275.268 4.50484 275.988 4.15284 276.884 4.15284C278.084 4.15284 279.38 4.63284 279.988 5.09684V3.59284C279.396 3.19284 278.18 2.80884 276.964 2.80884C274.996 2.80884 273.812 3.86484 273.812 5.27284C273.812 6.74484 274.884 7.36884 276.148 7.68884L277.22 8.00884C278.308 8.29684 278.948 8.53684 278.948 9.27284C278.948 10.0728 278.324 10.3608 277.316 10.3608C276.004 10.3608 274.676 9.84884 273.892 9.35284V10.8248C274.532 11.2248 275.892 11.6888 277.252 11.6888C279.156 11.6888 280.372 10.8408 280.372 9.24084C280.372 7.92884 279.46 7.25684 278.1 6.87284ZM283.306 9.64084H281.69L280.778 13.3528H282.01L283.306 9.64084ZM3.584 35.4648H5.344L8.832 26.9848H7.2L4.496 34.1368L1.76 26.9848H0.128L3.584 35.4648ZM17.1455 34.8728V33.5448C16.5215 33.8968 15.3535 34.2008 14.2175 34.2008C12.4415 34.2008 11.2895 33.3848 11.1775 31.6888H17.3215V30.9848C17.3215 28.3448 15.9935 26.8088 13.6735 26.8088C11.3055 26.8088 9.6575 28.4568 9.6575 31.2248C9.6575 34.1048 11.4815 35.6248 14.0735 35.6248C15.2415 35.6248 16.5375 35.3208 17.1455 34.8728ZM13.5935 28.1048C15.0815 28.1048 15.8175 29.0648 15.8495 30.6648H11.1615C11.2415 29.0488 12.1855 28.1048 13.5935 28.1048ZM19.2294 26.9848V35.4648H20.7334V29.0328C21.3254 28.6808 22.2854 28.2648 23.2774 28.2648C24.5254 28.2648 25.2774 28.9688 25.2774 30.3608V35.4648H26.7814V30.0248C26.7814 27.9448 25.7094 26.8248 23.8374 26.8248C22.4454 26.8248 21.3574 27.4648 20.6374 28.0568V26.9848H19.2294ZM34.9318 35.4648H36.3398V24.2168L34.8358 24.4568V27.0328C34.3558 26.9208 33.8278 26.8248 33.1398 26.8248C30.7238 26.8248 28.5638 28.3288 28.5638 31.4488C28.5638 34.2648 30.3078 35.6248 32.2918 35.6248C33.4758 35.6248 34.3718 35.1768 34.9318 34.7128V35.4648ZM33.2198 28.1688C33.8918 28.1688 34.4038 28.2968 34.8358 28.4408V33.5928C34.3718 33.9128 33.5878 34.2808 32.6918 34.2808C31.1238 34.2808 30.0998 33.2248 30.0998 31.3528C30.0998 29.1768 31.4598 28.1688 33.2198 28.1688ZM42.5731 35.6248C45.1171 35.6248 46.9731 33.7208 46.9731 31.2248C46.9731 28.6968 45.1171 26.8248 42.5731 26.8248C40.0291 26.8248 38.1731 28.6968 38.1731 31.2248C38.1731 33.7208 40.0291 35.6248 42.5731 35.6248ZM42.5731 34.2168C40.9091 34.2168 39.6611 32.9368 39.6611 31.2248C39.6611 29.4808 40.9091 28.2328 42.5731 28.2328C44.2531 28.2328 45.4851 29.4808 45.4851 31.2248C45.4851 32.9528 44.2531 34.2168 42.5731 34.2168ZM48.8075 26.9848V35.4648H50.3115V29.1608C50.8875 28.7288 51.7675 28.2648 52.5995 28.2648C53.2075 28.2648 53.7035 28.4408 54.0715 28.6648V27.0808C53.7675 26.9208 53.4155 26.8248 53.0475 26.8248C51.9115 26.8248 50.8715 27.5448 50.2155 28.2008V26.9848H48.8075ZM59.2558 30.8728L58.2158 30.5688C57.1278 30.2488 56.4238 29.9928 56.4238 29.2248C56.4238 28.5048 57.1438 28.1528 58.0398 28.1528C59.2398 28.1528 60.5358 28.6328 61.1438 29.0968V27.5928C60.5518 27.1928 59.3358 26.8088 58.1198 26.8088C56.1518 26.8088 54.9678 27.8648 54.9678 29.2728C54.9678 30.7448 56.0398 31.3688 57.3038 31.6888L58.3758 32.0088C59.4638 32.2968 60.1038 32.5368 60.1038 33.2728C60.1038 34.0728 59.4798 34.3608 58.4718 34.3608C57.1598 34.3608 55.8318 33.8488 55.0478 33.3528V34.8248C55.6878 35.2248 57.0478 35.6888 58.4078 35.6888C60.3118 35.6888 61.5278 34.8408 61.5278 33.2408C61.5278 31.9288 60.6158 31.2568 59.2558 30.8728ZM64.4621 33.6408H62.8461L61.9341 37.3528H63.1661L64.4621 33.6408ZM74.5499 30.3128V31.0808C74.1659 30.9368 73.5099 30.7768 72.6779 30.7768C70.5019 30.7768 69.0939 31.8648 69.0939 33.3528C69.0939 34.7608 70.0699 35.6248 71.7819 35.6248C73.0459 35.6248 74.0379 35.0008 74.6459 34.3448V35.4648H76.0539V30.2968C76.0539 27.7688 74.4539 26.8248 72.6139 26.8248C71.0459 26.8248 69.7499 27.5608 69.1899 28.1368V29.6888C69.9099 28.9528 71.0939 28.3128 72.4219 28.3128C73.5579 28.3128 74.5499 28.8728 74.5499 30.3128ZM70.5019 33.2888C70.5019 32.4088 71.3659 31.8168 73.0459 31.8168C73.5899 31.8168 74.1659 31.9128 74.5499 32.0248V33.4648C73.8939 34.0088 72.9819 34.4568 72.0219 34.4568C71.1739 34.4568 70.5019 34.1208 70.5019 33.2888ZM78.2138 26.9848V35.4648H79.7178V29.0328C80.3098 28.6808 81.2698 28.2648 82.2618 28.2648C83.5098 28.2648 84.2618 28.9688 84.2618 30.3608V35.4648H85.7658V30.0248C85.7658 27.9448 84.6938 26.8248 82.8218 26.8248C81.4298 26.8248 80.3418 27.4648 79.6218 28.0568V26.9848H78.2138ZM93.9161 35.4648H95.3241V24.2168L93.8201 24.4568V27.0328C93.3401 26.9208 92.8121 26.8248 92.1241 26.8248C89.7081 26.8248 87.5481 28.3288 87.5481 31.4488C87.5481 34.2648 89.2921 35.6248 91.2761 35.6248C92.4601 35.6248 93.3561 35.1768 93.9161 34.7128V35.4648ZM92.2041 28.1688C92.8761 28.1688 93.3881 28.2968 93.8201 28.4408V33.5928C93.3561 33.9128 92.5721 34.2808 91.6761 34.2808C90.1081 34.2808 89.0841 33.2248 89.0841 31.3528C89.0841 29.1768 90.4441 28.1688 92.2041 28.1688ZM101.136 26.9848V35.4648H102.64V29.0488C103.216 28.6968 104.096 28.2648 105.024 28.2648C106.16 28.2648 106.864 28.9528 106.864 30.2968V35.4648H108.368V29.8808C108.368 29.5928 108.352 29.3048 108.304 29.0488C108.912 28.6808 109.808 28.2648 110.752 28.2648C111.904 28.2648 112.608 28.9528 112.608 30.2968V35.4648H114.096V29.9608C114.096 27.9288 113.088 26.8248 111.328 26.8248C109.856 26.8248 108.768 27.5448 108.032 28.2008C107.6 27.3048 106.768 26.8248 105.584 26.8248C104.256 26.8248 103.232 27.4648 102.544 28.0568V26.9848H101.136ZM120.276 35.6248C122.82 35.6248 124.676 33.7208 124.676 31.2248C124.676 28.6968 122.82 26.8248 120.276 26.8248C117.732 26.8248 115.876 28.6968 115.876 31.2248C115.876 33.7208 117.732 35.6248 120.276 35.6248ZM120.276 34.2168C118.612 34.2168 117.364 32.9368 117.364 31.2248C117.364 29.4808 118.612 28.2328 120.276 28.2328C121.956 28.2328 123.188 29.4808 123.188 31.2248C123.188 32.9528 121.956 34.2168 120.276 34.2168ZM126.511 26.9848V35.4648H128.015V29.1608C128.591 28.7288 129.471 28.2648 130.303 28.2648C130.911 28.2648 131.407 28.4408 131.775 28.6648V27.0808C131.471 26.9208 131.119 26.8248 130.751 26.8248C129.615 26.8248 128.575 27.5448 127.919 28.2008V26.9848H126.511ZM140.255 34.8728V33.5448C139.631 33.8968 138.463 34.2008 137.327 34.2008C135.551 34.2008 134.399 33.3848 134.287 31.6888H140.431V30.9848C140.431 28.3448 139.103 26.8088 136.783 26.8088C134.415 26.8088 132.767 28.4568 132.767 31.2248C132.767 34.1048 134.591 35.6248 137.183 35.6248C138.351 35.6248 139.647 35.3208 140.255 34.8728ZM136.703 28.1048C138.191 28.1048 138.927 29.0648 138.959 30.6648H134.271C134.351 29.0488 135.295 28.1048 136.703 28.1048ZM147.677 35.4648H149.421L151.645 28.6808L153.837 35.4648H155.597L158.189 26.9848H156.573L154.701 34.0408L152.493 26.9848H150.781L148.573 34.0408L146.717 26.9848H145.085L147.677 35.4648ZM160.404 25.8008C161.06 25.8008 161.476 25.4488 161.476 24.9208C161.476 24.3768 161.06 24.0248 160.404 24.0248C159.748 24.0248 159.316 24.3768 159.316 24.9208C159.316 25.4488 159.748 25.8008 160.404 25.8008ZM159.636 26.9848V35.4648H161.14V26.9848H159.636ZM168.489 35.0968V33.8008C168.105 34.0408 167.481 34.2648 166.809 34.2648C165.945 34.2648 165.433 33.8808 165.433 32.9048V28.3128H168.425V26.9848H165.433V25.3848H165.081L162.633 27.9288V28.3128H163.929V33.0648C163.929 35.1128 165.113 35.6248 166.441 35.6248C167.385 35.6248 168.073 35.3688 168.489 35.0968ZM174.168 28.2648C175.416 28.2648 176.168 28.9688 176.168 30.3608V35.4648H177.672V30.0248C177.672 27.9448 176.6 26.8248 174.728 26.8248C173.4 26.8248 172.344 27.4008 171.624 27.9768V24.2168L170.12 24.4568V35.4648H171.624V29.0328C172.216 28.6808 173.176 28.2648 174.168 28.2648ZM185.897 35.4648H187.657L191.145 26.9848H189.513L186.809 34.1368L184.073 26.9848H182.441L185.897 35.4648ZM193.17 25.8008C193.826 25.8008 194.242 25.4488 194.242 24.9208C194.242 24.3768 193.826 24.0248 193.17 24.0248C192.514 24.0248 192.082 24.3768 192.082 24.9208C192.082 25.4488 192.514 25.8008 193.17 25.8008ZM192.402 26.9848V35.4648H193.906V26.9848H192.402ZM199.99 30.8728L198.95 30.5688C197.862 30.2488 197.158 29.9928 197.158 29.2248C197.158 28.5048 197.878 28.1528 198.774 28.1528C199.974 28.1528 201.27 28.6328 201.878 29.0968V27.5928C201.286 27.1928 200.07 26.8088 198.854 26.8088C196.886 26.8088 195.702 27.8648 195.702 29.2728C195.702 30.7448 196.774 31.3688 198.038 31.6888L199.11 32.0088C200.198 32.2968 200.838 32.5368 200.838 33.2728C200.838 34.0728 200.214 34.3608 199.206 34.3608C197.894 34.3608 196.566 33.8488 195.782 33.3528V34.8248C196.422 35.2248 197.782 35.6888 199.142 35.6888C201.046 35.6888 202.262 34.8408 202.262 33.2408C202.262 31.9288 201.35 31.2568 199.99 30.8728ZM204.733 25.8008C205.389 25.8008 205.805 25.4488 205.805 24.9208C205.805 24.3768 205.389 24.0248 204.733 24.0248C204.077 24.0248 203.645 24.3768 203.645 24.9208C203.645 25.4488 204.077 25.8008 204.733 25.8008ZM203.965 26.9848V35.4648H205.469V26.9848H203.965ZM209.265 24.2168L207.761 24.4568V34.9528C208.625 35.2728 209.681 35.6248 211.153 35.6248C213.505 35.6248 215.537 34.1688 215.537 31.0488C215.537 28.2968 213.953 26.8248 211.905 26.8248C210.785 26.8248 209.841 27.2728 209.265 27.6888V24.2168ZM211.489 28.2008C212.929 28.2008 213.985 29.2248 213.985 31.1288C213.985 33.3528 212.753 34.2808 211.089 34.2808C210.369 34.2808 209.777 34.1528 209.265 33.9928V28.8888C209.777 28.5528 210.561 28.2008 211.489 28.2008ZM218.17 25.8008C218.826 25.8008 219.242 25.4488 219.242 24.9208C219.242 24.3768 218.826 24.0248 218.17 24.0248C217.514 24.0248 217.082 24.3768 217.082 24.9208C217.082 25.4488 217.514 25.8008 218.17 25.8008ZM217.402 26.9848V35.4648H218.906V26.9848H217.402ZM221.198 24.4568V35.4648H222.702V24.2168L221.198 24.4568ZM225.733 25.8008C226.389 25.8008 226.805 25.4488 226.805 24.9208C226.805 24.3768 226.389 24.0248 225.733 24.0248C225.077 24.0248 224.645 24.3768 224.645 24.9208C224.645 25.4488 225.077 25.8008 225.733 25.8008ZM224.965 26.9848V35.4648H226.469V26.9848H224.965ZM233.817 35.0968V33.8008C233.433 34.0408 232.809 34.2648 232.137 34.2648C231.273 34.2648 230.761 33.8808 230.761 32.9048V28.3128H233.753V26.9848H230.761V25.3848H230.409L227.961 27.9288V28.3128H229.257V33.0648C229.257 35.1128 230.441 35.6248 231.769 35.6248C232.713 35.6248 233.401 35.3688 233.817 35.0968ZM236.712 38.1528C237.832 38.1528 238.744 37.5608 239.384 36.0728L243.384 26.9848H241.72L239.032 33.5448L236.264 26.9848H234.584L238.328 35.2248L238.04 35.8488C237.768 36.4248 237.272 36.7768 236.632 36.7768C235.752 36.7768 235.064 36.2648 234.76 35.9448V37.4328C235.096 37.7368 235.8 38.1528 236.712 38.1528ZM252.104 35.6248C254.648 35.6248 256.504 33.7208 256.504 31.2248C256.504 28.6968 254.648 26.8248 252.104 26.8248C249.56 26.8248 247.704 28.6968 247.704 31.2248C247.704 33.7208 249.56 35.6248 252.104 35.6248ZM252.104 34.2168C250.44 34.2168 249.192 32.9368 249.192 31.2248C249.192 29.4808 250.44 28.2328 252.104 28.2328C253.784 28.2328 255.016 29.4808 255.016 31.2248C255.016 32.9528 253.784 34.2168 252.104 34.2168ZM260.803 35.4648H262.563L266.051 26.9848H264.419L261.715 34.1368L258.979 26.9848H257.347L260.803 35.4648ZM274.364 34.8728V33.5448C273.74 33.8968 272.572 34.2008 271.436 34.2008C269.66 34.2008 268.508 33.3848 268.396 31.6888H274.54V30.9848C274.54 28.3448 273.212 26.8088 270.892 26.8088C268.524 26.8088 266.876 28.4568 266.876 31.2248C266.876 34.1048 268.7 35.6248 271.292 35.6248C272.46 35.6248 273.756 35.3208 274.364 34.8728ZM270.812 28.1048C272.3 28.1048 273.036 29.0648 273.068 30.6648H268.38C268.46 29.0488 269.404 28.1048 270.812 28.1048ZM276.448 26.9848V35.4648H277.952V29.1608C278.528 28.7288 279.408 28.2648 280.24 28.2648C280.848 28.2648 281.344 28.4408 281.712 28.6648V27.0808C281.408 26.9208 281.056 26.8248 280.688 26.8248C279.552 26.8248 278.512 27.5448 277.856 28.2008V26.9848H276.448ZM2.384 62.1528C3.504 62.1528 4.416 61.5608 5.056 60.0728L9.056 50.9848H7.392L4.704 57.5448L1.936 50.9848H0.256L4 59.2248L3.712 59.8488C3.44 60.4248 2.944 60.7768 2.304 60.7768C1.424 60.7768 0.736 60.2648 0.432 59.9448V61.4328C0.768 61.7368 1.472 62.1528 2.384 62.1528ZM14.1981 59.6248C16.7421 59.6248 18.5981 57.7208 18.5981 55.2248C18.5981 52.6968 16.7421 50.8248 14.1981 50.8248C11.6541 50.8248 9.79813 52.6968 9.79813 55.2248C9.79813 57.7208 11.6541 59.6248 14.1981 59.6248ZM14.1981 58.2168C12.5341 58.2168 11.2861 56.9368 11.2861 55.2248C11.2861 53.4808 12.5341 52.2328 14.1981 52.2328C15.8781 52.2328 17.1101 53.4808 17.1101 55.2248C17.1101 56.9528 15.8781 58.2168 14.1981 58.2168ZM23.8725 58.1848C22.6245 58.1848 21.8725 57.4808 21.8725 56.0888V50.9848H20.3685V56.4248C20.3685 58.5048 21.4405 59.6248 23.2965 59.6248C24.7045 59.6248 25.7925 58.9848 26.5125 58.3928V59.4648H27.9205V50.9848H26.4165V57.4008C25.8085 57.7688 24.8645 58.1848 23.8725 58.1848ZM30.1669 50.9848V59.4648H31.6709V53.1608C32.2469 52.7288 33.1269 52.2648 33.9589 52.2648C34.5669 52.2648 35.0629 52.4408 35.4309 52.6648V51.0808C35.1269 50.9208 34.7749 50.8248 34.4069 50.8248C33.2709 50.8248 32.2309 51.5448 31.5749 52.2008V50.9848H30.1669ZM41.9053 48.2168L40.4013 48.4568V58.9528C41.2653 59.2728 42.3213 59.6248 43.7933 59.6248C46.1453 59.6248 48.1773 58.1688 48.1773 55.0488C48.1773 52.2968 46.5933 50.8248 44.5453 50.8248C43.4253 50.8248 42.4813 51.2728 41.9053 51.6888V48.2168ZM44.1293 52.2008C45.5693 52.2008 46.6253 53.2248 46.6253 55.1288C46.6253 57.3528 45.3933 58.2808 43.7293 58.2808C43.0093 58.2808 42.4173 58.1528 41.9053 57.9928V52.8888C42.4173 52.5528 43.2013 52.2008 44.1293 52.2008ZM53.4506 58.1848C52.2026 58.1848 51.4506 57.4808 51.4506 56.0888V50.9848H49.9466V56.4248C49.9466 58.5048 51.0186 59.6248 52.8746 59.6248C54.2826 59.6248 55.3706 58.9848 56.0906 58.3928V59.4648H57.4986V50.9848H55.9946V57.4008C55.3866 57.7688 54.4426 58.1848 53.4506 58.1848ZM63.537 54.8728L62.497 54.5688C61.409 54.2488 60.705 53.9928 60.705 53.2248C60.705 52.5048 61.425 52.1528 62.321 52.1528C63.521 52.1528 64.817 52.6328 65.425 53.0968V51.5928C64.833 51.1928 63.617 50.8088 62.401 50.8088C60.433 50.8088 59.249 51.8648 59.249 53.2728C59.249 54.7448 60.321 55.3688 61.585 55.6888L62.657 56.0088C63.745 56.2968 64.385 56.5368 64.385 57.2728C64.385 58.0728 63.761 58.3608 62.753 58.3608C61.441 58.3608 60.113 57.8488 59.329 57.3528V58.8248C59.969 59.2248 61.329 59.6888 62.689 59.6888C64.593 59.6888 65.809 58.8408 65.809 57.2408C65.809 55.9288 64.897 55.2568 63.537 54.8728ZM68.2794 49.8008C68.9354 49.8008 69.3514 49.4488 69.3514 48.9208C69.3514 48.3768 68.9354 48.0248 68.2794 48.0248C67.6234 48.0248 67.1914 48.3768 67.1914 48.9208C67.1914 49.4488 67.6234 49.8008 68.2794 49.8008ZM67.5114 50.9848V59.4648H69.0154V50.9848H67.5114ZM71.3075 50.9848V59.4648H72.8115V53.0328C73.4035 52.6808 74.3635 52.2648 75.3555 52.2648C76.6035 52.2648 77.3555 52.9688 77.3555 54.3608V59.4648H78.8595V54.0248C78.8595 51.9448 77.7875 50.8248 75.9155 50.8248C74.5235 50.8248 73.4355 51.4648 72.7155 52.0568V50.9848H71.3075ZM88.1299 58.8728V57.5448C87.5059 57.8968 86.3379 58.2008 85.2019 58.2008C83.4259 58.2008 82.2739 57.3848 82.1619 55.6888H88.3059V54.9848C88.3059 52.3448 86.9779 50.8088 84.6579 50.8088C82.2899 50.8088 80.6419 52.4568 80.6419 55.2248C80.6419 58.1048 82.4659 59.6248 85.0579 59.6248C86.2259 59.6248 87.5219 59.3208 88.1299 58.8728ZM84.5779 52.1048C86.0659 52.1048 86.8019 53.0648 86.8339 54.6648H82.1459C82.2259 53.0488 83.1699 52.1048 84.5779 52.1048ZM94.0058 54.8728L92.9658 54.5688C91.8778 54.2488 91.1738 53.9928 91.1738 53.2248C91.1738 52.5048 91.8938 52.1528 92.7898 52.1528C93.9898 52.1528 95.2858 52.6328 95.8938 53.0968V51.5928C95.3018 51.1928 94.0858 50.8088 92.8698 50.8088C90.9018 50.8088 89.7178 51.8648 89.7178 53.2728C89.7178 54.7448 90.7898 55.3688 92.0538 55.6888L93.1258 56.0088C94.2138 56.2968 94.8538 56.5368 94.8538 57.2728C94.8538 58.0728 94.2298 58.3608 93.2218 58.3608C91.9098 58.3608 90.5818 57.8488 89.7978 57.3528V58.8248C90.4378 59.2248 91.7978 59.6888 93.1578 59.6888C95.0618 59.6888 96.2778 58.8408 96.2778 57.2408C96.2778 55.9288 95.3658 55.2568 94.0058 54.8728ZM101.74 54.8728L100.7 54.5688C99.6121 54.2488 98.9081 53.9928 98.9081 53.2248C98.9081 52.5048 99.6281 52.1528 100.524 52.1528C101.724 52.1528 103.02 52.6328 103.628 53.0968V51.5928C103.036 51.1928 101.82 50.8088 100.604 50.8088C98.6361 50.8088 97.4521 51.8648 97.4521 53.2728C97.4521 54.7448 98.5241 55.3688 99.7881 55.6888L100.86 56.0088C101.948 56.2968 102.588 56.5368 102.588 57.2728C102.588 58.0728 101.964 58.3608 100.956 58.3608C99.6441 58.3608 98.3161 57.8488 97.5321 57.3528V58.8248C98.1721 59.2248 99.5321 59.6888 100.892 59.6888C102.796 59.6888 104.012 58.8408 104.012 57.2408C104.012 55.9288 103.1 55.2568 101.74 54.8728ZM106.659 48.4568H105.283L105.411 51.7848H106.499L106.659 48.4568ZM118.777 51.4648C118.137 51.0328 117.225 50.8088 116.249 50.8088C113.657 50.8088 111.673 52.5688 111.673 55.2248C111.673 57.8008 113.641 59.6248 116.233 59.6248C117.225 59.6248 118.137 59.3848 118.777 58.9528V57.4488C118.137 57.9128 117.241 58.2008 116.281 58.2008C114.489 58.2008 113.177 57.0168 113.177 55.2248C113.177 53.3848 114.489 52.2328 116.297 52.2328C117.241 52.2328 118.137 52.5048 118.777 52.9688V51.4648ZM125.55 54.3128V55.0808C125.166 54.9368 124.51 54.7768 123.678 54.7768C121.502 54.7768 120.094 55.8648 120.094 57.3528C120.094 58.7608 121.07 59.6248 122.782 59.6248C124.046 59.6248 125.038 59.0008 125.646 58.3448V59.4648H127.054V54.2968C127.054 51.7688 125.454 50.8248 123.614 50.8248C122.046 50.8248 120.75 51.5608 120.19 52.1368V53.6888C120.91 52.9528 122.094 52.3128 123.422 52.3128C124.558 52.3128 125.55 52.8728 125.55 54.3128ZM121.502 57.2888C121.502 56.4088 122.366 55.8168 124.046 55.8168C124.59 55.8168 125.166 55.9128 125.55 56.0248V57.4648C124.894 58.0088 123.982 58.4568 123.022 58.4568C122.174 58.4568 121.502 58.1208 121.502 57.2888ZM133.006 54.8728L131.966 54.5688C130.878 54.2488 130.174 53.9928 130.174 53.2248C130.174 52.5048 130.894 52.1528 131.79 52.1528C132.99 52.1528 134.286 52.6328 134.894 53.0968V51.5928C134.302 51.1928 133.086 50.8088 131.87 50.8088C129.902 50.8088 128.718 51.8648 128.718 53.2728C128.718 54.7448 129.79 55.3688 131.054 55.6888L132.126 56.0088C133.214 56.2968 133.854 56.5368 133.854 57.2728C133.854 58.0728 133.23 58.3608 132.222 58.3608C130.91 58.3608 129.582 57.8488 128.798 57.3528V58.8248C129.438 59.2248 130.798 59.6888 132.158 59.6888C134.062 59.6888 135.278 58.8408 135.278 57.2408C135.278 55.9288 134.366 55.2568 133.006 54.8728ZM140.996 52.2648C142.244 52.2648 142.996 52.9688 142.996 54.3608V59.4648H144.5V54.0248C144.5 51.9448 143.428 50.8248 141.556 50.8248C140.228 50.8248 139.172 51.4008 138.452 51.9768V48.2168L136.948 48.4568V59.4648H138.452V53.0328C139.044 52.6808 140.004 52.2648 140.996 52.2648ZM149.525 52.3128H150.757V59.4648H152.261V52.3128H154.133V50.9848H152.261V50.8888C152.261 49.7848 152.933 49.4328 153.861 49.4328C154.469 49.4328 155.125 49.6088 155.605 49.8168V59.4648H157.093V48.2168L155.685 48.6488C155.301 48.4728 154.501 48.2328 153.621 48.2328C152.149 48.2328 150.757 49.0008 150.757 50.9688V50.9848H149.525V52.3128ZM163.417 59.6248C165.961 59.6248 167.817 57.7208 167.817 55.2248C167.817 52.6968 165.961 50.8248 163.417 50.8248C160.873 50.8248 159.017 52.6968 159.017 55.2248C159.017 57.7208 160.873 59.6248 163.417 59.6248ZM163.417 58.2168C161.753 58.2168 160.505 56.9368 160.505 55.2248C160.505 53.4808 161.753 52.2328 163.417 52.2328C165.097 52.2328 166.329 53.4808 166.329 55.2248C166.329 56.9528 165.097 58.2168 163.417 58.2168ZM171.411 59.4648H173.155L175.379 52.6808L177.571 59.4648H179.331L181.923 50.9848H180.307L178.435 58.0408L176.227 50.9848H174.515L172.307 58.0408L170.451 50.9848H168.819L171.411 59.4648ZM183.723 59.6248C184.299 59.6248 184.779 59.1608 184.779 58.5848C184.779 58.0088 184.299 57.5288 183.723 57.5288C183.163 57.5288 182.683 58.0088 182.683 58.5848C182.683 59.1608 183.163 59.6248 183.723 59.6248Z" fill="#08051E" fill-opacity="0.64"/>
</svg>
