<svg width="382" height="175" viewBox="0 0 382 175" fill="none" xmlns="http://www.w3.org/2000/svg">
<path d="M0.312 0.991878V11.9999H1.896V8.25588H4.792C7.224 8.25588 8.936 7.00788 8.936 4.65588C8.936 2.17588 7.224 0.991878 4.792 0.991878H0.312ZM4.68 2.47988C6.216 2.47988 7.272 3.10388 7.272 4.65588C7.272 6.11188 6.216 6.78388 4.68 6.78388H1.896V2.47988H4.68ZM10.5731 0.991878V11.9999H12.0771V0.751878L10.5731 0.991878ZM19.3155 6.84788V7.61588C18.9315 7.47188 18.2755 7.31188 17.4435 7.31188C15.2675 7.31188 13.8595 8.39988 13.8595 9.88788C13.8595 11.2959 14.8355 12.1599 16.5475 12.1599C17.8115 12.1599 18.8035 11.5359 19.4115 10.8799V11.9999H20.8195V6.83188C20.8195 4.30388 19.2195 3.35988 17.3795 3.35988C15.8115 3.35988 14.5155 4.09588 13.9555 4.67188V6.22388C14.6755 5.48788 15.8595 4.84788 17.1875 4.84788C18.3235 4.84788 19.3155 5.40788 19.3155 6.84788ZM15.2675 9.82388C15.2675 8.94388 16.1315 8.35188 17.8115 8.35188C18.3555 8.35188 18.9315 8.44788 19.3155 8.55988V9.99988C18.6595 10.5439 17.7475 10.9919 16.7875 10.9919C15.9395 10.9919 15.2675 10.6559 15.2675 9.82388ZM22.9794 3.51988V11.9999H24.4834V5.56788C25.0754 5.21588 26.0354 4.79988 27.0274 4.79988C28.2754 4.79988 29.0274 5.50388 29.0274 6.89588V11.9999H30.5314V6.55988C30.5314 4.47988 29.4594 3.35988 27.5874 3.35988C26.1954 3.35988 25.1074 3.99988 24.3874 4.59188V3.51988H22.9794ZM35.5559 4.84788H36.7879V11.9999H38.2919V4.84788H40.5479V3.51988H38.2919V3.48788C38.2919 2.52788 38.8679 1.98388 39.7479 1.98388C40.3879 1.98388 40.9959 2.22388 41.3479 2.49588V1.23188C41.0599 1.03988 40.4199 0.735877 39.5719 0.735877C38.0679 0.735877 36.7879 1.58388 36.7879 3.50388V3.51988H35.5559V4.84788ZM46.2138 12.1599C48.7578 12.1599 50.6138 10.2559 50.6138 7.75988C50.6138 5.23188 48.7578 3.35988 46.2138 3.35988C43.6698 3.35988 41.8138 5.23188 41.8138 7.75988C41.8138 10.2559 43.6698 12.1599 46.2138 12.1599ZM46.2138 10.7519C44.5498 10.7519 43.3018 9.47188 43.3018 7.75988C43.3018 6.01588 44.5498 4.76788 46.2138 4.76788C47.8938 4.76788 49.1258 6.01588 49.1258 7.75988C49.1258 9.48788 47.8938 10.7519 46.2138 10.7519ZM52.4481 3.51988V11.9999H53.9521V5.69588C54.5281 5.26388 55.4081 4.79988 56.2401 4.79988C56.8481 4.79988 57.3441 4.97588 57.7121 5.19988V3.61588C57.4081 3.45588 57.0561 3.35988 56.6881 3.35988C55.5521 3.35988 54.5121 4.07988 53.8561 4.73588V3.51988H52.4481ZM64.1865 0.751878L62.6825 0.991878V11.4879C63.5465 11.8079 64.6025 12.1599 66.0745 12.1599C68.4265 12.1599 70.4585 10.7039 70.4585 7.58388C70.4585 4.83188 68.8745 3.35988 66.8265 3.35988C65.7065 3.35988 64.7625 3.80788 64.1865 4.22388V0.751878ZM66.4105 4.73588C67.8505 4.73588 68.9065 5.75988 68.9065 7.66388C68.9065 9.88788 67.6745 10.8159 66.0105 10.8159C65.2905 10.8159 64.6985 10.6879 64.1865 10.5279V5.42388C64.6985 5.08788 65.4825 4.73588 66.4105 4.73588ZM73.0919 2.33588C73.7479 2.33588 74.1639 1.98388 74.1639 1.45588C74.1639 0.911878 73.7479 0.559877 73.0919 0.559877C72.4359 0.559877 72.0039 0.911878 72.0039 1.45588C72.0039 1.98388 72.4359 2.33588 73.0919 2.33588ZM72.3239 3.51988V11.9999H73.8279V3.51988H72.3239ZM83.432 10.6719V4.06388C82.648 3.74388 81.608 3.35988 80.216 3.35988C77.784 3.35988 75.72 4.83188 75.72 7.72788C75.72 10.0319 77.208 11.3919 79.336 11.3919C80.488 11.3919 81.368 10.9279 81.928 10.4959V10.8639C81.928 12.4159 81.016 13.2799 79.272 13.2799C78.008 13.2799 76.952 12.7999 76.184 12.2719V13.8079C76.888 14.2399 78.04 14.6879 79.416 14.6879C81.624 14.6879 83.432 13.5359 83.432 10.6719ZM77.256 7.55188C77.256 5.69588 78.488 4.70388 80.2 4.70388C80.92 4.70388 81.464 4.84788 81.928 5.02388V9.29588C81.432 9.64788 80.632 10.0319 79.704 10.0319C78.28 10.0319 77.256 9.21588 77.256 7.55188ZM96.3174 11.4079V10.0799C95.6934 10.4319 94.5254 10.7359 93.3894 10.7359C91.6134 10.7359 90.4614 9.91988 90.3494 8.22388H96.4934V7.51988C96.4934 4.87988 95.1654 3.34388 92.8454 3.34388C90.4774 3.34388 88.8294 4.99188 88.8294 7.75988C88.8294 10.6399 90.6534 12.1599 93.2454 12.1599C94.4134 12.1599 95.7094 11.8559 96.3174 11.4079ZM92.7654 4.63988C94.2534 4.63988 94.9894 5.59988 95.0214 7.19988H90.3334C90.4134 5.58388 91.3574 4.63988 92.7654 4.63988ZM103.825 11.9999H105.553L102.529 7.69588L105.521 3.51988H103.809L101.489 6.87988L99.1693 3.51988H97.4413L100.449 7.71188L97.4253 11.9999H99.1373L101.489 8.49588L103.825 11.9999ZM110.101 12.1599C112.533 12.1599 114.693 10.6559 114.693 7.53588C114.693 4.71988 112.949 3.35988 110.965 3.35988C109.781 3.35988 108.885 3.80788 108.325 4.27188V3.51988H106.917V14.5279H108.421V11.9519C108.901 12.0799 109.413 12.1599 110.101 12.1599ZM110.549 4.70388C112.101 4.70388 113.141 5.75988 113.141 7.63188C113.141 9.80788 111.797 10.8159 110.037 10.8159C109.365 10.8159 108.853 10.6879 108.421 10.5439V5.40788C108.901 5.07188 109.637 4.70388 110.549 4.70388ZM123.614 11.4079V10.0799C122.99 10.4319 121.822 10.7359 120.686 10.7359C118.91 10.7359 117.758 9.91988 117.646 8.22388H123.79V7.51988C123.79 4.87988 122.462 3.34388 120.142 3.34388C117.774 3.34388 116.126 4.99188 116.126 7.75988C116.126 10.6399 117.95 12.1599 120.542 12.1599C121.71 12.1599 123.006 11.8559 123.614 11.4079ZM120.062 4.63988C121.55 4.63988 122.286 5.59988 122.318 7.19988H117.63C117.71 5.58388 118.654 4.63988 120.062 4.63988ZM125.698 3.51988V11.9999H127.202V5.56788C127.794 5.21588 128.754 4.79988 129.746 4.79988C130.994 4.79988 131.746 5.50388 131.746 6.89588V11.9999H133.25V6.55988C133.25 4.47988 132.178 3.35988 130.306 3.35988C128.914 3.35988 127.826 3.99988 127.106 4.59188V3.51988H125.698ZM139.225 7.40788L138.185 7.10388C137.097 6.78388 136.393 6.52788 136.393 5.75988C136.393 5.03988 137.113 4.68788 138.009 4.68788C139.209 4.68788 140.505 5.16788 141.113 5.63188V4.12788C140.521 3.72788 139.305 3.34388 138.089 3.34388C136.121 3.34388 134.937 4.39988 134.937 5.80788C134.937 7.27988 136.009 7.90388 137.273 8.22388L138.345 8.54388C139.433 8.83188 140.073 9.07188 140.073 9.80788C140.073 10.6079 139.449 10.8959 138.441 10.8959C137.129 10.8959 135.801 10.3839 135.017 9.88788V11.3599C135.657 11.7599 137.017 12.2239 138.377 12.2239C140.281 12.2239 141.497 11.3759 141.497 9.77588C141.497 8.46388 140.585 7.79188 139.225 7.40788ZM150.255 11.4079V10.0799C149.631 10.4319 148.463 10.7359 147.327 10.7359C145.551 10.7359 144.399 9.91988 144.287 8.22388H150.431V7.51988C150.431 4.87988 149.103 3.34388 146.783 3.34388C144.415 3.34388 142.767 4.99188 142.767 7.75988C142.767 10.6399 144.591 12.1599 147.183 12.1599C148.351 12.1599 149.647 11.8559 150.255 11.4079ZM146.703 4.63988C148.191 4.63988 148.927 5.59988 148.959 7.19988H144.271C144.351 5.58388 145.295 4.63988 146.703 4.63988ZM156.131 7.40788L155.091 7.10388C154.003 6.78388 153.299 6.52788 153.299 5.75988C153.299 5.03988 154.019 4.68788 154.915 4.68788C156.115 4.68788 157.411 5.16788 158.019 5.63188V4.12788C157.427 3.72788 156.211 3.34388 154.995 3.34388C153.027 3.34388 151.843 4.39988 151.843 5.80788C151.843 7.27988 152.915 7.90388 154.179 8.22388L155.251 8.54388C156.339 8.83188 156.979 9.07188 156.979 9.80788C156.979 10.6079 156.355 10.8959 155.347 10.8959C154.035 10.8959 152.707 10.3839 151.923 9.88788V11.3599C152.563 11.7599 153.923 12.2239 155.283 12.2239C157.187 12.2239 158.403 11.3759 158.403 9.77588C158.403 8.46388 157.491 7.79188 156.131 7.40788ZM161.337 10.1759H159.721L158.809 13.8879H160.041L161.337 10.1759ZM166.417 3.51988V11.9999H167.921V5.58388C168.497 5.23188 169.377 4.79988 170.305 4.79988C171.441 4.79988 172.145 5.48788 172.145 6.83188V11.9999H173.649V6.41588C173.649 6.12788 173.633 5.83988 173.585 5.58388C174.193 5.21588 175.089 4.79988 176.033 4.79988C177.185 4.79988 177.889 5.48788 177.889 6.83188V11.9999H179.377V6.49588C179.377 4.46388 178.369 3.35988 176.609 3.35988C175.137 3.35988 174.049 4.07988 173.313 4.73588C172.881 3.83988 172.049 3.35988 170.865 3.35988C169.537 3.35988 168.513 3.99988 167.825 4.59188V3.51988H166.417ZM186.566 6.84788V7.61588C186.182 7.47188 185.526 7.31188 184.694 7.31188C182.518 7.31188 181.11 8.39988 181.11 9.88788C181.11 11.2959 182.086 12.1599 183.798 12.1599C185.062 12.1599 186.054 11.5359 186.662 10.8799V11.9999H188.07V6.83188C188.07 4.30388 186.47 3.35988 184.63 3.35988C183.062 3.35988 181.766 4.09588 181.206 4.67188V6.22388C181.926 5.48788 183.11 4.84788 184.438 4.84788C185.574 4.84788 186.566 5.40788 186.566 6.84788ZM182.518 9.82388C182.518 8.94388 183.382 8.35188 185.062 8.35188C185.606 8.35188 186.182 8.44788 186.566 8.55988V9.99988C185.91 10.5439 184.998 10.9919 184.038 10.9919C183.19 10.9919 182.518 10.6559 182.518 9.82388ZM190.229 3.51988V11.9999H191.733V5.56788C192.325 5.21588 193.285 4.79988 194.277 4.79988C195.525 4.79988 196.277 5.50388 196.277 6.89588V11.9999H197.781V6.55988C197.781 4.47988 196.709 3.35988 194.837 3.35988C193.445 3.35988 192.357 3.99988 191.637 4.59188V3.51988H190.229ZM204.972 6.84788V7.61588C204.588 7.47188 203.932 7.31188 203.1 7.31188C200.924 7.31188 199.516 8.39988 199.516 9.88788C199.516 11.2959 200.492 12.1599 202.204 12.1599C203.468 12.1599 204.46 11.5359 205.068 10.8799V11.9999H206.476V6.83188C206.476 4.30388 204.876 3.35988 203.036 3.35988C201.468 3.35988 200.172 4.09588 199.612 4.67188V6.22388C200.332 5.48788 201.516 4.84788 202.844 4.84788C203.98 4.84788 204.972 5.40788 204.972 6.84788ZM200.924 9.82388C200.924 8.94388 201.788 8.35188 203.468 8.35188C204.012 8.35188 204.588 8.44788 204.972 8.55988V9.99988C204.316 10.5439 203.404 10.9919 202.444 10.9919C201.596 10.9919 200.924 10.6559 200.924 9.82388ZM215.948 10.6719V4.06388C215.164 3.74388 214.124 3.35988 212.732 3.35988C210.3 3.35988 208.236 4.83188 208.236 7.72788C208.236 10.0319 209.724 11.3919 211.852 11.3919C213.004 11.3919 213.884 10.9279 214.444 10.4959V10.8639C214.444 12.4159 213.532 13.2799 211.788 13.2799C210.524 13.2799 209.468 12.7999 208.7 12.2719V13.8079C209.404 14.2399 210.556 14.6879 211.932 14.6879C214.14 14.6879 215.948 13.5359 215.948 10.6719ZM209.772 7.55188C209.772 5.69588 211.004 4.70388 212.716 4.70388C213.436 4.70388 213.98 4.84788 214.444 5.02388V9.29588C213.948 9.64788 213.148 10.0319 212.22 10.0319C210.796 10.0319 209.772 9.21588 209.772 7.55188ZM225.255 11.4079V10.0799C224.631 10.4319 223.463 10.7359 222.327 10.7359C220.551 10.7359 219.399 9.91988 219.287 8.22388H225.431V7.51988C225.431 4.87988 224.103 3.34388 221.783 3.34388C219.415 3.34388 217.767 4.99188 217.767 7.75988C217.767 10.6399 219.591 12.1599 222.183 12.1599C223.351 12.1599 224.647 11.8559 225.255 11.4079ZM221.703 4.63988C223.191 4.63988 223.927 5.59988 223.959 7.19988H219.271C219.351 5.58388 220.295 4.63988 221.703 4.63988ZM234.101 12.1599C236.533 12.1599 238.693 10.6559 238.693 7.53588C238.693 4.71988 236.949 3.35988 234.965 3.35988C233.781 3.35988 232.885 3.80788 232.325 4.27188V3.51988H230.917V14.5279H232.421V11.9519C232.901 12.0799 233.413 12.1599 234.101 12.1599ZM234.549 4.70388C236.101 4.70388 237.141 5.75988 237.141 7.63188C237.141 9.80788 235.797 10.8159 234.037 10.8159C233.365 10.8159 232.853 10.6879 232.421 10.5439V5.40788C232.901 5.07188 233.637 4.70388 234.549 4.70388ZM240.526 3.51988V11.9999H242.03V5.69588C242.606 5.26388 243.486 4.79988 244.318 4.79988C244.926 4.79988 245.422 4.97588 245.79 5.19988V3.61588C245.486 3.45588 245.134 3.35988 244.766 3.35988C243.63 3.35988 242.59 4.07988 241.934 4.73588V3.51988H240.526ZM251.183 12.1599C253.727 12.1599 255.583 10.2559 255.583 7.75988C255.583 5.23188 253.727 3.35988 251.183 3.35988C248.639 3.35988 246.783 5.23188 246.783 7.75988C246.783 10.2559 248.639 12.1599 251.183 12.1599ZM251.183 10.7519C249.519 10.7519 248.271 9.47188 248.271 7.75988C248.271 6.01588 249.519 4.76788 251.183 4.76788C252.863 4.76788 254.095 6.01588 254.095 7.75988C254.095 9.48788 252.863 10.7519 251.183 10.7519ZM263.481 2.33588C264.137 2.33588 264.553 1.98388 264.553 1.45588C264.553 0.911878 264.137 0.559877 263.481 0.559877C262.825 0.559877 262.393 0.911878 262.393 1.45588C262.393 1.98388 262.825 2.33588 263.481 2.33588ZM256.681 4.84788H257.913V11.9999H259.417V4.84788H262.761V11.9999H264.249V3.51988H259.417V3.31188C259.417 2.38388 259.865 1.96788 260.729 1.96788C260.969 1.96788 261.193 1.99988 261.433 2.06388V0.815877C261.161 0.767878 260.873 0.719877 260.569 0.719877C259.241 0.719877 257.913 1.35988 257.913 3.42388V3.51988H256.681V4.84788ZM271.676 11.6319V10.3359C271.292 10.5759 270.668 10.7999 269.996 10.7999C269.132 10.7999 268.62 10.4159 268.62 9.43988V4.84788H271.612V3.51988H268.62V1.91988H268.268L265.82 4.46388V4.84788H267.116V9.59988C267.116 11.6479 268.3 12.1599 269.628 12.1599C270.572 12.1599 271.26 11.9039 271.676 11.6319ZM277.1 7.40788L276.06 7.10388C274.972 6.78388 274.268 6.52788 274.268 5.75988C274.268 5.03988 274.988 4.68788 275.884 4.68788C277.084 4.68788 278.38 5.16788 278.988 5.63188V4.12788C278.396 3.72788 277.18 3.34388 275.964 3.34388C273.996 3.34388 272.812 4.39988 272.812 5.80788C272.812 7.27988 273.884 7.90388 275.148 8.22388L276.22 8.54388C277.308 8.83188 277.948 9.07188 277.948 9.80788C277.948 10.6079 277.324 10.8959 276.316 10.8959C275.004 10.8959 273.676 10.3839 272.892 9.88788V11.3599C273.532 11.7599 274.892 12.2239 276.252 12.2239C278.156 12.2239 279.372 11.3759 279.372 9.77588C279.372 8.46388 278.46 7.79188 277.1 7.40788ZM282.306 10.1759H280.69L279.778 13.8879H281.01L282.306 10.1759ZM289.85 11.9999H291.61L295.098 3.51988H293.466L290.762 10.6719L288.026 3.51988H286.394L289.85 11.9999ZM303.411 11.4079V10.0799C302.787 10.4319 301.619 10.7359 300.483 10.7359C298.707 10.7359 297.555 9.91988 297.443 8.22388H303.587V7.51988C303.587 4.87988 302.259 3.34388 299.939 3.34388C297.571 3.34388 295.923 4.99188 295.923 7.75988C295.923 10.6399 297.747 12.1599 300.339 12.1599C301.507 12.1599 302.803 11.8559 303.411 11.4079ZM299.859 4.63988C301.347 4.63988 302.083 5.59988 302.115 7.19988H297.427C297.507 5.58388 298.451 4.63988 299.859 4.63988ZM305.495 3.51988V11.9999H306.999V5.56788C307.591 5.21588 308.551 4.79988 309.543 4.79988C310.791 4.79988 311.543 5.50388 311.543 6.89588V11.9999H313.047V6.55988C313.047 4.47988 311.975 3.35988 310.103 3.35988C308.711 3.35988 307.623 3.99988 306.903 4.59188V3.51988H305.495ZM321.197 11.9999H322.605V0.751878L321.101 0.991878V3.56788C320.621 3.45588 320.093 3.35988 319.405 3.35988C316.989 3.35988 314.829 4.86388 314.829 7.98388C314.829 10.7999 316.573 12.1599 318.557 12.1599C319.741 12.1599 320.637 11.7119 321.197 11.2479V11.9999ZM319.485 4.70388C320.157 4.70388 320.669 4.83188 321.101 4.97588V10.1279C320.637 10.4479 319.853 10.8159 318.957 10.8159C317.389 10.8159 316.365 9.75988 316.365 7.88788C316.365 5.71188 317.725 4.70388 319.485 4.70388ZM328.839 12.1599C331.383 12.1599 333.239 10.2559 333.239 7.75988C333.239 5.23188 331.383 3.35988 328.839 3.35988C326.295 3.35988 324.439 5.23188 324.439 7.75988C324.439 10.2559 326.295 12.1599 328.839 12.1599ZM328.839 10.7519C327.175 10.7519 325.927 9.47188 325.927 7.75988C325.927 6.01588 327.175 4.76788 328.839 4.76788C330.519 4.76788 331.751 6.01588 331.751 7.75988C331.751 9.48788 330.519 10.7519 328.839 10.7519ZM335.073 3.51988V11.9999H336.577V5.69588C337.153 5.26388 338.033 4.79988 338.865 4.79988C339.473 4.79988 339.969 4.97588 340.337 5.19988V3.61588C340.033 3.45588 339.681 3.35988 339.313 3.35988C338.177 3.35988 337.137 4.07988 336.481 4.73588V3.51988H335.073ZM345.521 7.40788L344.481 7.10388C343.393 6.78388 342.689 6.52788 342.689 5.75988C342.689 5.03988 343.409 4.68788 344.305 4.68788C345.505 4.68788 346.801 5.16788 347.409 5.63188V4.12788C346.817 3.72788 345.601 3.34388 344.385 3.34388C342.417 3.34388 341.233 4.39988 341.233 5.80788C341.233 7.27988 342.305 7.90388 343.569 8.22388L344.641 8.54388C345.729 8.83188 346.369 9.07188 346.369 9.80788C346.369 10.6079 345.745 10.8959 344.737 10.8959C343.425 10.8959 342.097 10.3839 341.313 9.88788V11.3599C341.953 11.7599 343.313 12.2239 344.673 12.2239C346.577 12.2239 347.793 11.3759 347.793 9.77588C347.793 8.46388 346.881 7.79188 345.521 7.40788ZM350.728 10.1759H349.112L348.2 13.8879H349.432L350.728 10.1759ZM360.816 6.84788V7.61588C360.432 7.47188 359.776 7.31188 358.944 7.31188C356.768 7.31188 355.36 8.39988 355.36 9.88788C355.36 11.2959 356.336 12.1599 358.048 12.1599C359.312 12.1599 360.304 11.5359 360.912 10.8799V11.9999H362.32V6.83188C362.32 4.30388 360.72 3.35988 358.88 3.35988C357.312 3.35988 356.016 4.09588 355.456 4.67188V6.22388C356.176 5.48788 357.36 4.84788 358.688 4.84788C359.824 4.84788 360.816 5.40788 360.816 6.84788ZM356.768 9.82388C356.768 8.94388 357.632 8.35188 359.312 8.35188C359.856 8.35188 360.432 8.44788 360.816 8.55988V9.99988C360.16 10.5439 359.248 10.9919 358.288 10.9919C357.44 10.9919 356.768 10.6559 356.768 9.82388ZM364.479 3.51988V11.9999H365.983V5.56788C366.575 5.21588 367.535 4.79988 368.527 4.79988C369.775 4.79988 370.527 5.50388 370.527 6.89588V11.9999H372.031V6.55988C372.031 4.47988 370.959 3.35988 369.087 3.35988C367.695 3.35988 366.607 3.99988 365.887 4.59188V3.51988H364.479ZM380.182 11.9999H381.59V0.751878L380.086 0.991878V3.56788C379.606 3.45588 379.078 3.35988 378.39 3.35988C375.974 3.35988 373.814 4.86388 373.814 7.98388C373.814 10.7999 375.558 12.1599 377.542 12.1599C378.726 12.1599 379.622 11.7119 380.182 11.2479V11.9999ZM378.47 4.70388C379.142 4.70388 379.654 4.83188 380.086 4.97588V10.1279C379.622 10.4479 378.838 10.8159 377.942 10.8159C376.374 10.8159 375.35 9.75988 375.35 7.88788C375.35 5.71188 376.71 4.70388 378.47 4.70388ZM0.12 35.5199V43.9999H1.624V37.5839C2.2 37.2319 3.08 36.7999 4.008 36.7999C5.144 36.7999 5.848 37.4879 5.848 38.8319V43.9999H7.352V38.4159C7.352 38.1279 7.336 37.8399 7.288 37.5839C7.896 37.2159 8.792 36.7999 9.736 36.7999C10.888 36.7999 11.592 37.4879 11.592 38.8319V43.9999H13.08V38.4959C13.08 36.4639 12.072 35.3599 10.312 35.3599C8.84 35.3599 7.752 36.0799 7.016 36.7359C6.584 35.8399 5.752 35.3599 4.568 35.3599C3.24 35.3599 2.216 35.9999 1.528 36.5919V35.5199H0.12ZM19.2606 44.1599C21.8046 44.1599 23.6606 42.2559 23.6606 39.7599C23.6606 37.2319 21.8046 35.3599 19.2606 35.3599C16.7166 35.3599 14.8606 37.2319 14.8606 39.7599C14.8606 42.2559 16.7166 44.1599 19.2606 44.1599ZM19.2606 42.7519C17.5966 42.7519 16.3486 41.4719 16.3486 39.7599C16.3486 38.0159 17.5966 36.7679 19.2606 36.7679C20.9406 36.7679 22.1726 38.0159 22.1726 39.7599C22.1726 41.4879 20.9406 42.7519 19.2606 42.7519ZM25.495 35.5199V43.9999H26.999V37.6959C27.575 37.2639 28.455 36.7999 29.287 36.7999C29.895 36.7999 30.391 36.9759 30.759 37.1999V35.6159C30.455 35.4559 30.103 35.3599 29.735 35.3599C28.599 35.3599 27.559 36.0799 26.903 36.7359V35.5199H25.495ZM39.2393 43.4079V42.0799C38.6153 42.4319 37.4473 42.7359 36.3113 42.7359C34.5353 42.7359 33.3832 41.9199 33.2713 40.2239H39.4153V39.5199C39.4153 36.8799 38.0873 35.3439 35.7673 35.3439C33.3993 35.3439 31.7513 36.9919 31.7513 39.7599C31.7513 42.6399 33.5753 44.1599 36.1673 44.1599C37.3353 44.1599 38.6313 43.8559 39.2393 43.4079ZM35.6873 36.6399C37.1753 36.6399 37.9113 37.5999 37.9433 39.1999H33.2553C33.3353 37.5839 34.2793 36.6399 35.6873 36.6399ZM46.6613 43.9999H48.4053L50.6293 37.2159L52.8212 43.9999H54.5813L57.1733 35.5199H55.5573L53.6853 42.5759L51.4773 35.5199H49.7653L47.5573 42.5759L45.7013 35.5199H44.0693L46.6613 43.9999ZM59.3888 34.3359C60.0448 34.3359 60.4608 33.9839 60.4608 33.4559C60.4608 32.9119 60.0448 32.5599 59.3888 32.5599C58.7328 32.5599 58.3008 32.9119 58.3008 33.4559C58.3008 33.9839 58.7328 34.3359 59.3888 34.3359ZM58.6208 35.5199V43.9999H60.1248V35.5199H58.6208ZM67.4729 43.6319V42.3359C67.0889 42.5759 66.4649 42.7999 65.7929 42.7999C64.9289 42.7999 64.4169 42.4159 64.4169 41.4399V36.8479H67.4089V35.5199H64.4169V33.9199H64.0649L61.6169 36.4639V36.8479H62.9129V41.5999C62.9129 43.6479 64.0969 44.1599 65.4249 44.1599C66.3689 44.1599 67.0569 43.9039 67.4729 43.6319ZM73.1524 36.7999C74.4004 36.7999 75.1524 37.5039 75.1524 38.8959V43.9999H76.6564V38.5599C76.6564 36.4799 75.5844 35.3599 73.7124 35.3599C72.3844 35.3599 71.3284 35.9359 70.6084 36.5119V32.7519L69.1044 32.9919V43.9999H70.6084V37.5679C71.2004 37.2159 72.1604 36.7999 73.1524 36.7999ZM84.8809 43.9999H86.6409L90.1289 35.5199H88.4969L85.7929 42.6719L83.0569 35.5199H81.4249L84.8809 43.9999ZM92.1544 34.3359C92.8104 34.3359 93.2264 33.9839 93.2264 33.4559C93.2264 32.9119 92.8104 32.5599 92.1544 32.5599C91.4984 32.5599 91.0664 32.9119 91.0664 33.4559C91.0664 33.9839 91.4984 34.3359 92.1544 34.3359ZM91.3864 35.5199V43.9999H92.8904V35.5199H91.3864ZM98.9745 39.4079L97.9345 39.1039C96.8465 38.7839 96.1425 38.5279 96.1425 37.7599C96.1425 37.0399 96.8625 36.6879 97.7585 36.6879C98.9585 36.6879 100.255 37.1679 100.863 37.6319V36.1279C100.271 35.7279 99.0545 35.3439 97.8385 35.3439C95.8705 35.3439 94.6865 36.3999 94.6865 37.8079C94.6865 39.2799 95.7585 39.9039 97.0225 40.2239L98.0945 40.5439C99.1825 40.8319 99.8225 41.0719 99.8225 41.8079C99.8225 42.6079 99.1985 42.8959 98.1905 42.8959C96.8785 42.8959 95.5505 42.3839 94.7665 41.8879V43.3599C95.4065 43.7599 96.7665 44.2239 98.1265 44.2239C100.031 44.2239 101.247 43.3759 101.247 41.7759C101.247 40.4639 100.335 39.7919 98.9745 39.4079ZM103.717 34.3359C104.373 34.3359 104.789 33.9839 104.789 33.4559C104.789 32.9119 104.373 32.5599 103.717 32.5599C103.061 32.5599 102.629 32.9119 102.629 33.4559C102.629 33.9839 103.061 34.3359 103.717 34.3359ZM102.949 35.5199V43.9999H104.453V35.5199H102.949ZM108.249 32.7519L106.745 32.9919V43.4879C107.609 43.8079 108.665 44.1599 110.137 44.1599C112.489 44.1599 114.521 42.7039 114.521 39.5839C114.521 36.8319 112.937 35.3599 110.889 35.3599C109.769 35.3599 108.825 35.8079 108.249 36.2239V32.7519ZM110.473 36.7359C111.913 36.7359 112.969 37.7599 112.969 39.6639C112.969 41.8879 111.737 42.8159 110.073 42.8159C109.353 42.8159 108.761 42.6879 108.249 42.5279V37.4239C108.761 37.0879 109.545 36.7359 110.473 36.7359ZM117.154 34.3359C117.81 34.3359 118.226 33.9839 118.226 33.4559C118.226 32.9119 117.81 32.5599 117.154 32.5599C116.498 32.5599 116.066 32.9119 116.066 33.4559C116.066 33.9839 116.498 34.3359 117.154 34.3359ZM116.386 35.5199V43.9999H117.89V35.5199H116.386ZM120.183 32.9919V43.9999H121.687V32.7519L120.183 32.9919ZM124.717 34.3359C125.373 34.3359 125.789 33.9839 125.789 33.4559C125.789 32.9119 125.373 32.5599 124.717 32.5599C124.061 32.5599 123.629 32.9119 123.629 33.4559C123.629 33.9839 124.061 34.3359 124.717 34.3359ZM123.949 35.5199V43.9999H125.453V35.5199H123.949ZM132.801 43.6319V42.3359C132.417 42.5759 131.793 42.7999 131.121 42.7999C130.257 42.7999 129.745 42.4159 129.745 41.4399V36.8479H132.737V35.5199H129.745V33.9199H129.393L126.945 36.4639V36.8479H128.241V41.5999C128.241 43.6479 129.425 44.1599 130.753 44.1599C131.697 44.1599 132.385 43.9039 132.801 43.6319ZM135.697 46.6879C136.817 46.6879 137.729 46.0959 138.369 44.6079L142.369 35.5199H140.705L138.016 42.0799L135.249 35.5199H133.569L137.312 43.7599L137.025 44.3839C136.753 44.9599 136.257 45.3119 135.617 45.3119C134.737 45.3119 134.049 44.7999 133.745 44.4799V45.9679C134.081 46.2719 134.785 46.6879 135.697 46.6879ZM151.089 44.1599C153.633 44.1599 155.489 42.2559 155.489 39.7599C155.489 37.2319 153.633 35.3599 151.089 35.3599C148.545 35.3599 146.689 37.2319 146.689 39.7599C146.689 42.2559 148.545 44.1599 151.089 44.1599ZM151.089 42.7519C149.425 42.7519 148.177 41.4719 148.177 39.7599C148.177 38.0159 149.425 36.7679 151.089 36.7679C152.769 36.7679 154.001 38.0159 154.001 39.7599C154.001 41.4879 152.769 42.7519 151.089 42.7519ZM159.787 43.9999H161.547L165.035 35.5199H163.403L160.699 42.6719L157.963 35.5199H156.331L159.787 43.9999ZM173.349 43.4079V42.0799C172.725 42.4319 171.557 42.7359 170.421 42.7359C168.645 42.7359 167.493 41.9199 167.381 40.2239H173.525V39.5199C173.525 36.8799 172.197 35.3439 169.877 35.3439C167.509 35.3439 165.861 36.9919 165.861 39.7599C165.861 42.6399 167.685 44.1599 170.277 44.1599C171.445 44.1599 172.741 43.8559 173.349 43.4079ZM169.797 36.6399C171.285 36.6399 172.021 37.5999 172.053 39.1999H167.365C167.445 37.5839 168.389 36.6399 169.797 36.6399ZM175.433 35.5199V43.9999H176.937V37.6959C177.513 37.2639 178.393 36.7999 179.225 36.7999C179.833 36.7999 180.329 36.9759 180.697 37.1999V35.6159C180.393 35.4559 180.041 35.3599 179.673 35.3599C178.536 35.3599 177.497 36.0799 176.841 36.7359V35.5199H175.433ZM186.931 46.6879C188.051 46.6879 188.963 46.0959 189.603 44.6079L193.603 35.5199H191.939L189.251 42.0799L186.483 35.5199H184.803L188.547 43.7599L188.259 44.3839C187.987 44.9599 187.491 45.3119 186.851 45.3119C185.971 45.3119 185.283 44.7999 184.979 44.4799V45.9679C185.315 46.2719 186.019 46.6879 186.931 46.6879ZM198.745 44.1599C201.289 44.1599 203.145 42.2559 203.145 39.7599C203.145 37.2319 201.289 35.3599 198.745 35.3599C196.201 35.3599 194.345 37.2319 194.345 39.7599C194.345 42.2559 196.201 44.1599 198.745 44.1599ZM198.745 42.7519C197.081 42.7519 195.833 41.4719 195.833 39.7599C195.833 38.0159 197.081 36.7679 198.745 36.7679C200.425 36.7679 201.657 38.0159 201.657 39.7599C201.657 41.4879 200.425 42.7519 198.745 42.7519ZM208.419 42.7199C207.171 42.7199 206.419 42.0159 206.419 40.6239V35.5199H204.915V40.9599C204.915 43.0399 205.987 44.1599 207.843 44.1599C209.251 44.1599 210.339 43.5199 211.059 42.9279V43.9999H212.467V35.5199H210.963V41.9359C210.355 42.3039 209.411 42.7199 208.419 42.7199ZM214.714 35.5199V43.9999H216.218V37.6959C216.794 37.2639 217.674 36.7999 218.506 36.7999C219.114 36.7999 219.61 36.9759 219.978 37.1999V35.6159C219.674 35.4559 219.322 35.3599 218.954 35.3599C217.818 35.3599 216.778 36.0799 216.122 36.7359V35.5199H214.714ZM226.452 32.7519L224.948 32.9919V43.4879C225.812 43.8079 226.868 44.1599 228.34 44.1599C230.692 44.1599 232.724 42.7039 232.724 39.5839C232.724 36.8319 231.14 35.3599 229.092 35.3599C227.972 35.3599 227.028 35.8079 226.452 36.2239V32.7519ZM228.676 36.7359C230.116 36.7359 231.172 37.7599 231.172 39.6639C231.172 41.8879 229.94 42.8159 228.276 42.8159C227.556 42.8159 226.964 42.6879 226.452 42.5279V37.4239C226.964 37.0879 227.748 36.7359 228.676 36.7359ZM237.998 42.7199C236.75 42.7199 235.998 42.0159 235.998 40.6239V35.5199H234.493V40.9599C234.493 43.0399 235.566 44.1599 237.422 44.1599C238.83 44.1599 239.918 43.5199 240.638 42.9279V43.9999H242.046V35.5199H240.542V41.9359C239.934 42.3039 238.99 42.7199 237.998 42.7199ZM248.084 39.4079L247.044 39.1039C245.956 38.7839 245.252 38.5279 245.252 37.7599C245.252 37.0399 245.972 36.6879 246.868 36.6879C248.068 36.6879 249.364 37.1679 249.972 37.6319V36.1279C249.38 35.7279 248.164 35.3439 246.948 35.3439C244.98 35.3439 243.796 36.3999 243.796 37.8079C243.796 39.2799 244.868 39.9039 246.132 40.2239L247.204 40.5439C248.292 40.8319 248.932 41.0719 248.932 41.8079C248.932 42.6079 248.308 42.8959 247.3 42.8959C245.988 42.8959 244.66 42.3839 243.876 41.8879V43.3599C244.516 43.7599 245.876 44.2239 247.236 44.2239C249.14 44.2239 250.356 43.3759 250.356 41.7759C250.356 40.4639 249.444 39.7919 248.084 39.4079ZM252.826 34.3359C253.482 34.3359 253.898 33.9839 253.898 33.4559C253.898 32.9119 253.482 32.5599 252.826 32.5599C252.17 32.5599 251.738 32.9119 251.738 33.4559C251.738 33.9839 252.17 34.3359 252.826 34.3359ZM252.058 35.5199V43.9999H253.562V35.5199H252.058ZM255.854 35.5199V43.9999H257.358V37.5679C257.95 37.2159 258.91 36.7999 259.902 36.7999C261.15 36.7999 261.902 37.5039 261.902 38.8959V43.9999H263.406V38.5599C263.406 36.4799 262.334 35.3599 260.462 35.3599C259.07 35.3599 257.982 35.9999 257.262 36.5919V35.5199H255.854ZM272.677 43.4079V42.0799C272.053 42.4319 270.885 42.7359 269.749 42.7359C267.973 42.7359 266.821 41.9199 266.709 40.2239H272.853V39.5199C272.853 36.8799 271.525 35.3439 269.205 35.3439C266.837 35.3439 265.189 36.9919 265.189 39.7599C265.189 42.6399 267.013 44.1599 269.605 44.1599C270.773 44.1599 272.069 43.8559 272.677 43.4079ZM269.125 36.6399C270.613 36.6399 271.349 37.5999 271.381 39.1999H266.693C266.773 37.5839 267.717 36.6399 269.125 36.6399ZM278.553 39.4079L277.513 39.1039C276.425 38.7839 275.721 38.5279 275.721 37.7599C275.721 37.0399 276.441 36.6879 277.337 36.6879C278.537 36.6879 279.833 37.1679 280.441 37.6319V36.1279C279.849 35.7279 278.633 35.3439 277.417 35.3439C275.449 35.3439 274.265 36.3999 274.265 37.8079C274.265 39.2799 275.337 39.9039 276.601 40.2239L277.673 40.5439C278.761 40.8319 279.401 41.0719 279.401 41.8079C279.401 42.6079 278.777 42.8959 277.769 42.8959C276.457 42.8959 275.129 42.3839 274.345 41.8879V43.3599C274.985 43.7599 276.345 44.2239 277.705 44.2239C279.609 44.2239 280.825 43.3759 280.825 41.7759C280.825 40.4639 279.913 39.7919 278.553 39.4079ZM286.287 39.4079L285.247 39.1039C284.159 38.7839 283.455 38.5279 283.455 37.7599C283.455 37.0399 284.175 36.6879 285.071 36.6879C286.271 36.6879 287.567 37.1679 288.175 37.6319V36.1279C287.583 35.7279 286.367 35.3439 285.151 35.3439C283.183 35.3439 281.999 36.3999 281.999 37.8079C281.999 39.2799 283.071 39.9039 284.335 40.2239L285.407 40.5439C286.495 40.8319 287.135 41.0719 287.135 41.8079C287.135 42.6079 286.511 42.8959 285.503 42.8959C284.191 42.8959 282.863 42.3839 282.079 41.8879V43.3599C282.719 43.7599 284.079 44.2239 285.439 44.2239C287.343 44.2239 288.559 43.3759 288.559 41.7759C288.559 40.4639 287.647 39.7919 286.287 39.4079ZM291.205 32.9919H289.829L289.957 36.3199H291.045L291.205 32.9919ZM303.324 35.9999C302.684 35.5679 301.772 35.3439 300.796 35.3439C298.204 35.3439 296.22 37.1039 296.22 39.7599C296.22 42.3359 298.188 44.1599 300.78 44.1599C301.772 44.1599 302.684 43.9199 303.324 43.4879V41.9839C302.684 42.4479 301.788 42.7359 300.828 42.7359C299.036 42.7359 297.724 41.5519 297.724 39.7599C297.724 37.9199 299.036 36.7679 300.844 36.7679C301.788 36.7679 302.684 37.0399 303.324 37.5039V35.9999ZM310.097 38.8479V39.6159C309.713 39.4719 309.057 39.3119 308.225 39.3119C306.049 39.3119 304.641 40.3999 304.641 41.8879C304.641 43.2959 305.617 44.1599 307.329 44.1599C308.593 44.1599 309.585 43.5359 310.193 42.8799V43.9999H311.601V38.8319C311.601 36.3039 310.001 35.3599 308.161 35.3599C306.593 35.3599 305.297 36.0959 304.737 36.6719V38.2239C305.457 37.4879 306.641 36.8479 307.969 36.8479C309.105 36.8479 310.097 37.4079 310.097 38.8479ZM306.049 41.8239C306.049 40.9439 306.913 40.3519 308.593 40.3519C309.137 40.3519 309.713 40.4479 310.097 40.5599V41.9999C309.441 42.5439 308.529 42.9919 307.569 42.9919C306.721 42.9919 306.049 42.6559 306.049 41.8239ZM317.553 39.4079L316.513 39.1039C315.425 38.7839 314.721 38.5279 314.721 37.7599C314.721 37.0399 315.441 36.6879 316.337 36.6879C317.537 36.6879 318.833 37.1679 319.441 37.6319V36.1279C318.849 35.7279 317.633 35.3439 316.417 35.3439C314.449 35.3439 313.265 36.3999 313.265 37.8079C313.265 39.2799 314.337 39.9039 315.601 40.2239L316.673 40.5439C317.761 40.8319 318.401 41.0719 318.401 41.8079C318.401 42.6079 317.777 42.8959 316.769 42.8959C315.457 42.8959 314.129 42.3839 313.345 41.8879V43.3599C313.985 43.7599 315.345 44.2239 316.705 44.2239C318.609 44.2239 319.825 43.3759 319.825 41.7759C319.825 40.4639 318.913 39.7919 317.553 39.4079ZM325.543 36.7999C326.791 36.7999 327.543 37.5039 327.543 38.8959V43.9999H329.047V38.5599C329.047 36.4799 327.975 35.3599 326.103 35.3599C324.775 35.3599 323.719 35.9359 322.999 36.5119V32.7519L321.495 32.9919V43.9999H322.999V37.5679C323.591 37.2159 324.551 36.7999 325.543 36.7999ZM334.072 36.8479H335.304V43.9999H336.808V36.8479H338.68V35.5199H336.808V35.4239C336.808 34.3199 337.48 33.9679 338.408 33.9679C339.016 33.9679 339.672 34.1439 340.152 34.3519V43.9999H341.64V32.7519L340.232 33.1839C339.848 33.0079 339.048 32.7679 338.168 32.7679C336.696 32.7679 335.304 33.5359 335.304 35.5039V35.5199H334.072V36.8479ZM347.964 44.1599C350.508 44.1599 352.364 42.2559 352.364 39.7599C352.364 37.2319 350.508 35.3599 347.964 35.3599C345.42 35.3599 343.564 37.2319 343.564 39.7599C343.564 42.2559 345.42 44.1599 347.964 44.1599ZM347.964 42.7519C346.3 42.7519 345.052 41.4719 345.052 39.7599C345.052 38.0159 346.3 36.7679 347.964 36.7679C349.644 36.7679 350.876 38.0159 350.876 39.7599C350.876 41.4879 349.644 42.7519 347.964 42.7519ZM355.958 43.9999H357.702L359.926 37.2159L362.118 43.9999H363.878L366.47 35.5199H364.854L362.982 42.5759L360.774 35.5199H359.062L356.854 42.5759L354.998 35.5199H353.366L355.958 43.9999ZM368.27 44.1599C368.846 44.1599 369.326 43.6959 369.326 43.1199C369.326 42.5439 368.846 42.0639 368.27 42.0639C367.71 42.0639 367.23 42.5439 367.23 43.1199C367.23 43.6959 367.71 44.1599 368.27 44.1599ZM0.312 64.9919V75.9999H1.896V72.2559H4.792C7.224 72.2559 8.936 71.0079 8.936 68.6559C8.936 66.1759 7.224 64.9919 4.792 64.9919H0.312ZM4.68 66.4799C6.216 66.4799 7.272 67.1039 7.272 68.6559C7.272 70.1119 6.216 70.7839 4.68 70.7839H1.896V66.4799H4.68ZM10.5731 64.9919V75.9999H12.0771V64.7519L10.5731 64.9919ZM19.3155 70.8479V71.6159C18.9315 71.4719 18.2755 71.3119 17.4435 71.3119C15.2675 71.3119 13.8595 72.3999 13.8595 73.8879C13.8595 75.2959 14.8355 76.1599 16.5475 76.1599C17.8115 76.1599 18.8035 75.5359 19.4115 74.8799V75.9999H20.8195V70.8319C20.8195 68.3039 19.2195 67.3599 17.3795 67.3599C15.8115 67.3599 14.5155 68.0959 13.9555 68.6719V70.2239C14.6755 69.4879 15.8595 68.8479 17.1875 68.8479C18.3235 68.8479 19.3155 69.4079 19.3155 70.8479ZM15.2675 73.8239C15.2675 72.9439 16.1315 72.3519 17.8115 72.3519C18.3555 72.3519 18.9315 72.4479 19.3155 72.5599V73.9999C18.6595 74.5439 17.7475 74.9919 16.7875 74.9919C15.9395 74.9919 15.2675 74.6559 15.2675 73.8239ZM22.9794 67.5199V75.9999H24.4834V69.5679C25.0754 69.2159 26.0354 68.7999 27.0274 68.7999C28.2754 68.7999 29.0274 69.5039 29.0274 70.8959V75.9999H30.5314V70.5599C30.5314 68.4799 29.4594 67.3599 27.5874 67.3599C26.1954 67.3599 25.1074 67.9999 24.3874 68.5919V67.5199H22.9794ZM35.5559 68.8479H36.7879V75.9999H38.2919V68.8479H40.5479V67.5199H38.2919V67.4879C38.2919 66.5279 38.8679 65.9839 39.7479 65.9839C40.3879 65.9839 40.9959 66.2239 41.3479 66.4959V65.2319C41.0599 65.0399 40.4199 64.7359 39.5719 64.7359C38.0679 64.7359 36.7879 65.5839 36.7879 67.5039V67.5199H35.5559V68.8479ZM46.2138 76.1599C48.7578 76.1599 50.6138 74.2559 50.6138 71.7599C50.6138 69.2319 48.7578 67.3599 46.2138 67.3599C43.6698 67.3599 41.8138 69.2319 41.8138 71.7599C41.8138 74.2559 43.6698 76.1599 46.2138 76.1599ZM46.2138 74.7519C44.5498 74.7519 43.3018 73.4719 43.3018 71.7599C43.3018 70.0159 44.5498 68.7679 46.2138 68.7679C47.8938 68.7679 49.1258 70.0159 49.1258 71.7599C49.1258 73.4879 47.8938 74.7519 46.2138 74.7519ZM52.4481 67.5199V75.9999H53.9521V69.6959C54.5281 69.2639 55.4081 68.7999 56.2401 68.7999C56.8481 68.7999 57.3441 68.9759 57.7121 69.1999V67.6159C57.4081 67.4559 57.0561 67.3599 56.6881 67.3599C55.5521 67.3599 54.5121 68.0799 53.8561 68.7359V67.5199H52.4481ZM64.1865 64.7519L62.6825 64.9919V75.4879C63.5465 75.8079 64.6025 76.1599 66.0745 76.1599C68.4265 76.1599 70.4585 74.7039 70.4585 71.5839C70.4585 68.8319 68.8745 67.3599 66.8265 67.3599C65.7065 67.3599 64.7625 67.8079 64.1865 68.2239V64.7519ZM66.4105 68.7359C67.8505 68.7359 68.9065 69.7599 68.9065 71.6639C68.9065 73.8879 67.6745 74.8159 66.0105 74.8159C65.2905 74.8159 64.6985 74.6879 64.1865 74.5279V69.4239C64.6985 69.0879 65.4825 68.7359 66.4105 68.7359ZM73.0919 66.3359C73.7479 66.3359 74.1639 65.9839 74.1639 65.4559C74.1639 64.9119 73.7479 64.5599 73.0919 64.5599C72.4359 64.5599 72.0039 64.9119 72.0039 65.4559C72.0039 65.9839 72.4359 66.3359 73.0919 66.3359ZM72.3239 67.5199V75.9999H73.8279V67.5199H72.3239ZM83.432 74.6719V68.0639C82.648 67.7439 81.608 67.3599 80.216 67.3599C77.784 67.3599 75.72 68.8319 75.72 71.7279C75.72 74.0319 77.208 75.3919 79.336 75.3919C80.488 75.3919 81.368 74.9279 81.928 74.4959V74.8639C81.928 76.4159 81.016 77.2799 79.272 77.2799C78.008 77.2799 76.952 76.7999 76.184 76.2719V77.8079C76.888 78.2399 78.04 78.6879 79.416 78.6879C81.624 78.6879 83.432 77.5359 83.432 74.6719ZM77.256 71.5519C77.256 69.6959 78.488 68.7039 80.2 68.7039C80.92 68.7039 81.464 68.8479 81.928 69.0239V73.2959C81.432 73.6479 80.632 74.0319 79.704 74.0319C78.28 74.0319 77.256 73.2159 77.256 71.5519ZM96.3174 75.4079V74.0799C95.6934 74.4319 94.5254 74.7359 93.3894 74.7359C91.6134 74.7359 90.4614 73.9199 90.3494 72.2239H96.4934V71.5199C96.4934 68.8799 95.1654 67.3439 92.8454 67.3439C90.4774 67.3439 88.8294 68.9919 88.8294 71.7599C88.8294 74.6399 90.6534 76.1599 93.2454 76.1599C94.4134 76.1599 95.7094 75.8559 96.3174 75.4079ZM92.7654 68.6399C94.2534 68.6399 94.9894 69.5999 95.0214 71.1999H90.3334C90.4134 69.5839 91.3574 68.6399 92.7654 68.6399ZM103.825 75.9999H105.553L102.529 71.6959L105.521 67.5199H103.809L101.489 70.8799L99.1693 67.5199H97.4413L100.449 71.7119L97.4253 75.9999H99.1373L101.489 72.4959L103.825 75.9999ZM110.101 76.1599C112.533 76.1599 114.693 74.6559 114.693 71.5359C114.693 68.7199 112.949 67.3599 110.965 67.3599C109.781 67.3599 108.885 67.8079 108.325 68.2719V67.5199H106.917V78.5279H108.421V75.9519C108.901 76.0799 109.413 76.1599 110.101 76.1599ZM110.549 68.7039C112.101 68.7039 113.141 69.7599 113.141 71.6319C113.141 73.8079 111.797 74.8159 110.037 74.8159C109.365 74.8159 108.853 74.6879 108.421 74.5439V69.4079C108.901 69.0719 109.637 68.7039 110.549 68.7039ZM123.614 75.4079V74.0799C122.99 74.4319 121.822 74.7359 120.686 74.7359C118.91 74.7359 117.758 73.9199 117.646 72.2239H123.79V71.5199C123.79 68.8799 122.462 67.3439 120.142 67.3439C117.774 67.3439 116.126 68.9919 116.126 71.7599C116.126 74.6399 117.95 76.1599 120.542 76.1599C121.71 76.1599 123.006 75.8559 123.614 75.4079ZM120.062 68.6399C121.55 68.6399 122.286 69.5999 122.318 71.1999H117.63C117.71 69.5839 118.654 68.6399 120.062 68.6399ZM125.698 67.5199V75.9999H127.202V69.5679C127.794 69.2159 128.754 68.7999 129.746 68.7999C130.994 68.7999 131.746 69.5039 131.746 70.8959V75.9999H133.25V70.5599C133.25 68.4799 132.178 67.3599 130.306 67.3599C128.914 67.3599 127.826 67.9999 127.106 68.5919V67.5199H125.698ZM139.225 71.4079L138.185 71.1039C137.097 70.7839 136.393 70.5279 136.393 69.7599C136.393 69.0399 137.113 68.6879 138.009 68.6879C139.209 68.6879 140.505 69.1679 141.113 69.6319V68.1279C140.521 67.7279 139.305 67.3439 138.089 67.3439C136.121 67.3439 134.937 68.3999 134.937 69.8079C134.937 71.2799 136.009 71.9039 137.273 72.2239L138.345 72.5439C139.433 72.8319 140.073 73.0719 140.073 73.8079C140.073 74.6079 139.449 74.8959 138.441 74.8959C137.129 74.8959 135.801 74.3839 135.017 73.8879V75.3599C135.657 75.7599 137.017 76.2239 138.377 76.2239C140.281 76.2239 141.497 75.3759 141.497 73.7759C141.497 72.4639 140.585 71.7919 139.225 71.4079ZM150.255 75.4079V74.0799C149.631 74.4319 148.463 74.7359 147.327 74.7359C145.551 74.7359 144.399 73.9199 144.287 72.2239H150.431V71.5199C150.431 68.8799 149.103 67.3439 146.783 67.3439C144.415 67.3439 142.767 68.9919 142.767 71.7599C142.767 74.6399 144.591 76.1599 147.183 76.1599C148.351 76.1599 149.647 75.8559 150.255 75.4079ZM146.703 68.6399C148.191 68.6399 148.927 69.5999 148.959 71.1999H144.271C144.351 69.5839 145.295 68.6399 146.703 68.6399ZM156.131 71.4079L155.091 71.1039C154.003 70.7839 153.299 70.5279 153.299 69.7599C153.299 69.0399 154.019 68.6879 154.915 68.6879C156.115 68.6879 157.411 69.1679 158.019 69.6319V68.1279C157.427 67.7279 156.211 67.3439 154.995 67.3439C153.027 67.3439 151.843 68.3999 151.843 69.8079C151.843 71.2799 152.915 71.9039 154.179 72.2239L155.251 72.5439C156.339 72.8319 156.979 73.0719 156.979 73.8079C156.979 74.6079 156.355 74.8959 155.347 74.8959C154.035 74.8959 152.707 74.3839 151.923 73.8879V75.3599C152.563 75.7599 153.923 76.2239 155.283 76.2239C157.187 76.2239 158.403 75.3759 158.403 73.7759C158.403 72.4639 157.491 71.7919 156.131 71.4079ZM161.337 74.1759H159.721L158.809 77.8879H160.041L161.337 74.1759ZM166.417 67.5199V75.9999H167.921V69.5839C168.497 69.2319 169.377 68.7999 170.305 68.7999C171.441 68.7999 172.145 69.4879 172.145 70.8319V75.9999H173.649V70.4159C173.649 70.1279 173.633 69.8399 173.585 69.5839C174.193 69.2159 175.089 68.7999 176.033 68.7999C177.185 68.7999 177.889 69.4879 177.889 70.8319V75.9999H179.377V70.4959C179.377 68.4639 178.369 67.3599 176.609 67.3599C175.137 67.3599 174.049 68.0799 173.313 68.7359C172.881 67.8399 172.049 67.3599 170.865 67.3599C169.537 67.3599 168.513 67.9999 167.825 68.5919V67.5199H166.417ZM186.566 70.8479V71.6159C186.182 71.4719 185.526 71.3119 184.694 71.3119C182.518 71.3119 181.11 72.3999 181.11 73.8879C181.11 75.2959 182.086 76.1599 183.798 76.1599C185.062 76.1599 186.054 75.5359 186.662 74.8799V75.9999H188.07V70.8319C188.07 68.3039 186.47 67.3599 184.63 67.3599C183.062 67.3599 181.766 68.0959 181.206 68.6719V70.2239C181.926 69.4879 183.11 68.8479 184.438 68.8479C185.574 68.8479 186.566 69.4079 186.566 70.8479ZM182.518 73.8239C182.518 72.9439 183.382 72.3519 185.062 72.3519C185.606 72.3519 186.182 72.4479 186.566 72.5599V73.9999C185.91 74.5439 184.998 74.9919 184.038 74.9919C183.19 74.9919 182.518 74.6559 182.518 73.8239ZM190.229 67.5199V75.9999H191.733V69.5679C192.325 69.2159 193.285 68.7999 194.277 68.7999C195.525 68.7999 196.277 69.5039 196.277 70.8959V75.9999H197.781V70.5599C197.781 68.4799 196.709 67.3599 194.837 67.3599C193.445 67.3599 192.357 67.9999 191.637 68.5919V67.5199H190.229ZM204.972 70.8479V71.6159C204.588 71.4719 203.932 71.3119 203.1 71.3119C200.924 71.3119 199.516 72.3999 199.516 73.8879C199.516 75.2959 200.492 76.1599 202.204 76.1599C203.468 76.1599 204.46 75.5359 205.068 74.8799V75.9999H206.476V70.8319C206.476 68.3039 204.876 67.3599 203.036 67.3599C201.468 67.3599 200.172 68.0959 199.612 68.6719V70.2239C200.332 69.4879 201.516 68.8479 202.844 68.8479C203.98 68.8479 204.972 69.4079 204.972 70.8479ZM200.924 73.8239C200.924 72.9439 201.788 72.3519 203.468 72.3519C204.012 72.3519 204.588 72.4479 204.972 72.5599V73.9999C204.316 74.5439 203.404 74.9919 202.444 74.9919C201.596 74.9919 200.924 74.6559 200.924 73.8239ZM215.948 74.6719V68.0639C215.164 67.7439 214.124 67.3599 212.732 67.3599C210.3 67.3599 208.236 68.8319 208.236 71.7279C208.236 74.0319 209.724 75.3919 211.852 75.3919C213.004 75.3919 213.884 74.9279 214.444 74.4959V74.8639C214.444 76.4159 213.532 77.2799 211.788 77.2799C210.524 77.2799 209.468 76.7999 208.7 76.2719V77.8079C209.404 78.2399 210.556 78.6879 211.932 78.6879C214.14 78.6879 215.948 77.5359 215.948 74.6719ZM209.772 71.5519C209.772 69.6959 211.004 68.7039 212.716 68.7039C213.436 68.7039 213.98 68.8479 214.444 69.0239V73.2959C213.948 73.6479 213.148 74.0319 212.22 74.0319C210.796 74.0319 209.772 73.2159 209.772 71.5519ZM225.255 75.4079V74.0799C224.631 74.4319 223.463 74.7359 222.327 74.7359C220.551 74.7359 219.399 73.9199 219.287 72.2239H225.431V71.5199C225.431 68.8799 224.103 67.3439 221.783 67.3439C219.415 67.3439 217.767 68.9919 217.767 71.7599C217.767 74.6399 219.591 76.1599 222.183 76.1599C223.351 76.1599 224.647 75.8559 225.255 75.4079ZM221.703 68.6399C223.191 68.6399 223.927 69.5999 223.959 71.1999H219.271C219.351 69.5839 220.295 68.6399 221.703 68.6399ZM234.101 76.1599C236.533 76.1599 238.693 74.6559 238.693 71.5359C238.693 68.7199 236.949 67.3599 234.965 67.3599C233.781 67.3599 232.885 67.8079 232.325 68.2719V67.5199H230.917V78.5279H232.421V75.9519C232.901 76.0799 233.413 76.1599 234.101 76.1599ZM234.549 68.7039C236.101 68.7039 237.141 69.7599 237.141 71.6319C237.141 73.8079 235.797 74.8159 234.037 74.8159C233.365 74.8159 232.853 74.6879 232.421 74.5439V69.4079C232.901 69.0719 233.637 68.7039 234.549 68.7039ZM240.526 67.5199V75.9999H242.03V69.6959C242.606 69.2639 243.486 68.7999 244.318 68.7999C244.926 68.7999 245.422 68.9759 245.79 69.1999V67.6159C245.486 67.4559 245.134 67.3599 244.766 67.3599C243.63 67.3599 242.59 68.0799 241.934 68.7359V67.5199H240.526ZM251.183 76.1599C253.727 76.1599 255.583 74.2559 255.583 71.7599C255.583 69.2319 253.727 67.3599 251.183 67.3599C248.639 67.3599 246.783 69.2319 246.783 71.7599C246.783 74.2559 248.639 76.1599 251.183 76.1599ZM251.183 74.7519C249.519 74.7519 248.271 73.4719 248.271 71.7599C248.271 70.0159 249.519 68.7679 251.183 68.7679C252.863 68.7679 254.095 70.0159 254.095 71.7599C254.095 73.4879 252.863 74.7519 251.183 74.7519ZM263.481 66.3359C264.137 66.3359 264.553 65.9839 264.553 65.4559C264.553 64.9119 264.137 64.5599 263.481 64.5599C262.825 64.5599 262.393 64.9119 262.393 65.4559C262.393 65.9839 262.825 66.3359 263.481 66.3359ZM256.681 68.8479H257.913V75.9999H259.417V68.8479H262.761V75.9999H264.249V67.5199H259.417V67.3119C259.417 66.3839 259.865 65.9679 260.729 65.9679C260.969 65.9679 261.193 65.9999 261.433 66.0639V64.8159C261.161 64.7679 260.873 64.7199 260.569 64.7199C259.241 64.7199 257.913 65.3599 257.913 67.4239V67.5199H256.681V68.8479ZM271.676 75.6319V74.3359C271.292 74.5759 270.668 74.7999 269.996 74.7999C269.132 74.7999 268.62 74.4159 268.62 73.4399V68.8479H271.612V67.5199H268.62V65.9199H268.268L265.82 68.4639V68.8479H267.116V73.5999C267.116 75.6479 268.3 76.1599 269.628 76.1599C270.572 76.1599 271.26 75.9039 271.676 75.6319ZM277.1 71.4079L276.06 71.1039C274.972 70.7839 274.268 70.5279 274.268 69.7599C274.268 69.0399 274.988 68.6879 275.884 68.6879C277.084 68.6879 278.38 69.1679 278.988 69.6319V68.1279C278.396 67.7279 277.18 67.3439 275.964 67.3439C273.996 67.3439 272.812 68.3999 272.812 69.8079C272.812 71.2799 273.884 71.9039 275.148 72.2239L276.22 72.5439C277.308 72.8319 277.948 73.0719 277.948 73.8079C277.948 74.6079 277.324 74.8959 276.316 74.8959C275.004 74.8959 273.676 74.3839 272.892 73.8879V75.3599C273.532 75.7599 274.892 76.2239 276.252 76.2239C278.156 76.2239 279.372 75.3759 279.372 73.7759C279.372 72.4639 278.46 71.7919 277.1 71.4079ZM282.306 74.1759H280.69L279.778 77.8879H281.01L282.306 74.1759ZM289.85 75.9999H291.61L295.098 67.5199H293.466L290.762 74.6719L288.026 67.5199H286.394L289.85 75.9999ZM303.411 75.4079V74.0799C302.787 74.4319 301.619 74.7359 300.483 74.7359C298.707 74.7359 297.555 73.9199 297.443 72.2239H303.587V71.5199C303.587 68.8799 302.259 67.3439 299.939 67.3439C297.571 67.3439 295.923 68.9919 295.923 71.7599C295.923 74.6399 297.747 76.1599 300.339 76.1599C301.507 76.1599 302.803 75.8559 303.411 75.4079ZM299.859 68.6399C301.347 68.6399 302.083 69.5999 302.115 71.1999H297.427C297.507 69.5839 298.451 68.6399 299.859 68.6399ZM305.495 67.5199V75.9999H306.999V69.5679C307.591 69.2159 308.551 68.7999 309.543 68.7999C310.791 68.7999 311.543 69.5039 311.543 70.8959V75.9999H313.047V70.5599C313.047 68.4799 311.975 67.3599 310.103 67.3599C308.711 67.3599 307.623 67.9999 306.903 68.5919V67.5199H305.495ZM321.197 75.9999H322.605V64.7519L321.101 64.9919V67.5679C320.621 67.4559 320.093 67.3599 319.405 67.3599C316.989 67.3599 314.829 68.8639 314.829 71.9839C314.829 74.7999 316.573 76.1599 318.557 76.1599C319.741 76.1599 320.637 75.7119 321.197 75.2479V75.9999ZM319.485 68.7039C320.157 68.7039 320.669 68.8319 321.101 68.9759V74.1279C320.637 74.4479 319.853 74.8159 318.957 74.8159C317.389 74.8159 316.365 73.7599 316.365 71.8879C316.365 69.7119 317.725 68.7039 319.485 68.7039ZM328.839 76.1599C331.383 76.1599 333.239 74.2559 333.239 71.7599C333.239 69.2319 331.383 67.3599 328.839 67.3599C326.295 67.3599 324.439 69.2319 324.439 71.7599C324.439 74.2559 326.295 76.1599 328.839 76.1599ZM328.839 74.7519C327.175 74.7519 325.927 73.4719 325.927 71.7599C325.927 70.0159 327.175 68.7679 328.839 68.7679C330.519 68.7679 331.751 70.0159 331.751 71.7599C331.751 73.4879 330.519 74.7519 328.839 74.7519ZM335.073 67.5199V75.9999H336.577V69.6959C337.153 69.2639 338.033 68.7999 338.865 68.7999C339.473 68.7999 339.969 68.9759 340.337 69.1999V67.6159C340.033 67.4559 339.681 67.3599 339.313 67.3599C338.177 67.3599 337.137 68.0799 336.481 68.7359V67.5199H335.073ZM345.521 71.4079L344.481 71.1039C343.393 70.7839 342.689 70.5279 342.689 69.7599C342.689 69.0399 343.409 68.6879 344.305 68.6879C345.505 68.6879 346.801 69.1679 347.409 69.6319V68.1279C346.817 67.7279 345.601 67.3439 344.385 67.3439C342.417 67.3439 341.233 68.3999 341.233 69.8079C341.233 71.2799 342.305 71.9039 343.569 72.2239L344.641 72.5439C345.729 72.8319 346.369 73.0719 346.369 73.8079C346.369 74.6079 345.745 74.8959 344.737 74.8959C343.425 74.8959 342.097 74.3839 341.313 73.8879V75.3599C341.953 75.7599 343.313 76.2239 344.673 76.2239C346.577 76.2239 347.793 75.3759 347.793 73.7759C347.793 72.4639 346.881 71.7919 345.521 71.4079ZM350.728 74.1759H349.112L348.2 77.8879H349.432L350.728 74.1759ZM360.816 70.8479V71.6159C360.432 71.4719 359.776 71.3119 358.944 71.3119C356.768 71.3119 355.36 72.3999 355.36 73.8879C355.36 75.2959 356.336 76.1599 358.048 76.1599C359.312 76.1599 360.304 75.5359 360.912 74.8799V75.9999H362.32V70.8319C362.32 68.3039 360.72 67.3599 358.88 67.3599C357.312 67.3599 356.016 68.0959 355.456 68.6719V70.2239C356.176 69.4879 357.36 68.8479 358.688 68.8479C359.824 68.8479 360.816 69.4079 360.816 70.8479ZM356.768 73.8239C356.768 72.9439 357.632 72.3519 359.312 72.3519C359.856 72.3519 360.432 72.4479 360.816 72.5599V73.9999C360.16 74.5439 359.248 74.9919 358.288 74.9919C357.44 74.9919 356.768 74.6559 356.768 73.8239ZM364.479 67.5199V75.9999H365.983V69.5679C366.575 69.2159 367.535 68.7999 368.527 68.7999C369.775 68.7999 370.527 69.5039 370.527 70.8959V75.9999H372.031V70.5599C372.031 68.4799 370.959 67.3599 369.087 67.3599C367.695 67.3599 366.607 67.9999 365.887 68.5919V67.5199H364.479ZM380.182 75.9999H381.59V64.7519L380.086 64.9919V67.5679C379.606 67.4559 379.078 67.3599 378.39 67.3599C375.974 67.3599 373.814 68.8639 373.814 71.9839C373.814 74.7999 375.558 76.1599 377.542 76.1599C378.726 76.1599 379.622 75.7119 380.182 75.2479V75.9999ZM378.47 68.7039C379.142 68.7039 379.654 68.8319 380.086 68.9759V74.1279C379.622 74.4479 378.838 74.8159 377.942 74.8159C376.374 74.8159 375.35 73.7599 375.35 71.8879C375.35 69.7119 376.71 68.7039 378.47 68.7039ZM0.12 99.5199V108H1.624V101.584C2.2 101.232 3.08 100.8 4.008 100.8C5.144 100.8 5.848 101.488 5.848 102.832V108H7.352V102.416C7.352 102.128 7.336 101.84 7.288 101.584C7.896 101.216 8.792 100.8 9.736 100.8C10.888 100.8 11.592 101.488 11.592 102.832V108H13.08V102.496C13.08 100.464 12.072 99.3599 10.312 99.3599C8.84 99.3599 7.752 100.08 7.016 100.736C6.584 99.8399 5.752 99.3599 4.568 99.3599C3.24 99.3599 2.216 99.9999 1.528 100.592V99.5199H0.12ZM19.2606 108.16C21.8046 108.16 23.6606 106.256 23.6606 103.76C23.6606 101.232 21.8046 99.3599 19.2606 99.3599C16.7166 99.3599 14.8606 101.232 14.8606 103.76C14.8606 106.256 16.7166 108.16 19.2606 108.16ZM19.2606 106.752C17.5966 106.752 16.3486 105.472 16.3486 103.76C16.3486 102.016 17.5966 100.768 19.2606 100.768C20.9406 100.768 22.1726 102.016 22.1726 103.76C22.1726 105.488 20.9406 106.752 19.2606 106.752ZM25.495 99.5199V108H26.999V101.696C27.575 101.264 28.455 100.8 29.287 100.8C29.895 100.8 30.391 100.976 30.759 101.2V99.6159C30.455 99.4559 30.103 99.3599 29.735 99.3599C28.599 99.3599 27.559 100.08 26.903 100.736V99.5199H25.495ZM39.2393 107.408V106.08C38.6153 106.432 37.4473 106.736 36.3113 106.736C34.5353 106.736 33.3832 105.92 33.2713 104.224H39.4153V103.52C39.4153 100.88 38.0873 99.3439 35.7673 99.3439C33.3993 99.3439 31.7513 100.992 31.7513 103.76C31.7513 106.64 33.5753 108.16 36.1673 108.16C37.3353 108.16 38.6313 107.856 39.2393 107.408ZM35.6873 100.64C37.1753 100.64 37.9113 101.6 37.9433 103.2H33.2553C33.3353 101.584 34.2793 100.64 35.6873 100.64ZM46.6613 108H48.4053L50.6293 101.216L52.8212 108H54.5813L57.1733 99.5199H55.5573L53.6853 106.576L51.4773 99.5199H49.7653L47.5573 106.576L45.7013 99.5199H44.0693L46.6613 108ZM59.3888 98.3359C60.0448 98.3359 60.4608 97.9839 60.4608 97.4559C60.4608 96.9119 60.0448 96.5599 59.3888 96.5599C58.7328 96.5599 58.3008 96.9119 58.3008 97.4559C58.3008 97.9839 58.7328 98.3359 59.3888 98.3359ZM58.6208 99.5199V108H60.1248V99.5199H58.6208ZM67.4729 107.632V106.336C67.0889 106.576 66.4649 106.8 65.7929 106.8C64.9289 106.8 64.4169 106.416 64.4169 105.44V100.848H67.4089V99.5199H64.4169V97.9199H64.0649L61.6169 100.464V100.848H62.9129V105.6C62.9129 107.648 64.0969 108.16 65.4249 108.16C66.3689 108.16 67.0569 107.904 67.4729 107.632ZM73.1524 100.8C74.4004 100.8 75.1524 101.504 75.1524 102.896V108H76.6564V102.56C76.6564 100.48 75.5844 99.3599 73.7124 99.3599C72.3844 99.3599 71.3284 99.9359 70.6084 100.512V96.7519L69.1044 96.9919V108H70.6084V101.568C71.2004 101.216 72.1604 100.8 73.1524 100.8ZM84.8809 108H86.6409L90.1289 99.5199H88.4969L85.7929 106.672L83.0569 99.5199H81.4249L84.8809 108ZM92.1544 98.3359C92.8104 98.3359 93.2264 97.9839 93.2264 97.4559C93.2264 96.9119 92.8104 96.5599 92.1544 96.5599C91.4984 96.5599 91.0664 96.9119 91.0664 97.4559C91.0664 97.9839 91.4984 98.3359 92.1544 98.3359ZM91.3864 99.5199V108H92.8904V99.5199H91.3864ZM98.9745 103.408L97.9345 103.104C96.8465 102.784 96.1425 102.528 96.1425 101.76C96.1425 101.04 96.8625 100.688 97.7585 100.688C98.9585 100.688 100.255 101.168 100.863 101.632V100.128C100.271 99.7279 99.0545 99.3439 97.8385 99.3439C95.8705 99.3439 94.6865 100.4 94.6865 101.808C94.6865 103.28 95.7585 103.904 97.0225 104.224L98.0945 104.544C99.1825 104.832 99.8225 105.072 99.8225 105.808C99.8225 106.608 99.1985 106.896 98.1905 106.896C96.8785 106.896 95.5505 106.384 94.7665 105.888V107.36C95.4065 107.76 96.7665 108.224 98.1265 108.224C100.031 108.224 101.247 107.376 101.247 105.776C101.247 104.464 100.335 103.792 98.9745 103.408ZM103.717 98.3359C104.373 98.3359 104.789 97.9839 104.789 97.4559C104.789 96.9119 104.373 96.5599 103.717 96.5599C103.061 96.5599 102.629 96.9119 102.629 97.4559C102.629 97.9839 103.061 98.3359 103.717 98.3359ZM102.949 99.5199V108H104.453V99.5199H102.949ZM108.249 96.7519L106.745 96.9919V107.488C107.609 107.808 108.665 108.16 110.137 108.16C112.489 108.16 114.521 106.704 114.521 103.584C114.521 100.832 112.937 99.3599 110.889 99.3599C109.769 99.3599 108.825 99.8079 108.249 100.224V96.7519ZM110.473 100.736C111.913 100.736 112.969 101.76 112.969 103.664C112.969 105.888 111.737 106.816 110.073 106.816C109.353 106.816 108.761 106.688 108.249 106.528V101.424C108.761 101.088 109.545 100.736 110.473 100.736ZM117.154 98.3359C117.81 98.3359 118.226 97.9839 118.226 97.4559C118.226 96.9119 117.81 96.5599 117.154 96.5599C116.498 96.5599 116.066 96.9119 116.066 97.4559C116.066 97.9839 116.498 98.3359 117.154 98.3359ZM116.386 99.5199V108H117.89V99.5199H116.386ZM120.183 96.9919V108H121.687V96.7519L120.183 96.9919ZM124.717 98.3359C125.373 98.3359 125.789 97.9839 125.789 97.4559C125.789 96.9119 125.373 96.5599 124.717 96.5599C124.061 96.5599 123.629 96.9119 123.629 97.4559C123.629 97.9839 124.061 98.3359 124.717 98.3359ZM123.949 99.5199V108H125.453V99.5199H123.949ZM132.801 107.632V106.336C132.417 106.576 131.793 106.8 131.121 106.8C130.257 106.8 129.745 106.416 129.745 105.44V100.848H132.737V99.5199H129.745V97.9199H129.393L126.945 100.464V100.848H128.241V105.6C128.241 107.648 129.425 108.16 130.753 108.16C131.697 108.16 132.385 107.904 132.801 107.632ZM135.697 110.688C136.817 110.688 137.729 110.096 138.369 108.608L142.369 99.5199H140.705L138.016 106.08L135.249 99.5199H133.569L137.312 107.76L137.025 108.384C136.753 108.96 136.257 109.312 135.617 109.312C134.737 109.312 134.049 108.8 133.745 108.48V109.968C134.081 110.272 134.785 110.688 135.697 110.688ZM151.089 108.16C153.633 108.16 155.489 106.256 155.489 103.76C155.489 101.232 153.633 99.3599 151.089 99.3599C148.545 99.3599 146.689 101.232 146.689 103.76C146.689 106.256 148.545 108.16 151.089 108.16ZM151.089 106.752C149.425 106.752 148.177 105.472 148.177 103.76C148.177 102.016 149.425 100.768 151.089 100.768C152.769 100.768 154.001 102.016 154.001 103.76C154.001 105.488 152.769 106.752 151.089 106.752ZM159.787 108H161.547L165.035 99.5199H163.403L160.699 106.672L157.963 99.5199H156.331L159.787 108ZM173.349 107.408V106.08C172.725 106.432 171.557 106.736 170.421 106.736C168.645 106.736 167.493 105.92 167.381 104.224H173.525V103.52C173.525 100.88 172.197 99.3439 169.877 99.3439C167.509 99.3439 165.861 100.992 165.861 103.76C165.861 106.64 167.685 108.16 170.277 108.16C171.445 108.16 172.741 107.856 173.349 107.408ZM169.797 100.64C171.285 100.64 172.021 101.6 172.053 103.2H167.365C167.445 101.584 168.389 100.64 169.797 100.64ZM175.433 99.5199V108H176.937V101.696C177.513 101.264 178.393 100.8 179.225 100.8C179.833 100.8 180.329 100.976 180.697 101.2V99.6159C180.393 99.4559 180.041 99.3599 179.673 99.3599C178.536 99.3599 177.497 100.08 176.841 100.736V99.5199H175.433ZM186.931 110.688C188.051 110.688 188.963 110.096 189.603 108.608L193.603 99.5199H191.939L189.251 106.08L186.483 99.5199H184.803L188.547 107.76L188.259 108.384C187.987 108.96 187.491 109.312 186.851 109.312C185.971 109.312 185.283 108.8 184.979 108.48V109.968C185.315 110.272 186.019 110.688 186.931 110.688ZM198.745 108.16C201.289 108.16 203.145 106.256 203.145 103.76C203.145 101.232 201.289 99.3599 198.745 99.3599C196.201 99.3599 194.345 101.232 194.345 103.76C194.345 106.256 196.201 108.16 198.745 108.16ZM198.745 106.752C197.081 106.752 195.833 105.472 195.833 103.76C195.833 102.016 197.081 100.768 198.745 100.768C200.425 100.768 201.657 102.016 201.657 103.76C201.657 105.488 200.425 106.752 198.745 106.752ZM208.419 106.72C207.171 106.72 206.419 106.016 206.419 104.624V99.5199H204.915V104.96C204.915 107.04 205.987 108.16 207.843 108.16C209.251 108.16 210.339 107.52 211.059 106.928V108H212.467V99.5199H210.963V105.936C210.355 106.304 209.411 106.72 208.419 106.72ZM214.714 99.5199V108H216.218V101.696C216.794 101.264 217.674 100.8 218.506 100.8C219.114 100.8 219.61 100.976 219.978 101.2V99.6159C219.674 99.4559 219.322 99.3599 218.954 99.3599C217.818 99.3599 216.778 100.08 216.122 100.736V99.5199H214.714ZM226.452 96.7519L224.948 96.9919V107.488C225.812 107.808 226.868 108.16 228.34 108.16C230.692 108.16 232.724 106.704 232.724 103.584C232.724 100.832 231.14 99.3599 229.092 99.3599C227.972 99.3599 227.028 99.8079 226.452 100.224V96.7519ZM228.676 100.736C230.116 100.736 231.172 101.76 231.172 103.664C231.172 105.888 229.94 106.816 228.276 106.816C227.556 106.816 226.964 106.688 226.452 106.528V101.424C226.964 101.088 227.748 100.736 228.676 100.736ZM237.998 106.72C236.75 106.72 235.998 106.016 235.998 104.624V99.5199H234.493V104.96C234.493 107.04 235.566 108.16 237.422 108.16C238.83 108.16 239.918 107.52 240.638 106.928V108H242.046V99.5199H240.542V105.936C239.934 106.304 238.99 106.72 237.998 106.72ZM248.084 103.408L247.044 103.104C245.956 102.784 245.252 102.528 245.252 101.76C245.252 101.04 245.972 100.688 246.868 100.688C248.068 100.688 249.364 101.168 249.972 101.632V100.128C249.38 99.7279 248.164 99.3439 246.948 99.3439C244.98 99.3439 243.796 100.4 243.796 101.808C243.796 103.28 244.868 103.904 246.132 104.224L247.204 104.544C248.292 104.832 248.932 105.072 248.932 105.808C248.932 106.608 248.308 106.896 247.3 106.896C245.988 106.896 244.66 106.384 243.876 105.888V107.36C244.516 107.76 245.876 108.224 247.236 108.224C249.14 108.224 250.356 107.376 250.356 105.776C250.356 104.464 249.444 103.792 248.084 103.408ZM252.826 98.3359C253.482 98.3359 253.898 97.9839 253.898 97.4559C253.898 96.9119 253.482 96.5599 252.826 96.5599C252.17 96.5599 251.738 96.9119 251.738 97.4559C251.738 97.9839 252.17 98.3359 252.826 98.3359ZM252.058 99.5199V108H253.562V99.5199H252.058ZM255.854 99.5199V108H257.358V101.568C257.95 101.216 258.91 100.8 259.902 100.8C261.15 100.8 261.902 101.504 261.902 102.896V108H263.406V102.56C263.406 100.48 262.334 99.3599 260.462 99.3599C259.07 99.3599 257.982 99.9999 257.262 100.592V99.5199H255.854ZM272.677 107.408V106.08C272.053 106.432 270.885 106.736 269.749 106.736C267.973 106.736 266.821 105.92 266.709 104.224H272.853V103.52C272.853 100.88 271.525 99.3439 269.205 99.3439C266.837 99.3439 265.189 100.992 265.189 103.76C265.189 106.64 267.013 108.16 269.605 108.16C270.773 108.16 272.069 107.856 272.677 107.408ZM269.125 100.64C270.613 100.64 271.349 101.6 271.381 103.2H266.693C266.773 101.584 267.717 100.64 269.125 100.64ZM278.553 103.408L277.513 103.104C276.425 102.784 275.721 102.528 275.721 101.76C275.721 101.04 276.441 100.688 277.337 100.688C278.537 100.688 279.833 101.168 280.441 101.632V100.128C279.849 99.7279 278.633 99.3439 277.417 99.3439C275.449 99.3439 274.265 100.4 274.265 101.808C274.265 103.28 275.337 103.904 276.601 104.224L277.673 104.544C278.761 104.832 279.401 105.072 279.401 105.808C279.401 106.608 278.777 106.896 277.769 106.896C276.457 106.896 275.129 106.384 274.345 105.888V107.36C274.985 107.76 276.345 108.224 277.705 108.224C279.609 108.224 280.825 107.376 280.825 105.776C280.825 104.464 279.913 103.792 278.553 103.408ZM286.287 103.408L285.247 103.104C284.159 102.784 283.455 102.528 283.455 101.76C283.455 101.04 284.175 100.688 285.071 100.688C286.271 100.688 287.567 101.168 288.175 101.632V100.128C287.583 99.7279 286.367 99.3439 285.151 99.3439C283.183 99.3439 281.999 100.4 281.999 101.808C281.999 103.28 283.071 103.904 284.335 104.224L285.407 104.544C286.495 104.832 287.135 105.072 287.135 105.808C287.135 106.608 286.511 106.896 285.503 106.896C284.191 106.896 282.863 106.384 282.079 105.888V107.36C282.719 107.76 284.079 108.224 285.439 108.224C287.343 108.224 288.559 107.376 288.559 105.776C288.559 104.464 287.647 103.792 286.287 103.408ZM291.205 96.9919H289.829L289.957 100.32H291.045L291.205 96.9919ZM303.324 99.9999C302.684 99.5679 301.772 99.3439 300.796 99.3439C298.204 99.3439 296.22 101.104 296.22 103.76C296.22 106.336 298.188 108.16 300.78 108.16C301.772 108.16 302.684 107.92 303.324 107.488V105.984C302.684 106.448 301.788 106.736 300.828 106.736C299.036 106.736 297.724 105.552 297.724 103.76C297.724 101.92 299.036 100.768 300.844 100.768C301.788 100.768 302.684 101.04 303.324 101.504V99.9999ZM310.097 102.848V103.616C309.713 103.472 309.057 103.312 308.225 103.312C306.049 103.312 304.641 104.4 304.641 105.888C304.641 107.296 305.617 108.16 307.329 108.16C308.593 108.16 309.585 107.536 310.193 106.88V108H311.601V102.832C311.601 100.304 310.001 99.3599 308.161 99.3599C306.593 99.3599 305.297 100.096 304.737 100.672V102.224C305.457 101.488 306.641 100.848 307.969 100.848C309.105 100.848 310.097 101.408 310.097 102.848ZM306.049 105.824C306.049 104.944 306.913 104.352 308.593 104.352C309.137 104.352 309.713 104.448 310.097 104.56V106C309.441 106.544 308.529 106.992 307.569 106.992C306.721 106.992 306.049 106.656 306.049 105.824ZM317.553 103.408L316.513 103.104C315.425 102.784 314.721 102.528 314.721 101.76C314.721 101.04 315.441 100.688 316.337 100.688C317.537 100.688 318.833 101.168 319.441 101.632V100.128C318.849 99.7279 317.633 99.3439 316.417 99.3439C314.449 99.3439 313.265 100.4 313.265 101.808C313.265 103.28 314.337 103.904 315.601 104.224L316.673 104.544C317.761 104.832 318.401 105.072 318.401 105.808C318.401 106.608 317.777 106.896 316.769 106.896C315.457 106.896 314.129 106.384 313.345 105.888V107.36C313.985 107.76 315.345 108.224 316.705 108.224C318.609 108.224 319.825 107.376 319.825 105.776C319.825 104.464 318.913 103.792 317.553 103.408ZM325.543 100.8C326.791 100.8 327.543 101.504 327.543 102.896V108H329.047V102.56C329.047 100.48 327.975 99.3599 326.103 99.3599C324.775 99.3599 323.719 99.9359 322.999 100.512V96.7519L321.495 96.9919V108H322.999V101.568C323.591 101.216 324.551 100.8 325.543 100.8ZM334.072 100.848H335.304V108H336.808V100.848H338.68V99.5199H336.808V99.4239C336.808 98.3199 337.48 97.9679 338.408 97.9679C339.016 97.9679 339.672 98.1439 340.152 98.3519V108H341.64V96.7519L340.232 97.1839C339.848 97.0079 339.048 96.7679 338.168 96.7679C336.696 96.7679 335.304 97.5359 335.304 99.5039V99.5199H334.072V100.848ZM347.964 108.16C350.508 108.16 352.364 106.256 352.364 103.76C352.364 101.232 350.508 99.3599 347.964 99.3599C345.42 99.3599 343.564 101.232 343.564 103.76C343.564 106.256 345.42 108.16 347.964 108.16ZM347.964 106.752C346.3 106.752 345.052 105.472 345.052 103.76C345.052 102.016 346.3 100.768 347.964 100.768C349.644 100.768 350.876 102.016 350.876 103.76C350.876 105.488 349.644 106.752 347.964 106.752ZM355.958 108H357.702L359.926 101.216L362.118 108H363.878L366.47 99.5199H364.854L362.982 106.576L360.774 99.5199H359.062L356.854 106.576L354.998 99.5199H353.366L355.958 108ZM368.27 108.16C368.846 108.16 369.326 107.696 369.326 107.12C369.326 106.544 368.846 106.064 368.27 106.064C367.71 106.064 367.23 106.544 367.23 107.12C367.23 107.696 367.71 108.16 368.27 108.16ZM0.312 128.992V140H1.896V136.256H4.792C7.224 136.256 8.936 135.008 8.936 132.656C8.936 130.176 7.224 128.992 4.792 128.992H0.312ZM4.68 130.48C6.216 130.48 7.272 131.104 7.272 132.656C7.272 134.112 6.216 134.784 4.68 134.784H1.896V130.48H4.68ZM10.5731 128.992V140H12.0771V128.752L10.5731 128.992ZM19.3155 134.848V135.616C18.9315 135.472 18.2755 135.312 17.4435 135.312C15.2675 135.312 13.8595 136.4 13.8595 137.888C13.8595 139.296 14.8355 140.16 16.5475 140.16C17.8115 140.16 18.8035 139.536 19.4115 138.88V140H20.8195V134.832C20.8195 132.304 19.2195 131.36 17.3795 131.36C15.8115 131.36 14.5155 132.096 13.9555 132.672V134.224C14.6755 133.488 15.8595 132.848 17.1875 132.848C18.3235 132.848 19.3155 133.408 19.3155 134.848ZM15.2675 137.824C15.2675 136.944 16.1315 136.352 17.8115 136.352C18.3555 136.352 18.9315 136.448 19.3155 136.56V138C18.6595 138.544 17.7475 138.992 16.7875 138.992C15.9395 138.992 15.2675 138.656 15.2675 137.824ZM22.9794 131.52V140H24.4834V133.568C25.0754 133.216 26.0354 132.8 27.0274 132.8C28.2754 132.8 29.0274 133.504 29.0274 134.896V140H30.5314V134.56C30.5314 132.48 29.4594 131.36 27.5874 131.36C26.1954 131.36 25.1074 132 24.3874 132.592V131.52H22.9794ZM35.5559 132.848H36.7879V140H38.2919V132.848H40.5479V131.52H38.2919V131.488C38.2919 130.528 38.8679 129.984 39.7479 129.984C40.3879 129.984 40.9959 130.224 41.3479 130.496V129.232C41.0599 129.04 40.4199 128.736 39.5719 128.736C38.0679 128.736 36.7879 129.584 36.7879 131.504V131.52H35.5559V132.848ZM46.2138 140.16C48.7578 140.16 50.6138 138.256 50.6138 135.76C50.6138 133.232 48.7578 131.36 46.2138 131.36C43.6698 131.36 41.8138 133.232 41.8138 135.76C41.8138 138.256 43.6698 140.16 46.2138 140.16ZM46.2138 138.752C44.5498 138.752 43.3018 137.472 43.3018 135.76C43.3018 134.016 44.5498 132.768 46.2138 132.768C47.8938 132.768 49.1258 134.016 49.1258 135.76C49.1258 137.488 47.8938 138.752 46.2138 138.752ZM52.4481 131.52V140H53.9521V133.696C54.5281 133.264 55.4081 132.8 56.2401 132.8C56.8481 132.8 57.3441 132.976 57.7121 133.2V131.616C57.4081 131.456 57.0561 131.36 56.6881 131.36C55.5521 131.36 54.5121 132.08 53.8561 132.736V131.52H52.4481ZM64.1865 128.752L62.6825 128.992V139.488C63.5465 139.808 64.6025 140.16 66.0745 140.16C68.4265 140.16 70.4585 138.704 70.4585 135.584C70.4585 132.832 68.8745 131.36 66.8265 131.36C65.7065 131.36 64.7625 131.808 64.1865 132.224V128.752ZM66.4105 132.736C67.8505 132.736 68.9065 133.76 68.9065 135.664C68.9065 137.888 67.6745 138.816 66.0105 138.816C65.2905 138.816 64.6985 138.688 64.1865 138.528V133.424C64.6985 133.088 65.4825 132.736 66.4105 132.736ZM73.0919 130.336C73.7479 130.336 74.1639 129.984 74.1639 129.456C74.1639 128.912 73.7479 128.56 73.0919 128.56C72.4359 128.56 72.0039 128.912 72.0039 129.456C72.0039 129.984 72.4359 130.336 73.0919 130.336ZM72.3239 131.52V140H73.8279V131.52H72.3239ZM83.432 138.672V132.064C82.648 131.744 81.608 131.36 80.216 131.36C77.784 131.36 75.72 132.832 75.72 135.728C75.72 138.032 77.208 139.392 79.336 139.392C80.488 139.392 81.368 138.928 81.928 138.496V138.864C81.928 140.416 81.016 141.28 79.272 141.28C78.008 141.28 76.952 140.8 76.184 140.272V141.808C76.888 142.24 78.04 142.688 79.416 142.688C81.624 142.688 83.432 141.536 83.432 138.672ZM77.256 135.552C77.256 133.696 78.488 132.704 80.2 132.704C80.92 132.704 81.464 132.848 81.928 133.024V137.296C81.432 137.648 80.632 138.032 79.704 138.032C78.28 138.032 77.256 137.216 77.256 135.552ZM96.3174 139.408V138.08C95.6934 138.432 94.5254 138.736 93.3894 138.736C91.6134 138.736 90.4614 137.92 90.3494 136.224H96.4934V135.52C96.4934 132.88 95.1654 131.344 92.8454 131.344C90.4774 131.344 88.8294 132.992 88.8294 135.76C88.8294 138.64 90.6534 140.16 93.2454 140.16C94.4134 140.16 95.7094 139.856 96.3174 139.408ZM92.7654 132.64C94.2534 132.64 94.9894 133.6 95.0214 135.2H90.3334C90.4134 133.584 91.3574 132.64 92.7654 132.64ZM103.825 140H105.553L102.529 135.696L105.521 131.52H103.809L101.489 134.88L99.1693 131.52H97.4413L100.449 135.712L97.4253 140H99.1373L101.489 136.496L103.825 140ZM110.101 140.16C112.533 140.16 114.693 138.656 114.693 135.536C114.693 132.72 112.949 131.36 110.965 131.36C109.781 131.36 108.885 131.808 108.325 132.272V131.52H106.917V142.528H108.421V139.952C108.901 140.08 109.413 140.16 110.101 140.16ZM110.549 132.704C112.101 132.704 113.141 133.76 113.141 135.632C113.141 137.808 111.797 138.816 110.037 138.816C109.365 138.816 108.853 138.688 108.421 138.544V133.408C108.901 133.072 109.637 132.704 110.549 132.704ZM123.614 139.408V138.08C122.99 138.432 121.822 138.736 120.686 138.736C118.91 138.736 117.758 137.92 117.646 136.224H123.79V135.52C123.79 132.88 122.462 131.344 120.142 131.344C117.774 131.344 116.126 132.992 116.126 135.76C116.126 138.64 117.95 140.16 120.542 140.16C121.71 140.16 123.006 139.856 123.614 139.408ZM120.062 132.64C121.55 132.64 122.286 133.6 122.318 135.2H117.63C117.71 133.584 118.654 132.64 120.062 132.64ZM125.698 131.52V140H127.202V133.568C127.794 133.216 128.754 132.8 129.746 132.8C130.994 132.8 131.746 133.504 131.746 134.896V140H133.25V134.56C133.25 132.48 132.178 131.36 130.306 131.36C128.914 131.36 127.826 132 127.106 132.592V131.52H125.698ZM139.225 135.408L138.185 135.104C137.097 134.784 136.393 134.528 136.393 133.76C136.393 133.04 137.113 132.688 138.009 132.688C139.209 132.688 140.505 133.168 141.113 133.632V132.128C140.521 131.728 139.305 131.344 138.089 131.344C136.121 131.344 134.937 132.4 134.937 133.808C134.937 135.28 136.009 135.904 137.273 136.224L138.345 136.544C139.433 136.832 140.073 137.072 140.073 137.808C140.073 138.608 139.449 138.896 138.441 138.896C137.129 138.896 135.801 138.384 135.017 137.888V139.36C135.657 139.76 137.017 140.224 138.377 140.224C140.281 140.224 141.497 139.376 141.497 137.776C141.497 136.464 140.585 135.792 139.225 135.408ZM150.255 139.408V138.08C149.631 138.432 148.463 138.736 147.327 138.736C145.551 138.736 144.399 137.92 144.287 136.224H150.431V135.52C150.431 132.88 149.103 131.344 146.783 131.344C144.415 131.344 142.767 132.992 142.767 135.76C142.767 138.64 144.591 140.16 147.183 140.16C148.351 140.16 149.647 139.856 150.255 139.408ZM146.703 132.64C148.191 132.64 148.927 133.6 148.959 135.2H144.271C144.351 133.584 145.295 132.64 146.703 132.64ZM156.131 135.408L155.091 135.104C154.003 134.784 153.299 134.528 153.299 133.76C153.299 133.04 154.019 132.688 154.915 132.688C156.115 132.688 157.411 133.168 158.019 133.632V132.128C157.427 131.728 156.211 131.344 154.995 131.344C153.027 131.344 151.843 132.4 151.843 133.808C151.843 135.28 152.915 135.904 154.179 136.224L155.251 136.544C156.339 136.832 156.979 137.072 156.979 137.808C156.979 138.608 156.355 138.896 155.347 138.896C154.035 138.896 152.707 138.384 151.923 137.888V139.36C152.563 139.76 153.923 140.224 155.283 140.224C157.187 140.224 158.403 139.376 158.403 137.776C158.403 136.464 157.491 135.792 156.131 135.408ZM161.337 138.176H159.721L158.809 141.888H160.041L161.337 138.176ZM166.417 131.52V140H167.921V133.584C168.497 133.232 169.377 132.8 170.305 132.8C171.441 132.8 172.145 133.488 172.145 134.832V140H173.649V134.416C173.649 134.128 173.633 133.84 173.585 133.584C174.193 133.216 175.089 132.8 176.033 132.8C177.185 132.8 177.889 133.488 177.889 134.832V140H179.377V134.496C179.377 132.464 178.369 131.36 176.609 131.36C175.137 131.36 174.049 132.08 173.313 132.736C172.881 131.84 172.049 131.36 170.865 131.36C169.537 131.36 168.513 132 167.825 132.592V131.52H166.417ZM186.566 134.848V135.616C186.182 135.472 185.526 135.312 184.694 135.312C182.518 135.312 181.11 136.4 181.11 137.888C181.11 139.296 182.086 140.16 183.798 140.16C185.062 140.16 186.054 139.536 186.662 138.88V140H188.07V134.832C188.07 132.304 186.47 131.36 184.63 131.36C183.062 131.36 181.766 132.096 181.206 132.672V134.224C181.926 133.488 183.11 132.848 184.438 132.848C185.574 132.848 186.566 133.408 186.566 134.848ZM182.518 137.824C182.518 136.944 183.382 136.352 185.062 136.352C185.606 136.352 186.182 136.448 186.566 136.56V138C185.91 138.544 184.998 138.992 184.038 138.992C183.19 138.992 182.518 138.656 182.518 137.824ZM190.229 131.52V140H191.733V133.568C192.325 133.216 193.285 132.8 194.277 132.8C195.525 132.8 196.277 133.504 196.277 134.896V140H197.781V134.56C197.781 132.48 196.709 131.36 194.837 131.36C193.445 131.36 192.357 132 191.637 132.592V131.52H190.229ZM204.972 134.848V135.616C204.588 135.472 203.932 135.312 203.1 135.312C200.924 135.312 199.516 136.4 199.516 137.888C199.516 139.296 200.492 140.16 202.204 140.16C203.468 140.16 204.46 139.536 205.068 138.88V140H206.476V134.832C206.476 132.304 204.876 131.36 203.036 131.36C201.468 131.36 200.172 132.096 199.612 132.672V134.224C200.332 133.488 201.516 132.848 202.844 132.848C203.98 132.848 204.972 133.408 204.972 134.848ZM200.924 137.824C200.924 136.944 201.788 136.352 203.468 136.352C204.012 136.352 204.588 136.448 204.972 136.56V138C204.316 138.544 203.404 138.992 202.444 138.992C201.596 138.992 200.924 138.656 200.924 137.824ZM215.948 138.672V132.064C215.164 131.744 214.124 131.36 212.732 131.36C210.3 131.36 208.236 132.832 208.236 135.728C208.236 138.032 209.724 139.392 211.852 139.392C213.004 139.392 213.884 138.928 214.444 138.496V138.864C214.444 140.416 213.532 141.28 211.788 141.28C210.524 141.28 209.468 140.8 208.7 140.272V141.808C209.404 142.24 210.556 142.688 211.932 142.688C214.14 142.688 215.948 141.536 215.948 138.672ZM209.772 135.552C209.772 133.696 211.004 132.704 212.716 132.704C213.436 132.704 213.98 132.848 214.444 133.024V137.296C213.948 137.648 213.148 138.032 212.22 138.032C210.796 138.032 209.772 137.216 209.772 135.552ZM225.255 139.408V138.08C224.631 138.432 223.463 138.736 222.327 138.736C220.551 138.736 219.399 137.92 219.287 136.224H225.431V135.52C225.431 132.88 224.103 131.344 221.783 131.344C219.415 131.344 217.767 132.992 217.767 135.76C217.767 138.64 219.591 140.16 222.183 140.16C223.351 140.16 224.647 139.856 225.255 139.408ZM221.703 132.64C223.191 132.64 223.927 133.6 223.959 135.2H219.271C219.351 133.584 220.295 132.64 221.703 132.64ZM234.101 140.16C236.533 140.16 238.693 138.656 238.693 135.536C238.693 132.72 236.949 131.36 234.965 131.36C233.781 131.36 232.885 131.808 232.325 132.272V131.52H230.917V142.528H232.421V139.952C232.901 140.08 233.413 140.16 234.101 140.16ZM234.549 132.704C236.101 132.704 237.141 133.76 237.141 135.632C237.141 137.808 235.797 138.816 234.037 138.816C233.365 138.816 232.853 138.688 232.421 138.544V133.408C232.901 133.072 233.637 132.704 234.549 132.704ZM240.526 131.52V140H242.03V133.696C242.606 133.264 243.486 132.8 244.318 132.8C244.926 132.8 245.422 132.976 245.79 133.2V131.616C245.486 131.456 245.134 131.36 244.766 131.36C243.63 131.36 242.59 132.08 241.934 132.736V131.52H240.526ZM251.183 140.16C253.727 140.16 255.583 138.256 255.583 135.76C255.583 133.232 253.727 131.36 251.183 131.36C248.639 131.36 246.783 133.232 246.783 135.76C246.783 138.256 248.639 140.16 251.183 140.16ZM251.183 138.752C249.519 138.752 248.271 137.472 248.271 135.76C248.271 134.016 249.519 132.768 251.183 132.768C252.863 132.768 254.095 134.016 254.095 135.76C254.095 137.488 252.863 138.752 251.183 138.752ZM263.481 130.336C264.137 130.336 264.553 129.984 264.553 129.456C264.553 128.912 264.137 128.56 263.481 128.56C262.825 128.56 262.393 128.912 262.393 129.456C262.393 129.984 262.825 130.336 263.481 130.336ZM256.681 132.848H257.913V140H259.417V132.848H262.761V140H264.249V131.52H259.417V131.312C259.417 130.384 259.865 129.968 260.729 129.968C260.969 129.968 261.193 130 261.433 130.064V128.816C261.161 128.768 260.873 128.72 260.569 128.72C259.241 128.72 257.913 129.36 257.913 131.424V131.52H256.681V132.848ZM271.676 139.632V138.336C271.292 138.576 270.668 138.8 269.996 138.8C269.132 138.8 268.62 138.416 268.62 137.44V132.848H271.612V131.52H268.62V129.92H268.268L265.82 132.464V132.848H267.116V137.6C267.116 139.648 268.3 140.16 269.628 140.16C270.572 140.16 271.26 139.904 271.676 139.632ZM277.1 135.408L276.06 135.104C274.972 134.784 274.268 134.528 274.268 133.76C274.268 133.04 274.988 132.688 275.884 132.688C277.084 132.688 278.38 133.168 278.988 133.632V132.128C278.396 131.728 277.18 131.344 275.964 131.344C273.996 131.344 272.812 132.4 272.812 133.808C272.812 135.28 273.884 135.904 275.148 136.224L276.22 136.544C277.308 136.832 277.948 137.072 277.948 137.808C277.948 138.608 277.324 138.896 276.316 138.896C275.004 138.896 273.676 138.384 272.892 137.888V139.36C273.532 139.76 274.892 140.224 276.252 140.224C278.156 140.224 279.372 139.376 279.372 137.776C279.372 136.464 278.46 135.792 277.1 135.408ZM282.306 138.176H280.69L279.778 141.888H281.01L282.306 138.176ZM289.85 140H291.61L295.098 131.52H293.466L290.762 138.672L288.026 131.52H286.394L289.85 140ZM303.411 139.408V138.08C302.787 138.432 301.619 138.736 300.483 138.736C298.707 138.736 297.555 137.92 297.443 136.224H303.587V135.52C303.587 132.88 302.259 131.344 299.939 131.344C297.571 131.344 295.923 132.992 295.923 135.76C295.923 138.64 297.747 140.16 300.339 140.16C301.507 140.16 302.803 139.856 303.411 139.408ZM299.859 132.64C301.347 132.64 302.083 133.6 302.115 135.2H297.427C297.507 133.584 298.451 132.64 299.859 132.64ZM305.495 131.52V140H306.999V133.568C307.591 133.216 308.551 132.8 309.543 132.8C310.791 132.8 311.543 133.504 311.543 134.896V140H313.047V134.56C313.047 132.48 311.975 131.36 310.103 131.36C308.711 131.36 307.623 132 306.903 132.592V131.52H305.495ZM321.197 140H322.605V128.752L321.101 128.992V131.568C320.621 131.456 320.093 131.36 319.405 131.36C316.989 131.36 314.829 132.864 314.829 135.984C314.829 138.8 316.573 140.16 318.557 140.16C319.741 140.16 320.637 139.712 321.197 139.248V140ZM319.485 132.704C320.157 132.704 320.669 132.832 321.101 132.976V138.128C320.637 138.448 319.853 138.816 318.957 138.816C317.389 138.816 316.365 137.76 316.365 135.888C316.365 133.712 317.725 132.704 319.485 132.704ZM328.839 140.16C331.383 140.16 333.239 138.256 333.239 135.76C333.239 133.232 331.383 131.36 328.839 131.36C326.295 131.36 324.439 133.232 324.439 135.76C324.439 138.256 326.295 140.16 328.839 140.16ZM328.839 138.752C327.175 138.752 325.927 137.472 325.927 135.76C325.927 134.016 327.175 132.768 328.839 132.768C330.519 132.768 331.751 134.016 331.751 135.76C331.751 137.488 330.519 138.752 328.839 138.752ZM335.073 131.52V140H336.577V133.696C337.153 133.264 338.033 132.8 338.865 132.8C339.473 132.8 339.969 132.976 340.337 133.2V131.616C340.033 131.456 339.681 131.36 339.313 131.36C338.177 131.36 337.137 132.08 336.481 132.736V131.52H335.073ZM345.521 135.408L344.481 135.104C343.393 134.784 342.689 134.528 342.689 133.76C342.689 133.04 343.409 132.688 344.305 132.688C345.505 132.688 346.801 133.168 347.409 133.632V132.128C346.817 131.728 345.601 131.344 344.385 131.344C342.417 131.344 341.233 132.4 341.233 133.808C341.233 135.28 342.305 135.904 343.569 136.224L344.641 136.544C345.729 136.832 346.369 137.072 346.369 137.808C346.369 138.608 345.745 138.896 344.737 138.896C343.425 138.896 342.097 138.384 341.313 137.888V139.36C341.953 139.76 343.313 140.224 344.673 140.224C346.577 140.224 347.793 139.376 347.793 137.776C347.793 136.464 346.881 135.792 345.521 135.408ZM350.728 138.176H349.112L348.2 141.888H349.432L350.728 138.176ZM360.816 134.848V135.616C360.432 135.472 359.776 135.312 358.944 135.312C356.768 135.312 355.36 136.4 355.36 137.888C355.36 139.296 356.336 140.16 358.048 140.16C359.312 140.16 360.304 139.536 360.912 138.88V140H362.32V134.832C362.32 132.304 360.72 131.36 358.88 131.36C357.312 131.36 356.016 132.096 355.456 132.672V134.224C356.176 133.488 357.36 132.848 358.688 132.848C359.824 132.848 360.816 133.408 360.816 134.848ZM356.768 137.824C356.768 136.944 357.632 136.352 359.312 136.352C359.856 136.352 360.432 136.448 360.816 136.56V138C360.16 138.544 359.248 138.992 358.288 138.992C357.44 138.992 356.768 138.656 356.768 137.824ZM364.479 131.52V140H365.983V133.568C366.575 133.216 367.535 132.8 368.527 132.8C369.775 132.8 370.527 133.504 370.527 134.896V140H372.031V134.56C372.031 132.48 370.959 131.36 369.087 131.36C367.695 131.36 366.607 132 365.887 132.592V131.52H364.479ZM380.182 140H381.59V128.752L380.086 128.992V131.568C379.606 131.456 379.078 131.36 378.39 131.36C375.974 131.36 373.814 132.864 373.814 135.984C373.814 138.8 375.558 140.16 377.542 140.16C378.726 140.16 379.622 139.712 380.182 139.248V140ZM378.47 132.704C379.142 132.704 379.654 132.832 380.086 132.976V138.128C379.622 138.448 378.838 138.816 377.942 138.816C376.374 138.816 375.35 137.76 375.35 135.888C375.35 133.712 376.71 132.704 378.47 132.704ZM0.12 163.52V172H1.624V165.584C2.2 165.232 3.08 164.8 4.008 164.8C5.144 164.8 5.848 165.488 5.848 166.832V172H7.352V166.416C7.352 166.128 7.336 165.84 7.288 165.584C7.896 165.216 8.792 164.8 9.736 164.8C10.888 164.8 11.592 165.488 11.592 166.832V172H13.08V166.496C13.08 164.464 12.072 163.36 10.312 163.36C8.84 163.36 7.752 164.08 7.016 164.736C6.584 163.84 5.752 163.36 4.568 163.36C3.24 163.36 2.216 164 1.528 164.592V163.52H0.12ZM19.2606 172.16C21.8046 172.16 23.6606 170.256 23.6606 167.76C23.6606 165.232 21.8046 163.36 19.2606 163.36C16.7166 163.36 14.8606 165.232 14.8606 167.76C14.8606 170.256 16.7166 172.16 19.2606 172.16ZM19.2606 170.752C17.5966 170.752 16.3486 169.472 16.3486 167.76C16.3486 166.016 17.5966 164.768 19.2606 164.768C20.9406 164.768 22.1726 166.016 22.1726 167.76C22.1726 169.488 20.9406 170.752 19.2606 170.752ZM25.495 163.52V172H26.999V165.696C27.575 165.264 28.455 164.8 29.287 164.8C29.895 164.8 30.391 164.976 30.759 165.2V163.616C30.455 163.456 30.103 163.36 29.735 163.36C28.599 163.36 27.559 164.08 26.903 164.736V163.52H25.495ZM39.2393 171.408V170.08C38.6153 170.432 37.4473 170.736 36.3113 170.736C34.5353 170.736 33.3832 169.92 33.2713 168.224H39.4153V167.52C39.4153 164.88 38.0873 163.344 35.7673 163.344C33.3993 163.344 31.7513 164.992 31.7513 167.76C31.7513 170.64 33.5753 172.16 36.1673 172.16C37.3353 172.16 38.6313 171.856 39.2393 171.408ZM35.6873 164.64C37.1753 164.64 37.9113 165.6 37.9433 167.2H33.2553C33.3353 165.584 34.2793 164.64 35.6873 164.64ZM46.6613 172H48.4053L50.6293 165.216L52.8212 172H54.5813L57.1733 163.52H55.5573L53.6853 170.576L51.4773 163.52H49.7653L47.5573 170.576L45.7013 163.52H44.0693L46.6613 172ZM59.3888 162.336C60.0448 162.336 60.4608 161.984 60.4608 161.456C60.4608 160.912 60.0448 160.56 59.3888 160.56C58.7328 160.56 58.3008 160.912 58.3008 161.456C58.3008 161.984 58.7328 162.336 59.3888 162.336ZM58.6208 163.52V172H60.1248V163.52H58.6208ZM67.4729 171.632V170.336C67.0889 170.576 66.4649 170.8 65.7929 170.8C64.9289 170.8 64.4169 170.416 64.4169 169.44V164.848H67.4089V163.52H64.4169V161.92H64.0649L61.6169 164.464V164.848H62.9129V169.6C62.9129 171.648 64.0969 172.16 65.4249 172.16C66.3689 172.16 67.0569 171.904 67.4729 171.632ZM73.1524 164.8C74.4004 164.8 75.1524 165.504 75.1524 166.896V172H76.6564V166.56C76.6564 164.48 75.5844 163.36 73.7124 163.36C72.3844 163.36 71.3284 163.936 70.6084 164.512V160.752L69.1044 160.992V172H70.6084V165.568C71.2004 165.216 72.1604 164.8 73.1524 164.8ZM84.8809 172H86.6409L90.1289 163.52H88.4969L85.7929 170.672L83.0569 163.52H81.4249L84.8809 172ZM92.1544 162.336C92.8104 162.336 93.2264 161.984 93.2264 161.456C93.2264 160.912 92.8104 160.56 92.1544 160.56C91.4984 160.56 91.0664 160.912 91.0664 161.456C91.0664 161.984 91.4984 162.336 92.1544 162.336ZM91.3864 163.52V172H92.8904V163.52H91.3864ZM98.9745 167.408L97.9345 167.104C96.8465 166.784 96.1425 166.528 96.1425 165.76C96.1425 165.04 96.8625 164.688 97.7585 164.688C98.9585 164.688 100.255 165.168 100.863 165.632V164.128C100.271 163.728 99.0545 163.344 97.8385 163.344C95.8705 163.344 94.6865 164.4 94.6865 165.808C94.6865 167.28 95.7585 167.904 97.0225 168.224L98.0945 168.544C99.1825 168.832 99.8225 169.072 99.8225 169.808C99.8225 170.608 99.1985 170.896 98.1905 170.896C96.8785 170.896 95.5505 170.384 94.7665 169.888V171.36C95.4065 171.76 96.7665 172.224 98.1265 172.224C100.031 172.224 101.247 171.376 101.247 169.776C101.247 168.464 100.335 167.792 98.9745 167.408ZM103.717 162.336C104.373 162.336 104.789 161.984 104.789 161.456C104.789 160.912 104.373 160.56 103.717 160.56C103.061 160.56 102.629 160.912 102.629 161.456C102.629 161.984 103.061 162.336 103.717 162.336ZM102.949 163.52V172H104.453V163.52H102.949ZM108.249 160.752L106.745 160.992V171.488C107.609 171.808 108.665 172.16 110.137 172.16C112.489 172.16 114.521 170.704 114.521 167.584C114.521 164.832 112.937 163.36 110.889 163.36C109.769 163.36 108.825 163.808 108.249 164.224V160.752ZM110.473 164.736C111.913 164.736 112.969 165.76 112.969 167.664C112.969 169.888 111.737 170.816 110.073 170.816C109.353 170.816 108.761 170.688 108.249 170.528V165.424C108.761 165.088 109.545 164.736 110.473 164.736ZM117.154 162.336C117.81 162.336 118.226 161.984 118.226 161.456C118.226 160.912 117.81 160.56 117.154 160.56C116.498 160.56 116.066 160.912 116.066 161.456C116.066 161.984 116.498 162.336 117.154 162.336ZM116.386 163.52V172H117.89V163.52H116.386ZM120.183 160.992V172H121.687V160.752L120.183 160.992ZM124.717 162.336C125.373 162.336 125.789 161.984 125.789 161.456C125.789 160.912 125.373 160.56 124.717 160.56C124.061 160.56 123.629 160.912 123.629 161.456C123.629 161.984 124.061 162.336 124.717 162.336ZM123.949 163.52V172H125.453V163.52H123.949ZM132.801 171.632V170.336C132.417 170.576 131.793 170.8 131.121 170.8C130.257 170.8 129.745 170.416 129.745 169.44V164.848H132.737V163.52H129.745V161.92H129.393L126.945 164.464V164.848H128.241V169.6C128.241 171.648 129.425 172.16 130.753 172.16C131.697 172.16 132.385 171.904 132.801 171.632ZM135.697 174.688C136.817 174.688 137.729 174.096 138.369 172.608L142.369 163.52H140.705L138.016 170.08L135.249 163.52H133.569L137.312 171.76L137.025 172.384C136.753 172.96 136.257 173.312 135.617 173.312C134.737 173.312 134.049 172.8 133.745 172.48V173.968C134.081 174.272 134.785 174.688 135.697 174.688ZM151.089 172.16C153.633 172.16 155.489 170.256 155.489 167.76C155.489 165.232 153.633 163.36 151.089 163.36C148.545 163.36 146.689 165.232 146.689 167.76C146.689 170.256 148.545 172.16 151.089 172.16ZM151.089 170.752C149.425 170.752 148.177 169.472 148.177 167.76C148.177 166.016 149.425 164.768 151.089 164.768C152.769 164.768 154.001 166.016 154.001 167.76C154.001 169.488 152.769 170.752 151.089 170.752ZM159.787 172H161.547L165.035 163.52H163.403L160.699 170.672L157.963 163.52H156.331L159.787 172ZM173.349 171.408V170.08C172.725 170.432 171.557 170.736 170.421 170.736C168.645 170.736 167.493 169.92 167.381 168.224H173.525V167.52C173.525 164.88 172.197 163.344 169.877 163.344C167.509 163.344 165.861 164.992 165.861 167.76C165.861 170.64 167.685 172.16 170.277 172.16C171.445 172.16 172.741 171.856 173.349 171.408ZM169.797 164.64C171.285 164.64 172.021 165.6 172.053 167.2H167.365C167.445 165.584 168.389 164.64 169.797 164.64ZM175.433 163.52V172H176.937V165.696C177.513 165.264 178.393 164.8 179.225 164.8C179.833 164.8 180.329 164.976 180.697 165.2V163.616C180.393 163.456 180.041 163.36 179.673 163.36C178.536 163.36 177.497 164.08 176.841 164.736V163.52H175.433ZM186.931 174.688C188.051 174.688 188.963 174.096 189.603 172.608L193.603 163.52H191.939L189.251 170.08L186.483 163.52H184.803L188.547 171.76L188.259 172.384C187.987 172.96 187.491 173.312 186.851 173.312C185.971 173.312 185.283 172.8 184.979 172.48V173.968C185.315 174.272 186.019 174.688 186.931 174.688ZM198.745 172.16C201.289 172.16 203.145 170.256 203.145 167.76C203.145 165.232 201.289 163.36 198.745 163.36C196.201 163.36 194.345 165.232 194.345 167.76C194.345 170.256 196.201 172.16 198.745 172.16ZM198.745 170.752C197.081 170.752 195.833 169.472 195.833 167.76C195.833 166.016 197.081 164.768 198.745 164.768C200.425 164.768 201.657 166.016 201.657 167.76C201.657 169.488 200.425 170.752 198.745 170.752ZM208.419 170.72C207.171 170.72 206.419 170.016 206.419 168.624V163.52H204.915V168.96C204.915 171.04 205.987 172.16 207.843 172.16C209.251 172.16 210.339 171.52 211.059 170.928V172H212.467V163.52H210.963V169.936C210.355 170.304 209.411 170.72 208.419 170.72ZM214.714 163.52V172H216.218V165.696C216.794 165.264 217.674 164.8 218.506 164.8C219.114 164.8 219.61 164.976 219.978 165.2V163.616C219.674 163.456 219.322 163.36 218.954 163.36C217.818 163.36 216.778 164.08 216.122 164.736V163.52H214.714ZM226.452 160.752L224.948 160.992V171.488C225.812 171.808 226.868 172.16 228.34 172.16C230.692 172.16 232.724 170.704 232.724 167.584C232.724 164.832 231.14 163.36 229.092 163.36C227.972 163.36 227.028 163.808 226.452 164.224V160.752ZM228.676 164.736C230.116 164.736 231.172 165.76 231.172 167.664C231.172 169.888 229.94 170.816 228.276 170.816C227.556 170.816 226.964 170.688 226.452 170.528V165.424C226.964 165.088 227.748 164.736 228.676 164.736ZM237.998 170.72C236.75 170.72 235.998 170.016 235.998 168.624V163.52H234.493V168.96C234.493 171.04 235.566 172.16 237.422 172.16C238.83 172.16 239.918 171.52 240.638 170.928V172H242.046V163.52H240.542V169.936C239.934 170.304 238.99 170.72 237.998 170.72ZM248.084 167.408L247.044 167.104C245.956 166.784 245.252 166.528 245.252 165.76C245.252 165.04 245.972 164.688 246.868 164.688C248.068 164.688 249.364 165.168 249.972 165.632V164.128C249.38 163.728 248.164 163.344 246.948 163.344C244.98 163.344 243.796 164.4 243.796 165.808C243.796 167.28 244.868 167.904 246.132 168.224L247.204 168.544C248.292 168.832 248.932 169.072 248.932 169.808C248.932 170.608 248.308 170.896 247.3 170.896C245.988 170.896 244.66 170.384 243.876 169.888V171.36C244.516 171.76 245.876 172.224 247.236 172.224C249.14 172.224 250.356 171.376 250.356 169.776C250.356 168.464 249.444 167.792 248.084 167.408ZM252.826 162.336C253.482 162.336 253.898 161.984 253.898 161.456C253.898 160.912 253.482 160.56 252.826 160.56C252.17 160.56 251.738 160.912 251.738 161.456C251.738 161.984 252.17 162.336 252.826 162.336ZM252.058 163.52V172H253.562V163.52H252.058ZM255.854 163.52V172H257.358V165.568C257.95 165.216 258.91 164.8 259.902 164.8C261.15 164.8 261.902 165.504 261.902 166.896V172H263.406V166.56C263.406 164.48 262.334 163.36 260.462 163.36C259.07 163.36 257.982 164 257.262 164.592V163.52H255.854ZM272.677 171.408V170.08C272.053 170.432 270.885 170.736 269.749 170.736C267.973 170.736 266.821 169.92 266.709 168.224H272.853V167.52C272.853 164.88 271.525 163.344 269.205 163.344C266.837 163.344 265.189 164.992 265.189 167.76C265.189 170.64 267.013 172.16 269.605 172.16C270.773 172.16 272.069 171.856 272.677 171.408ZM269.125 164.64C270.613 164.64 271.349 165.6 271.381 167.2H266.693C266.773 165.584 267.717 164.64 269.125 164.64ZM278.553 167.408L277.513 167.104C276.425 166.784 275.721 166.528 275.721 165.76C275.721 165.04 276.441 164.688 277.337 164.688C278.537 164.688 279.833 165.168 280.441 165.632V164.128C279.849 163.728 278.633 163.344 277.417 163.344C275.449 163.344 274.265 164.4 274.265 165.808C274.265 167.28 275.337 167.904 276.601 168.224L277.673 168.544C278.761 168.832 279.401 169.072 279.401 169.808C279.401 170.608 278.777 170.896 277.769 170.896C276.457 170.896 275.129 170.384 274.345 169.888V171.36C274.985 171.76 276.345 172.224 277.705 172.224C279.609 172.224 280.825 171.376 280.825 169.776C280.825 168.464 279.913 167.792 278.553 167.408ZM286.287 167.408L285.247 167.104C284.159 166.784 283.455 166.528 283.455 165.76C283.455 165.04 284.175 164.688 285.071 164.688C286.271 164.688 287.567 165.168 288.175 165.632V164.128C287.583 163.728 286.367 163.344 285.151 163.344C283.183 163.344 281.999 164.4 281.999 165.808C281.999 167.28 283.071 167.904 284.335 168.224L285.407 168.544C286.495 168.832 287.135 169.072 287.135 169.808C287.135 170.608 286.511 170.896 285.503 170.896C284.191 170.896 282.863 170.384 282.079 169.888V171.36C282.719 171.76 284.079 172.224 285.439 172.224C287.343 172.224 288.559 171.376 288.559 169.776C288.559 168.464 287.647 167.792 286.287 167.408ZM291.205 160.992H289.829L289.957 164.32H291.045L291.205 160.992ZM303.324 164C302.684 163.568 301.772 163.344 300.796 163.344C298.204 163.344 296.22 165.104 296.22 167.76C296.22 170.336 298.188 172.16 300.78 172.16C301.772 172.16 302.684 171.92 303.324 171.488V169.984C302.684 170.448 301.788 170.736 300.828 170.736C299.036 170.736 297.724 169.552 297.724 167.76C297.724 165.92 299.036 164.768 300.844 164.768C301.788 164.768 302.684 165.04 303.324 165.504V164ZM310.097 166.848V167.616C309.713 167.472 309.057 167.312 308.225 167.312C306.049 167.312 304.641 168.4 304.641 169.888C304.641 171.296 305.617 172.16 307.329 172.16C308.593 172.16 309.585 171.536 310.193 170.88V172H311.601V166.832C311.601 164.304 310.001 163.36 308.161 163.36C306.593 163.36 305.297 164.096 304.737 164.672V166.224C305.457 165.488 306.641 164.848 307.969 164.848C309.105 164.848 310.097 165.408 310.097 166.848ZM306.049 169.824C306.049 168.944 306.913 168.352 308.593 168.352C309.137 168.352 309.713 168.448 310.097 168.56V170C309.441 170.544 308.529 170.992 307.569 170.992C306.721 170.992 306.049 170.656 306.049 169.824ZM317.553 167.408L316.513 167.104C315.425 166.784 314.721 166.528 314.721 165.76C314.721 165.04 315.441 164.688 316.337 164.688C317.537 164.688 318.833 165.168 319.441 165.632V164.128C318.849 163.728 317.633 163.344 316.417 163.344C314.449 163.344 313.265 164.4 313.265 165.808C313.265 167.28 314.337 167.904 315.601 168.224L316.673 168.544C317.761 168.832 318.401 169.072 318.401 169.808C318.401 170.608 317.777 170.896 316.769 170.896C315.457 170.896 314.129 170.384 313.345 169.888V171.36C313.985 171.76 315.345 172.224 316.705 172.224C318.609 172.224 319.825 171.376 319.825 169.776C319.825 168.464 318.913 167.792 317.553 167.408ZM325.543 164.8C326.791 164.8 327.543 165.504 327.543 166.896V172H329.047V166.56C329.047 164.48 327.975 163.36 326.103 163.36C324.775 163.36 323.719 163.936 322.999 164.512V160.752L321.495 160.992V172H322.999V165.568C323.591 165.216 324.551 164.8 325.543 164.8ZM334.072 164.848H335.304V172H336.808V164.848H338.68V163.52H336.808V163.424C336.808 162.32 337.48 161.968 338.408 161.968C339.016 161.968 339.672 162.144 340.152 162.352V172H341.64V160.752L340.232 161.184C339.848 161.008 339.048 160.768 338.168 160.768C336.696 160.768 335.304 161.536 335.304 163.504V163.52H334.072V164.848ZM347.964 172.16C350.508 172.16 352.364 170.256 352.364 167.76C352.364 165.232 350.508 163.36 347.964 163.36C345.42 163.36 343.564 165.232 343.564 167.76C343.564 170.256 345.42 172.16 347.964 172.16ZM347.964 170.752C346.3 170.752 345.052 169.472 345.052 167.76C345.052 166.016 346.3 164.768 347.964 164.768C349.644 164.768 350.876 166.016 350.876 167.76C350.876 169.488 349.644 170.752 347.964 170.752ZM355.958 172H357.702L359.926 165.216L362.118 172H363.878L366.47 163.52H364.854L362.982 170.576L360.774 163.52H359.062L356.854 170.576L354.998 163.52H353.366L355.958 172ZM368.27 172.16C368.846 172.16 369.326 171.696 369.326 171.12C369.326 170.544 368.846 170.064 368.27 170.064C367.71 170.064 367.23 170.544 367.23 171.12C367.23 171.696 367.71 172.16 368.27 172.16Z" fill="#08051E" fill-opacity="0.64"/>
</svg>
