<svg width="552" height="280" viewBox="0 0 552 280" fill="none" xmlns="http://www.w3.org/2000/svg">
<rect x="0.5" y="0.5" width="551" height="279" rx="7.5" fill="#0D0A2C" stroke="url(#paint0_linear_232_429)"/>
<path d="M99.128 57.0921V57.8601C98.744 57.7161 98.088 57.5561 97.256 57.5561C95.08 57.5561 93.672 58.6441 93.672 60.1321C93.672 61.5401 94.648 62.4041 96.36 62.4041C97.624 62.4041 98.616 61.7801 99.224 61.1241V62.2441H100.632V57.0761C100.632 54.5481 99.032 53.6041 97.192 53.6041C95.624 53.6041 94.328 54.3401 93.768 54.9161V56.4681C94.488 55.7321 95.672 55.0921 97 55.0921C98.136 55.0921 99.128 55.6521 99.128 57.0921ZM95.08 60.0681C95.08 59.1881 95.944 58.5961 97.624 58.5961C98.168 58.5961 98.744 58.6921 99.128 58.8041V60.2441C98.472 60.7881 97.56 61.2361 96.6 61.2361C95.752 61.2361 95.08 60.9001 95.08 60.0681ZM108.216 62.2441H109.944L106.92 57.9401L109.912 53.7641H108.2L105.88 57.1241L103.56 53.7641H101.832L104.84 57.9561L101.816 62.2441H103.528L105.88 58.7401L108.216 62.2441ZM112.108 52.5801C112.764 52.5801 113.18 52.2281 113.18 51.7001C113.18 51.1561 112.764 50.8041 112.108 50.8041C111.452 50.8041 111.02 51.1561 111.02 51.7001C111.02 52.2281 111.452 52.5801 112.108 52.5801ZM111.34 53.7641V62.2441H112.844V53.7641H111.34ZM119.136 62.4041C121.68 62.4041 123.536 60.5001 123.536 58.0041C123.536 55.4761 121.68 53.6041 119.136 53.6041C116.592 53.6041 114.736 55.4761 114.736 58.0041C114.736 60.5001 116.592 62.4041 119.136 62.4041ZM119.136 60.9961C117.472 60.9961 116.224 59.7161 116.224 58.0041C116.224 56.2601 117.472 55.0121 119.136 55.0121C120.816 55.0121 122.048 56.2601 122.048 58.0041C122.048 59.7321 120.816 60.9961 119.136 60.9961ZM129.162 57.6521L128.122 57.3481C127.034 57.0281 126.33 56.7721 126.33 56.0041C126.33 55.2841 127.05 54.9321 127.946 54.9321C129.146 54.9321 130.442 55.4121 131.05 55.8761V54.3721C130.458 53.9721 129.242 53.5881 128.026 53.5881C126.058 53.5881 124.874 54.6441 124.874 56.0521C124.874 57.5241 125.946 58.1481 127.21 58.4681L128.282 58.7881C129.37 59.0761 130.01 59.3161 130.01 60.0521C130.01 60.8521 129.386 61.1401 128.378 61.1401C127.066 61.1401 125.738 60.6281 124.954 60.1321V61.6041C125.594 62.0041 126.954 62.4681 128.314 62.4681C130.218 62.4681 131.434 61.6201 131.434 60.0201C131.434 58.7081 130.522 58.0361 129.162 57.6521ZM137.067 62.4041C137.643 62.4041 138.123 61.9401 138.123 61.3641C138.123 60.7881 137.643 60.3081 137.067 60.3081C136.507 60.3081 136.027 60.7881 136.027 61.3641C136.027 61.9401 136.507 62.4041 137.067 62.4041ZM142.898 62.4041C145.33 62.4041 147.49 60.9001 147.49 57.7801C147.49 54.9641 145.746 53.6041 143.762 53.6041C142.578 53.6041 141.682 54.0521 141.122 54.5161V53.7641H139.714V64.7721H141.218V62.1961C141.698 62.3241 142.21 62.4041 142.898 62.4041ZM143.346 54.9481C144.898 54.9481 145.938 56.0041 145.938 57.8761C145.938 60.0521 144.594 61.0601 142.834 61.0601C142.162 61.0601 141.65 60.9321 141.218 60.7881V55.6521C141.698 55.3161 142.434 54.9481 143.346 54.9481ZM153.323 62.4041C155.867 62.4041 157.723 60.5001 157.723 58.0041C157.723 55.4761 155.867 53.6041 153.323 53.6041C150.779 53.6041 148.923 55.4761 148.923 58.0041C148.923 60.5001 150.779 62.4041 153.323 62.4041ZM153.323 60.9961C151.659 60.9961 150.411 59.7161 150.411 58.0041C150.411 56.2601 151.659 55.0121 153.323 55.0121C155.003 55.0121 156.235 56.2601 156.235 58.0041C156.235 59.7321 155.003 60.9961 153.323 60.9961ZM163.35 57.6521L162.31 57.3481C161.222 57.0281 160.518 56.7721 160.518 56.0041C160.518 55.2841 161.238 54.9321 162.134 54.9321C163.334 54.9321 164.63 55.4121 165.238 55.8761V54.3721C164.646 53.9721 163.43 53.5881 162.214 53.5881C160.246 53.5881 159.062 54.6441 159.062 56.0521C159.062 57.5241 160.134 58.1481 161.398 58.4681L162.47 58.7881C163.558 59.0761 164.198 59.3161 164.198 60.0521C164.198 60.8521 163.574 61.1401 162.566 61.1401C161.254 61.1401 159.926 60.6281 159.142 60.1321V61.6041C159.782 62.0041 161.142 62.4681 162.502 62.4681C164.406 62.4681 165.622 61.6201 165.622 60.0201C165.622 58.7081 164.71 58.0361 163.35 57.6521ZM172.348 61.8761V60.5801C171.964 60.8201 171.34 61.0441 170.668 61.0441C169.804 61.0441 169.292 60.6601 169.292 59.6841V55.0921H172.284V53.7641H169.292V52.1641H168.94L166.492 54.7081V55.0921H167.788V59.8441C167.788 61.8921 168.972 62.4041 170.3 62.4041C171.244 62.4041 171.932 62.1481 172.348 61.8761ZM177.419 50.7401H176.267C175.147 51.8281 173.499 54.0681 173.499 57.1241C173.499 60.1961 175.147 62.4201 176.267 63.5241H177.419C176.571 62.4041 174.907 60.2601 174.907 57.1241C174.907 54.0041 176.571 51.8601 177.419 50.7401ZM180.217 50.1481H178.393L180.393 52.6441H181.785L180.217 50.1481ZM184.115 62.5641L189.491 50.4041H188.163L182.787 62.5641H184.115ZM196.807 62.2441H198.215V50.9961L196.711 51.2361V53.8121C196.231 53.7001 195.703 53.6041 195.015 53.6041C192.599 53.6041 190.439 55.1081 190.439 58.2281C190.439 61.0441 192.183 62.4041 194.167 62.4041C195.351 62.4041 196.247 61.9561 196.807 61.4921V62.2441ZM195.095 54.9481C195.767 54.9481 196.279 55.0761 196.711 55.2201V60.3721C196.247 60.6921 195.463 61.0601 194.567 61.0601C192.999 61.0601 191.975 60.0041 191.975 58.1321C191.975 55.9561 193.335 54.9481 195.095 54.9481ZM205.456 57.0921V57.8601C205.072 57.7161 204.416 57.5561 203.584 57.5561C201.408 57.5561 200 58.6441 200 60.1321C200 61.5401 200.976 62.4041 202.688 62.4041C203.952 62.4041 204.944 61.7801 205.552 61.1241V62.2441H206.96V57.0761C206.96 54.5481 205.36 53.6041 203.52 53.6041C201.952 53.6041 200.656 54.3401 200.096 54.9161V56.4681C200.816 55.7321 202 55.0921 203.328 55.0921C204.464 55.0921 205.456 55.6521 205.456 57.0921ZM201.408 60.0681C201.408 59.1881 202.272 58.5961 203.952 58.5961C204.496 58.5961 205.072 58.6921 205.456 58.8041V60.2441C204.8 60.7881 203.888 61.2361 202.928 61.2361C202.08 61.2361 201.408 60.9001 201.408 60.0681ZM212.912 57.6521L211.872 57.3481C210.784 57.0281 210.08 56.7721 210.08 56.0041C210.08 55.2841 210.8 54.9321 211.696 54.9321C212.896 54.9321 214.192 55.4121 214.8 55.8761V54.3721C214.208 53.9721 212.992 53.5881 211.776 53.5881C209.808 53.5881 208.624 54.6441 208.624 56.0521C208.624 57.5241 209.696 58.1481 210.96 58.4681L212.032 58.7881C213.12 59.0761 213.76 59.3161 213.76 60.0521C213.76 60.8521 213.136 61.1401 212.128 61.1401C210.816 61.1401 209.488 60.6281 208.704 60.1321V61.6041C209.344 62.0041 210.704 62.4681 212.064 62.4681C213.968 62.4681 215.184 61.6201 215.184 60.0201C215.184 58.7081 214.272 58.0361 212.912 57.6521ZM220.902 55.0441C222.15 55.0441 222.902 55.7481 222.902 57.1401V62.2441H224.406V56.8041C224.406 54.7241 223.334 53.6041 221.462 53.6041C220.134 53.6041 219.078 54.1801 218.358 54.7561V50.9961L216.854 51.2361V62.2441H218.358V55.8121C218.95 55.4601 219.91 55.0441 220.902 55.0441ZM228.093 50.9961L226.589 51.2361V61.7321C227.453 62.0521 228.509 62.4041 229.981 62.4041C232.333 62.4041 234.365 60.9481 234.365 57.8281C234.365 55.0761 232.781 53.6041 230.733 53.6041C229.613 53.6041 228.669 54.0521 228.093 54.4681V50.9961ZM230.317 54.9801C231.757 54.9801 232.813 56.0041 232.813 57.9081C232.813 60.1321 231.581 61.0601 229.917 61.0601C229.197 61.0601 228.605 60.9321 228.093 60.7721V55.6681C228.605 55.3321 229.389 54.9801 230.317 54.9801ZM240.198 62.4041C242.742 62.4041 244.598 60.5001 244.598 58.0041C244.598 55.4761 242.742 53.6041 240.198 53.6041C237.654 53.6041 235.798 55.4761 235.798 58.0041C235.798 60.5001 237.654 62.4041 240.198 62.4041ZM240.198 60.9961C238.534 60.9961 237.286 59.7161 237.286 58.0041C237.286 56.2601 238.534 55.0121 240.198 55.0121C241.878 55.0121 243.11 56.2601 243.11 58.0041C243.11 59.7321 241.878 60.9961 240.198 60.9961ZM251.441 57.0921V57.8601C251.057 57.7161 250.401 57.5561 249.569 57.5561C247.393 57.5561 245.985 58.6441 245.985 60.1321C245.985 61.5401 246.961 62.4041 248.673 62.4041C249.937 62.4041 250.929 61.7801 251.537 61.1241V62.2441H252.945V57.0761C252.945 54.5481 251.345 53.6041 249.505 53.6041C247.937 53.6041 246.641 54.3401 246.081 54.9161V56.4681C246.801 55.7321 247.985 55.0921 249.312 55.0921C250.449 55.0921 251.441 55.6521 251.441 57.0921ZM247.393 60.0681C247.393 59.1881 248.257 58.5961 249.937 58.5961C250.481 58.5961 251.057 58.6921 251.441 58.8041V60.2441C250.785 60.7881 249.873 61.2361 248.913 61.2361C248.065 61.2361 247.393 60.9001 247.393 60.0681ZM255.104 53.7641V62.2441H256.608V55.9401C257.184 55.5081 258.064 55.0441 258.896 55.0441C259.504 55.0441 260 55.2201 260.368 55.4441V53.8601C260.064 53.7001 259.712 53.6041 259.344 53.6041C258.208 53.6041 257.168 54.3241 256.512 54.9801V53.7641H255.104ZM267.729 62.2441H269.137V50.9961L267.633 51.2361V53.8121C267.153 53.7001 266.625 53.6041 265.937 53.6041C263.521 53.6041 261.361 55.1081 261.361 58.2281C261.361 61.0441 263.105 62.4041 265.089 62.4041C266.273 62.4041 267.169 61.9561 267.729 61.4921V62.2441ZM266.017 54.9481C266.689 54.9481 267.201 55.0761 267.633 55.2201V60.3721C267.169 60.6921 266.385 61.0601 265.489 61.0601C263.921 61.0601 262.897 60.0041 262.897 58.1321C262.897 55.9561 264.257 54.9481 266.017 54.9481ZM271.818 62.5641L277.194 50.4041H275.866L270.49 62.5641H271.818ZM285.63 61.6521V60.3241C285.006 60.6761 283.838 60.9801 282.702 60.9801C280.926 60.9801 279.774 60.1641 279.662 58.4681H285.806V57.7641C285.806 55.1241 284.478 53.5881 282.158 53.5881C279.79 53.5881 278.142 55.2361 278.142 58.0041C278.142 60.8841 279.966 62.4041 282.558 62.4041C283.726 62.4041 285.022 62.1001 285.63 61.6521ZM282.078 54.8841C283.566 54.8841 284.302 55.8441 284.334 57.4441H279.646C279.726 55.8281 280.67 54.8841 282.078 54.8841ZM293.138 62.2441H294.866L291.842 57.9401L294.834 53.7641H293.122L290.802 57.1241L288.482 53.7641H286.754L289.762 57.9561L286.738 62.2441H288.45L290.802 58.7401L293.138 62.2441ZM299.413 62.4041C301.845 62.4041 304.005 60.9001 304.005 57.7801C304.005 54.9641 302.261 53.6041 300.277 53.6041C299.093 53.6041 298.197 54.0521 297.637 54.5161V53.7641H296.229V64.7721H297.733V62.1961C298.213 62.3241 298.725 62.4041 299.413 62.4041ZM299.861 54.9481C301.413 54.9481 302.453 56.0041 302.453 57.8761C302.453 60.0521 301.109 61.0601 299.349 61.0601C298.677 61.0601 298.165 60.9321 297.733 60.7881V55.6521C298.213 55.3161 298.949 54.9481 299.861 54.9481ZM312.927 61.6521V60.3241C312.303 60.6761 311.135 60.9801 309.999 60.9801C308.223 60.9801 307.071 60.1641 306.959 58.4681H313.103V57.7641C313.103 55.1241 311.775 53.5881 309.455 53.5881C307.087 53.5881 305.439 55.2361 305.439 58.0041C305.439 60.8841 307.263 62.4041 309.855 62.4041C311.023 62.4041 312.319 62.1001 312.927 61.6521ZM309.375 54.8841C310.863 54.8841 311.599 55.8441 311.631 57.4441H306.943C307.023 55.8281 307.967 54.8841 309.375 54.8841ZM315.011 53.7641V62.2441H316.515V55.8121C317.107 55.4601 318.067 55.0441 319.059 55.0441C320.307 55.0441 321.059 55.7481 321.059 57.1401V62.2441H322.563V56.8041C322.563 54.7241 321.491 53.6041 319.619 53.6041C318.227 53.6041 317.139 54.2441 316.419 54.8361V53.7641H315.011ZM328.537 57.6521L327.497 57.3481C326.409 57.0281 325.705 56.7721 325.705 56.0041C325.705 55.2841 326.425 54.9321 327.321 54.9321C328.521 54.9321 329.817 55.4121 330.425 55.8761V54.3721C329.833 53.9721 328.617 53.5881 327.401 53.5881C325.433 53.5881 324.249 54.6441 324.249 56.0521C324.249 57.5241 325.321 58.1481 326.585 58.4681L327.657 58.7881C328.745 59.0761 329.385 59.3161 329.385 60.0521C329.385 60.8521 328.761 61.1401 327.753 61.1401C326.441 61.1401 325.113 60.6281 324.329 60.1321V61.6041C324.969 62.0041 326.329 62.4681 327.689 62.4681C329.593 62.4681 330.809 61.6201 330.809 60.0201C330.809 58.7081 329.897 58.0361 328.537 57.6521ZM339.567 61.6521V60.3241C338.943 60.6761 337.775 60.9801 336.639 60.9801C334.863 60.9801 333.711 60.1641 333.599 58.4681H339.743V57.7641C339.743 55.1241 338.415 53.5881 336.095 53.5881C333.727 53.5881 332.079 55.2361 332.079 58.0041C332.079 60.8841 333.903 62.4041 336.495 62.4041C337.663 62.4041 338.959 62.1001 339.567 61.6521ZM336.015 54.8841C337.503 54.8841 338.239 55.8441 338.271 57.4441H333.583C333.663 55.8281 334.607 54.8841 336.015 54.8841ZM343.107 50.1481H341.283L343.283 52.6441H344.675L343.107 50.1481ZM347.822 60.4201H346.206L345.293 64.1321H346.526L347.822 60.4201ZM94.792 77.1241C95.48 76.9641 96.184 76.4361 96.184 75.4921V72.7081C96.184 72.2121 96.504 72.0361 96.856 72.0361C97.192 72.0361 97.464 72.1481 97.72 72.2921V71.0281C97.464 70.9001 97 70.7401 96.472 70.7401C95.528 70.7401 94.776 71.2841 94.776 72.3081V75.3961C94.776 76.1641 94.232 76.3401 93.592 76.4841L93.24 76.5641V77.6841L93.592 77.7641C94.232 77.9081 94.776 78.0841 94.776 78.8521V81.9561C94.776 82.9641 95.528 83.5081 96.472 83.5241C97 83.5081 97.464 83.3481 97.72 83.2201V81.9561C97.464 82.1001 97.192 82.2121 96.856 82.2281C96.504 82.2121 96.184 82.0361 96.184 81.5561V78.7561C96.184 77.8121 95.48 77.2841 94.792 77.1241ZM96.28 117.124C95.592 117.284 94.888 117.812 94.888 118.756V121.556C94.888 122.036 94.568 122.212 94.216 122.228C93.88 122.212 93.608 122.1 93.352 121.956V123.22C93.608 123.348 94.072 123.508 94.6 123.524C95.544 123.508 96.296 122.964 96.296 121.956V118.852C96.296 118.084 96.84 117.908 97.48 117.764L97.832 117.684V116.564L97.48 116.484C96.84 116.34 96.296 116.164 96.296 115.396V112.308C96.296 111.284 95.544 110.74 94.6 110.74C94.072 110.74 93.608 110.9 93.352 111.028V112.292C93.608 112.148 93.88 112.036 94.216 112.036C94.568 112.036 94.888 112.212 94.888 112.708V115.492C94.888 116.436 95.592 116.964 96.28 117.124ZM100.462 120.42H98.8461L97.9341 124.132H99.1661L100.462 120.42ZM94.792 137.124C95.48 136.964 96.184 136.436 96.184 135.492V132.708C96.184 132.212 96.504 132.036 96.856 132.036C97.192 132.036 97.464 132.148 97.72 132.292V131.028C97.464 130.9 97 130.74 96.472 130.74C95.528 130.74 94.776 131.284 94.776 132.308V135.396C94.776 136.164 94.232 136.34 93.592 136.484L93.24 136.564V137.684L93.592 137.764C94.232 137.908 94.776 138.084 94.776 138.852V141.956C94.776 142.964 95.528 143.508 96.472 143.524C97 143.508 97.464 143.348 97.72 143.22V141.956C97.464 142.1 97.192 142.212 96.856 142.228C96.504 142.212 96.184 142.036 96.184 141.556V138.756C96.184 137.812 95.48 137.284 94.792 137.124ZM98.168 155.044C99.416 155.044 100.168 155.748 100.168 157.14V162.244H101.672V156.804C101.672 154.724 100.6 153.604 98.728 153.604C97.4 153.604 96.344 154.18 95.624 154.756V150.996L94.12 151.236V162.244H95.624V155.812C96.216 155.46 97.176 155.044 98.168 155.044ZM110.942 161.652V160.324C110.318 160.676 109.15 160.98 108.014 160.98C106.238 160.98 105.086 160.164 104.974 158.468H111.118V157.764C111.118 155.124 109.79 153.588 107.47 153.588C105.102 153.588 103.454 155.236 103.454 158.004C103.454 160.884 105.278 162.404 107.87 162.404C109.038 162.404 110.334 162.1 110.942 161.652ZM107.39 154.884C108.878 154.884 109.614 155.844 109.646 157.444H104.958C105.038 155.828 105.982 154.884 107.39 154.884ZM118.034 157.092V157.86C117.65 157.716 116.994 157.556 116.162 157.556C113.986 157.556 112.578 158.644 112.578 160.132C112.578 161.54 113.554 162.404 115.266 162.404C116.53 162.404 117.522 161.78 118.13 161.124V162.244H119.538V157.076C119.538 154.548 117.938 153.604 116.098 153.604C114.53 153.604 113.234 154.34 112.674 154.916V156.468C113.394 155.732 114.578 155.092 115.906 155.092C117.042 155.092 118.034 155.652 118.034 157.092ZM113.986 160.068C113.986 159.188 114.85 158.596 116.53 158.596C117.074 158.596 117.65 158.692 118.034 158.804V160.244C117.378 160.788 116.466 161.236 115.506 161.236C114.658 161.236 113.986 160.9 113.986 160.068ZM127.666 162.244H129.074V150.996L127.57 151.236V153.812C127.09 153.7 126.562 153.604 125.874 153.604C123.458 153.604 121.298 155.108 121.298 158.228C121.298 161.044 123.042 162.404 125.026 162.404C126.21 162.404 127.106 161.956 127.666 161.492V162.244ZM125.954 154.948C126.626 154.948 127.138 155.076 127.57 155.22V160.372C127.106 160.692 126.322 161.06 125.426 161.06C123.858 161.06 122.834 160.004 122.834 158.132C122.834 155.956 124.194 154.948 125.954 154.948ZM138.396 161.652V160.324C137.772 160.676 136.604 160.98 135.468 160.98C133.692 160.98 132.539 160.164 132.428 158.468H138.572V157.764C138.572 155.124 137.244 153.588 134.924 153.588C132.556 153.588 130.908 155.236 130.908 158.004C130.908 160.884 132.732 162.404 135.324 162.404C136.492 162.404 137.788 162.1 138.396 161.652ZM134.844 154.884C136.332 154.884 137.068 155.844 137.1 157.444H132.412C132.492 155.828 133.436 154.884 134.844 154.884ZM140.479 153.764V162.244H141.983V155.94C142.559 155.508 143.439 155.044 144.271 155.044C144.879 155.044 145.375 155.22 145.743 155.444V153.86C145.439 153.7 145.087 153.604 144.719 153.604C143.583 153.604 142.543 154.324 141.887 154.98V153.764H140.479ZM150.928 157.652L149.888 157.348C148.8 157.028 148.096 156.772 148.096 156.004C148.096 155.284 148.816 154.932 149.712 154.932C150.912 154.932 152.208 155.412 152.816 155.876V154.372C152.224 153.972 151.008 153.588 149.792 153.588C147.824 153.588 146.64 154.644 146.64 156.052C146.64 157.524 147.712 158.148 148.976 158.468L150.048 158.788C151.136 159.076 151.776 159.316 151.776 160.052C151.776 160.852 151.152 161.14 150.144 161.14C148.832 161.14 147.504 160.628 146.72 160.132V161.604C147.36 162.004 148.72 162.468 150.08 162.468C151.984 162.468 153.2 161.62 153.2 160.02C153.2 158.708 152.288 158.036 150.928 157.652ZM155.254 156.788C155.83 156.788 156.31 156.324 156.31 155.748C156.31 155.172 155.83 154.692 155.254 154.692C154.694 154.692 154.214 155.172 154.214 155.748C154.214 156.324 154.694 156.788 155.254 156.788ZM155.254 162.404C155.83 162.404 156.31 161.94 156.31 161.364C156.31 160.788 155.83 160.308 155.254 160.308C154.694 160.308 154.214 160.788 154.214 161.364C154.214 161.94 154.694 162.404 155.254 162.404ZM165.527 155.044C166.775 155.044 167.527 155.748 167.527 157.14V162.244H169.031V156.804C169.031 154.724 167.959 153.604 166.087 153.604C164.759 153.604 163.703 154.18 162.983 154.756V150.996L161.479 151.236V162.244H162.983V155.812C163.575 155.46 164.535 155.044 165.527 155.044ZM178.302 161.652V160.324C177.678 160.676 176.51 160.98 175.374 160.98C173.598 160.98 172.446 160.164 172.334 158.468H178.478V157.764C178.478 155.124 177.15 153.588 174.83 153.588C172.462 153.588 170.814 155.236 170.814 158.004C170.814 160.884 172.638 162.404 175.23 162.404C176.398 162.404 177.694 162.1 178.302 161.652ZM174.75 154.884C176.238 154.884 176.974 155.844 177.006 157.444H172.318C172.398 155.828 173.342 154.884 174.75 154.884ZM185.394 157.092V157.86C185.01 157.716 184.354 157.556 183.522 157.556C181.346 157.556 179.938 158.644 179.938 160.132C179.938 161.54 180.914 162.404 182.626 162.404C183.89 162.404 184.882 161.78 185.49 161.124V162.244H186.898V157.076C186.898 154.548 185.298 153.604 183.458 153.604C181.89 153.604 180.594 154.34 180.034 154.916V156.468C180.754 155.732 181.938 155.092 183.266 155.092C184.402 155.092 185.394 155.652 185.394 157.092ZM181.346 160.068C181.346 159.188 182.21 158.596 183.89 158.596C184.434 158.596 185.01 158.692 185.394 158.804V160.244C184.738 160.788 183.826 161.236 182.866 161.236C182.018 161.236 181.346 160.9 181.346 160.068ZM195.026 162.244H196.434V150.996L194.93 151.236V153.812C194.45 153.7 193.922 153.604 193.234 153.604C190.818 153.604 188.658 155.108 188.658 158.228C188.658 161.044 190.402 162.404 192.386 162.404C193.57 162.404 194.466 161.956 195.026 161.492V162.244ZM193.314 154.948C193.986 154.948 194.498 155.076 194.93 155.22V160.372C194.466 160.692 193.682 161.06 192.786 161.06C191.218 161.06 190.194 160.004 190.194 158.132C190.194 155.956 191.554 154.948 193.314 154.948ZM205.755 161.652V160.324C205.131 160.676 203.963 160.98 202.827 160.98C201.051 160.98 199.899 160.164 199.787 158.468H205.931V157.764C205.931 155.124 204.603 153.588 202.283 153.588C199.915 153.588 198.267 155.236 198.267 158.004C198.267 160.884 200.091 162.404 202.683 162.404C203.851 162.404 205.147 162.1 205.755 161.652ZM202.203 154.884C203.691 154.884 204.427 155.844 204.459 157.444H199.771C199.851 155.828 200.795 154.884 202.203 154.884ZM207.839 153.764V162.244H209.343V155.94C209.919 155.508 210.799 155.044 211.631 155.044C212.239 155.044 212.735 155.22 213.103 155.444V153.86C212.799 153.7 212.447 153.604 212.079 153.604C210.943 153.604 209.903 154.324 209.247 154.98V153.764H207.839ZM218.287 157.652L217.247 157.348C216.159 157.028 215.455 156.772 215.455 156.004C215.455 155.284 216.175 154.932 217.071 154.932C218.271 154.932 219.567 155.412 220.175 155.876V154.372C219.583 153.972 218.367 153.588 217.151 153.588C215.183 153.588 213.999 154.644 213.999 156.052C213.999 157.524 215.071 158.148 216.335 158.468L217.407 158.788C218.495 159.076 219.135 159.316 219.135 160.052C219.135 160.852 218.511 161.14 217.503 161.14C216.191 161.14 214.863 160.628 214.079 160.132V161.604C214.719 162.004 216.079 162.468 217.439 162.468C219.343 162.468 220.559 161.62 220.559 160.02C220.559 158.708 219.647 158.036 218.287 157.652ZM223.493 160.42H221.877L220.965 164.132H222.197L223.493 160.42ZM96.28 177.124C95.592 177.284 94.888 177.812 94.888 178.756V181.556C94.888 182.036 94.568 182.212 94.216 182.228C93.88 182.212 93.608 182.1 93.352 181.956V183.22C93.608 183.348 94.072 183.508 94.6 183.524C95.544 183.508 96.296 182.964 96.296 181.956V178.852C96.296 178.084 96.84 177.908 97.48 177.764L97.832 177.684V176.564L97.48 176.484C96.84 176.34 96.296 176.164 96.296 175.396V172.308C96.296 171.284 95.544 170.74 94.6 170.74C94.072 170.74 93.608 170.9 93.352 171.028V172.292C93.608 172.148 93.88 172.036 94.216 172.036C94.568 172.036 94.888 172.212 94.888 172.708V175.492C94.888 176.436 95.592 176.964 96.28 177.124ZM98.3181 170.74C99.1661 171.86 100.814 174.004 100.814 177.124C100.814 180.26 99.1661 182.404 98.3181 183.524H99.4541C100.574 182.42 102.238 180.196 102.238 177.124C102.238 174.068 100.574 171.828 99.4541 170.74H98.3181ZM94.792 237.124C95.48 236.964 96.184 236.436 96.184 235.492V232.708C96.184 232.212 96.504 232.036 96.856 232.036C97.192 232.036 97.464 232.148 97.72 232.292V231.028C97.464 230.9 97 230.74 96.472 230.74C95.528 230.74 94.776 231.284 94.776 232.308V235.396C94.776 236.164 94.232 236.34 93.592 236.484L93.24 236.564V237.684L93.592 237.764C94.232 237.908 94.776 238.084 94.776 238.852V241.956C94.776 242.964 95.528 243.508 96.472 243.524C97 243.508 97.464 243.348 97.72 243.22V241.956C97.464 242.1 97.192 242.212 96.856 242.228C96.504 242.212 96.184 242.036 96.184 241.556V238.756C96.184 237.812 95.48 237.284 94.792 237.124Z" fill="#D2C5A2"/>
<path d="M100.824 94.2441C100.184 93.8121 99.272 93.5881 98.296 93.5881C95.704 93.5881 93.72 95.3481 93.72 98.0041C93.72 100.58 95.688 102.404 98.28 102.404C99.272 102.404 100.184 102.164 100.824 101.732V100.228C100.184 100.692 99.288 100.98 98.328 100.98C96.536 100.98 95.224 99.7961 95.224 98.0041C95.224 96.1641 96.536 95.0121 98.344 95.0121C99.288 95.0121 100.184 95.2841 100.824 95.7481V94.2441ZM107.597 97.0921V97.8601C107.213 97.7161 106.557 97.5561 105.725 97.5561C103.549 97.5561 102.141 98.6441 102.141 100.132C102.141 101.54 103.117 102.404 104.829 102.404C106.093 102.404 107.085 101.78 107.693 101.124V102.244H109.101V97.0761C109.101 94.5481 107.501 93.6041 105.661 93.6041C104.093 93.6041 102.797 94.3401 102.237 94.9161V96.4681C102.957 95.7321 104.141 95.0921 105.469 95.0921C106.605 95.0921 107.597 95.6521 107.597 97.0921ZM103.549 100.068C103.549 99.1881 104.413 98.5961 106.093 98.5961C106.637 98.5961 107.213 98.6921 107.597 98.8041V100.244C106.941 100.788 106.029 101.236 105.069 101.236C104.221 101.236 103.549 100.9 103.549 100.068ZM111.261 91.2361V102.244H112.765V90.9961L111.261 91.2361ZM122.083 101.652V100.324C121.459 100.676 120.291 100.98 119.155 100.98C117.379 100.98 116.227 100.164 116.115 98.4681H122.259V97.7641C122.259 95.1241 120.931 93.5881 118.611 93.5881C116.243 93.5881 114.595 95.2361 114.595 98.0041C114.595 100.884 116.419 102.404 119.011 102.404C120.179 102.404 121.475 102.1 122.083 101.652ZM118.531 94.8841C120.019 94.8841 120.755 95.8441 120.787 97.4441H116.099C116.179 95.8281 117.123 94.8841 118.531 94.8841ZM124.167 93.7641V102.244H125.671V95.8121C126.263 95.4601 127.223 95.0441 128.215 95.0441C129.463 95.0441 130.215 95.7481 130.215 97.1401V102.244H131.719V96.8041C131.719 94.7241 130.647 93.6041 128.775 93.6041C127.383 93.6041 126.295 94.2441 125.575 94.8361V93.7641H124.167ZM139.869 102.244H141.277V90.9961L139.773 91.2361V93.8121C139.293 93.7001 138.765 93.6041 138.077 93.6041C135.661 93.6041 133.501 95.1081 133.501 98.2281C133.501 101.044 135.245 102.404 137.229 102.404C138.413 102.404 139.309 101.956 139.869 101.492V102.244ZM138.157 94.9481C138.829 94.9481 139.341 95.0761 139.773 95.2201V100.372C139.309 100.692 138.525 101.06 137.629 101.06C136.061 101.06 135.037 100.004 135.037 98.1321C135.037 95.9561 136.397 94.9481 138.157 94.9481ZM150.599 101.652V100.324C149.975 100.676 148.807 100.98 147.671 100.98C145.895 100.98 144.743 100.164 144.631 98.4681H150.775V97.7641C150.775 95.1241 149.447 93.5881 147.127 93.5881C144.759 93.5881 143.111 95.2361 143.111 98.0041C143.111 100.884 144.935 102.404 147.527 102.404C148.695 102.404 149.991 102.1 150.599 101.652ZM147.047 94.8841C148.535 94.8841 149.271 95.8441 149.303 97.4441H144.615C144.695 95.8281 145.639 94.8841 147.047 94.8841ZM152.683 93.7641V102.244H154.187V95.9401C154.763 95.5081 155.643 95.0441 156.475 95.0441C157.083 95.0441 157.579 95.2201 157.947 95.4441V93.8601C157.643 93.7001 157.291 93.6041 156.923 93.6041C155.786 93.6041 154.747 94.3241 154.091 94.9801V93.7641H152.683ZM165.595 99.4761C165.595 100.356 164.939 100.948 163.387 100.948C161.851 100.948 160.139 100.292 159.115 99.5721V101.22C159.979 101.812 161.531 102.404 163.323 102.404C165.547 102.404 167.211 101.364 167.211 99.3961C167.211 97.3641 165.819 96.7721 163.979 96.2121L162.779 95.8441C161.499 95.4281 160.571 95.1081 160.571 94.0521C160.571 93.1721 161.339 92.5641 162.747 92.5641C164.219 92.5641 165.723 93.2041 166.587 93.7961V92.0841C165.915 91.6201 164.603 91.0601 162.795 91.0601C160.667 91.0601 158.907 92.1481 158.907 94.1801C158.907 96.1481 160.427 96.7881 162.011 97.2521L163.451 97.6841C164.811 98.1161 165.595 98.4841 165.595 99.4761ZM176.036 101.652V100.324C175.412 100.676 174.244 100.98 173.108 100.98C171.332 100.98 170.18 100.164 170.068 98.4681H176.212V97.7641C176.212 95.1241 174.884 93.5881 172.564 93.5881C170.196 93.5881 168.548 95.2361 168.548 98.0041C168.548 100.884 170.372 102.404 172.964 102.404C174.132 102.404 175.428 102.1 176.036 101.652ZM172.484 94.8841C173.972 94.8841 174.708 95.8441 174.74 97.4441H170.052C170.132 95.8281 171.076 94.8841 172.484 94.8841ZM178.12 91.2361V102.244H179.624V90.9961L178.12 91.2361ZM188.942 101.652V100.324C188.318 100.676 187.15 100.98 186.014 100.98C184.238 100.98 183.086 100.164 182.974 98.4681H189.118V97.7641C189.118 95.1241 187.79 93.5881 185.47 93.5881C183.102 93.5881 181.454 95.2361 181.454 98.0041C181.454 100.884 183.278 102.404 185.87 102.404C187.038 102.404 188.334 102.1 188.942 101.652ZM185.39 94.8841C186.878 94.8841 187.614 95.8441 187.646 97.4441H182.958C183.038 95.8281 183.982 94.8841 185.39 94.8841ZM197.73 94.2441C197.09 93.8121 196.178 93.5881 195.202 93.5881C192.61 93.5881 190.626 95.3481 190.626 98.0041C190.626 100.58 192.594 102.404 195.186 102.404C196.178 102.404 197.09 102.164 197.73 101.732V100.228C197.09 100.692 196.194 100.98 195.234 100.98C193.442 100.98 192.13 99.7961 192.13 98.0041C192.13 96.1641 193.442 95.0121 195.25 95.0121C196.194 95.0121 197.09 95.2841 197.73 95.7481V94.2441ZM204.551 101.876V100.58C204.167 100.82 203.543 101.044 202.871 101.044C202.007 101.044 201.495 100.66 201.495 99.6841V95.0921H204.487V93.7641H201.495V92.1641H201.143L198.695 94.7081V95.0921H199.991V99.8441C199.991 101.892 201.175 102.404 202.503 102.404C203.447 102.404 204.135 102.148 204.551 101.876ZM213.271 101.652V100.324C212.647 100.676 211.479 100.98 210.343 100.98C208.567 100.98 207.414 100.164 207.303 98.4681H213.447V97.7641C213.447 95.1241 212.119 93.5881 209.799 93.5881C207.431 93.5881 205.783 95.2361 205.783 98.0041C205.783 100.884 207.607 102.404 210.199 102.404C211.367 102.404 212.663 102.1 213.271 101.652ZM209.719 94.8841C211.207 94.8841 211.943 95.8441 211.975 97.4441H207.287C207.367 95.8281 208.311 94.8841 209.719 94.8841ZM221.322 102.244H222.73V90.9961L221.226 91.2361V93.8121C220.746 93.7001 220.218 93.6041 219.53 93.6041C217.114 93.6041 214.954 95.1081 214.954 98.2281C214.954 101.044 216.698 102.404 218.682 102.404C219.866 102.404 220.762 101.956 221.322 101.492V102.244ZM219.61 94.9481C220.282 94.9481 220.794 95.0761 221.226 95.2201V100.372C220.762 100.692 219.978 101.06 219.082 101.06C217.514 101.06 216.49 100.004 216.49 98.1321C216.49 95.9561 217.85 94.9481 219.61 94.9481ZM225.156 91.2361V102.244H226.74V97.7161H232.244V96.2281H226.74V92.7241H233.044V91.2361H225.156ZM234.683 91.2361V102.244H236.187V90.9961L234.683 91.2361ZM243.425 97.0921V97.8601C243.041 97.7161 242.385 97.5561 241.553 97.5561C239.377 97.5561 237.969 98.6441 237.969 100.132C237.969 101.54 238.945 102.404 240.657 102.404C241.921 102.404 242.913 101.78 243.521 101.124V102.244H244.929V97.0761C244.929 94.5481 243.329 93.6041 241.489 93.6041C239.921 93.6041 238.625 94.3401 238.065 94.9161V96.4681C238.785 95.7321 239.969 95.0921 241.297 95.0921C242.433 95.0921 243.425 95.6521 243.425 97.0921ZM239.377 100.068C239.377 99.1881 240.241 98.5961 241.921 98.5961C242.465 98.5961 243.041 98.6921 243.425 98.8041V100.244C242.769 100.788 241.857 101.236 240.897 101.236C240.049 101.236 239.377 100.9 239.377 100.068ZM254.401 100.916V94.3081C253.617 93.9881 252.577 93.6041 251.185 93.6041C248.753 93.6041 246.689 95.0761 246.689 97.9721C246.689 100.276 248.177 101.636 250.305 101.636C251.457 101.636 252.337 101.172 252.897 100.74V101.108C252.897 102.66 251.985 103.524 250.241 103.524C248.977 103.524 247.921 103.044 247.153 102.516V104.052C247.857 104.484 249.009 104.932 250.385 104.932C252.593 104.932 254.401 103.78 254.401 100.916ZM248.225 97.7961C248.225 95.9401 249.457 94.9481 251.169 94.9481C251.889 94.9481 252.433 95.0921 252.897 95.2681V99.5401C252.401 99.8921 251.601 100.276 250.673 100.276C249.249 100.276 248.225 99.4601 248.225 97.7961ZM257.004 96.7881C257.58 96.7881 258.06 96.3241 258.06 95.7481C258.06 95.1721 257.58 94.6921 257.004 94.6921C256.444 94.6921 255.964 95.1721 255.964 95.7481C255.964 96.3241 256.444 96.7881 257.004 96.7881ZM257.004 102.404C257.58 102.404 258.06 101.94 258.06 101.364C258.06 100.788 257.58 100.308 257.004 100.308C256.444 100.308 255.964 100.788 255.964 101.364C255.964 101.94 256.444 102.404 257.004 102.404ZM263.021 91.2361L262.477 92.6281H264.493V102.244H266.029V91.2361H263.021ZM269.775 100.42H268.159L267.247 104.132H268.479L269.775 100.42ZM274.854 93.7641V102.244H276.358V95.8281C276.934 95.4761 277.814 95.0441 278.742 95.0441C279.878 95.0441 280.582 95.7321 280.582 97.0761V102.244H282.086V96.6601C282.086 96.3721 282.07 96.0841 282.022 95.8281C282.63 95.4601 283.526 95.0441 284.47 95.0441C285.622 95.0441 286.326 95.7321 286.326 97.0761V102.244H287.814V96.7401C287.814 94.7081 286.806 93.6041 285.046 93.6041C283.574 93.6041 282.486 94.3241 281.75 94.9801C281.318 94.0841 280.486 93.6041 279.302 93.6041C277.974 93.6041 276.95 94.2441 276.262 94.8361V93.7641H274.854ZM293.995 102.404C296.539 102.404 298.395 100.5 298.395 98.0041C298.395 95.4761 296.539 93.6041 293.995 93.6041C291.451 93.6041 289.595 95.4761 289.595 98.0041C289.595 100.5 291.451 102.404 293.995 102.404ZM293.995 100.996C292.331 100.996 291.083 99.7161 291.083 98.0041C291.083 96.2601 292.331 95.0121 293.995 95.0121C295.675 95.0121 296.907 96.2601 296.907 98.0041C296.907 99.7321 295.675 100.996 293.995 100.996ZM300.229 93.7641V102.244H301.733V95.8121C302.325 95.4601 303.285 95.0441 304.277 95.0441C305.525 95.0441 306.277 95.7481 306.277 97.1401V102.244H307.781V96.8041C307.781 94.7241 306.709 93.6041 304.837 93.6041C303.445 93.6041 302.357 94.2441 301.637 94.8361V93.7641H300.229ZM315.02 101.876V100.58C314.636 100.82 314.012 101.044 313.34 101.044C312.476 101.044 311.964 100.66 311.964 99.6841V95.0921H314.956V93.7641H311.964V92.1641H311.612L309.164 94.7081V95.0921H310.46V99.8441C310.46 101.892 311.644 102.404 312.972 102.404C313.916 102.404 314.604 102.148 315.02 101.876ZM320.699 95.0441C321.947 95.0441 322.699 95.7481 322.699 97.1401V102.244H324.203V96.8041C324.203 94.7241 323.131 93.6041 321.259 93.6041C319.931 93.6041 318.875 94.1801 318.155 94.7561V90.9961L316.651 91.2361V102.244H318.155V95.8121C318.747 95.4601 319.707 95.0441 320.699 95.0441ZM326.77 96.7881C327.346 96.7881 327.826 96.3241 327.826 95.7481C327.826 95.1721 327.346 94.6921 326.77 94.6921C326.21 94.6921 325.73 95.1721 325.73 95.7481C325.73 96.3241 326.21 96.7881 326.77 96.7881ZM326.77 102.404C327.346 102.404 327.826 101.94 327.826 101.364C327.826 100.788 327.346 100.308 326.77 100.308C326.21 100.308 325.73 100.788 325.73 101.364C325.73 101.94 326.21 102.404 326.77 102.404ZM332.339 99.7161V101.3C333.091 101.844 334.371 102.404 336.003 102.404C338.803 102.404 340.275 100.852 340.275 99.0121C340.275 97.0921 338.867 95.8281 336.659 95.8281H335.699L339.827 92.6761V91.2361H332.643V92.6441H337.731L333.811 95.9881V96.9801H336.195C337.795 96.9801 338.707 97.7321 338.707 98.9321C338.707 100.116 337.747 100.996 335.843 100.996C334.323 100.996 332.995 100.292 332.339 99.7161ZM343.275 100.42H341.659L340.747 104.132H341.979L343.275 100.42ZM349.618 104.932C350.738 104.932 351.65 104.34 352.29 102.852L356.29 93.7641H354.626L351.938 100.324L349.17 93.7641H347.49L351.234 102.004L350.946 102.628C350.674 103.204 350.178 103.556 349.538 103.556C348.658 103.556 347.97 103.044 347.666 102.724V104.212C348.002 104.516 348.706 104.932 349.618 104.932ZM364.521 101.652V100.324C363.897 100.676 362.729 100.98 361.593 100.98C359.817 100.98 358.664 100.164 358.553 98.4681H364.697V97.7641C364.697 95.1241 363.369 93.5881 361.049 93.5881C358.681 93.5881 357.033 95.2361 357.033 98.0041C357.033 100.884 358.857 102.404 361.449 102.404C362.617 102.404 363.913 102.1 364.521 101.652ZM360.969 94.8841C362.457 94.8841 363.193 95.8441 363.225 97.4441H358.537C358.617 95.8281 359.561 94.8841 360.969 94.8841ZM371.612 97.0921V97.8601C371.228 97.7161 370.572 97.5561 369.74 97.5561C367.564 97.5561 366.156 98.6441 366.156 100.132C366.156 101.54 367.132 102.404 368.844 102.404C370.108 102.404 371.1 101.78 371.708 101.124V102.244H373.116V97.0761C373.116 94.5481 371.516 93.6041 369.676 93.6041C368.108 93.6041 366.812 94.3401 366.252 94.9161V96.4681C366.972 95.7321 368.156 95.0921 369.484 95.0921C370.62 95.0921 371.612 95.6521 371.612 97.0921ZM367.564 100.068C367.564 99.1881 368.428 98.5961 370.108 98.5961C370.652 98.5961 371.228 98.6921 371.612 98.8041V100.244C370.956 100.788 370.044 101.236 369.084 101.236C368.236 101.236 367.564 100.9 367.564 100.068ZM375.276 93.7641V102.244H376.78V95.9401C377.356 95.5081 378.236 95.0441 379.068 95.0441C379.676 95.0441 380.172 95.2201 380.54 95.4441V93.8601C380.236 93.7001 379.884 93.6041 379.516 93.6041C378.38 93.6041 377.34 94.3241 376.684 94.9801V93.7641H375.276ZM382.317 96.7881C382.893 96.7881 383.373 96.3241 383.373 95.7481C383.373 95.1721 382.893 94.6921 382.317 94.6921C381.757 94.6921 381.277 95.1721 381.277 95.7481C381.277 96.3241 381.757 96.7881 382.317 96.7881ZM382.317 102.404C382.893 102.404 383.373 101.94 383.373 101.364C383.373 100.788 382.893 100.308 382.317 100.308C381.757 100.308 381.277 100.788 381.277 101.364C381.277 101.94 381.757 102.404 382.317 102.404ZM392.18 102.244V100.836H386.42L389.764 97.7321C390.98 96.6121 392.052 95.6041 392.052 94.0361C392.052 92.2121 390.692 91.0761 388.692 91.0761C386.836 91.0761 385.396 92.0361 384.788 92.5481V94.1801C385.556 93.4761 386.964 92.5001 388.564 92.5001C389.796 92.5001 390.468 93.1561 390.468 94.1161C390.468 95.0761 389.828 95.7641 388.692 96.8681L384.404 101.076V102.244H392.18ZM398.506 102.404C400.954 102.404 403.002 100.66 403.002 96.7401C403.002 92.8361 400.954 91.0761 398.506 91.0761C396.074 91.0761 394.026 92.8361 394.026 96.7401C394.026 100.66 396.074 102.404 398.506 102.404ZM398.506 100.916C396.826 100.916 395.642 99.5401 395.642 96.7401C395.642 93.9561 396.826 92.5641 398.506 92.5641C400.186 92.5641 401.386 93.9561 401.386 96.7401C401.386 99.5401 400.186 100.916 398.506 100.916ZM412.461 102.244V100.836H406.701L410.045 97.7321C411.261 96.6121 412.333 95.6041 412.333 94.0361C412.333 92.2121 410.973 91.0761 408.973 91.0761C407.117 91.0761 405.677 92.0361 405.069 92.5481V94.1801C405.837 93.4761 407.245 92.5001 408.845 92.5001C410.077 92.5001 410.749 93.1561 410.749 94.1161C410.749 95.0761 410.109 95.7641 408.973 96.8681L404.685 101.076V102.244H412.461ZM421.524 102.244V100.836H415.764L419.108 97.7321C420.324 96.6121 421.396 95.6041 421.396 94.0361C421.396 92.2121 420.036 91.0761 418.036 91.0761C416.18 91.0761 414.74 92.0361 414.132 92.5481V94.1801C414.9 93.4761 416.308 92.5001 417.908 92.5001C419.14 92.5001 419.812 93.1561 419.812 94.1161C419.812 95.0761 419.172 95.7641 418.036 96.8681L413.748 101.076V102.244H421.524ZM94.504 202.404C95.08 202.404 95.56 201.94 95.56 201.364C95.56 200.788 95.08 200.308 94.504 200.308C93.944 200.308 93.464 200.788 93.464 201.364C93.464 201.94 93.944 202.404 94.504 202.404ZM102.207 201.876V200.58C101.823 200.82 101.199 201.044 100.527 201.044C99.6633 201.044 99.1513 200.66 99.1513 199.684V195.092H102.143V193.764H99.1513V192.164H98.7993L96.3513 194.708V195.092H97.6473V199.844C97.6473 201.892 98.8313 202.404 100.159 202.404C101.103 202.404 101.791 202.148 102.207 201.876ZM107.887 195.044C109.135 195.044 109.887 195.748 109.887 197.14V202.244H111.391V196.804C111.391 194.724 110.319 193.604 108.447 193.604C107.119 193.604 106.063 194.18 105.343 194.756V190.996L103.839 191.236V202.244H105.343V195.812C105.935 195.46 106.895 195.044 107.887 195.044ZM120.661 201.652V200.324C120.037 200.676 118.869 200.98 117.733 200.98C115.957 200.98 114.805 200.164 114.693 198.468H120.837V197.764C120.837 195.124 119.509 193.588 117.189 193.588C114.821 193.588 113.173 195.236 113.173 198.004C113.173 200.884 114.997 202.404 117.589 202.404C118.757 202.404 120.053 202.1 120.661 201.652ZM117.109 194.884C118.597 194.884 119.333 195.844 119.365 197.444H114.677C114.757 195.828 115.701 194.884 117.109 194.884ZM122.745 193.764V202.244H124.249V195.812C124.841 195.46 125.801 195.044 126.793 195.044C128.041 195.044 128.793 195.748 128.793 197.14V202.244H130.297V196.804C130.297 194.724 129.225 193.604 127.353 193.604C125.961 193.604 124.873 194.244 124.153 194.836V193.764H122.745ZM97.56 210.74H96.408C95.288 211.828 93.64 214.068 93.64 217.124C93.64 220.196 95.288 222.42 96.408 223.524H97.56C96.712 222.404 95.048 220.26 95.048 217.124C95.048 214.004 96.712 211.86 97.56 210.74ZM102.341 210.74H101.189C100.069 211.828 98.4213 214.068 98.4213 217.124C98.4213 220.196 100.069 222.42 101.189 223.524H102.341C101.493 222.404 99.8293 220.26 99.8293 217.124C99.8293 214.004 101.493 211.86 102.341 210.74ZM103.683 213.764V222.244H105.187V215.94C105.763 215.508 106.643 215.044 107.475 215.044C108.083 215.044 108.579 215.22 108.947 215.444V213.86C108.643 213.7 108.291 213.604 107.923 213.604C106.786 213.604 105.747 214.324 105.091 214.98V213.764H103.683ZM117.427 221.652V220.324C116.803 220.676 115.635 220.98 114.499 220.98C112.723 220.98 111.571 220.164 111.459 218.468H117.603V217.764C117.603 215.124 116.275 213.588 113.955 213.588C111.587 213.588 109.939 215.236 109.939 218.004C109.939 220.884 111.763 222.404 114.355 222.404C115.523 222.404 116.819 222.1 117.427 221.652ZM113.875 214.884C115.363 214.884 116.099 215.844 116.131 217.444H111.443C111.523 215.828 112.467 214.884 113.875 214.884ZM123.303 217.652L122.263 217.348C121.175 217.028 120.471 216.772 120.471 216.004C120.471 215.284 121.191 214.932 122.087 214.932C123.287 214.932 124.583 215.412 125.191 215.876V214.372C124.599 213.972 123.383 213.588 122.167 213.588C120.199 213.588 119.015 214.644 119.015 216.052C119.015 217.524 120.087 218.148 121.351 218.468L122.423 218.788C123.511 219.076 124.151 219.316 124.151 220.052C124.151 220.852 123.527 221.14 122.519 221.14C121.207 221.14 119.879 220.628 119.095 220.132V221.604C119.735 222.004 121.095 222.468 122.455 222.468C124.359 222.468 125.575 221.62 125.575 220.02C125.575 218.708 124.663 218.036 123.303 217.652ZM130.429 222.404C132.861 222.404 135.021 220.9 135.021 217.78C135.021 214.964 133.277 213.604 131.293 213.604C130.109 213.604 129.213 214.052 128.653 214.516V213.764H127.245V224.772H128.749V222.196C129.229 222.324 129.741 222.404 130.429 222.404ZM130.877 214.948C132.429 214.948 133.469 216.004 133.469 217.876C133.469 220.052 132.125 221.06 130.365 221.06C129.693 221.06 129.181 220.932 128.749 220.788V215.652C129.229 215.316 129.965 214.948 130.877 214.948ZM140.854 222.404C143.398 222.404 145.254 220.5 145.254 218.004C145.254 215.476 143.398 213.604 140.854 213.604C138.31 213.604 136.454 215.476 136.454 218.004C136.454 220.5 138.31 222.404 140.854 222.404ZM140.854 220.996C139.19 220.996 137.942 219.716 137.942 218.004C137.942 216.26 139.19 215.012 140.854 215.012C142.534 215.012 143.766 216.26 143.766 218.004C143.766 219.732 142.534 220.996 140.854 220.996ZM147.089 213.764V222.244H148.593V215.812C149.185 215.46 150.145 215.044 151.137 215.044C152.385 215.044 153.137 215.748 153.137 217.14V222.244H154.641V216.804C154.641 214.724 153.569 213.604 151.697 213.604C150.305 213.604 149.217 214.244 148.497 214.836V213.764H147.089ZM160.615 217.652L159.575 217.348C158.487 217.028 157.783 216.772 157.783 216.004C157.783 215.284 158.503 214.932 159.399 214.932C160.599 214.932 161.895 215.412 162.503 215.876V214.372C161.911 213.972 160.695 213.588 159.479 213.588C157.511 213.588 156.327 214.644 156.327 216.052C156.327 217.524 157.399 218.148 158.663 218.468L159.735 218.788C160.823 219.076 161.463 219.316 161.463 220.052C161.463 220.852 160.839 221.14 159.831 221.14C158.519 221.14 157.191 220.628 156.407 220.132V221.604C157.047 222.004 158.407 222.468 159.767 222.468C161.671 222.468 162.887 221.62 162.887 220.02C162.887 218.708 161.975 218.036 160.615 217.652ZM171.646 221.652V220.324C171.022 220.676 169.854 220.98 168.718 220.98C166.942 220.98 165.789 220.164 165.678 218.468H171.822V217.764C171.822 215.124 170.494 213.588 168.174 213.588C165.806 213.588 164.158 215.236 164.158 218.004C164.158 220.884 165.982 222.404 168.574 222.404C169.742 222.404 171.038 222.1 171.646 221.652ZM168.094 214.884C169.582 214.884 170.318 215.844 170.35 217.444H165.662C165.742 215.828 166.686 214.884 168.094 214.884ZM172.849 210.74C173.697 211.86 175.345 214.004 175.345 217.124C175.345 220.26 173.697 222.404 172.849 223.524H173.985C175.105 222.42 176.769 220.196 176.769 217.124C176.769 214.068 175.105 211.828 173.985 210.74H172.849ZM181.769 215.972H188.329V214.612H181.769V215.972ZM181.769 218.868H188.329V217.492H181.769V218.868ZM189.925 218.964V220.452L196.485 217.364V216.084L189.925 212.996V214.5L194.853 216.724L189.925 218.964Z" fill="#74EB95"/>
<path d="M53.9273 51.2361L53.4953 52.1801H55.4633V62.2441H56.5033V51.2361H53.9273ZM57.2683 82.2441V81.2841H51.1243L54.8043 77.8121C56.1003 76.6121 57.1723 75.5721 57.1723 74.0041C57.1723 72.1481 55.8283 71.0761 53.9243 71.0761C52.0363 71.0761 50.6443 72.1161 50.1003 72.6121V73.7481C50.7883 73.0921 52.1323 72.0361 53.8602 72.0361C55.3003 72.0361 56.1003 72.8841 56.1003 74.0521C56.1003 75.2361 55.3323 76.0041 54.0843 77.2201L49.7483 81.4441V82.2441H57.2683ZM49.7765 100.212V101.3C50.4805 101.844 51.6805 102.404 53.2325 102.404C55.8885 102.404 57.3125 100.868 57.3125 99.0601C57.3125 97.2041 56.0005 95.8281 53.6965 95.8281H52.4805L56.8965 92.2121V91.2361H50.1125V92.1961H55.4885L51.1365 95.9881V96.6601H53.4565C55.2485 96.6601 56.2405 97.6521 56.2405 99.0121C56.2405 100.372 55.1845 101.444 53.1525 101.444C51.6165 101.444 50.4165 100.772 49.7765 100.212ZM54.3461 111.236L48.0261 118.9V119.7H54.3461V122.244H55.4021V119.7H57.6101V118.756H55.4021V111.236H54.3461ZM49.2581 118.756L54.3461 112.612V118.756H49.2581ZM50.5934 131.236L50.0014 136.532H52.9134C54.7054 136.532 56.2574 137.204 56.2574 139.076C56.2574 140.788 54.8494 141.444 53.3454 141.444C51.7454 141.444 50.3214 140.676 49.5214 140.02V141.124C50.1614 141.62 51.5374 142.404 53.4094 142.404C55.4094 142.404 57.3134 141.428 57.3134 139.076C57.3134 136.564 55.3934 135.588 53.1214 135.588H51.1054L51.4894 132.196H56.6094V131.236H50.5934ZM57.2145 158.564C57.2145 156.26 55.5345 154.948 53.5185 154.948C52.0465 154.948 50.9425 155.572 50.2705 156.308C51.1185 153.876 53.6145 151.94 54.8625 151.236H53.3265C51.7265 152.148 48.9425 154.772 48.9425 157.94C48.9425 160.916 50.7345 162.404 53.1345 162.404C55.5025 162.404 57.2145 160.932 57.2145 158.564ZM50.0145 157.972C50.0145 157.732 50.0465 157.508 50.0945 157.268C50.8465 156.468 51.9185 155.844 53.3425 155.844C54.8785 155.844 56.1585 156.788 56.1585 158.58C56.1585 160.388 54.9105 161.444 53.1665 161.444C51.4065 161.444 50.0145 160.372 50.0145 157.972ZM52.2155 182.244L57.6875 172.116V171.236H49.9915V172.196H56.5515L51.0315 182.244H52.2155ZM53.0686 202.404C55.7406 202.404 57.2286 200.964 57.2286 199.188C57.2286 197.892 56.4446 196.788 54.9726 196.276C56.0926 195.844 56.7166 194.948 56.7166 193.924C56.7166 192.292 55.3406 191.076 53.0686 191.076C50.8286 191.076 49.4526 192.276 49.4526 193.892C49.4526 194.916 50.0606 195.828 51.1966 196.276C49.6926 196.788 48.9246 197.892 48.9246 199.204C48.9246 200.964 50.4126 202.404 53.0686 202.404ZM50.4766 193.94C50.4766 192.756 51.5006 191.988 53.0686 191.988C54.6526 191.988 55.6766 192.772 55.6766 193.94C55.6766 195.14 54.6526 195.924 53.0686 195.924C51.5006 195.924 50.4766 195.124 50.4766 193.94ZM49.9646 199.14C49.9646 197.716 51.1486 196.708 53.0686 196.708C54.9886 196.708 56.1726 197.7 56.1726 199.124C56.1726 200.5 54.9886 201.492 53.0686 201.492C51.1486 201.492 49.9646 200.5 49.9646 199.14ZM57.1021 215.54C57.1021 212.564 55.3101 211.076 52.9261 211.076C50.5421 211.076 48.8461 212.548 48.8461 214.916C48.8461 217.22 50.5261 218.532 52.5421 218.532C54.0141 218.532 55.1181 217.908 55.7901 217.188C54.9421 219.62 52.4621 221.54 51.1981 222.244H52.7181C54.3341 221.332 57.1021 218.708 57.1021 215.54ZM49.9021 214.9C49.9021 213.092 51.1501 212.036 52.8941 212.036C54.6541 212.036 56.0461 213.108 56.0461 215.508C56.0461 215.732 56.0301 215.956 55.9821 216.18C55.2461 216.996 54.1581 217.636 52.7181 217.636C51.1821 217.636 49.9021 216.692 49.9021 214.9ZM42.7866 231.236L42.3546 232.18H44.3226V242.244H45.3626V231.236H42.7866ZM52.4274 242.404C54.7794 242.404 56.8114 240.66 56.8114 236.74C56.8114 232.836 54.7794 231.076 52.4274 231.076C50.0594 231.076 48.0434 232.836 48.0434 236.74C48.0434 240.66 50.0594 242.404 52.4274 242.404ZM52.4274 241.412C50.5714 241.412 49.1314 239.876 49.1314 236.74C49.1314 233.62 50.5714 232.084 52.4274 232.084C54.2834 232.084 55.7234 233.62 55.7234 236.74C55.7234 239.876 54.2834 241.412 52.4274 241.412Z" fill="#4C4786"/>
<defs>
<linearGradient id="paint0_linear_232_429" x1="276" y1="0" x2="276" y2="280" gradientUnits="userSpaceOnUse">
<stop stop-color="#1F195A"/>
<stop offset="1" stop-opacity="0"/>
</linearGradient>
</defs>
</svg>
