<svg width="225" height="23" viewBox="0 0 225 23" fill="none" xmlns="http://www.w3.org/2000/svg">
<g clip-path="url(#clip0_86_13062)">
<path d="M207.317 21.5255C207.317 21.027 207.723 20.6221 208.253 20.6221C208.784 20.6221 209.189 21.027 209.189 21.5255C209.189 22.0239 208.784 22.46 208.253 22.46C207.723 22.46 207.317 22.055 207.317 21.5255ZM207.505 21.5255C207.505 21.9304 207.848 22.2731 208.284 22.2731C208.69 22.2731 209.033 21.9616 209.033 21.5255C209.033 21.1205 208.69 20.809 208.284 20.809C207.817 20.809 207.505 21.1516 207.505 21.5255Z" fill="#DCDCDC"/>
<path d="M208.722 22.0548H208.535L208.223 21.5876H208.036V22.0548H207.911V21.0269H208.379C208.473 21.0269 208.566 21.0269 208.629 21.0892C208.722 21.1203 208.753 21.2138 208.753 21.3072C208.753 21.4941 208.597 21.5876 208.41 21.5876L208.722 22.0548ZM208.223 21.463C208.379 21.463 208.566 21.4941 208.566 21.3072C208.566 21.1826 208.441 21.1515 208.317 21.1515H208.036V21.463H208.223Z" fill="#DCDCDC"/>
<path d="M203.793 22.4602C210.343 16.853 219.546 11.4015 224.599 9.43898C223.819 8.94057 222.603 8.22409 221.23 7.44531C214.711 9.59474 207.099 14.3609 200.299 19.75C201.453 20.6222 202.67 21.5256 203.793 22.4602Z" fill="#DCDCDC"/>
<path d="M200.798 7.2269C199.831 6.75964 198.77 6.32352 197.959 5.94971C195.495 7.1646 192.282 9.00252 188.227 11.8996C189.1 12.3668 190.036 12.9276 191.034 13.4883C194.153 11.1831 197.304 9.00252 200.798 7.2269Z" fill="#DCDCDC"/>
<path d="M206.632 4.54813C205.446 3.89396 201.329 2.36755 198.49 1.71338C197.648 2.02489 196.462 2.49216 195.651 2.83482C196.681 3.11518 200.518 4.14317 203.793 5.79418C204.635 5.38921 205.821 4.89079 206.632 4.54813Z" fill="#DCDCDC"/>
<path d="M192.688 4.14307C189.038 5.82523 185.201 8.13041 183.111 9.46991C183.86 9.81257 184.609 10.0929 185.638 10.5913C190.255 7.47624 193.873 5.57602 195.308 4.953C194.279 4.57918 193.312 4.32997 192.688 4.14307Z" fill="#DCDCDC"/>
<path d="M209.377 3.58238C210.219 3.30202 211.186 3.05281 212.028 2.8036C209.595 1.77561 206.538 0.685325 203.793 0C203.356 0.124605 202.046 0.467267 201.142 0.747627C202.077 1.02799 205.166 1.74446 209.377 3.58238ZM193.998 15.2952C194.996 15.8871 196.057 16.697 197.086 17.3823C203.918 12.0866 210.656 8.00584 218.049 5.70066C217.019 5.17109 216.115 4.70382 214.961 4.1431C210.531 5.26454 202.951 8.2862 193.998 15.2952Z" fill="#DCDCDC"/>
<path d="M0 20.8399H4.9911C7.51785 20.8399 8.70324 19.5315 8.70324 17.6936C8.70324 16.1984 7.92338 15.2015 6.30127 14.89C7.73621 14.5473 8.39129 13.6751 8.39129 12.3979C8.39129 10.7781 7.2059 9.46971 4.67916 9.46971H0.0311944V20.8399H0ZM4.33602 16.0115C5.27185 16.0115 5.92693 16.4787 5.92693 17.4133C5.92693 18.4101 5.30305 18.8151 4.33602 18.8151H2.71391V15.9803H4.33602V16.0115ZM4.02408 11.4634C4.95991 11.4634 5.61499 11.8684 5.61499 12.8029C5.61499 13.7374 4.9911 14.1424 4.02408 14.1424H2.71391V11.4634H4.02408ZM18.779 9.43856H15.9715L11.6979 20.8399H14.5366L15.3164 18.4724H19.4341L20.214 20.8399H23.0839L18.779 9.43856ZM17.3753 12.1799L18.7166 16.3853H15.9715L17.3753 12.1799ZM37.3085 9.43856H34.7194V17.0706L29.853 9.43856H26.952V20.8399H29.5411V13.239L34.4074 20.8399H37.3085V9.43856ZM49.2559 20.8399L45.5126 15.0458V20.8399H42.7363V9.43856H45.5126V14.9212L49.0688 9.43856H52.157L48.4137 14.9212L52.5002 20.8399H49.2559ZM62.3264 15.1392C62.3264 17.4133 63.6989 18.8151 65.477 18.8151C67.2551 18.8151 68.6277 17.4133 68.6277 15.1392C68.6277 12.8652 67.2551 11.4634 65.477 11.4634C63.6989 11.4634 62.3264 12.8652 62.3264 15.1392ZM59.3941 15.1392C59.4253 11.806 61.7649 9.18935 65.477 9.18935C69.1892 9.18935 71.5287 11.806 71.5599 15.1392C71.5287 18.4724 69.1892 21.0891 65.477 21.0891C61.7649 21.0891 59.4253 18.4724 59.3941 15.1392ZM75.3657 20.8399H78.142V16.3541H81.7605V14.1735H78.142V11.6191H82.5092L83.0083 9.43856H75.3657V20.8399ZM95.9539 9.43856H93.1465L88.8728 20.8399H91.7115L92.4914 18.4724H96.609L97.3889 20.8399H100.259L95.9539 9.43856ZM94.5502 12.1799L95.8916 16.3853H93.1465L94.5502 12.1799ZM116.729 9.43856H113.485L110.522 15.6065L107.558 9.43856H104.314V20.8399H106.81V13.2078L110.491 20.8399L114.171 13.2078V20.8399H116.761L116.729 9.43856ZM122.126 20.8399H129.925V18.6593H124.902V16.1049H128.864V13.9866H124.902V11.6191H129.488L129.987 9.43856H122.126V20.8399ZM140.5 20.8399H143.525L140.687 16.0115C142.246 15.5753 142.995 14.485 142.995 12.8963C142.995 10.8404 141.747 9.46971 138.94 9.46971H134.541V20.871H137.255V16.3853H138.004L140.5 20.8399ZM138.41 11.5568C139.564 11.5568 140.156 12.0553 140.156 13.0209C140.156 13.9866 139.564 14.485 138.41 14.485H137.224V11.5568H138.41ZM147.674 20.8399H150.451V9.46971H147.674V20.8399ZM164.114 17.7871C163.053 18.5347 162.117 18.7839 161.15 18.7839C159.029 18.7839 157.532 17.3198 157.532 15.1392C157.532 12.9586 158.998 11.4945 161.057 11.4945C161.992 11.4945 162.928 11.7437 163.958 12.4914V9.90583C163.022 9.37626 161.93 9.1582 160.714 9.1582C156.939 9.1582 154.568 11.7749 154.537 15.1081C154.568 18.4724 156.877 21.0579 160.714 21.0579C161.992 21.0579 163.084 20.8399 164.083 20.3103V17.7871H164.114ZM174.283 9.43856H171.476L167.202 20.8399H170.041L170.82 18.4724H174.938L175.718 20.8399H178.588L174.283 9.43856ZM172.879 12.1799L174.221 16.3853H171.476L172.879 12.1799Z" fill="#DCDCDC"/>
</g>
<defs>
<clipPath id="clip0_86_13062">
<rect width="224.6" height="22.46" fill="white"/>
</clipPath>
</defs>
</svg>
