<svg width="344" height="161" viewBox="0 0 344 161" fill="none" xmlns="http://www.w3.org/2000/svg">
<g id="Group 11380">
<rect id="Rectangle 366" x="0.857369" y="0.331734" width="342.264" height="159.566" rx="4.28753" fill="white" fill-opacity="0.88" stroke="url(#paint0_linear_612_566)" stroke-width="0.571671"/>
<g id="Group 117">
<g id="Group 128">
<path id="Customers commitment towards their Goals" d="M14.354 21.4507C15.2778 21.4507 15.9181 21.2037 16.4669 20.8745V19.9324C15.973 20.2799 15.287 20.6001 14.3906 20.6001C13.0186 20.6001 12.0216 19.6397 12.0216 18.2128C12.0216 16.7859 13.0186 15.8163 14.3906 15.8163C15.287 15.8163 15.973 16.1365 16.4669 16.484V15.5419C15.9181 15.2126 15.2778 14.9657 14.354 14.9657C12.4789 14.9657 11.0703 16.3102 11.0703 18.2128C11.0703 20.1153 12.4789 21.4507 14.354 21.4507ZM19.3391 20.6184C18.6257 20.6184 18.1958 20.2159 18.1958 19.4201V16.5023H17.336V19.6122C17.336 20.8013 17.9488 21.4416 19.0098 21.4416C19.8148 21.4416 20.4367 21.0757 20.8483 20.7373V21.3501H21.6533V16.5023H20.7935V20.1702C20.4459 20.3805 19.9062 20.6184 19.3391 20.6184ZM25.1052 18.725L24.5107 18.5512C23.8887 18.3683 23.4862 18.2219 23.4862 17.7829C23.4862 17.3713 23.8979 17.17 24.4101 17.17C25.0961 17.17 25.837 17.4444 26.1845 17.7097V16.8499C25.8461 16.6212 25.151 16.4017 24.4558 16.4017C23.3308 16.4017 22.6539 17.0054 22.6539 17.8103C22.6539 18.6518 23.2667 19.0085 23.9893 19.1915L24.6022 19.3744C25.2241 19.539 25.59 19.6762 25.59 20.097C25.59 20.5543 25.2333 20.719 24.657 20.719C23.907 20.719 23.1478 20.4263 22.6996 20.1427V20.9842C23.0655 21.2129 23.843 21.4782 24.6204 21.4782C25.7089 21.4782 26.4041 20.9934 26.4041 20.0787C26.4041 19.3287 25.8827 18.9445 25.1052 18.725ZM30.2493 21.1397V20.3988C30.0298 20.536 29.6731 20.6641 29.2889 20.6641C28.795 20.6641 28.5023 20.4446 28.5023 19.8866V17.2615H30.2127V16.5023H28.5023V15.5877H28.3011L26.9016 17.042V17.2615H27.6425V19.9781C27.6425 21.1489 28.3194 21.4416 29.0785 21.4416C29.6182 21.4416 30.0115 21.2952 30.2493 21.1397ZM33.4687 21.4416C34.923 21.4416 35.984 20.3531 35.984 18.9262C35.984 17.481 34.923 16.4109 33.4687 16.4109C32.0144 16.4109 30.9533 17.481 30.9533 18.9262C30.9533 20.3531 32.0144 21.4416 33.4687 21.4416ZM33.4687 20.6367C32.5174 20.6367 31.804 19.9049 31.804 18.9262C31.804 17.9292 32.5174 17.2158 33.4687 17.2158C34.4291 17.2158 35.1334 17.9292 35.1334 18.9262C35.1334 19.9141 34.4291 20.6367 33.4687 20.6367ZM37.0327 16.5023V21.3501H37.8925V17.6823C38.2218 17.481 38.7249 17.2341 39.2554 17.2341C39.9048 17.2341 40.3072 17.6274 40.3072 18.3957V21.3501H41.167V18.1579C41.167 17.9932 41.1579 17.8286 41.1304 17.6823C41.478 17.4719 41.9902 17.2341 42.5299 17.2341C43.1885 17.2341 43.5909 17.6274 43.5909 18.3957V21.3501H44.4416V18.2036C44.4416 17.042 43.8653 16.4109 42.8592 16.4109C42.0177 16.4109 41.3957 16.8225 40.975 17.1975C40.728 16.6853 40.2524 16.4109 39.5755 16.4109C38.8163 16.4109 38.2309 16.7767 37.8376 17.1152V16.5023H37.0327ZM49.7402 21.0117V20.2525C49.3834 20.4537 48.7157 20.6275 48.0663 20.6275C47.051 20.6275 46.3925 20.161 46.3284 19.1915H49.8408V18.789C49.8408 17.2798 49.0816 16.4017 47.7553 16.4017C46.4016 16.4017 45.4595 17.3438 45.4595 18.9262C45.4595 20.5726 46.5022 21.4416 47.984 21.4416C48.6517 21.4416 49.3926 21.2678 49.7402 21.0117ZM47.7096 17.1426C48.5602 17.1426 48.981 17.6914 48.9993 18.6061H46.3193C46.365 17.6823 46.9047 17.1426 47.7096 17.1426ZM50.9315 16.5023V21.3501H51.7913V17.7463C52.1205 17.4993 52.6236 17.2341 53.0992 17.2341C53.4468 17.2341 53.7304 17.3347 53.9407 17.4627V16.5572C53.767 16.4657 53.5657 16.4109 53.3553 16.4109C52.7059 16.4109 52.1114 16.8225 51.7364 17.1975V16.5023H50.9315ZM56.9044 18.725L56.3099 18.5512C55.6879 18.3683 55.2855 18.2219 55.2855 17.7829C55.2855 17.3713 55.6971 17.17 56.2093 17.17C56.8953 17.17 57.6362 17.4444 57.9837 17.7097V16.8499C57.6453 16.6212 56.9502 16.4017 56.255 16.4017C55.13 16.4017 54.4531 17.0054 54.4531 17.8103C54.4531 18.6518 55.0659 19.0085 55.7885 19.1915L56.4014 19.3744C57.0233 19.539 57.3892 19.6762 57.3892 20.097C57.3892 20.5543 57.0325 20.719 56.4562 20.719C55.7062 20.719 54.947 20.4263 54.4988 20.1427V20.9842C54.8647 21.2129 55.6422 21.4782 56.4196 21.4782C57.5081 21.4782 58.2033 20.9934 58.2033 20.0787C58.2033 19.3287 57.6819 18.9445 56.9044 18.725ZM65.0362 16.7767C64.6703 16.5298 64.1489 16.4017 63.591 16.4017C62.1092 16.4017 60.975 17.4079 60.975 18.9262C60.975 20.3988 62.1001 21.4416 63.5818 21.4416C64.1489 21.4416 64.6703 21.3044 65.0362 21.0574V20.1976C64.6703 20.4629 64.1581 20.6275 63.6093 20.6275C62.5848 20.6275 61.8348 19.9506 61.8348 18.9262C61.8348 17.8743 62.5848 17.2158 63.6184 17.2158C64.1581 17.2158 64.6703 17.3713 65.0362 17.6365V16.7767ZM68.3317 21.4416C69.786 21.4416 70.8471 20.3531 70.8471 18.9262C70.8471 17.481 69.786 16.4109 68.3317 16.4109C66.8774 16.4109 65.8163 17.481 65.8163 18.9262C65.8163 20.3531 66.8774 21.4416 68.3317 21.4416ZM68.3317 20.6367C67.3804 20.6367 66.667 19.9049 66.667 18.9262C66.667 17.9292 67.3804 17.2158 68.3317 17.2158C69.2921 17.2158 69.9964 17.9292 69.9964 18.9262C69.9964 19.9141 69.2921 20.6367 68.3317 20.6367ZM71.8957 16.5023V21.3501H72.7555V17.6823C73.0848 17.481 73.5879 17.2341 74.1184 17.2341C74.7678 17.2341 75.1702 17.6274 75.1702 18.3957V21.3501H76.03V18.1579C76.03 17.9932 76.0209 17.8286 75.9934 17.6823C76.341 17.4719 76.8532 17.2341 77.3929 17.2341C78.0515 17.2341 78.4539 17.6274 78.4539 18.3957V21.3501H79.3046V18.2036C79.3046 17.042 78.7283 16.4109 77.7222 16.4109C76.8807 16.4109 76.2587 16.8225 75.838 17.1975C75.591 16.6853 75.1154 16.4109 74.4385 16.4109C73.6793 16.4109 73.0939 16.7767 72.7006 17.1152V16.5023H71.8957ZM80.5512 16.5023V21.3501H81.411V17.6823C81.7402 17.481 82.2433 17.2341 82.7738 17.2341C83.4232 17.2341 83.8257 17.6274 83.8257 18.3957V21.3501H84.6855V18.1579C84.6855 17.9932 84.6763 17.8286 84.6489 17.6823C84.9965 17.4719 85.5087 17.2341 86.0484 17.2341C86.7069 17.2341 87.1094 17.6274 87.1094 18.3957V21.3501H87.96V18.2036C87.96 17.042 87.3838 16.4109 86.3776 16.4109C85.5361 16.4109 84.9142 16.8225 84.4934 17.1975C84.2465 16.6853 83.7708 16.4109 83.094 16.4109C82.3348 16.4109 81.7494 16.7767 81.3561 17.1152V16.5023H80.5512ZM89.664 15.8255C90.039 15.8255 90.2768 15.6242 90.2768 15.3224C90.2768 15.0114 90.039 14.8102 89.664 14.8102C89.2889 14.8102 89.042 15.0114 89.042 15.3224C89.042 15.6242 89.2889 15.8255 89.664 15.8255ZM89.2249 16.5023V21.3501H90.0847V16.5023H89.2249ZM94.2854 21.1397V20.3988C94.0659 20.536 93.7092 20.6641 93.325 20.6641C92.8311 20.6641 92.5384 20.4446 92.5384 19.8866V17.2615H94.2488V16.5023H92.5384V15.5877H92.3372L90.9377 17.042V17.2615H91.6786V19.9781C91.6786 21.1489 92.3555 21.4416 93.1146 21.4416C93.6543 21.4416 94.0476 21.2952 94.2854 21.1397ZM95.2181 16.5023V21.3501H96.0779V17.6823C96.4072 17.481 96.9103 17.2341 97.4408 17.2341C98.0902 17.2341 98.4926 17.6274 98.4926 18.3957V21.3501H99.3524V18.1579C99.3524 17.9932 99.3433 17.8286 99.3158 17.6823C99.6634 17.4719 100.176 17.2341 100.715 17.2341C101.374 17.2341 101.776 17.6274 101.776 18.3957V21.3501H102.627V18.2036C102.627 17.042 102.051 16.4109 101.045 16.4109C100.203 16.4109 99.5811 16.8225 99.1604 17.1975C98.9134 16.6853 98.4378 16.4109 97.7609 16.4109C97.0017 16.4109 96.4163 16.7767 96.023 17.1152V16.5023H95.2181ZM107.926 21.0117V20.2525C107.569 20.4537 106.901 20.6275 106.252 20.6275C105.236 20.6275 104.578 20.161 104.514 19.1915H108.026V18.789C108.026 17.2798 107.267 16.4017 105.941 16.4017C104.587 16.4017 103.645 17.3438 103.645 18.9262C103.645 20.5726 104.688 21.4416 106.169 21.4416C106.837 21.4416 107.578 21.2678 107.926 21.0117ZM105.895 17.1426C106.746 17.1426 107.166 17.6914 107.185 18.6061H104.505C104.55 17.6823 105.09 17.1426 105.895 17.1426ZM109.117 16.5023V21.3501H109.977V17.6731C110.315 17.4719 110.864 17.2341 111.431 17.2341C112.144 17.2341 112.574 17.6365 112.574 18.4323V21.3501H113.434V18.2402C113.434 17.0511 112.821 16.4109 111.751 16.4109C110.955 16.4109 110.333 16.7767 109.922 17.1152V16.5023H109.117ZM117.572 21.1397V20.3988C117.353 20.536 116.996 20.6641 116.612 20.6641C116.118 20.6641 115.825 20.4446 115.825 19.8866V17.2615H117.536V16.5023H115.825V15.5877H115.624L114.224 17.042V17.2615H114.965V19.9781C114.965 21.1489 115.642 21.4416 116.401 21.4416C116.941 21.4416 117.334 21.2952 117.572 21.1397ZM123.441 21.1397V20.3988C123.221 20.536 122.864 20.6641 122.48 20.6641C121.986 20.6641 121.694 20.4446 121.694 19.8866V17.2615H123.404V16.5023H121.694V15.5877H121.492L120.093 17.042V17.2615H120.834V19.9781C120.834 21.1489 121.511 21.4416 122.27 21.4416C122.81 21.4416 123.203 21.2952 123.441 21.1397ZM126.66 21.4416C128.114 21.4416 129.175 20.3531 129.175 18.9262C129.175 17.481 128.114 16.4109 126.66 16.4109C125.206 16.4109 124.145 17.481 124.145 18.9262C124.145 20.3531 125.206 21.4416 126.66 21.4416ZM126.66 20.6367C125.709 20.6367 124.995 19.9049 124.995 18.9262C124.995 17.9292 125.709 17.2158 126.66 17.2158C127.62 17.2158 128.325 17.9292 128.325 18.9262C128.325 19.9141 127.62 20.6367 126.66 20.6367ZM131.23 21.3501H132.227L133.499 17.4719L134.752 21.3501H135.758L137.24 16.5023H136.316L135.246 20.536L133.983 16.5023H133.005L131.742 20.536L130.681 16.5023H129.748L131.23 21.3501ZM140.912 18.4048V18.8439C140.692 18.7616 140.317 18.6701 139.842 18.6701C138.598 18.6701 137.793 19.2921 137.793 20.1427C137.793 20.9476 138.351 21.4416 139.329 21.4416C140.052 21.4416 140.619 21.0848 140.967 20.7098V21.3501H141.771V18.3957C141.771 16.9505 140.857 16.4109 139.805 16.4109C138.909 16.4109 138.168 16.8316 137.848 17.1609V18.0481C138.259 17.6274 138.936 17.2615 139.695 17.2615C140.345 17.2615 140.912 17.5816 140.912 18.4048ZM138.598 20.1061C138.598 19.6031 139.092 19.2646 140.052 19.2646C140.363 19.2646 140.692 19.3195 140.912 19.3835V20.2068C140.537 20.5177 140.015 20.7739 139.467 20.7739C138.982 20.7739 138.598 20.5818 138.598 20.1061ZM143.006 16.5023V21.3501H143.866V17.7463C144.195 17.4993 144.698 17.2341 145.174 17.2341C145.522 17.2341 145.805 17.3347 146.016 17.4627V16.5572C145.842 16.4657 145.64 16.4109 145.43 16.4109C144.781 16.4109 144.186 16.8225 143.811 17.1975V16.5023H143.006ZM150.223 21.3501H151.028V14.9199L150.168 15.0571V16.5298C149.894 16.4657 149.592 16.4109 149.199 16.4109C147.818 16.4109 146.583 17.2707 146.583 19.0543C146.583 20.6641 147.58 21.4416 148.714 21.4416C149.391 21.4416 149.903 21.1855 150.223 20.9202V21.3501ZM149.244 17.1792C149.629 17.1792 149.921 17.2524 150.168 17.3347V20.2799C149.903 20.4629 149.455 20.6732 148.943 20.6732C148.046 20.6732 147.461 20.0696 147.461 18.9994C147.461 17.7554 148.238 17.1792 149.244 17.1792ZM154.473 18.725L153.878 18.5512C153.256 18.3683 152.854 18.2219 152.854 17.7829C152.854 17.3713 153.265 17.17 153.777 17.17C154.463 17.17 155.204 17.4444 155.552 17.7097V16.8499C155.213 16.6212 154.518 16.4017 153.823 16.4017C152.698 16.4017 152.021 17.0054 152.021 17.8103C152.021 18.6518 152.634 19.0085 153.357 19.1915L153.97 19.3744C154.592 19.539 154.957 19.6762 154.957 20.097C154.957 20.5543 154.601 20.719 154.024 20.719C153.274 20.719 152.515 20.4263 152.067 20.1427V20.9842C152.433 21.2129 153.21 21.4782 153.988 21.4782C155.076 21.4782 155.771 20.9934 155.771 20.0787C155.771 19.3287 155.25 18.9445 154.473 18.725ZM161.662 21.1397V20.3988C161.443 20.536 161.086 20.6641 160.702 20.6641C160.208 20.6641 159.915 20.4446 159.915 19.8866V17.2615H161.626V16.5023H159.915V15.5877H159.714L158.315 17.042V17.2615H159.055V19.9781C159.055 21.1489 159.732 21.4416 160.491 21.4416C161.031 21.4416 161.424 21.2952 161.662 21.1397ZM164.909 17.2341C165.622 17.2341 166.052 17.6365 166.052 18.4323V21.3501H166.912V18.2402C166.912 17.0511 166.299 16.4109 165.229 16.4109C164.47 16.4109 163.866 16.7401 163.455 17.0694V14.9199L162.595 15.0571V21.3501H163.455V17.6731C163.793 17.4719 164.342 17.2341 164.909 17.2341ZM172.212 21.0117V20.2525C171.855 20.4537 171.187 20.6275 170.538 20.6275C169.523 20.6275 168.864 20.161 168.8 19.1915H172.312V18.789C172.312 17.2798 171.553 16.4017 170.227 16.4017C168.873 16.4017 167.931 17.3438 167.931 18.9262C167.931 20.5726 168.974 21.4416 170.456 21.4416C171.123 21.4416 171.864 21.2678 172.212 21.0117ZM170.181 17.1426C171.032 17.1426 171.453 17.6914 171.471 18.6061H168.791C168.837 17.6823 169.376 17.1426 170.181 17.1426ZM173.86 15.8255C174.235 15.8255 174.473 15.6242 174.473 15.3224C174.473 15.0114 174.235 14.8102 173.86 14.8102C173.485 14.8102 173.238 15.0114 173.238 15.3224C173.238 15.6242 173.485 15.8255 173.86 15.8255ZM173.421 16.5023V21.3501H174.281V16.5023H173.421ZM175.591 16.5023V21.3501H176.451V17.7463C176.781 17.4993 177.284 17.2341 177.759 17.2341C178.107 17.2341 178.39 17.3347 178.601 17.4627V16.5572C178.427 16.4657 178.226 16.4109 178.015 16.4109C177.366 16.4109 176.771 16.8225 176.396 17.1975V16.5023H175.591ZM184.625 20.6001C183.18 20.6001 182.183 19.6397 182.183 18.2128C182.183 16.7767 183.18 15.8163 184.634 15.8163C185.54 15.8163 186.253 16.1365 186.747 16.484V15.5419C186.208 15.2126 185.512 14.9657 184.589 14.9657C182.659 14.9657 181.232 16.3011 181.232 18.2128C181.232 20.1153 182.659 21.4507 184.634 21.4507C185.558 21.4507 186.208 21.2037 186.747 20.8745V17.8926H183.875V18.6427H185.851V20.3897C185.494 20.5177 185.083 20.6001 184.625 20.6001ZM190.223 21.4416C191.677 21.4416 192.738 20.3531 192.738 18.9262C192.738 17.481 191.677 16.4109 190.223 16.4109C188.768 16.4109 187.707 17.481 187.707 18.9262C187.707 20.3531 188.768 21.4416 190.223 21.4416ZM190.223 20.6367C189.271 20.6367 188.558 19.9049 188.558 18.9262C188.558 17.9292 189.271 17.2158 190.223 17.2158C191.183 17.2158 191.887 17.9292 191.887 18.9262C191.887 19.9141 191.183 20.6367 190.223 20.6367ZM196.65 18.4048V18.8439C196.43 18.7616 196.055 18.6701 195.579 18.6701C194.335 18.6701 193.531 19.2921 193.531 20.1427C193.531 20.9476 194.089 21.4416 195.067 21.4416C195.79 21.4416 196.357 21.0848 196.705 20.7098V21.3501H197.509V18.3957C197.509 16.9505 196.595 16.4109 195.543 16.4109C194.646 16.4109 193.906 16.8316 193.585 17.1609V18.0481C193.997 17.6274 194.674 17.2615 195.433 17.2615C196.083 17.2615 196.65 17.5816 196.65 18.4048ZM194.335 20.1061C194.335 19.6031 194.829 19.2646 195.79 19.2646C196.101 19.2646 196.43 19.3195 196.65 19.3835V20.2068C196.275 20.5177 195.753 20.7739 195.204 20.7739C194.72 20.7739 194.335 20.5818 194.335 20.1061ZM198.744 15.0571V21.3501H199.604V14.9199L198.744 15.0571ZM203.047 18.725L202.452 18.5512C201.83 18.3683 201.428 18.2219 201.428 17.7829C201.428 17.3713 201.839 17.17 202.352 17.17C203.038 17.17 203.779 17.4444 204.126 17.7097V16.8499C203.788 16.6212 203.093 16.4017 202.397 16.4017C201.272 16.4017 200.595 17.0054 200.595 17.8103C200.595 18.6518 201.208 19.0085 201.931 19.1915L202.544 19.3744C203.166 19.539 203.532 19.6762 203.532 20.097C203.532 20.5543 203.175 20.719 202.599 20.719C201.849 20.719 201.089 20.4263 200.641 20.1427V20.9842C201.007 21.2129 201.785 21.4782 202.562 21.4782C203.65 21.4782 204.346 20.9934 204.346 20.0787C204.346 19.3287 203.824 18.9445 203.047 18.725Z" fill="black"/>
</g>
</g>
<g id="Group 124">
<g id="Group 122">
<rect id="Rectangle 376" x="32.9882" y="50.3528" width="0.531396" height="89.1807" fill="#F7F7F7"/>
<rect id="Rectangle 377" x="82.4077" y="50.3528" width="0.531396" height="89.1807" fill="#F7F7F7"/>
<rect id="Rectangle 378" x="131.827" y="50.3528" width="0.531396" height="89.1807" fill="#F7F7F7"/>
<rect id="Rectangle 379" x="181.249" y="50.3528" width="0.531396" height="89.1807" fill="#F7F7F7"/>
<rect id="Rectangle 380" x="230.668" y="50.3528" width="0.531396" height="89.1807" fill="#F7F7F7"/>
<rect id="Rectangle 381" x="280.087" y="50.3528" width="0.531396" height="89.1807" fill="#F7F7F7"/>
<rect id="Rectangle 382" x="329.507" y="50.3528" width="0.531396" height="89.1807" fill="#F7F7F7"/>
<rect id="Rectangle 389" x="32.9882" y="65.2162" width="296.519" height="0.571671" fill="#F7F7F7"/>
<rect id="Rectangle 396" x="32.9882" y="80.0797" width="296.519" height="0.571671" fill="#F7F7F7"/>
<rect id="Rectangle 403" x="32.9882" y="94.9431" width="296.519" height="0.571671" fill="#F7F7F7"/>
<rect id="Rectangle 410" x="32.9882" y="109.807" width="296.519" height="0.571671" fill="#F7F7F7"/>
<rect id="Rectangle 417" x="32.9882" y="124.67" width="296.519" height="0.571671" fill="#F7F7F7"/>
<rect id="Rectangle 424" x="32.9882" y="139.534" width="297.05" height="0.571671" fill="#F7F7F7"/>
<rect id="Rectangle 425" width="67.1131" height="83.8913" transform="matrix(1 0 0 -1 41.9585 139.865)" fill="#FFD5C7"/>
<rect id="Rectangle 426" width="67.1131" height="34.6751" transform="matrix(1 0 0 -1 112.427 139.865)" fill="#EA66FF"/>
<rect id="Rectangle 427" width="67.1131" height="13.4226" transform="matrix(1 0 0 -1 253.365 139.865)" fill="#6FE3E3"/>
<rect id="Rectangle 428" width="67.1131" height="63.7574" transform="matrix(1 0 0 -1 182.896 139.865)" fill="#E4E591"/>
</g>
<g id="Group 123">
<path id="0" d="M25.4092 139.303C26.2495 139.303 26.9755 138.679 26.9755 137.279C26.9755 135.884 26.2495 135.255 25.4092 135.255C24.5631 135.255 23.8428 135.884 23.8428 137.279C23.8428 138.679 24.5631 139.303 25.4092 139.303ZM25.4092 138.948C24.746 138.948 24.2315 138.399 24.2315 137.279C24.2315 136.164 24.746 135.615 25.4092 135.615C26.0723 135.615 26.5868 136.164 26.5868 137.279C26.5868 138.399 26.0723 138.948 25.4092 138.948Z" fill="#323232"/>
<path id="0-25%" d="M69.0898 148.449C69.9301 148.449 70.6561 147.826 70.6561 146.425C70.6561 145.031 69.9301 144.402 69.0898 144.402C68.2437 144.402 67.5234 145.031 67.5234 146.425C67.5234 147.826 68.2437 148.449 69.0898 148.449ZM69.0898 148.095C68.4266 148.095 67.9121 147.546 67.9121 146.425C67.9121 145.311 68.4266 144.762 69.0898 144.762C69.7529 144.762 70.2674 145.311 70.2674 146.425C70.2674 147.546 69.7529 148.095 69.0898 148.095ZM71.2638 146.711V147.043H72.5958V146.711H71.2638ZM75.6764 148.392V148.049H73.4811L74.796 146.808C75.259 146.38 75.6421 146.008 75.6421 145.448C75.6421 144.785 75.1618 144.402 74.4816 144.402C73.807 144.402 73.3096 144.773 73.1153 144.951V145.356C73.3611 145.122 73.8413 144.745 74.4587 144.745C74.9732 144.745 75.259 145.048 75.259 145.465C75.259 145.888 74.9846 146.162 74.5387 146.597L72.9895 148.106V148.392H75.6764ZM76.6467 144.459L76.4352 146.351H77.4756C78.1159 146.351 78.6704 146.591 78.6704 147.26C78.6704 147.872 78.1673 148.106 77.6299 148.106C77.0583 148.106 76.5495 147.832 76.2637 147.597V147.992C76.4923 148.169 76.984 148.449 77.6528 148.449C78.3674 148.449 79.0477 148.1 79.0477 147.26C79.0477 146.363 78.3617 146.014 77.5499 146.014H76.8296L76.9668 144.802H78.7962V144.459H76.6467ZM80.3735 144.402C79.8933 144.402 79.516 144.762 79.516 145.345C79.516 145.922 79.8933 146.288 80.3792 146.288C80.8651 146.288 81.2424 145.922 81.2424 145.345C81.2424 144.762 80.8651 144.402 80.3735 144.402ZM79.9905 148.392H80.3449L82.8774 144.459H82.5344L79.9905 148.392ZM80.3735 144.67C80.7108 144.67 80.9509 144.933 80.9509 145.334C80.9509 145.745 80.7108 146.014 80.3735 146.014C80.0476 146.014 79.8018 145.745 79.8018 145.334C79.8018 144.933 80.0476 144.67 80.3735 144.67ZM82.5001 146.563C82.0142 146.563 81.6369 146.928 81.6369 147.506C81.6369 148.089 82.0142 148.449 82.5001 148.449C82.9917 148.449 83.3633 148.089 83.3633 147.506C83.3633 146.928 82.9917 146.563 82.5001 146.563ZM81.9284 147.5C81.9284 147.094 82.1685 146.831 82.5001 146.831C82.8317 146.831 83.0718 147.1 83.0718 147.5C83.0718 147.906 82.8317 148.175 82.5001 148.175C82.1685 148.175 81.9284 147.906 81.9284 147.5Z" fill="#323232"/>
<path id="25-50%" d="M136.613 148.392V148.049H134.418L135.733 146.808C136.196 146.38 136.579 146.008 136.579 145.448C136.579 144.785 136.099 144.402 135.418 144.402C134.744 144.402 134.246 144.773 134.052 144.951V145.356C134.298 145.122 134.778 144.745 135.395 144.745C135.91 144.745 136.196 145.048 136.196 145.465C136.196 145.888 135.921 146.162 135.475 146.597L133.926 148.106V148.392H136.613ZM137.583 144.459L137.372 146.351H138.412C139.053 146.351 139.607 146.591 139.607 147.26C139.607 147.872 139.104 148.106 138.567 148.106C137.995 148.106 137.486 147.832 137.2 147.597V147.992C137.429 148.169 137.921 148.449 138.59 148.449C139.304 148.449 139.984 148.1 139.984 147.26C139.984 146.363 139.298 146.014 138.487 146.014H137.766L137.904 144.802H139.733V144.459H137.583ZM140.413 146.711V147.043H141.745V146.711H140.413ZM142.636 144.459L142.424 146.351H143.465C144.105 146.351 144.659 146.591 144.659 147.26C144.659 147.872 144.156 148.106 143.619 148.106C143.047 148.106 142.539 147.832 142.253 147.597V147.992C142.481 148.169 142.973 148.449 143.642 148.449C144.356 148.449 145.037 148.1 145.037 147.26C145.037 146.363 144.351 146.014 143.539 146.014H142.819L142.956 144.802H144.785V144.459H142.636ZM147.271 148.449C148.112 148.449 148.838 147.826 148.838 146.425C148.838 145.031 148.112 144.402 147.271 144.402C146.425 144.402 145.705 145.031 145.705 146.425C145.705 147.826 146.425 148.449 147.271 148.449ZM147.271 148.095C146.608 148.095 146.094 147.546 146.094 146.425C146.094 145.311 146.608 144.762 147.271 144.762C147.935 144.762 148.449 145.311 148.449 146.425C148.449 147.546 147.935 148.095 147.271 148.095ZM150.343 144.402C149.863 144.402 149.486 144.762 149.486 145.345C149.486 145.922 149.863 146.288 150.349 146.288C150.835 146.288 151.212 145.922 151.212 145.345C151.212 144.762 150.835 144.402 150.343 144.402ZM149.96 148.392H150.314L152.847 144.459H152.504L149.96 148.392ZM150.343 144.67C150.68 144.67 150.92 144.933 150.92 145.334C150.92 145.745 150.68 146.014 150.343 146.014C150.017 146.014 149.771 145.745 149.771 145.334C149.771 144.933 150.017 144.67 150.343 144.67ZM152.47 146.563C151.984 146.563 151.606 146.928 151.606 147.506C151.606 148.089 151.984 148.449 152.47 148.449C152.961 148.449 153.333 148.089 153.333 147.506C153.333 146.928 152.961 146.563 152.47 146.563ZM151.898 147.5C151.898 147.094 152.138 146.831 152.47 146.831C152.801 146.831 153.041 147.1 153.041 147.5C153.041 147.906 152.801 148.175 152.47 148.175C152.138 148.175 151.898 147.906 151.898 147.5Z" fill="#323232"/>
<path id="50-75%" d="M205.021 144.459L204.81 146.351H205.85C206.49 146.351 207.045 146.591 207.045 147.26C207.045 147.872 206.542 148.106 206.004 148.106C205.433 148.106 204.924 147.832 204.638 147.597V147.992C204.867 148.169 205.358 148.449 206.027 148.449C206.742 148.449 207.422 148.1 207.422 147.26C207.422 146.363 206.736 146.014 205.924 146.014H205.204L205.341 144.802H207.171V144.459H205.021ZM209.657 148.449C210.497 148.449 211.223 147.826 211.223 146.425C211.223 145.031 210.497 144.402 209.657 144.402C208.811 144.402 208.09 145.031 208.09 146.425C208.09 147.826 208.811 148.449 209.657 148.449ZM209.657 148.095C208.994 148.095 208.479 147.546 208.479 146.425C208.479 145.311 208.994 144.762 209.657 144.762C210.32 144.762 210.834 145.311 210.834 146.425C210.834 147.546 210.32 148.095 209.657 148.095ZM211.831 146.711V147.043H213.163V146.711H211.831ZM214.248 148.392L216.203 144.773V144.459H213.454V144.802H215.798L213.825 148.392H214.248ZM217.024 144.459L216.812 146.351H217.853C218.493 146.351 219.048 146.591 219.048 147.26C219.048 147.872 218.545 148.106 218.007 148.106C217.436 148.106 216.927 147.832 216.641 147.597V147.992C216.87 148.169 217.361 148.449 218.03 148.449C218.745 148.449 219.425 148.1 219.425 147.26C219.425 146.363 218.739 146.014 217.927 146.014H217.207L217.344 144.802H219.173V144.459H217.024ZM220.751 144.402C220.271 144.402 219.893 144.762 219.893 145.345C219.893 145.922 220.271 146.288 220.756 146.288C221.242 146.288 221.62 145.922 221.62 145.345C221.62 144.762 221.242 144.402 220.751 144.402ZM220.368 148.392H220.722L223.255 144.459H222.912L220.368 148.392ZM220.751 144.67C221.088 144.67 221.328 144.933 221.328 145.334C221.328 145.745 221.088 146.014 220.751 146.014C220.425 146.014 220.179 145.745 220.179 145.334C220.179 144.933 220.425 144.67 220.751 144.67ZM222.877 146.563C222.391 146.563 222.014 146.928 222.014 147.506C222.014 148.089 222.391 148.449 222.877 148.449C223.369 148.449 223.741 148.089 223.741 147.506C223.741 146.928 223.369 146.563 222.877 146.563ZM222.306 147.5C222.306 147.094 222.546 146.831 222.877 146.831C223.209 146.831 223.449 147.1 223.449 147.5C223.449 147.906 223.209 148.175 222.877 148.175C222.546 148.175 222.306 147.906 222.306 147.5Z" fill="#323232"/>
<path id="75-100%" d="M274.885 148.392L276.841 144.773V144.459H274.091V144.802H276.435L274.462 148.392H274.885ZM277.661 144.459L277.45 146.351H278.49C279.13 146.351 279.685 146.591 279.685 147.26C279.685 147.872 279.182 148.106 278.644 148.106C278.073 148.106 277.564 147.832 277.278 147.597V147.992C277.507 148.169 277.998 148.449 278.667 148.449C279.382 148.449 280.062 148.1 280.062 147.26C280.062 146.363 279.376 146.014 278.564 146.014H277.844L277.981 144.802H279.811V144.459H277.661ZM280.49 146.711V147.043H281.822V146.711H280.49ZM282.325 144.459L282.17 144.796H282.874V148.392H283.245V144.459H282.325ZM285.769 148.449C286.61 148.449 287.336 147.826 287.336 146.425C287.336 145.031 286.61 144.402 285.769 144.402C284.923 144.402 284.203 145.031 284.203 146.425C284.203 147.826 284.923 148.449 285.769 148.449ZM285.769 148.095C285.106 148.095 284.592 147.546 284.592 146.425C284.592 145.311 285.106 144.762 285.769 144.762C286.432 144.762 286.947 145.311 286.947 146.425C286.947 147.546 286.432 148.095 285.769 148.095ZM289.75 148.449C290.59 148.449 291.316 147.826 291.316 146.425C291.316 145.031 290.59 144.402 289.75 144.402C288.904 144.402 288.183 145.031 288.183 146.425C288.183 147.826 288.904 148.449 289.75 148.449ZM289.75 148.095C289.087 148.095 288.572 147.546 288.572 146.425C288.572 145.311 289.087 144.762 289.75 144.762C290.413 144.762 290.927 145.311 290.927 146.425C290.927 147.546 290.413 148.095 289.75 148.095ZM292.821 144.402C292.341 144.402 291.964 144.762 291.964 145.345C291.964 145.922 292.341 146.288 292.827 146.288C293.313 146.288 293.69 145.922 293.69 145.345C293.69 144.762 293.313 144.402 292.821 144.402ZM292.438 148.392H292.793L295.325 144.459H294.982L292.438 148.392ZM292.821 144.67C293.159 144.67 293.399 144.933 293.399 145.334C293.399 145.745 293.159 146.014 292.821 146.014C292.495 146.014 292.25 145.745 292.25 145.334C292.25 144.933 292.495 144.67 292.821 144.67ZM294.948 146.563C294.462 146.563 294.085 146.928 294.085 147.506C294.085 148.089 294.462 148.449 294.948 148.449C295.44 148.449 295.811 148.089 295.811 147.506C295.811 146.928 295.44 146.563 294.948 146.563ZM294.376 147.5C294.376 147.094 294.616 146.831 294.948 146.831C295.28 146.831 295.52 147.1 295.52 147.5C295.52 147.906 295.28 148.175 294.948 148.175C294.616 148.175 294.376 147.906 294.376 147.5Z" fill="#323232"/>
<path id="2" d="M26.6249 124.382V124.039H24.4297L25.7445 122.799C26.2076 122.37 26.5906 121.998 26.5906 121.438C26.5906 120.775 26.1104 120.392 25.4301 120.392C24.7555 120.392 24.2582 120.763 24.0638 120.941V121.347C24.3096 121.112 24.7898 120.735 25.4072 120.735C25.9217 120.735 26.2076 121.038 26.2076 121.455C26.2076 121.878 25.9332 122.153 25.4873 122.587L23.938 124.096V124.382H26.6249Z" fill="#323232"/>
<path id="4" d="M25.0017 105.585L22.7436 108.324V108.61H25.0017V109.519H25.379V108.61H26.1679V108.272H25.379V105.585H25.0017ZM23.1838 108.272L25.0017 106.077V108.272H23.1838Z" fill="#323232"/>
<path id="6" d="M25.522 93.3399C25.522 92.5167 24.9217 92.048 24.2014 92.048C23.6755 92.048 23.281 92.2709 23.0409 92.5339C23.3439 91.6649 24.2357 90.9732 24.6816 90.7217H24.1328C23.5611 91.0475 22.5664 91.9851 22.5664 93.117C22.5664 94.1803 23.2067 94.712 24.0642 94.712C24.9103 94.712 25.522 94.186 25.522 93.3399ZM22.9494 93.1284C22.9494 93.0427 22.9609 92.9626 22.978 92.8769C23.2467 92.5911 23.6297 92.3681 24.1385 92.3681C24.6873 92.3681 25.1446 92.7054 25.1446 93.3457C25.1446 93.9916 24.6987 94.3689 24.0756 94.3689C23.4468 94.3689 22.9494 93.9859 22.9494 93.1284Z" fill="#323232"/>
<path id="8" d="M23.9926 79.8487C24.9473 79.8487 25.479 79.3342 25.479 78.6996C25.479 78.2366 25.1988 77.8421 24.6729 77.6592C25.0731 77.5048 25.296 77.1847 25.296 76.8188C25.296 76.2357 24.8044 75.8012 23.9926 75.8012C23.1923 75.8012 22.7006 76.23 22.7006 76.8074C22.7006 77.1733 22.9179 77.4991 23.3238 77.6592C22.7864 77.8421 22.512 78.2366 22.512 78.7053C22.512 79.3342 23.0436 79.8487 23.9926 79.8487ZM23.0665 76.8245C23.0665 76.4015 23.4324 76.1271 23.9926 76.1271C24.5586 76.1271 24.9244 76.4072 24.9244 76.8245C24.9244 77.2533 24.5586 77.5334 23.9926 77.5334C23.4324 77.5334 23.0665 77.2476 23.0665 76.8245ZM22.8836 78.6825C22.8836 78.1737 23.3066 77.8135 23.9926 77.8135C24.6786 77.8135 25.1017 78.168 25.1017 78.6767C25.1017 79.1684 24.6786 79.5228 23.9926 79.5228C23.3066 79.5228 22.8836 79.1684 22.8836 78.6825Z" fill="#323232"/>
<path id="10" d="M19.8095 60.995L19.6552 61.3323H20.3583V64.9281H20.7299V60.995H19.8095ZM23.2541 64.9853C24.0945 64.9853 24.8205 64.3621 24.8205 62.9616C24.8205 61.5667 24.0945 60.9378 23.2541 60.9378C22.4081 60.9378 21.6878 61.5667 21.6878 62.9616C21.6878 64.3621 22.4081 64.9853 23.2541 64.9853ZM23.2541 64.6308C22.591 64.6308 22.0765 64.082 22.0765 62.9616C22.0765 61.8468 22.591 61.298 23.2541 61.298C23.9173 61.298 24.4318 61.8468 24.4318 62.9616C24.4318 64.082 23.9173 64.6308 23.2541 64.6308Z" fill="#323232"/>
<path id="12" d="M20.6302 45.7365L20.4759 46.0737H21.179V49.6696H21.5506V45.7365H20.6302ZM24.9837 49.6696V49.3266H22.7885L24.1034 48.086C24.5664 47.6573 24.9494 47.2857 24.9494 46.7254C24.9494 46.0623 24.4692 45.6793 23.789 45.6793C23.1144 45.6793 22.617 46.0509 22.4227 46.2281V46.634C22.6685 46.3996 23.1487 46.0223 23.7661 46.0223C24.2806 46.0223 24.5664 46.3253 24.5664 46.7426C24.5664 47.1656 24.292 47.44 23.8461 47.8745L22.2969 49.3837V49.6696H24.9837Z" fill="#323232"/>
</g>
</g>
</g>
<defs>
<linearGradient id="paint0_linear_612_566" x1="171.989" y1="0.0458984" x2="171.989" y2="160.184" gradientUnits="userSpaceOnUse">
<stop stop-color="#E8E8E8"/>
<stop offset="1" stop-color="#EDF0F1" stop-opacity="0"/>
</linearGradient>
</defs>
</svg>
