<svg width="705" height="168" viewBox="0 0 705 168" fill="none" xmlns="http://www.w3.org/2000/svg">
<g id="Group 11546">
<rect id="Rectangle 2092" x="0.68351" y="0.406563" width="703.121" height="166.74" rx="4.28753" fill="white" fill-opacity="0.88" stroke="url(#paint0_linear_612_610)" stroke-width="0.571671"/>
<path id="Predicted Spend Pattern" d="M10.9898 14.789V21.0819H11.8953V18.9416H13.5509C14.9412 18.9416 15.9199 18.2281 15.9199 16.8836C15.9199 15.4658 14.9412 14.789 13.5509 14.789H10.9898ZM13.4869 15.6396C14.365 15.6396 14.9686 15.9963 14.9686 16.8836C14.9686 17.7159 14.365 18.1001 13.4869 18.1001H11.8953V15.6396H13.4869ZM16.8558 16.2341V21.0819H17.7156V17.4781C18.0449 17.2311 18.5479 16.9659 19.0236 16.9659C19.3712 16.9659 19.6547 17.0665 19.8651 17.1945V16.289C19.6913 16.1976 19.4901 16.1427 19.2797 16.1427C18.6303 16.1427 18.0357 16.5543 17.6607 16.9293V16.2341H16.8558ZM24.713 20.7435V19.9843C24.3563 20.1855 23.6886 20.3593 23.0391 20.3593C22.0238 20.3593 21.3653 19.8928 21.3013 18.9233H24.8136V18.5208C24.8136 17.0116 24.0544 16.1335 22.7281 16.1335C21.3744 16.1335 20.4323 17.0756 20.4323 18.658C20.4323 20.3044 21.475 21.1734 22.9568 21.1734C23.6245 21.1734 24.3654 20.9996 24.713 20.7435ZM22.6824 16.8744C23.5331 16.8744 23.9538 17.4232 23.9721 18.3379H21.2921C21.3378 17.4141 21.8775 16.8744 22.6824 16.8744ZM29.316 21.0819H30.1209V14.6518L29.2611 14.789V16.2616C28.9867 16.1976 28.6849 16.1427 28.2916 16.1427C26.9104 16.1427 25.6756 17.0025 25.6756 18.7861C25.6756 20.3959 26.6726 21.1734 27.8068 21.1734C28.4837 21.1734 28.9959 20.9173 29.316 20.652V21.0819ZM28.3373 16.911C28.7215 16.911 29.0142 16.9842 29.2611 17.0665V20.0117C28.9959 20.1947 28.5477 20.4051 28.0355 20.4051C27.1391 20.4051 26.5537 19.8014 26.5537 18.7312C26.5537 17.4872 27.3312 16.911 28.3373 16.911ZM31.855 15.5573C32.23 15.5573 32.4678 15.3561 32.4678 15.0542C32.4678 14.7432 32.23 14.542 31.855 14.542C31.48 14.542 31.233 14.7432 31.233 15.0542C31.233 15.3561 31.48 15.5573 31.855 15.5573ZM31.416 16.2341V21.0819H32.2758V16.2341H31.416ZM37.4186 16.5085C37.0527 16.2616 36.5314 16.1335 35.9734 16.1335C34.4916 16.1335 33.3574 17.1397 33.3574 18.658C33.3574 20.1306 34.4825 21.1734 35.9643 21.1734C36.5314 21.1734 37.0527 21.0362 37.4186 20.7892V19.9294C37.0527 20.1947 36.5405 20.3593 35.9917 20.3593C34.9673 20.3593 34.2172 19.6825 34.2172 18.658C34.2172 17.6061 34.9673 16.9476 36.0008 16.9476C36.5405 16.9476 37.0527 17.1031 37.4186 17.3683V16.5085ZM41.3178 20.8715V20.1306C41.0983 20.2678 40.7416 20.3959 40.3574 20.3959C39.8635 20.3959 39.5708 20.1764 39.5708 19.6184V16.9933H41.2812V16.2341H39.5708V15.3195H39.3696L37.9701 16.7738V16.9933H38.711V19.7099C38.711 20.8807 39.3879 21.1734 40.147 21.1734C40.6867 21.1734 41.08 21.027 41.3178 20.8715ZM46.3025 20.7435V19.9843C45.9458 20.1855 45.2781 20.3593 44.6286 20.3593C43.6134 20.3593 42.9548 19.8928 42.8908 18.9233H46.4031V18.5208C46.4031 17.0116 45.6439 16.1335 44.3177 16.1335C42.9639 16.1335 42.0218 17.0756 42.0218 18.658C42.0218 20.3044 43.0646 21.1734 44.5463 21.1734C45.214 21.1734 45.9549 20.9996 46.3025 20.7435ZM44.2719 16.8744C45.1226 16.8744 45.5433 17.4232 45.5616 18.3379H42.8816C42.9274 17.4141 43.467 16.8744 44.2719 16.8744ZM50.9055 21.0819H51.7104V14.6518L50.8506 14.789V16.2616C50.5762 16.1976 50.2744 16.1427 49.8811 16.1427C48.4999 16.1427 47.2651 17.0025 47.2651 18.7861C47.2651 20.3959 48.2621 21.1734 49.3963 21.1734C50.0732 21.1734 50.5854 20.9173 50.9055 20.652V21.0819ZM49.9268 16.911C50.311 16.911 50.6037 16.9842 50.8506 17.0665V20.0117C50.5854 20.1947 50.1372 20.4051 49.625 20.4051C48.7286 20.4051 48.1432 19.8014 48.1432 18.7312C48.1432 17.4872 48.9207 16.911 49.9268 16.911ZM58.6091 19.4995C58.6091 20.0026 58.2341 20.341 57.3468 20.341C56.4687 20.341 55.49 19.966 54.9047 19.5544V20.4965C55.3986 20.8349 56.2858 21.1734 57.3102 21.1734C58.5816 21.1734 59.5329 20.5788 59.5329 19.4538C59.5329 18.2922 58.7371 17.9537 57.6853 17.6336L56.9993 17.4232C56.2675 17.1854 55.737 17.0025 55.737 16.3988C55.737 15.8957 56.176 15.5481 56.981 15.5481C57.8225 15.5481 58.6823 15.914 59.1762 16.2524V15.2737C58.792 15.0085 58.042 14.6883 57.0084 14.6883C55.7919 14.6883 54.7857 15.3103 54.7857 16.472C54.7857 17.597 55.6547 17.9629 56.5602 18.2281L57.3834 18.4751C58.1609 18.7221 58.6091 18.9324 58.6091 19.4995ZM62.3463 21.1734C63.7366 21.1734 64.9714 20.3136 64.9714 18.53C64.9714 16.9201 63.9744 16.1427 62.8402 16.1427C62.1634 16.1427 61.6512 16.3988 61.331 16.664V16.2341H60.5261V22.5271H61.3859V21.0545C61.6603 21.1276 61.953 21.1734 62.3463 21.1734ZM62.6024 16.911C63.4897 16.911 64.0842 17.5147 64.0842 18.5848C64.0842 19.8288 63.3159 20.4051 62.3097 20.4051C61.9256 20.4051 61.6329 20.3319 61.3859 20.2496V17.3135C61.6603 17.1214 62.0811 16.911 62.6024 16.911ZM70.0715 20.7435V19.9843C69.7148 20.1855 69.0471 20.3593 68.3977 20.3593C67.3824 20.3593 66.7238 19.8928 66.6598 18.9233H70.1721V18.5208C70.1721 17.0116 69.4129 16.1335 68.0867 16.1335C66.733 16.1335 65.7908 17.0756 65.7908 18.658C65.7908 20.3044 66.8336 21.1734 68.3153 21.1734C68.9831 21.1734 69.7239 20.9996 70.0715 20.7435ZM68.0409 16.8744C68.8916 16.8744 69.3123 17.4232 69.3306 18.3379H66.6506C66.6964 17.4141 67.236 16.8744 68.0409 16.8744ZM71.2628 16.2341V21.0819H72.1226V17.4049C72.461 17.2037 73.0098 16.9659 73.5769 16.9659C74.2904 16.9659 74.7203 17.3683 74.7203 18.1641V21.0819H75.5801V17.972C75.5801 16.7829 74.9672 16.1427 73.8971 16.1427C73.1013 16.1427 72.4793 16.5085 72.0677 16.847V16.2341H71.2628ZM80.2394 21.0819H81.0443V14.6518L80.1845 14.789V16.2616C79.9101 16.1976 79.6083 16.1427 79.215 16.1427C77.8338 16.1427 76.599 17.0025 76.599 18.7861C76.599 20.3959 77.596 21.1734 78.7302 21.1734C79.407 21.1734 79.9193 20.9173 80.2394 20.652V21.0819ZM79.2607 16.911C79.6449 16.911 79.9376 16.9842 80.1845 17.0665V20.0117C79.9193 20.1947 79.4711 20.4051 78.9589 20.4051C78.0625 20.4051 77.4771 19.8014 77.4771 18.7312C77.4771 17.4872 78.2546 16.911 79.2607 16.911ZM84.4763 14.789V21.0819H85.3819V18.9416H87.0374C88.4277 18.9416 89.4064 18.2281 89.4064 16.8836C89.4064 15.4658 88.4277 14.789 87.0374 14.789H84.4763ZM86.9734 15.6396C87.8515 15.6396 88.4552 15.9963 88.4552 16.8836C88.4552 17.7159 87.8515 18.1001 86.9734 18.1001H85.3819V15.6396H86.9734ZM93.2053 18.1367V18.5757C92.9857 18.4934 92.6107 18.4019 92.1351 18.4019C90.8911 18.4019 90.0862 19.0239 90.0862 19.8745C90.0862 20.6795 90.6442 21.1734 91.6229 21.1734C92.3455 21.1734 92.9126 20.8167 93.2601 20.4416V21.0819H94.0651V18.1275C94.0651 16.6823 93.1504 16.1427 92.0985 16.1427C91.2021 16.1427 90.4612 16.5634 90.1411 16.8927V17.7799C90.5527 17.3592 91.2296 16.9933 91.9887 16.9933C92.6382 16.9933 93.2053 17.3135 93.2053 18.1367ZM90.8911 19.838C90.8911 19.3349 91.3851 18.9965 92.3455 18.9965C92.6565 18.9965 92.9857 19.0513 93.2053 19.1154V19.9386C92.8302 20.2496 92.3089 20.5057 91.7601 20.5057C91.2753 20.5057 90.8911 20.3136 90.8911 19.838ZM98.1902 20.8715V20.1306C97.9706 20.2678 97.6139 20.3959 97.2297 20.3959C96.7358 20.3959 96.4431 20.1764 96.4431 19.6184V16.9933H98.1536V16.2341H96.4431V15.3195H96.2419L94.8425 16.7738V16.9933H95.5833V19.7099C95.5833 20.8807 96.2602 21.1734 97.0194 21.1734C97.559 21.1734 97.9523 21.027 98.1902 20.8715ZM102.013 20.8715V20.1306C101.794 20.2678 101.437 20.3959 101.053 20.3959C100.559 20.3959 100.266 20.1764 100.266 19.6184V16.9933H101.977V16.2341H100.266V15.3195H100.065L98.6655 16.7738V16.9933H99.4064V19.7099C99.4064 20.8807 100.083 21.1734 100.842 21.1734C101.382 21.1734 101.775 21.027 102.013 20.8715ZM106.998 20.7435V19.9843C106.641 20.1855 105.973 20.3593 105.324 20.3593C104.309 20.3593 103.65 19.8928 103.586 18.9233H107.099V18.5208C107.099 17.0116 106.339 16.1335 105.013 16.1335C103.659 16.1335 102.717 17.0756 102.717 18.658C102.717 20.3044 103.76 21.1734 105.242 21.1734C105.909 21.1734 106.65 20.9996 106.998 20.7435ZM104.967 16.8744C105.818 16.8744 106.239 17.4232 106.257 18.3379H103.577C103.623 17.4141 104.162 16.8744 104.967 16.8744ZM108.189 16.2341V21.0819H109.049V17.4781C109.378 17.2311 109.881 16.9659 110.357 16.9659C110.705 16.9659 110.988 17.0665 111.198 17.1945V16.289C111.025 16.1976 110.823 16.1427 110.613 16.1427C109.964 16.1427 109.369 16.5543 108.994 16.9293V16.2341H108.189ZM111.994 16.2341V21.0819H112.854V17.4049C113.193 17.2037 113.741 16.9659 114.308 16.9659C115.022 16.9659 115.452 17.3683 115.452 18.1641V21.0819H116.312V17.972C116.312 16.7829 115.699 16.1427 114.629 16.1427C113.833 16.1427 113.211 16.5085 112.799 16.847V16.2341H111.994Z" fill="black"/>
<path id="Where your customers are likely to spend" d="M11.65 34.7416H12.5417L13.7652 30.8083L14.9888 34.7416H15.8805L17.1455 29.9857H16.3367L15.4243 33.995L14.1592 29.9857H13.3712L12.1062 34.0019L11.1868 29.9857H10.378L11.65 34.7416ZM19.5135 31.6309C20.0527 31.6309 20.3775 31.935 20.3775 32.5364V34.7416H21.0273V32.3913C21.0273 31.4926 20.5642 31.0087 19.7554 31.0087C19.1817 31.0087 18.7254 31.2576 18.4144 31.5065V29.882L17.7646 29.9857V34.7416H18.4144V31.9627C18.6701 31.8106 19.0849 31.6309 19.5135 31.6309ZM25.0325 34.4858V33.9121C24.7629 34.0641 24.2583 34.1955 23.7675 34.1955C23.0002 34.1955 22.5025 33.8429 22.4541 33.1102H25.1086V32.806C25.1086 31.6655 24.5348 31.0018 23.5325 31.0018C22.5094 31.0018 21.7974 31.7138 21.7974 32.9097C21.7974 34.154 22.5854 34.8107 23.7053 34.8107C24.2099 34.8107 24.7698 34.6794 25.0325 34.4858ZM23.4979 31.5618C24.1408 31.5618 24.4588 31.9765 24.4726 32.6678H22.4472C22.4817 31.9696 22.8896 31.5618 23.4979 31.5618ZM25.9328 31.0779V34.7416H26.5826V32.018C26.8315 31.8314 27.2117 31.6309 27.5711 31.6309C27.8338 31.6309 28.0481 31.7069 28.2071 31.8037V31.1194C28.0757 31.0502 27.9237 31.0087 27.7647 31.0087C27.2739 31.0087 26.8246 31.3198 26.5411 31.6032V31.0779H25.9328ZM31.8709 34.4858V33.9121C31.6013 34.0641 31.0967 34.1955 30.6059 34.1955C29.8386 34.1955 29.3409 33.8429 29.2925 33.1102H31.9469V32.806C31.9469 31.6655 31.3732 31.0018 30.3709 31.0018C29.3478 31.0018 28.6358 31.7138 28.6358 32.9097C28.6358 34.154 29.4238 34.8107 30.5437 34.8107C31.0483 34.8107 31.6082 34.6794 31.8709 34.4858ZM30.3363 31.5618C30.9792 31.5618 31.2971 31.9765 31.311 32.6678H29.2856C29.3201 31.9696 29.728 31.5618 30.3363 31.5618ZM34.8632 35.9029C35.3471 35.9029 35.7411 35.6471 36.0176 35.0043L37.7458 31.0779H37.0269L35.8655 33.9121L34.6697 31.0779H33.9438L35.5614 34.6379L35.437 34.9075C35.3194 35.1563 35.1052 35.3084 34.8286 35.3084C34.4485 35.3084 34.1512 35.0872 34.0199 34.949V35.5918C34.165 35.7232 34.4692 35.9029 34.8632 35.9029ZM39.9674 34.8107C41.0665 34.8107 41.8684 33.9881 41.8684 32.9097C41.8684 31.8175 41.0665 31.0087 39.9674 31.0087C38.8683 31.0087 38.0664 31.8175 38.0664 32.9097C38.0664 33.9881 38.8683 34.8107 39.9674 34.8107ZM39.9674 34.2024C39.2485 34.2024 38.7093 33.6494 38.7093 32.9097C38.7093 32.1562 39.2485 31.6171 39.9674 31.6171C40.6932 31.6171 41.2255 32.1562 41.2255 32.9097C41.2255 33.6563 40.6932 34.2024 39.9674 34.2024ZM44.1471 34.1886C43.6079 34.1886 43.283 33.8844 43.283 33.283V31.0779H42.6332V33.4282C42.6332 34.3268 43.0964 34.8107 43.8983 34.8107C44.5066 34.8107 44.9766 34.5342 45.2877 34.2784V34.7416H45.896V31.0779H45.2462V33.8498C44.9835 34.0088 44.5757 34.1886 44.1471 34.1886ZM46.8665 31.0779V34.7416H47.5163V32.018C47.7652 31.8314 48.1454 31.6309 48.5048 31.6309C48.7675 31.6309 48.9818 31.7069 49.1408 31.8037V31.1194C49.0094 31.0502 48.8574 31.0087 48.6984 31.0087C48.2076 31.0087 47.7583 31.3198 47.4748 31.6032V31.0779H46.8665ZM54.1846 31.2853C53.9081 31.0986 53.5141 31.0018 53.0924 31.0018C51.9725 31.0018 51.1154 31.7622 51.1154 32.9097C51.1154 34.0227 51.9656 34.8107 53.0855 34.8107C53.5141 34.8107 53.9081 34.707 54.1846 34.5204V33.8706C53.9081 34.0711 53.521 34.1955 53.1062 34.1955C52.332 34.1955 51.7652 33.6839 51.7652 32.9097C51.7652 32.1148 52.332 31.6171 53.1131 31.6171C53.521 31.6171 53.9081 31.7346 54.1846 31.935V31.2853ZM56.4332 34.1886C55.8941 34.1886 55.5692 33.8844 55.5692 33.283V31.0779H54.9194V33.4282C54.9194 34.3268 55.3825 34.8107 56.1844 34.8107C56.7927 34.8107 57.2628 34.5342 57.5738 34.2784V34.7416H58.1821V31.0779H57.5324V33.8498C57.2697 34.0088 56.8618 34.1886 56.4332 34.1886ZM60.791 32.7576L60.3416 32.6263C59.8716 32.4881 59.5674 32.3775 59.5674 32.0456C59.5674 31.7346 59.8785 31.5825 60.2656 31.5825C60.7841 31.5825 61.344 31.7899 61.6067 31.9903V31.3406C61.3509 31.1677 60.8255 31.0018 60.3002 31.0018C59.4499 31.0018 58.9384 31.4581 58.9384 32.0664C58.9384 32.7023 59.4015 32.9719 59.9476 33.1102L60.4108 33.2484C60.8808 33.3729 61.1573 33.4766 61.1573 33.7945C61.1573 34.1402 60.8877 34.2646 60.4523 34.2646C59.8854 34.2646 59.3117 34.0434 58.9729 33.8291V34.4651C59.2495 34.6379 59.837 34.8384 60.4246 34.8384C61.2472 34.8384 61.7726 34.472 61.7726 33.7807C61.7726 33.2139 61.3785 32.9236 60.791 32.7576ZM64.6786 34.5826V34.0227C64.5127 34.1264 64.2431 34.2231 63.9528 34.2231C63.5795 34.2231 63.3583 34.0572 63.3583 33.6356V31.6516H64.651V31.0779H63.3583V30.3866H63.2062L62.1486 31.4857V31.6516H62.7085V33.7047C62.7085 34.5895 63.2201 34.8107 63.7938 34.8107C64.2017 34.8107 64.4989 34.7001 64.6786 34.5826ZM67.1117 34.8107C68.2108 34.8107 69.0126 33.9881 69.0126 32.9097C69.0126 31.8175 68.2108 31.0087 67.1117 31.0087C66.0126 31.0087 65.2107 31.8175 65.2107 32.9097C65.2107 33.9881 66.0126 34.8107 67.1117 34.8107ZM67.1117 34.2024C66.3928 34.2024 65.8536 33.6494 65.8536 32.9097C65.8536 32.1562 66.3928 31.6171 67.1117 31.6171C67.8375 31.6171 68.3698 32.1562 68.3698 32.9097C68.3698 33.6563 67.8375 34.2024 67.1117 34.2024ZM69.8052 31.0779V34.7416H70.455V31.9696C70.7038 31.8175 71.084 31.6309 71.4849 31.6309C71.9757 31.6309 72.2799 31.9281 72.2799 32.5088V34.7416H72.9297V32.3291C72.9297 32.2046 72.9228 32.0802 72.902 31.9696C73.1647 31.8106 73.5518 31.6309 73.9597 31.6309C74.4574 31.6309 74.7615 31.9281 74.7615 32.5088V34.7416H75.4044V32.3636C75.4044 31.4857 74.9689 31.0087 74.2085 31.0087C73.5726 31.0087 73.1025 31.3198 72.7845 31.6032C72.5979 31.2161 72.2384 31.0087 71.7269 31.0087C71.1531 31.0087 70.7107 31.2853 70.4135 31.541V31.0779H69.8052ZM79.4088 34.4858V33.9121C79.1392 34.0641 78.6346 34.1955 78.1438 34.1955C77.3765 34.1955 76.8788 33.8429 76.8304 33.1102H79.4849V32.806C79.4849 31.6655 78.9111 31.0018 77.9088 31.0018C76.8857 31.0018 76.1737 31.7138 76.1737 32.9097C76.1737 34.154 76.9618 34.8107 78.0816 34.8107C78.5862 34.8107 79.1461 34.6794 79.4088 34.4858ZM77.8742 31.5618C78.5171 31.5618 78.8351 31.9765 78.8489 32.6678H76.8235C76.8581 31.9696 77.2659 31.5618 77.8742 31.5618ZM80.3091 31.0779V34.7416H80.9589V32.018C81.2078 31.8314 81.588 31.6309 81.9474 31.6309C82.2101 31.6309 82.4244 31.7069 82.5834 31.8037V31.1194C82.4521 31.0502 82.3 31.0087 82.141 31.0087C81.6502 31.0087 81.2009 31.3198 80.9175 31.6032V31.0779H80.3091ZM84.8232 32.7576L84.3739 32.6263C83.9038 32.4881 83.5997 32.3775 83.5997 32.0456C83.5997 31.7346 83.9107 31.5825 84.2978 31.5825C84.8163 31.5825 85.3762 31.7899 85.6389 31.9903V31.3406C85.3831 31.1677 84.8578 31.0018 84.3324 31.0018C83.4822 31.0018 82.9706 31.4581 82.9706 32.0664C82.9706 32.7023 83.4338 32.9719 83.9799 33.1102L84.443 33.2484C84.9131 33.3729 85.1896 33.4766 85.1896 33.7945C85.1896 34.1402 84.92 34.2646 84.4845 34.2646C83.9177 34.2646 83.3439 34.0434 83.0052 33.8291V34.4651C83.2817 34.6379 83.8693 34.8384 84.4568 34.8384C85.2794 34.8384 85.8048 34.472 85.8048 33.7807C85.8048 33.2139 85.4108 32.9236 84.8232 32.7576ZM90.236 32.5157V32.8475C90.0701 32.7853 89.7867 32.7162 89.4272 32.7162C88.4871 32.7162 87.8788 33.1862 87.8788 33.8291C87.8788 34.4374 88.3005 34.8107 89.0401 34.8107C89.5862 34.8107 90.0148 34.5411 90.2775 34.2577V34.7416H90.8858V32.5088C90.8858 31.4166 90.1946 31.0087 89.3996 31.0087C88.7222 31.0087 88.1622 31.3267 87.9203 31.5756V32.2461C88.2314 31.9281 88.7429 31.6516 89.3166 31.6516C89.8074 31.6516 90.236 31.8936 90.236 32.5157ZM88.4871 33.8015C88.4871 33.4213 88.8604 33.1655 89.5862 33.1655C89.8213 33.1655 90.0701 33.207 90.236 33.2554V33.8775C89.9526 34.1125 89.5586 34.3061 89.1438 34.3061C88.7775 34.3061 88.4871 34.1609 88.4871 33.8015ZM91.819 31.0779V34.7416H92.4688V32.018C92.7176 31.8314 93.0978 31.6309 93.4573 31.6309C93.7199 31.6309 93.9342 31.7069 94.0932 31.8037V31.1194C93.9619 31.0502 93.8098 31.0087 93.6508 31.0087C93.16 31.0087 92.7107 31.3198 92.4273 31.6032V31.0779H91.819ZM97.757 34.4858V33.9121C97.4874 34.0641 96.9828 34.1955 96.492 34.1955C95.7247 34.1955 95.227 33.8429 95.1786 33.1102H97.8331V32.806C97.8331 31.6655 97.2593 31.0018 96.257 31.0018C95.2339 31.0018 94.5219 31.7138 94.5219 32.9097C94.5219 34.154 95.31 34.8107 96.4298 34.8107C96.9344 34.8107 97.4944 34.6794 97.757 34.4858ZM96.2224 31.5618C96.8653 31.5618 97.1833 31.9765 97.1971 32.6678H95.1717C95.2063 31.9696 95.6141 31.5618 96.2224 31.5618ZM100.203 29.9857V34.7416H100.853V29.882L100.203 29.9857ZM102.162 30.5663C102.446 30.5663 102.625 30.4143 102.625 30.1861C102.625 29.9511 102.446 29.799 102.162 29.799C101.879 29.799 101.692 29.9511 101.692 30.1861C101.692 30.4143 101.879 30.5663 102.162 30.5663ZM101.83 31.0779V34.7416H102.48V31.0779H101.83ZM103.471 29.9857V34.7416H104.12V33.0411H104.763L105.925 34.7416H106.671L105.247 32.7162L106.671 31.0779H105.918L104.791 32.4328H104.12V29.882L103.471 29.9857ZM110.327 34.4858V33.9121C110.057 34.0641 109.552 34.1955 109.062 34.1955C108.294 34.1955 107.797 33.8429 107.748 33.1102H110.403V32.806C110.403 31.6655 109.829 31.0018 108.827 31.0018C107.804 31.0018 107.092 31.7138 107.092 32.9097C107.092 34.154 107.88 34.8107 108.999 34.8107C109.504 34.8107 110.064 34.6794 110.327 34.4858ZM108.792 31.5618C109.435 31.5618 109.753 31.9765 109.767 32.6678H107.741C107.776 31.9696 108.184 31.5618 108.792 31.5618ZM111.227 29.9857V34.7416H111.877V29.882L111.227 29.9857ZM113.387 35.9029C113.87 35.9029 114.264 35.6471 114.541 35.0043L116.269 31.0779H115.55L114.389 33.9121L113.193 31.0779H112.467L114.085 34.6379L113.96 34.9075C113.843 35.1563 113.628 35.3084 113.352 35.3084C112.972 35.3084 112.675 35.0872 112.543 34.949V35.5918C112.688 35.7232 112.993 35.9029 113.387 35.9029ZM120.493 34.5826V34.0227C120.327 34.1264 120.057 34.2231 119.767 34.2231C119.394 34.2231 119.173 34.0572 119.173 33.6356V31.6516H120.465V31.0779H119.173V30.3866H119.02L117.963 31.4857V31.6516H118.523V33.7047C118.523 34.5895 119.034 34.8107 119.608 34.8107C120.016 34.8107 120.313 34.7001 120.493 34.5826ZM122.926 34.8107C124.025 34.8107 124.827 33.9881 124.827 32.9097C124.827 31.8175 124.025 31.0087 122.926 31.0087C121.827 31.0087 121.025 31.8175 121.025 32.9097C121.025 33.9881 121.827 34.8107 122.926 34.8107ZM122.926 34.2024C122.207 34.2024 121.668 33.6494 121.668 32.9097C121.668 32.1562 122.207 31.6171 122.926 31.6171C123.652 31.6171 124.184 32.1562 124.184 32.9097C124.184 33.6563 123.652 34.2024 122.926 34.2024ZM128.804 32.7576L128.354 32.6263C127.884 32.4881 127.58 32.3775 127.58 32.0456C127.58 31.7346 127.891 31.5825 128.278 31.5825C128.797 31.5825 129.357 31.7899 129.619 31.9903V31.3406C129.363 31.1677 128.838 31.0018 128.313 31.0018C127.463 31.0018 126.951 31.4581 126.951 32.0664C126.951 32.7023 127.414 32.9719 127.96 33.1102L128.423 33.2484C128.893 33.3729 129.17 33.4766 129.17 33.7945C129.17 34.1402 128.9 34.2646 128.465 34.2646C127.898 34.2646 127.324 34.0434 126.986 33.8291V34.4651C127.262 34.6379 127.85 34.8384 128.437 34.8384C129.26 34.8384 129.785 34.472 129.785 33.7807C129.785 33.2139 129.391 32.9236 128.804 32.7576ZM131.882 34.8107C132.933 34.8107 133.866 34.1609 133.866 32.8129C133.866 31.5963 133.113 31.0087 132.256 31.0087C131.744 31.0087 131.357 31.2023 131.115 31.4028V31.0779H130.507V35.8338H131.157V34.7208C131.364 34.7761 131.585 34.8107 131.882 34.8107ZM132.076 31.5894C132.747 31.5894 133.196 32.0456 133.196 32.8544C133.196 33.7945 132.615 34.23 131.855 34.23C131.564 34.23 131.343 34.1747 131.157 34.1125V31.8936C131.364 31.7484 131.682 31.5894 132.076 31.5894ZM137.721 34.4858V33.9121C137.451 34.0641 136.947 34.1955 136.456 34.1955C135.688 34.1955 135.191 33.8429 135.142 33.1102H137.797V32.806C137.797 31.6655 137.223 31.0018 136.221 31.0018C135.198 31.0018 134.486 31.7138 134.486 32.9097C134.486 34.154 135.274 34.8107 136.394 34.8107C136.898 34.8107 137.458 34.6794 137.721 34.4858ZM136.186 31.5618C136.829 31.5618 137.147 31.9765 137.161 32.6678H135.135C135.17 31.9696 135.578 31.5618 136.186 31.5618ZM138.621 31.0779V34.7416H139.271V31.9627C139.527 31.8106 139.941 31.6309 140.37 31.6309C140.909 31.6309 141.234 31.935 141.234 32.5364V34.7416H141.884V32.3913C141.884 31.4926 141.421 31.0087 140.612 31.0087C140.011 31.0087 139.54 31.2853 139.229 31.541V31.0779H138.621ZM145.405 34.7416H146.013V29.882L145.364 29.9857V31.0986C145.156 31.0502 144.928 31.0087 144.631 31.0087C143.587 31.0087 142.654 31.6585 142.654 33.0065C142.654 34.2231 143.407 34.8107 144.265 34.8107C144.776 34.8107 145.163 34.6171 145.405 34.4167V34.7416ZM144.665 31.5894C144.956 31.5894 145.177 31.6447 145.364 31.7069V33.9328C145.163 34.0711 144.824 34.23 144.437 34.23C143.76 34.23 143.318 33.7738 143.318 32.965C143.318 32.0249 143.905 31.5894 144.665 31.5894Z" fill="#A9A9A9"/>
<g id="Group 124">
<g id="Group 122">
<rect id="Rectangle 376" x="24.7578" y="61.27" width="0.531396" height="89.1807" fill="#F7F7F7"/>
<rect id="Rectangle 377" x="74.1772" y="61.27" width="0.531396" height="89.1807" fill="#F7F7F7"/>
<rect id="Rectangle 429" x="370.412" y="61.27" width="0.531396" height="89.1807" fill="#F7F7F7"/>
<rect id="Rectangle 378" x="123.597" y="61.27" width="0.531396" height="89.1807" fill="#F7F7F7"/>
<rect id="Rectangle 430" x="419.831" y="61.27" width="0.531396" height="89.1807" fill="#F7F7F7"/>
<rect id="Rectangle 379" x="173.018" y="61.27" width="0.531396" height="89.1807" fill="#F7F7F7"/>
<rect id="Rectangle 431" x="469.253" y="61.27" width="0.531396" height="89.1807" fill="#F7F7F7"/>
<rect id="Rectangle 380" x="222.438" y="61.27" width="0.531396" height="89.1807" fill="#F7F7F7"/>
<rect id="Rectangle 432" x="518.672" y="61.27" width="0.531396" height="89.1807" fill="#F7F7F7"/>
<rect id="Rectangle 381" x="271.857" y="61.27" width="0.531396" height="89.1807" fill="#F7F7F7"/>
<rect id="Rectangle 433" x="568.092" y="61.27" width="0.531396" height="89.1807" fill="#F7F7F7"/>
<rect id="Rectangle 382" x="321.276" y="61.27" width="0.531396" height="89.1807" fill="#F7F7F7"/>
<rect id="Rectangle 434" x="617.511" y="61.27" width="0.531396" height="89.1807" fill="#F7F7F7"/>
<rect id="Rectangle 435" x="667.846" y="61.27" width="0.531396" height="89.1807" fill="#F7F7F7"/>
<rect id="Rectangle 389" x="24.7796" y="75.8391" width="661.063" height="0.67113" fill="#F7F7F7"/>
<rect id="Rectangle 396" x="24.7796" y="91.4988" width="661.063" height="0.67113" fill="#F7F7F7"/>
<rect id="Rectangle 403" x="24.7796" y="106.04" width="661.063" height="0.67113" fill="#F7F7F7"/>
<rect id="Rectangle 410" x="24.7796" y="120.581" width="661.063" height="0.67113" fill="#F7F7F7"/>
<rect id="Rectangle 417" x="24.7796" y="135.122" width="661.063" height="0.67113" fill="#F7F7F7"/>
<rect id="Rectangle 424" x="24.7796" y="150.782" width="662.182" height="0.67113" fill="#F7F7F7"/>
<rect id="Rectangle 425" x="34.024" y="67.3735" width="67.1131" height="83.8913" fill="#FFD5C7"/>
<rect id="Rectangle 436" x="329.025" y="107.561" width="67.1131" height="43.6235" fill="#D3ECFF"/>
<rect id="Rectangle 439" x="550.722" y="116.583" width="67.1131" height="34.6751" fill="#629D93"/>
<rect id="Rectangle 426" x="107.838" y="116.583" width="67.1131" height="34.6751" fill="#EA66FF"/>
<rect id="Rectangle 437" x="402.85" y="83.7766" width="67.1131" height="67.1131" fill="#C3EDB4"/>
<rect id="Rectangle 440" x="624.536" y="73.1146" width="67.1131" height="78.2986" fill="#7A85AB"/>
<rect id="Rectangle 428" x="181.652" y="87.0573" width="67.1131" height="63.7574" fill="#E4E591"/>
<rect id="Rectangle 438" x="476.908" y="95.2588" width="67.1131" height="55.9275" fill="#6FE3E3"/>
<rect id="Rectangle 441" x="255.466" y="79.6758" width="67.2527" height="71.3535" fill="#8D4B8B"/>
</g>
<g id="Group 123">
<path id="0" d="M17.1812 150.22C18.0216 150.22 18.7476 149.597 18.7476 148.196C18.7476 146.801 18.0216 146.172 17.1812 146.172C16.3351 146.172 15.6148 146.801 15.6148 148.196C15.6148 149.597 16.3351 150.22 17.1812 150.22ZM17.1812 149.865C16.5181 149.865 16.0036 149.317 16.0036 148.196C16.0036 147.081 16.5181 146.532 17.1812 146.532C17.8444 146.532 18.3589 147.081 18.3589 148.196C18.3589 149.317 17.8444 149.865 17.1812 149.865Z" fill="#323232"/>
<path id="Cab/Taxi" d="M57.0321 159.372C57.6038 159.372 58.0325 159.212 58.387 158.989V158.577C58.0611 158.806 57.6152 159.012 57.0435 159.012C56.1117 159.012 55.4086 158.332 55.4086 157.348C55.4086 156.359 56.1117 155.673 57.0435 155.673C57.6152 155.673 58.0611 155.879 58.387 156.108V155.702C58.0325 155.479 57.6038 155.319 57.0321 155.319C55.8888 155.319 55.0141 156.159 55.0141 157.348C55.0141 158.537 55.8888 159.372 57.0321 159.372ZM60.8612 157.4V157.766C60.7126 157.714 60.461 157.663 60.1523 157.663C59.3234 157.663 58.8432 158.063 58.8432 158.583C58.8432 159.052 59.1633 159.366 59.7807 159.366C60.2552 159.366 60.6382 159.12 60.8841 158.852V159.309H61.2213V157.405C61.2213 156.542 60.6668 156.222 60.0551 156.222C59.5063 156.222 59.0604 156.491 58.8661 156.702V157.091C59.1176 156.822 59.5178 156.576 60.0208 156.576C60.461 156.576 60.8612 156.799 60.8612 157.4ZM59.1919 158.566C59.1919 158.2 59.5349 157.926 60.2552 157.926C60.4725 157.926 60.7126 157.971 60.8612 158.017V158.612C60.5925 158.857 60.2324 159.069 59.8265 159.069C59.472 159.069 59.1919 158.926 59.1919 158.566ZM62.4677 155.302L62.1018 155.376V159.138C62.4048 159.252 62.7764 159.366 63.268 159.366C64.1084 159.366 64.7829 158.817 64.7829 157.731C64.7829 156.777 64.2341 156.222 63.4681 156.222C63.0336 156.222 62.6678 156.416 62.4677 156.576V155.302ZM63.3938 156.559C63.9998 156.559 64.4056 157.011 64.4056 157.748C64.4056 158.617 63.9369 159.035 63.2566 159.035C62.9422 159.035 62.6906 158.972 62.4677 158.903V156.891C62.662 156.737 62.9879 156.559 63.3938 156.559ZM65.4954 159.481L67.4277 154.947H67.1018L65.1696 159.481H65.4954ZM67.5691 155.73H68.9468V159.309H69.3241V155.73H70.7018V155.376H67.5691V155.73ZM73.0594 157.4V157.766C72.9108 157.714 72.6593 157.663 72.3506 157.663C71.5217 157.663 71.0415 158.063 71.0415 158.583C71.0415 159.052 71.3616 159.366 71.979 159.366C72.4535 159.366 72.8365 159.12 73.0823 158.852V159.309H73.4196V157.405C73.4196 156.542 72.8651 156.222 72.2534 156.222C71.7046 156.222 71.2587 156.491 71.0643 156.702V157.091C71.3159 156.822 71.716 156.576 72.2191 156.576C72.6593 156.576 73.0594 156.799 73.0594 157.4ZM71.3902 158.566C71.3902 158.2 71.7332 157.926 72.4535 157.926C72.6707 157.926 72.9108 157.971 73.0594 158.017V158.612C72.7908 158.857 72.4306 159.069 72.0247 159.069C71.6703 159.069 71.3902 158.926 71.3902 158.566ZM76.2037 159.309H76.6325L75.5292 157.754L76.6211 156.279H76.1923L75.2776 157.548L74.3572 156.279H73.9285L75.0204 157.766L73.917 159.309H74.3458L75.2719 157.96L76.2037 159.309ZM77.3582 155.793C77.5297 155.793 77.6498 155.69 77.6498 155.542C77.6498 155.393 77.5297 155.29 77.3582 155.29C77.1925 155.29 77.0724 155.393 77.0724 155.542C77.0724 155.69 77.1925 155.793 77.3582 155.793ZM77.1753 156.279V159.309H77.5412V156.279H77.1753Z" fill="#323232"/>
<path id="Entertainment" d="M122.328 155.376V159.309H125.043V158.955H122.705V157.491H124.757V157.137H122.705V155.73H125.043V155.376H122.328ZM125.776 156.279V159.309H126.142V156.925C126.376 156.777 126.765 156.571 127.177 156.571C127.651 156.571 127.988 156.839 127.988 157.428V159.309H128.348V157.365C128.348 156.588 127.914 156.222 127.285 156.222C126.765 156.222 126.382 156.462 126.119 156.674V156.279H125.776ZM130.901 159.178V158.846C130.758 158.943 130.541 159.029 130.289 159.029C129.946 159.029 129.746 158.869 129.746 158.48V156.605H130.872V156.279H129.746V155.708H129.655L128.912 156.508V156.605H129.38V158.509C129.38 159.2 129.798 159.366 130.221 159.366C130.535 159.366 130.764 159.269 130.901 159.178ZM134.007 159.126V158.789C133.795 158.926 133.355 159.018 132.972 159.018C132.303 159.018 131.806 158.669 131.766 157.926H134.087V157.748C134.087 156.765 133.618 156.216 132.795 156.216C131.983 156.216 131.394 156.788 131.394 157.794C131.394 158.835 132.051 159.366 132.943 159.366C133.326 159.366 133.778 159.28 134.007 159.126ZM132.783 156.542C133.383 156.542 133.709 156.937 133.726 157.657H131.766C131.788 156.937 132.211 156.542 132.783 156.542ZM134.853 156.279V159.309H135.219V157C135.437 156.805 135.814 156.571 136.14 156.571C136.346 156.571 136.506 156.628 136.631 156.714V156.331C136.511 156.262 136.38 156.222 136.231 156.222C135.814 156.222 135.442 156.502 135.196 156.748V156.279H134.853ZM138.873 159.178V158.846C138.73 158.943 138.513 159.029 138.262 159.029C137.919 159.029 137.718 158.869 137.718 158.48V156.605H138.845V156.279H137.718V155.708H137.627L136.884 156.508V156.605H137.353V158.509C137.353 159.2 137.77 159.366 138.193 159.366C138.507 159.366 138.736 159.269 138.873 159.178ZM141.378 157.4V157.766C141.23 157.714 140.978 157.663 140.67 157.663C139.841 157.663 139.36 158.063 139.36 158.583C139.36 159.052 139.681 159.366 140.298 159.366C140.772 159.366 141.155 159.12 141.401 158.852V159.309H141.739V157.405C141.739 156.542 141.184 156.222 140.572 156.222C140.024 156.222 139.578 156.491 139.383 156.702V157.091C139.635 156.822 140.035 156.576 140.538 156.576C140.978 156.576 141.378 156.799 141.378 157.4ZM139.709 158.566C139.709 158.2 140.052 157.926 140.772 157.926C140.99 157.926 141.23 157.971 141.378 158.017V158.612C141.11 158.857 140.75 159.069 140.344 159.069C139.989 159.069 139.709 158.926 139.709 158.566ZM142.808 155.793C142.979 155.793 143.099 155.69 143.099 155.542C143.099 155.393 142.979 155.29 142.808 155.29C142.642 155.29 142.522 155.393 142.522 155.542C142.522 155.69 142.642 155.793 142.808 155.793ZM142.625 156.279V159.309H142.991V156.279H142.625ZM143.897 156.279V159.309H144.263V156.925C144.498 156.777 144.886 156.571 145.298 156.571C145.773 156.571 146.11 156.839 146.11 157.428V159.309H146.47V157.365C146.47 156.588 146.036 156.222 145.407 156.222C144.886 156.222 144.503 156.462 144.24 156.674V156.279H143.897ZM147.348 156.279V159.309H147.713V156.925C147.936 156.777 148.302 156.571 148.691 156.571C149.131 156.571 149.446 156.834 149.446 157.4V159.309H149.806V157.291C149.806 157.16 149.794 157.045 149.766 156.937C150.006 156.771 150.383 156.571 150.789 156.571C151.224 156.571 151.538 156.834 151.538 157.4V159.309H151.904V157.337C151.904 156.582 151.498 156.222 150.898 156.222C150.36 156.222 149.96 156.485 149.691 156.719C149.526 156.388 149.211 156.222 148.8 156.222C148.308 156.222 147.948 156.468 147.691 156.668V156.279H147.348ZM155.232 159.126V158.789C155.021 158.926 154.58 159.018 154.197 159.018C153.528 159.018 153.031 158.669 152.991 157.926H155.312V157.748C155.312 156.765 154.843 156.216 154.02 156.216C153.208 156.216 152.62 156.788 152.62 157.794C152.62 158.835 153.277 159.366 154.169 159.366C154.552 159.366 155.003 159.28 155.232 159.126ZM154.009 156.542C154.609 156.542 154.935 156.937 154.952 157.657H152.991C153.014 156.937 153.437 156.542 154.009 156.542ZM156.079 156.279V159.309H156.445V156.925C156.679 156.777 157.068 156.571 157.48 156.571C157.954 156.571 158.291 156.839 158.291 157.428V159.309H158.652V157.365C158.652 156.588 158.217 156.222 157.588 156.222C157.068 156.222 156.685 156.462 156.422 156.674V156.279H156.079ZM161.204 159.178V158.846C161.061 158.943 160.844 159.029 160.592 159.029C160.249 159.029 160.049 158.869 160.049 158.48V156.605H161.176V156.279H160.049V155.708H159.958L159.215 156.508V156.605H159.683V158.509C159.683 159.2 160.101 159.366 160.524 159.366C160.838 159.366 161.067 159.269 161.204 159.178Z" fill="#323232"/>
<path id="Shopping" d="M208.229 158.366C208.229 158.749 207.949 159.012 207.32 159.012C206.76 159.012 206.194 158.783 205.84 158.543V158.943C206.171 159.16 206.714 159.366 207.32 159.366C208.069 159.366 208.618 159.018 208.618 158.349C208.618 157.668 208.178 157.457 207.492 157.234L207.069 157.097C206.577 156.937 206.205 156.788 206.205 156.336C206.205 155.959 206.514 155.679 207.114 155.679C207.652 155.679 208.143 155.902 208.424 156.108V155.685C208.189 155.513 207.726 155.313 207.12 155.313C206.4 155.313 205.805 155.679 205.805 156.365C205.805 157.028 206.326 157.251 206.846 157.417L207.377 157.588C207.932 157.771 208.229 157.931 208.229 158.366ZM210.733 156.571C211.207 156.571 211.544 156.839 211.544 157.428V159.309H211.905V157.365C211.905 156.588 211.47 156.222 210.841 156.222C210.338 156.222 209.961 156.445 209.698 156.651V155.302L209.332 155.376V159.309H209.698V156.925C209.932 156.777 210.321 156.571 210.733 156.571ZM214.171 159.366C215.069 159.366 215.721 158.686 215.721 157.794C215.721 156.897 215.069 156.222 214.171 156.222C213.274 156.222 212.622 156.897 212.622 157.794C212.622 158.686 213.274 159.366 214.171 159.366ZM214.171 159.023C213.485 159.023 212.988 158.492 212.988 157.794C212.988 157.091 213.485 156.565 214.171 156.565C214.863 156.565 215.355 157.091 215.355 157.794C215.355 158.492 214.863 159.023 214.171 159.023ZM217.547 159.366C218.433 159.366 219.142 158.795 219.142 157.714C219.142 156.742 218.565 156.222 217.816 156.222C217.353 156.222 217.004 156.422 216.804 156.599V156.279H216.461V160.212H216.827V159.252C217.027 159.315 217.244 159.366 217.547 159.366ZM217.736 156.554C218.365 156.554 218.765 156.994 218.765 157.731C218.765 158.589 218.256 159.035 217.536 159.035C217.233 159.035 217.021 158.972 216.827 158.903V156.891C217.016 156.737 217.33 156.554 217.736 156.554ZM220.97 159.366C221.856 159.366 222.565 158.795 222.565 157.714C222.565 156.742 221.987 156.222 221.238 156.222C220.775 156.222 220.426 156.422 220.226 156.599V156.279H219.883V160.212H220.249V159.252C220.449 159.315 220.667 159.366 220.97 159.366ZM221.158 156.554C221.787 156.554 222.187 156.994 222.187 157.731C222.187 158.589 221.678 159.035 220.958 159.035C220.655 159.035 220.444 158.972 220.249 158.903V156.891C220.438 156.737 220.752 156.554 221.158 156.554ZM223.494 155.793C223.666 155.793 223.786 155.69 223.786 155.542C223.786 155.393 223.666 155.29 223.494 155.29C223.328 155.29 223.208 155.393 223.208 155.542C223.208 155.69 223.328 155.793 223.494 155.793ZM223.311 156.279V159.309H223.677V156.279H223.311ZM224.584 156.279V159.309H224.95V156.925C225.184 156.777 225.573 156.571 225.985 156.571C226.459 156.571 226.796 156.839 226.796 157.428V159.309H227.157V157.365C227.157 156.588 226.722 156.222 226.093 156.222C225.573 156.222 225.19 156.462 224.927 156.674V156.279H224.584ZM230.544 158.92V156.468C230.269 156.354 229.921 156.222 229.452 156.222C228.566 156.222 227.874 156.777 227.874 157.806C227.874 158.657 228.406 159.138 229.183 159.138C229.623 159.138 229.984 158.943 230.178 158.777V158.955C230.178 159.595 229.778 159.926 229.149 159.926C228.669 159.926 228.291 159.744 228.017 159.566V159.949C228.269 160.098 228.68 160.269 229.177 160.269C229.938 160.269 230.544 159.864 230.544 158.92ZM228.251 157.771C228.251 156.994 228.737 156.554 229.446 156.554C229.761 156.554 229.984 156.622 230.178 156.697V158.469C229.984 158.623 229.658 158.806 229.252 158.806C228.652 158.806 228.251 158.446 228.251 157.771Z" fill="#323232"/>
<path id="Mobile Bill" d="M277.794 159.309H278.217L279.829 155.999V159.309H280.206V155.376H279.697L278.005 158.926L276.313 155.376H275.804V159.309H276.182V155.999L277.794 159.309ZM282.579 159.366C283.476 159.366 284.128 158.686 284.128 157.794C284.128 156.897 283.476 156.222 282.579 156.222C281.681 156.222 281.03 156.897 281.03 157.794C281.03 158.686 281.681 159.366 282.579 159.366ZM282.579 159.023C281.893 159.023 281.395 158.492 281.395 157.794C281.395 157.091 281.893 156.565 282.579 156.565C283.271 156.565 283.762 157.091 283.762 157.794C283.762 158.492 283.271 159.023 282.579 159.023ZM285.235 155.302L284.869 155.376V159.138C285.172 159.252 285.543 159.366 286.035 159.366C286.875 159.366 287.55 158.817 287.55 157.731C287.55 156.777 287.001 156.222 286.235 156.222C285.801 156.222 285.435 156.416 285.235 156.576V155.302ZM286.161 156.559C286.767 156.559 287.173 157.011 287.173 157.748C287.173 158.617 286.704 159.035 286.023 159.035C285.709 159.035 285.458 158.972 285.235 158.903V156.891C285.429 156.737 285.755 156.559 286.161 156.559ZM288.48 155.793C288.651 155.793 288.771 155.69 288.771 155.542C288.771 155.393 288.651 155.29 288.48 155.29C288.314 155.29 288.194 155.393 288.194 155.542C288.194 155.69 288.314 155.793 288.48 155.793ZM288.297 156.279V159.309H288.662V156.279H288.297ZM289.569 155.376V159.309H289.935V155.302L289.569 155.376ZM293.289 159.126V158.789C293.078 158.926 292.637 159.018 292.254 159.018C291.586 159.018 291.088 158.669 291.048 157.926H293.369V157.748C293.369 156.765 292.9 156.216 292.077 156.216C291.265 156.216 290.677 156.788 290.677 157.794C290.677 158.835 291.334 159.366 292.226 159.366C292.609 159.366 293.06 159.28 293.289 159.126ZM292.066 156.542C292.666 156.542 292.992 156.937 293.009 157.657H291.048C291.071 156.937 291.494 156.542 292.066 156.542ZM295.567 159.309H297.219C298.025 159.309 298.58 158.978 298.58 158.246C298.58 157.674 298.22 157.308 297.562 157.222C297.991 157.137 298.328 156.828 298.328 156.342C298.328 155.639 297.802 155.376 297.111 155.376H295.567V159.309ZM297.082 155.73C297.574 155.73 297.928 155.896 297.928 156.399C297.928 156.862 297.551 157.085 297.042 157.085H295.944V155.73H297.082ZM297.145 157.411C297.734 157.411 298.174 157.64 298.174 158.183C298.174 158.749 297.745 158.955 297.191 158.955H295.944V157.411H297.145ZM299.494 155.793C299.666 155.793 299.786 155.69 299.786 155.542C299.786 155.393 299.666 155.29 299.494 155.29C299.328 155.29 299.208 155.393 299.208 155.542C299.208 155.69 299.328 155.793 299.494 155.793ZM299.311 156.279V159.309H299.677V156.279H299.311ZM300.584 155.376V159.309H300.95V155.302L300.584 155.376ZM301.851 155.376V159.309H302.217V155.302L301.851 155.376Z" fill="#323232"/>
<path id="Fitness/Gym" d="M344.86 155.376V159.309H345.237V157.6H347.278V157.245H345.237V155.73H347.564V155.376H344.86ZM348.402 155.793C348.573 155.793 348.694 155.69 348.694 155.542C348.694 155.393 348.573 155.29 348.402 155.29C348.236 155.29 348.116 155.393 348.116 155.542C348.116 155.69 348.236 155.793 348.402 155.793ZM348.219 156.279V159.309H348.585V156.279H348.219ZM351.167 159.178V158.846C351.024 158.943 350.807 159.029 350.555 159.029C350.212 159.029 350.012 158.869 350.012 158.48V156.605H351.138V156.279H350.012V155.708H349.921L349.177 156.508V156.605H349.646V158.509C349.646 159.2 350.063 159.366 350.486 159.366C350.801 159.366 351.03 159.269 351.167 159.178ZM351.82 156.279V159.309H352.186V156.925C352.42 156.777 352.809 156.571 353.22 156.571C353.695 156.571 354.032 156.839 354.032 157.428V159.309H354.392V157.365C354.392 156.588 353.958 156.222 353.329 156.222C352.809 156.222 352.426 156.462 352.163 156.674V156.279H351.82ZM357.722 159.126V158.789C357.511 158.926 357.071 159.018 356.688 159.018C356.019 159.018 355.521 158.669 355.481 157.926H357.802V157.748C357.802 156.765 357.334 156.216 356.51 156.216C355.699 156.216 355.11 156.788 355.11 157.794C355.11 158.835 355.767 159.366 356.659 159.366C357.042 159.366 357.494 159.28 357.722 159.126ZM356.499 156.542C357.099 156.542 357.425 156.937 357.442 157.657H355.481C355.504 156.937 355.927 156.542 356.499 156.542ZM359.85 157.748L359.421 157.617C359.015 157.491 358.729 157.371 358.729 157.034C358.729 156.708 359.055 156.542 359.421 156.542C359.838 156.542 360.267 156.714 360.49 156.879V156.496C360.267 156.354 359.861 156.216 359.433 156.216C358.775 156.216 358.375 156.582 358.375 157.045C358.375 157.554 358.741 157.766 359.164 157.886L359.627 158.023C360.027 158.143 360.279 158.251 360.279 158.583C360.279 158.943 360.01 159.069 359.593 159.069C359.118 159.069 358.638 158.875 358.369 158.697V159.075C358.615 159.223 359.084 159.395 359.587 159.395C360.239 159.395 360.627 159.109 360.627 158.572C360.627 158.103 360.29 157.88 359.85 157.748ZM362.58 157.748L362.151 157.617C361.745 157.491 361.459 157.371 361.459 157.034C361.459 156.708 361.785 156.542 362.151 156.542C362.568 156.542 362.997 156.714 363.22 156.879V156.496C362.997 156.354 362.591 156.216 362.162 156.216C361.505 156.216 361.105 156.582 361.105 157.045C361.105 157.554 361.471 157.766 361.894 157.886L362.357 158.023C362.757 158.143 363.009 158.251 363.009 158.583C363.009 158.943 362.74 159.069 362.323 159.069C361.848 159.069 361.368 158.875 361.099 158.697V159.075C361.345 159.223 361.814 159.395 362.317 159.395C362.969 159.395 363.357 159.109 363.357 158.572C363.357 158.103 363.02 157.88 362.58 157.748ZM364.001 159.481L365.933 154.947H365.607L363.675 159.481H364.001ZM368.418 159.012C367.423 159.012 366.732 158.332 366.732 157.348C366.732 156.359 367.423 155.673 368.418 155.673C368.995 155.673 369.447 155.879 369.779 156.108V155.702C369.424 155.479 368.978 155.319 368.407 155.319C367.206 155.319 366.337 156.153 366.337 157.348C366.337 158.537 367.206 159.372 368.418 159.372C368.995 159.372 369.424 159.212 369.779 158.989V157.2H367.995V157.525H369.401V158.795C369.127 158.926 368.801 159.012 368.418 159.012ZM370.966 160.269C371.337 160.269 371.606 160.064 371.812 159.589L373.269 156.279H372.869L371.777 158.846L370.686 156.279H370.28L371.606 159.252L371.474 159.543C371.366 159.784 371.183 159.932 370.949 159.932C370.668 159.932 370.434 159.766 370.331 159.646V160.029C370.434 160.127 370.663 160.269 370.966 160.269ZM373.777 156.279V159.309H374.142V156.925C374.365 156.777 374.731 156.571 375.12 156.571C375.56 156.571 375.875 156.834 375.875 157.4V159.309H376.235V157.291C376.235 157.16 376.223 157.045 376.195 156.937C376.435 156.771 376.812 156.571 377.218 156.571C377.653 156.571 377.967 156.834 377.967 157.4V159.309H378.333V157.337C378.333 156.582 377.927 156.222 377.327 156.222C376.789 156.222 376.389 156.485 376.12 156.719C375.955 156.388 375.64 156.222 375.229 156.222C374.737 156.222 374.377 156.468 374.12 156.668V156.279H373.777Z" fill="#323232"/>
<path id="Education" d="M418.578 155.376V159.309H421.294V158.955H418.956V157.491H421.008V157.137H418.956V155.73H421.294V155.376H418.578ZM424.21 159.309H424.548V155.302L424.182 155.376V156.336C423.982 156.274 423.764 156.222 423.461 156.222C422.575 156.222 421.866 156.788 421.866 157.874C421.866 158.846 422.444 159.366 423.198 159.366C423.656 159.366 424.016 159.16 424.21 158.989V159.309ZM423.473 156.554C423.782 156.554 423.993 156.617 424.182 156.685V158.703C423.999 158.852 423.673 159.035 423.273 159.035C422.644 159.035 422.244 158.594 422.244 157.857C422.244 157 422.753 156.554 423.473 156.554ZM426.598 159.018C426.123 159.018 425.786 158.749 425.786 158.16V156.279H425.42V158.223C425.42 159 425.855 159.366 426.489 159.366C427.004 159.366 427.392 159.126 427.655 158.915V159.309H427.998V156.279H427.632V158.657C427.404 158.812 427.009 159.018 426.598 159.018ZM431.226 156.434C431.014 156.291 430.705 156.216 430.374 156.216C429.448 156.216 428.739 156.834 428.739 157.794C428.739 158.726 429.448 159.366 430.368 159.366C430.705 159.366 431.014 159.28 431.226 159.138V158.772C431.025 158.915 430.717 159.018 430.379 159.018C429.653 159.018 429.11 158.532 429.11 157.794C429.11 157.04 429.653 156.565 430.385 156.565C430.717 156.565 431.025 156.657 431.226 156.805V156.434ZM433.782 157.4V157.766C433.634 157.714 433.382 157.663 433.074 157.663C432.245 157.663 431.764 158.063 431.764 158.583C431.764 159.052 432.085 159.366 432.702 159.366C433.176 159.366 433.56 159.12 433.805 158.852V159.309H434.143V157.405C434.143 156.542 433.588 156.222 432.976 156.222C432.428 156.222 431.982 156.491 431.787 156.702V157.091C432.039 156.822 432.439 156.576 432.942 156.576C433.382 156.576 433.782 156.799 433.782 157.4ZM432.113 158.566C432.113 158.2 432.456 157.926 433.176 157.926C433.394 157.926 433.634 157.971 433.782 158.017V158.612C433.514 158.857 433.154 159.069 432.748 159.069C432.393 159.069 432.113 158.926 432.113 158.566ZM436.698 159.178V158.846C436.555 158.943 436.338 159.029 436.086 159.029C435.743 159.029 435.543 158.869 435.543 158.48V156.605H436.669V156.279H435.543V155.708H435.452L434.709 156.508V156.605H435.177V158.509C435.177 159.2 435.595 159.366 436.018 159.366C436.332 159.366 436.561 159.269 436.698 159.178ZM437.54 155.793C437.711 155.793 437.831 155.69 437.831 155.542C437.831 155.393 437.711 155.29 437.54 155.29C437.374 155.29 437.254 155.393 437.254 155.542C437.254 155.69 437.374 155.793 437.54 155.793ZM437.357 156.279V159.309H437.723V156.279H437.357ZM440.019 159.366C440.916 159.366 441.568 158.686 441.568 157.794C441.568 156.897 440.916 156.222 440.019 156.222C439.121 156.222 438.469 156.897 438.469 157.794C438.469 158.686 439.121 159.366 440.019 159.366ZM440.019 159.023C439.333 159.023 438.835 158.492 438.835 157.794C438.835 157.091 439.333 156.565 440.019 156.565C440.71 156.565 441.202 157.091 441.202 157.794C441.202 158.492 440.71 159.023 440.019 159.023ZM442.309 156.279V159.309H442.674V156.925C442.909 156.777 443.298 156.571 443.709 156.571C444.184 156.571 444.521 156.839 444.521 157.428V159.309H444.881V157.365C444.881 156.588 444.447 156.222 443.818 156.222C443.298 156.222 442.915 156.462 442.652 156.674V156.279H442.309Z" fill="#323232"/>
<path id="House Rent" d="M494.729 155.376V159.309H495.107V157.48H497.496V159.309H497.879V155.376H497.496V157.125H495.107V155.376H494.729ZM500.248 159.366C501.145 159.366 501.797 158.686 501.797 157.794C501.797 156.897 501.145 156.222 500.248 156.222C499.35 156.222 498.699 156.897 498.699 157.794C498.699 158.686 499.35 159.366 500.248 159.366ZM500.248 159.023C499.562 159.023 499.064 158.492 499.064 157.794C499.064 157.091 499.562 156.565 500.248 156.565C500.94 156.565 501.431 157.091 501.431 157.794C501.431 158.492 500.94 159.023 500.248 159.023ZM503.687 159.018C503.212 159.018 502.875 158.749 502.875 158.16V156.279H502.509V158.223C502.509 159 502.944 159.366 503.578 159.366C504.093 159.366 504.481 159.126 504.744 158.915V159.309H505.087V156.279H504.721V158.657C504.493 158.812 504.098 159.018 503.687 159.018ZM507.268 157.748L506.84 157.617C506.434 157.491 506.148 157.371 506.148 157.034C506.148 156.708 506.474 156.542 506.84 156.542C507.257 156.542 507.686 156.714 507.909 156.879V156.496C507.686 156.354 507.28 156.216 506.851 156.216C506.194 156.216 505.793 156.582 505.793 157.045C505.793 157.554 506.159 157.766 506.582 157.886L507.045 158.023C507.446 158.143 507.697 158.251 507.697 158.583C507.697 158.943 507.428 159.069 507.011 159.069C506.537 159.069 506.056 158.875 505.788 158.697V159.075C506.034 159.223 506.502 159.395 507.005 159.395C507.657 159.395 508.046 159.109 508.046 158.572C508.046 158.103 507.709 157.88 507.268 157.748ZM511.17 159.126V158.789C510.959 158.926 510.519 159.018 510.136 159.018C509.467 159.018 508.969 158.669 508.929 157.926H511.25V157.748C511.25 156.765 510.782 156.216 509.958 156.216C509.147 156.216 508.558 156.788 508.558 157.794C508.558 158.835 509.215 159.366 510.107 159.366C510.49 159.366 510.942 159.28 511.17 159.126ZM509.947 156.542C510.547 156.542 510.873 156.937 510.89 157.657H508.929C508.952 156.937 509.375 156.542 509.947 156.542ZM513.448 155.376V159.309H513.826V157.623H514.534L515.981 159.309H516.455L514.969 157.623H515.095C515.889 157.623 516.409 157.245 516.409 156.531C516.409 155.736 515.872 155.376 515.026 155.376H513.448ZM515.015 155.73C515.638 155.73 516.021 155.965 516.021 156.531C516.021 157.062 515.632 157.314 515.015 157.314H513.826V155.73H515.015ZM519.639 159.126V158.789C519.428 158.926 518.988 159.018 518.605 159.018C517.936 159.018 517.438 158.669 517.398 157.926H519.719V157.748C519.719 156.765 519.251 156.216 518.427 156.216C517.616 156.216 517.027 156.788 517.027 157.794C517.027 158.835 517.684 159.366 518.576 159.366C518.959 159.366 519.411 159.28 519.639 159.126ZM518.416 156.542C519.016 156.542 519.342 156.937 519.359 157.657H517.398C517.421 156.937 517.844 156.542 518.416 156.542ZM520.486 156.279V159.309H520.852V156.925C521.086 156.777 521.475 156.571 521.887 156.571C522.361 156.571 522.699 156.839 522.699 157.428V159.309H523.059V157.365C523.059 156.588 522.624 156.222 521.995 156.222C521.475 156.222 521.092 156.462 520.829 156.674V156.279H520.486ZM525.611 159.178V158.846C525.468 158.943 525.251 159.029 525 159.029C524.657 159.029 524.457 158.869 524.457 158.48V156.605H525.583V156.279H524.457V155.708H524.365L523.622 156.508V156.605H524.091V158.509C524.091 159.2 524.508 159.366 524.931 159.366C525.245 159.366 525.474 159.269 525.611 159.178Z" fill="#323232"/>
<path id="Books" d="M576.726 159.309H578.378C579.184 159.309 579.739 158.978 579.739 158.246C579.739 157.674 579.379 157.308 578.721 157.222C579.15 157.137 579.487 156.828 579.487 156.342C579.487 155.639 578.961 155.376 578.27 155.376H576.726V159.309ZM578.241 155.73C578.733 155.73 579.087 155.896 579.087 156.399C579.087 156.862 578.71 157.085 578.201 157.085H577.103V155.73H578.241ZM578.304 157.411C578.893 157.411 579.333 157.64 579.333 158.183C579.333 158.749 578.904 158.955 578.35 158.955H577.103V157.411H578.304ZM581.854 159.366C582.751 159.366 583.403 158.686 583.403 157.794C583.403 156.897 582.751 156.222 581.854 156.222C580.956 156.222 580.304 156.897 580.304 157.794C580.304 158.686 580.956 159.366 581.854 159.366ZM581.854 159.023C581.168 159.023 580.67 158.492 580.67 157.794C580.67 157.091 581.168 156.565 581.854 156.565C582.545 156.565 583.037 157.091 583.037 157.794C583.037 158.492 582.545 159.023 581.854 159.023ZM585.533 159.366C586.43 159.366 587.082 158.686 587.082 157.794C587.082 156.897 586.43 156.222 585.533 156.222C584.635 156.222 583.984 156.897 583.984 157.794C583.984 158.686 584.635 159.366 585.533 159.366ZM585.533 159.023C584.847 159.023 584.349 158.492 584.349 157.794C584.349 157.091 584.847 156.565 585.533 156.565C586.224 156.565 586.716 157.091 586.716 157.794C586.716 158.492 586.224 159.023 585.533 159.023ZM587.823 155.376V159.309H588.188V157.783H588.783L589.829 159.309H590.252L589.063 157.606L590.258 156.279H589.823L588.806 157.445H588.188V155.302L587.823 155.376ZM592.101 157.748L591.672 157.617C591.266 157.491 590.981 157.371 590.981 157.034C590.981 156.708 591.306 156.542 591.672 156.542C592.09 156.542 592.518 156.714 592.741 156.879V156.496C592.518 156.354 592.112 156.216 591.684 156.216C591.026 156.216 590.626 156.582 590.626 157.045C590.626 157.554 590.992 157.766 591.415 157.886L591.878 158.023C592.278 158.143 592.53 158.251 592.53 158.583C592.53 158.943 592.261 159.069 591.844 159.069C591.369 159.069 590.889 158.875 590.62 158.697V159.075C590.866 159.223 591.335 159.395 591.838 159.395C592.49 159.395 592.879 159.109 592.879 158.572C592.879 158.103 592.541 157.88 592.101 157.748Z" fill="#323232"/>
<path id="Dinning" d="M648.246 155.376V159.309H649.538C650.801 159.309 651.658 158.52 651.658 157.348C651.658 156.165 650.801 155.376 649.538 155.376H648.246ZM649.538 155.73C650.584 155.73 651.275 156.371 651.275 157.348C651.275 158.314 650.584 158.955 649.538 158.955H648.623V155.73H649.538ZM652.614 155.793C652.785 155.793 652.905 155.69 652.905 155.542C652.905 155.393 652.785 155.29 652.614 155.29C652.448 155.29 652.328 155.393 652.328 155.542C652.328 155.69 652.448 155.793 652.614 155.793ZM652.431 156.279V159.309H652.797V156.279H652.431ZM653.704 156.279V159.309H654.07V156.925C654.304 156.777 654.693 156.571 655.104 156.571C655.579 156.571 655.916 156.839 655.916 157.428V159.309H656.276V157.365C656.276 156.588 655.842 156.222 655.213 156.222C654.693 156.222 654.31 156.462 654.047 156.674V156.279H653.704ZM657.154 156.279V159.309H657.52V156.925C657.754 156.777 658.143 156.571 658.554 156.571C659.029 156.571 659.366 156.839 659.366 157.428V159.309H659.726V157.365C659.726 156.588 659.292 156.222 658.663 156.222C658.143 156.222 657.76 156.462 657.497 156.674V156.279H657.154ZM660.793 155.793C660.964 155.793 661.084 155.69 661.084 155.542C661.084 155.393 660.964 155.29 660.793 155.29C660.627 155.29 660.507 155.393 660.507 155.542C660.507 155.69 660.627 155.793 660.793 155.793ZM660.61 156.279V159.309H660.975V156.279H660.61ZM661.882 156.279V159.309H662.248V156.925C662.483 156.777 662.871 156.571 663.283 156.571C663.757 156.571 664.095 156.839 664.095 157.428V159.309H664.455V157.365C664.455 156.588 664.02 156.222 663.392 156.222C662.871 156.222 662.488 156.462 662.225 156.674V156.279H661.882ZM667.842 158.92V156.468C667.568 156.354 667.219 156.222 666.75 156.222C665.864 156.222 665.172 156.777 665.172 157.806C665.172 158.657 665.704 159.138 666.482 159.138C666.922 159.138 667.282 158.943 667.476 158.777V158.955C667.476 159.595 667.076 159.926 666.447 159.926C665.967 159.926 665.59 159.744 665.315 159.566V159.949C665.567 160.098 665.978 160.269 666.476 160.269C667.236 160.269 667.842 159.864 667.842 158.92ZM665.55 157.771C665.55 156.994 666.036 156.554 666.744 156.554C667.059 156.554 667.282 156.622 667.476 156.697V158.469C667.282 158.623 666.956 158.806 666.55 158.806C665.95 158.806 665.55 158.446 665.55 157.771Z" fill="#323232"/>
<path id="2" d="M18.3969 135.299V134.956H16.2017L17.5166 133.716C17.9796 133.287 18.3626 132.915 18.3626 132.355C18.3626 131.692 17.8824 131.309 17.2022 131.309C16.5276 131.309 16.0302 131.681 15.8359 131.858V132.264C16.0817 132.029 16.5619 131.652 17.1793 131.652C17.6938 131.652 17.9796 131.955 17.9796 132.372C17.9796 132.795 17.7052 133.07 17.2593 133.504L15.7101 135.013V135.299H18.3969Z" fill="#323232"/>
<path id="4" d="M16.7738 116.503L14.5157 119.241V119.527H16.7738V120.436H17.1511V119.527H17.94V119.19H17.1511V116.503H16.7738ZM14.9559 119.19L16.7738 116.994V119.19H14.9559Z" fill="#323232"/>
<path id="6" d="M17.294 104.257C17.294 103.434 16.6937 102.965 15.9734 102.965C15.4475 102.965 15.053 103.188 14.8129 103.451C15.1159 102.582 16.0077 101.89 16.4536 101.639H15.9048C15.3332 101.965 14.3384 102.902 14.3384 104.034C14.3384 105.098 14.9787 105.629 15.8362 105.629C16.6823 105.629 17.294 105.103 17.294 104.257ZM14.7215 104.046C14.7215 103.96 14.7329 103.88 14.75 103.794C15.0187 103.508 15.4018 103.285 15.9105 103.285C16.4593 103.285 16.9167 103.623 16.9167 104.263C16.9167 104.909 16.4708 105.286 15.8477 105.286C15.2188 105.286 14.7215 104.903 14.7215 104.046Z" fill="#323232"/>
<path id="8" d="M15.7646 90.7659C16.7193 90.7659 17.251 90.2514 17.251 89.6168C17.251 89.1538 16.9708 88.7593 16.4449 88.5764C16.8451 88.4221 17.068 88.1019 17.068 87.7361C17.068 87.1529 16.5764 86.7185 15.7646 86.7185C14.9643 86.7185 14.4726 87.1472 14.4726 87.7246C14.4726 88.0905 14.6899 88.4163 15.0958 88.5764C14.5584 88.7593 14.284 89.1538 14.284 89.6226C14.284 90.2514 14.8156 90.7659 15.7646 90.7659ZM14.8385 87.7418C14.8385 87.3187 15.2044 87.0443 15.7646 87.0443C16.3306 87.0443 16.6964 87.3244 16.6964 87.7418C16.6964 88.1705 16.3306 88.4506 15.7646 88.4506C15.2044 88.4506 14.8385 88.1648 14.8385 87.7418ZM14.6556 89.5997C14.6556 89.0909 15.0786 88.7308 15.7646 88.7308C16.4506 88.7308 16.8737 89.0852 16.8737 89.594C16.8737 90.0856 16.4506 90.4401 15.7646 90.4401C15.0786 90.4401 14.6556 90.0856 14.6556 89.5997Z" fill="#323232"/>
<path id="10" d="M11.5816 71.9124L11.4272 72.2496H12.1304V75.8455H12.502V71.9124H11.5816ZM15.0262 75.9026C15.8665 75.9026 16.5925 75.2795 16.5925 73.8789C16.5925 72.484 15.8665 71.8552 15.0262 71.8552C14.1801 71.8552 13.4598 72.484 13.4598 73.8789C13.4598 75.2795 14.1801 75.9026 15.0262 75.9026ZM15.0262 75.5482C14.363 75.5482 13.8485 74.9994 13.8485 73.8789C13.8485 72.7642 14.363 72.2153 15.0262 72.2153C15.6893 72.2153 16.2038 72.7642 16.2038 73.8789C16.2038 74.9994 15.6893 75.5482 15.0262 75.5482Z" fill="#323232"/>
<path id="12" d="M12.4023 56.6537L12.2479 56.991H12.9511V60.5868H13.3227V56.6537H12.4023ZM16.7558 60.5868V60.2438H14.5606L15.8754 59.0033C16.3385 58.5745 16.7215 58.2029 16.7215 57.6427C16.7215 56.9795 16.2413 56.5965 15.561 56.5965C14.8864 56.5965 14.3891 56.9681 14.1947 57.1453V57.5512C14.4405 57.3168 14.9207 56.9395 15.5382 56.9395C16.0527 56.9395 16.3385 57.2425 16.3385 57.6598C16.3385 58.0829 16.0641 58.3573 15.6182 58.7917L14.069 60.301V60.5868H16.7558Z" fill="#323232"/>
</g>
</g>
</g>
<defs>
<linearGradient id="paint0_linear_612_610" x1="352.244" y1="0.120728" x2="352.244" y2="167.432" gradientUnits="userSpaceOnUse">
<stop stop-color="#E8E8E8"/>
<stop offset="1" stop-color="#EDF0F1" stop-opacity="0"/>
</linearGradient>
</defs>
</svg>
