<svg width="560" height="288" viewBox="0 0 560 288" fill="none" xmlns="http://www.w3.org/2000/svg">
<g filter="url(#filter0_d_612_768)">
<path d="M4 8C4 3.58172 7.58172 0 12 0H548C552.418 0 556 3.58172 556 8V272C556 276.418 552.418 280 548 280H12C7.58172 280 4 276.418 4 272V8Z" fill="#0D0A2C"/>
<path d="M12 0.5H548C552.142 0.5 555.5 3.85786 555.5 8V272C555.5 276.142 552.142 279.5 548 279.5H12C7.85786 279.5 4.5 276.142 4.5 272V8C4.5 3.85786 7.85786 0.5 12 0.5Z" stroke="url(#paint0_linear_612_768)"/>
</g>
<g filter="url(#filter1_d_612_768)">
<path d="M103.128 57.0921V57.8601C102.744 57.7161 102.088 57.5561 101.256 57.5561C99.08 57.5561 97.672 58.6441 97.672 60.1321C97.672 61.5401 98.648 62.4041 100.36 62.4041C101.624 62.4041 102.616 61.7801 103.224 61.1241V62.2441H104.632V57.0761C104.632 54.5481 103.032 53.6041 101.192 53.6041C99.624 53.6041 98.328 54.3401 97.768 54.9161V56.4681C98.488 55.7321 99.672 55.0921 101 55.0921C102.136 55.0921 103.128 55.6521 103.128 57.0921ZM99.08 60.0681C99.08 59.1881 99.944 58.5961 101.624 58.5961C102.168 58.5961 102.744 58.6921 103.128 58.8041V60.2441C102.472 60.7881 101.56 61.2361 100.6 61.2361C99.752 61.2361 99.08 60.9001 99.08 60.0681ZM112.216 62.2441H113.944L110.92 57.9401L113.912 53.7641H112.2L109.88 57.1241L107.56 53.7641H105.832L108.84 57.9561L105.816 62.2441H107.528L109.88 58.7401L112.216 62.2441ZM116.108 52.5801C116.764 52.5801 117.18 52.2281 117.18 51.7001C117.18 51.1561 116.764 50.8041 116.108 50.8041C115.452 50.8041 115.02 51.1561 115.02 51.7001C115.02 52.2281 115.452 52.5801 116.108 52.5801ZM115.34 53.7641V62.2441H116.844V53.7641H115.34ZM123.136 62.4041C125.68 62.4041 127.536 60.5001 127.536 58.0041C127.536 55.4761 125.68 53.6041 123.136 53.6041C120.592 53.6041 118.736 55.4761 118.736 58.0041C118.736 60.5001 120.592 62.4041 123.136 62.4041ZM123.136 60.9961C121.472 60.9961 120.224 59.7161 120.224 58.0041C120.224 56.2601 121.472 55.0121 123.136 55.0121C124.816 55.0121 126.048 56.2601 126.048 58.0041C126.048 59.7321 124.816 60.9961 123.136 60.9961ZM133.162 57.6521L132.122 57.3481C131.034 57.0281 130.33 56.7721 130.33 56.0041C130.33 55.2841 131.05 54.9321 131.946 54.9321C133.146 54.9321 134.442 55.4121 135.05 55.8761V54.3721C134.458 53.9721 133.242 53.5881 132.026 53.5881C130.058 53.5881 128.874 54.6441 128.874 56.0521C128.874 57.5241 129.946 58.1481 131.21 58.4681L132.282 58.7881C133.37 59.0761 134.01 59.3161 134.01 60.0521C134.01 60.8521 133.386 61.1401 132.378 61.1401C131.066 61.1401 129.738 60.6281 128.954 60.1321V61.6041C129.594 62.0041 130.954 62.4681 132.314 62.4681C134.218 62.4681 135.434 61.6201 135.434 60.0201C135.434 58.7081 134.522 58.0361 133.162 57.6521ZM141.067 62.4041C141.643 62.4041 142.123 61.9401 142.123 61.3641C142.123 60.7881 141.643 60.3081 141.067 60.3081C140.507 60.3081 140.027 60.7881 140.027 61.3641C140.027 61.9401 140.507 62.4041 141.067 62.4041ZM146.898 62.4041C149.33 62.4041 151.49 60.9001 151.49 57.7801C151.49 54.9641 149.746 53.6041 147.762 53.6041C146.578 53.6041 145.682 54.0521 145.122 54.5161V53.7641H143.714V64.7721H145.218V62.1961C145.698 62.3241 146.21 62.4041 146.898 62.4041ZM147.346 54.9481C148.898 54.9481 149.938 56.0041 149.938 57.8761C149.938 60.0521 148.594 61.0601 146.834 61.0601C146.162 61.0601 145.65 60.9321 145.218 60.7881V55.6521C145.698 55.3161 146.434 54.9481 147.346 54.9481ZM157.323 62.4041C159.867 62.4041 161.723 60.5001 161.723 58.0041C161.723 55.4761 159.867 53.6041 157.323 53.6041C154.779 53.6041 152.923 55.4761 152.923 58.0041C152.923 60.5001 154.779 62.4041 157.323 62.4041ZM157.323 60.9961C155.659 60.9961 154.411 59.7161 154.411 58.0041C154.411 56.2601 155.659 55.0121 157.323 55.0121C159.003 55.0121 160.235 56.2601 160.235 58.0041C160.235 59.7321 159.003 60.9961 157.323 60.9961ZM167.35 57.6521L166.31 57.3481C165.222 57.0281 164.518 56.7721 164.518 56.0041C164.518 55.2841 165.238 54.9321 166.134 54.9321C167.334 54.9321 168.63 55.4121 169.238 55.8761V54.3721C168.646 53.9721 167.43 53.5881 166.214 53.5881C164.246 53.5881 163.062 54.6441 163.062 56.0521C163.062 57.5241 164.134 58.1481 165.398 58.4681L166.47 58.7881C167.558 59.0761 168.198 59.3161 168.198 60.0521C168.198 60.8521 167.574 61.1401 166.566 61.1401C165.254 61.1401 163.926 60.6281 163.142 60.1321V61.6041C163.782 62.0041 165.142 62.4681 166.502 62.4681C168.406 62.4681 169.622 61.6201 169.622 60.0201C169.622 58.7081 168.71 58.0361 167.35 57.6521ZM176.348 61.8761V60.5801C175.964 60.8201 175.34 61.0441 174.668 61.0441C173.804 61.0441 173.292 60.6601 173.292 59.6841V55.0921H176.284V53.7641H173.292V52.1641H172.94L170.492 54.7081V55.0921H171.788V59.8441C171.788 61.8921 172.972 62.4041 174.3 62.4041C175.244 62.4041 175.932 62.1481 176.348 61.8761ZM181.419 50.7401H180.267C179.147 51.8281 177.499 54.0681 177.499 57.1241C177.499 60.1961 179.147 62.4201 180.267 63.5241H181.419C180.571 62.4041 178.907 60.2601 178.907 57.1241C178.907 54.0041 180.571 51.8601 181.419 50.7401ZM184.217 50.1481H182.393L184.393 52.6441H185.785L184.217 50.1481ZM188.115 62.5641L193.491 50.4041H192.163L186.787 62.5641H188.115ZM200.807 62.2441H202.215V50.9961L200.711 51.2361V53.8121C200.231 53.7001 199.703 53.6041 199.015 53.6041C196.599 53.6041 194.439 55.1081 194.439 58.2281C194.439 61.0441 196.183 62.4041 198.167 62.4041C199.351 62.4041 200.247 61.9561 200.807 61.4921V62.2441ZM199.095 54.9481C199.767 54.9481 200.279 55.0761 200.711 55.2201V60.3721C200.247 60.6921 199.463 61.0601 198.567 61.0601C196.999 61.0601 195.975 60.0041 195.975 58.1321C195.975 55.9561 197.335 54.9481 199.095 54.9481ZM209.456 57.0921V57.8601C209.072 57.7161 208.416 57.5561 207.584 57.5561C205.408 57.5561 204 58.6441 204 60.1321C204 61.5401 204.976 62.4041 206.688 62.4041C207.952 62.4041 208.944 61.7801 209.552 61.1241V62.2441H210.96V57.0761C210.96 54.5481 209.36 53.6041 207.52 53.6041C205.952 53.6041 204.656 54.3401 204.096 54.9161V56.4681C204.816 55.7321 206 55.0921 207.328 55.0921C208.464 55.0921 209.456 55.6521 209.456 57.0921ZM205.408 60.0681C205.408 59.1881 206.272 58.5961 207.952 58.5961C208.496 58.5961 209.072 58.6921 209.456 58.8041V60.2441C208.8 60.7881 207.888 61.2361 206.928 61.2361C206.08 61.2361 205.408 60.9001 205.408 60.0681ZM216.912 57.6521L215.872 57.3481C214.784 57.0281 214.08 56.7721 214.08 56.0041C214.08 55.2841 214.8 54.9321 215.696 54.9321C216.896 54.9321 218.192 55.4121 218.8 55.8761V54.3721C218.208 53.9721 216.992 53.5881 215.776 53.5881C213.808 53.5881 212.624 54.6441 212.624 56.0521C212.624 57.5241 213.696 58.1481 214.96 58.4681L216.032 58.7881C217.12 59.0761 217.76 59.3161 217.76 60.0521C217.76 60.8521 217.136 61.1401 216.128 61.1401C214.816 61.1401 213.488 60.6281 212.704 60.1321V61.6041C213.344 62.0041 214.704 62.4681 216.064 62.4681C217.968 62.4681 219.184 61.6201 219.184 60.0201C219.184 58.7081 218.272 58.0361 216.912 57.6521ZM224.902 55.0441C226.15 55.0441 226.902 55.7481 226.902 57.1401V62.2441H228.406V56.8041C228.406 54.7241 227.334 53.6041 225.462 53.6041C224.134 53.6041 223.078 54.1801 222.358 54.7561V50.9961L220.854 51.2361V62.2441H222.358V55.8121C222.95 55.4601 223.91 55.0441 224.902 55.0441ZM232.093 50.9961L230.589 51.2361V61.7321C231.453 62.0521 232.509 62.4041 233.981 62.4041C236.333 62.4041 238.365 60.9481 238.365 57.8281C238.365 55.0761 236.781 53.6041 234.733 53.6041C233.613 53.6041 232.669 54.0521 232.093 54.4681V50.9961ZM234.317 54.9801C235.757 54.9801 236.813 56.0041 236.813 57.9081C236.813 60.1321 235.581 61.0601 233.917 61.0601C233.197 61.0601 232.605 60.9321 232.093 60.7721V55.6681C232.605 55.3321 233.389 54.9801 234.317 54.9801ZM244.198 62.4041C246.742 62.4041 248.598 60.5001 248.598 58.0041C248.598 55.4761 246.742 53.6041 244.198 53.6041C241.654 53.6041 239.798 55.4761 239.798 58.0041C239.798 60.5001 241.654 62.4041 244.198 62.4041ZM244.198 60.9961C242.534 60.9961 241.286 59.7161 241.286 58.0041C241.286 56.2601 242.534 55.0121 244.198 55.0121C245.878 55.0121 247.11 56.2601 247.11 58.0041C247.11 59.7321 245.878 60.9961 244.198 60.9961ZM255.441 57.0921V57.8601C255.057 57.7161 254.401 57.5561 253.569 57.5561C251.393 57.5561 249.985 58.6441 249.985 60.1321C249.985 61.5401 250.961 62.4041 252.673 62.4041C253.937 62.4041 254.929 61.7801 255.537 61.1241V62.2441H256.945V57.0761C256.945 54.5481 255.345 53.6041 253.505 53.6041C251.937 53.6041 250.641 54.3401 250.081 54.9161V56.4681C250.801 55.7321 251.985 55.0921 253.312 55.0921C254.449 55.0921 255.441 55.6521 255.441 57.0921ZM251.393 60.0681C251.393 59.1881 252.257 58.5961 253.937 58.5961C254.481 58.5961 255.057 58.6921 255.441 58.8041V60.2441C254.785 60.7881 253.873 61.2361 252.913 61.2361C252.065 61.2361 251.393 60.9001 251.393 60.0681ZM259.104 53.7641V62.2441H260.608V55.9401C261.184 55.5081 262.064 55.0441 262.896 55.0441C263.504 55.0441 264 55.2201 264.368 55.4441V53.8601C264.064 53.7001 263.712 53.6041 263.344 53.6041C262.208 53.6041 261.168 54.3241 260.512 54.9801V53.7641H259.104ZM271.729 62.2441H273.137V50.9961L271.633 51.2361V53.8121C271.153 53.7001 270.625 53.6041 269.937 53.6041C267.521 53.6041 265.361 55.1081 265.361 58.2281C265.361 61.0441 267.105 62.4041 269.089 62.4041C270.273 62.4041 271.169 61.9561 271.729 61.4921V62.2441ZM270.017 54.9481C270.689 54.9481 271.201 55.0761 271.633 55.2201V60.3721C271.169 60.6921 270.385 61.0601 269.489 61.0601C267.921 61.0601 266.897 60.0041 266.897 58.1321C266.897 55.9561 268.257 54.9481 270.017 54.9481ZM275.818 62.5641L281.194 50.4041H279.866L274.49 62.5641H275.818ZM289.63 61.6521V60.3241C289.006 60.6761 287.838 60.9801 286.702 60.9801C284.926 60.9801 283.774 60.1641 283.662 58.4681H289.806V57.7641C289.806 55.1241 288.478 53.5881 286.158 53.5881C283.79 53.5881 282.142 55.2361 282.142 58.0041C282.142 60.8841 283.966 62.4041 286.558 62.4041C287.726 62.4041 289.022 62.1001 289.63 61.6521ZM286.078 54.8841C287.566 54.8841 288.302 55.8441 288.334 57.4441H283.646C283.726 55.8281 284.67 54.8841 286.078 54.8841ZM297.138 62.2441H298.866L295.842 57.9401L298.834 53.7641H297.122L294.802 57.1241L292.482 53.7641H290.754L293.762 57.9561L290.738 62.2441H292.45L294.802 58.7401L297.138 62.2441ZM303.413 62.4041C305.845 62.4041 308.005 60.9001 308.005 57.7801C308.005 54.9641 306.261 53.6041 304.277 53.6041C303.093 53.6041 302.197 54.0521 301.637 54.5161V53.7641H300.229V64.7721H301.733V62.1961C302.213 62.3241 302.725 62.4041 303.413 62.4041ZM303.861 54.9481C305.413 54.9481 306.453 56.0041 306.453 57.8761C306.453 60.0521 305.109 61.0601 303.349 61.0601C302.677 61.0601 302.165 60.9321 301.733 60.7881V55.6521C302.213 55.3161 302.949 54.9481 303.861 54.9481ZM316.927 61.6521V60.3241C316.303 60.6761 315.135 60.9801 313.999 60.9801C312.223 60.9801 311.071 60.1641 310.959 58.4681H317.103V57.7641C317.103 55.1241 315.775 53.5881 313.455 53.5881C311.087 53.5881 309.439 55.2361 309.439 58.0041C309.439 60.8841 311.263 62.4041 313.855 62.4041C315.023 62.4041 316.319 62.1001 316.927 61.6521ZM313.375 54.8841C314.863 54.8841 315.599 55.8441 315.631 57.4441H310.943C311.023 55.8281 311.967 54.8841 313.375 54.8841ZM319.011 53.7641V62.2441H320.515V55.8121C321.107 55.4601 322.067 55.0441 323.059 55.0441C324.307 55.0441 325.059 55.7481 325.059 57.1401V62.2441H326.563V56.8041C326.563 54.7241 325.491 53.6041 323.619 53.6041C322.227 53.6041 321.139 54.2441 320.419 54.8361V53.7641H319.011ZM332.537 57.6521L331.497 57.3481C330.409 57.0281 329.705 56.7721 329.705 56.0041C329.705 55.2841 330.425 54.9321 331.321 54.9321C332.521 54.9321 333.817 55.4121 334.425 55.8761V54.3721C333.833 53.9721 332.617 53.5881 331.401 53.5881C329.433 53.5881 328.249 54.6441 328.249 56.0521C328.249 57.5241 329.321 58.1481 330.585 58.4681L331.657 58.7881C332.745 59.0761 333.385 59.3161 333.385 60.0521C333.385 60.8521 332.761 61.1401 331.753 61.1401C330.441 61.1401 329.113 60.6281 328.329 60.1321V61.6041C328.969 62.0041 330.329 62.4681 331.689 62.4681C333.593 62.4681 334.809 61.6201 334.809 60.0201C334.809 58.7081 333.897 58.0361 332.537 57.6521ZM343.567 61.6521V60.3241C342.943 60.6761 341.775 60.9801 340.639 60.9801C338.863 60.9801 337.711 60.1641 337.599 58.4681H343.743V57.7641C343.743 55.1241 342.415 53.5881 340.095 53.5881C337.727 53.5881 336.079 55.2361 336.079 58.0041C336.079 60.8841 337.903 62.4041 340.495 62.4041C341.663 62.4041 342.959 62.1001 343.567 61.6521ZM340.015 54.8841C341.503 54.8841 342.239 55.8441 342.271 57.4441H337.583C337.663 55.8281 338.607 54.8841 340.015 54.8841ZM347.107 50.1481H345.283L347.283 52.6441H348.675L347.107 50.1481ZM351.822 60.4201H350.206L349.293 64.1321H350.526L351.822 60.4201ZM98.792 77.1241C99.48 76.9641 100.184 76.4361 100.184 75.4921V72.7081C100.184 72.2121 100.504 72.0361 100.856 72.0361C101.192 72.0361 101.464 72.1481 101.72 72.2921V71.0281C101.464 70.9001 101 70.7401 100.472 70.7401C99.528 70.7401 98.776 71.2841 98.776 72.3081V75.3961C98.776 76.1641 98.232 76.3401 97.592 76.4841L97.24 76.5641V77.6841L97.592 77.7641C98.232 77.9081 98.776 78.0841 98.776 78.8521V81.9561C98.776 82.9641 99.528 83.5081 100.472 83.5241C101 83.5081 101.464 83.3481 101.72 83.2201V81.9561C101.464 82.1001 101.192 82.2121 100.856 82.2281C100.504 82.2121 100.184 82.0361 100.184 81.5561V78.7561C100.184 77.8121 99.48 77.2841 98.792 77.1241ZM100.28 117.124C99.592 117.284 98.888 117.812 98.888 118.756V121.556C98.888 122.036 98.568 122.212 98.216 122.228C97.88 122.212 97.608 122.1 97.352 121.956V123.22C97.608 123.348 98.072 123.508 98.6 123.524C99.544 123.508 100.296 122.964 100.296 121.956V118.852C100.296 118.084 100.84 117.908 101.48 117.764L101.832 117.684V116.564L101.48 116.484C100.84 116.34 100.296 116.164 100.296 115.396V112.308C100.296 111.284 99.544 110.74 98.6 110.74C98.072 110.74 97.608 110.9 97.352 111.028V112.292C97.608 112.148 97.88 112.036 98.216 112.036C98.568 112.036 98.888 112.212 98.888 112.708V115.492C98.888 116.436 99.592 116.964 100.28 117.124ZM104.462 120.42H102.846L101.934 124.132H103.166L104.462 120.42ZM98.792 137.124C99.48 136.964 100.184 136.436 100.184 135.492V132.708C100.184 132.212 100.504 132.036 100.856 132.036C101.192 132.036 101.464 132.148 101.72 132.292V131.028C101.464 130.9 101 130.74 100.472 130.74C99.528 130.74 98.776 131.284 98.776 132.308V135.396C98.776 136.164 98.232 136.34 97.592 136.484L97.24 136.564V137.684L97.592 137.764C98.232 137.908 98.776 138.084 98.776 138.852V141.956C98.776 142.964 99.528 143.508 100.472 143.524C101 143.508 101.464 143.348 101.72 143.22V141.956C101.464 142.1 101.192 142.212 100.856 142.228C100.504 142.212 100.184 142.036 100.184 141.556V138.756C100.184 137.812 99.48 137.284 98.792 137.124ZM102.168 155.044C103.416 155.044 104.168 155.748 104.168 157.14V162.244H105.672V156.804C105.672 154.724 104.6 153.604 102.728 153.604C101.4 153.604 100.344 154.18 99.624 154.756V150.996L98.12 151.236V162.244H99.624V155.812C100.216 155.46 101.176 155.044 102.168 155.044ZM114.942 161.652V160.324C114.318 160.676 113.15 160.98 112.014 160.98C110.238 160.98 109.086 160.164 108.974 158.468H115.118V157.764C115.118 155.124 113.79 153.588 111.47 153.588C109.102 153.588 107.454 155.236 107.454 158.004C107.454 160.884 109.278 162.404 111.87 162.404C113.038 162.404 114.334 162.1 114.942 161.652ZM111.39 154.884C112.878 154.884 113.614 155.844 113.646 157.444H108.958C109.038 155.828 109.982 154.884 111.39 154.884ZM122.034 157.092V157.86C121.65 157.716 120.994 157.556 120.162 157.556C117.986 157.556 116.578 158.644 116.578 160.132C116.578 161.54 117.554 162.404 119.266 162.404C120.53 162.404 121.522 161.78 122.13 161.124V162.244H123.538V157.076C123.538 154.548 121.938 153.604 120.098 153.604C118.53 153.604 117.234 154.34 116.674 154.916V156.468C117.394 155.732 118.578 155.092 119.906 155.092C121.042 155.092 122.034 155.652 122.034 157.092ZM117.986 160.068C117.986 159.188 118.85 158.596 120.53 158.596C121.074 158.596 121.65 158.692 122.034 158.804V160.244C121.378 160.788 120.466 161.236 119.506 161.236C118.658 161.236 117.986 160.9 117.986 160.068ZM131.666 162.244H133.074V150.996L131.57 151.236V153.812C131.09 153.7 130.562 153.604 129.874 153.604C127.458 153.604 125.298 155.108 125.298 158.228C125.298 161.044 127.042 162.404 129.026 162.404C130.21 162.404 131.106 161.956 131.666 161.492V162.244ZM129.954 154.948C130.626 154.948 131.138 155.076 131.57 155.22V160.372C131.106 160.692 130.322 161.06 129.426 161.06C127.858 161.06 126.834 160.004 126.834 158.132C126.834 155.956 128.194 154.948 129.954 154.948ZM142.396 161.652V160.324C141.772 160.676 140.604 160.98 139.468 160.98C137.692 160.98 136.539 160.164 136.428 158.468H142.572V157.764C142.572 155.124 141.244 153.588 138.924 153.588C136.556 153.588 134.908 155.236 134.908 158.004C134.908 160.884 136.732 162.404 139.324 162.404C140.492 162.404 141.788 162.1 142.396 161.652ZM138.844 154.884C140.332 154.884 141.068 155.844 141.1 157.444H136.412C136.492 155.828 137.436 154.884 138.844 154.884ZM144.479 153.764V162.244H145.983V155.94C146.559 155.508 147.439 155.044 148.271 155.044C148.879 155.044 149.375 155.22 149.743 155.444V153.86C149.439 153.7 149.087 153.604 148.719 153.604C147.583 153.604 146.543 154.324 145.887 154.98V153.764H144.479ZM154.928 157.652L153.888 157.348C152.8 157.028 152.096 156.772 152.096 156.004C152.096 155.284 152.816 154.932 153.712 154.932C154.912 154.932 156.208 155.412 156.816 155.876V154.372C156.224 153.972 155.008 153.588 153.792 153.588C151.824 153.588 150.64 154.644 150.64 156.052C150.64 157.524 151.712 158.148 152.976 158.468L154.048 158.788C155.136 159.076 155.776 159.316 155.776 160.052C155.776 160.852 155.152 161.14 154.144 161.14C152.832 161.14 151.504 160.628 150.72 160.132V161.604C151.36 162.004 152.72 162.468 154.08 162.468C155.984 162.468 157.2 161.62 157.2 160.02C157.2 158.708 156.288 158.036 154.928 157.652ZM159.254 156.788C159.83 156.788 160.31 156.324 160.31 155.748C160.31 155.172 159.83 154.692 159.254 154.692C158.694 154.692 158.214 155.172 158.214 155.748C158.214 156.324 158.694 156.788 159.254 156.788ZM159.254 162.404C159.83 162.404 160.31 161.94 160.31 161.364C160.31 160.788 159.83 160.308 159.254 160.308C158.694 160.308 158.214 160.788 158.214 161.364C158.214 161.94 158.694 162.404 159.254 162.404ZM169.527 155.044C170.775 155.044 171.527 155.748 171.527 157.14V162.244H173.031V156.804C173.031 154.724 171.959 153.604 170.087 153.604C168.759 153.604 167.703 154.18 166.983 154.756V150.996L165.479 151.236V162.244H166.983V155.812C167.575 155.46 168.535 155.044 169.527 155.044ZM182.302 161.652V160.324C181.678 160.676 180.51 160.98 179.374 160.98C177.598 160.98 176.446 160.164 176.334 158.468H182.478V157.764C182.478 155.124 181.15 153.588 178.83 153.588C176.462 153.588 174.814 155.236 174.814 158.004C174.814 160.884 176.638 162.404 179.23 162.404C180.398 162.404 181.694 162.1 182.302 161.652ZM178.75 154.884C180.238 154.884 180.974 155.844 181.006 157.444H176.318C176.398 155.828 177.342 154.884 178.75 154.884ZM189.394 157.092V157.86C189.01 157.716 188.354 157.556 187.522 157.556C185.346 157.556 183.938 158.644 183.938 160.132C183.938 161.54 184.914 162.404 186.626 162.404C187.89 162.404 188.882 161.78 189.49 161.124V162.244H190.898V157.076C190.898 154.548 189.298 153.604 187.458 153.604C185.89 153.604 184.594 154.34 184.034 154.916V156.468C184.754 155.732 185.938 155.092 187.266 155.092C188.402 155.092 189.394 155.652 189.394 157.092ZM185.346 160.068C185.346 159.188 186.21 158.596 187.89 158.596C188.434 158.596 189.01 158.692 189.394 158.804V160.244C188.738 160.788 187.826 161.236 186.866 161.236C186.018 161.236 185.346 160.9 185.346 160.068ZM199.026 162.244H200.434V150.996L198.93 151.236V153.812C198.45 153.7 197.922 153.604 197.234 153.604C194.818 153.604 192.658 155.108 192.658 158.228C192.658 161.044 194.402 162.404 196.386 162.404C197.57 162.404 198.466 161.956 199.026 161.492V162.244ZM197.314 154.948C197.986 154.948 198.498 155.076 198.93 155.22V160.372C198.466 160.692 197.682 161.06 196.786 161.06C195.218 161.06 194.194 160.004 194.194 158.132C194.194 155.956 195.554 154.948 197.314 154.948ZM209.755 161.652V160.324C209.131 160.676 207.963 160.98 206.827 160.98C205.051 160.98 203.899 160.164 203.787 158.468H209.931V157.764C209.931 155.124 208.603 153.588 206.283 153.588C203.915 153.588 202.267 155.236 202.267 158.004C202.267 160.884 204.091 162.404 206.683 162.404C207.851 162.404 209.147 162.1 209.755 161.652ZM206.203 154.884C207.691 154.884 208.427 155.844 208.459 157.444H203.771C203.851 155.828 204.795 154.884 206.203 154.884ZM211.839 153.764V162.244H213.343V155.94C213.919 155.508 214.799 155.044 215.631 155.044C216.239 155.044 216.735 155.22 217.103 155.444V153.86C216.799 153.7 216.447 153.604 216.079 153.604C214.943 153.604 213.903 154.324 213.247 154.98V153.764H211.839ZM222.287 157.652L221.247 157.348C220.159 157.028 219.455 156.772 219.455 156.004C219.455 155.284 220.175 154.932 221.071 154.932C222.271 154.932 223.567 155.412 224.175 155.876V154.372C223.583 153.972 222.367 153.588 221.151 153.588C219.183 153.588 217.999 154.644 217.999 156.052C217.999 157.524 219.071 158.148 220.335 158.468L221.407 158.788C222.495 159.076 223.135 159.316 223.135 160.052C223.135 160.852 222.511 161.14 221.503 161.14C220.191 161.14 218.863 160.628 218.079 160.132V161.604C218.719 162.004 220.079 162.468 221.439 162.468C223.343 162.468 224.559 161.62 224.559 160.02C224.559 158.708 223.647 158.036 222.287 157.652ZM227.493 160.42H225.877L224.965 164.132H226.197L227.493 160.42ZM100.28 177.124C99.592 177.284 98.888 177.812 98.888 178.756V181.556C98.888 182.036 98.568 182.212 98.216 182.228C97.88 182.212 97.608 182.1 97.352 181.956V183.22C97.608 183.348 98.072 183.508 98.6 183.524C99.544 183.508 100.296 182.964 100.296 181.956V178.852C100.296 178.084 100.84 177.908 101.48 177.764L101.832 177.684V176.564L101.48 176.484C100.84 176.34 100.296 176.164 100.296 175.396V172.308C100.296 171.284 99.544 170.74 98.6 170.74C98.072 170.74 97.608 170.9 97.352 171.028V172.292C97.608 172.148 97.88 172.036 98.216 172.036C98.568 172.036 98.888 172.212 98.888 172.708V175.492C98.888 176.436 99.592 176.964 100.28 177.124ZM102.318 170.74C103.166 171.86 104.814 174.004 104.814 177.124C104.814 180.26 103.166 182.404 102.318 183.524H103.454C104.574 182.42 106.238 180.196 106.238 177.124C106.238 174.068 104.574 171.828 103.454 170.74H102.318ZM98.792 237.124C99.48 236.964 100.184 236.436 100.184 235.492V232.708C100.184 232.212 100.504 232.036 100.856 232.036C101.192 232.036 101.464 232.148 101.72 232.292V231.028C101.464 230.9 101 230.74 100.472 230.74C99.528 230.74 98.776 231.284 98.776 232.308V235.396C98.776 236.164 98.232 236.34 97.592 236.484L97.24 236.564V237.684L97.592 237.764C98.232 237.908 98.776 238.084 98.776 238.852V241.956C98.776 242.964 99.528 243.508 100.472 243.524C101 243.508 101.464 243.348 101.72 243.22V241.956C101.464 242.1 101.192 242.212 100.856 242.228C100.504 242.212 100.184 242.036 100.184 241.556V238.756C100.184 237.812 99.48 237.284 98.792 237.124Z" fill="#D2C5A2"/>
<path d="M104.824 94.2441C104.184 93.8121 103.272 93.5881 102.296 93.5881C99.704 93.5881 97.72 95.3481 97.72 98.0041C97.72 100.58 99.688 102.404 102.28 102.404C103.272 102.404 104.184 102.164 104.824 101.732V100.228C104.184 100.692 103.288 100.98 102.328 100.98C100.536 100.98 99.224 99.7961 99.224 98.0041C99.224 96.1641 100.536 95.0121 102.344 95.0121C103.288 95.0121 104.184 95.2841 104.824 95.7481V94.2441ZM111.597 97.0921V97.8601C111.213 97.7161 110.557 97.5561 109.725 97.5561C107.549 97.5561 106.141 98.6441 106.141 100.132C106.141 101.54 107.117 102.404 108.829 102.404C110.093 102.404 111.085 101.78 111.693 101.124V102.244H113.101V97.0761C113.101 94.5481 111.501 93.6041 109.661 93.6041C108.093 93.6041 106.797 94.3401 106.237 94.9161V96.4681C106.957 95.7321 108.141 95.0921 109.469 95.0921C110.605 95.0921 111.597 95.6521 111.597 97.0921ZM107.549 100.068C107.549 99.1881 108.413 98.5961 110.093 98.5961C110.637 98.5961 111.213 98.6921 111.597 98.8041V100.244C110.941 100.788 110.029 101.236 109.069 101.236C108.221 101.236 107.549 100.9 107.549 100.068ZM115.261 91.2361V102.244H116.765V90.9961L115.261 91.2361ZM126.083 101.652V100.324C125.459 100.676 124.291 100.98 123.155 100.98C121.379 100.98 120.227 100.164 120.115 98.4681H126.259V97.7641C126.259 95.1241 124.931 93.5881 122.611 93.5881C120.243 93.5881 118.595 95.2361 118.595 98.0041C118.595 100.884 120.419 102.404 123.011 102.404C124.179 102.404 125.475 102.1 126.083 101.652ZM122.531 94.8841C124.019 94.8841 124.755 95.8441 124.787 97.4441H120.099C120.179 95.8281 121.123 94.8841 122.531 94.8841ZM128.167 93.7641V102.244H129.671V95.8121C130.263 95.4601 131.223 95.0441 132.215 95.0441C133.463 95.0441 134.215 95.7481 134.215 97.1401V102.244H135.719V96.8041C135.719 94.7241 134.647 93.6041 132.775 93.6041C131.383 93.6041 130.295 94.2441 129.575 94.8361V93.7641H128.167ZM143.869 102.244H145.277V90.9961L143.773 91.2361V93.8121C143.293 93.7001 142.765 93.6041 142.077 93.6041C139.661 93.6041 137.501 95.1081 137.501 98.2281C137.501 101.044 139.245 102.404 141.229 102.404C142.413 102.404 143.309 101.956 143.869 101.492V102.244ZM142.157 94.9481C142.829 94.9481 143.341 95.0761 143.773 95.2201V100.372C143.309 100.692 142.525 101.06 141.629 101.06C140.061 101.06 139.037 100.004 139.037 98.1321C139.037 95.9561 140.397 94.9481 142.157 94.9481ZM154.599 101.652V100.324C153.975 100.676 152.807 100.98 151.671 100.98C149.895 100.98 148.743 100.164 148.631 98.4681H154.775V97.7641C154.775 95.1241 153.447 93.5881 151.127 93.5881C148.759 93.5881 147.111 95.2361 147.111 98.0041C147.111 100.884 148.935 102.404 151.527 102.404C152.695 102.404 153.991 102.1 154.599 101.652ZM151.047 94.8841C152.535 94.8841 153.271 95.8441 153.303 97.4441H148.615C148.695 95.8281 149.639 94.8841 151.047 94.8841ZM156.683 93.7641V102.244H158.187V95.9401C158.763 95.5081 159.643 95.0441 160.475 95.0441C161.083 95.0441 161.579 95.2201 161.947 95.4441V93.8601C161.643 93.7001 161.291 93.6041 160.923 93.6041C159.786 93.6041 158.747 94.3241 158.091 94.9801V93.7641H156.683ZM169.595 99.4761C169.595 100.356 168.939 100.948 167.387 100.948C165.851 100.948 164.139 100.292 163.115 99.5721V101.22C163.979 101.812 165.531 102.404 167.323 102.404C169.547 102.404 171.211 101.364 171.211 99.3961C171.211 97.3641 169.819 96.7721 167.979 96.2121L166.779 95.8441C165.499 95.4281 164.571 95.1081 164.571 94.0521C164.571 93.1721 165.339 92.5641 166.747 92.5641C168.219 92.5641 169.723 93.2041 170.587 93.7961V92.0841C169.915 91.6201 168.603 91.0601 166.795 91.0601C164.667 91.0601 162.907 92.1481 162.907 94.1801C162.907 96.1481 164.427 96.7881 166.011 97.2521L167.451 97.6841C168.811 98.1161 169.595 98.4841 169.595 99.4761ZM180.036 101.652V100.324C179.412 100.676 178.244 100.98 177.108 100.98C175.332 100.98 174.18 100.164 174.068 98.4681H180.212V97.7641C180.212 95.1241 178.884 93.5881 176.564 93.5881C174.196 93.5881 172.548 95.2361 172.548 98.0041C172.548 100.884 174.372 102.404 176.964 102.404C178.132 102.404 179.428 102.1 180.036 101.652ZM176.484 94.8841C177.972 94.8841 178.708 95.8441 178.74 97.4441H174.052C174.132 95.8281 175.076 94.8841 176.484 94.8841ZM182.12 91.2361V102.244H183.624V90.9961L182.12 91.2361ZM192.942 101.652V100.324C192.318 100.676 191.15 100.98 190.014 100.98C188.238 100.98 187.086 100.164 186.974 98.4681H193.118V97.7641C193.118 95.1241 191.79 93.5881 189.47 93.5881C187.102 93.5881 185.454 95.2361 185.454 98.0041C185.454 100.884 187.278 102.404 189.87 102.404C191.038 102.404 192.334 102.1 192.942 101.652ZM189.39 94.8841C190.878 94.8841 191.614 95.8441 191.646 97.4441H186.958C187.038 95.8281 187.982 94.8841 189.39 94.8841ZM201.73 94.2441C201.09 93.8121 200.178 93.5881 199.202 93.5881C196.61 93.5881 194.626 95.3481 194.626 98.0041C194.626 100.58 196.594 102.404 199.186 102.404C200.178 102.404 201.09 102.164 201.73 101.732V100.228C201.09 100.692 200.194 100.98 199.234 100.98C197.442 100.98 196.13 99.7961 196.13 98.0041C196.13 96.1641 197.442 95.0121 199.25 95.0121C200.194 95.0121 201.09 95.2841 201.73 95.7481V94.2441ZM208.551 101.876V100.58C208.167 100.82 207.543 101.044 206.871 101.044C206.007 101.044 205.495 100.66 205.495 99.6841V95.0921H208.487V93.7641H205.495V92.1641H205.143L202.695 94.7081V95.0921H203.991V99.8441C203.991 101.892 205.175 102.404 206.503 102.404C207.447 102.404 208.135 102.148 208.551 101.876ZM217.271 101.652V100.324C216.647 100.676 215.479 100.98 214.343 100.98C212.567 100.98 211.414 100.164 211.303 98.4681H217.447V97.7641C217.447 95.1241 216.119 93.5881 213.799 93.5881C211.431 93.5881 209.783 95.2361 209.783 98.0041C209.783 100.884 211.607 102.404 214.199 102.404C215.367 102.404 216.663 102.1 217.271 101.652ZM213.719 94.8841C215.207 94.8841 215.943 95.8441 215.975 97.4441H211.287C211.367 95.8281 212.311 94.8841 213.719 94.8841ZM225.322 102.244H226.73V90.9961L225.226 91.2361V93.8121C224.746 93.7001 224.218 93.6041 223.53 93.6041C221.114 93.6041 218.954 95.1081 218.954 98.2281C218.954 101.044 220.698 102.404 222.682 102.404C223.866 102.404 224.762 101.956 225.322 101.492V102.244ZM223.61 94.9481C224.282 94.9481 224.794 95.0761 225.226 95.2201V100.372C224.762 100.692 223.978 101.06 223.082 101.06C221.514 101.06 220.49 100.004 220.49 98.1321C220.49 95.9561 221.85 94.9481 223.61 94.9481ZM229.156 91.2361V102.244H230.74V97.7161H236.244V96.2281H230.74V92.7241H237.044V91.2361H229.156ZM238.683 91.2361V102.244H240.187V90.9961L238.683 91.2361ZM247.425 97.0921V97.8601C247.041 97.7161 246.385 97.5561 245.553 97.5561C243.377 97.5561 241.969 98.6441 241.969 100.132C241.969 101.54 242.945 102.404 244.657 102.404C245.921 102.404 246.913 101.78 247.521 101.124V102.244H248.929V97.0761C248.929 94.5481 247.329 93.6041 245.489 93.6041C243.921 93.6041 242.625 94.3401 242.065 94.9161V96.4681C242.785 95.7321 243.969 95.0921 245.297 95.0921C246.433 95.0921 247.425 95.6521 247.425 97.0921ZM243.377 100.068C243.377 99.1881 244.241 98.5961 245.921 98.5961C246.465 98.5961 247.041 98.6921 247.425 98.8041V100.244C246.769 100.788 245.857 101.236 244.897 101.236C244.049 101.236 243.377 100.9 243.377 100.068ZM258.401 100.916V94.3081C257.617 93.9881 256.577 93.6041 255.185 93.6041C252.753 93.6041 250.689 95.0761 250.689 97.9721C250.689 100.276 252.177 101.636 254.305 101.636C255.457 101.636 256.337 101.172 256.897 100.74V101.108C256.897 102.66 255.985 103.524 254.241 103.524C252.977 103.524 251.921 103.044 251.153 102.516V104.052C251.857 104.484 253.009 104.932 254.385 104.932C256.593 104.932 258.401 103.78 258.401 100.916ZM252.225 97.7961C252.225 95.9401 253.457 94.9481 255.169 94.9481C255.889 94.9481 256.433 95.0921 256.897 95.2681V99.5401C256.401 99.8921 255.601 100.276 254.673 100.276C253.249 100.276 252.225 99.4601 252.225 97.7961ZM261.004 96.7881C261.58 96.7881 262.06 96.3241 262.06 95.7481C262.06 95.1721 261.58 94.6921 261.004 94.6921C260.444 94.6921 259.964 95.1721 259.964 95.7481C259.964 96.3241 260.444 96.7881 261.004 96.7881ZM261.004 102.404C261.58 102.404 262.06 101.94 262.06 101.364C262.06 100.788 261.58 100.308 261.004 100.308C260.444 100.308 259.964 100.788 259.964 101.364C259.964 101.94 260.444 102.404 261.004 102.404ZM267.021 91.2361L266.477 92.6281H268.493V102.244H270.029V91.2361H267.021ZM273.775 100.42H272.159L271.247 104.132H272.479L273.775 100.42ZM278.854 93.7641V102.244H280.358V95.8281C280.934 95.4761 281.814 95.0441 282.742 95.0441C283.878 95.0441 284.582 95.7321 284.582 97.0761V102.244H286.086V96.6601C286.086 96.3721 286.07 96.0841 286.022 95.8281C286.63 95.4601 287.526 95.0441 288.47 95.0441C289.622 95.0441 290.326 95.7321 290.326 97.0761V102.244H291.814V96.7401C291.814 94.7081 290.806 93.6041 289.046 93.6041C287.574 93.6041 286.486 94.3241 285.75 94.9801C285.318 94.0841 284.486 93.6041 283.302 93.6041C281.974 93.6041 280.95 94.2441 280.262 94.8361V93.7641H278.854ZM297.995 102.404C300.539 102.404 302.395 100.5 302.395 98.0041C302.395 95.4761 300.539 93.6041 297.995 93.6041C295.451 93.6041 293.595 95.4761 293.595 98.0041C293.595 100.5 295.451 102.404 297.995 102.404ZM297.995 100.996C296.331 100.996 295.083 99.7161 295.083 98.0041C295.083 96.2601 296.331 95.0121 297.995 95.0121C299.675 95.0121 300.907 96.2601 300.907 98.0041C300.907 99.7321 299.675 100.996 297.995 100.996ZM304.229 93.7641V102.244H305.733V95.8121C306.325 95.4601 307.285 95.0441 308.277 95.0441C309.525 95.0441 310.277 95.7481 310.277 97.1401V102.244H311.781V96.8041C311.781 94.7241 310.709 93.6041 308.837 93.6041C307.445 93.6041 306.357 94.2441 305.637 94.8361V93.7641H304.229ZM319.02 101.876V100.58C318.636 100.82 318.012 101.044 317.34 101.044C316.476 101.044 315.964 100.66 315.964 99.6841V95.0921H318.956V93.7641H315.964V92.1641H315.612L313.164 94.7081V95.0921H314.46V99.8441C314.46 101.892 315.644 102.404 316.972 102.404C317.916 102.404 318.604 102.148 319.02 101.876ZM324.699 95.0441C325.947 95.0441 326.699 95.7481 326.699 97.1401V102.244H328.203V96.8041C328.203 94.7241 327.131 93.6041 325.259 93.6041C323.931 93.6041 322.875 94.1801 322.155 94.7561V90.9961L320.651 91.2361V102.244H322.155V95.8121C322.747 95.4601 323.707 95.0441 324.699 95.0441ZM330.77 96.7881C331.346 96.7881 331.826 96.3241 331.826 95.7481C331.826 95.1721 331.346 94.6921 330.77 94.6921C330.21 94.6921 329.73 95.1721 329.73 95.7481C329.73 96.3241 330.21 96.7881 330.77 96.7881ZM330.77 102.404C331.346 102.404 331.826 101.94 331.826 101.364C331.826 100.788 331.346 100.308 330.77 100.308C330.21 100.308 329.73 100.788 329.73 101.364C329.73 101.94 330.21 102.404 330.77 102.404ZM336.339 99.7161V101.3C337.091 101.844 338.371 102.404 340.003 102.404C342.803 102.404 344.275 100.852 344.275 99.0121C344.275 97.0921 342.867 95.8281 340.659 95.8281H339.699L343.827 92.6761V91.2361H336.643V92.6441H341.731L337.811 95.9881V96.9801H340.195C341.795 96.9801 342.707 97.7321 342.707 98.9321C342.707 100.116 341.747 100.996 339.843 100.996C338.323 100.996 336.995 100.292 336.339 99.7161ZM347.275 100.42H345.659L344.747 104.132H345.979L347.275 100.42ZM353.618 104.932C354.738 104.932 355.65 104.34 356.29 102.852L360.29 93.7641H358.626L355.938 100.324L353.17 93.7641H351.49L355.234 102.004L354.946 102.628C354.674 103.204 354.178 103.556 353.538 103.556C352.658 103.556 351.97 103.044 351.666 102.724V104.212C352.002 104.516 352.706 104.932 353.618 104.932ZM368.521 101.652V100.324C367.897 100.676 366.729 100.98 365.593 100.98C363.817 100.98 362.664 100.164 362.553 98.4681H368.697V97.7641C368.697 95.1241 367.369 93.5881 365.049 93.5881C362.681 93.5881 361.033 95.2361 361.033 98.0041C361.033 100.884 362.857 102.404 365.449 102.404C366.617 102.404 367.913 102.1 368.521 101.652ZM364.969 94.8841C366.457 94.8841 367.193 95.8441 367.225 97.4441H362.537C362.617 95.8281 363.561 94.8841 364.969 94.8841ZM375.612 97.0921V97.8601C375.228 97.7161 374.572 97.5561 373.74 97.5561C371.564 97.5561 370.156 98.6441 370.156 100.132C370.156 101.54 371.132 102.404 372.844 102.404C374.108 102.404 375.1 101.78 375.708 101.124V102.244H377.116V97.0761C377.116 94.5481 375.516 93.6041 373.676 93.6041C372.108 93.6041 370.812 94.3401 370.252 94.9161V96.4681C370.972 95.7321 372.156 95.0921 373.484 95.0921C374.62 95.0921 375.612 95.6521 375.612 97.0921ZM371.564 100.068C371.564 99.1881 372.428 98.5961 374.108 98.5961C374.652 98.5961 375.228 98.6921 375.612 98.8041V100.244C374.956 100.788 374.044 101.236 373.084 101.236C372.236 101.236 371.564 100.9 371.564 100.068ZM379.276 93.7641V102.244H380.78V95.9401C381.356 95.5081 382.236 95.0441 383.068 95.0441C383.676 95.0441 384.172 95.2201 384.54 95.4441V93.8601C384.236 93.7001 383.884 93.6041 383.516 93.6041C382.38 93.6041 381.34 94.3241 380.684 94.9801V93.7641H379.276ZM386.317 96.7881C386.893 96.7881 387.373 96.3241 387.373 95.7481C387.373 95.1721 386.893 94.6921 386.317 94.6921C385.757 94.6921 385.277 95.1721 385.277 95.7481C385.277 96.3241 385.757 96.7881 386.317 96.7881ZM386.317 102.404C386.893 102.404 387.373 101.94 387.373 101.364C387.373 100.788 386.893 100.308 386.317 100.308C385.757 100.308 385.277 100.788 385.277 101.364C385.277 101.94 385.757 102.404 386.317 102.404ZM396.18 102.244V100.836H390.42L393.764 97.7321C394.98 96.6121 396.052 95.6041 396.052 94.0361C396.052 92.2121 394.692 91.0761 392.692 91.0761C390.836 91.0761 389.396 92.0361 388.788 92.5481V94.1801C389.556 93.4761 390.964 92.5001 392.564 92.5001C393.796 92.5001 394.468 93.1561 394.468 94.1161C394.468 95.0761 393.828 95.7641 392.692 96.8681L388.404 101.076V102.244H396.18ZM402.506 102.404C404.954 102.404 407.002 100.66 407.002 96.7401C407.002 92.8361 404.954 91.0761 402.506 91.0761C400.074 91.0761 398.026 92.8361 398.026 96.7401C398.026 100.66 400.074 102.404 402.506 102.404ZM402.506 100.916C400.826 100.916 399.642 99.5401 399.642 96.7401C399.642 93.9561 400.826 92.5641 402.506 92.5641C404.186 92.5641 405.386 93.9561 405.386 96.7401C405.386 99.5401 404.186 100.916 402.506 100.916ZM416.461 102.244V100.836H410.701L414.045 97.7321C415.261 96.6121 416.333 95.6041 416.333 94.0361C416.333 92.2121 414.973 91.0761 412.973 91.0761C411.117 91.0761 409.677 92.0361 409.069 92.5481V94.1801C409.837 93.4761 411.245 92.5001 412.845 92.5001C414.077 92.5001 414.749 93.1561 414.749 94.1161C414.749 95.0761 414.109 95.7641 412.973 96.8681L408.685 101.076V102.244H416.461ZM425.524 102.244V100.836H419.764L423.108 97.7321C424.324 96.6121 425.396 95.6041 425.396 94.0361C425.396 92.2121 424.036 91.0761 422.036 91.0761C420.18 91.0761 418.74 92.0361 418.132 92.5481V94.1801C418.9 93.4761 420.308 92.5001 421.908 92.5001C423.14 92.5001 423.812 93.1561 423.812 94.1161C423.812 95.0761 423.172 95.7641 422.036 96.8681L417.748 101.076V102.244H425.524ZM98.504 202.404C99.08 202.404 99.56 201.94 99.56 201.364C99.56 200.788 99.08 200.308 98.504 200.308C97.944 200.308 97.464 200.788 97.464 201.364C97.464 201.94 97.944 202.404 98.504 202.404ZM106.207 201.876V200.58C105.823 200.82 105.199 201.044 104.527 201.044C103.663 201.044 103.151 200.66 103.151 199.684V195.092H106.143V193.764H103.151V192.164H102.799L100.351 194.708V195.092H101.647V199.844C101.647 201.892 102.831 202.404 104.159 202.404C105.103 202.404 105.791 202.148 106.207 201.876ZM111.887 195.044C113.135 195.044 113.887 195.748 113.887 197.14V202.244H115.391V196.804C115.391 194.724 114.319 193.604 112.447 193.604C111.119 193.604 110.063 194.18 109.343 194.756V190.996L107.839 191.236V202.244H109.343V195.812C109.935 195.46 110.895 195.044 111.887 195.044ZM124.661 201.652V200.324C124.037 200.676 122.869 200.98 121.733 200.98C119.957 200.98 118.805 200.164 118.693 198.468H124.837V197.764C124.837 195.124 123.509 193.588 121.189 193.588C118.821 193.588 117.173 195.236 117.173 198.004C117.173 200.884 118.997 202.404 121.589 202.404C122.757 202.404 124.053 202.1 124.661 201.652ZM121.109 194.884C122.597 194.884 123.333 195.844 123.365 197.444H118.677C118.757 195.828 119.701 194.884 121.109 194.884ZM126.745 193.764V202.244H128.249V195.812C128.841 195.46 129.801 195.044 130.793 195.044C132.041 195.044 132.793 195.748 132.793 197.14V202.244H134.297V196.804C134.297 194.724 133.225 193.604 131.353 193.604C129.961 193.604 128.873 194.244 128.153 194.836V193.764H126.745ZM101.56 210.74H100.408C99.288 211.828 97.64 214.068 97.64 217.124C97.64 220.196 99.288 222.42 100.408 223.524H101.56C100.712 222.404 99.048 220.26 99.048 217.124C99.048 214.004 100.712 211.86 101.56 210.74ZM106.341 210.74H105.189C104.069 211.828 102.421 214.068 102.421 217.124C102.421 220.196 104.069 222.42 105.189 223.524H106.341C105.493 222.404 103.829 220.26 103.829 217.124C103.829 214.004 105.493 211.86 106.341 210.74ZM107.683 213.764V222.244H109.187V215.94C109.763 215.508 110.643 215.044 111.475 215.044C112.083 215.044 112.579 215.22 112.947 215.444V213.86C112.643 213.7 112.291 213.604 111.923 213.604C110.786 213.604 109.747 214.324 109.091 214.98V213.764H107.683ZM121.427 221.652V220.324C120.803 220.676 119.635 220.98 118.499 220.98C116.723 220.98 115.571 220.164 115.459 218.468H121.603V217.764C121.603 215.124 120.275 213.588 117.955 213.588C115.587 213.588 113.939 215.236 113.939 218.004C113.939 220.884 115.763 222.404 118.355 222.404C119.523 222.404 120.819 222.1 121.427 221.652ZM117.875 214.884C119.363 214.884 120.099 215.844 120.131 217.444H115.443C115.523 215.828 116.467 214.884 117.875 214.884ZM127.303 217.652L126.263 217.348C125.175 217.028 124.471 216.772 124.471 216.004C124.471 215.284 125.191 214.932 126.087 214.932C127.287 214.932 128.583 215.412 129.191 215.876V214.372C128.599 213.972 127.383 213.588 126.167 213.588C124.199 213.588 123.015 214.644 123.015 216.052C123.015 217.524 124.087 218.148 125.351 218.468L126.423 218.788C127.511 219.076 128.151 219.316 128.151 220.052C128.151 220.852 127.527 221.14 126.519 221.14C125.207 221.14 123.879 220.628 123.095 220.132V221.604C123.735 222.004 125.095 222.468 126.455 222.468C128.359 222.468 129.575 221.62 129.575 220.02C129.575 218.708 128.663 218.036 127.303 217.652ZM134.429 222.404C136.861 222.404 139.021 220.9 139.021 217.78C139.021 214.964 137.277 213.604 135.293 213.604C134.109 213.604 133.213 214.052 132.653 214.516V213.764H131.245V224.772H132.749V222.196C133.229 222.324 133.741 222.404 134.429 222.404ZM134.877 214.948C136.429 214.948 137.469 216.004 137.469 217.876C137.469 220.052 136.125 221.06 134.365 221.06C133.693 221.06 133.181 220.932 132.749 220.788V215.652C133.229 215.316 133.965 214.948 134.877 214.948ZM144.854 222.404C147.398 222.404 149.254 220.5 149.254 218.004C149.254 215.476 147.398 213.604 144.854 213.604C142.31 213.604 140.454 215.476 140.454 218.004C140.454 220.5 142.31 222.404 144.854 222.404ZM144.854 220.996C143.19 220.996 141.942 219.716 141.942 218.004C141.942 216.26 143.19 215.012 144.854 215.012C146.534 215.012 147.766 216.26 147.766 218.004C147.766 219.732 146.534 220.996 144.854 220.996ZM151.089 213.764V222.244H152.593V215.812C153.185 215.46 154.145 215.044 155.137 215.044C156.385 215.044 157.137 215.748 157.137 217.14V222.244H158.641V216.804C158.641 214.724 157.569 213.604 155.697 213.604C154.305 213.604 153.217 214.244 152.497 214.836V213.764H151.089ZM164.615 217.652L163.575 217.348C162.487 217.028 161.783 216.772 161.783 216.004C161.783 215.284 162.503 214.932 163.399 214.932C164.599 214.932 165.895 215.412 166.503 215.876V214.372C165.911 213.972 164.695 213.588 163.479 213.588C161.511 213.588 160.327 214.644 160.327 216.052C160.327 217.524 161.399 218.148 162.663 218.468L163.735 218.788C164.823 219.076 165.463 219.316 165.463 220.052C165.463 220.852 164.839 221.14 163.831 221.14C162.519 221.14 161.191 220.628 160.407 220.132V221.604C161.047 222.004 162.407 222.468 163.767 222.468C165.671 222.468 166.887 221.62 166.887 220.02C166.887 218.708 165.975 218.036 164.615 217.652ZM175.646 221.652V220.324C175.022 220.676 173.854 220.98 172.718 220.98C170.942 220.98 169.789 220.164 169.678 218.468H175.822V217.764C175.822 215.124 174.494 213.588 172.174 213.588C169.806 213.588 168.158 215.236 168.158 218.004C168.158 220.884 169.982 222.404 172.574 222.404C173.742 222.404 175.038 222.1 175.646 221.652ZM172.094 214.884C173.582 214.884 174.318 215.844 174.35 217.444H169.662C169.742 215.828 170.686 214.884 172.094 214.884ZM176.849 210.74C177.697 211.86 179.345 214.004 179.345 217.124C179.345 220.26 177.697 222.404 176.849 223.524H177.985C179.105 222.42 180.769 220.196 180.769 217.124C180.769 214.068 179.105 211.828 177.985 210.74H176.849ZM185.769 215.972H192.329V214.612H185.769V215.972ZM185.769 218.868H192.329V217.492H185.769V218.868ZM193.925 218.964V220.452L200.485 217.364V216.084L193.925 212.996V214.5L198.853 216.724L193.925 218.964Z" fill="#74EB95"/>
</g>
<g filter="url(#filter2_d_612_768)">
<path d="M57.9273 51.2361L57.4953 52.1801H59.4633V62.2441H60.5033V51.2361H57.9273ZM61.2683 82.2441V81.2841H55.1243L58.8043 77.8121C60.1003 76.6121 61.1723 75.5721 61.1723 74.0041C61.1723 72.1481 59.8283 71.0761 57.9243 71.0761C56.0363 71.0761 54.6443 72.1161 54.1003 72.6121V73.7481C54.7883 73.0921 56.1323 72.0361 57.8602 72.0361C59.3003 72.0361 60.1003 72.8841 60.1003 74.0521C60.1003 75.2361 59.3323 76.0041 58.0843 77.2201L53.7483 81.4441V82.2441H61.2683ZM53.7765 100.212V101.3C54.4805 101.844 55.6805 102.404 57.2325 102.404C59.8885 102.404 61.3125 100.868 61.3125 99.0601C61.3125 97.2041 60.0005 95.8281 57.6965 95.8281H56.4805L60.8965 92.2121V91.2361H54.1125V92.1961H59.4885L55.1365 95.9881V96.6601H57.4565C59.2485 96.6601 60.2405 97.6521 60.2405 99.0121C60.2405 100.372 59.1845 101.444 57.1525 101.444C55.6165 101.444 54.4165 100.772 53.7765 100.212ZM58.3461 111.236L52.0261 118.9V119.7H58.3461V122.244H59.4021V119.7H61.6101V118.756H59.4021V111.236H58.3461ZM53.2581 118.756L58.3461 112.612V118.756H53.2581ZM54.5934 131.236L54.0014 136.532H56.9134C58.7054 136.532 60.2574 137.204 60.2574 139.076C60.2574 140.788 58.8494 141.444 57.3454 141.444C55.7454 141.444 54.3214 140.676 53.5214 140.02V141.124C54.1614 141.62 55.5374 142.404 57.4094 142.404C59.4094 142.404 61.3134 141.428 61.3134 139.076C61.3134 136.564 59.3934 135.588 57.1214 135.588H55.1054L55.4894 132.196H60.6094V131.236H54.5934ZM61.2145 158.564C61.2145 156.26 59.5345 154.948 57.5185 154.948C56.0465 154.948 54.9425 155.572 54.2705 156.308C55.1185 153.876 57.6145 151.94 58.8625 151.236H57.3265C55.7265 152.148 52.9425 154.772 52.9425 157.94C52.9425 160.916 54.7345 162.404 57.1345 162.404C59.5025 162.404 61.2145 160.932 61.2145 158.564ZM54.0145 157.972C54.0145 157.732 54.0465 157.508 54.0945 157.268C54.8465 156.468 55.9185 155.844 57.3425 155.844C58.8785 155.844 60.1585 156.788 60.1585 158.58C60.1585 160.388 58.9105 161.444 57.1665 161.444C55.4065 161.444 54.0145 160.372 54.0145 157.972ZM56.2155 182.244L61.6875 172.116V171.236H53.9915V172.196H60.5515L55.0315 182.244H56.2155ZM57.0686 202.404C59.7406 202.404 61.2286 200.964 61.2286 199.188C61.2286 197.892 60.4446 196.788 58.9726 196.276C60.0926 195.844 60.7166 194.948 60.7166 193.924C60.7166 192.292 59.3406 191.076 57.0686 191.076C54.8286 191.076 53.4526 192.276 53.4526 193.892C53.4526 194.916 54.0606 195.828 55.1966 196.276C53.6926 196.788 52.9246 197.892 52.9246 199.204C52.9246 200.964 54.4126 202.404 57.0686 202.404ZM54.4766 193.94C54.4766 192.756 55.5006 191.988 57.0686 191.988C58.6526 191.988 59.6766 192.772 59.6766 193.94C59.6766 195.14 58.6526 195.924 57.0686 195.924C55.5006 195.924 54.4766 195.124 54.4766 193.94ZM53.9646 199.14C53.9646 197.716 55.1486 196.708 57.0686 196.708C58.9886 196.708 60.1726 197.7 60.1726 199.124C60.1726 200.5 58.9886 201.492 57.0686 201.492C55.1486 201.492 53.9646 200.5 53.9646 199.14ZM61.1021 215.54C61.1021 212.564 59.3101 211.076 56.9261 211.076C54.5421 211.076 52.8461 212.548 52.8461 214.916C52.8461 217.22 54.5261 218.532 56.5421 218.532C58.0141 218.532 59.1181 217.908 59.7901 217.188C58.9421 219.62 56.4621 221.54 55.1981 222.244H56.7181C58.3341 221.332 61.1021 218.708 61.1021 215.54ZM53.9021 214.9C53.9021 213.092 55.1501 212.036 56.8941 212.036C58.6541 212.036 60.0461 213.108 60.0461 215.508C60.0461 215.732 60.0301 215.956 59.9821 216.18C59.2461 216.996 58.1581 217.636 56.7181 217.636C55.1821 217.636 53.9021 216.692 53.9021 214.9ZM46.7866 231.236L46.3546 232.18H48.3226V242.244H49.3626V231.236H46.7866ZM56.4274 242.404C58.7794 242.404 60.8114 240.66 60.8114 236.74C60.8114 232.836 58.7794 231.076 56.4274 231.076C54.0594 231.076 52.0434 232.836 52.0434 236.74C52.0434 240.66 54.0594 242.404 56.4274 242.404ZM56.4274 241.412C54.5714 241.412 53.1314 239.876 53.1314 236.74C53.1314 233.62 54.5714 232.084 56.4274 232.084C58.2834 232.084 59.7234 233.62 59.7234 236.74C59.7234 239.876 58.2834 241.412 56.4274 241.412Z" fill="#4C4786"/>
</g>
<defs>
<filter id="filter0_d_612_768" x="0" y="0" width="560" height="288" filterUnits="userSpaceOnUse" color-interpolation-filters="sRGB">
<feFlood flood-opacity="0" result="BackgroundImageFix"/>
<feColorMatrix in="SourceAlpha" type="matrix" values="0 0 0 0 0 0 0 0 0 0 0 0 0 0 0 0 0 0 127 0" result="hardAlpha"/>
<feOffset dy="4"/>
<feGaussianBlur stdDeviation="2"/>
<feComposite in2="hardAlpha" operator="out"/>
<feColorMatrix type="matrix" values="0 0 0 0 0 0 0 0 0 0 0 0 0 0 0 0 0 0 0.25 0"/>
<feBlend mode="normal" in2="BackgroundImageFix" result="effect1_dropShadow_612_768"/>
<feBlend mode="normal" in="SourceGraphic" in2="effect1_dropShadow_612_768" result="shape"/>
</filter>
<filter id="filter1_d_612_768" x="93.24" y="50.1482" width="336.284" height="201.376" filterUnits="userSpaceOnUse" color-interpolation-filters="sRGB">
<feFlood flood-opacity="0" result="BackgroundImageFix"/>
<feColorMatrix in="SourceAlpha" type="matrix" values="0 0 0 0 0 0 0 0 0 0 0 0 0 0 0 0 0 0 127 0" result="hardAlpha"/>
<feOffset dy="4"/>
<feGaussianBlur stdDeviation="2"/>
<feComposite in2="hardAlpha" operator="out"/>
<feColorMatrix type="matrix" values="0 0 0 0 0 0 0 0 0 0 0 0 0 0 0 0 0 0 0.25 0"/>
<feBlend mode="normal" in2="BackgroundImageFix" result="effect1_dropShadow_612_768"/>
<feBlend mode="normal" in="SourceGraphic" in2="effect1_dropShadow_612_768" result="shape"/>
</filter>
<filter id="filter2_d_612_768" x="42.3546" y="51.2361" width="23.3329" height="199.168" filterUnits="userSpaceOnUse" color-interpolation-filters="sRGB">
<feFlood flood-opacity="0" result="BackgroundImageFix"/>
<feColorMatrix in="SourceAlpha" type="matrix" values="0 0 0 0 0 0 0 0 0 0 0 0 0 0 0 0 0 0 127 0" result="hardAlpha"/>
<feOffset dy="4"/>
<feGaussianBlur stdDeviation="2"/>
<feComposite in2="hardAlpha" operator="out"/>
<feColorMatrix type="matrix" values="0 0 0 0 0 0 0 0 0 0 0 0 0 0 0 0 0 0 0.25 0"/>
<feBlend mode="normal" in2="BackgroundImageFix" result="effect1_dropShadow_612_768"/>
<feBlend mode="normal" in="SourceGraphic" in2="effect1_dropShadow_612_768" result="shape"/>
</filter>
<linearGradient id="paint0_linear_612_768" x1="280" y1="0" x2="280" y2="280" gradientUnits="userSpaceOnUse">
<stop stop-color="#1F195A"/>
<stop offset="1" stop-opacity="0"/>
</linearGradient>
</defs>
</svg>
