<svg width="373" height="161" viewBox="0 0 373 161" fill="none" xmlns="http://www.w3.org/2000/svg">
<g id="Group 127">
<rect id="Rectangle 366" x="0.683724" y="0.331734" width="342.264" height="159.566" rx="4.28753" fill="white" fill-opacity="0.88" stroke="url(#paint0_linear_612_516)" stroke-width="0.571671"/>
<g id="Group 117">
<g id="Group 128">
<path id="What time of the day customers tend to engage" d="M12.3325 21.3501H13.5124L15.1314 16.1456L16.7504 21.3501H17.9303L19.6041 15.0571H18.534L17.3266 20.3623L15.6528 15.0571H14.61L12.9362 20.3714L11.7197 15.0571H10.6495L12.3325 21.3501ZM22.7374 17.2341C23.4508 17.2341 23.8807 17.6365 23.8807 18.4323V21.3501H24.7405V18.2402C24.7405 17.0511 24.1277 16.4109 23.0575 16.4109C22.2984 16.4109 21.6947 16.7401 21.2831 17.0694V14.9199L20.4233 15.0571V21.3501H21.2831V17.6731C21.6215 17.4719 22.1703 17.2341 22.7374 17.2341ZM28.8511 18.4048V18.8439C28.6315 18.7616 28.2565 18.6701 27.7809 18.6701C26.5369 18.6701 25.732 19.2921 25.732 20.1427C25.732 20.9476 26.29 21.4416 27.2687 21.4416C27.9913 21.4416 28.5584 21.0848 28.9059 20.7098V21.3501H29.7109V18.3957C29.7109 16.9505 28.7962 16.4109 27.7443 16.4109C26.8479 16.4109 26.107 16.8316 25.7869 17.1609V18.0481C26.1985 17.6274 26.8754 17.2615 27.6345 17.2615C28.284 17.2615 28.8511 17.5816 28.8511 18.4048ZM26.5369 20.1061C26.5369 19.6031 27.0309 19.2646 27.9913 19.2646C28.3023 19.2646 28.6315 19.3195 28.8511 19.3835V20.2068C28.476 20.5177 27.9547 20.7739 27.4059 20.7739C26.9211 20.7739 26.5369 20.5818 26.5369 20.1061ZM33.836 21.1397V20.3988C33.6164 20.536 33.2597 20.6641 32.8756 20.6641C32.3816 20.6641 32.0889 20.4446 32.0889 19.8866V17.2615H33.7994V16.5023H32.0889V15.5877H31.8877L30.4883 17.042V17.2615H31.2291V19.9781C31.2291 21.1489 31.906 21.4416 32.6652 21.4416C33.2048 21.4416 33.5982 21.2952 33.836 21.1397ZM39.7045 21.1397V20.3988C39.485 20.536 39.1283 20.6641 38.7441 20.6641C38.2502 20.6641 37.9575 20.4446 37.9575 19.8866V17.2615H39.6679V16.5023H37.9575V15.5877H37.7563L36.3568 17.042V17.2615H37.0977V19.9781C37.0977 21.1489 37.7746 21.4416 38.5337 21.4416C39.0734 21.4416 39.4667 21.2952 39.7045 21.1397ZM41.0945 15.8255C41.4696 15.8255 41.7074 15.6242 41.7074 15.3224C41.7074 15.0114 41.4696 14.8102 41.0945 14.8102C40.7195 14.8102 40.4726 15.0114 40.4726 15.3224C40.4726 15.6242 40.7195 15.8255 41.0945 15.8255ZM40.6555 16.5023V21.3501H41.5153V16.5023H40.6555ZM42.8256 16.5023V21.3501H43.6854V17.6823C44.0147 17.481 44.5178 17.2341 45.0483 17.2341C45.6977 17.2341 46.1002 17.6274 46.1002 18.3957V21.3501H46.96V18.1579C46.96 17.9932 46.9508 17.8286 46.9234 17.6823C47.271 17.4719 47.7832 17.2341 48.3228 17.2341C48.9814 17.2341 49.3838 17.6274 49.3838 18.3957V21.3501H50.2345V18.2036C50.2345 17.042 49.6582 16.4109 48.6521 16.4109C47.8106 16.4109 47.1886 16.8225 46.7679 17.1975C46.5209 16.6853 46.0453 16.4109 45.3684 16.4109C44.6092 16.4109 44.0239 16.7767 43.6305 17.1152V16.5023H42.8256ZM55.5331 21.0117V20.2525C55.1764 20.4537 54.5087 20.6275 53.8592 20.6275C52.844 20.6275 52.1854 20.161 52.1214 19.1915H55.6337V18.789C55.6337 17.2798 54.8745 16.4017 53.5483 16.4017C52.1945 16.4017 51.2524 17.3438 51.2524 18.9262C51.2524 20.5726 52.2952 21.4416 53.7769 21.4416C54.4446 21.4416 55.1855 21.2678 55.5331 21.0117ZM53.5025 17.1426C54.3532 17.1426 54.7739 17.6914 54.7922 18.6061H52.1122C52.158 17.6823 52.6976 17.1426 53.5025 17.1426ZM61.0566 21.4416C62.5109 21.4416 63.5719 20.3531 63.5719 18.9262C63.5719 17.481 62.5109 16.4109 61.0566 16.4109C59.6023 16.4109 58.5412 17.481 58.5412 18.9262C58.5412 20.3531 59.6023 21.4416 61.0566 21.4416ZM61.0566 20.6367C60.1053 20.6367 59.3919 19.9049 59.3919 18.9262C59.3919 17.9292 60.1053 17.2158 61.0566 17.2158C62.017 17.2158 62.7213 17.9292 62.7213 18.9262C62.7213 19.9141 62.017 20.6367 61.0566 20.6367ZM64.1998 17.2615H64.9041V21.3501H65.7639V17.2615H67.0536V16.5023H65.7639V16.484C65.7639 15.9352 66.0932 15.6242 66.5963 15.6242C66.9622 15.6242 67.3097 15.7614 67.511 15.9169V15.1943C67.3463 15.0846 66.9805 14.9108 66.4957 14.9108C65.6359 14.9108 64.9041 15.3956 64.9041 16.4932V16.5023H64.1998V17.2615ZM72.9418 21.1397V20.3988C72.7223 20.536 72.3656 20.6641 71.9814 20.6641C71.4875 20.6641 71.1948 20.4446 71.1948 19.8866V17.2615H72.9053V16.5023H71.1948V15.5877H70.9936L69.5941 17.042V17.2615H70.335V19.9781C70.335 21.1489 71.0119 21.4416 71.7711 21.4416C72.3107 21.4416 72.704 21.2952 72.9418 21.1397ZM76.1886 17.2341C76.9021 17.2341 77.332 17.6365 77.332 18.4323V21.3501H78.1918V18.2402C78.1918 17.0511 77.5789 16.4109 76.5088 16.4109C75.7496 16.4109 75.1459 16.7401 74.7343 17.0694V14.9199L73.8745 15.0571V21.3501H74.7343V17.6731C75.0727 17.4719 75.6215 17.2341 76.1886 17.2341ZM83.4914 21.0117V20.2525C83.1347 20.4537 82.467 20.6275 81.8175 20.6275C80.8022 20.6275 80.1437 20.161 80.0797 19.1915H83.592V18.789C83.592 17.2798 82.8328 16.4017 81.5065 16.4017C80.1528 16.4017 79.2107 17.3438 79.2107 18.9262C79.2107 20.5726 80.2534 21.4416 81.7352 21.4416C82.4029 21.4416 83.1438 21.2678 83.4914 21.0117ZM81.4608 17.1426C82.3115 17.1426 82.7322 17.6914 82.7505 18.6061H80.0705C80.1162 17.6823 80.6559 17.1426 81.4608 17.1426ZM90.1399 21.3501H90.9448V14.9199L90.085 15.0571V16.5298C89.8106 16.4657 89.5088 16.4109 89.1155 16.4109C87.7343 16.4109 86.4995 17.2707 86.4995 19.0543C86.4995 20.6641 87.4965 21.4416 88.6307 21.4416C89.3076 21.4416 89.8198 21.1855 90.1399 20.9202V21.3501ZM89.1612 17.1792C89.5454 17.1792 89.8381 17.2524 90.085 17.3347V20.2799C89.8198 20.4629 89.3716 20.6732 88.8594 20.6732C87.963 20.6732 87.3776 20.0696 87.3776 18.9994C87.3776 17.7554 88.1551 17.1792 89.1612 17.1792ZM95.0845 18.4048V18.8439C94.865 18.7616 94.49 18.6701 94.0143 18.6701C92.7704 18.6701 91.9655 19.2921 91.9655 20.1427C91.9655 20.9476 92.5234 21.4416 93.5021 21.4416C94.2247 21.4416 94.7918 21.0848 95.1394 20.7098V21.3501H95.9443V18.3957C95.9443 16.9505 95.0296 16.4109 93.9778 16.4109C93.0814 16.4109 92.3405 16.8316 92.0204 17.1609V18.0481C92.432 17.6274 93.1088 17.2615 93.868 17.2615C94.5174 17.2615 95.0845 17.5816 95.0845 18.4048ZM92.7704 20.1061C92.7704 19.6031 93.2643 19.2646 94.2247 19.2646C94.5357 19.2646 94.865 19.3195 95.0845 19.3835V20.2068C94.7095 20.5177 94.1881 20.7739 93.6393 20.7739C93.1546 20.7739 92.7704 20.5818 92.7704 20.1061ZM97.9016 22.8867C98.5419 22.8867 99.0633 22.5483 99.4291 21.6977L101.716 16.5023H100.765L99.2279 20.2525L97.6455 16.5023H96.6851L98.8255 21.2129L98.6608 21.5696C98.5053 21.8989 98.2218 22.1001 97.8559 22.1001C97.3528 22.1001 96.9595 21.8074 96.7857 21.6245V22.4751C96.9778 22.6489 97.3803 22.8867 97.9016 22.8867ZM108.247 16.7767C107.881 16.5298 107.36 16.4017 106.802 16.4017C105.32 16.4017 104.186 17.4079 104.186 18.9262C104.186 20.3988 105.311 21.4416 106.792 21.4416C107.36 21.4416 107.881 21.3044 108.247 21.0574V20.1976C107.881 20.4629 107.369 20.6275 106.82 20.6275C105.795 20.6275 105.045 19.9506 105.045 18.9262C105.045 17.8743 105.795 17.2158 106.829 17.2158C107.369 17.2158 107.881 17.3713 108.247 17.6365V16.7767ZM111.222 20.6184C110.509 20.6184 110.079 20.2159 110.079 19.4201V16.5023H109.219V19.6122C109.219 20.8013 109.832 21.4416 110.893 21.4416C111.698 21.4416 112.32 21.0757 112.731 20.7373V21.3501H113.536V16.5023H112.676V20.1702C112.329 20.3805 111.789 20.6184 111.222 20.6184ZM116.988 18.725L116.394 18.5512C115.772 18.3683 115.369 18.2219 115.369 17.7829C115.369 17.3713 115.781 17.17 116.293 17.17C116.979 17.17 117.72 17.4444 118.068 17.7097V16.8499C117.729 16.6212 117.034 16.4017 116.339 16.4017C115.214 16.4017 114.537 17.0054 114.537 17.8103C114.537 18.6518 115.15 19.0085 115.872 19.1915L116.485 19.3744C117.107 19.539 117.473 19.6762 117.473 20.097C117.473 20.5543 117.116 20.719 116.54 20.719C115.79 20.719 115.031 20.4263 114.583 20.1427V20.9842C114.949 21.2129 115.726 21.4782 116.503 21.4782C117.592 21.4782 118.287 20.9934 118.287 20.0787C118.287 19.3287 117.766 18.9445 116.988 18.725ZM122.132 21.1397V20.3988C121.913 20.536 121.556 20.6641 121.172 20.6641C120.678 20.6641 120.385 20.4446 120.385 19.8866V17.2615H122.096V16.5023H120.385V15.5877H120.184L118.785 17.042V17.2615H119.526V19.9781C119.526 21.1489 120.202 21.4416 120.962 21.4416C121.501 21.4416 121.895 21.2952 122.132 21.1397ZM125.352 21.4416C126.806 21.4416 127.867 20.3531 127.867 18.9262C127.867 17.481 126.806 16.4109 125.352 16.4109C123.897 16.4109 122.836 17.481 122.836 18.9262C122.836 20.3531 123.897 21.4416 125.352 21.4416ZM125.352 20.6367C124.4 20.6367 123.687 19.9049 123.687 18.9262C123.687 17.9292 124.4 17.2158 125.352 17.2158C126.312 17.2158 127.016 17.9292 127.016 18.9262C127.016 19.9141 126.312 20.6367 125.352 20.6367ZM128.916 16.5023V21.3501H129.776V17.6823C130.105 17.481 130.608 17.2341 131.138 17.2341C131.788 17.2341 132.19 17.6274 132.19 18.3957V21.3501H133.05V18.1579C133.05 17.9932 133.041 17.8286 133.013 17.6823C133.361 17.4719 133.873 17.2341 134.413 17.2341C135.071 17.2341 135.474 17.6274 135.474 18.3957V21.3501H136.325V18.2036C136.325 17.042 135.748 16.4109 134.742 16.4109C133.901 16.4109 133.279 16.8225 132.858 17.1975C132.611 16.6853 132.135 16.4109 131.459 16.4109C130.699 16.4109 130.114 16.7767 129.721 17.1152V16.5023H128.916ZM141.623 21.0117V20.2525C141.266 20.4537 140.599 20.6275 139.949 20.6275C138.934 20.6275 138.275 20.161 138.211 19.1915H141.724V18.789C141.724 17.2798 140.965 16.4017 139.638 16.4017C138.285 16.4017 137.343 17.3438 137.343 18.9262C137.343 20.5726 138.385 21.4416 139.867 21.4416C140.535 21.4416 141.276 21.2678 141.623 21.0117ZM139.593 17.1426C140.443 17.1426 140.864 17.6914 140.882 18.6061H138.202C138.248 17.6823 138.788 17.1426 139.593 17.1426ZM142.814 16.5023V21.3501H143.674V17.7463C144.004 17.4993 144.507 17.2341 144.982 17.2341C145.33 17.2341 145.613 17.3347 145.824 17.4627V16.5572C145.65 16.4657 145.449 16.4109 145.238 16.4109C144.589 16.4109 143.994 16.8225 143.619 17.1975V16.5023H142.814ZM148.787 18.725L148.193 18.5512C147.571 18.3683 147.168 18.2219 147.168 17.7829C147.168 17.3713 147.58 17.17 148.092 17.17C148.778 17.17 149.519 17.4444 149.867 17.7097V16.8499C149.528 16.6212 148.833 16.4017 148.138 16.4017C147.013 16.4017 146.336 17.0054 146.336 17.8103C146.336 18.6518 146.949 19.0085 147.672 19.1915L148.284 19.3744C148.906 19.539 149.272 19.6762 149.272 20.097C149.272 20.5543 148.916 20.719 148.339 20.719C147.589 20.719 146.83 20.4263 146.382 20.1427V20.9842C146.748 21.2129 147.525 21.4782 148.303 21.4782C149.391 21.4782 150.086 20.9934 150.086 20.0787C150.086 19.3287 149.565 18.9445 148.787 18.725ZM155.977 21.1397V20.3988C155.758 20.536 155.401 20.6641 155.017 20.6641C154.523 20.6641 154.23 20.4446 154.23 19.8866V17.2615H155.94V16.5023H154.23V15.5877H154.029L152.629 17.042V17.2615H153.37V19.9781C153.37 21.1489 154.047 21.4416 154.806 21.4416C155.346 21.4416 155.739 21.2952 155.977 21.1397ZM160.962 21.0117V20.2525C160.605 20.4537 159.937 20.6275 159.288 20.6275C158.273 20.6275 157.614 20.161 157.55 19.1915H161.062V18.789C161.062 17.2798 160.303 16.4017 158.977 16.4017C157.623 16.4017 156.681 17.3438 156.681 18.9262C156.681 20.5726 157.724 21.4416 159.206 21.4416C159.873 21.4416 160.614 21.2678 160.962 21.0117ZM158.931 17.1426C159.782 17.1426 160.203 17.6914 160.221 18.6061H157.541C157.587 17.6823 158.126 17.1426 158.931 17.1426ZM162.153 16.5023V21.3501H163.013V17.6731C163.351 17.4719 163.9 17.2341 164.467 17.2341C165.181 17.2341 165.611 17.6365 165.611 18.4323V21.3501H166.47V18.2402C166.47 17.0511 165.857 16.4109 164.787 16.4109C163.992 16.4109 163.37 16.7767 162.958 17.1152V16.5023H162.153ZM171.13 21.3501H171.935V14.9199L171.075 15.0571V16.5298C170.8 16.4657 170.499 16.4109 170.105 16.4109C168.724 16.4109 167.489 17.2707 167.489 19.0543C167.489 20.6641 168.486 21.4416 169.62 21.4416C170.297 21.4416 170.809 21.1855 171.13 20.9202V21.3501ZM170.151 17.1792C170.535 17.1792 170.828 17.2524 171.075 17.3347V20.2799C170.809 20.4629 170.361 20.6732 169.849 20.6732C168.953 20.6732 168.367 20.0696 168.367 18.9994C168.367 17.7554 169.145 17.1792 170.151 17.1792ZM178.147 21.1397V20.3988C177.928 20.536 177.571 20.6641 177.187 20.6641C176.693 20.6641 176.4 20.4446 176.4 19.8866V17.2615H178.111V16.5023H176.4V15.5877H176.199L174.799 17.042V17.2615H175.54V19.9781C175.54 21.1489 176.217 21.4416 176.976 21.4416C177.516 21.4416 177.909 21.2952 178.147 21.1397ZM181.367 21.4416C182.821 21.4416 183.882 20.3531 183.882 18.9262C183.882 17.481 182.821 16.4109 181.367 16.4109C179.912 16.4109 178.851 17.481 178.851 18.9262C178.851 20.3531 179.912 21.4416 181.367 21.4416ZM181.367 20.6367C180.415 20.6367 179.702 19.9049 179.702 18.9262C179.702 17.9292 180.415 17.2158 181.367 17.2158C182.327 17.2158 183.031 17.9292 183.031 18.9262C183.031 19.9141 182.327 20.6367 181.367 20.6367ZM191.028 21.0117V20.2525C190.671 20.4537 190.004 20.6275 189.354 20.6275C188.339 20.6275 187.68 20.161 187.616 19.1915H191.129V18.789C191.129 17.2798 190.37 16.4017 189.043 16.4017C187.69 16.4017 186.747 17.3438 186.747 18.9262C186.747 20.5726 187.79 21.4416 189.272 21.4416C189.94 21.4416 190.681 21.2678 191.028 21.0117ZM188.998 17.1426C189.848 17.1426 190.269 17.6914 190.287 18.6061H187.607C187.653 17.6823 188.193 17.1426 188.998 17.1426ZM192.219 16.5023V21.3501H193.079V17.6731C193.418 17.4719 193.966 17.2341 194.533 17.2341C195.247 17.2341 195.677 17.6365 195.677 18.4323V21.3501H196.537V18.2402C196.537 17.0511 195.924 16.4109 194.854 16.4109C194.058 16.4109 193.436 16.7767 193.024 17.1152V16.5023H192.219ZM201.964 20.5909V16.8133C201.516 16.6304 200.922 16.4109 200.126 16.4109C198.735 16.4109 197.556 17.2524 197.556 18.9079C197.556 20.225 198.406 21.0025 199.623 21.0025C200.281 21.0025 200.784 20.7373 201.104 20.4903V20.7007C201.104 21.5879 200.583 22.0818 199.586 22.0818C198.864 22.0818 198.26 21.8074 197.821 21.5056V22.3837C198.223 22.6306 198.882 22.8867 199.668 22.8867C200.931 22.8867 201.964 22.2282 201.964 20.5909ZM198.434 18.8073C198.434 17.7463 199.138 17.1792 200.117 17.1792C200.528 17.1792 200.839 17.2615 201.104 17.3621V19.8043C200.821 20.0055 200.364 20.225 199.833 20.225C199.019 20.225 198.434 19.7586 198.434 18.8073ZM206.096 18.4048V18.8439C205.876 18.7616 205.501 18.6701 205.026 18.6701C203.782 18.6701 202.977 19.2921 202.977 20.1427C202.977 20.9476 203.535 21.4416 204.514 21.4416C205.236 21.4416 205.803 21.0848 206.151 20.7098V21.3501H206.956V18.3957C206.956 16.9505 206.041 16.4109 204.989 16.4109C204.093 16.4109 203.352 16.8316 203.032 17.1609V18.0481C203.443 17.6274 204.12 17.2615 204.879 17.2615C205.529 17.2615 206.096 17.5816 206.096 18.4048ZM203.782 20.1061C203.782 19.6031 204.276 19.2646 205.236 19.2646C205.547 19.2646 205.876 19.3195 206.096 19.3835V20.2068C205.721 20.5177 205.2 20.7739 204.651 20.7739C204.166 20.7739 203.782 20.5818 203.782 20.1061ZM212.37 20.5909V16.8133C211.922 16.6304 211.328 16.4109 210.532 16.4109C209.142 16.4109 207.962 17.2524 207.962 18.9079C207.962 20.225 208.812 21.0025 210.029 21.0025C210.687 21.0025 211.191 20.7373 211.511 20.4903V20.7007C211.511 21.5879 210.989 22.0818 209.992 22.0818C209.27 22.0818 208.666 21.8074 208.227 21.5056V22.3837C208.629 22.6306 209.288 22.8867 210.075 22.8867C211.337 22.8867 212.37 22.2282 212.37 20.5909ZM208.84 18.8073C208.84 17.7463 209.544 17.1792 210.523 17.1792C210.934 17.1792 211.245 17.2615 211.511 17.3621V19.8043C211.227 20.0055 210.77 20.225 210.239 20.225C209.425 20.225 208.84 19.7586 208.84 18.8073ZM217.691 21.0117V20.2525C217.334 20.4537 216.667 20.6275 216.017 20.6275C215.002 20.6275 214.343 20.161 214.279 19.1915H217.792V18.789C217.792 17.2798 217.033 16.4017 215.706 16.4017C214.353 16.4017 213.41 17.3438 213.41 18.9262C213.41 20.5726 214.453 21.4416 215.935 21.4416C216.603 21.4416 217.344 21.2678 217.691 21.0117ZM215.661 17.1426C216.511 17.1426 216.932 17.6914 216.95 18.6061H214.27C214.316 17.6823 214.856 17.1426 215.661 17.1426Z" fill="black"/>
</g>
</g>
<g id="Group 124">
<g id="Group 122">
<rect id="Rectangle 376" x="32.8144" y="50.3528" width="0.531396" height="89.1807" fill="#F7F7F7"/>
<rect id="Rectangle 377" x="82.2338" y="50.3528" width="0.531396" height="89.1807" fill="#F7F7F7"/>
<rect id="Rectangle 378" x="131.653" y="50.3528" width="0.531396" height="89.1807" fill="#F7F7F7"/>
<rect id="Rectangle 379" x="181.075" y="50.3528" width="0.531396" height="89.1807" fill="#F7F7F7"/>
<rect id="Rectangle 380" x="230.494" y="50.3528" width="0.531396" height="89.1807" fill="#F7F7F7"/>
<rect id="Rectangle 381" x="279.914" y="50.3528" width="0.531396" height="89.1807" fill="#F7F7F7"/>
<rect id="Rectangle 382" x="329.333" y="50.3528" width="0.531396" height="89.1807" fill="#F7F7F7"/>
<rect id="Rectangle 389" x="32.8144" y="65.2162" width="296.519" height="0.571671" fill="#F7F7F7"/>
<rect id="Rectangle 396" x="32.8144" y="80.0797" width="296.519" height="0.571671" fill="#F7F7F7"/>
<rect id="Rectangle 403" x="32.8144" y="94.9431" width="296.519" height="0.571671" fill="#F7F7F7"/>
<rect id="Rectangle 410" x="32.8144" y="109.807" width="296.519" height="0.571671" fill="#F7F7F7"/>
<rect id="Rectangle 417" x="32.8144" y="124.67" width="296.519" height="0.571671" fill="#F7F7F7"/>
<rect id="Rectangle 424" x="32.8144" y="139.534" width="297.05" height="0.571671" fill="#F7F7F7"/>
</g>
<g id="Group 123">
<path id="0" d="M25.2353 139.302C26.0756 139.302 26.8016 138.679 26.8016 137.279C26.8016 135.884 26.0756 135.255 25.2353 135.255C24.3892 135.255 23.6689 135.884 23.6689 137.279C23.6689 138.679 24.3892 139.302 25.2353 139.302ZM25.2353 138.948C24.5721 138.948 24.0576 138.399 24.0576 137.279C24.0576 136.164 24.5721 135.615 25.2353 135.615C25.8984 135.615 26.4129 136.164 26.4129 137.279C26.4129 138.399 25.8984 138.948 25.2353 138.948Z" fill="#323232"/>
<path id="0_2" d="M33.6678 148.449C34.5081 148.449 35.2342 147.826 35.2342 146.425C35.2342 145.031 34.5081 144.402 33.6678 144.402C32.8217 144.402 32.1014 145.031 32.1014 146.425C32.1014 147.826 32.8217 148.449 33.6678 148.449ZM33.6678 148.095C33.0046 148.095 32.4901 147.546 32.4901 146.425C32.4901 145.311 33.0046 144.762 33.6678 144.762C34.3309 144.762 34.8454 145.311 34.8454 146.425C34.8454 147.546 34.3309 148.095 33.6678 148.095Z" fill="#323232"/>
<path id="2" d="M58.7891 148.392V148.049H56.5939L57.9088 146.808C58.3718 146.38 58.7548 146.008 58.7548 145.448C58.7548 144.785 58.2746 144.402 57.5943 144.402C56.9198 144.402 56.4224 144.773 56.228 144.951V145.356C56.4739 145.122 56.9541 144.745 57.5715 144.745C58.086 144.745 58.3718 145.048 58.3718 145.465C58.3718 145.888 58.0974 146.162 57.6515 146.597L56.1023 148.106V148.392H58.7891Z" fill="#323232"/>
<path id="4" d="M82.2418 144.459L79.9837 147.197V147.483H82.2418V148.392H82.6191V147.483H83.408V147.146H82.6191V144.459H82.2418ZM80.4239 147.146L82.2418 144.951V147.146H80.4239Z" fill="#323232"/>
<path id="6" d="M109.068 147.077C109.068 146.254 108.468 145.785 107.748 145.785C107.222 145.785 106.827 146.008 106.587 146.271C106.89 145.402 107.782 144.71 108.228 144.459H107.679C107.108 144.785 106.113 145.722 106.113 146.854C106.113 147.917 106.753 148.449 107.611 148.449C108.457 148.449 109.068 147.923 109.068 147.077ZM106.496 146.866C106.496 146.78 106.507 146.7 106.525 146.614C106.793 146.328 107.176 146.105 107.685 146.105C108.234 146.105 108.691 146.443 108.691 147.083C108.691 147.729 108.245 148.106 107.622 148.106C106.993 148.106 106.496 147.723 106.496 146.866Z" fill="#323232"/>
<path id="8" d="M133.04 148.449C133.995 148.449 134.526 147.935 134.526 147.3C134.526 146.837 134.246 146.443 133.72 146.26C134.12 146.105 134.343 145.785 134.343 145.419C134.343 144.836 133.852 144.402 133.04 144.402C132.24 144.402 131.748 144.83 131.748 145.408C131.748 145.774 131.965 146.1 132.371 146.26C131.834 146.443 131.559 146.837 131.559 147.306C131.559 147.935 132.091 148.449 133.04 148.449ZM132.114 145.425C132.114 145.002 132.48 144.728 133.04 144.728C133.606 144.728 133.972 145.008 133.972 145.425C133.972 145.854 133.606 146.134 133.04 146.134C132.48 146.134 132.114 145.848 132.114 145.425ZM131.931 147.283C131.931 146.774 132.354 146.414 133.04 146.414C133.726 146.414 134.149 146.768 134.149 147.277C134.149 147.769 133.726 148.123 133.04 148.123C132.354 148.123 131.931 147.769 131.931 147.283Z" fill="#323232"/>
<path id="10" d="M155.46 144.459L155.306 144.796H156.009V148.392H156.38V144.459H155.46ZM158.904 148.449C159.745 148.449 160.471 147.826 160.471 146.425C160.471 145.031 159.745 144.402 158.904 144.402C158.058 144.402 157.338 145.031 157.338 146.425C157.338 147.826 158.058 148.449 158.904 148.449ZM158.904 148.095C158.241 148.095 157.727 147.546 157.727 146.425C157.727 145.311 158.241 144.762 158.904 144.762C159.568 144.762 160.082 145.311 160.082 146.425C160.082 147.546 159.568 148.095 158.904 148.095Z" fill="#323232"/>
<path id="12" d="M184.313 144.459L184.158 144.796H184.861V148.392H185.233V144.459H184.313ZM188.666 148.392V148.049H186.471L187.786 146.808C188.249 146.38 188.632 146.008 188.632 145.448C188.632 144.785 188.152 144.402 187.471 144.402C186.797 144.402 186.299 144.773 186.105 144.951V145.356C186.351 145.122 186.831 144.745 187.448 144.745C187.963 144.745 188.249 145.048 188.249 145.465C188.249 145.888 187.974 146.162 187.528 146.597L185.979 148.106V148.392H188.666Z" fill="#323232"/>
<path id="14" d="M207.345 144.459L207.19 144.796H207.893V148.392H208.265V144.459H207.345ZM211.218 144.459L208.96 147.197V147.483H211.218V148.392H211.595V147.483H212.384V147.146H211.595V144.459H211.218ZM209.4 147.146L211.218 144.951V147.146H209.4Z" fill="#323232"/>
<path id="16" d="M231.347 144.459L231.192 144.796H231.896V148.392H232.267V144.459H231.347ZM236.072 147.077C236.072 146.254 235.472 145.785 234.751 145.785C234.225 145.785 233.831 146.008 233.591 146.271C233.894 145.402 234.786 144.71 235.231 144.459H234.683C234.111 144.785 233.116 145.722 233.116 146.854C233.116 147.917 233.757 148.449 234.614 148.449C235.46 148.449 236.072 147.923 236.072 147.077ZM233.499 146.866C233.499 146.78 233.511 146.7 233.528 146.614C233.797 146.328 234.18 146.105 234.688 146.105C235.237 146.105 235.695 146.443 235.695 147.083C235.695 147.729 235.249 148.106 234.626 148.106C233.997 148.106 233.499 147.723 233.499 146.866Z" fill="#323232"/>
<path id="18" d="M255.274 144.459L255.12 144.796H255.823V148.392H256.194V144.459H255.274ZM258.49 148.449C259.445 148.449 259.976 147.935 259.976 147.3C259.976 146.837 259.696 146.443 259.17 146.26C259.57 146.105 259.793 145.785 259.793 145.419C259.793 144.836 259.302 144.402 258.49 144.402C257.69 144.402 257.198 144.83 257.198 145.408C257.198 145.774 257.415 146.1 257.821 146.26C257.284 146.443 257.009 146.837 257.009 147.306C257.009 147.935 257.541 148.449 258.49 148.449ZM257.564 145.425C257.564 145.002 257.93 144.728 258.49 144.728C259.056 144.728 259.422 145.008 259.422 145.425C259.422 145.854 259.056 146.134 258.49 146.134C257.93 146.134 257.564 145.848 257.564 145.425ZM257.381 147.283C257.381 146.774 257.804 146.414 258.49 146.414C259.176 146.414 259.599 146.768 259.599 147.277C259.599 147.769 259.176 148.123 258.49 148.123C257.804 148.123 257.381 147.769 257.381 147.283Z" fill="#323232"/>
<path id="20" d="M280.899 148.392V148.049H278.703L280.018 146.808C280.481 146.38 280.864 146.008 280.864 145.448C280.864 144.785 280.384 144.402 279.704 144.402C279.029 144.402 278.532 144.773 278.337 144.951V145.356C278.583 145.122 279.063 144.745 279.681 144.745C280.195 144.745 280.481 145.048 280.481 145.465C280.481 145.888 280.207 146.162 279.761 146.597L278.212 148.106V148.392H280.899ZM283.149 148.449C283.99 148.449 284.716 147.826 284.716 146.425C284.716 145.031 283.99 144.402 283.149 144.402C282.303 144.402 281.583 145.031 281.583 146.425C281.583 147.826 282.303 148.449 283.149 148.449ZM283.149 148.095C282.486 148.095 281.972 147.546 281.972 146.425C281.972 145.311 282.486 144.762 283.149 144.762C283.813 144.762 284.327 145.311 284.327 146.425C284.327 147.546 283.813 148.095 283.149 148.095Z" fill="#323232"/>
<path id="22" d="M303.658 148.392V148.049H301.463L302.778 146.808C303.241 146.38 303.624 146.008 303.624 145.448C303.624 144.785 303.143 144.402 302.463 144.402C301.789 144.402 301.291 144.773 301.097 144.951V145.356C301.343 145.122 301.823 144.745 302.44 144.745C302.955 144.745 303.241 145.048 303.241 145.465C303.241 145.888 302.966 146.162 302.52 146.597L300.971 148.106V148.392H303.658ZM306.818 148.392V148.049H304.623L305.937 146.808C306.4 146.38 306.784 146.008 306.784 145.448C306.784 144.785 306.303 144.402 305.623 144.402C304.948 144.402 304.451 144.773 304.257 144.951V145.356C304.503 145.122 304.983 144.745 305.6 144.745C306.115 144.745 306.4 145.048 306.4 145.465C306.4 145.888 306.126 146.162 305.68 146.597L304.131 148.106V148.392H306.818Z" fill="#323232"/>
<path id="24" d="M327.848 148.102V147.759H325.653L326.968 146.518C327.431 146.09 327.814 145.718 327.814 145.158C327.814 144.495 327.334 144.112 326.654 144.112C325.979 144.112 325.482 144.483 325.287 144.66V145.066C325.533 144.832 326.013 144.455 326.631 144.455C327.145 144.455 327.431 144.758 327.431 145.175C327.431 145.598 327.157 145.872 326.711 146.307L325.162 147.816V148.102H327.848ZM330.528 144.169L328.27 146.907V147.193H330.528V148.102H330.905V147.193H331.694V146.856H330.905V144.169H330.528ZM328.71 146.856L330.528 144.66V146.856H328.71Z" fill="#323232"/>
<path id="2_2" d="M26.451 124.382V124.039H24.2558L25.5706 122.798C26.0337 122.37 26.4167 121.998 26.4167 121.438C26.4167 120.775 25.9365 120.392 25.2562 120.392C24.5816 120.392 24.0843 120.763 23.8899 120.94V121.346C24.1357 121.112 24.6159 120.735 25.2333 120.735C25.7478 120.735 26.0337 121.038 26.0337 121.455C26.0337 121.878 25.7593 122.152 25.3134 122.587L23.7641 124.096V124.382H26.451Z" fill="#323232"/>
<path id="4_2" d="M24.8279 105.586L22.5698 108.324V108.61H24.8279V109.519H25.2052V108.61H25.9941V108.272H25.2052V105.586H24.8279ZM23.01 108.272L24.8279 106.077V108.272H23.01Z" fill="#323232"/>
<path id="6_2" d="M25.3481 93.3399C25.3481 92.5167 24.7478 92.048 24.0275 92.048C23.5016 92.048 23.1071 92.2709 22.867 92.5339C23.17 91.6649 24.0618 90.9732 24.5077 90.7217H23.9589C23.3872 91.0475 22.3925 91.9851 22.3925 93.117C22.3925 94.1803 23.0328 94.712 23.8903 94.712C24.7364 94.712 25.3481 94.186 25.3481 93.3399ZM22.7755 93.1284C22.7755 93.0427 22.787 92.9626 22.8041 92.8769C23.0728 92.5911 23.4558 92.3681 23.9646 92.3681C24.5134 92.3681 24.9708 92.7054 24.9708 93.3457C24.9708 93.9916 24.5249 94.3689 23.9017 94.3689C23.2729 94.3689 22.7755 93.9859 22.7755 93.1284Z" fill="#323232"/>
<path id="8_2" d="M23.8187 79.8484C24.7734 79.8484 25.305 79.3339 25.305 78.6994C25.305 78.2363 25.0249 77.8419 24.499 77.6589C24.8992 77.5046 25.1221 77.1844 25.1221 76.8186C25.1221 76.2355 24.6305 75.801 23.8187 75.801C23.0184 75.801 22.5267 76.2297 22.5267 76.8071C22.5267 77.173 22.744 77.4989 23.1498 77.6589C22.6125 77.8419 22.3381 78.2363 22.3381 78.7051C22.3381 79.3339 22.8697 79.8484 23.8187 79.8484ZM22.8926 76.8243C22.8926 76.4013 23.2585 76.1268 23.8187 76.1268C24.3847 76.1268 24.7505 76.407 24.7505 76.8243C24.7505 77.253 24.3847 77.5332 23.8187 77.5332C23.2585 77.5332 22.8926 77.2473 22.8926 76.8243ZM22.7097 78.6822C22.7097 78.1734 23.1327 77.8133 23.8187 77.8133C24.5047 77.8133 24.9277 78.1677 24.9277 78.6765C24.9277 79.1681 24.5047 79.5226 23.8187 79.5226C23.1327 79.5226 22.7097 79.1681 22.7097 78.6822Z" fill="#323232"/>
<path id="10_2" d="M19.6357 60.9949L19.4813 61.3322H20.1845V64.928H20.556V60.9949H19.6357ZM23.0802 64.9851C23.9206 64.9851 24.6466 64.362 24.6466 62.9614C24.6466 61.5666 23.9206 60.9377 23.0802 60.9377C22.2342 60.9377 21.5139 61.5666 21.5139 62.9614C21.5139 64.362 22.2342 64.9851 23.0802 64.9851ZM23.0802 64.6307C22.4171 64.6307 21.9026 64.0819 21.9026 62.9614C21.9026 61.8467 22.4171 61.2979 23.0802 61.2979C23.7434 61.2979 24.2579 61.8467 24.2579 62.9614C24.2579 64.0819 23.7434 64.6307 23.0802 64.6307Z" fill="#323232"/>
</g>
</g>
<path id="Vector 35" d="M58.493 105.649L34.5397 132.53C33.9799 133.159 33.6705 133.971 33.6705 134.812V136.675C33.6705 138.57 35.2062 140.105 37.1006 140.105H326.049C327.943 140.105 329.479 138.57 329.479 136.675V81.1408L311.143 109.224C310.744 109.836 310.158 110.305 309.473 110.561L287.427 118.808C285.702 119.453 283.775 118.621 283.062 116.923L264.24 72.0868C263.107 69.3858 259.327 69.2574 258.013 71.8753L237.174 113.373C236.162 115.389 233.512 115.896 231.827 114.395L211.983 96.7197C211.11 95.9418 209.9 95.6625 208.774 95.9787L186.233 102.308C185.394 102.544 184.496 102.451 183.723 102.049L161.869 90.6871C160.907 90.1871 159.766 90.1711 158.791 90.6439L136.879 101.265C136.153 101.617 135.326 101.702 134.544 101.505L111.977 95.8101C111.116 95.5927 110.204 95.718 109.433 96.1595L86.1629 109.489C85.4032 109.924 84.5059 110.052 83.6547 109.847L61.8571 104.597C60.6274 104.3 59.3344 104.705 58.493 105.649Z" fill="url(#paint1_linear_612_516)"/>
<path id="Vector 36" d="M33.6705 133.245L58.4944 105.493C59.3354 104.553 60.6246 104.151 61.8512 104.445L83.6593 109.678C84.5077 109.882 85.4018 109.754 86.1596 109.322L109.437 96.0395C110.205 95.6008 111.114 95.4763 111.973 95.6921L134.548 101.367C135.328 101.563 136.152 101.479 136.876 101.129L158.796 90.5445C159.768 90.0748 160.905 90.0907 161.865 90.5875L183.727 101.91C184.498 102.31 185.392 102.402 186.228 102.168L208.78 95.8597C209.903 95.5456 211.108 95.8234 211.98 96.5972L231.834 114.213C233.518 115.707 236.16 115.202 237.173 113.191L258.015 71.8448C259.332 69.2331 263.103 69.3615 264.239 72.0567L283.062 116.724C283.775 118.418 285.698 119.248 287.42 118.606L309.444 110.399C310.147 110.137 310.745 109.652 311.146 109.018L329.479 80.0222" stroke="#A6D8C3" stroke-width="1.71501"/>
<g id="Rectangle 2022" filter="url(#filter0_d_612_516)">
<path d="M259.902 70.5146H324.778C329.72 70.5146 333.726 74.521 333.726 79.4631V95.1228C333.726 100.065 329.72 104.071 324.778 104.071H268.85C263.908 104.071 259.902 100.065 259.902 95.1228V70.5146Z" fill="white"/>
<path d="M260.188 70.8005H324.778C329.562 70.8005 333.44 74.6789 333.44 79.4631V95.1228C333.44 99.907 329.562 103.785 324.778 103.785H268.85C264.066 103.785 260.188 99.907 260.188 95.1228V70.8005Z" stroke="#F2F2F2" stroke-width="0.571671"/>
</g>
<g id="Group 11305">
<path id="78" d="M276.779 97.9301L280.895 89.9998V88.4906H273.898V90.1508H278.92L274.708 97.9301H276.779ZM285.599 98.0535C288.041 98.0535 289.468 96.805 289.468 95.186C289.468 94.157 288.905 93.3064 287.808 92.7987C288.603 92.3734 288.988 91.66 288.988 90.9465C288.988 89.4922 287.725 88.3397 285.599 88.3397C283.513 88.3397 282.224 89.4785 282.224 90.9191C282.224 91.6325 282.594 92.3734 283.431 92.7987C282.306 93.3201 281.757 94.1845 281.757 95.2272C281.757 96.8187 283.184 98.0535 285.599 98.0535ZM284.007 91.0288C284.007 90.2605 284.707 89.8901 285.599 89.8901C286.504 89.8901 287.218 90.3017 287.218 91.0563C287.218 91.852 286.504 92.2637 285.612 92.2637C284.707 92.2637 284.007 91.8246 284.007 91.0288ZM283.582 95.0488C283.582 94.0061 284.529 93.4847 285.612 93.4847C286.683 93.4847 287.643 93.9649 287.643 95.0077C287.643 96.0367 286.669 96.5169 285.599 96.5169C284.542 96.5169 283.582 96.0504 283.582 95.0488Z" fill="#080317"/>
</g>
<path id="Count" d="M287.309 82.1828C287.995 82.1828 288.509 81.9907 288.935 81.7231V81.2292C288.544 81.5036 288.009 81.7506 287.323 81.7506C286.204 81.7506 285.361 80.9342 285.361 79.7543C285.361 78.5675 286.204 77.7443 287.323 77.7443C288.009 77.7443 288.544 77.9913 288.935 78.2657V77.7786C288.509 77.5111 287.995 77.319 287.309 77.319C285.937 77.319 284.887 78.3274 284.887 79.7543C284.887 81.1812 285.937 82.1828 287.309 82.1828ZM291.348 82.1759C292.425 82.1759 293.207 81.3596 293.207 80.2894C293.207 79.2124 292.425 78.4029 291.348 78.4029C290.271 78.4029 289.489 79.2124 289.489 80.2894C289.489 81.3596 290.271 82.1759 291.348 82.1759ZM291.348 81.7643C290.525 81.7643 289.928 81.1263 289.928 80.2894C289.928 79.4456 290.525 78.8145 291.348 78.8145C292.178 78.8145 292.768 79.4456 292.768 80.2894C292.768 81.1263 292.178 81.7643 291.348 81.7643ZM295.475 81.7574C294.905 81.7574 294.501 81.435 294.501 80.7284V78.4715H294.062V80.8039C294.062 81.7369 294.583 82.1759 295.344 82.1759C295.962 82.1759 296.428 81.8878 296.744 81.634V82.1073H297.155V78.4715H296.716V81.3253C296.442 81.5105 295.969 81.7574 295.475 81.7574ZM298.236 78.4715V82.1073H298.675V79.2467C298.956 79.0683 299.423 78.8213 299.917 78.8213C300.486 78.8213 300.891 79.1438 300.891 79.8503V82.1073H301.323V79.7749C301.323 78.8419 300.802 78.4029 300.047 78.4029C299.423 78.4029 298.963 78.691 298.648 78.9448V78.4715H298.236ZM304.386 81.9495V81.5516C304.215 81.6683 303.954 81.7712 303.652 81.7712C303.241 81.7712 303 81.5791 303 81.1126V78.8625H304.352V78.4715H303V77.7855H302.891L301.999 78.7459V78.8625H302.561V81.1469C302.561 81.977 303.062 82.1759 303.57 82.1759C303.947 82.1759 304.221 82.0593 304.386 81.9495Z" fill="#080317"/>
<rect id="Rectangle 2097" x="273.324" y="76.1073" width="7.82986" height="7.82986" fill="#6FE3E3"/>
</g>
<defs>
<filter id="filter0_d_612_516" x="257.615" y="61.3679" width="114.985" height="74.7168" filterUnits="userSpaceOnUse" color-interpolation-filters="sRGB">
<feFlood flood-opacity="0" result="BackgroundImageFix"/>
<feColorMatrix in="SourceAlpha" type="matrix" values="0 0 0 0 0 0 0 0 0 0 0 0 0 0 0 0 0 0 127 0" result="hardAlpha"/>
<feOffset dx="18.2935" dy="11.4334"/>
<feGaussianBlur stdDeviation="10.2901"/>
<feComposite in2="hardAlpha" operator="out"/>
<feColorMatrix type="matrix" values="0 0 0 0 0.95 0 0 0 0 0.95 0 0 0 0 0.95 0 0 0 1 0"/>
<feBlend mode="normal" in2="BackgroundImageFix" result="effect1_dropShadow_612_516"/>
<feBlend mode="normal" in="SourceGraphic" in2="effect1_dropShadow_612_516" result="shape"/>
</filter>
<linearGradient id="paint0_linear_612_516" x1="171.816" y1="0.0458984" x2="171.816" y2="160.184" gradientUnits="userSpaceOnUse">
<stop stop-color="#E8E8E8"/>
<stop offset="1" stop-color="#EDF0F1" stop-opacity="0"/>
</linearGradient>
<linearGradient id="paint1_linear_612_516" x1="172.099" y1="65.2164" x2="172.099" y2="140.105" gradientUnits="userSpaceOnUse">
<stop offset="0.38808" stop-color="#7BFFE7"/>
<stop offset="0.701366" stop-color="#7BFFE7" stop-opacity="0"/>
</linearGradient>
</defs>
</svg>
