<svg width="233" height="124" viewBox="0 0 233 124" fill="none" xmlns="http://www.w3.org/2000/svg">
<g filter="url(#filter0_b_612_772)">
<rect y="23.209" width="233" height="100.244" rx="8" fill="white" fill-opacity="0.88"/>
<rect x="0.5" y="23.709" width="232" height="99.2443" rx="7.5" stroke="url(#paint0_linear_612_772)" stroke-dasharray="4 4"/>
<rect x="0.5" y="23.709" width="232" height="99.2443" rx="7.5" stroke="#7A7A7A" stroke-dasharray="4 4"/>
</g>
<path d="M12 8C12 3.58172 15.5817 0 20 0L93 0C97.4183 0 101 3.58172 101 8V23L12 23L12 8Z" fill="#328F4C"/>
<path d="M28.8746 7.744L28.8746 16H30.0626L30.0626 12.604L34.1906 12.604V11.488H30.0626V8.86H34.7906V7.744L28.8746 7.744ZM36.0197 7.744V16H37.1477V7.564L36.0197 7.744ZM44.1365 15.556V14.56C43.6685 14.824 42.7925 15.052 41.9405 15.052C40.6085 15.052 39.7445 14.44 39.6605 13.168H44.2685V12.64C44.2685 10.66 43.2725 9.508 41.5325 9.508C39.7565 9.508 38.5205 10.744 38.5205 12.82C38.5205 14.98 39.8885 16.12 41.8325 16.12C42.7085 16.12 43.6805 15.892 44.1365 15.556ZM41.4725 10.48C42.5885 10.48 43.1405 11.2 43.1645 12.4H39.6485C39.7085 11.188 40.4165 10.48 41.4725 10.48ZM49.7674 16H51.0634L48.7954 12.772L51.0394 9.64H49.7554L48.0154 12.16L46.2754 9.64H44.9794L47.2354 12.784L44.9674 16L46.2514 16L48.0154 13.372L49.7674 16ZM52.6861 8.752C53.1781 8.752 53.4901 8.488 53.4901 8.092C53.4901 7.684 53.1781 7.42 52.6861 7.42C52.1941 7.42 51.8701 7.684 51.8701 8.092C51.8701 8.488 52.1941 8.752 52.6861 8.752ZM52.1101 9.64V16H53.2381V9.64H52.1101ZM56.0852 7.564L54.9572 7.744V15.616C55.6052 15.856 56.3972 16.12 57.5012 16.12C59.2652 16.12 60.7892 15.028 60.7892 12.688C60.7892 10.624 59.6012 9.52 58.0652 9.52C57.2252 9.52 56.5172 9.856 56.0852 10.168V7.564ZM57.7532 10.552C58.8332 10.552 59.6252 11.32 59.6252 12.748C59.6252 14.416 58.7012 15.112 57.4532 15.112C56.9132 15.112 56.4692 15.016 56.0852 14.896V11.068C56.4692 10.816 57.0572 10.552 57.7532 10.552ZM62.1642 7.744V16H63.2922V7.564L62.1642 7.744ZM70.281 15.556V14.56C69.813 14.824 68.937 15.052 68.085 15.052C66.753 15.052 65.889 14.44 65.805 13.168L70.413 13.168V12.64C70.413 10.66 69.417 9.508 67.677 9.508C65.901 9.508 64.665 10.744 64.665 12.82C64.665 14.98 66.033 16.12 67.977 16.12C68.853 16.12 69.825 15.892 70.281 15.556ZM67.617 10.48C68.733 10.48 69.285 11.2 69.309 12.4L65.793 12.4C65.853 11.188 66.561 10.48 67.617 10.48ZM81.4515 7.744H80.2155V12.592C80.2155 14.044 79.5195 14.944 78.0195 14.944C76.5195 14.944 75.8235 14.044 75.8235 12.592V7.744H74.5875V12.58C74.5875 14.68 75.6195 16.12 78.0195 16.12C80.4195 16.12 81.4515 14.68 81.4515 12.58V7.744ZM83.3317 7.744V16H84.5197V7.744H83.3317Z" fill="#EFE7E7"/>
<mask id="mask0_612_772" style="mask-type:alpha" maskUnits="userSpaceOnUse" x="15" y="45" width="16" height="17">
<ellipse cx="23" cy="53.4696" rx="8" ry="7.5656" transform="rotate(-180 23 53.4696)" fill="#3FCA66"/>
</mask>
<g mask="url(#mask0_612_772)">
<rect width="10.2984" height="1.38897" rx="0.694487" transform="matrix(-0.738409 -0.674354 0.714462 -0.699674 23.0508 65.0413)" fill="#3FCA66"/>
<rect width="8.58702" height="1.38897" rx="0.694487" transform="matrix(-0.738409 -0.674354 0.714462 -0.699674 24.4414 63.6816)" fill="#3FCA66"/>
<rect width="6.85476" height="1.38897" rx="0.694487" transform="matrix(-0.738409 -0.674354 0.714462 -0.699674 25.8301 62.3201)" fill="#3FCA66"/>
<rect width="6.63479" height="1.38897" rx="0.694487" transform="matrix(-0.738409 -0.674354 0.714462 -0.699674 24.3672 50.4668)" fill="#3FCA66"/>
<rect width="8.61919" height="1.38897" rx="0.694487" transform="matrix(-0.738409 -0.674354 0.714462 -0.699674 27.2207 50.4436)" fill="#3FCA66"/>
<rect width="10.2984" height="1.38897" rx="0.694487" transform="matrix(-0.738409 -0.674354 0.714462 -0.699674 29.8496 50.215)" fill="#3FCA66"/>
<rect width="16.1435" height="1.38897" rx="0.694487" transform="matrix(-0.738409 -0.674354 0.714462 -0.699674 20.8555 55.4902)" fill="#3FCA66"/>
<rect width="16.1435" height="1.38897" rx="0.694487" transform="matrix(-0.738409 -0.674354 0.714462 -0.699674 28.6094 59.5996)" fill="#3FCA66"/>
<rect width="16.1435" height="1.38897" rx="0.694487" transform="matrix(-0.738409 -0.674354 0.714462 -0.699674 35.4434 63.0566)" fill="#3FCA66"/>
</g>
<path d="M47.82 50.9169V57.7969H48.81V55.4569H50.62C52.14 55.4569 53.21 54.6769 53.21 53.2069C53.21 51.6569 52.14 50.9169 50.62 50.9169H47.82ZM50.55 51.8469C51.51 51.8469 52.17 52.2369 52.17 53.2069C52.17 54.1169 51.51 54.5369 50.55 54.5369H48.81V51.8469H50.55ZM57.5132 57.8969C59.5132 57.8969 61.0132 56.4369 61.0132 54.3669C61.0132 52.2769 59.5132 50.8169 57.5132 50.8169C55.5132 50.8169 54.0032 52.2769 54.0032 54.3669C54.0032 56.4369 55.5132 57.8969 57.5132 57.8969ZM57.5132 56.9069C56.1032 56.9069 55.0432 55.8869 55.0432 54.3669C55.0432 52.8369 56.1032 51.8069 57.5132 51.8069C58.9232 51.8069 59.9832 52.8369 59.9832 54.3669C59.9832 55.8869 58.9232 56.9069 57.5132 56.9069ZM66.0924 56.0669C66.0924 56.6169 65.6824 56.9869 64.7124 56.9869C63.7524 56.9869 62.6824 56.5769 62.0424 56.1269V57.1569C62.5824 57.5269 63.5524 57.8969 64.6724 57.8969C66.0624 57.8969 67.1024 57.2469 67.1024 56.0169C67.1024 54.7469 66.2324 54.3769 65.0824 54.0269L64.3324 53.7969C63.5324 53.5369 62.9524 53.3369 62.9524 52.6769C62.9524 52.1269 63.4324 51.7469 64.3124 51.7469C65.2324 51.7469 66.1724 52.1469 66.7124 52.5169V51.4469C66.2924 51.1569 65.4724 50.8069 64.3424 50.8069C63.0124 50.8069 61.9124 51.4869 61.9124 52.7569C61.9124 53.9869 62.8624 54.3869 63.8524 54.6769L64.7524 54.9469C65.6024 55.2169 66.0924 55.4469 66.0924 56.0669ZM67.5783 51.8469H69.8783V57.7969H70.8683V51.8469H73.1683V50.9169H67.5783V51.8469ZM76.4859 57.9969L79.8459 50.3969H79.0159L75.6559 57.9969H76.4859ZM80.6883 50.9169V57.7969H81.6283V50.7669L80.6883 50.9169ZM87.4523 57.4269V56.5969C87.0623 56.8169 86.3323 57.0069 85.6223 57.0069C84.5123 57.0069 83.7923 56.4969 83.7223 55.4369H87.5623V54.9969C87.5623 53.3469 86.7323 52.3869 85.2823 52.3869C83.8023 52.3869 82.7723 53.4169 82.7723 55.1469C82.7723 56.9469 83.9123 57.8969 85.5323 57.8969C86.2623 57.8969 87.0723 57.7069 87.4523 57.4269ZM85.2323 53.1969C86.1623 53.1969 86.6223 53.7969 86.6423 54.7969H83.7123C83.7623 53.7869 84.3523 53.1969 85.2323 53.1969ZM93.3247 56.9669V52.8369C92.8347 52.6369 92.1847 52.3969 91.3147 52.3969C89.7947 52.3969 88.5047 53.3169 88.5047 55.1269C88.5047 56.5669 89.4347 57.4169 90.7647 57.4169C91.4847 57.4169 92.0347 57.1269 92.3847 56.8569V57.0869C92.3847 58.0569 91.8147 58.5969 90.7247 58.5969C89.9347 58.5969 89.2747 58.2969 88.7947 57.9669V58.9269C89.2347 59.1969 89.9547 59.4769 90.8147 59.4769C92.1947 59.4769 93.3247 58.7569 93.3247 56.9669ZM89.4647 55.0169C89.4647 53.8569 90.2347 53.2369 91.3047 53.2369C91.7547 53.2369 92.0947 53.3269 92.3847 53.4369V56.1069C92.0747 56.3269 91.5747 56.5669 90.9947 56.5669C90.1047 56.5669 89.4647 56.0569 89.4647 55.0169ZM97.8417 54.5769V55.0569C97.6017 54.9669 97.1917 54.8669 96.6717 54.8669C95.3117 54.8669 94.4317 55.5469 94.4317 56.4769C94.4317 57.3569 95.0417 57.8969 96.1117 57.8969C96.9017 57.8969 97.5217 57.5069 97.9017 57.0969V57.7969H98.7817V54.5669C98.7817 52.9869 97.7817 52.3969 96.6317 52.3969C95.6517 52.3969 94.8417 52.8569 94.4917 53.2169V54.1869C94.9417 53.7269 95.6817 53.3269 96.5117 53.3269C97.2217 53.3269 97.8417 53.6769 97.8417 54.5769ZM95.3117 56.4369C95.3117 55.8869 95.8517 55.5169 96.9017 55.5169C97.2417 55.5169 97.6017 55.5769 97.8417 55.6469V56.5469C97.4317 56.8869 96.8617 57.1669 96.2617 57.1669C95.7317 57.1669 95.3117 56.9569 95.3117 56.4369ZM100.132 50.9169V57.7969H101.072V50.7669L100.132 50.9169ZM101.706 57.9969V58.6669H106.056V57.9969H101.706ZM111.124 57.4269V56.5969C110.734 56.8169 110.004 57.0069 109.294 57.0069C108.184 57.0069 107.464 56.4969 107.394 55.4369H111.234V54.9969C111.234 53.3469 110.404 52.3869 108.954 52.3869C107.474 52.3869 106.444 53.4169 106.444 55.1469C106.444 56.9469 107.584 57.8969 109.204 57.8969C109.934 57.8969 110.744 57.7069 111.124 57.4269ZM108.904 53.1969C109.834 53.1969 110.294 53.7969 110.314 54.7969H107.384C107.434 53.7869 108.024 53.1969 108.904 53.1969ZM112.427 52.4969V57.7969H113.367V53.7769C113.737 53.5569 114.337 53.2969 114.957 53.2969C115.737 53.2969 116.207 53.7369 116.207 54.6069V57.7969H117.147V54.3969C117.147 53.0969 116.477 52.3969 115.307 52.3969C114.437 52.3969 113.757 52.7969 113.307 53.1669V52.4969H112.427ZM121.671 57.5669V56.7569C121.431 56.9069 121.041 57.0469 120.621 57.0469C120.081 57.0469 119.761 56.8069 119.761 56.1969V53.3269H121.631V52.4969H119.761V51.4969H119.541L118.011 53.0869V53.3269H118.821V56.2969C118.821 57.5769 119.561 57.8969 120.391 57.8969C120.981 57.8969 121.411 57.7369 121.671 57.5669ZM123.19 51.7569C123.6 51.7569 123.86 51.5369 123.86 51.2069C123.86 50.8669 123.6 50.6469 123.19 50.6469C122.78 50.6469 122.51 50.8669 122.51 51.2069C122.51 51.5369 122.78 51.7569 123.19 51.7569ZM122.71 52.4969V57.7969H123.65V52.4969H122.71ZM128.243 57.5669V56.7569C128.003 56.9069 127.613 57.0469 127.193 57.0469C126.653 57.0469 126.333 56.8069 126.333 56.1969V53.3269H128.203V52.4969H126.333V51.4969H126.113L124.583 53.0869V53.3269H125.393V56.2969C125.393 57.5769 126.133 57.8969 126.963 57.8969C127.553 57.8969 127.983 57.7369 128.243 57.5669ZM129.763 51.7569C130.173 51.7569 130.433 51.5369 130.433 51.2069C130.433 50.8669 130.173 50.6469 129.763 50.6469C129.353 50.6469 129.083 50.8669 129.083 51.2069C129.083 51.5369 129.353 51.7569 129.763 51.7569ZM129.283 52.4969V57.7969H130.223V52.4969H129.283ZM136.085 57.4269V56.5969C135.695 56.8169 134.965 57.0069 134.255 57.0069C133.145 57.0069 132.425 56.4969 132.355 55.4369H136.195V54.9969C136.195 53.3469 135.365 52.3869 133.915 52.3869C132.435 52.3869 131.405 53.4169 131.405 55.1469C131.405 56.9469 132.545 57.8969 134.165 57.8969C134.895 57.8969 135.705 57.7069 136.085 57.4269ZM133.865 53.1969C134.795 53.1969 135.255 53.7969 135.275 54.7969H132.345C132.395 53.7869 132.985 53.1969 133.865 53.1969ZM139.758 54.9269L139.108 54.7369C138.428 54.5369 137.988 54.3769 137.988 53.8969C137.988 53.4469 138.438 53.2269 138.998 53.2269C139.748 53.2269 140.558 53.5269 140.938 53.8169V52.8769C140.568 52.6269 139.808 52.3869 139.048 52.3869C137.818 52.3869 137.078 53.0469 137.078 53.9269C137.078 54.8469 137.748 55.2369 138.538 55.4369L139.208 55.6369C139.888 55.8169 140.288 55.9669 140.288 56.4269C140.288 56.9269 139.898 57.1069 139.268 57.1069C138.448 57.1069 137.618 56.7869 137.128 56.4769V57.3969C137.528 57.6469 138.378 57.9369 139.228 57.9369C140.418 57.9369 141.178 57.4069 141.178 56.4069C141.178 55.5869 140.608 55.1669 139.758 54.9269ZM142.501 57.9969L145.861 50.3969H145.031L141.671 57.9969H142.501ZM146.574 50.9169L146.234 51.7869H147.494V57.7969H148.454V50.9169H146.574ZM154.515 57.7969V56.9169H150.915L153.005 54.9769C153.765 54.2769 154.435 53.6469 154.435 52.6669C154.435 51.5269 153.585 50.8169 152.335 50.8169C151.175 50.8169 150.275 51.4169 149.895 51.7369V52.7569C150.375 52.3169 151.255 51.7069 152.255 51.7069C153.025 51.7069 153.445 52.1169 153.445 52.7169C153.445 53.3169 153.045 53.7469 152.335 54.4369L149.655 57.0669V57.7969H154.515ZM155.259 56.2169V57.2069C155.729 57.5469 156.529 57.8969 157.549 57.8969C159.299 57.8969 160.219 56.9269 160.219 55.7769C160.219 54.5769 159.339 53.7869 157.959 53.7869H157.359L159.939 51.8169V50.9169H155.449V51.7969H158.629L156.179 53.8869V54.5069H157.669C158.669 54.5069 159.239 54.9769 159.239 55.7269C159.239 56.4669 158.639 57.0169 157.449 57.0169C156.499 57.0169 155.669 56.5769 155.259 56.2169ZM164.704 50.9169L160.874 55.5869V56.3169H164.704V57.7969H165.664V56.3169H166.984V55.4469H165.664V50.9169H164.704ZM161.984 55.4469L164.704 52.1169V55.4469H161.984ZM168.385 50.9169L168.015 54.4569H169.995C171.015 54.4569 171.825 54.7869 171.825 55.7669C171.825 56.6569 171.095 57.0169 170.215 57.0169C169.205 57.0169 168.265 56.5369 167.775 56.1369V57.1269C168.215 57.4469 169.105 57.8969 170.275 57.8969C171.675 57.8969 172.815 57.1869 172.815 55.7669C172.815 54.2369 171.705 53.5769 170.245 53.5769H169.025L169.235 51.7969H172.405V50.9169H168.385ZM178.992 55.4669C178.992 54.0569 177.992 53.2069 176.692 53.2069C175.882 53.2069 175.272 53.5069 174.872 53.8669C175.472 52.5169 176.932 51.3869 177.712 50.9169H176.332C175.312 51.5269 173.652 53.1169 173.652 55.0869C173.652 56.8969 174.742 57.8969 176.342 57.8969C177.912 57.8969 178.992 56.9369 178.992 55.4669ZM174.642 55.1169C174.642 54.9669 174.662 54.8369 174.692 54.6969C175.122 54.3069 175.742 54.0169 176.482 54.0169C177.342 54.0169 178.012 54.5169 178.012 55.4869C178.012 56.4469 177.332 57.0169 176.372 57.0169C175.392 57.0169 174.642 56.4069 174.642 55.1169ZM48.12 66.5969C48.55 66.4969 48.99 66.1669 48.99 65.5769V63.8369C48.99 63.5269 49.19 63.4169 49.41 63.4169C49.62 63.4169 49.79 63.4869 49.95 63.5769V62.7869C49.79 62.7069 49.5 62.6069 49.17 62.6069C48.58 62.6069 48.11 62.9469 48.11 63.5869V65.5169C48.11 65.9969 47.77 66.1069 47.37 66.1969L47.15 66.2469V66.9469L47.37 66.9969C47.77 67.0869 48.11 67.1969 48.11 67.6769V69.6169C48.11 70.2469 48.58 70.5869 49.17 70.5969C49.5 70.5869 49.79 70.4869 49.95 70.4069V69.6169C49.79 69.7069 49.62 69.7769 49.41 69.7869C49.19 69.7769 48.99 69.6669 48.99 69.3669V67.6169C48.99 67.0269 48.55 66.6969 48.12 66.5969ZM57.7753 76.9769H58.7253L59.1153 74.9169H58.4353L57.7753 76.9769ZM56.1853 76.9769H57.1353L57.5353 74.9169H56.8453L56.1853 76.9769ZM64.3509 76.7969C63.9509 76.5269 63.3809 76.3869 62.7709 76.3869C61.1509 76.3869 59.9109 77.4869 59.9109 79.1469C59.9109 80.7569 61.1409 81.8969 62.7609 81.8969C63.3809 81.8969 63.9509 81.7469 64.3509 81.4769V80.5369C63.9509 80.8269 63.3909 81.0069 62.7909 81.0069C61.6709 81.0069 60.8509 80.2669 60.8509 79.1469C60.8509 77.9969 61.6709 77.2769 62.8009 77.2769C63.3909 77.2769 63.9509 77.4469 64.3509 77.7369V76.7969ZM67.9539 81.8969C69.5439 81.8969 70.7039 80.7069 70.7039 79.1469C70.7039 77.5669 69.5439 76.3969 67.9539 76.3969C66.3639 76.3969 65.2039 77.5669 65.2039 79.1469C65.2039 80.7069 66.3639 81.8969 67.9539 81.8969ZM67.9539 81.0169C66.9139 81.0169 66.1339 80.2169 66.1339 79.1469C66.1339 78.0569 66.9139 77.2769 67.9539 77.2769C69.0039 77.2769 69.7739 78.0569 69.7739 79.1469C69.7739 80.2269 69.0039 81.0169 67.9539 81.0169ZM74.0004 80.9969C73.2204 80.9969 72.7504 80.5569 72.7504 79.6869V76.4969H71.8104V79.8969C71.8104 81.1969 72.4804 81.8969 73.6404 81.8969C74.5204 81.8969 75.2004 81.4969 75.6504 81.1269V81.7969H76.5304V76.4969H75.5904V80.5069C75.2104 80.7369 74.6204 80.9969 74.0004 80.9969ZM77.9344 76.4969V81.7969H78.8744V77.7769C79.2444 77.5569 79.8444 77.2969 80.4644 77.2969C81.2444 77.2969 81.7144 77.7369 81.7144 78.6069V81.7969H82.6544V78.3969C82.6544 77.0969 81.9844 76.3969 80.8144 76.3969C79.9444 76.3969 79.2644 76.7969 78.8144 77.1669V76.4969H77.9344ZM87.1784 81.5669V80.7569C86.9384 80.9069 86.5484 81.0469 86.1284 81.0469C85.5884 81.0469 85.2684 80.8069 85.2684 80.1969V77.3269H87.1384V76.4969H85.2684V75.4969H85.0484L83.5184 77.0869V77.3269H84.3284V80.2969C84.3284 81.5769 85.0684 81.8969 85.8984 81.8969C86.4884 81.8969 86.9184 81.7369 87.1784 81.5669ZM88.198 76.4969V81.7969H89.138V77.8569C89.498 77.5869 90.048 77.2969 90.568 77.2969C90.948 77.2969 91.258 77.4069 91.488 77.5469V76.5569C91.298 76.4569 91.078 76.3969 90.848 76.3969C90.138 76.3969 89.488 76.8469 89.078 77.2569V76.4969H88.198ZM93.1482 83.4769C93.8482 83.4769 94.4182 83.1069 94.8182 82.1769L97.3182 76.4969H96.2782L94.5982 80.5969L92.8682 76.4969H91.8182L94.1582 81.6469L93.9782 82.0369C93.8082 82.3969 93.4982 82.6169 93.0982 82.6169C92.5482 82.6169 92.1182 82.2969 91.9282 82.0969V83.0269C92.1382 83.2169 92.5782 83.4769 93.1482 83.4769ZM99.012 74.9169H98.072L97.672 76.9769H98.362L99.012 74.9169ZM100.602 74.9169H99.662L99.262 76.9769H99.952L100.602 74.9169ZM101.788 78.3869C102.148 78.3869 102.448 78.0969 102.448 77.7369C102.448 77.3769 102.148 77.0769 101.788 77.0769C101.438 77.0769 101.138 77.3769 101.138 77.7369C101.138 78.0969 101.438 78.3869 101.788 78.3869ZM101.788 81.8969C102.148 81.8969 102.448 81.6069 102.448 81.2469C102.448 80.8869 102.148 80.5869 101.788 80.5869C101.438 80.5869 101.138 80.8869 101.138 81.2469C101.138 81.6069 101.438 81.8969 101.788 81.8969ZM104.422 74.9169H103.482L103.082 76.9769H103.772L104.422 74.9169ZM106.012 74.9169H105.072L104.672 76.9769H105.362L106.012 74.9169ZM109.108 80.9969C108.328 80.9969 107.858 80.5569 107.858 79.6869V76.4969H106.918V79.8969C106.918 81.1969 107.588 81.8969 108.748 81.8969C109.628 81.8969 110.308 81.4969 110.758 81.1269V81.7969H111.638V76.4969H110.698V80.5069C110.318 80.7369 109.728 80.9969 109.108 80.9969ZM115.412 78.9269L114.762 78.7369C114.082 78.5369 113.642 78.3769 113.642 77.8969C113.642 77.4469 114.092 77.2269 114.652 77.2269C115.402 77.2269 116.212 77.5269 116.592 77.8169V76.8769C116.222 76.6269 115.462 76.3869 114.702 76.3869C113.472 76.3869 112.732 77.0469 112.732 77.9269C112.732 78.8469 113.402 79.2369 114.192 79.4369L114.862 79.6369C115.542 79.8169 115.942 79.9669 115.942 80.4269C115.942 80.9269 115.552 81.1069 114.922 81.1069C114.102 81.1069 113.272 80.7869 112.782 80.4769V81.3969C113.182 81.6469 114.032 81.9369 114.882 81.9369C116.072 81.9369 116.832 81.4069 116.832 80.4069C116.832 79.5869 116.262 79.1669 115.412 78.9269ZM118.856 74.9169H117.916L117.516 76.9769H118.206L118.856 74.9169ZM120.446 74.9169H119.506L119.106 76.9769H119.796L120.446 74.9169ZM122.181 80.6569H121.171L120.601 82.9769H121.371L122.181 80.6569ZM57.7753 88.9769H58.7253L59.1153 86.9169H58.4353L57.7753 88.9769ZM56.1853 88.9769H57.1353L57.5353 86.9169H56.8453L56.1853 88.9769ZM64.5909 93.4269V92.5969C64.2009 92.8169 63.4709 93.0069 62.7609 93.0069C61.6509 93.0069 60.9309 92.4969 60.8609 91.4369H64.7009V90.9969C64.7009 89.3469 63.8709 88.3869 62.4209 88.3869C60.9409 88.3869 59.9109 89.4169 59.9109 91.1469C59.9109 92.9469 61.0509 93.8969 62.6709 93.8969C63.4009 93.8969 64.2109 93.7069 64.5909 93.4269ZM62.3709 89.1969C63.3009 89.1969 63.7609 89.7969 63.7809 90.7969H60.8509C60.9009 89.7869 61.4909 89.1969 62.3709 89.1969ZM65.8934 88.4969V93.7969H66.8334V89.7769C67.2034 89.5569 67.8034 89.2969 68.4234 89.2969C69.2034 89.2969 69.6734 89.7369 69.6734 90.6069V93.7969H70.6134V90.3969C70.6134 89.0969 69.9434 88.3969 68.7734 88.3969C67.9034 88.3969 67.2234 88.7969 66.7734 89.1669V88.4969H65.8934ZM75.1373 93.5669V92.7569C74.8973 92.9069 74.5073 93.0469 74.0873 93.0469C73.5473 93.0469 73.2273 92.8069 73.2273 92.1969V89.3269H75.0973V88.4969H73.2273V87.4969H73.0073L71.4773 89.0869V89.3269H72.2873V92.2969C72.2873 93.5769 73.0273 93.8969 73.8573 93.8969C74.4473 93.8969 74.8773 93.7369 75.1373 93.5669ZM76.657 87.7569C77.067 87.7569 77.327 87.5369 77.327 87.2069C77.327 86.8669 77.067 86.6469 76.657 86.6469C76.247 86.6469 75.977 86.8669 75.977 87.2069C75.977 87.5369 76.247 87.7569 76.657 87.7569ZM76.177 88.4969V93.7969H77.117V88.4969H76.177ZM81.7096 93.5669V92.7569C81.4696 92.9069 81.0796 93.0469 80.6596 93.0469C80.1196 93.0469 79.7996 92.8069 79.7996 92.1969V89.3269H81.6696V88.4969H79.7996V87.4969H79.5796L78.0496 89.0869V89.3269H78.8596V92.2969C78.8596 93.5769 79.5996 93.8969 80.4296 93.8969C81.0196 93.8969 81.4496 93.7369 81.7096 93.5669ZM83.5193 95.4769C84.2193 95.4769 84.7893 95.1069 85.1893 94.1769L87.6893 88.4969H86.6493L84.9693 92.5969L83.2393 88.4969H82.1893L84.5293 93.6469L84.3493 94.0369C84.1793 94.3969 83.8693 94.6169 83.4693 94.6169C82.9193 94.6169 82.4893 94.2969 82.2993 94.0969V95.0269C82.5093 95.2169 82.9493 95.4769 83.5193 95.4769ZM87.6431 93.9969V94.6669H91.9931V93.9969H87.6431ZM96.8216 88.7969C96.4216 88.5269 95.8516 88.3869 95.2416 88.3869C93.6216 88.3869 92.3816 89.4869 92.3816 91.1469C92.3816 92.7569 93.6116 93.8969 95.2316 93.8969C95.8516 93.8969 96.4216 93.7469 96.8216 93.4769V92.5369C96.4216 92.8269 95.8616 93.0069 95.2616 93.0069C94.1416 93.0069 93.3216 92.2669 93.3216 91.1469C93.3216 89.9969 94.1416 89.2769 95.2716 89.2769C95.8616 89.2769 96.4216 89.4469 96.8216 89.7369V88.7969ZM100.425 93.8969C102.015 93.8969 103.175 92.7069 103.175 91.1469C103.175 89.5669 102.015 88.3969 100.425 88.3969C98.8346 88.3969 97.6746 89.5669 97.6746 91.1469C97.6746 92.7069 98.8346 93.8969 100.425 93.8969ZM100.425 93.0169C99.3846 93.0169 98.6046 92.2169 98.6046 91.1469C98.6046 90.0569 99.3846 89.2769 100.425 89.2769C101.475 89.2769 102.245 90.0569 102.245 91.1469C102.245 92.2269 101.475 93.0169 100.425 93.0169ZM106.471 92.9969C105.691 92.9969 105.221 92.5569 105.221 91.6869V88.4969H104.281V91.8969C104.281 93.1969 104.951 93.8969 106.111 93.8969C106.991 93.8969 107.671 93.4969 108.121 93.1269V93.7969H109.001V88.4969H108.061V92.5069C107.681 92.7369 107.091 92.9969 106.471 92.9969ZM110.405 88.4969V93.7969H111.345V89.7769C111.715 89.5569 112.315 89.2969 112.935 89.2969C113.715 89.2969 114.185 89.7369 114.185 90.6069V93.7969H115.125V90.3969C115.125 89.0969 114.455 88.3969 113.285 88.3969C112.415 88.3969 111.735 88.7969 111.285 89.1669V88.4969H110.405ZM119.649 93.5669V92.7569C119.409 92.9069 119.019 93.0469 118.599 93.0469C118.059 93.0469 117.739 92.8069 117.739 92.1969V89.3269H119.609V88.4969H117.739V87.4969H117.519L115.989 89.0869V89.3269H116.799V92.2969C116.799 93.5769 117.539 93.8969 118.369 93.8969C118.959 93.8969 119.389 93.7369 119.649 93.5669ZM120.669 88.4969V93.7969H121.609V89.8569C121.969 89.5869 122.519 89.2969 123.039 89.2969C123.419 89.2969 123.729 89.4069 123.959 89.5469V88.5569C123.769 88.4569 123.549 88.3969 123.319 88.3969C122.609 88.3969 121.959 88.8469 121.549 89.2569V88.4969H120.669ZM125.619 95.4769C126.319 95.4769 126.889 95.1069 127.289 94.1769L129.789 88.4969H128.749L127.069 92.5969L125.339 88.4969H124.289L126.629 93.6469L126.449 94.0369C126.279 94.3969 125.969 94.6169 125.569 94.6169C125.019 94.6169 124.589 94.2969 124.399 94.0969V95.0269C124.609 95.2169 125.049 95.4769 125.619 95.4769ZM129.743 93.9969V94.6669H134.093V93.9969H129.743ZM135.231 87.7569C135.641 87.7569 135.901 87.5369 135.901 87.2069C135.901 86.8669 135.641 86.6469 135.231 86.6469C134.821 86.6469 134.551 86.8669 134.551 87.2069C134.551 87.5369 134.821 87.7569 135.231 87.7569ZM134.751 88.4969V93.7969H135.691V88.4969H134.751ZM137.124 88.4969V93.7969H138.064V89.7769C138.434 89.5569 139.034 89.2969 139.654 89.2969C140.434 89.2969 140.904 89.7369 140.904 90.6069V93.7969H141.844V90.3969C141.844 89.0969 141.174 88.3969 140.004 88.3969C139.134 88.3969 138.454 88.7969 138.004 89.1669V88.4969H137.124ZM142.748 89.3269H143.518V93.7969H144.458V89.3269H145.868V88.4969H144.458V88.4769C144.458 87.8769 144.818 87.5369 145.368 87.5369C145.768 87.5369 146.148 87.6869 146.368 87.8569V87.0669C146.188 86.9469 145.788 86.7569 145.258 86.7569C144.318 86.7569 143.518 87.2869 143.518 88.4869V88.4969H142.748V89.3269ZM149.409 93.8969C150.999 93.8969 152.159 92.7069 152.159 91.1469C152.159 89.5669 150.999 88.3969 149.409 88.3969C147.819 88.3969 146.659 89.5669 146.659 91.1469C146.659 92.7069 147.819 93.8969 149.409 93.8969ZM149.409 93.0169C148.369 93.0169 147.589 92.2169 147.589 91.1469C147.589 90.0569 148.369 89.2769 149.409 89.2769C150.459 89.2769 151.229 90.0569 151.229 91.1469C151.229 92.2269 150.459 93.0169 149.409 93.0169ZM154.285 86.9169H153.345L152.945 88.9769H153.635L154.285 86.9169ZM155.875 86.9169H154.935L154.535 88.9769H155.225L155.875 86.9169ZM157.061 90.3869C157.421 90.3869 157.721 90.0969 157.721 89.7369C157.721 89.3769 157.421 89.0769 157.061 89.0769C156.711 89.0769 156.411 89.3769 156.411 89.7369C156.411 90.0969 156.711 90.3869 157.061 90.3869ZM157.061 93.8969C157.421 93.8969 157.721 93.6069 157.721 93.2469C157.721 92.8869 157.421 92.5869 157.061 92.5869C156.711 92.5869 156.411 92.8869 156.411 93.2469C156.411 93.6069 156.711 93.8969 157.061 93.8969ZM159.136 90.5969C159.566 90.4969 160.006 90.1669 160.006 89.5769V87.8369C160.006 87.5269 160.206 87.4169 160.426 87.4169C160.636 87.4169 160.806 87.4869 160.966 87.5769V86.7869C160.806 86.7069 160.516 86.6069 160.186 86.6069C159.596 86.6069 159.126 86.9469 159.126 87.5869V89.5169C159.126 89.9969 158.786 90.1069 158.386 90.1969L158.166 90.2469V90.9469L158.386 90.9969C158.786 91.0869 159.126 91.1969 159.126 91.6769V93.6169C159.126 94.2469 159.596 94.5869 160.186 94.5969C160.516 94.5869 160.806 94.4869 160.966 94.4069V93.6169C160.806 93.7069 160.636 93.7769 160.426 93.7869C160.206 93.7769 160.006 93.6669 160.006 93.3669V91.6169C160.006 91.0269 159.566 90.6969 159.136 90.5969ZM162.129 93.8969C162.489 93.8969 162.789 93.6069 162.789 93.2469C162.789 92.8869 162.489 92.5869 162.129 92.5869C161.779 92.5869 161.479 92.8869 161.479 93.2469C161.479 93.6069 161.779 93.8969 162.129 93.8969ZM164.024 93.8969C164.384 93.8969 164.684 93.6069 164.684 93.2469C164.684 92.8869 164.384 92.5869 164.024 92.5869C163.674 92.5869 163.374 92.8869 163.374 93.2469C163.374 93.6069 163.674 93.8969 164.024 93.8969ZM165.919 93.8969C166.279 93.8969 166.579 93.6069 166.579 93.2469C166.579 92.8869 166.279 92.5869 165.919 92.5869C165.569 92.5869 165.269 92.8869 165.269 93.2469C165.269 93.6069 165.569 93.8969 165.919 93.8969ZM168.923 90.5969C168.493 90.6969 168.053 91.0269 168.053 91.6169V93.3669C168.053 93.6669 167.853 93.7769 167.633 93.7869C167.423 93.7769 167.253 93.7069 167.093 93.6169V94.4069C167.253 94.4869 167.543 94.5869 167.873 94.5969C168.463 94.5869 168.933 94.2469 168.933 93.6169V91.6769C168.933 91.1969 169.273 91.0869 169.673 90.9969L169.893 90.9469V90.2469L169.673 90.1969C169.273 90.1069 168.933 89.9969 168.933 89.5169V87.5869C168.933 86.9469 168.463 86.6069 167.873 86.6069C167.543 86.6069 167.253 86.7069 167.093 86.7869V87.5769C167.253 87.4869 167.423 87.4169 167.633 87.4169C167.853 87.4169 168.053 87.5269 168.053 87.8369V89.5769C168.053 90.1669 168.493 90.4969 168.923 90.5969ZM49.05 102.597C48.62 102.697 48.18 103.027 48.18 103.617V105.367C48.18 105.667 47.98 105.777 47.76 105.787C47.55 105.777 47.38 105.707 47.22 105.617V106.407C47.38 106.487 47.67 106.587 48 106.597C48.59 106.587 49.06 106.247 49.06 105.617V103.677C49.06 103.197 49.4 103.087 49.8 102.997L50.02 102.947V102.247L49.8 102.197C49.4 102.107 49.06 101.997 49.06 101.517V99.5869C49.06 98.9469 48.59 98.6069 48 98.6069C47.67 98.6069 47.38 98.7069 47.22 98.7869V99.5769C47.38 99.4869 47.55 99.4169 47.76 99.4169C47.98 99.4169 48.18 99.5269 48.18 99.8369V101.577C48.18 102.167 48.62 102.497 49.05 102.597Z" fill="#2C2C2C"/>
<defs>
<filter id="filter0_b_612_772" x="-6" y="17.209" width="245" height="112.244" filterUnits="userSpaceOnUse" color-interpolation-filters="sRGB">
<feFlood flood-opacity="0" result="BackgroundImageFix"/>
<feGaussianBlur in="BackgroundImageFix" stdDeviation="3"/>
<feComposite in2="SourceAlpha" operator="in" result="effect1_backgroundBlur_612_772"/>
<feBlend mode="normal" in="SourceGraphic" in2="effect1_backgroundBlur_612_772" result="shape"/>
</filter>
<linearGradient id="paint0_linear_612_772" x1="116.5" y1="23.209" x2="116.5" y2="123.453" gradientUnits="userSpaceOnUse">
<stop offset="0.340671" stop-color="#EDF0F1"/>
<stop offset="1" stop-color="white" stop-opacity="0"/>
</linearGradient>
</defs>
</svg>
