<svg width="651" height="448" viewBox="0 0 651 448" fill="none" xmlns="http://www.w3.org/2000/svg">
<g id="Group 11638">
<rect id="Rectangle 427" x="56.5" y="54.5" width="495" height="393" rx="7.5" fill="url(#paint0_linear_612_5844)" stroke="url(#paint1_linear_612_5844)"/>
<g id="Group 11637">
<g id="Group 11293">
<mask id="mask0_612_5844" style="mask-type:alpha" maskUnits="userSpaceOnUse" x="56" y="54" width="496" height="394">
<rect id="Rectangle 430" x="56.5" y="54.5" width="495" height="393" rx="7.5" fill="#0D0A2C" stroke="url(#paint2_linear_612_5844)"/>
</mask>
<g mask="url(#mask0_612_5844)">
<g id="Group 11292">
<path id="Vector 79" d="M59 57C56.6 59.3825 -216 329.993 -352 465" stroke="url(#paint3_linear_612_5844)"/>
<path id="Vector 80" d="M81 57C78.6 59.3825 -194 329.993 -330 465" stroke="url(#paint4_linear_612_5844)"/>
<path id="Vector 81" d="M103 57C100.6 59.3825 -172 329.993 -308 465" stroke="url(#paint5_linear_612_5844)"/>
<path id="Vector 82" d="M125 57C122.6 59.3825 -150 329.993 -286 465" stroke="url(#paint6_linear_612_5844)"/>
<path id="Vector 83" d="M147 57C144.6 59.3825 -128 329.993 -264 465" stroke="url(#paint7_linear_612_5844)"/>
<path id="Vector 84" d="M169 57C166.6 59.3825 -106 329.993 -242 465" stroke="url(#paint8_linear_612_5844)"/>
<path id="Vector 85" d="M191 57C188.6 59.3825 -84 329.993 -220 465" stroke="url(#paint9_linear_612_5844)"/>
<path id="Vector 86" d="M213 57C210.6 59.3825 -62 329.993 -198 465" stroke="url(#paint10_linear_612_5844)"/>
<path id="Vector 87" d="M235 57C232.6 59.3825 -40 329.993 -176 465" stroke="url(#paint11_linear_612_5844)"/>
<path id="Vector 88" d="M257 57C254.6 59.3825 -18 329.993 -154 465" stroke="url(#paint12_linear_612_5844)"/>
<path id="Vector 89" d="M279 57C276.6 59.3825 4 329.993 -132 465" stroke="url(#paint13_linear_612_5844)"/>
<path id="Vector 90" d="M301 57C298.6 59.3825 26 329.993 -110 465" stroke="url(#paint14_linear_612_5844)"/>
<path id="Vector 91" d="M323 57C320.6 59.3825 48 329.993 -88 465" stroke="url(#paint15_linear_612_5844)"/>
<path id="Vector 92" d="M345 57C342.6 59.3825 70 329.993 -66 465" stroke="url(#paint16_linear_612_5844)"/>
<path id="Vector 93" d="M367 57C364.6 59.3825 92 329.993 -44 465" stroke="url(#paint17_linear_612_5844)"/>
<path id="Vector 94" d="M389 57C386.6 59.3825 114 329.993 -22 465" stroke="url(#paint18_linear_612_5844)"/>
<path id="Vector 95" d="M411 57C408.6 59.3825 136 329.993 0 465" stroke="url(#paint19_linear_612_5844)"/>
<path id="Vector 96" d="M433 57C430.6 59.3825 158 329.993 22 465" stroke="url(#paint20_linear_612_5844)"/>
<path id="Vector 97" d="M455 57C452.6 59.3825 180 329.993 44 465" stroke="url(#paint21_linear_612_5844)"/>
<path id="Vector 98" d="M477 57C474.6 59.3825 202 329.993 66 465" stroke="url(#paint22_linear_612_5844)"/>
<path id="Vector 99" d="M499 57C496.6 59.3825 224 329.993 88 465" stroke="url(#paint23_linear_612_5844)"/>
<path id="Vector 100" d="M521 57C518.6 59.3825 246 329.993 110 465" stroke="url(#paint24_linear_612_5844)"/>
<path id="Vector 101" d="M543 57C540.6 59.3825 268 329.993 132 465" stroke="url(#paint25_linear_612_5844)"/>
<path id="Vector 102" d="M565 57C562.6 59.3825 290 329.993 154 465" stroke="url(#paint26_linear_612_5844)"/>
<path id="Vector 103" d="M587 57C584.6 59.3825 312 329.993 176 465" stroke="url(#paint27_linear_612_5844)"/>
<path id="Vector 104" d="M609 57C606.6 59.3825 334 329.993 198 465" stroke="url(#paint28_linear_612_5844)"/>
<path id="Vector 105" d="M631 57C628.6 59.3825 356 329.993 220 465" stroke="url(#paint29_linear_612_5844)"/>
<path id="Vector 106" d="M653 57C650.6 59.3825 378 329.993 242 465" stroke="url(#paint30_linear_612_5844)"/>
<path id="Vector 107" d="M675 57C672.6 59.3825 400 329.993 264 465" stroke="url(#paint31_linear_612_5844)"/>
<path id="Vector 108" d="M697 57C694.6 59.3825 422 329.993 286 465" stroke="url(#paint32_linear_612_5844)"/>
<path id="Vector 109" d="M719 57C716.6 59.3825 444 329.993 308 465" stroke="url(#paint33_linear_612_5844)"/>
<path id="Vector 110" d="M741 57C738.6 59.3825 466 329.993 330 465" stroke="url(#paint34_linear_612_5844)"/>
<path id="Vector 111" d="M763 57C760.6 59.3825 488 329.993 352 465" stroke="url(#paint35_linear_612_5844)"/>
<path id="Vector 112" d="M785 57C782.6 59.3825 510 329.993 374 465" stroke="url(#paint36_linear_612_5844)"/>
<path id="Vector 113" d="M807 57C804.6 59.3825 532 329.993 396 465" stroke="url(#paint37_linear_612_5844)"/>
<path id="Vector 114" d="M829 57C826.6 59.3825 554 329.993 418 465" stroke="url(#paint38_linear_612_5844)"/>
<path id="Vector 115" d="M851 57C848.6 59.3825 576 329.993 440 465" stroke="url(#paint39_linear_612_5844)"/>
<path id="Vector 116" d="M873 57C870.6 59.3825 598 329.993 462 465" stroke="url(#paint40_linear_612_5844)"/>
</g>
</g>
</g>
<g id="Group 11285">
<g id="Group 11280">
<g id="Rectangle 426" filter="url(#filter0_d_612_5844)">
<rect x="79.9995" y="78" width="450" height="235" rx="12" fill="#4F50FA"/>
</g>
<g id="Group 11282">
<mask id="mask1_612_5844" style="mask-type:alpha" maskUnits="userSpaceOnUse" x="0" y="78" width="316" height="235">
<path id="Subtract" fill-rule="evenodd" clip-rule="evenodd" d="M9.9995 150.171C3.5354 167.391 0 186.043 0 205.522C0 225 3.5354 243.653 9.99951 260.873L9.9995 150.171ZM272.68 313C298.96 284.855 315.042 247.066 315.042 205.522C315.042 153.085 289.42 106.632 250.013 78H79.9995L79.9995 313H272.68Z" fill="#D9D9D9"/>
</mask>
<g mask="url(#mask1_612_5844)">
<rect id="Rectangle 1" x="158.496" y="446.438" width="208.153" height="28.1288" rx="1.26937" transform="rotate(-136 158.496 446.438)" fill="#FBFFE1" fill-opacity="0.12"/>
<rect id="Rectangle 2" x="185.871" y="418.113" width="173.562" height="28.1288" rx="1.26937" transform="rotate(-136 185.871 418.113)" fill="#FBFFE1" fill-opacity="0.12"/>
<rect id="Rectangle 3" x="213.222" y="389.777" width="138.549" height="28.1288" rx="1.26937" transform="rotate(-136 213.222 389.777)" fill="#FBFFE1" fill-opacity="0.12"/>
<rect id="Rectangle 7" x="184.396" y="142.969" width="134.103" height="28.1288" rx="1.26937" transform="rotate(-136 184.396 142.969)" fill="#FBFFE1" fill-opacity="0.12"/>
<rect id="Rectangle 8" x="240.609" y="142.504" width="174.212" height="28.1288" rx="1.26937" transform="rotate(-136 240.609 142.504)" fill="#FBFFE1" fill-opacity="0.12"/>
<rect id="Rectangle 9" x="292.367" y="137.744" width="208.153" height="28.1288" rx="1.26937" transform="rotate(-136 292.367 137.744)" fill="#FBFFE1" fill-opacity="0.12"/>
<rect id="Rectangle 4" x="115.246" y="247.578" width="326.294" height="28.1288" rx="1.26937" transform="rotate(-136 115.246 247.578)" fill="#FBFFE1" fill-opacity="0.12"/>
<rect id="Rectangle 5" x="267.939" y="333.125" width="326.294" height="28.1288" rx="1.26937" transform="rotate(-136 267.939 333.125)" fill="#FBFFE1" fill-opacity="0.12"/>
<rect id="Rectangle 6" x="402.488" y="405.102" width="326.294" height="28.1288" rx="1.26937" transform="rotate(-136 402.488 405.102)" fill="#FBFFE1" fill-opacity="0.12"/>
</g>
</g>
<g id="Group 11278">
<g id="Group">
<rect id="Rectangle" x="309" y="128" width="43.5" height="29" rx="5" fill="url(#paint41_radial_612_5844)"/>
<g id="Group_2">
<path id="Path" fill-rule="evenodd" clip-rule="evenodd" d="M330.751 128.289L325.918 135.868C325.918 135.868 327.851 142.499 325.918 148.183L330.751 156.709L335.585 148.183C335.585 148.183 333.651 143.446 335.585 135.868C335.585 135.868 330.751 128.289 330.751 128.289Z" stroke="#C7C7B6" stroke-width="1.3" stroke-linejoin="bevel"/>
<path id="Line 5" d="M309 136.216H325.917" stroke="#C7C7B6" stroke-width="1.3" stroke-linejoin="bevel"/>
<path id="Line 5_2" d="M335.098 136.216H352.498" stroke="#C7C7B6" stroke-width="1.3" stroke-linejoin="bevel"/>
<path id="Line 5_3" d="M309 147.815H325.917" stroke="#C7C7B6" stroke-width="1.3" stroke-linejoin="bevel"/>
<path id="Line 5_4" d="M335.098 147.815H352.498" stroke="#C7C7B6" stroke-width="1.3" stroke-linejoin="bevel"/>
</g>
</g>
<path id="Classic" d="M314.248 118.088C315.056 118.088 315.616 117.872 316.096 117.584V116.76C315.664 117.064 315.064 117.344 314.28 117.344C313.08 117.344 312.208 116.504 312.208 115.256C312.208 114.008 313.08 113.16 314.28 113.16C315.064 113.16 315.664 113.44 316.096 113.744V112.92C315.616 112.632 315.056 112.416 314.248 112.416C312.608 112.416 311.376 113.592 311.376 115.256C311.376 116.92 312.608 118.088 314.248 118.088ZM316.984 112.496V118H320.808V117.256H317.776V112.496H316.984ZM321.857 118L322.529 116.368H325.105L325.777 118H326.657L324.337 112.496H323.313L321.001 118H321.857ZM323.825 113.24L324.825 115.672H322.817L323.825 113.24ZM330.368 116.616C330.368 117.056 330.04 117.352 329.264 117.352C328.496 117.352 327.64 117.024 327.128 116.664V117.488C327.56 117.784 328.336 118.08 329.232 118.08C330.344 118.08 331.176 117.56 331.176 116.576C331.176 115.56 330.48 115.264 329.56 114.984L328.96 114.8C328.32 114.592 327.856 114.432 327.856 113.904C327.856 113.464 328.24 113.16 328.944 113.16C329.68 113.16 330.432 113.48 330.864 113.776V112.92C330.528 112.688 329.872 112.408 328.968 112.408C327.904 112.408 327.024 112.952 327.024 113.968C327.024 114.952 327.784 115.272 328.576 115.504L329.296 115.72C329.976 115.936 330.368 116.12 330.368 116.616ZM335.172 116.616C335.172 117.056 334.844 117.352 334.068 117.352C333.3 117.352 332.444 117.024 331.932 116.664V117.488C332.364 117.784 333.14 118.08 334.036 118.08C335.148 118.08 335.98 117.56 335.98 116.576C335.98 115.56 335.284 115.264 334.364 114.984L333.764 114.8C333.124 114.592 332.66 114.432 332.66 113.904C332.66 113.464 333.044 113.16 333.748 113.16C334.484 113.16 335.236 113.48 335.668 113.776V112.92C335.332 112.688 334.676 112.408 333.772 112.408C332.708 112.408 331.828 112.952 331.828 113.968C331.828 114.952 332.588 115.272 333.38 115.504L334.1 115.72C334.78 115.936 335.172 116.12 335.172 116.616ZM336.945 112.496V118H337.737V112.496H336.945ZM341.639 118.088C342.447 118.088 343.007 117.872 343.487 117.584V116.76C343.055 117.064 342.455 117.344 341.671 117.344C340.471 117.344 339.599 116.504 339.599 115.256C339.599 114.008 340.471 113.16 341.671 113.16C342.455 113.16 343.055 113.44 343.487 113.744V112.92C343.007 112.632 342.447 112.416 341.639 112.416C339.999 112.416 338.767 113.592 338.767 115.256C338.767 116.92 339.999 118.088 341.639 118.088Z" fill="white"/>
</g>
<path id="Rectangle 2001" d="M369 78H518C524.627 78 530 83.3726 530 90V301C530 307.627 524.627 313 518 313H369V78Z" fill="black" fill-opacity="0.32"/>
<path id="5478 3482 2642 9846" d="M415.994 124.976C418.106 124.976 420.218 125.296 421.69 126.128V129.424C420.154 130.224 418.298 130.576 416.25 130.576C414.01 130.576 411.962 130.224 410.074 129.52V133.392C412.25 134.16 414.554 134.48 416.858 134.48C420.09 134.48 423.354 133.616 425.978 131.984V124.08C423.546 122.448 420.218 121.744 417.05 121.744H414.842V117.744H425.786V114H410.746V124.976H415.994ZM451.904 130.128V126.736H448.704V114H444.672V114.032L444.64 114C439.936 117.2 435.744 121.968 432.928 127.152H432.96V130.128H444.448V134H448.704V130.128H451.904ZM437.152 126.736C438.944 123.472 441.6 120.496 444.448 118.224V126.736H437.152ZM472.523 117.296V114H457.483V117.744H467.947L460.491 134H465.227L472.523 117.296ZM497.547 131.984V125.552C496.427 124.848 494.923 124.336 493.259 123.984C494.763 123.632 496.139 123.088 497.131 122.448V116.016C494.475 114.288 491.659 113.52 488.587 113.52C485.515 113.52 482.699 114.288 480.043 116.016V122.448C481.035 123.088 482.411 123.632 483.915 123.984C482.219 124.336 480.747 124.848 479.627 125.552V131.984C482.411 133.776 485.387 134.48 488.587 134.48C491.787 134.48 494.763 133.776 497.547 131.984ZM492.843 121.168C491.627 121.904 490.123 122.32 488.587 122.32C487.051 122.32 485.547 121.904 484.331 121.168V118.224C485.579 117.424 487.019 117.072 488.587 117.072C490.155 117.072 491.595 117.424 492.843 118.224V121.168ZM493.099 126.832V129.84C491.691 130.608 490.187 130.928 488.587 130.928C486.955 130.928 485.483 130.608 484.075 129.84V126.832C485.387 126.064 486.955 125.68 488.587 125.68C490.187 125.68 491.787 126.064 493.099 126.832ZM423.065 179.984V173.584C421.977 172.848 420.601 172.368 418.649 171.984C420.505 171.6 421.817 171.12 422.809 170.416V164.016C420.281 162.416 417.113 161.52 413.849 161.52C411.641 161.52 409.401 161.872 407.289 162.608V166.48C409.113 165.808 411.097 165.424 413.241 165.424C415.289 165.424 417.081 165.84 418.457 166.672V169.136C417.081 169.936 415.449 170.256 413.369 170.256H409.721V173.712H413.369C415.577 173.712 417.241 174.032 418.681 174.832V177.392C417.177 178.224 415.353 178.576 413.241 178.576C411.033 178.576 409.017 178.192 407.129 177.52V181.392C409.305 182.128 411.577 182.48 413.849 182.48C417.209 182.48 420.473 181.616 423.065 179.984ZM449.185 178.128V174.736H445.985V162H441.953V162.032L441.921 162C437.217 165.2 433.025 169.968 430.209 175.152H430.241V178.128H441.729V182H445.985V178.128H449.185ZM434.433 174.736C436.225 171.472 438.881 168.496 441.729 166.224V174.736H434.433ZM474.115 179.984V173.552C472.995 172.848 471.491 172.336 469.827 171.984C471.331 171.632 472.707 171.088 473.699 170.448V164.016C471.043 162.288 468.227 161.52 465.155 161.52C462.083 161.52 459.267 162.288 456.611 164.016V170.448C457.603 171.088 458.979 171.632 460.483 171.984C458.787 172.336 457.315 172.848 456.195 173.552V179.984C458.979 181.776 461.955 182.48 465.155 182.48C468.355 182.48 471.331 181.776 474.115 179.984ZM469.411 169.168C468.195 169.904 466.691 170.32 465.155 170.32C463.619 170.32 462.115 169.904 460.899 169.168V166.224C462.147 165.424 463.587 165.072 465.155 165.072C466.723 165.072 468.163 165.424 469.411 166.224V169.168ZM469.667 174.832V177.84C468.259 178.608 466.755 178.928 465.155 178.928C463.523 178.928 462.051 178.608 460.643 177.84V174.832C461.955 174.064 463.523 173.68 465.155 173.68C466.755 173.68 468.355 174.064 469.667 174.832ZM497.903 178.256H487.599L497.711 170.192V164.016C495.215 162.352 492.271 161.52 489.103 161.52C486.639 161.52 484.175 161.968 481.807 162.768V166.832C484.207 166 486.607 165.52 489.103 165.52C490.703 165.52 492.207 165.872 493.423 166.512V168.88L481.487 178.384V182H497.903V178.256ZM424.481 226.256H414.177L424.289 218.192V212.016C421.793 210.352 418.849 209.52 415.681 209.52C413.217 209.52 410.753 209.968 408.385 210.768V214.832C410.785 214 413.185 213.52 415.681 213.52C417.281 213.52 418.785 213.872 420.001 214.512V216.88L408.065 226.384V230H424.481V226.256ZM449.257 227.984V219.344C447.113 218.128 444.649 217.36 441.897 217.36C440.233 217.36 438.665 217.68 436.809 218.512V214.576C438.441 213.808 440.169 213.424 442.185 213.424C444.489 213.424 446.569 213.776 448.521 214.48V210.608C446.345 209.84 444.041 209.52 441.769 209.52C438.473 209.52 435.113 210.352 432.457 212.016V227.984C434.953 229.744 437.865 230.48 440.841 230.48C443.689 230.48 446.601 229.744 449.257 227.984ZM440.937 226.768C439.433 226.768 438.121 226.448 436.809 225.744V221.616C438.121 220.944 439.433 220.592 440.937 220.592C442.441 220.592 443.753 220.944 445.065 221.616V225.744C443.753 226.448 442.441 226.768 440.937 226.768ZM475.118 226.128V222.736H471.918V210H467.886V210.032L467.854 210C463.15 213.2 458.958 217.968 456.142 223.152H456.174V226.128H467.662V230H471.918V226.128H475.118ZM460.366 222.736C462.158 219.472 464.814 216.496 467.662 214.224V222.736H460.366ZM497.903 226.256H487.599L497.711 218.192V212.016C495.215 210.352 492.271 209.52 489.103 209.52C486.639 209.52 484.175 209.968 481.807 210.768V214.832C484.207 214 486.607 213.52 489.103 213.52C490.703 213.52 492.207 213.872 493.423 214.512V216.88L481.487 226.384V230H497.903V226.256ZM404.513 260.016V268.656C406.657 269.872 409.089 270.64 411.873 270.64C413.537 270.64 415.105 270.32 416.961 269.488V273.424C415.329 274.192 413.601 274.576 411.585 274.576C409.249 274.576 407.169 274.224 405.249 273.52V277.392C407.425 278.16 409.729 278.48 412.001 278.48C415.297 278.48 418.657 277.648 421.313 275.984V260.016C418.817 258.256 415.905 257.52 412.929 257.52C410.081 257.52 407.169 258.256 404.513 260.016ZM416.961 266.384C415.649 267.056 414.337 267.408 412.833 267.408C411.329 267.408 410.017 267.056 408.705 266.384V262.256C410.017 261.552 411.329 261.232 412.833 261.232C414.337 261.232 415.649 261.552 416.961 262.256V266.384ZM447.557 275.984V269.552C446.437 268.848 444.933 268.336 443.269 267.984C444.773 267.632 446.149 267.088 447.141 266.448V260.016C444.485 258.288 441.669 257.52 438.597 257.52C435.525 257.52 432.709 258.288 430.053 260.016V266.448C431.045 267.088 432.421 267.632 433.925 267.984C432.229 268.336 430.757 268.848 429.637 269.552V275.984C432.421 277.776 435.397 278.48 438.597 278.48C441.797 278.48 444.773 277.776 447.557 275.984ZM442.853 265.168C441.637 265.904 440.133 266.32 438.597 266.32C437.061 266.32 435.557 265.904 434.341 265.168V262.224C435.589 261.424 437.029 261.072 438.597 261.072C440.165 261.072 441.605 261.424 442.853 262.224V265.168ZM443.109 270.832V273.84C441.701 274.608 440.197 274.928 438.597 274.928C436.965 274.928 435.493 274.608 434.085 273.84V270.832C435.397 270.064 436.965 269.68 438.597 269.68C440.197 269.68 441.797 270.064 443.109 270.832ZM473.618 274.128V270.736H470.418V258H466.386V258.032L466.354 258C461.65 261.2 457.458 265.968 454.642 271.152H454.674V274.128H466.162V278H470.418V274.128H473.618ZM458.866 270.736C460.658 267.472 463.314 264.496 466.162 262.224V270.736H458.866ZM497.747 275.984V267.344C495.603 266.128 493.139 265.36 490.387 265.36C488.723 265.36 487.155 265.68 485.299 266.512V262.576C486.931 261.808 488.659 261.424 490.675 261.424C492.979 261.424 495.059 261.776 497.011 262.48V258.608C494.835 257.84 492.531 257.52 490.259 257.52C486.963 257.52 483.603 258.352 480.947 260.016V275.984C483.443 277.744 486.355 278.48 489.331 278.48C492.179 278.48 495.091 277.744 497.747 275.984ZM489.427 274.768C487.923 274.768 486.611 274.448 485.299 273.744V269.616C486.611 268.944 487.923 268.592 489.427 268.592C490.931 268.592 492.243 268.944 493.555 269.616V273.744C492.243 274.448 490.931 274.768 489.427 274.768Z" fill="white"/>
<path id="VIKRAM SINGH" d="M122 251H119.712L117.104 259.096L114.496 251H112.16L115.568 261H118.592L122 251ZM124.221 252.856H126.333V259.144H124.221V261H130.637V259.144H128.525V252.856H130.637V251H124.221V252.856ZM140.476 261H143.052L139.356 254.952L142.652 251H140.172L135.884 255.992V251H133.692V261H135.884V258.68L137.756 256.536L140.476 261ZM149.793 258.056C149.985 258.056 150.177 258.056 150.369 258.024L152.193 261H154.625L152.545 257.704C153.217 257.56 153.841 257.304 154.449 256.936V252.008C153.057 251.176 151.233 250.76 149.329 250.76C147.937 250.76 146.833 250.856 145.745 251V261H147.937V257.992C148.513 258.04 149.121 258.056 149.793 258.056ZM147.937 252.808C148.449 252.776 149.057 252.744 149.745 252.744H150.065C150.945 252.776 151.649 252.968 152.305 253.336V255.704C151.649 256.072 150.945 256.264 150.065 256.28C149.953 256.296 149.841 256.296 149.745 256.296C149.057 256.296 148.465 256.264 147.937 256.216V252.808ZM164.454 261H166.614V252.008C165.142 251.128 163.702 250.76 162.198 250.76C160.694 250.76 159.238 251.128 157.766 252.008V261H159.942V257.864H164.454V261ZM159.942 253.304C160.662 252.92 161.382 252.744 162.198 252.744C162.998 252.744 163.718 252.92 164.454 253.304V255.96H159.942V253.304ZM175.381 258.616L178.549 254.12V261H180.661V251H178.517L175.381 255.64L172.261 251H170.117V261H172.229V254.136L175.381 258.616ZM196.892 259.992V255.88L190.94 254.6V253.272C191.788 252.872 192.62 252.712 193.58 252.712C194.652 252.712 195.868 252.968 196.892 253.352V251.384C195.868 250.984 194.7 250.76 193.356 250.76C191.82 250.76 190.332 251.128 188.844 252.008V256.056L194.796 257.336V258.728C194.044 259.128 193.164 259.288 192.236 259.288C191.148 259.288 189.884 259.048 188.844 258.648V260.616C189.868 261.016 191.02 261.24 192.38 261.24C193.9 261.24 195.388 260.872 196.892 259.992ZM199.764 252.856H201.876V259.144H199.764V261H206.18V259.144H204.068V252.856H206.18V251H199.764V252.856ZM215.923 261H218.067V251H216.051V257.8L211.379 251H209.235V261H211.251V254.2L215.923 261ZM227.921 256.12V259C227.313 259.16 226.705 259.256 226.081 259.256C225.153 259.256 224.385 259.128 223.665 258.728V253.288C224.609 252.872 225.521 252.744 226.513 252.744C227.585 252.744 228.833 252.984 229.857 253.384V251.384C228.769 250.968 227.489 250.76 226.145 250.76C224.577 250.76 222.993 251.128 221.473 251.992V260.008C222.817 260.872 224.385 261.24 226.065 261.24C227.569 261.24 228.833 260.888 229.889 260.392V256.12H227.921ZM239.986 261H242.178V251H239.986V254.888H235.346V251H233.154V261H235.346V256.792H239.986V261Z" fill="white"/>
<path id="ABC Bank" d="M127.232 133H131.552V115.016C128.608 113.256 125.728 112.52 122.72 112.52C119.712 112.52 116.8 113.256 113.856 115.016V133H118.208V126.728H127.232V133ZM118.208 117.608C119.648 116.84 121.088 116.488 122.72 116.488C124.32 116.488 125.76 116.84 127.232 117.608V122.92H118.208V117.608ZM156.254 130.984V124.936C155.038 123.976 153.502 123.336 151.87 122.952C153.342 122.568 154.75 121.96 155.87 121.064V115.016C153.31 113.352 149.918 112.52 146.046 112.52C143.294 112.52 140.734 112.744 138.558 113V133C140.926 133.32 143.358 133.48 146.11 133.48C150.046 133.48 153.694 132.68 156.254 130.984ZM142.942 116.136C143.678 116.04 145.15 115.976 146.302 115.976C148.35 115.976 150.11 116.424 151.486 117.256V120.168C150.27 121 148.414 121.448 146.366 121.448H142.942V116.136ZM146.526 124.52C148.67 124.52 150.59 124.968 151.902 125.832V128.808C150.494 129.672 148.638 130.024 146.462 130.024C145.278 130.024 143.71 129.96 142.942 129.864V124.52H146.526ZM167.013 117.608C168.709 116.808 170.245 116.488 172.101 116.488C174.181 116.488 176.581 116.968 178.565 117.736V113.736C176.549 112.968 174.245 112.52 171.557 112.52C168.581 112.52 165.605 113.256 162.533 115.016V130.984C165.605 132.744 168.581 133.48 171.557 133.48C174.245 133.48 176.549 133.064 178.565 132.296V128.296C176.581 129.064 174.181 129.512 172.101 129.512C170.245 129.512 168.709 129.192 167.013 128.392V117.608ZM131.648 154.984V148.936C130.432 147.976 128.896 147.336 127.264 146.952C128.736 146.568 130.144 145.96 131.264 145.064V139.016C128.704 137.352 125.312 136.52 121.44 136.52C118.688 136.52 116.128 136.744 113.952 137V157C116.32 157.32 118.752 157.48 121.504 157.48C125.44 157.48 129.088 156.68 131.648 154.984ZM118.336 140.136C119.072 140.04 120.544 139.976 121.696 139.976C123.744 139.976 125.504 140.424 126.88 141.256V144.168C125.664 145 123.808 145.448 121.76 145.448H118.336V140.136ZM121.92 148.52C124.064 148.52 125.984 148.968 127.296 149.832V152.808C125.888 153.672 124.032 154.024 121.856 154.024C120.672 154.024 119.104 153.96 118.336 153.864V148.52H121.92ZM150.791 157H154.599V142.472C152.007 140.776 149.351 140.008 146.247 140.008C143.143 140.008 140.487 140.808 137.895 142.472V154.984C139.847 156.744 141.959 157.48 144.519 157.48C146.695 157.48 148.647 156.744 150.471 155.08L150.791 157ZM145.895 153.64C144.455 153.64 143.239 153.288 142.215 152.424V145.096C143.303 144.36 144.679 143.88 146.247 143.88C147.815 143.88 149.191 144.328 150.279 145.096V152.136C148.999 153.128 147.463 153.64 145.895 153.64ZM165.859 145.48C167.171 144.552 168.707 143.976 170.339 143.976C171.811 143.976 173.027 144.36 174.083 145.192V157H178.435V142.472C176.707 140.808 174.531 140.008 171.971 140.008C169.891 140.008 167.683 140.776 165.667 142.472L165.315 140.488H161.507V157H165.859V145.48ZM198.292 157H203.092L196.756 146.536L202.292 140.488H197.332L189.684 148.36V135.08H185.332V157H189.684V153.288L193.492 149.32L198.292 157Z" fill="#171755"/>
<path id="05 / 11" d="M112.78 285.181C113.95 285.896 115.146 286.195 116.342 286.195C117.538 286.195 118.747 285.896 119.904 285.181V278.694C118.747 277.979 117.538 277.68 116.342 277.68C115.146 277.68 113.95 277.979 112.78 278.694V285.181ZM114.223 284.349V279.526C114.899 279.162 115.601 279.006 116.342 279.006C117.096 279.006 117.785 279.162 118.461 279.526V284.349C117.785 284.713 117.096 284.869 116.342 284.869C115.601 284.869 114.899 284.713 114.223 284.349ZM123.595 282.191C124.518 282.191 125.441 282.334 126.104 282.737V284.349C125.402 284.726 124.635 284.882 123.777 284.882C122.828 284.882 121.97 284.726 121.177 284.414V285.727C122.035 286.052 123.01 286.195 123.946 286.195C125.207 286.195 126.442 285.857 127.521 285.181V282.048C126.533 281.359 125.233 281.086 123.985 281.086H122.88V279.136H127.456V277.875H121.502V282.191H123.595ZM131.922 287.053L136.654 276.822H135.159L130.427 287.053H131.922ZM139.327 279.136H141.069V284.739H139.327V286H144.098V284.739H142.525V277.875H139.327V279.136ZM144.583 279.136H146.325V284.739H144.583V286H149.354V284.739H147.781V277.875H144.583V279.136Z" fill="white"/>
</g>
</g>
<g id="Rectangle 428" opacity="0.11">
<rect x="80" y="328" width="445" height="77" rx="12" fill="#FFFAFA"/>
<rect x="80.5" y="328.5" width="444" height="76" rx="11.5" stroke="#FFB6B6" stroke-opacity="0.08"/>
</g>
<g id="Group 11283">
<path id="$" d="M109.472 387.52V386.16C111.44 386.016 112.848 384.992 112.848 383.168C112.848 381.152 111.456 380.544 109.632 379.984L108.4 379.616C107.12 379.216 106.192 378.896 106.192 377.84C106.192 376.96 106.944 376.352 108.368 376.352C109.84 376.352 111.328 376.976 112.208 377.584V375.872C111.68 375.488 110.736 375.056 109.472 374.896V373.504H108.032V374.848C106.08 374.96 104.528 376.048 104.528 377.952C104.528 379.936 106.032 380.608 107.632 381.056L109.104 381.488C110.48 381.92 111.232 382.256 111.232 383.248C111.232 384.128 110.608 384.72 109.024 384.72C107.488 384.72 105.792 384.08 104.768 383.36V384.992C105.472 385.488 106.64 385.968 108.032 386.128V387.52H109.472Z" fill="#BCBCBC"/>
<path id="61,145" d="M135.184 380.312C135.184 377.048 132.952 374.888 129.688 374.888C128.056 374.888 126.76 375.44 125.872 376.088C127.504 373.232 130.768 370.712 132.664 369.488H128.128C125.656 371.048 121.912 374.744 121.912 379.424C121.912 383.624 124.432 386.24 128.56 386.24C132.544 386.24 135.184 383.816 135.184 380.312ZM125.2 379.52C125.2 379.232 125.224 378.944 125.272 378.68C126.232 378.032 127.528 377.528 128.896 377.528C130.696 377.528 131.92 378.488 131.92 380.384C131.92 382.232 130.576 383.336 128.68 383.336C126.664 383.336 125.2 382.04 125.2 379.52ZM137.299 369.488L136.267 372.344H139.363V386H142.555V369.488H137.299ZM148.808 382.496H145.568L144.176 388.76H146.744L148.808 382.496ZM150.752 369.488L149.72 372.344H152.816V386H156.008V369.488H150.752ZM167.205 369.488L158.397 380.384V382.712H167.205V386H170.397V382.712H173.373V379.856H170.397V369.488H167.205ZM162.021 379.856L167.205 373.376V379.856H162.021ZM176.561 369.488L175.625 378.608H180.857C182.993 378.608 184.529 379.16 184.529 381.008C184.529 382.592 183.161 383.336 181.217 383.336C178.769 383.336 176.369 382.208 175.217 381.248V384.488C176.393 385.28 178.601 386.24 181.457 386.24C185.201 386.24 187.793 384.272 187.793 381.008C187.793 377.432 185.417 375.728 181.793 375.728H178.985L179.369 372.392H186.905V369.488H176.561Z" fill="white"/>
</g>
<path id="Assets in Bank" d="M104.948 352L106.1 349.276H110.156L111.308 352H112.184L108.632 343.744H107.636L104.084 352H104.948ZM108.128 344.5L109.856 348.568H106.4L108.128 344.5ZM115.909 348.724L115.009 348.448C114.157 348.184 113.557 347.932 113.557 347.224C113.557 346.54 114.241 346.192 115.009 346.192C115.885 346.192 116.785 346.552 117.253 346.9V346.096C116.785 345.796 115.933 345.508 115.033 345.508C113.653 345.508 112.813 346.276 112.813 347.248C112.813 348.316 113.581 348.76 114.469 349.012L115.441 349.3C116.281 349.552 116.809 349.78 116.809 350.476C116.809 351.232 116.245 351.496 115.369 351.496C114.373 351.496 113.365 351.088 112.801 350.716V351.508C113.317 351.82 114.301 352.18 115.357 352.18C116.725 352.18 117.541 351.58 117.541 350.452C117.541 349.468 116.833 349 115.909 348.724ZM121.64 348.724L120.74 348.448C119.888 348.184 119.288 347.932 119.288 347.224C119.288 346.54 119.972 346.192 120.74 346.192C121.616 346.192 122.516 346.552 122.984 346.9V346.096C122.516 345.796 121.664 345.508 120.764 345.508C119.384 345.508 118.544 346.276 118.544 347.248C118.544 348.316 119.312 348.76 120.2 349.012L121.172 349.3C122.012 349.552 122.54 349.78 122.54 350.476C122.54 351.232 121.976 351.496 121.1 351.496C120.104 351.496 119.096 351.088 118.532 350.716V351.508C119.048 351.82 120.032 352.18 121.088 352.18C122.456 352.18 123.272 351.58 123.272 350.452C123.272 349.468 122.564 349 121.64 348.724ZM129.83 351.616V350.908C129.386 351.196 128.462 351.388 127.658 351.388C126.254 351.388 125.21 350.656 125.126 349.096H129.998V348.724C129.998 346.66 129.014 345.508 127.286 345.508C125.582 345.508 124.346 346.708 124.346 348.82C124.346 351.004 125.726 352.12 127.598 352.12C128.402 352.12 129.35 351.94 129.83 351.616ZM127.262 346.192C128.522 346.192 129.206 347.02 129.242 348.532H125.126C125.174 347.02 126.062 346.192 127.262 346.192ZM135.124 351.724V351.028C134.824 351.232 134.368 351.412 133.84 351.412C133.12 351.412 132.7 351.076 132.7 350.26V346.324H135.064V345.64H132.7V344.44H132.508L130.948 346.12V346.324H131.932V350.32C131.932 351.772 132.808 352.12 133.696 352.12C134.356 352.12 134.836 351.916 135.124 351.724ZM139.183 348.724L138.283 348.448C137.431 348.184 136.831 347.932 136.831 347.224C136.831 346.54 137.515 346.192 138.283 346.192C139.159 346.192 140.059 346.552 140.527 346.9V346.096C140.059 345.796 139.207 345.508 138.307 345.508C136.927 345.508 136.087 346.276 136.087 347.248C136.087 348.316 136.855 348.76 137.743 349.012L138.715 349.3C139.555 349.552 140.083 349.78 140.083 350.476C140.083 351.232 139.519 351.496 138.643 351.496C137.647 351.496 136.639 351.088 136.075 350.716V351.508C136.591 351.82 137.575 352.18 138.631 352.18C139.999 352.18 140.815 351.58 140.815 350.452C140.815 349.468 140.107 349 139.183 348.724ZM145.457 344.62C145.817 344.62 146.069 344.404 146.069 344.092C146.069 343.78 145.817 343.564 145.457 343.564C145.109 343.564 144.857 343.78 144.857 344.092C144.857 344.404 145.109 344.62 145.457 344.62ZM145.073 345.64V352H145.841V345.64H145.073ZM147.745 345.64V352H148.513V346.996C149.005 346.684 149.821 346.252 150.685 346.252C151.681 346.252 152.389 346.816 152.389 348.052V352H153.145V347.92C153.145 346.288 152.233 345.52 150.913 345.52C149.821 345.52 149.017 346.024 148.465 346.468V345.64H147.745ZM157.991 352H161.459C163.151 352 164.315 351.304 164.315 349.768C164.315 348.568 163.559 347.8 162.179 347.62C163.079 347.44 163.787 346.792 163.787 345.772C163.787 344.296 162.683 343.744 161.231 343.744H157.991V352ZM161.171 344.488C162.203 344.488 162.947 344.836 162.947 345.892C162.947 346.864 162.155 347.332 161.087 347.332H158.783V344.488H161.171ZM161.303 348.016C162.539 348.016 163.463 348.496 163.463 349.636C163.463 350.824 162.563 351.256 161.399 351.256H158.783V348.016H161.303ZM169.727 347.992V348.76C169.415 348.652 168.887 348.544 168.239 348.544C166.499 348.544 165.491 349.384 165.491 350.476C165.491 351.46 166.163 352.12 167.459 352.12C168.455 352.12 169.259 351.604 169.775 351.04V352H170.483V348.004C170.483 346.192 169.319 345.52 168.035 345.52C166.883 345.52 165.947 346.084 165.539 346.528V347.344C166.067 346.78 166.907 346.264 167.963 346.264C168.887 346.264 169.727 346.732 169.727 347.992ZM166.223 350.44C166.223 349.672 166.943 349.096 168.455 349.096C168.911 349.096 169.415 349.192 169.727 349.288V350.536C169.163 351.052 168.407 351.496 167.555 351.496C166.811 351.496 166.223 351.196 166.223 350.44ZM172.331 345.64V352H173.099V346.996C173.591 346.684 174.407 346.252 175.271 346.252C176.267 346.252 176.975 346.816 176.975 348.052V352H177.731V347.92C177.731 346.288 176.819 345.52 175.499 345.52C174.407 345.52 173.603 346.024 173.051 346.468V345.64H172.331ZM179.573 343.744V352H180.341V348.796H181.589L183.785 352H184.673L182.177 348.424L184.685 345.64H183.773L181.637 348.088H180.341V343.588L179.573 343.744Z" fill="white"/>
<path id="View Transactions" d="M383.116 372H384.796L388.828 362.368H387.246L383.97 370.6L380.708 362.368H379.112L383.116 372ZM390.606 363.544C391.18 363.544 391.544 363.236 391.544 362.774C391.544 362.298 391.18 361.99 390.606 361.99C390.032 361.99 389.654 362.298 389.654 362.774C389.654 363.236 390.032 363.544 390.606 363.544ZM389.934 364.58V372H391.25V364.58H389.934ZM399.457 371.482V370.32C398.911 370.628 397.889 370.894 396.895 370.894C395.341 370.894 394.333 370.18 394.235 368.696H399.611V368.08C399.611 365.77 398.449 364.426 396.419 364.426C394.347 364.426 392.905 365.868 392.905 368.29C392.905 370.81 394.501 372.14 396.769 372.14C397.791 372.14 398.925 371.874 399.457 371.482ZM396.349 365.56C397.651 365.56 398.295 366.4 398.323 367.8H394.221C394.291 366.386 395.117 365.56 396.349 365.56ZM402.821 372H404.347L406.293 366.064L408.211 372H409.751L412.019 364.58H410.605L408.967 370.754L407.035 364.58H405.537L403.605 370.754L401.981 364.58H400.553L402.821 372ZM415.534 363.67H418.754V372H420.14V363.67H423.36V362.368H415.534V363.67ZM424.482 364.58V372H425.798V366.484C426.302 366.106 427.072 365.7 427.8 365.7C428.332 365.7 428.766 365.854 429.088 366.05V364.664C428.822 364.524 428.514 364.44 428.192 364.44C427.198 364.44 426.288 365.07 425.714 365.644V364.58H424.482ZM434.688 367.492V368.164C434.352 368.038 433.778 367.898 433.05 367.898C431.146 367.898 429.914 368.85 429.914 370.152C429.914 371.384 430.768 372.14 432.266 372.14C433.372 372.14 434.24 371.594 434.772 371.02V372H436.004V367.478C436.004 365.266 434.604 364.44 432.994 364.44C431.622 364.44 430.488 365.084 429.998 365.588V366.946C430.628 366.302 431.664 365.742 432.826 365.742C433.82 365.742 434.688 366.232 434.688 367.492ZM431.146 370.096C431.146 369.326 431.902 368.808 433.372 368.808C433.848 368.808 434.352 368.892 434.688 368.99V370.25C434.114 370.726 433.316 371.118 432.476 371.118C431.734 371.118 431.146 370.824 431.146 370.096ZM437.894 364.58V372H439.21V366.372C439.728 366.064 440.568 365.7 441.436 365.7C442.528 365.7 443.186 366.316 443.186 367.534V372H444.502V367.24C444.502 365.42 443.564 364.44 441.926 364.44C440.708 364.44 439.756 365 439.126 365.518V364.58H437.894ZM449.73 367.982L448.82 367.716C447.868 367.436 447.252 367.212 447.252 366.54C447.252 365.91 447.882 365.602 448.666 365.602C449.716 365.602 450.85 366.022 451.382 366.428V365.112C450.864 364.762 449.8 364.426 448.736 364.426C447.014 364.426 445.978 365.35 445.978 366.582C445.978 367.87 446.916 368.416 448.022 368.696L448.96 368.976C449.912 369.228 450.472 369.438 450.472 370.082C450.472 370.782 449.926 371.034 449.044 371.034C447.896 371.034 446.734 370.586 446.048 370.152V371.44C446.608 371.79 447.798 372.196 448.988 372.196C450.654 372.196 451.718 371.454 451.718 370.054C451.718 368.906 450.92 368.318 449.73 367.982ZM457.561 367.492V368.164C457.225 368.038 456.651 367.898 455.923 367.898C454.019 367.898 452.787 368.85 452.787 370.152C452.787 371.384 453.641 372.14 455.139 372.14C456.245 372.14 457.113 371.594 457.645 371.02V372H458.877V367.478C458.877 365.266 457.477 364.44 455.867 364.44C454.495 364.44 453.361 365.084 452.871 365.588V366.946C453.501 366.302 454.537 365.742 455.699 365.742C456.693 365.742 457.561 366.232 457.561 367.492ZM454.019 370.096C454.019 369.326 454.775 368.808 456.245 368.808C456.721 368.808 457.225 368.892 457.561 368.99V370.25C456.987 370.726 456.189 371.118 455.349 371.118C454.607 371.118 454.019 370.824 454.019 370.096ZM466.633 365C466.073 364.622 465.275 364.426 464.421 364.426C462.153 364.426 460.417 365.966 460.417 368.29C460.417 370.544 462.139 372.14 464.407 372.14C465.275 372.14 466.073 371.93 466.633 371.552V370.236C466.073 370.642 465.289 370.894 464.449 370.894C462.881 370.894 461.733 369.858 461.733 368.29C461.733 366.68 462.881 365.672 464.463 365.672C465.289 365.672 466.073 365.91 466.633 366.316V365ZM472.601 371.678V370.544C472.265 370.754 471.719 370.95 471.131 370.95C470.375 370.95 469.927 370.614 469.927 369.76V365.742H472.545V364.58H469.927V363.18H469.619L467.477 365.406V365.742H468.611V369.9C468.611 371.692 469.647 372.14 470.809 372.14C471.635 372.14 472.237 371.916 472.601 371.678ZM474.729 363.544C475.303 363.544 475.667 363.236 475.667 362.774C475.667 362.298 475.303 361.99 474.729 361.99C474.155 361.99 473.777 362.298 473.777 362.774C473.777 363.236 474.155 363.544 474.729 363.544ZM474.057 364.58V372H475.373V364.58H474.057ZM480.878 372.14C483.104 372.14 484.728 370.474 484.728 368.29C484.728 366.078 483.104 364.44 480.878 364.44C478.652 364.44 477.028 366.078 477.028 368.29C477.028 370.474 478.652 372.14 480.878 372.14ZM480.878 370.908C479.422 370.908 478.33 369.788 478.33 368.29C478.33 366.764 479.422 365.672 480.878 365.672C482.348 365.672 483.426 366.764 483.426 368.29C483.426 369.802 482.348 370.908 480.878 370.908ZM486.334 364.58V372H487.65V366.372C488.168 366.064 489.008 365.7 489.876 365.7C490.968 365.7 491.626 366.316 491.626 367.534V372H492.942V367.24C492.942 365.42 492.004 364.44 490.366 364.44C489.148 364.44 488.196 365 487.566 365.518V364.58H486.334ZM498.169 367.982L497.259 367.716C496.307 367.436 495.691 367.212 495.691 366.54C495.691 365.91 496.321 365.602 497.105 365.602C498.155 365.602 499.289 366.022 499.821 366.428V365.112C499.303 364.762 498.239 364.426 497.175 364.426C495.453 364.426 494.417 365.35 494.417 366.582C494.417 367.87 495.355 368.416 496.461 368.696L497.399 368.976C498.351 369.228 498.911 369.438 498.911 370.082C498.911 370.782 498.365 371.034 497.483 371.034C496.335 371.034 495.173 370.586 494.487 370.152V371.44C495.047 371.79 496.237 372.196 497.427 372.196C499.093 372.196 500.157 371.454 500.157 370.054C500.157 368.906 499.359 368.318 498.169 367.982Z" fill="#3DB85F"/>
<g id="Group 11636">
<rect id="Rectangle 429" opacity="0.96" x="351" width="225" height="106" rx="12" fill="#3B3665"/>
<path id="Send Funds" d="M401.677 37.36C401.677 38.432 400.893 39.168 399.133 39.168C397.565 39.168 395.981 38.528 394.989 37.856V38.976C395.917 39.584 397.437 40.16 399.133 40.16C401.229 40.16 402.765 39.184 402.765 37.312C402.765 35.408 401.533 34.816 399.613 34.192L398.429 33.808C397.053 33.36 396.013 32.944 396.013 31.68C396.013 30.624 396.877 29.84 398.557 29.84C400.061 29.84 401.437 30.464 402.221 31.04V29.856C401.565 29.376 400.269 28.816 398.573 28.816C396.557 28.816 394.893 29.84 394.893 31.76C394.893 33.616 396.349 34.24 397.805 34.704L399.293 35.184C400.845 35.696 401.677 36.144 401.677 37.36ZM411.628 39.488V38.544C411.036 38.928 409.804 39.184 408.732 39.184C406.86 39.184 405.468 38.208 405.356 36.128H411.852V35.632C411.852 32.88 410.54 31.344 408.236 31.344C405.964 31.344 404.316 32.944 404.316 35.76C404.316 38.672 406.156 40.16 408.652 40.16C409.724 40.16 410.988 39.92 411.628 39.488ZM408.204 32.256C409.884 32.256 410.796 33.36 410.844 35.376H405.356C405.42 33.36 406.604 32.256 408.204 32.256ZM413.998 31.52V40H415.022V33.328C415.678 32.912 416.766 32.336 417.918 32.336C419.246 32.336 420.19 33.088 420.19 34.736V40H421.198V34.56C421.198 32.384 419.982 31.36 418.222 31.36C416.766 31.36 415.694 32.032 414.958 32.624V31.52H413.998ZM429.767 40H430.711V28.784L429.687 28.992V31.68C429.127 31.504 428.519 31.36 427.671 31.36C425.191 31.36 423.207 32.944 423.207 35.984C423.207 38.704 424.823 40.16 426.935 40.16C428.215 40.16 429.223 39.584 429.767 39.104V40ZM427.703 32.288C428.567 32.288 429.159 32.464 429.687 32.656V38.304C429.175 38.72 428.263 39.232 427.143 39.232C425.383 39.232 424.263 38 424.263 35.936C424.263 33.536 425.687 32.288 427.703 32.288ZM437.238 28.992V40H438.294V35.216H444.006V34.224H438.294V29.984H444.806V28.992H437.238ZM449.839 39.184C448.511 39.184 447.567 38.432 447.567 36.784V31.52H446.543V36.96C446.543 39.136 447.759 40.16 449.535 40.16C450.975 40.16 452.063 39.488 452.799 38.896V40H453.759V31.52H452.735V38.176C452.095 38.608 450.991 39.184 449.839 39.184ZM456.28 31.52V40H457.304V33.328C457.96 32.912 459.048 32.336 460.2 32.336C461.528 32.336 462.472 33.088 462.472 34.736V40H463.48V34.56C463.48 32.384 462.264 31.36 460.504 31.36C459.048 31.36 457.976 32.032 457.24 32.624V31.52H456.28ZM472.048 40H472.992V28.784L471.968 28.992V31.68C471.408 31.504 470.8 31.36 469.952 31.36C467.472 31.36 465.488 32.944 465.488 35.984C465.488 38.704 467.104 40.16 469.216 40.16C470.496 40.16 471.504 39.584 472.048 39.104V40ZM469.984 32.288C470.848 32.288 471.44 32.464 471.968 32.656V38.304C471.456 38.72 470.544 39.232 469.424 39.232C467.664 39.232 466.544 38 466.544 35.936C466.544 33.536 467.968 32.288 469.984 32.288ZM479.098 35.632L477.898 35.264C476.762 34.912 475.962 34.576 475.962 33.632C475.962 32.72 476.874 32.256 477.898 32.256C479.066 32.256 480.266 32.736 480.89 33.2V32.128C480.266 31.728 479.13 31.344 477.93 31.344C476.09 31.344 474.97 32.368 474.97 33.664C474.97 35.088 475.994 35.68 477.178 36.016L478.474 36.4C479.594 36.736 480.298 37.04 480.298 37.968C480.298 38.976 479.546 39.328 478.378 39.328C477.05 39.328 475.706 38.784 474.954 38.288V39.344C475.642 39.76 476.954 40.24 478.362 40.24C480.186 40.24 481.274 39.44 481.274 37.936C481.274 36.624 480.33 36 479.098 35.632Z" fill="white"/>
<g id="bi:arrow-down-right-circle-fill" clip-path="url(#clip0_612_5844)">
<path id="Vector" d="M367 34C367 36.1217 367.843 38.1566 369.343 39.6569C370.843 41.1571 372.878 42 375 42C377.122 42 379.157 41.1571 380.657 39.6569C382.157 38.1566 383 36.1217 383 34C383 31.8783 382.157 29.8434 380.657 28.3431C379.157 26.8429 377.122 26 375 26C372.878 26 370.843 26.8429 369.343 28.3431C367.843 29.8434 367 31.8783 367 34ZM372.904 36.803C372.858 36.8508 372.803 36.8888 372.742 36.9151C372.681 36.9413 372.615 36.955 372.549 36.9556C372.482 36.9562 372.416 36.9436 372.355 36.9184C372.294 36.8933 372.238 36.8561 372.191 36.8092C372.144 36.7623 372.107 36.7064 372.082 36.645C372.056 36.5835 372.044 36.5177 372.044 36.4513C372.045 36.3849 372.059 36.3193 372.085 36.2583C372.111 36.1973 372.149 36.1421 372.197 36.096L376.293 32H373.525C373.392 32 373.265 31.9473 373.171 31.8536C373.078 31.7598 373.025 31.6326 373.025 31.5C373.025 31.3674 373.078 31.2402 373.171 31.1464C373.265 31.0527 373.392 31 373.525 31H377.5C377.633 31 377.76 31.0527 377.854 31.1464C377.947 31.2402 378 31.3674 378 31.5V35.475C378 35.6076 377.947 35.7348 377.854 35.8286C377.76 35.9223 377.633 35.975 377.5 35.975C377.367 35.975 377.24 35.9223 377.146 35.8286C377.053 35.7348 377 35.6076 377 35.475V32.707L372.904 36.803Z" fill="#E6CB8C"/>
</g>
<g id="bi:arrow-down-right-circle-fill_2" clip-path="url(#clip1_612_5844)">
<path id="Vector_2" d="M383 72C383 69.8783 382.157 67.8434 380.657 66.3431C379.157 64.8429 377.122 64 375 64C372.878 64 370.843 64.8429 369.343 66.3431C367.843 67.8434 367 69.8783 367 72C367 74.1217 367.843 76.1566 369.343 77.6569C370.843 79.1571 372.878 80 375 80C377.122 80 379.157 79.1571 380.657 77.6569C382.157 76.1566 383 74.1217 383 72ZM377.096 69.197C377.142 69.1492 377.197 69.1112 377.258 69.0849C377.319 69.0587 377.385 69.045 377.451 69.0444C377.518 69.0438 377.584 69.0564 377.645 69.0816C377.706 69.1067 377.762 69.1439 377.809 69.1908C377.856 69.2377 377.893 69.2936 377.918 69.355C377.944 69.4165 377.956 69.4823 377.956 69.5487C377.955 69.6151 377.941 69.6807 377.915 69.7417C377.889 69.8027 377.851 69.8579 377.803 69.904L373.707 74H376.475C376.608 74 376.735 74.0527 376.829 74.1464C376.922 74.2402 376.975 74.3674 376.975 74.5C376.975 74.6326 376.922 74.7598 376.829 74.8536C376.735 74.9473 376.608 75 376.475 75H372.5C372.367 75 372.24 74.9473 372.146 74.8536C372.053 74.7598 372 74.6326 372 74.5V70.525C372 70.3924 372.053 70.2652 372.146 70.1714C372.24 70.0777 372.367 70.025 372.5 70.025C372.633 70.025 372.76 70.0777 372.854 70.1714C372.947 70.2652 373 70.3924 373 70.525V73.293L377.096 69.197Z" fill="#87BBE1"/>
</g>
<path id="Request Funds" d="M395.691 66.992V78H396.747V73.28H398.731L402.779 78H404.107L399.947 73.28H400.299C402.523 73.28 403.979 72.224 403.979 70.224C403.979 68 402.475 66.992 400.107 66.992H395.691ZM400.075 67.984C401.819 67.984 402.891 68.64 402.891 70.224C402.891 71.712 401.803 72.416 400.075 72.416H396.747V67.984H400.075ZM413.019 77.488V76.544C412.427 76.928 411.195 77.184 410.123 77.184C408.251 77.184 406.859 76.208 406.747 74.128H413.243V73.632C413.243 70.88 411.931 69.344 409.627 69.344C407.355 69.344 405.707 70.944 405.707 73.76C405.707 76.672 407.547 78.16 410.043 78.16C411.115 78.16 412.379 77.92 413.019 77.488ZM409.595 70.256C411.275 70.256 412.187 71.36 412.235 73.376H406.747C406.811 71.36 407.995 70.256 409.595 70.256ZM421.549 80.528H422.573V70C421.693 69.68 420.605 69.36 419.181 69.36C416.829 69.36 414.941 70.896 414.941 73.936C414.941 76.592 416.477 78.16 418.621 78.16C419.901 78.16 420.973 77.616 421.549 77.152V80.528ZM415.997 73.888C415.997 71.504 417.325 70.288 419.213 70.288C420.157 70.288 420.909 70.448 421.549 70.656V76.288C420.989 76.72 420.029 77.216 418.829 77.216C417.133 77.216 415.997 75.952 415.997 73.888ZM428.308 77.184C426.98 77.184 426.036 76.432 426.036 74.784V69.52H425.012V74.96C425.012 77.136 426.228 78.16 428.004 78.16C429.444 78.16 430.532 77.488 431.268 76.896V78H432.228V69.52H431.204V76.176C430.564 76.608 429.46 77.184 428.308 77.184ZM441.612 77.488V76.544C441.02 76.928 439.788 77.184 438.716 77.184C436.844 77.184 435.452 76.208 435.34 74.128H441.836V73.632C441.836 70.88 440.524 69.344 438.22 69.344C435.948 69.344 434.3 70.944 434.3 73.76C434.3 76.672 436.14 78.16 438.636 78.16C439.708 78.16 440.972 77.92 441.612 77.488ZM438.188 70.256C439.868 70.256 440.78 71.36 440.828 73.376H435.34C435.404 71.36 436.588 70.256 438.188 70.256ZM447.567 73.632L446.367 73.264C445.231 72.912 444.431 72.576 444.431 71.632C444.431 70.72 445.343 70.256 446.367 70.256C447.535 70.256 448.735 70.736 449.359 71.2V70.128C448.735 69.728 447.599 69.344 446.399 69.344C444.559 69.344 443.439 70.368 443.439 71.664C443.439 73.088 444.463 73.68 445.647 74.016L446.943 74.4C448.063 74.736 448.767 75.04 448.767 75.968C448.767 76.976 448.015 77.328 446.847 77.328C445.519 77.328 444.175 76.784 443.423 76.288V77.344C444.111 77.76 445.423 78.24 446.831 78.24C448.655 78.24 449.743 77.44 449.743 75.936C449.743 74.624 448.799 74 447.567 73.632ZM456.311 77.632V76.704C455.911 76.976 455.303 77.216 454.599 77.216C453.639 77.216 453.079 76.768 453.079 75.68V70.432H456.231V69.52H453.079V67.92H452.823L450.743 70.16V70.432H452.055V75.76C452.055 77.696 453.223 78.16 454.407 78.16C455.287 78.16 455.927 77.888 456.311 77.632ZM462.144 66.992V78H463.2V73.216H468.912V72.224H463.2V67.984H469.712V66.992H462.144ZM474.746 77.184C473.418 77.184 472.474 76.432 472.474 74.784V69.52H471.45V74.96C471.45 77.136 472.666 78.16 474.442 78.16C475.882 78.16 476.97 77.488 477.706 76.896V78H478.666V69.52H477.642V76.176C477.002 76.608 475.898 77.184 474.746 77.184ZM481.186 69.52V78H482.21V71.328C482.866 70.912 483.954 70.336 485.106 70.336C486.434 70.336 487.378 71.088 487.378 72.736V78H488.386V72.56C488.386 70.384 487.17 69.36 485.41 69.36C483.954 69.36 482.882 70.032 482.146 70.624V69.52H481.186ZM496.954 78H497.898V66.784L496.874 66.992V69.68C496.314 69.504 495.706 69.36 494.858 69.36C492.378 69.36 490.394 70.944 490.394 73.984C490.394 76.704 492.01 78.16 494.122 78.16C495.402 78.16 496.41 77.584 496.954 77.104V78ZM494.89 70.288C495.754 70.288 496.346 70.464 496.874 70.656V76.304C496.362 76.72 495.45 77.232 494.33 77.232C492.57 77.232 491.45 76 491.45 73.936C491.45 71.536 492.874 70.288 494.89 70.288ZM504.004 73.632L502.804 73.264C501.668 72.912 500.868 72.576 500.868 71.632C500.868 70.72 501.78 70.256 502.804 70.256C503.972 70.256 505.172 70.736 505.796 71.2V70.128C505.172 69.728 504.036 69.344 502.836 69.344C500.996 69.344 499.876 70.368 499.876 71.664C499.876 73.088 500.9 73.68 502.084 74.016L503.38 74.4C504.5 74.736 505.204 75.04 505.204 75.968C505.204 76.976 504.452 77.328 503.284 77.328C501.956 77.328 500.612 76.784 499.86 76.288V77.344C500.548 77.76 501.86 78.24 503.268 78.24C505.092 78.24 506.18 77.44 506.18 75.936C506.18 74.624 505.236 74 504.004 73.632Z" fill="white"/>
</g>
</g>
</g>
<defs>
<filter id="filter0_d_612_5844" x="62.8306" y="60.8311" width="587.352" height="372.352" filterUnits="userSpaceOnUse" color-interpolation-filters="sRGB">
<feFlood flood-opacity="0" result="BackgroundImageFix"/>
<feColorMatrix in="SourceAlpha" type="matrix" values="0 0 0 0 0 0 0 0 0 0 0 0 0 0 0 0 0 0 127 0" result="hardAlpha"/>
<feOffset dx="51.5068" dy="51.5068"/>
<feGaussianBlur stdDeviation="34.3379"/>
<feComposite in2="hardAlpha" operator="out"/>
<feColorMatrix type="matrix" values="0 0 0 0 0.215686 0 0 0 0 0.219608 0 0 0 0 0.772549 0 0 0 0.12 0"/>
<feBlend mode="normal" in2="BackgroundImageFix" result="effect1_dropShadow_612_5844"/>
<feBlend mode="normal" in="SourceGraphic" in2="effect1_dropShadow_612_5844" result="shape"/>
</filter>
<linearGradient id="paint0_linear_612_5844" x1="304" y1="54" x2="304" y2="448" gradientUnits="userSpaceOnUse">
<stop stop-color="#0D0A2C"/>
<stop offset="1" stop-color="#080523"/>
</linearGradient>
<linearGradient id="paint1_linear_612_5844" x1="304" y1="54" x2="304" y2="448" gradientUnits="userSpaceOnUse">
<stop stop-color="#1F195A"/>
<stop offset="1" stop-opacity="0"/>
</linearGradient>
<linearGradient id="paint2_linear_612_5844" x1="304" y1="54" x2="304" y2="448" gradientUnits="userSpaceOnUse">
<stop stop-color="#1F195A"/>
<stop offset="1" stop-opacity="0"/>
</linearGradient>
<linearGradient id="paint3_linear_612_5844" x1="-146.5" y1="57" x2="-146.5" y2="465" gradientUnits="userSpaceOnUse">
<stop stop-color="#FAFAFA" stop-opacity="0.09"/>
<stop offset="1" stop-color="#EDF0F1" stop-opacity="0"/>
</linearGradient>
<linearGradient id="paint4_linear_612_5844" x1="-124.5" y1="57" x2="-124.5" y2="465" gradientUnits="userSpaceOnUse">
<stop stop-color="#FAFAFA" stop-opacity="0.09"/>
<stop offset="1" stop-color="#EDF0F1" stop-opacity="0"/>
</linearGradient>
<linearGradient id="paint5_linear_612_5844" x1="-102.5" y1="57" x2="-102.5" y2="465" gradientUnits="userSpaceOnUse">
<stop stop-color="#FAFAFA" stop-opacity="0.09"/>
<stop offset="1" stop-color="#EDF0F1" stop-opacity="0"/>
</linearGradient>
<linearGradient id="paint6_linear_612_5844" x1="-80.5" y1="57" x2="-80.5" y2="465" gradientUnits="userSpaceOnUse">
<stop stop-color="#FAFAFA" stop-opacity="0.09"/>
<stop offset="1" stop-color="#EDF0F1" stop-opacity="0"/>
</linearGradient>
<linearGradient id="paint7_linear_612_5844" x1="-58.5" y1="57" x2="-58.5" y2="465" gradientUnits="userSpaceOnUse">
<stop stop-color="#FAFAFA" stop-opacity="0.09"/>
<stop offset="1" stop-color="#EDF0F1" stop-opacity="0"/>
</linearGradient>
<linearGradient id="paint8_linear_612_5844" x1="-36.5" y1="57" x2="-36.5" y2="465" gradientUnits="userSpaceOnUse">
<stop stop-color="#FAFAFA" stop-opacity="0.09"/>
<stop offset="1" stop-color="#EDF0F1" stop-opacity="0"/>
</linearGradient>
<linearGradient id="paint9_linear_612_5844" x1="-14.5" y1="57" x2="-14.5" y2="465" gradientUnits="userSpaceOnUse">
<stop stop-color="#FAFAFA" stop-opacity="0.09"/>
<stop offset="1" stop-color="#EDF0F1" stop-opacity="0"/>
</linearGradient>
<linearGradient id="paint10_linear_612_5844" x1="7.5" y1="57" x2="7.5" y2="465" gradientUnits="userSpaceOnUse">
<stop stop-color="#FAFAFA" stop-opacity="0.09"/>
<stop offset="1" stop-color="#EDF0F1" stop-opacity="0"/>
</linearGradient>
<linearGradient id="paint11_linear_612_5844" x1="29.5" y1="57" x2="29.5" y2="465" gradientUnits="userSpaceOnUse">
<stop stop-color="#FAFAFA" stop-opacity="0.09"/>
<stop offset="1" stop-color="#EDF0F1" stop-opacity="0"/>
</linearGradient>
<linearGradient id="paint12_linear_612_5844" x1="51.5" y1="57" x2="51.5" y2="465" gradientUnits="userSpaceOnUse">
<stop stop-color="#FAFAFA" stop-opacity="0.09"/>
<stop offset="1" stop-color="#EDF0F1" stop-opacity="0"/>
</linearGradient>
<linearGradient id="paint13_linear_612_5844" x1="73.5" y1="57" x2="73.5" y2="465" gradientUnits="userSpaceOnUse">
<stop stop-color="#FAFAFA" stop-opacity="0.09"/>
<stop offset="1" stop-color="#EDF0F1" stop-opacity="0"/>
</linearGradient>
<linearGradient id="paint14_linear_612_5844" x1="95.5" y1="57" x2="95.5" y2="465" gradientUnits="userSpaceOnUse">
<stop stop-color="#FAFAFA" stop-opacity="0.09"/>
<stop offset="1" stop-color="#EDF0F1" stop-opacity="0"/>
</linearGradient>
<linearGradient id="paint15_linear_612_5844" x1="117.5" y1="57" x2="117.5" y2="465" gradientUnits="userSpaceOnUse">
<stop stop-color="#FAFAFA" stop-opacity="0.09"/>
<stop offset="1" stop-color="#EDF0F1" stop-opacity="0"/>
</linearGradient>
<linearGradient id="paint16_linear_612_5844" x1="139.5" y1="57" x2="139.5" y2="465" gradientUnits="userSpaceOnUse">
<stop stop-color="#FAFAFA" stop-opacity="0.09"/>
<stop offset="1" stop-color="#EDF0F1" stop-opacity="0"/>
</linearGradient>
<linearGradient id="paint17_linear_612_5844" x1="161.5" y1="57" x2="161.5" y2="465" gradientUnits="userSpaceOnUse">
<stop stop-color="#FAFAFA" stop-opacity="0.09"/>
<stop offset="1" stop-color="#EDF0F1" stop-opacity="0"/>
</linearGradient>
<linearGradient id="paint18_linear_612_5844" x1="183.5" y1="57" x2="183.5" y2="465" gradientUnits="userSpaceOnUse">
<stop stop-color="#FAFAFA" stop-opacity="0.09"/>
<stop offset="1" stop-color="#EDF0F1" stop-opacity="0"/>
</linearGradient>
<linearGradient id="paint19_linear_612_5844" x1="205.5" y1="57" x2="205.5" y2="465" gradientUnits="userSpaceOnUse">
<stop stop-color="#FAFAFA" stop-opacity="0.09"/>
<stop offset="1" stop-color="#EDF0F1" stop-opacity="0"/>
</linearGradient>
<linearGradient id="paint20_linear_612_5844" x1="227.5" y1="57" x2="227.5" y2="465" gradientUnits="userSpaceOnUse">
<stop stop-color="#FAFAFA" stop-opacity="0.09"/>
<stop offset="1" stop-color="#EDF0F1" stop-opacity="0"/>
</linearGradient>
<linearGradient id="paint21_linear_612_5844" x1="249.5" y1="57" x2="249.5" y2="465" gradientUnits="userSpaceOnUse">
<stop stop-color="#FAFAFA" stop-opacity="0.09"/>
<stop offset="1" stop-color="#EDF0F1" stop-opacity="0"/>
</linearGradient>
<linearGradient id="paint22_linear_612_5844" x1="271.5" y1="57" x2="271.5" y2="465" gradientUnits="userSpaceOnUse">
<stop stop-color="#FAFAFA" stop-opacity="0.09"/>
<stop offset="1" stop-color="#EDF0F1" stop-opacity="0"/>
</linearGradient>
<linearGradient id="paint23_linear_612_5844" x1="293.5" y1="57" x2="293.5" y2="465" gradientUnits="userSpaceOnUse">
<stop stop-color="#FAFAFA" stop-opacity="0.09"/>
<stop offset="1" stop-color="#EDF0F1" stop-opacity="0"/>
</linearGradient>
<linearGradient id="paint24_linear_612_5844" x1="315.5" y1="57" x2="315.5" y2="465" gradientUnits="userSpaceOnUse">
<stop stop-color="#FAFAFA" stop-opacity="0.09"/>
<stop offset="1" stop-color="#EDF0F1" stop-opacity="0"/>
</linearGradient>
<linearGradient id="paint25_linear_612_5844" x1="337.5" y1="57" x2="337.5" y2="465" gradientUnits="userSpaceOnUse">
<stop stop-color="#FAFAFA" stop-opacity="0.09"/>
<stop offset="1" stop-color="#EDF0F1" stop-opacity="0"/>
</linearGradient>
<linearGradient id="paint26_linear_612_5844" x1="359.5" y1="57" x2="359.5" y2="465" gradientUnits="userSpaceOnUse">
<stop stop-color="#FAFAFA" stop-opacity="0.09"/>
<stop offset="1" stop-color="#EDF0F1" stop-opacity="0"/>
</linearGradient>
<linearGradient id="paint27_linear_612_5844" x1="381.5" y1="57" x2="381.5" y2="465" gradientUnits="userSpaceOnUse">
<stop stop-color="#FAFAFA" stop-opacity="0.09"/>
<stop offset="1" stop-color="#EDF0F1" stop-opacity="0"/>
</linearGradient>
<linearGradient id="paint28_linear_612_5844" x1="403.5" y1="57" x2="403.5" y2="465" gradientUnits="userSpaceOnUse">
<stop stop-color="#FAFAFA" stop-opacity="0.09"/>
<stop offset="1" stop-color="#EDF0F1" stop-opacity="0"/>
</linearGradient>
<linearGradient id="paint29_linear_612_5844" x1="425.5" y1="57" x2="425.5" y2="465" gradientUnits="userSpaceOnUse">
<stop stop-color="#FAFAFA" stop-opacity="0.09"/>
<stop offset="1" stop-color="#EDF0F1" stop-opacity="0"/>
</linearGradient>
<linearGradient id="paint30_linear_612_5844" x1="447.5" y1="57" x2="447.5" y2="465" gradientUnits="userSpaceOnUse">
<stop stop-color="#FAFAFA" stop-opacity="0.09"/>
<stop offset="1" stop-color="#EDF0F1" stop-opacity="0"/>
</linearGradient>
<linearGradient id="paint31_linear_612_5844" x1="469.5" y1="57" x2="469.5" y2="465" gradientUnits="userSpaceOnUse">
<stop stop-color="#FAFAFA" stop-opacity="0.09"/>
<stop offset="1" stop-color="#EDF0F1" stop-opacity="0"/>
</linearGradient>
<linearGradient id="paint32_linear_612_5844" x1="491.5" y1="57" x2="491.5" y2="465" gradientUnits="userSpaceOnUse">
<stop stop-color="#FAFAFA" stop-opacity="0.09"/>
<stop offset="1" stop-color="#EDF0F1" stop-opacity="0"/>
</linearGradient>
<linearGradient id="paint33_linear_612_5844" x1="513.5" y1="57" x2="513.5" y2="465" gradientUnits="userSpaceOnUse">
<stop stop-color="#FAFAFA" stop-opacity="0.09"/>
<stop offset="1" stop-color="#EDF0F1" stop-opacity="0"/>
</linearGradient>
<linearGradient id="paint34_linear_612_5844" x1="535.5" y1="57" x2="535.5" y2="465" gradientUnits="userSpaceOnUse">
<stop stop-color="#FAFAFA" stop-opacity="0.09"/>
<stop offset="1" stop-color="#EDF0F1" stop-opacity="0"/>
</linearGradient>
<linearGradient id="paint35_linear_612_5844" x1="557.5" y1="57" x2="557.5" y2="465" gradientUnits="userSpaceOnUse">
<stop stop-color="#FAFAFA" stop-opacity="0.09"/>
<stop offset="1" stop-color="#EDF0F1" stop-opacity="0"/>
</linearGradient>
<linearGradient id="paint36_linear_612_5844" x1="579.5" y1="57" x2="579.5" y2="465" gradientUnits="userSpaceOnUse">
<stop stop-color="#FAFAFA" stop-opacity="0.09"/>
<stop offset="1" stop-color="#EDF0F1" stop-opacity="0"/>
</linearGradient>
<linearGradient id="paint37_linear_612_5844" x1="601.5" y1="57" x2="601.5" y2="465" gradientUnits="userSpaceOnUse">
<stop stop-color="#FAFAFA" stop-opacity="0.09"/>
<stop offset="1" stop-color="#EDF0F1" stop-opacity="0"/>
</linearGradient>
<linearGradient id="paint38_linear_612_5844" x1="623.5" y1="57" x2="623.5" y2="465" gradientUnits="userSpaceOnUse">
<stop stop-color="#FAFAFA" stop-opacity="0.09"/>
<stop offset="1" stop-color="#EDF0F1" stop-opacity="0"/>
</linearGradient>
<linearGradient id="paint39_linear_612_5844" x1="645.5" y1="57" x2="645.5" y2="465" gradientUnits="userSpaceOnUse">
<stop stop-color="#FAFAFA" stop-opacity="0.09"/>
<stop offset="1" stop-color="#EDF0F1" stop-opacity="0"/>
</linearGradient>
<linearGradient id="paint40_linear_612_5844" x1="667.5" y1="57" x2="667.5" y2="465" gradientUnits="userSpaceOnUse">
<stop stop-color="#FAFAFA" stop-opacity="0.09"/>
<stop offset="1" stop-color="#EDF0F1" stop-opacity="0"/>
</linearGradient>
<radialGradient id="paint41_radial_612_5844" cx="0" cy="0" r="1" gradientUnits="userSpaceOnUse" gradientTransform="translate(333.98 138.564) rotate(141.302) scale(29.4877 29.2641)">
<stop stop-color="white"/>
<stop offset="1" stop-color="#DDDCDA"/>
</radialGradient>
<clipPath id="clip0_612_5844">
<rect width="16" height="16" fill="white" transform="matrix(1 0 0 -1 367 42)"/>
</clipPath>
<clipPath id="clip1_612_5844">
<rect width="16" height="16" fill="white" transform="matrix(-1 0 0 1 383 64)"/>
</clipPath>
</defs>
</svg>
