<svg width="520" height="448" viewBox="0 0 520 448" fill="none" xmlns="http://www.w3.org/2000/svg">
<g clip-path="url(#clip0_84_1769)">
<rect x="0.5" y="54.5" width="495" height="393" rx="7.5" fill="url(#paint0_linear_84_1769)" stroke="url(#paint1_linear_84_1769)"/>
<g filter="url(#filter0_d_84_1769)">
<rect x="23.9995" y="78" width="450" height="235" rx="12" fill="#4F50FA"/>
</g>
<mask id="mask0_84_1769" style="mask-type:alpha" maskUnits="userSpaceOnUse" x="-56" y="78" width="316" height="235">
<path fill-rule="evenodd" clip-rule="evenodd" d="M-46.0005 150.171C-52.4646 167.391 -56 186.043 -56 205.522C-56 225 -52.4646 243.653 -46.0005 260.873L-46.0005 150.171ZM216.68 313C242.96 284.855 259.042 247.066 259.042 205.522C259.042 153.085 233.42 106.632 194.013 78H23.9995L23.9995 313H216.68Z" fill="#D9D9D9"/>
</mask>
<g mask="url(#mask0_84_1769)">
<rect x="102.496" y="446.438" width="208.153" height="28.1288" rx="1.26937" transform="rotate(-136 102.496 446.438)" fill="#FBFFE1" fill-opacity="0.12"/>
<rect x="129.871" y="418.113" width="173.562" height="28.1288" rx="1.26937" transform="rotate(-136 129.871 418.113)" fill="#FBFFE1" fill-opacity="0.12"/>
<rect x="157.222" y="389.777" width="138.549" height="28.1288" rx="1.26937" transform="rotate(-136 157.222 389.777)" fill="#FBFFE1" fill-opacity="0.12"/>
<rect x="128.396" y="142.969" width="134.103" height="28.1288" rx="1.26937" transform="rotate(-136 128.396 142.969)" fill="#FBFFE1" fill-opacity="0.12"/>
<rect x="184.609" y="142.504" width="174.212" height="28.1288" rx="1.26937" transform="rotate(-136 184.609 142.504)" fill="#FBFFE1" fill-opacity="0.12"/>
<rect x="236.367" y="137.744" width="208.153" height="28.1288" rx="1.26937" transform="rotate(-136 236.367 137.744)" fill="#FBFFE1" fill-opacity="0.12"/>
<rect x="59.2456" y="247.578" width="326.294" height="28.1288" rx="1.26937" transform="rotate(-136 59.2456 247.578)" fill="#FBFFE1" fill-opacity="0.12"/>
<rect x="211.939" y="333.125" width="326.294" height="28.1288" rx="1.26937" transform="rotate(-136 211.939 333.125)" fill="#FBFFE1" fill-opacity="0.12"/>
<rect x="346.488" y="405.102" width="326.294" height="28.1288" rx="1.26937" transform="rotate(-136 346.488 405.102)" fill="#FBFFE1" fill-opacity="0.12"/>
</g>
<rect x="253" y="116.553" width="43.5" height="26.4065" rx="5" fill="url(#paint2_radial_84_1769)"/>
<path fill-rule="evenodd" clip-rule="evenodd" d="M274.751 116.816L269.918 123.717C269.918 123.717 271.851 129.755 269.918 134.931L274.751 142.694L279.585 134.931C279.585 134.931 277.651 130.618 279.585 123.717C279.585 123.717 274.751 116.816 274.751 116.816Z" stroke="#C7C7B6" strokeWidth="1.3" stroke-linejoin="bevel"/>
<path d="M253 124.034H269.917" stroke="#C7C7B6" strokeWidth="1.3" stroke-linejoin="bevel"/>
<path d="M279.098 124.034H296.498" stroke="#C7C7B6" strokeWidth="1.3" stroke-linejoin="bevel"/>
<path d="M253 134.596H269.917" stroke="#C7C7B6" strokeWidth="1.3" stroke-linejoin="bevel"/>
<path d="M279.098 134.596H296.498" stroke="#C7C7B6" strokeWidth="1.3" stroke-linejoin="bevel"/>
<path d="M258.248 118.088C259.056 118.088 259.616 117.872 260.096 117.584V116.76C259.664 117.064 259.064 117.344 258.28 117.344C257.08 117.344 256.208 116.504 256.208 115.256C256.208 114.008 257.08 113.16 258.28 113.16C259.064 113.16 259.664 113.44 260.096 113.744V112.92C259.616 112.632 259.056 112.416 258.248 112.416C256.608 112.416 255.376 113.592 255.376 115.256C255.376 116.92 256.608 118.088 258.248 118.088ZM260.984 112.496V118H264.808V117.256H261.776V112.496H260.984ZM265.857 118L266.529 116.368H269.105L269.777 118H270.657L268.337 112.496H267.313L265.001 118H265.857ZM267.825 113.24L268.825 115.672H266.817L267.825 113.24ZM274.368 116.616C274.368 117.056 274.04 117.352 273.264 117.352C272.496 117.352 271.64 117.024 271.128 116.664V117.488C271.56 117.784 272.336 118.08 273.232 118.08C274.344 118.08 275.176 117.56 275.176 116.576C275.176 115.56 274.48 115.264 273.56 114.984L272.96 114.8C272.32 114.592 271.856 114.432 271.856 113.904C271.856 113.464 272.24 113.16 272.944 113.16C273.68 113.16 274.432 113.48 274.864 113.776V112.92C274.528 112.688 273.872 112.408 272.968 112.408C271.904 112.408 271.024 112.952 271.024 113.968C271.024 114.952 271.784 115.272 272.576 115.504L273.296 115.72C273.976 115.936 274.368 116.12 274.368 116.616ZM279.172 116.616C279.172 117.056 278.844 117.352 278.068 117.352C277.3 117.352 276.444 117.024 275.932 116.664V117.488C276.364 117.784 277.14 118.08 278.036 118.08C279.148 118.08 279.98 117.56 279.98 116.576C279.98 115.56 279.284 115.264 278.364 114.984L277.764 114.8C277.124 114.592 276.66 114.432 276.66 113.904C276.66 113.464 277.044 113.16 277.748 113.16C278.484 113.16 279.236 113.48 279.668 113.776V112.92C279.332 112.688 278.676 112.408 277.772 112.408C276.708 112.408 275.828 112.952 275.828 113.968C275.828 114.952 276.588 115.272 277.38 115.504L278.1 115.72C278.78 115.936 279.172 116.12 279.172 116.616ZM280.945 112.496V118H281.737V112.496H280.945ZM285.639 118.088C286.447 118.088 287.007 117.872 287.487 117.584V116.76C287.055 117.064 286.455 117.344 285.671 117.344C284.471 117.344 283.599 116.504 283.599 115.256C283.599 114.008 284.471 113.16 285.671 113.16C286.455 113.16 287.055 113.44 287.487 113.744V112.92C287.007 112.632 286.447 112.416 285.639 112.416C283.999 112.416 282.767 113.592 282.767 115.256C282.767 116.92 283.999 118.088 285.639 118.088Z" fill="white"/>
<path d="M313 78H462C468.627 78 474 83.3726 474 90V301C474 307.627 468.627 313 462 313H313V78Z" fill="black" fill-opacity="0.32"/>
<path d="M359.994 124.976C362.106 124.976 364.218 125.296 365.69 126.128V129.424C364.154 130.224 362.298 130.576 360.25 130.576C358.01 130.576 355.962 130.224 354.074 129.52V133.392C356.25 134.16 358.554 134.48 360.858 134.48C364.09 134.48 367.354 133.616 369.978 131.984V124.08C367.546 122.448 364.218 121.744 361.05 121.744H358.842V117.744H369.786V114H354.746V124.976H359.994ZM395.904 130.128V126.736H392.704V114H388.672V114.032L388.64 114C383.936 117.2 379.744 121.968 376.928 127.152H376.96V130.128H388.448V134H392.704V130.128H395.904ZM381.152 126.736C382.944 123.472 385.6 120.496 388.448 118.224V126.736H381.152ZM416.523 117.296V114H401.483V117.744H411.947L404.491 134H409.227L416.523 117.296ZM441.547 131.984V125.552C440.427 124.848 438.923 124.336 437.259 123.984C438.763 123.632 440.139 123.088 441.131 122.448V116.016C438.475 114.288 435.659 113.52 432.587 113.52C429.515 113.52 426.699 114.288 424.043 116.016V122.448C425.035 123.088 426.411 123.632 427.915 123.984C426.219 124.336 424.747 124.848 423.627 125.552V131.984C426.411 133.776 429.387 134.48 432.587 134.48C435.787 134.48 438.763 133.776 441.547 131.984ZM436.843 121.168C435.627 121.904 434.123 122.32 432.587 122.32C431.051 122.32 429.547 121.904 428.331 121.168V118.224C429.579 117.424 431.019 117.072 432.587 117.072C434.155 117.072 435.595 117.424 436.843 118.224V121.168ZM437.099 126.832V129.84C435.691 130.608 434.187 130.928 432.587 130.928C430.955 130.928 429.483 130.608 428.075 129.84V126.832C429.387 126.064 430.955 125.68 432.587 125.68C434.187 125.68 435.787 126.064 437.099 126.832ZM367.065 179.984V173.584C365.977 172.848 364.601 172.368 362.649 171.984C364.505 171.6 365.817 171.12 366.809 170.416V164.016C364.281 162.416 361.113 161.52 357.849 161.52C355.641 161.52 353.401 161.872 351.289 162.608V166.48C353.113 165.808 355.097 165.424 357.241 165.424C359.289 165.424 361.081 165.84 362.457 166.672V169.136C361.081 169.936 359.449 170.256 357.369 170.256H353.721V173.712H357.369C359.577 173.712 361.241 174.032 362.681 174.832V177.392C361.177 178.224 359.353 178.576 357.241 178.576C355.033 178.576 353.017 178.192 351.129 177.52V181.392C353.305 182.128 355.577 182.48 357.849 182.48C361.209 182.48 364.473 181.616 367.065 179.984ZM393.185 178.128V174.736H389.985V162H385.953V162.032L385.921 162C381.217 165.2 377.025 169.968 374.209 175.152H374.241V178.128H385.729V182H389.985V178.128H393.185ZM378.433 174.736C380.225 171.472 382.881 168.496 385.729 166.224V174.736H378.433ZM418.115 179.984V173.552C416.995 172.848 415.491 172.336 413.827 171.984C415.331 171.632 416.707 171.088 417.699 170.448V164.016C415.043 162.288 412.227 161.52 409.155 161.52C406.083 161.52 403.267 162.288 400.611 164.016V170.448C401.603 171.088 402.979 171.632 404.483 171.984C402.787 172.336 401.315 172.848 400.195 173.552V179.984C402.979 181.776 405.955 182.48 409.155 182.48C412.355 182.48 415.331 181.776 418.115 179.984ZM413.411 169.168C412.195 169.904 410.691 170.32 409.155 170.32C407.619 170.32 406.115 169.904 404.899 169.168V166.224C406.147 165.424 407.587 165.072 409.155 165.072C410.723 165.072 412.163 165.424 413.411 166.224V169.168ZM413.667 174.832V177.84C412.259 178.608 410.755 178.928 409.155 178.928C407.523 178.928 406.051 178.608 404.643 177.84V174.832C405.955 174.064 407.523 173.68 409.155 173.68C410.755 173.68 412.355 174.064 413.667 174.832ZM441.903 178.256H431.599L441.711 170.192V164.016C439.215 162.352 436.271 161.52 433.103 161.52C430.639 161.52 428.175 161.968 425.807 162.768V166.832C428.207 166 430.607 165.52 433.103 165.52C434.703 165.52 436.207 165.872 437.423 166.512V168.88L425.487 178.384V182H441.903V178.256ZM368.481 226.256H358.177L368.289 218.192V212.016C365.793 210.352 362.849 209.52 359.681 209.52C357.217 209.52 354.753 209.968 352.385 210.768V214.832C354.785 214 357.185 213.52 359.681 213.52C361.281 213.52 362.785 213.872 364.001 214.512V216.88L352.065 226.384V230H368.481V226.256ZM393.257 227.984V219.344C391.113 218.128 388.649 217.36 385.897 217.36C384.233 217.36 382.665 217.68 380.809 218.512V214.576C382.441 213.808 384.169 213.424 386.185 213.424C388.489 213.424 390.569 213.776 392.521 214.48V210.608C390.345 209.84 388.041 209.52 385.769 209.52C382.473 209.52 379.113 210.352 376.457 212.016V227.984C378.953 229.744 381.865 230.48 384.841 230.48C387.689 230.48 390.601 229.744 393.257 227.984ZM384.937 226.768C383.433 226.768 382.121 226.448 380.809 225.744V221.616C382.121 220.944 383.433 220.592 384.937 220.592C386.441 220.592 387.753 220.944 389.065 221.616V225.744C387.753 226.448 386.441 226.768 384.937 226.768ZM419.118 226.128V222.736H415.918V210H411.886V210.032L411.854 210C407.15 213.2 402.958 217.968 400.142 223.152H400.174V226.128H411.662V230H415.918V226.128H419.118ZM404.366 222.736C406.158 219.472 408.814 216.496 411.662 214.224V222.736H404.366ZM441.903 226.256H431.599L441.711 218.192V212.016C439.215 210.352 436.271 209.52 433.103 209.52C430.639 209.52 428.175 209.968 425.807 210.768V214.832C428.207 214 430.607 213.52 433.103 213.52C434.703 213.52 436.207 213.872 437.423 214.512V216.88L425.487 226.384V230H441.903V226.256ZM348.513 260.016V268.656C350.657 269.872 353.089 270.64 355.873 270.64C357.537 270.64 359.105 270.32 360.961 269.488V273.424C359.329 274.192 357.601 274.576 355.585 274.576C353.249 274.576 351.169 274.224 349.249 273.52V277.392C351.425 278.16 353.729 278.48 356.001 278.48C359.297 278.48 362.657 277.648 365.313 275.984V260.016C362.817 258.256 359.905 257.52 356.929 257.52C354.081 257.52 351.169 258.256 348.513 260.016ZM360.961 266.384C359.649 267.056 358.337 267.408 356.833 267.408C355.329 267.408 354.017 267.056 352.705 266.384V262.256C354.017 261.552 355.329 261.232 356.833 261.232C358.337 261.232 359.649 261.552 360.961 262.256V266.384ZM391.557 275.984V269.552C390.437 268.848 388.933 268.336 387.269 267.984C388.773 267.632 390.149 267.088 391.141 266.448V260.016C388.485 258.288 385.669 257.52 382.597 257.52C379.525 257.52 376.709 258.288 374.053 260.016V266.448C375.045 267.088 376.421 267.632 377.925 267.984C376.229 268.336 374.757 268.848 373.637 269.552V275.984C376.421 277.776 379.397 278.48 382.597 278.48C385.797 278.48 388.773 277.776 391.557 275.984ZM386.853 265.168C385.637 265.904 384.133 266.32 382.597 266.32C381.061 266.32 379.557 265.904 378.341 265.168V262.224C379.589 261.424 381.029 261.072 382.597 261.072C384.165 261.072 385.605 261.424 386.853 262.224V265.168ZM387.109 270.832V273.84C385.701 274.608 384.197 274.928 382.597 274.928C380.965 274.928 379.493 274.608 378.085 273.84V270.832C379.397 270.064 380.965 269.68 382.597 269.68C384.197 269.68 385.797 270.064 387.109 270.832ZM417.618 274.128V270.736H414.418V258H410.386V258.032L410.354 258C405.65 261.2 401.458 265.968 398.642 271.152H398.674V274.128H410.162V278H414.418V274.128H417.618ZM402.866 270.736C404.658 267.472 407.314 264.496 410.162 262.224V270.736H402.866ZM441.747 275.984V267.344C439.603 266.128 437.139 265.36 434.387 265.36C432.723 265.36 431.155 265.68 429.299 266.512V262.576C430.931 261.808 432.659 261.424 434.675 261.424C436.979 261.424 439.059 261.776 441.011 262.48V258.608C438.835 257.84 436.531 257.52 434.259 257.52C430.963 257.52 427.603 258.352 424.947 260.016V275.984C427.443 277.744 430.355 278.48 433.331 278.48C436.179 278.48 439.091 277.744 441.747 275.984ZM433.427 274.768C431.923 274.768 430.611 274.448 429.299 273.744V269.616C430.611 268.944 431.923 268.592 433.427 268.592C434.931 268.592 436.243 268.944 437.555 269.616V273.744C436.243 274.448 434.931 274.768 433.427 274.768Z" fill="white"/>
<path d="M66 251H63.712L61.104 259.096L58.496 251H56.16L59.568 261H62.592L66 251ZM68.2206 252.856H70.3326V259.144H68.2206V261H74.6366V259.144H72.5246V252.856H74.6366V251H68.2206V252.856ZM84.4756 261H87.0516L83.3556 254.952L86.6516 251H84.1716L79.8836 255.992V251H77.6916V261H79.8836V258.68L81.7556 256.536L84.4756 261ZM93.7927 258.056C93.9847 258.056 94.1767 258.056 94.3687 258.024L96.1927 261H98.6248L96.5447 257.704C97.2167 257.56 97.8407 257.304 98.4487 256.936V252.008C97.0567 251.176 95.2327 250.76 93.3287 250.76C91.9367 250.76 90.8327 250.856 89.7447 251V261H91.9367V257.992C92.5127 258.04 93.1207 258.056 93.7927 258.056ZM91.9367 252.808C92.4487 252.776 93.0567 252.744 93.7447 252.744H94.0647C94.9447 252.776 95.6487 252.968 96.3047 253.336V255.704C95.6487 256.072 94.9447 256.264 94.0647 256.28C93.9527 256.296 93.8407 256.296 93.7447 256.296C93.0567 256.296 92.4647 256.264 91.9367 256.216V252.808ZM108.454 261H110.614V252.008C109.142 251.128 107.702 250.76 106.198 250.76C104.694 250.76 103.238 251.128 101.766 252.008V261H103.942V257.864H108.454V261ZM103.942 253.304C104.662 252.92 105.382 252.744 106.198 252.744C106.998 252.744 107.718 252.92 108.454 253.304V255.96H103.942V253.304ZM119.381 258.616L122.549 254.12V261H124.661V251H122.517L119.381 255.64L116.261 251H114.117V261H116.229V254.136L119.381 258.616ZM140.892 259.992V255.88L134.94 254.6V253.272C135.788 252.872 136.62 252.712 137.58 252.712C138.652 252.712 139.868 252.968 140.892 253.352V251.384C139.868 250.984 138.7 250.76 137.356 250.76C135.82 250.76 134.332 251.128 132.844 252.008V256.056L138.796 257.336V258.728C138.044 259.128 137.164 259.288 136.236 259.288C135.148 259.288 133.884 259.048 132.844 258.648V260.616C133.868 261.016 135.02 261.24 136.38 261.24C137.9 261.24 139.388 260.872 140.892 259.992ZM143.764 252.856H145.876V259.144H143.764V261H150.18V259.144H148.068V252.856H150.18V251H143.764V252.856ZM159.923 261H162.067V251H160.051V257.8L155.379 251H153.235V261H155.251V254.2L159.923 261ZM171.921 256.12V259C171.313 259.16 170.705 259.256 170.081 259.256C169.153 259.256 168.385 259.128 167.665 258.728V253.288C168.609 252.872 169.521 252.744 170.513 252.744C171.585 252.744 172.833 252.984 173.857 253.384V251.384C172.769 250.968 171.489 250.76 170.145 250.76C168.577 250.76 166.993 251.128 165.473 251.992V260.008C166.817 260.872 168.385 261.24 170.065 261.24C171.569 261.24 172.833 260.888 173.889 260.392V256.12H171.921ZM183.986 261H186.178V251H183.986V254.888H179.346V251H177.154V261H179.346V256.792H183.986V261Z" fill="white"/>
<path d="M71.232 133H75.552V115.016C72.608 113.256 69.728 112.52 66.72 112.52C63.712 112.52 60.8 113.256 57.856 115.016V133H62.208V126.728H71.232V133ZM62.208 117.608C63.648 116.84 65.088 116.488 66.72 116.488C68.32 116.488 69.76 116.84 71.232 117.608V122.92H62.208V117.608ZM100.254 130.984V124.936C99.0383 123.976 97.5023 123.336 95.8703 122.952C97.3423 122.568 98.7503 121.96 99.8703 121.064V115.016C97.3103 113.352 93.9183 112.52 90.0463 112.52C87.2943 112.52 84.7343 112.744 82.5583 113V133C84.9263 133.32 87.3583 133.48 90.1103 133.48C94.0463 133.48 97.6943 132.68 100.254 130.984ZM86.9423 116.136C87.6783 116.04 89.1503 115.976 90.3023 115.976C92.3503 115.976 94.1103 116.424 95.4863 117.256V120.168C94.2703 121 92.4143 121.448 90.3663 121.448H86.9423V116.136ZM90.5263 124.52C92.6703 124.52 94.5903 124.968 95.9023 125.832V128.808C94.4943 129.672 92.6383 130.024 90.4623 130.024C89.2783 130.024 87.7103 129.96 86.9423 129.864V124.52H90.5263ZM111.013 117.608C112.709 116.808 114.245 116.488 116.101 116.488C118.181 116.488 120.581 116.968 122.565 117.736V113.736C120.549 112.968 118.245 112.52 115.557 112.52C112.581 112.52 109.605 113.256 106.533 115.016V130.984C109.605 132.744 112.581 133.48 115.557 133.48C118.245 133.48 120.549 133.064 122.565 132.296V128.296C120.581 129.064 118.181 129.512 116.101 129.512C114.245 129.512 112.709 129.192 111.013 128.392V117.608ZM75.648 154.984V148.936C74.432 147.976 72.896 147.336 71.264 146.952C72.736 146.568 74.144 145.96 75.264 145.064V139.016C72.704 137.352 69.312 136.52 65.44 136.52C62.688 136.52 60.128 136.744 57.952 137V157C60.32 157.32 62.752 157.48 65.504 157.48C69.44 157.48 73.088 156.68 75.648 154.984ZM62.336 140.136C63.072 140.04 64.544 139.976 65.696 139.976C67.744 139.976 69.504 140.424 70.88 141.256V144.168C69.664 145 67.808 145.448 65.76 145.448H62.336V140.136ZM65.92 148.52C68.064 148.52 69.984 148.968 71.296 149.832V152.808C69.888 153.672 68.032 154.024 65.856 154.024C64.672 154.024 63.104 153.96 62.336 153.864V148.52H65.92ZM94.7905 157H98.5985V142.472C96.0065 140.776 93.3505 140.008 90.2465 140.008C87.1425 140.008 84.4865 140.808 81.8945 142.472V154.984C83.8465 156.744 85.9585 157.48 88.5185 157.48C90.6945 157.48 92.6465 156.744 94.4705 155.08L94.7905 157ZM89.8945 153.64C88.4545 153.64 87.2385 153.288 86.2145 152.424V145.096C87.3025 144.36 88.6785 143.88 90.2465 143.88C91.8145 143.88 93.1905 144.328 94.2785 145.096V152.136C92.9985 153.128 91.4625 153.64 89.8945 153.64ZM109.859 145.48C111.171 144.552 112.707 143.976 114.339 143.976C115.811 143.976 117.027 144.36 118.083 145.192V157H122.435V142.472C120.707 140.808 118.531 140.008 115.971 140.008C113.891 140.008 111.683 140.776 109.667 142.472L109.315 140.488H105.507V157H109.859V145.48ZM142.292 157H147.092L140.756 146.536L146.292 140.488H141.332L133.684 148.36V135.08H129.332V157H133.684V153.288L137.492 149.32L142.292 157Z" fill="#171755"/>
<path d="M56.7795 285.181C57.9495 285.896 59.1455 286.195 60.3415 286.195C61.5375 286.195 62.7465 285.896 63.9035 285.181V278.694C62.7465 277.979 61.5375 277.68 60.3415 277.68C59.1455 277.68 57.9495 277.979 56.7795 278.694V285.181ZM58.2225 284.349V279.526C58.8985 279.162 59.6005 279.006 60.3415 279.006C61.0955 279.006 61.7845 279.162 62.4605 279.526V284.349C61.7845 284.713 61.0955 284.869 60.3415 284.869C59.6005 284.869 58.8985 284.713 58.2225 284.349ZM67.5951 282.191C68.5181 282.191 69.4411 282.334 70.1041 282.737V284.349C69.4021 284.726 68.6351 284.882 67.7771 284.882C66.8281 284.882 65.9701 284.726 65.1771 284.414V285.727C66.0351 286.052 67.0101 286.195 67.9461 286.195C69.2071 286.195 70.4421 285.857 71.5211 285.181V282.048C70.5331 281.359 69.2331 281.086 67.9851 281.086H66.8801V279.136H71.4561V277.875H65.5021V282.191H67.5951ZM75.922 287.053L80.654 276.822H79.159L74.427 287.053H75.922ZM83.3274 279.136H85.0694V284.739H83.3274V286H88.0984V284.739H86.5254V277.875H83.3274V279.136ZM88.5833 279.136H90.3253V284.739H88.5833V286H93.3543V284.739H91.7813V277.875H88.5833V279.136Z" fill="white"/>
<g opacity="0.11">
<rect x="24" y="328" width="445" height="77" rx="12" fill="#FFFAFA"/>
<rect x="24.5" y="328.5" width="444" height="76" rx="11.5" stroke="#FFB6B6" stroke-opacity="0.08"/>
</g>
<path d="M53.472 343.52V342.16C55.44 342.016 56.848 340.992 56.848 339.168C56.848 337.152 55.456 336.544 53.632 335.984L52.4 335.616C51.12 335.216 50.192 334.896 50.192 333.84C50.192 332.96 50.944 332.352 52.368 332.352C53.84 332.352 55.328 332.976 56.208 333.584V331.872C55.68 331.488 54.736 331.056 53.472 330.896V329.504H52.032V330.848C50.08 330.96 48.528 332.048 48.528 333.952C48.528 335.936 50.032 336.608 51.632 337.056L53.104 337.488C54.48 337.92 55.232 338.256 55.232 339.248C55.232 340.128 54.608 340.72 53.024 340.72C51.488 340.72 49.792 340.08 48.768 339.36V340.992C49.472 341.488 50.64 341.968 52.032 342.128V343.52H53.472Z" fill="#BCBCBC"/>
<path d="M79.184 380.312C79.184 377.048 76.952 374.888 73.688 374.888C72.056 374.888 70.76 375.44 69.872 376.088C71.504 373.232 74.768 370.712 76.664 369.488H72.128C69.656 371.048 65.912 374.744 65.912 379.424C65.912 383.624 68.432 386.24 72.56 386.24C76.544 386.24 79.184 383.816 79.184 380.312ZM69.2 379.52C69.2 379.232 69.224 378.944 69.272 378.68C70.232 378.032 71.528 377.528 72.896 377.528C74.696 377.528 75.92 378.488 75.92 380.384C75.92 382.232 74.576 383.336 72.68 383.336C70.664 383.336 69.2 382.04 69.2 379.52ZM81.2988 369.488L80.2668 372.344H83.3628V386H86.5548V369.488H81.2988ZM92.8083 382.496H89.5683L88.1763 388.76H90.7443L92.8083 382.496ZM94.7519 369.488L93.7199 372.344H96.8159V386H100.008V369.488H94.7519ZM111.205 369.488L102.397 380.384V382.712H111.205V386H114.397V382.712H117.373V379.856H114.397V369.488H111.205ZM106.021 379.856L111.205 373.376V379.856H106.021ZM120.561 369.488L119.625 378.608H124.857C126.993 378.608 128.529 379.16 128.529 381.008C128.529 382.592 127.161 383.336 125.217 383.336C122.769 383.336 120.369 382.208 119.217 381.248V384.488C120.393 385.28 122.601 386.24 125.457 386.24C129.201 386.24 131.793 384.272 131.793 381.008C131.793 377.432 129.417 375.728 125.793 375.728H122.985L123.369 372.392H130.905V369.488H120.561Z" fill="white"/>
<path d="M48.948 352L50.1 349.276H54.156L55.308 352H56.184L52.632 343.744H51.636L48.084 352H48.948ZM52.128 344.5L53.856 348.568H50.4L52.128 344.5ZM59.9094 348.724L59.0094 348.448C58.1574 348.184 57.5574 347.932 57.5574 347.224C57.5574 346.54 58.2414 346.192 59.0094 346.192C59.8854 346.192 60.7854 346.552 61.2534 346.9V346.096C60.7854 345.796 59.9334 345.508 59.0334 345.508C57.6534 345.508 56.8134 346.276 56.8134 347.248C56.8134 348.316 57.5814 348.76 58.4694 349.012L59.4414 349.3C60.2814 349.552 60.8094 349.78 60.8094 350.476C60.8094 351.232 60.2454 351.496 59.3694 351.496C58.3734 351.496 57.3654 351.088 56.8014 350.716V351.508C57.3174 351.82 58.3014 352.18 59.3574 352.18C60.7254 352.18 61.5414 351.58 61.5414 350.452C61.5414 349.468 60.8334 349 59.9094 348.724ZM65.6399 348.724L64.7399 348.448C63.8879 348.184 63.2879 347.932 63.2879 347.224C63.2879 346.54 63.9719 346.192 64.7399 346.192C65.6159 346.192 66.5159 346.552 66.9839 346.9V346.096C66.5159 345.796 65.6639 345.508 64.7639 345.508C63.3839 345.508 62.5439 346.276 62.5439 347.248C62.5439 348.316 63.3119 348.76 64.1999 349.012L65.1719 349.3C66.0119 349.552 66.5399 349.78 66.5399 350.476C66.5399 351.232 65.9759 351.496 65.0999 351.496C64.1039 351.496 63.0959 351.088 62.5319 350.716V351.508C63.0479 351.82 64.0319 352.18 65.0879 352.18C66.4559 352.18 67.2719 351.58 67.2719 350.452C67.2719 349.468 66.5639 349 65.6399 348.724ZM73.8304 351.616V350.908C73.3864 351.196 72.4624 351.388 71.6584 351.388C70.2544 351.388 69.2104 350.656 69.1264 349.096H73.9984V348.724C73.9984 346.66 73.0144 345.508 71.2864 345.508C69.5824 345.508 68.3464 346.708 68.3464 348.82C68.3464 351.004 69.7264 352.12 71.5984 352.12C72.4024 352.12 73.3504 351.94 73.8304 351.616ZM71.2624 346.192C72.5224 346.192 73.2064 347.02 73.2424 348.532H69.1264C69.1744 347.02 70.0624 346.192 71.2624 346.192ZM79.1242 351.724V351.028C78.8242 351.232 78.3682 351.412 77.8402 351.412C77.1202 351.412 76.7002 351.076 76.7002 350.26V346.324H79.0642V345.64H76.7002V344.44H76.5082L74.9482 346.12V346.324H75.9322V350.32C75.9322 351.772 76.8082 352.12 77.6962 352.12C78.3562 352.12 78.8362 351.916 79.1242 351.724ZM83.1829 348.724L82.2829 348.448C81.4309 348.184 80.8309 347.932 80.8309 347.224C80.8309 346.54 81.5149 346.192 82.2829 346.192C83.1589 346.192 84.0589 346.552 84.5269 346.9V346.096C84.0589 345.796 83.2069 345.508 82.3069 345.508C80.9269 345.508 80.0869 346.276 80.0869 347.248C80.0869 348.316 80.8549 348.76 81.7429 349.012L82.7149 349.3C83.5549 349.552 84.0829 349.78 84.0829 350.476C84.0829 351.232 83.5189 351.496 82.6429 351.496C81.6469 351.496 80.6389 351.088 80.0749 350.716V351.508C80.5909 351.82 81.5749 352.18 82.6309 352.18C83.9989 352.18 84.8149 351.58 84.8149 350.452C84.8149 349.468 84.1069 349 83.1829 348.724ZM89.4573 344.62C89.8173 344.62 90.0693 344.404 90.0693 344.092C90.0693 343.78 89.8173 343.564 89.4573 343.564C89.1093 343.564 88.8573 343.78 88.8573 344.092C88.8573 344.404 89.1093 344.62 89.4573 344.62ZM89.0733 345.64V352H89.8413V345.64H89.0733ZM91.7449 345.64V352H92.5129V346.996C93.0049 346.684 93.8209 346.252 94.6849 346.252C95.6809 346.252 96.3889 346.816 96.3889 348.052V352H97.1449V347.92C97.1449 346.288 96.2329 345.52 94.9129 345.52C93.8209 345.52 93.0169 346.024 92.4649 346.468V345.64H91.7449ZM101.991 352H105.459C107.151 352 108.315 351.304 108.315 349.768C108.315 348.568 107.559 347.8 106.179 347.62C107.079 347.44 107.787 346.792 107.787 345.772C107.787 344.296 106.683 343.744 105.231 343.744H101.991V352ZM105.171 344.488C106.203 344.488 106.947 344.836 106.947 345.892C106.947 346.864 106.155 347.332 105.087 347.332H102.783V344.488H105.171ZM105.303 348.016C106.539 348.016 107.463 348.496 107.463 349.636C107.463 350.824 106.563 351.256 105.399 351.256H102.783V348.016H105.303ZM113.727 347.992V348.76C113.415 348.652 112.887 348.544 112.239 348.544C110.499 348.544 109.491 349.384 109.491 350.476C109.491 351.46 110.163 352.12 111.459 352.12C112.455 352.12 113.259 351.604 113.775 351.04V352H114.483V348.004C114.483 346.192 113.319 345.52 112.035 345.52C110.883 345.52 109.947 346.084 109.539 346.528V347.344C110.067 346.78 110.907 346.264 111.963 346.264C112.887 346.264 113.727 346.732 113.727 347.992ZM110.223 350.44C110.223 349.672 110.943 349.096 112.455 349.096C112.911 349.096 113.415 349.192 113.727 349.288V350.536C113.163 351.052 112.407 351.496 111.555 351.496C110.811 351.496 110.223 351.196 110.223 350.44ZM116.331 345.64V352H117.099V346.996C117.591 346.684 118.407 346.252 119.271 346.252C120.267 346.252 120.975 346.816 120.975 348.052V352H121.731V347.92C121.731 346.288 120.819 345.52 119.499 345.52C118.407 345.52 117.603 346.024 117.051 346.468V345.64H116.331ZM123.573 343.744V352H124.341V348.796H125.589L127.785 352H128.673L126.177 348.424L128.685 345.64H127.773L125.637 348.088H124.341V343.588L123.573 343.744Z" fill="white"/>
<path d="M327.116 372H328.796L332.828 362.368H331.246L327.97 370.6L324.708 362.368H323.112L327.116 372ZM334.606 363.544C335.18 363.544 335.544 363.236 335.544 362.774C335.544 362.298 335.18 361.99 334.606 361.99C334.032 361.99 333.654 362.298 333.654 362.774C333.654 363.236 334.032 363.544 334.606 363.544ZM333.934 364.58V372H335.25V364.58H333.934ZM343.457 371.482V370.32C342.911 370.628 341.889 370.894 340.895 370.894C339.341 370.894 338.333 370.18 338.235 368.696H343.611V368.08C343.611 365.77 342.449 364.426 340.419 364.426C338.347 364.426 336.905 365.868 336.905 368.29C336.905 370.81 338.501 372.14 340.769 372.14C341.791 372.14 342.925 371.874 343.457 371.482ZM340.349 365.56C341.651 365.56 342.295 366.4 342.323 367.8H338.221C338.291 366.386 339.117 365.56 340.349 365.56ZM346.821 372H348.347L350.293 366.064L352.211 372H353.751L356.019 364.58H354.605L352.967 370.754L351.035 364.58H349.537L347.605 370.754L345.981 364.58H344.553L346.821 372ZM359.534 363.67H362.754V372H364.14V363.67H367.36V362.368H359.534V363.67ZM368.482 364.58V372H369.798V366.484C370.302 366.106 371.072 365.7 371.8 365.7C372.332 365.7 372.766 365.854 373.088 366.05V364.664C372.822 364.524 372.514 364.44 372.192 364.44C371.198 364.44 370.288 365.07 369.714 365.644V364.58H368.482ZM378.688 367.492V368.164C378.352 368.038 377.778 367.898 377.05 367.898C375.146 367.898 373.914 368.85 373.914 370.152C373.914 371.384 374.768 372.14 376.266 372.14C377.372 372.14 378.24 371.594 378.772 371.02V372H380.004V367.478C380.004 365.266 378.604 364.44 376.994 364.44C375.622 364.44 374.488 365.084 373.998 365.588V366.946C374.628 366.302 375.664 365.742 376.826 365.742C377.82 365.742 378.688 366.232 378.688 367.492ZM375.146 370.096C375.146 369.326 375.902 368.808 377.372 368.808C377.848 368.808 378.352 368.892 378.688 368.99V370.25C378.114 370.726 377.316 371.118 376.476 371.118C375.734 371.118 375.146 370.824 375.146 370.096ZM381.894 364.58V372H383.21V366.372C383.728 366.064 384.568 365.7 385.436 365.7C386.528 365.7 387.186 366.316 387.186 367.534V372H388.502V367.24C388.502 365.42 387.564 364.44 385.926 364.44C384.708 364.44 383.756 365 383.126 365.518V364.58H381.894ZM393.73 367.982L392.82 367.716C391.868 367.436 391.252 367.212 391.252 366.54C391.252 365.91 391.882 365.602 392.666 365.602C393.716 365.602 394.85 366.022 395.382 366.428V365.112C394.864 364.762 393.8 364.426 392.736 364.426C391.014 364.426 389.978 365.35 389.978 366.582C389.978 367.87 390.916 368.416 392.022 368.696L392.96 368.976C393.912 369.228 394.472 369.438 394.472 370.082C394.472 370.782 393.926 371.034 393.044 371.034C391.896 371.034 390.734 370.586 390.048 370.152V371.44C390.608 371.79 391.798 372.196 392.988 372.196C394.654 372.196 395.718 371.454 395.718 370.054C395.718 368.906 394.92 368.318 393.73 367.982ZM401.561 367.492V368.164C401.225 368.038 400.651 367.898 399.923 367.898C398.019 367.898 396.787 368.85 396.787 370.152C396.787 371.384 397.641 372.14 399.139 372.14C400.245 372.14 401.113 371.594 401.645 371.02V372H402.877V367.478C402.877 365.266 401.477 364.44 399.867 364.44C398.495 364.44 397.361 365.084 396.871 365.588V366.946C397.501 366.302 398.537 365.742 399.699 365.742C400.693 365.742 401.561 366.232 401.561 367.492ZM398.019 370.096C398.019 369.326 398.775 368.808 400.245 368.808C400.721 368.808 401.225 368.892 401.561 368.99V370.25C400.987 370.726 400.189 371.118 399.349 371.118C398.607 371.118 398.019 370.824 398.019 370.096ZM410.633 365C410.073 364.622 409.275 364.426 408.421 364.426C406.153 364.426 404.417 365.966 404.417 368.29C404.417 370.544 406.139 372.14 408.407 372.14C409.275 372.14 410.073 371.93 410.633 371.552V370.236C410.073 370.642 409.289 370.894 408.449 370.894C406.881 370.894 405.733 369.858 405.733 368.29C405.733 366.68 406.881 365.672 408.463 365.672C409.289 365.672 410.073 365.91 410.633 366.316V365ZM416.601 371.678V370.544C416.265 370.754 415.719 370.95 415.131 370.95C414.375 370.95 413.927 370.614 413.927 369.76V365.742H416.545V364.58H413.927V363.18H413.619L411.477 365.406V365.742H412.611V369.9C412.611 371.692 413.647 372.14 414.809 372.14C415.635 372.14 416.237 371.916 416.601 371.678ZM418.729 363.544C419.303 363.544 419.667 363.236 419.667 362.774C419.667 362.298 419.303 361.99 418.729 361.99C418.155 361.99 417.777 362.298 417.777 362.774C417.777 363.236 418.155 363.544 418.729 363.544ZM418.057 364.58V372H419.373V364.58H418.057ZM424.878 372.14C427.104 372.14 428.728 370.474 428.728 368.29C428.728 366.078 427.104 364.44 424.878 364.44C422.652 364.44 421.028 366.078 421.028 368.29C421.028 370.474 422.652 372.14 424.878 372.14ZM424.878 370.908C423.422 370.908 422.33 369.788 422.33 368.29C422.33 366.764 423.422 365.672 424.878 365.672C426.348 365.672 427.426 366.764 427.426 368.29C427.426 369.802 426.348 370.908 424.878 370.908ZM430.334 364.58V372H431.65V366.372C432.168 366.064 433.008 365.7 433.876 365.7C434.968 365.7 435.626 366.316 435.626 367.534V372H436.942V367.24C436.942 365.42 436.004 364.44 434.366 364.44C433.148 364.44 432.196 365 431.566 365.518V364.58H430.334ZM442.169 367.982L441.259 367.716C440.307 367.436 439.691 367.212 439.691 366.54C439.691 365.91 440.321 365.602 441.105 365.602C442.155 365.602 443.289 366.022 443.821 366.428V365.112C443.303 364.762 442.239 364.426 441.175 364.426C439.453 364.426 438.417 365.35 438.417 366.582C438.417 367.87 439.355 368.416 440.461 368.696L441.399 368.976C442.351 369.228 442.911 369.438 442.911 370.082C442.911 370.782 442.365 371.034 441.483 371.034C440.335 371.034 439.173 370.586 438.487 370.152V371.44C439.047 371.79 440.237 372.196 441.427 372.196C443.093 372.196 444.157 371.454 444.157 370.054C444.157 368.906 443.359 368.318 442.169 367.982Z" fill="#3DB85F"/>
<mask id="mask1_84_1769" style="mask-type:alpha" maskUnits="userSpaceOnUse" x="0" y="54" width="496" height="394">
<rect x="0.5" y="54.5" width="495" height="393" rx="7.5" fill="#0D0A2C" stroke="url(#paint3_linear_84_1769)"/>
</mask>
<g mask="url(#mask1_84_1769)">
<path d="M3 57C0.6 59.3825 -272 329.993 -408 465" stroke="url(#paint4_linear_84_1769)"/>
<path d="M25 57C22.6 59.3825 -250 329.993 -386 465" stroke="url(#paint5_linear_84_1769)"/>
<path d="M47 57C44.6 59.3825 -228 329.993 -364 465" stroke="url(#paint6_linear_84_1769)"/>
<path d="M69 57C66.6 59.3825 -206 329.993 -342 465" stroke="url(#paint7_linear_84_1769)"/>
<path d="M91 57C88.6 59.3825 -184 329.993 -320 465" stroke="url(#paint8_linear_84_1769)"/>
<path d="M113 57C110.6 59.3825 -162 329.993 -298 465" stroke="url(#paint9_linear_84_1769)"/>
<path d="M135 57C132.6 59.3825 -140 329.993 -276 465" stroke="url(#paint10_linear_84_1769)"/>
<path d="M157 57C154.6 59.3825 -118 329.993 -254 465" stroke="url(#paint11_linear_84_1769)"/>
<path d="M179 57C176.6 59.3825 -96 329.993 -232 465" stroke="url(#paint12_linear_84_1769)"/>
<path d="M201 57C198.6 59.3825 -74 329.993 -210 465" stroke="url(#paint13_linear_84_1769)"/>
<path d="M223 57C220.6 59.3825 -52 329.993 -188 465" stroke="url(#paint14_linear_84_1769)"/>
<path d="M245 57C242.6 59.3825 -30 329.993 -166 465" stroke="url(#paint15_linear_84_1769)"/>
<path d="M267 57C264.6 59.3825 -8 329.993 -144 465" stroke="url(#paint16_linear_84_1769)"/>
<path d="M289 57C286.6 59.3825 14 329.993 -122 465" stroke="url(#paint17_linear_84_1769)"/>
<path d="M311 57C308.6 59.3825 36 329.993 -100 465" stroke="url(#paint18_linear_84_1769)"/>
<path d="M333 57C330.6 59.3825 58 329.993 -78 465" stroke="url(#paint19_linear_84_1769)"/>
<path d="M355 57C352.6 59.3825 80 329.993 -56 465" stroke="url(#paint20_linear_84_1769)"/>
<path d="M377 57C374.6 59.3825 102 329.993 -34 465" stroke="url(#paint21_linear_84_1769)"/>
<path d="M399 57C396.6 59.3825 124 329.993 -12 465" stroke="url(#paint22_linear_84_1769)"/>
<path d="M421 57C418.6 59.3825 146 329.993 10 465" stroke="url(#paint23_linear_84_1769)"/>
<path d="M443 57C440.6 59.3825 168 329.993 32 465" stroke="url(#paint24_linear_84_1769)"/>
<path d="M465 57C462.6 59.3825 190 329.993 54 465" stroke="url(#paint25_linear_84_1769)"/>
<path d="M487 57C484.6 59.3825 212 329.993 76 465" stroke="url(#paint26_linear_84_1769)"/>
<path d="M509 57C506.6 59.3825 234 329.993 98 465" stroke="url(#paint27_linear_84_1769)"/>
<path d="M531 57C528.6 59.3825 256 329.993 120 465" stroke="url(#paint28_linear_84_1769)"/>
<path d="M553 57C550.6 59.3825 278 329.993 142 465" stroke="url(#paint29_linear_84_1769)"/>
<path d="M575 57C572.6 59.3825 300 329.993 164 465" stroke="url(#paint30_linear_84_1769)"/>
<path d="M597 57C594.6 59.3825 322 329.993 186 465" stroke="url(#paint31_linear_84_1769)"/>
<path d="M619 57C616.6 59.3825 344 329.993 208 465" stroke="url(#paint32_linear_84_1769)"/>
<path d="M641 57C638.6 59.3825 366 329.993 230 465" stroke="url(#paint33_linear_84_1769)"/>
<path d="M663 57C660.6 59.3825 388 329.993 252 465" stroke="url(#paint34_linear_84_1769)"/>
<path d="M685 57C682.6 59.3825 410 329.993 274 465" stroke="url(#paint35_linear_84_1769)"/>
<path d="M707 57C704.6 59.3825 432 329.993 296 465" stroke="url(#paint36_linear_84_1769)"/>
<path d="M729 57C726.6 59.3825 454 329.993 318 465" stroke="url(#paint37_linear_84_1769)"/>
<path d="M751 57C748.6 59.3825 476 329.993 340 465" stroke="url(#paint38_linear_84_1769)"/>
<path d="M773 57C770.6 59.3825 498 329.993 362 465" stroke="url(#paint39_linear_84_1769)"/>
<path d="M795 57C792.6 59.3825 520 329.993 384 465" stroke="url(#paint40_linear_84_1769)"/>
<path d="M817 57C814.6 59.3825 542 329.993 406 465" stroke="url(#paint41_linear_84_1769)"/>
</g>
<rect opacity="0.96" x="295" width="225" height="106" rx="12" fill="#3B3665"/>
<path d="M345.677 37.36C345.677 38.432 344.893 39.168 343.133 39.168C341.565 39.168 339.981 38.528 338.989 37.856V38.976C339.917 39.584 341.437 40.16 343.133 40.16C345.229 40.16 346.765 39.184 346.765 37.312C346.765 35.408 345.533 34.816 343.613 34.192L342.429 33.808C341.053 33.36 340.013 32.944 340.013 31.68C340.013 30.624 340.877 29.84 342.557 29.84C344.061 29.84 345.437 30.464 346.221 31.04V29.856C345.565 29.376 344.269 28.816 342.573 28.816C340.557 28.816 338.893 29.84 338.893 31.76C338.893 33.616 340.349 34.24 341.805 34.704L343.293 35.184C344.845 35.696 345.677 36.144 345.677 37.36ZM355.628 39.488V38.544C355.036 38.928 353.804 39.184 352.732 39.184C350.86 39.184 349.468 38.208 349.356 36.128H355.852V35.632C355.852 32.88 354.54 31.344 352.236 31.344C349.964 31.344 348.316 32.944 348.316 35.76C348.316 38.672 350.156 40.16 352.652 40.16C353.724 40.16 354.988 39.92 355.628 39.488ZM352.204 32.256C353.884 32.256 354.796 33.36 354.844 35.376H349.356C349.42 33.36 350.604 32.256 352.204 32.256ZM357.998 31.52V40H359.022V33.328C359.678 32.912 360.766 32.336 361.918 32.336C363.246 32.336 364.19 33.088 364.19 34.736V40H365.198V34.56C365.198 32.384 363.982 31.36 362.222 31.36C360.766 31.36 359.694 32.032 358.958 32.624V31.52H357.998ZM373.767 40H374.711V28.784L373.687 28.992V31.68C373.127 31.504 372.519 31.36 371.671 31.36C369.191 31.36 367.207 32.944 367.207 35.984C367.207 38.704 368.823 40.16 370.935 40.16C372.215 40.16 373.223 39.584 373.767 39.104V40ZM371.703 32.288C372.567 32.288 373.159 32.464 373.687 32.656V38.304C373.175 38.72 372.263 39.232 371.143 39.232C369.383 39.232 368.263 38 368.263 35.936C368.263 33.536 369.687 32.288 371.703 32.288ZM381.238 28.992V40H382.294V35.216H388.006V34.224H382.294V29.984H388.806V28.992H381.238ZM393.839 39.184C392.511 39.184 391.567 38.432 391.567 36.784V31.52H390.543V36.96C390.543 39.136 391.759 40.16 393.535 40.16C394.975 40.16 396.063 39.488 396.799 38.896V40H397.759V31.52H396.735V38.176C396.095 38.608 394.991 39.184 393.839 39.184ZM400.28 31.52V40H401.304V33.328C401.96 32.912 403.048 32.336 404.2 32.336C405.528 32.336 406.472 33.088 406.472 34.736V40H407.48V34.56C407.48 32.384 406.264 31.36 404.504 31.36C403.048 31.36 401.976 32.032 401.24 32.624V31.52H400.28ZM416.048 40H416.992V28.784L415.968 28.992V31.68C415.408 31.504 414.8 31.36 413.952 31.36C411.472 31.36 409.488 32.944 409.488 35.984C409.488 38.704 411.104 40.16 413.216 40.16C414.496 40.16 415.504 39.584 416.048 39.104V40ZM413.984 32.288C414.848 32.288 415.44 32.464 415.968 32.656V38.304C415.456 38.72 414.544 39.232 413.424 39.232C411.664 39.232 410.544 38 410.544 35.936C410.544 33.536 411.968 32.288 413.984 32.288ZM423.098 35.632L421.898 35.264C420.762 34.912 419.962 34.576 419.962 33.632C419.962 32.72 420.874 32.256 421.898 32.256C423.066 32.256 424.266 32.736 424.89 33.2V32.128C424.266 31.728 423.13 31.344 421.93 31.344C420.09 31.344 418.97 32.368 418.97 33.664C418.97 35.088 419.994 35.68 421.178 36.016L422.474 36.4C423.594 36.736 424.298 37.04 424.298 37.968C424.298 38.976 423.546 39.328 422.378 39.328C421.05 39.328 419.706 38.784 418.954 38.288V39.344C419.642 39.76 420.954 40.24 422.362 40.24C424.186 40.24 425.274 39.44 425.274 37.936C425.274 36.624 424.33 36 423.098 35.632Z" fill="white"/>
<g clip-path="url(#clip1_84_1769)">
<path d="M311 34C311 36.1217 311.843 38.1566 313.343 39.6569C314.843 41.1571 316.878 42 319 42C321.122 42 323.157 41.1571 324.657 39.6569C326.157 38.1566 327 36.1217 327 34C327 31.8783 326.157 29.8434 324.657 28.3431C323.157 26.8429 321.122 26 319 26C316.878 26 314.843 26.8429 313.343 28.3431C311.843 29.8434 311 31.8783 311 34V34ZM316.904 36.803C316.858 36.8508 316.803 36.8888 316.742 36.9151C316.681 36.9413 316.615 36.955 316.549 36.9556C316.482 36.9562 316.416 36.9436 316.355 36.9184C316.294 36.8933 316.238 36.8561 316.191 36.8092C316.144 36.7623 316.107 36.7064 316.082 36.645C316.056 36.5835 316.044 36.5177 316.044 36.4513C316.045 36.3849 316.059 36.3193 316.085 36.2583C316.111 36.1973 316.149 36.1421 316.197 36.096L320.293 32H317.525C317.392 32 317.265 31.9473 317.171 31.8536C317.078 31.7598 317.025 31.6326 317.025 31.5C317.025 31.3674 317.078 31.2402 317.171 31.1464C317.265 31.0527 317.392 31 317.525 31H321.5C321.633 31 321.76 31.0527 321.854 31.1464C321.947 31.2402 322 31.3674 322 31.5V35.475C322 35.6076 321.947 35.7348 321.854 35.8286C321.76 35.9223 321.633 35.975 321.5 35.975C321.367 35.975 321.24 35.9223 321.146 35.8286C321.053 35.7348 321 35.6076 321 35.475V32.707L316.904 36.803Z" fill="#E6CB8C"/>
</g>
<g clip-path="url(#clip2_84_1769)">
<path d="M327 72C327 69.8783 326.157 67.8434 324.657 66.3431C323.157 64.8429 321.122 64 319 64C316.878 64 314.843 64.8429 313.343 66.3431C311.843 67.8434 311 69.8783 311 72C311 74.1217 311.843 76.1566 313.343 77.6569C314.843 79.1571 316.878 80 319 80C321.122 80 323.157 79.1571 324.657 77.6569C326.157 76.1566 327 74.1217 327 72V72ZM321.096 69.197C321.142 69.1492 321.197 69.1112 321.258 69.0849C321.319 69.0587 321.385 69.045 321.451 69.0444C321.518 69.0438 321.584 69.0564 321.645 69.0816C321.706 69.1067 321.762 69.1439 321.809 69.1908C321.856 69.2377 321.893 69.2936 321.918 69.355C321.944 69.4165 321.956 69.4823 321.956 69.5487C321.955 69.6151 321.941 69.6807 321.915 69.7417C321.889 69.8027 321.851 69.8579 321.803 69.904L317.707 74H320.475C320.608 74 320.735 74.0527 320.829 74.1464C320.922 74.2402 320.975 74.3674 320.975 74.5C320.975 74.6326 320.922 74.7598 320.829 74.8536C320.735 74.9473 320.608 75 320.475 75H316.5C316.367 75 316.24 74.9473 316.146 74.8536C316.053 74.7598 316 74.6326 316 74.5V70.525C316 70.3924 316.053 70.2652 316.146 70.1714C316.24 70.0777 316.367 70.025 316.5 70.025C316.633 70.025 316.76 70.0777 316.854 70.1714C316.947 70.2652 317 70.3924 317 70.525V73.293L321.096 69.197Z" fill="#87BBE1"/>
</g>
<path d="M339.691 66.992V78H340.747V73.28H342.731L346.779 78H348.107L343.947 73.28H344.299C346.523 73.28 347.979 72.224 347.979 70.224C347.979 68 346.475 66.992 344.107 66.992H339.691ZM344.075 67.984C345.819 67.984 346.891 68.64 346.891 70.224C346.891 71.712 345.803 72.416 344.075 72.416H340.747V67.984H344.075ZM357.019 77.488V76.544C356.427 76.928 355.195 77.184 354.123 77.184C352.251 77.184 350.859 76.208 350.747 74.128H357.243V73.632C357.243 70.88 355.931 69.344 353.627 69.344C351.355 69.344 349.707 70.944 349.707 73.76C349.707 76.672 351.547 78.16 354.043 78.16C355.115 78.16 356.379 77.92 357.019 77.488ZM353.595 70.256C355.275 70.256 356.187 71.36 356.235 73.376H350.747C350.811 71.36 351.995 70.256 353.595 70.256ZM365.549 80.528H366.573V70C365.693 69.68 364.605 69.36 363.181 69.36C360.829 69.36 358.941 70.896 358.941 73.936C358.941 76.592 360.477 78.16 362.621 78.16C363.901 78.16 364.973 77.616 365.549 77.152V80.528ZM359.997 73.888C359.997 71.504 361.325 70.288 363.213 70.288C364.157 70.288 364.909 70.448 365.549 70.656V76.288C364.989 76.72 364.029 77.216 362.829 77.216C361.133 77.216 359.997 75.952 359.997 73.888ZM372.308 77.184C370.98 77.184 370.036 76.432 370.036 74.784V69.52H369.012V74.96C369.012 77.136 370.228 78.16 372.004 78.16C373.444 78.16 374.532 77.488 375.268 76.896V78H376.228V69.52H375.204V76.176C374.564 76.608 373.46 77.184 372.308 77.184ZM385.612 77.488V76.544C385.02 76.928 383.788 77.184 382.716 77.184C380.844 77.184 379.452 76.208 379.34 74.128H385.836V73.632C385.836 70.88 384.524 69.344 382.22 69.344C379.948 69.344 378.3 70.944 378.3 73.76C378.3 76.672 380.14 78.16 382.636 78.16C383.708 78.16 384.972 77.92 385.612 77.488ZM382.188 70.256C383.868 70.256 384.78 71.36 384.828 73.376H379.34C379.404 71.36 380.588 70.256 382.188 70.256ZM391.567 73.632L390.367 73.264C389.231 72.912 388.431 72.576 388.431 71.632C388.431 70.72 389.343 70.256 390.367 70.256C391.535 70.256 392.735 70.736 393.359 71.2V70.128C392.735 69.728 391.599 69.344 390.399 69.344C388.559 69.344 387.439 70.368 387.439 71.664C387.439 73.088 388.463 73.68 389.647 74.016L390.943 74.4C392.063 74.736 392.767 75.04 392.767 75.968C392.767 76.976 392.015 77.328 390.847 77.328C389.519 77.328 388.175 76.784 387.423 76.288V77.344C388.111 77.76 389.423 78.24 390.831 78.24C392.655 78.24 393.743 77.44 393.743 75.936C393.743 74.624 392.799 74 391.567 73.632ZM400.311 77.632V76.704C399.911 76.976 399.303 77.216 398.599 77.216C397.639 77.216 397.079 76.768 397.079 75.68V70.432H400.231V69.52H397.079V67.92H396.823L394.743 70.16V70.432H396.055V75.76C396.055 77.696 397.223 78.16 398.407 78.16C399.287 78.16 399.927 77.888 400.311 77.632ZM406.144 66.992V78H407.2V73.216H412.912V72.224H407.2V67.984H413.712V66.992H406.144ZM418.746 77.184C417.418 77.184 416.474 76.432 416.474 74.784V69.52H415.45V74.96C415.45 77.136 416.666 78.16 418.442 78.16C419.882 78.16 420.97 77.488 421.706 76.896V78H422.666V69.52H421.642V76.176C421.002 76.608 419.898 77.184 418.746 77.184ZM425.186 69.52V78H426.21V71.328C426.866 70.912 427.954 70.336 429.106 70.336C430.434 70.336 431.378 71.088 431.378 72.736V78H432.386V72.56C432.386 70.384 431.17 69.36 429.41 69.36C427.954 69.36 426.882 70.032 426.146 70.624V69.52H425.186ZM440.954 78H441.898V66.784L440.874 66.992V69.68C440.314 69.504 439.706 69.36 438.858 69.36C436.378 69.36 434.394 70.944 434.394 73.984C434.394 76.704 436.01 78.16 438.122 78.16C439.402 78.16 440.41 77.584 440.954 77.104V78ZM438.89 70.288C439.754 70.288 440.346 70.464 440.874 70.656V76.304C440.362 76.72 439.45 77.232 438.33 77.232C436.57 77.232 435.45 76 435.45 73.936C435.45 71.536 436.874 70.288 438.89 70.288ZM448.004 73.632L446.804 73.264C445.668 72.912 444.868 72.576 444.868 71.632C444.868 70.72 445.78 70.256 446.804 70.256C447.972 70.256 449.172 70.736 449.796 71.2V70.128C449.172 69.728 448.036 69.344 446.836 69.344C444.996 69.344 443.876 70.368 443.876 71.664C443.876 73.088 444.9 73.68 446.084 74.016L447.38 74.4C448.5 74.736 449.204 75.04 449.204 75.968C449.204 76.976 448.452 77.328 447.284 77.328C445.956 77.328 444.612 76.784 443.86 76.288V77.344C444.548 77.76 445.86 78.24 447.268 78.24C449.092 78.24 450.18 77.44 450.18 75.936C450.18 74.624 449.236 74 448.004 73.632Z" fill="white"/>
</g>
<defs>
<filter id="filter0_d_84_1769" x="6.83056" y="60.8311" width="587.352" height="372.352" filterUnits="userSpaceOnUse" color-interpolation-filters="sRGB">
<feFlood flood-opacity="0" result="BackgroundImageFix"/>
<feColorMatrix in="SourceAlpha" type="matrix" values="0 0 0 0 0 0 0 0 0 0 0 0 0 0 0 0 0 0 127 0" result="hardAlpha"/>
<feOffset dx="51.5068" dy="51.5068"/>
<feGaussianBlur stdDeviation="34.3379"/>
<feComposite in2="hardAlpha" operator="out"/>
<feColorMatrix type="matrix" values="0 0 0 0 0.215686 0 0 0 0 0.219608 0 0 0 0 0.772549 0 0 0 0.12 0"/>
<feBlend mode="normal" in2="BackgroundImageFix" result="effect1_dropShadow_84_1769"/>
<feBlend mode="normal" in="SourceGraphic" in2="effect1_dropShadow_84_1769" result="shape"/>
</filter>
<linearGradient id="paint0_linear_84_1769" x1="248" y1="54" x2="248" y2="448" gradientUnits="userSpaceOnUse">
<stop stop-color="#0D0A2C"/>
<stop offset="1" stop-color="#080523"/>
</linearGradient>
<linearGradient id="paint1_linear_84_1769" x1="248" y1="54" x2="248" y2="448" gradientUnits="userSpaceOnUse">
<stop stop-color="#1F195A"/>
<stop offset="1" stop-opacity="0"/>
</linearGradient>
<radialGradient id="paint2_radial_84_1769" cx="0" cy="0" r="1" gradientUnits="userSpaceOnUse" gradientTransform="translate(277.98 126.172) rotate(143.891) scale(28.4859 27.584)">
<stop stop-color="white"/>
<stop offset="1" stop-color="#DDDCDA"/>
</radialGradient>
<linearGradient id="paint3_linear_84_1769" x1="248" y1="54" x2="248" y2="448" gradientUnits="userSpaceOnUse">
<stop stop-color="#1F195A"/>
<stop offset="1" stop-opacity="0"/>
</linearGradient>
<linearGradient id="paint4_linear_84_1769" x1="-202.5" y1="57" x2="-202.5" y2="465" gradientUnits="userSpaceOnUse">
<stop stop-color="#FAFAFA" stop-opacity="0.09"/>
<stop offset="1" stop-color="#EDF0F1" stop-opacity="0"/>
</linearGradient>
<linearGradient id="paint5_linear_84_1769" x1="-180.5" y1="57" x2="-180.5" y2="465" gradientUnits="userSpaceOnUse">
<stop stop-color="#FAFAFA" stop-opacity="0.09"/>
<stop offset="1" stop-color="#EDF0F1" stop-opacity="0"/>
</linearGradient>
<linearGradient id="paint6_linear_84_1769" x1="-158.5" y1="57" x2="-158.5" y2="465" gradientUnits="userSpaceOnUse">
<stop stop-color="#FAFAFA" stop-opacity="0.09"/>
<stop offset="1" stop-color="#EDF0F1" stop-opacity="0"/>
</linearGradient>
<linearGradient id="paint7_linear_84_1769" x1="-136.5" y1="57" x2="-136.5" y2="465" gradientUnits="userSpaceOnUse">
<stop stop-color="#FAFAFA" stop-opacity="0.09"/>
<stop offset="1" stop-color="#EDF0F1" stop-opacity="0"/>
</linearGradient>
<linearGradient id="paint8_linear_84_1769" x1="-114.5" y1="57" x2="-114.5" y2="465" gradientUnits="userSpaceOnUse">
<stop stop-color="#FAFAFA" stop-opacity="0.09"/>
<stop offset="1" stop-color="#EDF0F1" stop-opacity="0"/>
</linearGradient>
<linearGradient id="paint9_linear_84_1769" x1="-92.5" y1="57" x2="-92.5" y2="465" gradientUnits="userSpaceOnUse">
<stop stop-color="#FAFAFA" stop-opacity="0.09"/>
<stop offset="1" stop-color="#EDF0F1" stop-opacity="0"/>
</linearGradient>
<linearGradient id="paint10_linear_84_1769" x1="-70.5" y1="57" x2="-70.5" y2="465" gradientUnits="userSpaceOnUse">
<stop stop-color="#FAFAFA" stop-opacity="0.09"/>
<stop offset="1" stop-color="#EDF0F1" stop-opacity="0"/>
</linearGradient>
<linearGradient id="paint11_linear_84_1769" x1="-48.5" y1="57" x2="-48.5" y2="465" gradientUnits="userSpaceOnUse">
<stop stop-color="#FAFAFA" stop-opacity="0.09"/>
<stop offset="1" stop-color="#EDF0F1" stop-opacity="0"/>
</linearGradient>
<linearGradient id="paint12_linear_84_1769" x1="-26.5" y1="57" x2="-26.5" y2="465" gradientUnits="userSpaceOnUse">
<stop stop-color="#FAFAFA" stop-opacity="0.09"/>
<stop offset="1" stop-color="#EDF0F1" stop-opacity="0"/>
</linearGradient>
<linearGradient id="paint13_linear_84_1769" x1="-4.5" y1="57" x2="-4.5" y2="465" gradientUnits="userSpaceOnUse">
<stop stop-color="#FAFAFA" stop-opacity="0.09"/>
<stop offset="1" stop-color="#EDF0F1" stop-opacity="0"/>
</linearGradient>
<linearGradient id="paint14_linear_84_1769" x1="17.5" y1="57" x2="17.5" y2="465" gradientUnits="userSpaceOnUse">
<stop stop-color="#FAFAFA" stop-opacity="0.09"/>
<stop offset="1" stop-color="#EDF0F1" stop-opacity="0"/>
</linearGradient>
<linearGradient id="paint15_linear_84_1769" x1="39.5" y1="57" x2="39.5" y2="465" gradientUnits="userSpaceOnUse">
<stop stop-color="#FAFAFA" stop-opacity="0.09"/>
<stop offset="1" stop-color="#EDF0F1" stop-opacity="0"/>
</linearGradient>
<linearGradient id="paint16_linear_84_1769" x1="61.5" y1="57" x2="61.5" y2="465" gradientUnits="userSpaceOnUse">
<stop stop-color="#FAFAFA" stop-opacity="0.09"/>
<stop offset="1" stop-color="#EDF0F1" stop-opacity="0"/>
</linearGradient>
<linearGradient id="paint17_linear_84_1769" x1="83.5" y1="57" x2="83.5" y2="465" gradientUnits="userSpaceOnUse">
<stop stop-color="#FAFAFA" stop-opacity="0.09"/>
<stop offset="1" stop-color="#EDF0F1" stop-opacity="0"/>
</linearGradient>
<linearGradient id="paint18_linear_84_1769" x1="105.5" y1="57" x2="105.5" y2="465" gradientUnits="userSpaceOnUse">
<stop stop-color="#FAFAFA" stop-opacity="0.09"/>
<stop offset="1" stop-color="#EDF0F1" stop-opacity="0"/>
</linearGradient>
<linearGradient id="paint19_linear_84_1769" x1="127.5" y1="57" x2="127.5" y2="465" gradientUnits="userSpaceOnUse">
<stop stop-color="#FAFAFA" stop-opacity="0.09"/>
<stop offset="1" stop-color="#EDF0F1" stop-opacity="0"/>
</linearGradient>
<linearGradient id="paint20_linear_84_1769" x1="149.5" y1="57" x2="149.5" y2="465" gradientUnits="userSpaceOnUse">
<stop stop-color="#FAFAFA" stop-opacity="0.09"/>
<stop offset="1" stop-color="#EDF0F1" stop-opacity="0"/>
</linearGradient>
<linearGradient id="paint21_linear_84_1769" x1="171.5" y1="57" x2="171.5" y2="465" gradientUnits="userSpaceOnUse">
<stop stop-color="#FAFAFA" stop-opacity="0.09"/>
<stop offset="1" stop-color="#EDF0F1" stop-opacity="0"/>
</linearGradient>
<linearGradient id="paint22_linear_84_1769" x1="193.5" y1="57" x2="193.5" y2="465" gradientUnits="userSpaceOnUse">
<stop stop-color="#FAFAFA" stop-opacity="0.09"/>
<stop offset="1" stop-color="#EDF0F1" stop-opacity="0"/>
</linearGradient>
<linearGradient id="paint23_linear_84_1769" x1="215.5" y1="57" x2="215.5" y2="465" gradientUnits="userSpaceOnUse">
<stop stop-color="#FAFAFA" stop-opacity="0.09"/>
<stop offset="1" stop-color="#EDF0F1" stop-opacity="0"/>
</linearGradient>
<linearGradient id="paint24_linear_84_1769" x1="237.5" y1="57" x2="237.5" y2="465" gradientUnits="userSpaceOnUse">
<stop stop-color="#FAFAFA" stop-opacity="0.09"/>
<stop offset="1" stop-color="#EDF0F1" stop-opacity="0"/>
</linearGradient>
<linearGradient id="paint25_linear_84_1769" x1="259.5" y1="57" x2="259.5" y2="465" gradientUnits="userSpaceOnUse">
<stop stop-color="#FAFAFA" stop-opacity="0.09"/>
<stop offset="1" stop-color="#EDF0F1" stop-opacity="0"/>
</linearGradient>
<linearGradient id="paint26_linear_84_1769" x1="281.5" y1="57" x2="281.5" y2="465" gradientUnits="userSpaceOnUse">
<stop stop-color="#FAFAFA" stop-opacity="0.09"/>
<stop offset="1" stop-color="#EDF0F1" stop-opacity="0"/>
</linearGradient>
<linearGradient id="paint27_linear_84_1769" x1="303.5" y1="57" x2="303.5" y2="465" gradientUnits="userSpaceOnUse">
<stop stop-color="#FAFAFA" stop-opacity="0.09"/>
<stop offset="1" stop-color="#EDF0F1" stop-opacity="0"/>
</linearGradient>
<linearGradient id="paint28_linear_84_1769" x1="325.5" y1="57" x2="325.5" y2="465" gradientUnits="userSpaceOnUse">
<stop stop-color="#FAFAFA" stop-opacity="0.09"/>
<stop offset="1" stop-color="#EDF0F1" stop-opacity="0"/>
</linearGradient>
<linearGradient id="paint29_linear_84_1769" x1="347.5" y1="57" x2="347.5" y2="465" gradientUnits="userSpaceOnUse">
<stop stop-color="#FAFAFA" stop-opacity="0.09"/>
<stop offset="1" stop-color="#EDF0F1" stop-opacity="0"/>
</linearGradient>
<linearGradient id="paint30_linear_84_1769" x1="369.5" y1="57" x2="369.5" y2="465" gradientUnits="userSpaceOnUse">
<stop stop-color="#FAFAFA" stop-opacity="0.09"/>
<stop offset="1" stop-color="#EDF0F1" stop-opacity="0"/>
</linearGradient>
<linearGradient id="paint31_linear_84_1769" x1="391.5" y1="57" x2="391.5" y2="465" gradientUnits="userSpaceOnUse">
<stop stop-color="#FAFAFA" stop-opacity="0.09"/>
<stop offset="1" stop-color="#EDF0F1" stop-opacity="0"/>
</linearGradient>
<linearGradient id="paint32_linear_84_1769" x1="413.5" y1="57" x2="413.5" y2="465" gradientUnits="userSpaceOnUse">
<stop stop-color="#FAFAFA" stop-opacity="0.09"/>
<stop offset="1" stop-color="#EDF0F1" stop-opacity="0"/>
</linearGradient>
<linearGradient id="paint33_linear_84_1769" x1="435.5" y1="57" x2="435.5" y2="465" gradientUnits="userSpaceOnUse">
<stop stop-color="#FAFAFA" stop-opacity="0.09"/>
<stop offset="1" stop-color="#EDF0F1" stop-opacity="0"/>
</linearGradient>
<linearGradient id="paint34_linear_84_1769" x1="457.5" y1="57" x2="457.5" y2="465" gradientUnits="userSpaceOnUse">
<stop stop-color="#FAFAFA" stop-opacity="0.09"/>
<stop offset="1" stop-color="#EDF0F1" stop-opacity="0"/>
</linearGradient>
<linearGradient id="paint35_linear_84_1769" x1="479.5" y1="57" x2="479.5" y2="465" gradientUnits="userSpaceOnUse">
<stop stop-color="#FAFAFA" stop-opacity="0.09"/>
<stop offset="1" stop-color="#EDF0F1" stop-opacity="0"/>
</linearGradient>
<linearGradient id="paint36_linear_84_1769" x1="501.5" y1="57" x2="501.5" y2="465" gradientUnits="userSpaceOnUse">
<stop stop-color="#FAFAFA" stop-opacity="0.09"/>
<stop offset="1" stop-color="#EDF0F1" stop-opacity="0"/>
</linearGradient>
<linearGradient id="paint37_linear_84_1769" x1="523.5" y1="57" x2="523.5" y2="465" gradientUnits="userSpaceOnUse">
<stop stop-color="#FAFAFA" stop-opacity="0.09"/>
<stop offset="1" stop-color="#EDF0F1" stop-opacity="0"/>
</linearGradient>
<linearGradient id="paint38_linear_84_1769" x1="545.5" y1="57" x2="545.5" y2="465" gradientUnits="userSpaceOnUse">
<stop stop-color="#FAFAFA" stop-opacity="0.09"/>
<stop offset="1" stop-color="#EDF0F1" stop-opacity="0"/>
</linearGradient>
<linearGradient id="paint39_linear_84_1769" x1="567.5" y1="57" x2="567.5" y2="465" gradientUnits="userSpaceOnUse">
<stop stop-color="#FAFAFA" stop-opacity="0.09"/>
<stop offset="1" stop-color="#EDF0F1" stop-opacity="0"/>
</linearGradient>
<linearGradient id="paint40_linear_84_1769" x1="589.5" y1="57" x2="589.5" y2="465" gradientUnits="userSpaceOnUse">
<stop stop-color="#FAFAFA" stop-opacity="0.09"/>
<stop offset="1" stop-color="#EDF0F1" stop-opacity="0"/>
</linearGradient>
<linearGradient id="paint41_linear_84_1769" x1="611.5" y1="57" x2="611.5" y2="465" gradientUnits="userSpaceOnUse">
<stop stop-color="#FAFAFA" stop-opacity="0.09"/>
<stop offset="1" stop-color="#EDF0F1" stop-opacity="0"/>
</linearGradient>
<clipPath id="clip0_84_1769">
<rect width="520" height="448" fill="white"/>
</clipPath>
<clipPath id="clip1_84_1769">
<rect width="16" height="16" fill="white" transform="matrix(1 0 0 -1 311 42)"/>
</clipPath>
<clipPath id="clip2_84_1769">
<rect width="16" height="16" fill="white" transform="matrix(-1 0 0 1 327 64)"/>
</clipPath>
</defs>
</svg>
