<svg width="428" height="438" viewBox="0 0 428 438" fill="none" xmlns="http://www.w3.org/2000/svg">
<rect x="0.5" y="0.5" width="427" height="77" rx="7.5" fill="#5ACC79" stroke="url(#paint0_linear_1217_10158)"/>
<path d="M69.136 42.104C69.136 42.744 68.64 43.144 67.312 43.144C65.824 43.144 63.968 42.488 62.912 41.736V43.992C63.712 44.536 65.296 45.16 67.2 45.16C69.6 45.16 71.376 44.04 71.376 41.96C71.376 39.784 69.792 39.192 68.048 38.68L66.864 38.344C65.68 38.008 64.896 37.752 64.896 36.968C64.896 36.296 65.52 35.896 66.624 35.896C68.064 35.896 69.696 36.52 70.672 37.16V34.824C69.968 34.392 68.656 33.8 66.688 33.8C64.432 33.8 62.56 34.984 62.56 37.128C62.56 39.24 64.16 39.896 65.888 40.36L67.296 40.744C68.432 41.08 69.136 41.336 69.136 42.104ZM80.1946 44.328V42.52C79.5386 42.872 78.4186 43.224 77.2346 43.224C75.5706 43.224 74.7226 42.6 74.5786 41.352H80.3226V40.392C80.3226 37.864 78.9786 36.36 76.6106 36.36C74.1306 36.36 72.4826 38.056 72.4826 40.76C72.4826 43.592 74.3066 45.16 76.9946 45.16C78.2906 45.16 79.6026 44.792 80.1946 44.328ZM76.4826 38.104C77.7306 38.104 78.2906 38.872 78.3066 40.024H74.5626C74.6426 38.872 75.2986 38.104 76.4826 38.104ZM88.888 37.064C88.2 36.584 87.224 36.36 86.168 36.36C83.576 36.36 81.592 38.152 81.592 40.76C81.592 43.288 83.544 45.16 86.152 45.16C87.208 45.16 88.2 44.904 88.888 44.44V42.392C88.136 42.92 87.208 43.224 86.232 43.224C84.712 43.224 83.672 42.232 83.672 40.76C83.672 39.24 84.712 38.296 86.248 38.296C87.208 38.296 88.136 38.6 88.888 39.112V37.064ZM94.1095 43.16C92.9415 43.16 92.3975 42.52 92.3975 41.432V36.52H90.3335V41.96C90.3335 43.912 91.2295 45.16 93.2295 45.16C94.5895 45.16 95.6775 44.568 96.3655 43.944V45H98.2855V36.52H96.2375V42.632C95.7095 42.904 94.9255 43.16 94.1095 43.16ZM100.194 36.52V45H102.258V38.936C102.77 38.648 103.49 38.36 104.226 38.36C104.866 38.36 105.426 38.52 105.81 38.744V36.552C105.538 36.424 105.234 36.36 104.914 36.36C103.794 36.36 102.77 37 102.13 37.624V36.52H100.194ZM114.335 44.328V42.52C113.679 42.872 112.559 43.224 111.375 43.224C109.711 43.224 108.863 42.6 108.719 41.352H114.463V40.392C114.463 37.864 113.119 36.36 110.751 36.36C108.271 36.36 106.623 38.056 106.623 40.76C106.623 43.592 108.447 45.16 111.135 45.16C112.431 45.16 113.743 44.792 114.335 44.328ZM110.623 38.104C111.871 38.104 112.431 38.872 112.447 40.024H108.703C108.783 38.872 109.439 38.104 110.623 38.104ZM121.909 45H123.845V33.704L121.781 33.992V36.472C121.397 36.408 120.981 36.36 120.469 36.36C118.101 36.36 115.733 37.752 115.733 40.968C115.733 43.928 117.653 45.16 119.477 45.16C120.581 45.16 121.349 44.824 121.909 44.376V45ZM120.581 38.2C121.045 38.2 121.445 38.28 121.781 38.376V42.872C121.381 43.096 120.757 43.32 120.101 43.32C118.773 43.32 117.861 42.488 117.861 40.824C117.861 38.904 119.141 38.2 120.581 38.2ZM132.492 45.16C134.86 45.16 137.228 43.768 137.228 40.552C137.228 37.592 135.308 36.36 133.484 36.36C132.38 36.36 131.612 36.696 131.052 37.144V36.52H129.116V47.528H131.18V45.048C131.564 45.112 131.98 45.16 132.492 45.16ZM132.828 38.2C134.156 38.2 135.1 39.032 135.1 40.696C135.1 42.616 133.82 43.32 132.38 43.32C131.916 43.32 131.516 43.24 131.18 43.144V38.648C131.58 38.424 132.172 38.2 132.828 38.2ZM138.757 36.52V45H140.821V38.936C141.333 38.648 142.053 38.36 142.789 38.36C143.429 38.36 143.989 38.52 144.373 38.744V36.552C144.101 36.424 143.797 36.36 143.477 36.36C142.357 36.36 141.333 37 140.693 37.624V36.52H138.757ZM149.666 45.16C152.258 45.16 154.162 43.256 154.162 40.76C154.162 38.2 152.258 36.36 149.666 36.36C147.09 36.36 145.186 38.2 145.186 40.76C145.186 43.256 147.09 45.16 149.666 45.16ZM149.666 43.224C148.306 43.224 147.25 42.2 147.25 40.76C147.25 39.288 148.306 38.296 149.666 38.296C151.042 38.296 152.114 39.288 152.114 40.76C152.114 42.2 151.042 43.224 149.666 43.224ZM162.638 37.064C161.95 36.584 160.974 36.36 159.918 36.36C157.326 36.36 155.342 38.152 155.342 40.76C155.342 43.288 157.294 45.16 159.902 45.16C160.958 45.16 161.95 44.904 162.638 44.44V42.392C161.886 42.92 160.958 43.224 159.982 43.224C158.462 43.224 157.422 42.232 157.422 40.76C157.422 39.24 158.462 38.296 159.998 38.296C160.958 38.296 161.886 38.6 162.638 39.112V37.064ZM171.492 44.328V42.52C170.836 42.872 169.716 43.224 168.532 43.224C166.868 43.224 166.02 42.6 165.876 41.352H171.62V40.392C171.62 37.864 170.276 36.36 167.908 36.36C165.428 36.36 163.78 38.056 163.78 40.76C163.78 43.592 165.604 45.16 168.292 45.16C169.588 45.16 170.9 44.792 171.492 44.328ZM167.78 38.104C169.028 38.104 169.588 38.872 169.604 40.024H165.86C165.94 38.872 166.596 38.104 167.78 38.104ZM177.289 40.152L176.457 39.912C175.417 39.64 174.793 39.464 174.793 38.888C174.793 38.408 175.337 38.184 176.057 38.184C177.289 38.184 178.681 38.68 179.289 39.144V37.112C178.729 36.744 177.417 36.36 176.169 36.36C174.057 36.36 172.793 37.448 172.793 38.984C172.793 40.536 173.929 41.16 175.305 41.48L176.137 41.688C177.145 41.944 177.705 42.12 177.705 42.648C177.705 43.192 177.257 43.384 176.409 43.384C175.145 43.384 173.817 42.904 172.985 42.408V44.392C173.577 44.744 174.985 45.192 176.297 45.192C178.313 45.192 179.641 44.312 179.641 42.584C179.641 41.304 178.809 40.536 177.289 40.152ZM185.117 40.152L184.285 39.912C183.245 39.64 182.621 39.464 182.621 38.888C182.621 38.408 183.165 38.184 183.885 38.184C185.117 38.184 186.509 38.68 187.117 39.144V37.112C186.557 36.744 185.245 36.36 183.997 36.36C181.885 36.36 180.621 37.448 180.621 38.984C180.621 40.536 181.757 41.16 183.133 41.48L183.965 41.688C184.973 41.944 185.533 42.12 185.533 42.648C185.533 43.192 185.085 43.384 184.237 43.384C182.973 43.384 181.645 42.904 180.813 42.408V44.392C181.405 44.744 182.813 45.192 184.125 45.192C186.141 45.192 187.469 44.312 187.469 42.584C187.469 41.304 186.637 40.536 185.117 40.152ZM198.112 45H200.048V33.704L197.984 33.992V36.472C197.6 36.408 197.184 36.36 196.672 36.36C194.304 36.36 191.936 37.752 191.936 40.968C191.936 43.928 193.856 45.16 195.68 45.16C196.784 45.16 197.552 44.824 198.112 44.376V45ZM196.784 38.2C197.248 38.2 197.648 38.28 197.984 38.376V42.872C197.584 43.096 196.96 43.32 196.304 43.32C194.976 43.32 194.064 42.488 194.064 40.824C194.064 38.904 195.344 38.2 196.784 38.2ZM209.288 44.328V42.52C208.632 42.872 207.512 43.224 206.328 43.224C204.664 43.224 203.816 42.6 203.672 41.352H209.416V40.392C209.416 37.864 208.072 36.36 205.704 36.36C203.224 36.36 201.576 38.056 201.576 40.76C201.576 43.592 203.4 45.16 206.088 45.16C207.384 45.16 208.696 44.792 209.288 44.328ZM205.576 38.104C206.824 38.104 207.384 38.872 207.4 40.024H203.656C203.736 38.872 204.392 38.104 205.576 38.104ZM215.086 40.152L214.254 39.912C213.214 39.64 212.59 39.464 212.59 38.888C212.59 38.408 213.134 38.184 213.854 38.184C215.086 38.184 216.478 38.68 217.086 39.144V37.112C216.526 36.744 215.214 36.36 213.966 36.36C211.854 36.36 210.59 37.448 210.59 38.984C210.59 40.536 211.726 41.16 213.102 41.48L213.934 41.688C214.942 41.944 215.502 42.12 215.502 42.648C215.502 43.192 215.054 43.384 214.206 43.384C212.942 43.384 211.614 42.904 210.782 42.408V44.392C211.374 44.744 212.782 45.192 214.094 45.192C216.11 45.192 217.438 44.312 217.438 42.584C217.438 41.304 216.606 40.536 215.086 40.152ZM219.97 35.544C220.85 35.544 221.378 35.128 221.378 34.44C221.378 33.752 220.85 33.352 219.97 33.352C219.106 33.352 218.562 33.752 218.562 34.44C218.562 35.128 219.106 35.544 219.97 35.544ZM218.93 36.52V45H220.994V36.52H218.93ZM230.624 43.4V37.096C229.792 36.76 228.704 36.36 227.2 36.36C224.848 36.36 222.608 37.736 222.608 40.664C222.608 42.888 224.128 44.232 226.176 44.232C227.2 44.232 228.016 43.88 228.56 43.48V43.704C228.56 44.952 227.872 45.752 226.144 45.752C224.976 45.752 223.936 45.32 223.152 44.76V46.84C223.856 47.272 225.008 47.688 226.368 47.688C228.672 47.688 230.624 46.52 230.624 43.4ZM224.736 40.392C224.736 38.936 225.808 38.2 227.184 38.2C227.728 38.2 228.176 38.312 228.56 38.424V41.88C228.096 42.136 227.44 42.376 226.752 42.376C225.632 42.376 224.736 41.8 224.736 40.392ZM236.667 38.36C237.819 38.36 238.379 39 238.379 40.088V45H240.443V39.56C240.443 37.608 239.531 36.36 237.547 36.36C236.203 36.36 235.099 36.952 234.411 37.56V36.52H232.475V45H234.539V38.888C235.083 38.616 235.851 38.36 236.667 38.36ZM249.648 44.328V42.52C248.992 42.872 247.872 43.224 246.688 43.224C245.024 43.224 244.176 42.6 244.032 41.352H249.776V40.392C249.776 37.864 248.432 36.36 246.064 36.36C243.584 36.36 241.936 38.056 241.936 40.76C241.936 43.592 243.76 45.16 246.448 45.16C247.744 45.16 249.056 44.792 249.648 44.328ZM245.936 38.104C247.184 38.104 247.744 38.872 247.76 40.024H244.016C244.096 38.872 244.752 38.104 245.936 38.104ZM257.221 45H259.157V33.704L257.093 33.992V36.472C256.709 36.408 256.293 36.36 255.781 36.36C253.413 36.36 251.045 37.752 251.045 40.968C251.045 43.928 252.965 45.16 254.789 45.16C255.893 45.16 256.661 44.824 257.221 44.376V45ZM255.893 38.2C256.357 38.2 256.757 38.28 257.093 38.376V42.872C256.693 43.096 256.069 43.32 255.413 43.32C254.085 43.32 253.173 42.488 253.173 40.824C253.173 38.904 254.453 38.2 255.893 38.2ZM263.756 38.328H264.924V45H266.988V38.328H269.1V36.52H266.988C267.068 35.736 267.612 35.368 268.316 35.368C268.924 35.368 269.532 35.592 269.836 35.832V34.152C269.548 33.96 268.908 33.688 268.06 33.688C266.332 33.688 265.004 34.616 264.924 36.52H263.756V38.328ZM274.697 45.16C277.289 45.16 279.193 43.256 279.193 40.76C279.193 38.2 277.289 36.36 274.697 36.36C272.121 36.36 270.217 38.2 270.217 40.76C270.217 43.256 272.121 45.16 274.697 45.16ZM274.697 43.224C273.337 43.224 272.281 42.2 272.281 40.76C272.281 39.288 273.337 38.296 274.697 38.296C276.073 38.296 277.145 39.288 277.145 40.76C277.145 42.2 276.073 43.224 274.697 43.224ZM280.725 36.52V45H282.789V38.936C283.301 38.648 284.021 38.36 284.757 38.36C285.397 38.36 285.957 38.52 286.341 38.744V36.552C286.069 36.424 285.765 36.36 285.445 36.36C284.325 36.36 283.301 37 282.661 37.624V36.52H280.725ZM292.961 33.704L290.897 33.992V44.44C291.777 44.76 292.881 45.16 294.449 45.16C296.785 45.16 299.009 43.784 299.009 40.568C299.009 37.72 297.361 36.36 295.393 36.36C294.385 36.36 293.537 36.696 292.961 37.08V33.704ZM294.769 38.248C295.905 38.248 296.881 38.984 296.881 40.696C296.881 42.696 295.745 43.32 294.337 43.32C293.809 43.32 293.345 43.224 292.961 43.112V38.68C293.409 38.456 294.065 38.248 294.769 38.248ZM305.354 40.104V40.536C304.986 40.376 304.378 40.232 303.594 40.232C301.594 40.232 300.122 41.256 300.122 42.808C300.122 44.312 301.178 45.16 302.874 45.16C304.042 45.16 304.954 44.632 305.482 44.056V45H307.402V40.008C307.402 37.368 305.754 36.36 303.77 36.36C302.17 36.36 300.826 37.064 300.266 37.624V39.736C300.986 39.016 302.234 38.408 303.498 38.408C304.538 38.408 305.354 38.904 305.354 40.104ZM302.026 42.696C302.026 42.008 302.778 41.608 304.058 41.608C304.506 41.608 304.986 41.672 305.354 41.784V42.952C304.826 43.32 304.01 43.592 303.258 43.592C302.554 43.592 302.026 43.352 302.026 42.696ZM313.433 38.36C314.585 38.36 315.145 39 315.145 40.088V45H317.209V39.56C317.209 37.608 316.297 36.36 314.313 36.36C312.969 36.36 311.865 36.952 311.177 37.56V36.52H309.241V45H311.305V38.888C311.849 38.616 312.617 38.36 313.433 38.36ZM319.053 33.992V45H321.117V41.448H322.429L324.829 45H327.197L323.917 40.392L327.181 36.52H324.813L322.461 39.528H321.117V33.704L319.053 33.992ZM332.351 40.152L331.519 39.912C330.479 39.64 329.855 39.464 329.855 38.888C329.855 38.408 330.399 38.184 331.119 38.184C332.351 38.184 333.743 38.68 334.351 39.144V37.112C333.791 36.744 332.479 36.36 331.231 36.36C329.119 36.36 327.855 37.448 327.855 38.984C327.855 40.536 328.991 41.16 330.367 41.48L331.199 41.688C332.207 41.944 332.767 42.12 332.767 42.648C332.767 43.192 332.319 43.384 331.471 43.384C330.207 43.384 328.879 42.904 328.047 42.408V44.392C328.639 44.744 330.047 45.192 331.359 45.192C333.375 45.192 334.703 44.312 334.703 42.584C334.703 41.304 333.871 40.536 332.351 40.152Z" fill="#08051E"/>
<path d="M46.0234 38.498H32.0234C30.9189 38.498 30.0234 39.3935 30.0234 40.498V47.498C30.0234 48.6026 30.9189 49.498 32.0234 49.498H46.0234C47.128 49.498 48.0234 48.6026 48.0234 47.498V40.498C48.0234 39.3935 47.128 38.498 46.0234 38.498Z" stroke="white" stroke-width="2" stroke-linecap="round" stroke-linejoin="round"/>
<path d="M34.0234 38.498V34.498C34.0234 33.172 34.5502 31.9002 35.4879 30.9625C36.4256 30.0248 37.6974 29.498 39.0234 29.498C40.3495 29.498 41.6213 30.0248 42.559 30.9625C43.4967 31.9002 44.0234 33.172 44.0234 34.498V38.498" stroke="white" stroke-width="2" stroke-linecap="round" stroke-linejoin="round"/>
<rect y="90" width="428" height="78" fill="#47A561"/>
<path d="M76.2226 135.18C79.8226 135.18 82.5226 132.552 82.5226 128.826C82.5226 125.064 79.8226 122.436 76.2226 122.436C72.6226 122.436 69.9046 125.064 69.9046 128.826C69.9046 132.552 72.6226 135.18 76.2226 135.18ZM76.2226 133.398C73.6846 133.398 71.7766 131.562 71.7766 128.826C71.7766 126.072 73.6846 124.218 76.2226 124.218C78.7606 124.218 80.6686 126.072 80.6686 128.826C80.6686 131.562 78.7606 133.398 76.2226 133.398ZM88.2092 135.18C90.9452 135.18 93.3752 133.488 93.3752 129.978C93.3752 126.81 91.4132 125.28 89.1812 125.28C87.8492 125.28 86.8412 125.784 86.2112 126.306V125.46H84.6272V137.844H86.3192V134.946C86.8592 135.09 87.4352 135.18 88.2092 135.18ZM88.7132 126.792C90.4592 126.792 91.6292 127.98 91.6292 130.086C91.6292 132.534 90.1172 133.668 88.1372 133.668C87.3812 133.668 86.8052 133.524 86.3192 133.362V127.584C86.8592 127.206 87.6872 126.792 88.7132 126.792ZM103.412 134.334V132.84C102.71 133.236 101.396 133.578 100.118 133.578C98.1197 133.578 96.8237 132.66 96.6977 130.752H103.61V129.96C103.61 126.99 102.116 125.262 99.5057 125.262C96.8417 125.262 94.9877 127.116 94.9877 130.23C94.9877 133.47 97.0397 135.18 99.9557 135.18C101.27 135.18 102.728 134.838 103.412 134.334ZM99.4157 126.72C101.09 126.72 101.918 127.8 101.954 129.6H96.6797C96.7697 127.782 97.8317 126.72 99.4157 126.72ZM105.756 125.46V135H107.448V127.764C108.114 127.368 109.194 126.9 110.31 126.9C111.714 126.9 112.56 127.692 112.56 129.258V135H114.252V128.88C114.252 126.54 113.046 125.28 110.94 125.28C109.374 125.28 108.15 126 107.34 126.666V125.46H105.756ZM126.367 129.204V130.068C125.935 129.906 125.197 129.726 124.261 129.726C121.813 129.726 120.229 130.95 120.229 132.624C120.229 134.208 121.327 135.18 123.253 135.18C124.675 135.18 125.791 134.478 126.475 133.74V135H128.059V129.186C128.059 126.342 126.259 125.28 124.189 125.28C122.425 125.28 120.967 126.108 120.337 126.756V128.502C121.147 127.674 122.479 126.954 123.973 126.954C125.251 126.954 126.367 127.584 126.367 129.204ZM121.813 132.552C121.813 131.562 122.785 130.896 124.675 130.896C125.287 130.896 125.935 131.004 126.367 131.13V132.75C125.629 133.362 124.603 133.866 123.523 133.866C122.569 133.866 121.813 133.488 121.813 132.552ZM130.489 125.46V135H132.181V127.764C132.847 127.368 133.927 126.9 135.043 126.9C136.447 126.9 137.293 127.692 137.293 129.258V135H138.985V128.88C138.985 126.54 137.779 125.28 135.673 125.28C134.107 125.28 132.883 126 132.073 126.666V125.46H130.489ZM148.154 135H149.738V122.346L148.046 122.616V125.514C147.506 125.388 146.912 125.28 146.138 125.28C143.42 125.28 140.99 126.972 140.99 130.482C140.99 133.65 142.952 135.18 145.184 135.18C146.516 135.18 147.524 134.676 148.154 134.154V135ZM146.228 126.792C146.984 126.792 147.56 126.936 148.046 127.098V132.894C147.524 133.254 146.642 133.668 145.634 133.668C143.87 133.668 142.718 132.48 142.718 130.374C142.718 127.926 144.248 126.792 146.228 126.792ZM155.448 126.954H156.834V135H158.526V126.954H161.064V125.46H158.526V125.424C158.526 124.344 159.174 123.732 160.164 123.732C160.884 123.732 161.568 124.002 161.964 124.308V122.886C161.64 122.67 160.92 122.328 159.966 122.328C158.274 122.328 156.834 123.282 156.834 125.442V125.46H155.448V126.954ZM168.572 129.204V130.068C168.14 129.906 167.402 129.726 166.466 129.726C164.018 129.726 162.434 130.95 162.434 132.624C162.434 134.208 163.532 135.18 165.458 135.18C166.88 135.18 167.996 134.478 168.68 133.74V135H170.264V129.186C170.264 126.342 168.464 125.28 166.394 125.28C164.63 125.28 163.172 126.108 162.542 126.756V128.502C163.352 127.674 164.684 126.954 166.178 126.954C167.456 126.954 168.572 127.584 168.572 129.204ZM164.018 132.552C164.018 131.562 164.99 130.896 166.88 130.896C167.492 130.896 168.14 131.004 168.572 131.13V132.75C167.834 133.362 166.808 133.866 165.728 133.866C164.774 133.866 164.018 133.488 164.018 132.552ZM176.96 129.834L175.79 129.492C174.566 129.132 173.774 128.844 173.774 127.98C173.774 127.17 174.584 126.774 175.592 126.774C176.942 126.774 178.4 127.314 179.084 127.836V126.144C178.418 125.694 177.05 125.262 175.682 125.262C173.468 125.262 172.136 126.45 172.136 128.034C172.136 129.69 173.342 130.392 174.764 130.752L175.97 131.112C177.194 131.436 177.914 131.706 177.914 132.534C177.914 133.434 177.212 133.758 176.078 133.758C174.602 133.758 173.108 133.182 172.226 132.624V134.28C172.946 134.73 174.476 135.252 176.006 135.252C178.148 135.252 179.516 134.298 179.516 132.498C179.516 131.022 178.49 130.266 176.96 129.834ZM187.083 134.586V133.128C186.651 133.398 185.949 133.65 185.193 133.65C184.221 133.65 183.645 133.218 183.645 132.12V126.954H187.011V125.46H183.645V123.66H183.249L180.495 126.522V126.954H181.953V132.3C181.953 134.604 183.285 135.18 184.779 135.18C185.841 135.18 186.615 134.892 187.083 134.586ZM196.892 134.334V132.84C196.19 133.236 194.876 133.578 193.598 133.578C191.6 133.578 190.304 132.66 190.178 130.752H197.09V129.96C197.09 126.99 195.596 125.262 192.986 125.262C190.322 125.262 188.468 127.116 188.468 130.23C188.468 133.47 190.52 135.18 193.436 135.18C194.75 135.18 196.208 134.838 196.892 134.334ZM192.896 126.72C194.57 126.72 195.398 127.8 195.434 129.6H190.16C190.25 127.782 191.312 126.72 192.896 126.72ZM199.237 125.46V135H200.929V127.908C201.577 127.422 202.567 126.9 203.503 126.9C204.187 126.9 204.745 127.098 205.159 127.35V125.568C204.817 125.388 204.421 125.28 204.007 125.28C202.729 125.28 201.559 126.09 200.821 126.828V125.46H199.237ZM210.75 125.46V135H212.442V127.782C213.09 127.386 214.08 126.9 215.124 126.9C216.402 126.9 217.194 127.674 217.194 129.186V135H218.886V128.718C218.886 128.394 218.868 128.07 218.814 127.782C219.498 127.368 220.506 126.9 221.568 126.9C222.864 126.9 223.656 127.674 223.656 129.186V135H225.33V128.808C225.33 126.522 224.196 125.28 222.216 125.28C220.56 125.28 219.336 126.09 218.508 126.828C218.022 125.82 217.086 125.28 215.754 125.28C214.26 125.28 213.108 126 212.334 126.666V125.46H210.75ZM232.283 135.18C235.145 135.18 237.233 133.038 237.233 130.23C237.233 127.386 235.145 125.28 232.283 125.28C229.421 125.28 227.333 127.386 227.333 130.23C227.333 133.038 229.421 135.18 232.283 135.18ZM232.283 133.596C230.411 133.596 229.007 132.156 229.007 130.23C229.007 128.268 230.411 126.864 232.283 126.864C234.173 126.864 235.559 128.268 235.559 130.23C235.559 132.174 234.173 133.596 232.283 133.596ZM246.011 135H247.595V122.346L245.903 122.616V125.514C245.363 125.388 244.769 125.28 243.995 125.28C241.277 125.28 238.847 126.972 238.847 130.482C238.847 133.65 240.809 135.18 243.041 135.18C244.373 135.18 245.381 134.676 246.011 134.154V135ZM244.085 126.792C244.841 126.792 245.417 126.936 245.903 127.098V132.894C245.381 133.254 244.499 133.668 243.491 133.668C241.727 133.668 240.575 132.48 240.575 130.374C240.575 127.926 242.105 126.792 244.085 126.792ZM258.082 134.334V132.84C257.38 133.236 256.066 133.578 254.788 133.578C252.79 133.578 251.494 132.66 251.368 130.752H258.28V129.96C258.28 126.99 256.786 125.262 254.176 125.262C251.512 125.262 249.658 127.116 249.658 130.23C249.658 133.47 251.71 135.18 254.626 135.18C255.94 135.18 257.398 134.838 258.082 134.334ZM254.086 126.72C255.76 126.72 256.588 127.8 256.624 129.6H251.35C251.44 127.782 252.502 126.72 254.086 126.72ZM268.951 135.18C271.813 135.18 273.901 133.038 273.901 130.23C273.901 127.386 271.813 125.28 268.951 125.28C266.089 125.28 264.001 127.386 264.001 130.23C264.001 133.038 266.089 135.18 268.951 135.18ZM268.951 133.596C267.079 133.596 265.675 132.156 265.675 130.23C265.675 128.268 267.079 126.864 268.951 126.864C270.841 126.864 272.227 128.268 272.227 130.23C272.227 132.174 270.841 133.596 268.951 133.596ZM275.137 126.954H276.523V135H278.215V126.954H280.753V125.46H278.215V125.424C278.215 124.344 278.863 123.732 279.853 123.732C280.573 123.732 281.257 124.002 281.653 124.308V122.886C281.329 122.67 280.609 122.328 279.655 122.328C277.963 122.328 276.523 123.282 276.523 125.442V125.46H275.137V126.954ZM287.553 124.128C288.291 124.128 288.759 123.732 288.759 123.138C288.759 122.526 288.291 122.13 287.553 122.13C286.815 122.13 286.329 122.526 286.329 123.138C286.329 123.732 286.815 124.128 287.553 124.128ZM286.689 125.46V135H288.381V125.46H286.689ZM290.959 125.46V135H292.651V127.764C293.317 127.368 294.397 126.9 295.513 126.9C296.917 126.9 297.763 127.692 297.763 129.258V135H299.455V128.88C299.455 126.54 298.249 125.28 296.143 125.28C294.577 125.28 293.353 126 292.543 126.666V125.46H290.959ZM307.598 134.586V133.128C307.166 133.398 306.464 133.65 305.708 133.65C304.736 133.65 304.16 133.218 304.16 132.12V126.954H307.526V125.46H304.16V123.66H303.764L301.01 126.522V126.954H302.468V132.3C302.468 134.604 303.8 135.18 305.294 135.18C306.356 135.18 307.13 134.892 307.598 134.586ZM317.408 134.334V132.84C316.706 133.236 315.392 133.578 314.114 133.578C312.116 133.578 310.82 132.66 310.694 130.752H317.606V129.96C317.606 126.99 316.112 125.262 313.502 125.262C310.838 125.262 308.984 127.116 308.984 130.23C308.984 133.47 311.036 135.18 313.952 135.18C315.266 135.18 316.724 134.838 317.408 134.334ZM313.412 126.72C315.086 126.72 315.914 127.8 315.95 129.6H310.676C310.766 127.782 311.828 126.72 313.412 126.72ZM327.978 133.506V126.072C327.096 125.712 325.926 125.28 324.36 125.28C321.624 125.28 319.302 126.936 319.302 130.194C319.302 132.786 320.976 134.316 323.37 134.316C324.666 134.316 325.656 133.794 326.286 133.308V133.722C326.286 135.468 325.26 136.44 323.298 136.44C321.876 136.44 320.688 135.9 319.824 135.306V137.034C320.616 137.52 321.912 138.024 323.46 138.024C325.944 138.024 327.978 136.728 327.978 133.506ZM321.03 129.996C321.03 127.908 322.416 126.792 324.342 126.792C325.152 126.792 325.764 126.954 326.286 127.152V131.958C325.728 132.354 324.828 132.786 323.784 132.786C322.182 132.786 321.03 131.868 321.03 129.996ZM330.475 125.46V135H332.167V127.908C332.815 127.422 333.805 126.9 334.741 126.9C335.425 126.9 335.983 127.098 336.397 127.35V125.568C336.055 125.388 335.659 125.28 335.245 125.28C333.967 125.28 332.797 126.09 332.059 126.828V125.46H330.475ZM343.597 129.204V130.068C343.165 129.906 342.427 129.726 341.491 129.726C339.043 129.726 337.459 130.95 337.459 132.624C337.459 134.208 338.557 135.18 340.483 135.18C341.905 135.18 343.021 134.478 343.705 133.74V135H345.289V129.186C345.289 126.342 343.489 125.28 341.419 125.28C339.655 125.28 338.197 126.108 337.567 126.756V128.502C338.377 127.674 339.709 126.954 341.203 126.954C342.481 126.954 343.597 127.584 343.597 129.204ZM339.043 132.552C339.043 131.562 340.015 130.896 341.905 130.896C342.517 130.896 343.165 131.004 343.597 131.13V132.75C342.859 133.362 341.833 133.866 340.753 133.866C339.799 133.866 339.043 133.488 339.043 132.552ZM353.407 134.586V133.128C352.975 133.398 352.273 133.65 351.517 133.65C350.545 133.65 349.969 133.218 349.969 132.12V126.954H353.335V125.46H349.969V123.66H349.573L346.819 126.522V126.954H348.277V132.3C348.277 134.604 349.609 135.18 351.103 135.18C352.165 135.18 352.939 134.892 353.407 134.586ZM356.142 124.128C356.88 124.128 357.348 123.732 357.348 123.138C357.348 122.526 356.88 122.13 356.142 122.13C355.404 122.13 354.918 122.526 354.918 123.138C354.918 123.732 355.404 124.128 356.142 124.128ZM355.278 125.46V135H356.97V125.46H355.278ZM364.049 135.18C366.911 135.18 368.999 133.038 368.999 130.23C368.999 127.386 366.911 125.28 364.049 125.28C361.187 125.28 359.099 127.386 359.099 130.23C359.099 133.038 361.187 135.18 364.049 135.18ZM364.049 133.596C362.177 133.596 360.773 132.156 360.773 130.23C360.773 128.268 362.177 126.864 364.049 126.864C365.939 126.864 367.325 128.268 367.325 130.23C367.325 132.174 365.939 133.596 364.049 133.596ZM371.063 125.46V135H372.755V127.764C373.421 127.368 374.501 126.9 375.617 126.9C377.021 126.9 377.867 127.692 377.867 129.258V135H379.559V128.88C379.559 126.54 378.353 125.28 376.247 125.28C374.681 125.28 373.457 126 372.647 126.666V125.46H371.063Z" fill="black"/>
<path d="M28.6035 120.215H34.6035C35.6644 120.215 36.6818 120.636 37.4319 121.386C38.1821 122.137 38.6035 123.154 38.6035 124.215V138.215C38.6035 137.419 38.2874 136.656 37.7248 136.094C37.1622 135.531 36.3992 135.215 35.6035 135.215H28.6035V120.215Z" stroke="black" stroke-width="2" stroke-linecap="round" stroke-linejoin="round"/>
<path d="M48.6035 120.215H42.6035C41.5426 120.215 40.5252 120.636 39.7751 121.386C39.0249 122.137 38.6035 123.154 38.6035 124.215V138.215C38.6035 137.419 38.9196 136.656 39.4822 136.094C40.0448 135.531 40.8079 135.215 41.6035 135.215H48.6035V120.215Z" stroke="black" stroke-width="2" stroke-linecap="round" stroke-linejoin="round"/>
<rect y="180" width="428" height="78" fill="#47A561"/>
<path d="M70.476 212.616V225H72.258V219.906H78.45V218.232H72.258V214.29H79.35V212.616H70.476ZM82.0936 214.128C82.8316 214.128 83.2996 213.732 83.2996 213.138C83.2996 212.526 82.8316 212.13 82.0936 212.13C81.3556 212.13 80.8696 212.526 80.8696 213.138C80.8696 213.732 81.3556 214.128 82.0936 214.128ZM81.2296 215.46V225H82.9216V215.46H81.2296ZM91.1882 224.586V223.128C90.7562 223.398 90.0542 223.65 89.2982 223.65C88.3262 223.65 87.7502 223.218 87.7502 222.12V216.954H91.1162V215.46H87.7502V213.66H87.3542L84.6002 216.522V216.954H86.0582V222.3C86.0582 224.604 87.3902 225.18 88.8842 225.18C89.9462 225.18 90.7202 224.892 91.1882 224.586ZM97.2897 219.834L96.1197 219.492C94.8957 219.132 94.1037 218.844 94.1037 217.98C94.1037 217.17 94.9137 216.774 95.9217 216.774C97.2717 216.774 98.7297 217.314 99.4137 217.836V216.144C98.7477 215.694 97.3797 215.262 96.0117 215.262C93.7977 215.262 92.4657 216.45 92.4657 218.034C92.4657 219.69 93.6717 220.392 95.0937 220.752L96.2997 221.112C97.5237 221.436 98.2437 221.706 98.2437 222.534C98.2437 223.434 97.5417 223.758 96.4077 223.758C94.9317 223.758 93.4377 223.182 92.5557 222.624V224.28C93.2757 224.73 94.8057 225.252 96.3357 225.252C98.4777 225.252 99.8457 224.298 99.8457 222.498C99.8457 221.022 98.8197 220.266 97.2897 219.834ZM106.65 214.128C107.388 214.128 107.856 213.732 107.856 213.138C107.856 212.526 107.388 212.13 106.65 212.13C105.912 212.13 105.426 212.526 105.426 213.138C105.426 213.732 105.912 214.128 106.65 214.128ZM105.786 215.46V225H107.478V215.46H105.786ZM110.057 215.46V225H111.749V217.764C112.415 217.368 113.495 216.9 114.611 216.9C116.015 216.9 116.861 217.692 116.861 219.258V225H118.553V218.88C118.553 216.54 117.347 215.28 115.241 215.28C113.675 215.28 112.451 216 111.641 216.666V215.46H110.057ZM126.725 212.346L125.033 212.616V224.424C126.005 224.784 127.193 225.18 128.849 225.18C131.495 225.18 133.781 223.542 133.781 220.032C133.781 216.936 131.999 215.28 129.695 215.28C128.435 215.28 127.373 215.784 126.725 216.252V212.346ZM129.227 216.828C130.847 216.828 132.035 217.98 132.035 220.122C132.035 222.624 130.649 223.668 128.777 223.668C127.967 223.668 127.301 223.524 126.725 223.344V217.602C127.301 217.224 128.183 216.828 129.227 216.828ZM141.478 219.204V220.068C141.046 219.906 140.308 219.726 139.372 219.726C136.924 219.726 135.34 220.95 135.34 222.624C135.34 224.208 136.438 225.18 138.364 225.18C139.786 225.18 140.902 224.478 141.586 223.74V225H143.17V219.186C143.17 216.342 141.37 215.28 139.3 215.28C137.536 215.28 136.078 216.108 135.448 216.756V218.502C136.258 217.674 137.59 216.954 139.084 216.954C140.362 216.954 141.478 217.584 141.478 219.204ZM136.924 222.552C136.924 221.562 137.896 220.896 139.786 220.896C140.398 220.896 141.046 221.004 141.478 221.13V222.75C140.74 223.362 139.714 223.866 138.634 223.866C137.68 223.866 136.924 223.488 136.924 222.552ZM145.6 215.46V225H147.292V217.764C147.958 217.368 149.038 216.9 150.154 216.9C151.558 216.9 152.404 217.692 152.404 219.258V225H154.096V218.88C154.096 216.54 152.89 215.28 150.784 215.28C149.218 215.28 147.994 216 147.184 216.666V215.46H145.6ZM156.551 212.616V225H158.243V220.572H159.917L162.941 225H164.885L161.177 219.726L164.885 215.46H162.923L159.989 218.988H158.243V212.346L156.551 212.616ZM167.33 214.128C168.068 214.128 168.536 213.732 168.536 213.138C168.536 212.526 168.068 212.13 167.33 212.13C166.592 212.13 166.106 212.526 166.106 213.138C166.106 213.732 166.592 214.128 167.33 214.128ZM166.466 215.46V225H168.158V215.46H166.466ZM170.737 215.46V225H172.429V217.764C173.095 217.368 174.175 216.9 175.291 216.9C176.695 216.9 177.541 217.692 177.541 219.258V225H179.233V218.88C179.233 216.54 178.027 215.28 175.921 215.28C174.355 215.28 173.131 216 172.321 216.666V215.46H170.737ZM189.914 223.506V216.072C189.032 215.712 187.862 215.28 186.296 215.28C183.56 215.28 181.238 216.936 181.238 220.194C181.238 222.786 182.912 224.316 185.306 224.316C186.602 224.316 187.592 223.794 188.222 223.308V223.722C188.222 225.468 187.196 226.44 185.234 226.44C183.812 226.44 182.624 225.9 181.76 225.306V227.034C182.552 227.52 183.848 228.024 185.396 228.024C187.88 228.024 189.914 226.728 189.914 223.506ZM182.966 219.996C182.966 217.908 184.352 216.792 186.278 216.792C187.088 216.792 187.7 216.954 188.222 217.152V221.958C187.664 222.354 186.764 222.786 185.72 222.786C184.118 222.786 182.966 221.868 182.966 219.996ZM203.978 216C203.258 215.514 202.232 215.262 201.134 215.262C198.218 215.262 195.986 217.242 195.986 220.23C195.986 223.128 198.2 225.18 201.116 225.18C202.232 225.18 203.258 224.91 203.978 224.424V222.732C203.258 223.254 202.25 223.578 201.17 223.578C199.154 223.578 197.678 222.246 197.678 220.23C197.678 218.16 199.154 216.864 201.188 216.864C202.25 216.864 203.258 217.17 203.978 217.692V216ZM210.517 216.9C211.921 216.9 212.767 217.692 212.767 219.258V225H214.459V218.88C214.459 216.54 213.253 215.28 211.147 215.28C209.653 215.28 208.465 215.928 207.655 216.576V212.346L205.963 212.616V225H207.655V217.764C208.321 217.368 209.401 216.9 210.517 216.9ZM222.548 219.204V220.068C222.116 219.906 221.378 219.726 220.442 219.726C217.994 219.726 216.41 220.95 216.41 222.624C216.41 224.208 217.508 225.18 219.434 225.18C220.856 225.18 221.972 224.478 222.656 223.74V225H224.24V219.186C224.24 216.342 222.44 215.28 220.37 215.28C218.606 215.28 217.148 216.108 216.518 216.756V218.502C217.328 217.674 218.66 216.954 220.154 216.954C221.432 216.954 222.548 217.584 222.548 219.204ZM217.994 222.552C217.994 221.562 218.966 220.896 220.856 220.896C221.468 220.896 222.116 221.004 222.548 221.13V222.75C221.81 223.362 220.784 223.866 219.704 223.866C218.75 223.866 217.994 223.488 217.994 222.552ZM226.67 215.46V225H228.362V217.764C229.028 217.368 230.108 216.9 231.224 216.9C232.628 216.9 233.474 217.692 233.474 219.258V225H235.166V218.88C235.166 216.54 233.96 215.28 231.854 215.28C230.288 215.28 229.064 216 228.254 216.666V215.46H226.67ZM237.621 215.46V225H239.313V217.764C239.979 217.368 241.059 216.9 242.175 216.9C243.579 216.9 244.425 217.692 244.425 219.258V225H246.117V218.88C246.117 216.54 244.911 215.28 242.805 215.28C241.239 215.28 240.015 216 239.205 216.666V215.46H237.621ZM256.547 224.334V222.84C255.845 223.236 254.531 223.578 253.253 223.578C251.255 223.578 249.958 222.66 249.833 220.752H256.745V219.96C256.745 216.99 255.251 215.262 252.641 215.262C249.977 215.262 248.123 217.116 248.123 220.23C248.123 223.47 250.175 225.18 253.091 225.18C254.405 225.18 255.863 224.838 256.547 224.334ZM252.551 216.72C254.225 216.72 255.053 217.8 255.089 219.6H249.815C249.905 217.782 250.967 216.72 252.551 216.72ZM258.891 212.616V225H260.583V212.346L258.891 212.616ZM272.751 219.204V220.068C272.319 219.906 271.581 219.726 270.645 219.726C268.197 219.726 266.613 220.95 266.613 222.624C266.613 224.208 267.711 225.18 269.637 225.18C271.059 225.18 272.175 224.478 272.859 223.74V225H274.443V219.186C274.443 216.342 272.643 215.28 270.573 215.28C268.809 215.28 267.351 216.108 266.721 216.756V218.502C267.531 217.674 268.863 216.954 270.357 216.954C271.635 216.954 272.751 217.584 272.751 219.204ZM268.197 222.552C268.197 221.562 269.169 220.896 271.059 220.896C271.671 220.896 272.319 221.004 272.751 221.13V222.75C272.013 223.362 270.987 223.866 269.907 223.866C268.953 223.866 268.197 223.488 268.197 222.552ZM280.455 225.18C283.191 225.18 285.621 223.488 285.621 219.978C285.621 216.81 283.659 215.28 281.427 215.28C280.095 215.28 279.087 215.784 278.457 216.306V215.46H276.873V227.844H278.565V224.946C279.105 225.09 279.681 225.18 280.455 225.18ZM280.959 216.792C282.705 216.792 283.875 217.98 283.875 220.086C283.875 222.534 282.363 223.668 280.383 223.668C279.627 223.668 279.051 223.524 278.565 223.362V217.584C279.105 217.206 279.933 216.792 280.959 216.792ZM291.266 225.18C294.002 225.18 296.432 223.488 296.432 219.978C296.432 216.81 294.47 215.28 292.238 215.28C290.906 215.28 289.898 215.784 289.268 216.306V215.46H287.684V227.844H289.376V224.946C289.916 225.09 290.492 225.18 291.266 225.18ZM291.77 216.792C293.516 216.792 294.686 217.98 294.686 220.086C294.686 222.534 293.174 223.668 291.194 223.668C290.438 223.668 289.862 223.524 289.376 223.362V217.584C289.916 217.206 290.744 216.792 291.77 216.792ZM298.494 212.616V225H300.186V212.346L298.494 212.616ZM303.596 214.128C304.334 214.128 304.802 213.732 304.802 213.138C304.802 212.526 304.334 212.13 303.596 212.13C302.858 212.13 302.372 212.526 302.372 213.138C302.372 213.732 302.858 214.128 303.596 214.128ZM302.732 215.46V225H304.424V215.46H302.732ZM314.544 216C313.824 215.514 312.798 215.262 311.7 215.262C308.784 215.262 306.552 217.242 306.552 220.23C306.552 223.128 308.766 225.18 311.682 225.18C312.798 225.18 313.824 224.91 314.544 224.424V222.732C313.824 223.254 312.816 223.578 311.736 223.578C309.72 223.578 308.244 222.246 308.244 220.23C308.244 218.16 309.72 216.864 311.754 216.864C312.816 216.864 313.824 217.17 314.544 217.692V216ZM322.164 219.204V220.068C321.732 219.906 320.994 219.726 320.058 219.726C317.61 219.726 316.026 220.95 316.026 222.624C316.026 224.208 317.124 225.18 319.05 225.18C320.472 225.18 321.588 224.478 322.272 223.74V225H323.856V219.186C323.856 216.342 322.056 215.28 319.986 215.28C318.222 215.28 316.764 216.108 316.134 216.756V218.502C316.944 217.674 318.276 216.954 319.77 216.954C321.048 216.954 322.164 217.584 322.164 219.204ZM317.61 222.552C317.61 221.562 318.582 220.896 320.472 220.896C321.084 220.896 321.732 221.004 322.164 221.13V222.75C321.426 223.362 320.4 223.866 319.32 223.866C318.366 223.866 317.61 223.488 317.61 222.552ZM331.973 224.586V223.128C331.541 223.398 330.839 223.65 330.083 223.65C329.111 223.65 328.535 223.218 328.535 222.12V216.954H331.901V215.46H328.535V213.66H328.139L325.385 216.522V216.954H326.843V222.3C326.843 224.604 328.175 225.18 329.669 225.18C330.731 225.18 331.505 224.892 331.973 224.586ZM334.709 214.128C335.447 214.128 335.915 213.732 335.915 213.138C335.915 212.526 335.447 212.13 334.709 212.13C333.971 212.13 333.485 212.526 333.485 213.138C333.485 213.732 333.971 214.128 334.709 214.128ZM333.845 215.46V225H335.537V215.46H333.845ZM342.615 225.18C345.477 225.18 347.565 223.038 347.565 220.23C347.565 217.386 345.477 215.28 342.615 215.28C339.753 215.28 337.665 217.386 337.665 220.23C337.665 223.038 339.753 225.18 342.615 225.18ZM342.615 223.596C340.743 223.596 339.339 222.156 339.339 220.23C339.339 218.268 340.743 216.864 342.615 216.864C344.505 216.864 345.891 218.268 345.891 220.23C345.891 222.174 344.505 223.596 342.615 223.596ZM349.629 215.46V225H351.321V217.764C351.987 217.368 353.067 216.9 354.183 216.9C355.587 216.9 356.433 217.692 356.433 219.258V225H358.125V218.88C358.125 216.54 356.919 215.28 354.813 215.28C353.247 215.28 352.023 216 351.213 216.666V215.46H349.629Z" fill="black"/>
<path d="M37.0234 229.498C42.5463 229.498 47.0234 225.021 47.0234 219.498C47.0234 213.975 42.5463 209.498 37.0234 209.498C31.5006 209.498 27.0234 213.975 27.0234 219.498C27.0234 225.021 31.5006 229.498 37.0234 229.498Z" stroke="black" stroke-width="2" stroke-linecap="round" stroke-linejoin="round"/>
<path d="M47.0234 219.498H43.0234" stroke="black" stroke-width="2" stroke-linecap="round" stroke-linejoin="round"/>
<path d="M31.0234 219.498H27.0234" stroke="black" stroke-width="2" stroke-linecap="round" stroke-linejoin="round"/>
<path d="M37.0234 213.498V209.498" stroke="black" stroke-width="2" stroke-linecap="round" stroke-linejoin="round"/>
<path d="M37.0234 229.498V225.498" stroke="black" stroke-width="2" stroke-linecap="round" stroke-linejoin="round"/>
<rect y="270" width="428" height="78" fill="#47A561"/>
<path d="M80.646 302.616H78.792V309.888C78.792 312.066 77.748 313.416 75.498 313.416C73.248 313.416 72.204 312.066 72.204 309.888V302.616H70.35V309.87C70.35 313.02 71.898 315.18 75.498 315.18C79.098 315.18 80.646 313.02 80.646 309.87V302.616ZM87.5162 309.834L86.3462 309.492C85.1222 309.132 84.3302 308.844 84.3302 307.98C84.3302 307.17 85.1402 306.774 86.1482 306.774C87.4982 306.774 88.9562 307.314 89.6402 307.836V306.144C88.9742 305.694 87.6062 305.262 86.2382 305.262C84.0242 305.262 82.6922 306.45 82.6922 308.034C82.6922 309.69 83.8982 310.392 85.3202 310.752L86.5262 311.112C87.7502 311.436 88.4702 311.706 88.4702 312.534C88.4702 313.434 87.7682 313.758 86.6342 313.758C85.1582 313.758 83.6642 313.182 82.7822 312.624V314.28C83.5022 314.73 85.0322 315.252 86.5622 315.252C88.7042 315.252 90.0722 314.298 90.0722 312.498C90.0722 311.022 89.0462 310.266 87.5162 309.834ZM97.5854 309.204V310.068C97.1534 309.906 96.4154 309.726 95.4794 309.726C93.0314 309.726 91.4474 310.95 91.4474 312.624C91.4474 314.208 92.5454 315.18 94.4714 315.18C95.8934 315.18 97.0094 314.478 97.6934 313.74V315H99.2774V309.186C99.2774 306.342 97.4774 305.28 95.4074 305.28C93.6434 305.28 92.1854 306.108 91.5554 306.756V308.502C92.3654 307.674 93.6974 306.954 95.1914 306.954C96.4694 306.954 97.5854 307.584 97.5854 309.204ZM93.0314 312.552C93.0314 311.562 94.0034 310.896 95.8934 310.896C96.5054 310.896 97.1534 311.004 97.5854 311.13V312.75C96.8474 313.362 95.8214 313.866 94.7414 313.866C93.7874 313.866 93.0314 313.488 93.0314 312.552ZM109.933 313.506V306.072C109.051 305.712 107.881 305.28 106.315 305.28C103.579 305.28 101.257 306.936 101.257 310.194C101.257 312.786 102.931 314.316 105.325 314.316C106.621 314.316 107.611 313.794 108.241 313.308V313.722C108.241 315.468 107.215 316.44 105.253 316.44C103.831 316.44 102.643 315.9 101.779 315.306V317.034C102.571 317.52 103.867 318.024 105.415 318.024C107.899 318.024 109.933 316.728 109.933 313.506ZM102.985 309.996C102.985 307.908 104.371 306.792 106.297 306.792C107.107 306.792 107.719 306.954 108.241 307.152V311.958C107.683 312.354 106.783 312.786 105.739 312.786C104.137 312.786 102.985 311.868 102.985 309.996ZM120.404 314.334V312.84C119.702 313.236 118.388 313.578 117.11 313.578C115.112 313.578 113.816 312.66 113.69 310.752H120.602V309.96C120.602 306.99 119.108 305.262 116.498 305.262C113.834 305.262 111.98 307.116 111.98 310.23C111.98 313.47 114.032 315.18 116.948 315.18C118.262 315.18 119.72 314.838 120.404 314.334ZM116.408 306.72C118.082 306.72 118.91 307.8 118.946 309.6H113.672C113.762 307.782 114.824 306.72 116.408 306.72ZM134.316 306C133.596 305.514 132.57 305.262 131.472 305.262C128.556 305.262 126.324 307.242 126.324 310.23C126.324 313.128 128.538 315.18 131.454 315.18C132.57 315.18 133.596 314.91 134.316 314.424V312.732C133.596 313.254 132.588 313.578 131.508 313.578C129.492 313.578 128.016 312.246 128.016 310.23C128.016 308.16 129.492 306.864 131.526 306.864C132.588 306.864 133.596 307.17 134.316 307.692V306ZM140.171 313.56C138.767 313.56 137.921 312.768 137.921 311.202V305.46H136.229V311.58C136.229 313.92 137.435 315.18 139.523 315.18C141.107 315.18 142.331 314.46 143.141 313.794V315H144.725V305.46H143.033V312.678C142.349 313.092 141.287 313.56 140.171 313.56ZM151.518 309.834L150.348 309.492C149.124 309.132 148.332 308.844 148.332 307.98C148.332 307.17 149.142 306.774 150.15 306.774C151.5 306.774 152.958 307.314 153.642 307.836V306.144C152.976 305.694 151.608 305.262 150.24 305.262C148.026 305.262 146.694 306.45 146.694 308.034C146.694 309.69 147.9 310.392 149.322 310.752L150.528 311.112C151.752 311.436 152.472 311.706 152.472 312.534C152.472 313.434 151.77 313.758 150.636 313.758C149.16 313.758 147.666 313.182 146.784 312.624V314.28C147.504 314.73 149.034 315.252 150.564 315.252C152.706 315.252 154.074 314.298 154.074 312.498C154.074 311.022 153.048 310.266 151.518 309.834ZM161.641 314.586V313.128C161.209 313.398 160.507 313.65 159.751 313.65C158.779 313.65 158.203 313.218 158.203 312.12V306.954H161.569V305.46H158.203V303.66H157.807L155.053 306.522V306.954H156.511V312.3C156.511 314.604 157.843 315.18 159.337 315.18C160.399 315.18 161.173 314.892 161.641 314.586ZM167.977 315.18C170.839 315.18 172.927 313.038 172.927 310.23C172.927 307.386 170.839 305.28 167.977 305.28C165.115 305.28 163.027 307.386 163.027 310.23C163.027 313.038 165.115 315.18 167.977 315.18ZM167.977 313.596C166.105 313.596 164.701 312.156 164.701 310.23C164.701 308.268 166.105 306.864 167.977 306.864C169.867 306.864 171.253 308.268 171.253 310.23C171.253 312.174 169.867 313.596 167.977 313.596ZM174.99 305.46V315H176.682V307.782C177.33 307.386 178.32 306.9 179.364 306.9C180.642 306.9 181.434 307.674 181.434 309.186V315H183.126V308.718C183.126 308.394 183.108 308.07 183.054 307.782C183.738 307.368 184.746 306.9 185.808 306.9C187.104 306.9 187.896 307.674 187.896 309.186V315H189.57V308.808C189.57 306.522 188.436 305.28 186.456 305.28C184.8 305.28 183.576 306.09 182.748 306.828C182.262 305.82 181.326 305.28 179.994 305.28C178.5 305.28 177.348 306 176.574 306.666V305.46H174.99ZM192.924 304.128C193.662 304.128 194.13 303.732 194.13 303.138C194.13 302.526 193.662 302.13 192.924 302.13C192.186 302.13 191.7 302.526 191.7 303.138C191.7 303.732 192.186 304.128 192.924 304.128ZM192.06 305.46V315H193.752V305.46H192.06ZM204.196 315V313.416H198.13L203.836 306.684V305.46H196.15V307.044H201.46L195.79 313.776V315H204.196ZM211.79 309.204V310.068C211.358 309.906 210.62 309.726 209.684 309.726C207.236 309.726 205.652 310.95 205.652 312.624C205.652 314.208 206.75 315.18 208.676 315.18C210.098 315.18 211.214 314.478 211.898 313.74V315H213.482V309.186C213.482 306.342 211.682 305.28 209.612 305.28C207.848 305.28 206.39 306.108 205.76 306.756V308.502C206.57 307.674 207.902 306.954 209.396 306.954C210.674 306.954 211.79 307.584 211.79 309.204ZM207.236 312.552C207.236 311.562 208.208 310.896 210.098 310.896C210.71 310.896 211.358 311.004 211.79 311.13V312.75C211.052 313.362 210.026 313.866 208.946 313.866C207.992 313.866 207.236 313.488 207.236 312.552ZM221.6 314.586V313.128C221.168 313.398 220.466 313.65 219.71 313.65C218.738 313.65 218.162 313.218 218.162 312.12V306.954H221.528V305.46H218.162V303.66H217.766L215.012 306.522V306.954H216.47V312.3C216.47 314.604 217.802 315.18 219.296 315.18C220.358 315.18 221.132 314.892 221.6 314.586ZM224.336 304.128C225.074 304.128 225.542 303.732 225.542 303.138C225.542 302.526 225.074 302.13 224.336 302.13C223.598 302.13 223.112 302.526 223.112 303.138C223.112 303.732 223.598 304.128 224.336 304.128ZM223.472 305.46V315H225.164V305.46H223.472ZM232.242 315.18C235.104 315.18 237.192 313.038 237.192 310.23C237.192 307.386 235.104 305.28 232.242 305.28C229.38 305.28 227.292 307.386 227.292 310.23C227.292 313.038 229.38 315.18 232.242 315.18ZM232.242 313.596C230.37 313.596 228.966 312.156 228.966 310.23C228.966 308.268 230.37 306.864 232.242 306.864C234.132 306.864 235.518 308.268 235.518 310.23C235.518 312.174 234.132 313.596 232.242 313.596ZM239.256 305.46V315H240.948V307.764C241.614 307.368 242.694 306.9 243.81 306.9C245.214 306.9 246.06 307.692 246.06 309.258V315H247.752V308.88C247.752 306.54 246.546 305.28 244.44 305.28C242.874 305.28 241.65 306 240.84 306.666V305.46H239.256Z" fill="black"/>
<path d="M43.0137 307.389H31.0137" stroke="black" stroke-width="2" stroke-linecap="round" stroke-linejoin="round"/>
<path d="M46.0137 303.389H28.0137" stroke="black" stroke-width="2" stroke-linecap="round" stroke-linejoin="round"/>
<path d="M46.0137 311.389H28.0137" stroke="black" stroke-width="2" stroke-linecap="round" stroke-linejoin="round"/>
<path d="M43.0137 315.389H31.0137" stroke="black" stroke-width="2" stroke-linecap="round" stroke-linejoin="round"/>
<rect y="360" width="428" height="78" fill="#47A561"/>
<path d="M80.646 392.616H78.792V399.888C78.792 402.066 77.748 403.416 75.498 403.416C73.248 403.416 72.204 402.066 72.204 399.888V392.616H70.35V399.87C70.35 403.02 71.898 405.18 75.498 405.18C79.098 405.18 80.646 403.02 80.646 399.87V392.616ZM87.5162 399.834L86.3462 399.492C85.1222 399.132 84.3302 398.844 84.3302 397.98C84.3302 397.17 85.1402 396.774 86.1482 396.774C87.4982 396.774 88.9562 397.314 89.6402 397.836V396.144C88.9742 395.694 87.6062 395.262 86.2382 395.262C84.0242 395.262 82.6922 396.45 82.6922 398.034C82.6922 399.69 83.8982 400.392 85.3202 400.752L86.5262 401.112C87.7502 401.436 88.4702 401.706 88.4702 402.534C88.4702 403.434 87.7682 403.758 86.6342 403.758C85.1582 403.758 83.6642 403.182 82.7822 402.624V404.28C83.5022 404.73 85.0322 405.252 86.5622 405.252C88.7042 405.252 90.0722 404.298 90.0722 402.498C90.0722 401.022 89.0462 400.266 87.5162 399.834ZM99.9254 404.334V402.84C99.2234 403.236 97.9094 403.578 96.6314 403.578C94.6334 403.578 93.3374 402.66 93.2114 400.752H100.123V399.96C100.123 396.99 98.6294 395.262 96.0194 395.262C93.3554 395.262 91.5014 397.116 91.5014 400.23C91.5014 403.47 93.5534 405.18 96.4694 405.18C97.7834 405.18 99.2414 404.838 99.9254 404.334ZM95.9294 396.72C97.6034 396.72 98.4314 397.8 98.4674 399.6H93.1934C93.2834 397.782 94.3454 396.72 95.9294 396.72ZM102.27 395.46V405H103.962V397.908C104.61 397.422 105.6 396.9 106.536 396.9C107.22 396.9 107.778 397.098 108.192 397.35V395.568C107.85 395.388 107.454 395.28 107.04 395.28C105.762 395.28 104.592 396.09 103.854 396.828V395.46H102.27ZM114.611 394.146C115.349 394.146 115.817 393.75 115.817 393.138C115.817 392.526 115.349 392.148 114.611 392.148C113.873 392.148 113.387 392.526 113.387 393.138C113.387 393.75 113.873 394.146 114.611 394.146ZM112.811 408.024C114.305 407.7 115.439 406.746 115.439 404.838V395.46H113.747V404.784C113.747 405.81 113.315 406.314 112.307 406.656L112.811 408.024ZM122.52 405.18C125.382 405.18 127.47 403.038 127.47 400.23C127.47 397.386 125.382 395.28 122.52 395.28C119.658 395.28 117.57 397.386 117.57 400.23C117.57 403.038 119.658 405.18 122.52 405.18ZM122.52 403.596C120.648 403.596 119.244 402.156 119.244 400.23C119.244 398.268 120.648 396.864 122.52 396.864C124.41 396.864 125.796 398.268 125.796 400.23C125.796 402.174 124.41 403.596 122.52 403.596ZM133.403 403.56C131.999 403.56 131.153 402.768 131.153 401.202V395.46H129.461V401.58C129.461 403.92 130.667 405.18 132.755 405.18C134.339 405.18 135.563 404.46 136.373 403.794V405H137.957V395.46H136.265V402.678C135.581 403.092 134.519 403.56 133.403 403.56ZM140.485 395.46V405H142.177V397.908C142.825 397.422 143.815 396.9 144.751 396.9C145.435 396.9 145.993 397.098 146.407 397.35V395.568C146.065 395.388 145.669 395.28 145.255 395.28C143.977 395.28 142.807 396.09 142.069 396.828V395.46H140.485ZM147.973 395.46V405H149.665V397.764C150.331 397.368 151.411 396.9 152.527 396.9C153.931 396.9 154.777 397.692 154.777 399.258V405H156.469V398.88C156.469 396.54 155.263 395.28 153.157 395.28C151.591 395.28 150.367 396 149.557 396.666V395.46H147.973ZM166.898 404.334V402.84C166.196 403.236 164.882 403.578 163.604 403.578C161.606 403.578 160.31 402.66 160.184 400.752H167.096V399.96C167.096 396.99 165.602 395.262 162.992 395.262C160.328 395.262 158.474 397.116 158.474 400.23C158.474 403.47 160.526 405.18 163.442 405.18C164.756 405.18 166.214 404.838 166.898 404.334ZM162.902 396.72C164.576 396.72 165.404 397.8 165.44 399.6H160.166C160.256 397.782 161.318 396.72 162.902 396.72ZM170.664 408.024C171.924 408.024 172.95 407.358 173.67 405.684L178.17 395.46H176.298L173.274 402.84L170.16 395.46H168.27L172.482 404.73L172.158 405.432C171.852 406.08 171.294 406.476 170.574 406.476C169.584 406.476 168.81 405.9 168.468 405.54V407.214C168.846 407.556 169.638 408.024 170.664 408.024ZM187.351 403.56C185.947 403.56 185.101 402.768 185.101 401.202V395.46H183.409V401.58C183.409 403.92 184.615 405.18 186.703 405.18C188.287 405.18 189.511 404.46 190.321 403.794V405H191.905V395.46H190.213V402.678C189.529 403.092 188.467 403.56 187.351 403.56ZM194.432 395.46V405H196.124V397.764C196.79 397.368 197.87 396.9 198.986 396.9C200.39 396.9 201.236 397.692 201.236 399.258V405H202.928V398.88C202.928 396.54 201.722 395.28 199.616 395.28C198.05 395.28 196.826 396 196.016 396.666V395.46H194.432ZM206.283 394.128C207.021 394.128 207.489 393.732 207.489 393.138C207.489 392.526 207.021 392.13 206.283 392.13C205.545 392.13 205.059 392.526 205.059 393.138C205.059 393.732 205.545 394.128 206.283 394.128ZM205.419 395.46V405H207.111V395.46H205.419ZM208.862 396.954H210.248V405H211.94V396.954H214.478V395.46H211.94V395.424C211.94 394.344 212.588 393.732 213.578 393.732C214.298 393.732 214.982 394.002 215.378 394.308V392.886C215.054 392.67 214.334 392.328 213.38 392.328C211.688 392.328 210.248 393.282 210.248 395.442V395.46H208.862V396.954ZM220.852 405.18C223.714 405.18 225.802 403.038 225.802 400.23C225.802 397.386 223.714 395.28 220.852 395.28C217.99 395.28 215.902 397.386 215.902 400.23C215.902 403.038 217.99 405.18 220.852 405.18ZM220.852 403.596C218.98 403.596 217.576 402.156 217.576 400.23C217.576 398.268 218.98 396.864 220.852 396.864C222.742 396.864 224.128 398.268 224.128 400.23C224.128 402.174 222.742 403.596 220.852 403.596ZM227.865 395.46V405H229.557V397.908C230.205 397.422 231.195 396.9 232.131 396.9C232.815 396.9 233.373 397.098 233.787 397.35V395.568C233.445 395.388 233.049 395.28 232.635 395.28C231.357 395.28 230.187 396.09 229.449 396.828V395.46H227.865ZM235.354 395.46V405H237.046V397.782C237.694 397.386 238.684 396.9 239.728 396.9C241.006 396.9 241.798 397.674 241.798 399.186V405H243.49V398.718C243.49 398.394 243.472 398.07 243.418 397.782C244.102 397.368 245.11 396.9 246.172 396.9C247.468 396.9 248.26 397.674 248.26 399.186V405H249.934V398.808C249.934 396.522 248.8 395.28 246.82 395.28C245.164 395.28 243.94 396.09 243.112 396.828C242.626 395.82 241.69 395.28 240.358 395.28C238.864 395.28 237.712 396 236.938 396.666V395.46H235.354ZM253.287 394.128C254.025 394.128 254.493 393.732 254.493 393.138C254.493 392.526 254.025 392.13 253.287 392.13C252.549 392.13 252.063 392.526 252.063 393.138C252.063 393.732 252.549 394.128 253.287 394.128ZM252.423 395.46V405H254.115V395.46H252.423ZM262.382 404.586V403.128C261.95 403.398 261.248 403.65 260.492 403.65C259.52 403.65 258.944 403.218 258.944 402.12V396.954H262.31V395.46H258.944V393.66H258.548L255.794 396.522V396.954H257.252V402.3C257.252 404.604 258.584 405.18 260.078 405.18C261.14 405.18 261.914 404.892 262.382 404.586ZM265.639 408.024C266.899 408.024 267.925 407.358 268.645 405.684L273.145 395.46H271.273L268.249 402.84L265.135 395.46H263.245L267.457 404.73L267.133 405.432C266.827 406.08 266.269 406.476 265.549 406.476C264.559 406.476 263.785 405.9 263.443 405.54V407.214C263.821 407.556 264.613 408.024 265.639 408.024Z" fill="black"/>
<g clip-path="url(#clip0_1217_10158)">
<path d="M42.0137 408.389V406.389C42.0137 405.328 41.5922 404.31 40.8421 403.56C40.092 402.81 39.0745 402.389 38.0137 402.389H30.0137C28.9528 402.389 27.9354 402.81 27.1852 403.56C26.4351 404.31 26.0137 405.328 26.0137 406.389V408.389" stroke="black" stroke-width="2" stroke-linecap="round" stroke-linejoin="round"/>
<path d="M34.0137 398.389C36.2228 398.389 38.0137 396.598 38.0137 394.389C38.0137 392.18 36.2228 390.389 34.0137 390.389C31.8045 390.389 30.0137 392.18 30.0137 394.389C30.0137 396.598 31.8045 398.389 34.0137 398.389Z" stroke="black" stroke-width="2" stroke-linecap="round" stroke-linejoin="round"/>
<path d="M48.0137 408.389V406.389C48.013 405.502 47.718 404.641 47.175 403.941C46.632 403.241 45.8718 402.74 45.0137 402.519" stroke="black" stroke-width="2" stroke-linecap="round" stroke-linejoin="round"/>
<path d="M41.0137 390.519C41.8741 390.739 42.6367 391.239 43.1813 391.941C43.7259 392.643 44.0215 393.506 44.0215 394.394C44.0215 395.282 43.7259 396.145 43.1813 396.846C42.6367 397.548 41.8741 398.048 41.0137 398.269" stroke="black" stroke-width="2" stroke-linecap="round" stroke-linejoin="round"/>
</g>
<defs>
<linearGradient id="paint0_linear_1217_10158" x1="214" y1="0" x2="214" y2="78" gradientUnits="userSpaceOnUse">
<stop stop-color="#6EDA8D"/>
<stop offset="1" stop-color="#4C8F5F" stop-opacity="0"/>
</linearGradient>
<clipPath id="clip0_1217_10158">
<rect width="24" height="24" fill="white" transform="translate(25.0137 387.389)"/>
</clipPath>
</defs>
</svg>
