<svg width="384" height="117" viewBox="0 0 384 117" fill="none" xmlns="http://www.w3.org/2000/svg">
<rect y="0.464844" width="120" height="116" rx="8" fill="#5ACC79"/>
<path d="M11.264 16.5528C12.064 16.5528 12.664 16.3288 13.16 16.0168V15.4408C12.704 15.7608 12.08 16.0488 11.28 16.0488C9.976 16.0488 8.992 15.0968 8.992 13.7208C8.992 12.3368 9.976 11.3768 11.28 11.3768C12.08 11.3768 12.704 11.6648 13.16 11.9848V11.4168C12.664 11.1048 12.064 10.8808 11.264 10.8808C9.664 10.8808 8.44 12.0568 8.44 13.7208C8.44 15.3848 9.664 16.5528 11.264 16.5528ZM15.9904 12.6328C16.6544 12.6328 17.1264 13.0088 17.1264 13.8328V16.4648H17.6304V13.7448C17.6304 12.6568 17.0224 12.1448 16.1424 12.1448C15.4384 12.1448 14.9104 12.4568 14.5424 12.7448V10.8568L14.0304 10.9608V16.4648H14.5424V13.1288C14.8704 12.9208 15.4144 12.6328 15.9904 12.6328ZM20.8026 16.5448C22.0586 16.5448 22.9706 15.5928 22.9706 14.3448C22.9706 13.0888 22.0586 12.1448 20.8026 12.1448C19.5466 12.1448 18.6346 13.0888 18.6346 14.3448C18.6346 15.5928 19.5466 16.5448 20.8026 16.5448ZM20.8026 16.0648C19.8426 16.0648 19.1466 15.3208 19.1466 14.3448C19.1466 13.3608 19.8426 12.6248 20.8026 12.6248C21.7706 12.6248 22.4586 13.3608 22.4586 14.3448C22.4586 15.3208 21.7706 16.0648 20.8026 16.0648ZM25.951 16.5448C27.207 16.5448 28.119 15.5928 28.119 14.3448C28.119 13.0888 27.207 12.1448 25.951 12.1448C24.695 12.1448 23.783 13.0888 23.783 14.3448C23.783 15.5928 24.695 16.5448 25.951 16.5448ZM25.951 16.0648C24.991 16.0648 24.295 15.3208 24.295 14.3448C24.295 13.3608 24.991 12.6248 25.951 12.6248C26.919 12.6248 27.607 13.3608 27.607 14.3448C27.607 15.3208 26.919 16.0648 25.951 16.0648ZM30.9474 14.2808L30.3474 14.0968C29.7794 13.9208 29.3794 13.7528 29.3794 13.2808C29.3794 12.8248 29.8354 12.5928 30.3474 12.5928C30.9314 12.5928 31.5314 12.8328 31.8434 13.0648V12.5288C31.5314 12.3288 30.9634 12.1368 30.3634 12.1368C29.4434 12.1368 28.8834 12.6488 28.8834 13.2968C28.8834 14.0088 29.3954 14.3048 29.9874 14.4728L30.6354 14.6648C31.1954 14.8328 31.5474 14.9848 31.5474 15.4488C31.5474 15.9528 31.1714 16.1288 30.5874 16.1288C29.9234 16.1288 29.2514 15.8568 28.8754 15.6088V16.1368C29.2194 16.3448 29.8754 16.5848 30.5794 16.5848C31.4914 16.5848 32.0354 16.1848 32.0354 15.4328C32.0354 14.7768 31.5634 14.4648 30.9474 14.2808ZM36.4078 16.2088V15.7368C36.1118 15.9288 35.4958 16.0568 34.9598 16.0568C34.0238 16.0568 33.3278 15.5688 33.2718 14.5288H36.5198V14.2808C36.5198 12.9048 35.8638 12.1368 34.7118 12.1368C33.5758 12.1368 32.7518 12.9368 32.7518 14.3448C32.7518 15.8008 33.6718 16.5448 34.9198 16.5448C35.4558 16.5448 36.0878 16.4248 36.4078 16.2088ZM34.6957 12.5928C35.5358 12.5928 35.9918 13.1448 36.0158 14.1528H33.2718C33.3038 13.1448 33.8958 12.5928 34.6957 12.5928ZM42.3796 16.4648H42.9716L45.2276 11.8328V16.4648H45.7556V10.9608H45.0436L42.6756 15.9288L40.3076 10.9608H39.5956V16.4648H40.1236V11.8328L42.3796 16.4648ZM49.076 16.5448C50.332 16.5448 51.244 15.5928 51.244 14.3448C51.244 13.0888 50.332 12.1448 49.076 12.1448C47.82 12.1448 46.908 13.0888 46.908 14.3448C46.908 15.5928 47.82 16.5448 49.076 16.5448ZM49.076 16.0648C48.116 16.0648 47.42 15.3208 47.42 14.3448C47.42 13.3608 48.116 12.6248 49.076 12.6248C50.044 12.6248 50.732 13.3608 50.732 14.3448C50.732 15.3208 50.044 16.0648 49.076 16.0648ZM55.3364 16.4648H55.8084V10.8568L55.2964 10.9608V12.3048C55.0164 12.2168 54.7124 12.1448 54.2884 12.1448C53.0484 12.1448 52.0564 12.9368 52.0564 14.4568C52.0564 15.8168 52.8644 16.5448 53.9204 16.5448C54.5604 16.5448 55.0644 16.2568 55.3364 16.0168V16.4648ZM54.3044 12.6088C54.7364 12.6088 55.0324 12.6968 55.2964 12.7928V15.6168C55.0404 15.8248 54.5844 16.0808 54.0244 16.0808C53.1444 16.0808 52.5844 15.4648 52.5844 14.4328C52.5844 13.2328 53.2964 12.6088 54.3044 12.6088ZM60.5015 16.2088V15.7368C60.2055 15.9288 59.5895 16.0568 59.0535 16.0568C58.1175 16.0568 57.4215 15.5688 57.3655 14.5288H60.6135V14.2808C60.6135 12.9048 59.9575 12.1368 58.8055 12.1368C57.6695 12.1368 56.8455 12.9368 56.8455 14.3448C56.8455 15.8008 57.7655 16.5448 59.0135 16.5448C59.5495 16.5448 60.1815 16.4248 60.5015 16.2088ZM58.7895 12.5928C59.6295 12.5928 60.0855 13.1448 60.1095 14.1528H57.3655C57.3975 13.1448 57.9895 12.5928 58.7895 12.5928ZM61.6867 12.2248V16.4648H62.1987V13.2328C62.5027 12.9608 63.0307 12.6328 63.4867 12.6328C63.7747 12.6328 63.9987 12.7128 64.1747 12.8328V12.2968C64.0067 12.2008 63.8227 12.1448 63.6147 12.1448C63.0307 12.1448 62.5107 12.5368 62.1667 12.8808V12.2248H61.6867ZM64.9679 12.2248V16.4648H65.4799V13.1288C65.8079 12.9208 66.3519 12.6328 66.9279 12.6328C67.5919 12.6328 68.0639 13.0088 68.0639 13.8328V16.4648H68.5679V13.7448C68.5679 12.6568 67.9599 12.1448 67.0799 12.1448C66.3519 12.1448 65.8159 12.4808 65.4479 12.7768V12.2248H64.9679Z" fill="#080317"/>
<path d="M8.16 57.5048H11.632V66.4648H13.808V57.5048H17.296V55.4568H8.16V57.5048ZM17.5975 57.5048H21.0695V66.4648H23.2455V57.5048H26.7335V55.4568H17.5975V57.5048Z" fill="#08051E"/>
<path d="M42.952 66.0968V65.1688C42.552 65.4408 41.944 65.6808 41.24 65.6808C40.28 65.6808 39.72 65.2328 39.72 64.1448V58.8968H42.872V57.9848H39.72V56.3848H39.464L37.384 58.6248V58.8968H38.696V64.2248C38.696 66.1608 39.864 66.6248 41.048 66.6248C41.928 66.6248 42.568 66.3528 42.952 66.0968ZM49.4676 66.0968V65.1688C49.0676 65.4408 48.4596 65.6808 47.7556 65.6808C46.7956 65.6808 46.2356 65.2328 46.2356 64.1448V58.8968H49.3876V57.9848H46.2356V56.3848H45.9796L43.8996 58.6248V58.8968H45.2116V64.2248C45.2116 66.1608 46.3796 66.6248 47.5636 66.6248C48.4436 66.6248 49.0836 66.3528 49.4676 66.0968Z" fill="#08051E"/>
<circle cx="18" cy="88.4648" r="9.5" fill="#2A2E43" stroke="#78E295"/>
<circle cx="34" cy="88.4648" r="9.5" fill="#F7F9FE" stroke="#78E295"/>
<circle cx="50" cy="88.4648" r="9.5" fill="#DE8452" stroke="#78E295"/>
<circle cx="65" cy="88.4648" r="9.5" fill="#24A6DE" stroke="#78E295"/>
<rect x="132" y="0.464844" width="120" height="116" rx="8" fill="#47A561"/>
<path d="M143.264 16.5528C144.064 16.5528 144.664 16.3288 145.16 16.0168V15.4408C144.704 15.7608 144.08 16.0488 143.28 16.0488C141.976 16.0488 140.992 15.0968 140.992 13.7208C140.992 12.3368 141.976 11.3768 143.28 11.3768C144.08 11.3768 144.704 11.6648 145.16 11.9848V11.4168C144.664 11.1048 144.064 10.8808 143.264 10.8808C141.664 10.8808 140.44 12.0568 140.44 13.7208C140.44 15.3848 141.664 16.5528 143.264 16.5528ZM147.99 12.6328C148.654 12.6328 149.126 13.0088 149.126 13.8328V16.4648H149.63V13.7448C149.63 12.6568 149.022 12.1448 148.142 12.1448C147.438 12.1448 146.91 12.4568 146.542 12.7448V10.8568L146.03 10.9608V16.4648H146.542V13.1288C146.87 12.9208 147.414 12.6328 147.99 12.6328ZM152.803 16.5448C154.059 16.5448 154.971 15.5928 154.971 14.3448C154.971 13.0888 154.059 12.1448 152.803 12.1448C151.547 12.1448 150.635 13.0888 150.635 14.3448C150.635 15.5928 151.547 16.5448 152.803 16.5448ZM152.803 16.0648C151.843 16.0648 151.147 15.3208 151.147 14.3448C151.147 13.3608 151.843 12.6248 152.803 12.6248C153.771 12.6248 154.459 13.3608 154.459 14.3448C154.459 15.3208 153.771 16.0648 152.803 16.0648ZM157.951 16.5448C159.207 16.5448 160.119 15.5928 160.119 14.3448C160.119 13.0888 159.207 12.1448 157.951 12.1448C156.695 12.1448 155.783 13.0888 155.783 14.3448C155.783 15.5928 156.695 16.5448 157.951 16.5448ZM157.951 16.0648C156.991 16.0648 156.295 15.3208 156.295 14.3448C156.295 13.3608 156.991 12.6248 157.951 12.6248C158.919 12.6248 159.607 13.3608 159.607 14.3448C159.607 15.3208 158.919 16.0648 157.951 16.0648ZM162.947 14.2808L162.347 14.0968C161.779 13.9208 161.379 13.7528 161.379 13.2808C161.379 12.8248 161.835 12.5928 162.347 12.5928C162.931 12.5928 163.531 12.8328 163.843 13.0648V12.5288C163.531 12.3288 162.963 12.1368 162.363 12.1368C161.443 12.1368 160.883 12.6488 160.883 13.2968C160.883 14.0088 161.395 14.3048 161.987 14.4728L162.635 14.6648C163.195 14.8328 163.547 14.9848 163.547 15.4488C163.547 15.9528 163.171 16.1288 162.587 16.1288C161.923 16.1288 161.251 15.8568 160.875 15.6088V16.1368C161.219 16.3448 161.875 16.5848 162.579 16.5848C163.491 16.5848 164.035 16.1848 164.035 15.4328C164.035 14.7768 163.563 14.4648 162.947 14.2808ZM168.408 16.2088V15.7368C168.112 15.9288 167.496 16.0568 166.96 16.0568C166.024 16.0568 165.328 15.5688 165.272 14.5288H168.52V14.2808C168.52 12.9048 167.864 12.1368 166.712 12.1368C165.576 12.1368 164.752 12.9368 164.752 14.3448C164.752 15.8008 165.672 16.5448 166.92 16.5448C167.456 16.5448 168.088 16.4248 168.408 16.2088ZM166.696 12.5928C167.536 12.5928 167.992 13.1448 168.016 14.1528H165.272C165.304 13.1448 165.896 12.5928 166.696 12.5928ZM174.116 16.5528C174.916 16.5528 175.516 16.3288 176.012 16.0168V15.4408C175.556 15.7608 174.932 16.0488 174.132 16.0488C172.828 16.0488 171.844 15.0968 171.844 13.7208C171.844 12.3368 172.828 11.3768 174.132 11.3768C174.932 11.3768 175.556 11.6648 176.012 11.9848V11.4168C175.516 11.1048 174.916 10.8808 174.116 10.8808C172.516 10.8808 171.292 12.0568 171.292 13.7208C171.292 15.3848 172.516 16.5528 174.116 16.5528ZM176.882 10.9608V16.4648H177.394V10.8568L176.882 10.9608ZM181.247 13.7928V14.3048C181.039 14.2328 180.687 14.1608 180.255 14.1608C179.095 14.1608 178.423 14.7208 178.423 15.4488C178.423 16.1048 178.871 16.5448 179.735 16.5448C180.399 16.5448 180.935 16.2008 181.279 15.8248V16.4648H181.751V13.8008C181.751 12.5928 180.975 12.1448 180.119 12.1448C179.351 12.1448 178.727 12.5208 178.455 12.8168V13.3608C178.807 12.9848 179.367 12.6408 180.071 12.6408C180.687 12.6408 181.247 12.9528 181.247 13.7928ZM178.911 15.4248C178.911 14.9128 179.391 14.5288 180.399 14.5288C180.703 14.5288 181.039 14.5928 181.247 14.6568V15.4888C180.871 15.8328 180.367 16.1288 179.799 16.1288C179.303 16.1288 178.911 15.9288 178.911 15.4248ZM184.776 14.2808L184.176 14.0968C183.608 13.9208 183.208 13.7528 183.208 13.2808C183.208 12.8248 183.664 12.5928 184.176 12.5928C184.76 12.5928 185.36 12.8328 185.672 13.0648V12.5288C185.36 12.3288 184.792 12.1368 184.192 12.1368C183.272 12.1368 182.712 12.6488 182.712 13.2968C182.712 14.0088 183.224 14.3048 183.816 14.4728L184.464 14.6648C185.024 14.8328 185.376 14.9848 185.376 15.4488C185.376 15.9528 185 16.1288 184.416 16.1288C183.752 16.1288 183.08 15.8568 182.704 15.6088V16.1368C183.048 16.3448 183.704 16.5848 184.408 16.5848C185.32 16.5848 185.864 16.1848 185.864 15.4328C185.864 14.7768 185.392 14.4648 184.776 14.2808ZM188.596 14.2808L187.996 14.0968C187.428 13.9208 187.028 13.7528 187.028 13.2808C187.028 12.8248 187.484 12.5928 187.996 12.5928C188.58 12.5928 189.18 12.8328 189.492 13.0648V12.5288C189.18 12.3288 188.612 12.1368 188.012 12.1368C187.092 12.1368 186.532 12.6488 186.532 13.2968C186.532 14.0088 187.044 14.3048 187.636 14.4728L188.284 14.6648C188.844 14.8328 189.196 14.9848 189.196 15.4488C189.196 15.9528 188.82 16.1288 188.236 16.1288C187.572 16.1288 186.9 15.8568 186.524 15.6088V16.1368C186.868 16.3448 187.524 16.5848 188.228 16.5848C189.14 16.5848 189.684 16.1848 189.684 15.4328C189.684 14.7768 189.212 14.4648 188.596 14.2808ZM190.888 11.5448C191.128 11.5448 191.296 11.4008 191.296 11.1928C191.296 10.9848 191.128 10.8408 190.888 10.8408C190.656 10.8408 190.488 10.9848 190.488 11.1928C190.488 11.4008 190.656 11.5448 190.888 11.5448ZM190.632 12.2248V16.4648H191.144V12.2248H190.632ZM195.669 12.4408C195.373 12.2408 194.941 12.1368 194.477 12.1368C193.181 12.1368 192.189 13.0008 192.189 14.3448C192.189 15.6488 193.181 16.5448 194.469 16.5448C194.941 16.5448 195.373 16.4248 195.669 16.2248V15.7128C195.389 15.9128 194.957 16.0568 194.485 16.0568C193.469 16.0568 192.709 15.3768 192.709 14.3448C192.709 13.2888 193.469 12.6248 194.493 12.6248C194.957 12.6248 195.389 12.7528 195.669 12.9608V12.4408Z" fill="#080317"/>
<path d="M143.453 67.4648V66.4805L144.727 66.2617V57.2539H142.148L141.922 58.832H140.766V56.0898H150.219V58.832H149.078L148.844 57.2539H146.266V66.2617L147.539 66.4805V67.4648H143.453ZM154.438 67.4648V66.4805L155.711 66.2617V57.2539H153.133L152.906 58.832H151.75V56.0898H161.203V58.832H160.062L159.828 57.2539H157.25V66.2617L158.523 66.4805V67.4648H154.438Z" fill="#08051E"/>
<path d="M175.859 67.5977C175.234 67.5977 174.737 67.4154 174.367 67.0508C174.003 66.681 173.82 66.0924 173.82 65.2852V60.1523H172.484V59.0117H173.82V56.9727H175.359V59.0117H177.195V60.1523H175.359V65.2852C175.359 65.6914 175.44 65.9909 175.602 66.1836C175.763 66.3763 175.979 66.4727 176.25 66.4727C176.432 66.4727 176.635 66.457 176.859 66.4258C177.083 66.3893 177.258 66.3581 177.383 66.332L177.594 67.3398C177.37 67.4076 177.094 67.4674 176.766 67.5195C176.443 67.5716 176.141 67.5977 175.859 67.5977ZM181.562 67.5977C180.938 67.5977 180.44 67.4154 180.07 67.0508C179.706 66.681 179.523 66.0924 179.523 65.2852V60.1523H178.188V59.0117H179.523V56.9727H181.062V59.0117H182.898V60.1523H181.062V65.2852C181.062 65.6914 181.143 65.9909 181.305 66.1836C181.466 66.3763 181.682 66.4727 181.953 66.4727C182.135 66.4727 182.339 66.457 182.562 66.4258C182.786 66.3893 182.961 66.3581 183.086 66.332L183.297 67.3398C183.073 67.4076 182.797 67.4674 182.469 67.5195C182.146 67.5716 181.844 67.5977 181.562 67.5977Z" fill="#08051E"/>
<circle cx="150" cy="89.4648" r="9.5" fill="#B39446" stroke="#409457"/>
<circle cx="165.833" cy="89.4648" r="9.5" fill="#FEFA97" stroke="#409457"/>
<circle cx="181.667" cy="89.4648" r="9.5" fill="#D87BF9" stroke="#409457"/>
<circle cx="197.5" cy="89.4648" r="9.5" fill="#F7F9FE" stroke="#409457"/>
<rect x="264" y="0.464844" width="120" height="116" rx="8" fill="#47A561"/>
<path d="M275.264 16.5528C276.064 16.5528 276.664 16.3288 277.16 16.0168V15.4408C276.704 15.7608 276.08 16.0488 275.28 16.0488C273.976 16.0488 272.992 15.0968 272.992 13.7208C272.992 12.3368 273.976 11.3768 275.28 11.3768C276.08 11.3768 276.704 11.6648 277.16 11.9848V11.4168C276.664 11.1048 276.064 10.8808 275.264 10.8808C273.664 10.8808 272.44 12.0568 272.44 13.7208C272.44 15.3848 273.664 16.5528 275.264 16.5528ZM279.99 12.6328C280.654 12.6328 281.126 13.0088 281.126 13.8328V16.4648H281.63V13.7448C281.63 12.6568 281.022 12.1448 280.142 12.1448C279.438 12.1448 278.91 12.4568 278.542 12.7448V10.8568L278.03 10.9608V16.4648H278.542V13.1288C278.87 12.9208 279.414 12.6328 279.99 12.6328ZM284.803 16.5448C286.059 16.5448 286.971 15.5928 286.971 14.3448C286.971 13.0888 286.059 12.1448 284.803 12.1448C283.547 12.1448 282.635 13.0888 282.635 14.3448C282.635 15.5928 283.547 16.5448 284.803 16.5448ZM284.803 16.0648C283.843 16.0648 283.147 15.3208 283.147 14.3448C283.147 13.3608 283.843 12.6248 284.803 12.6248C285.771 12.6248 286.459 13.3608 286.459 14.3448C286.459 15.3208 285.771 16.0648 284.803 16.0648ZM289.951 16.5448C291.207 16.5448 292.119 15.5928 292.119 14.3448C292.119 13.0888 291.207 12.1448 289.951 12.1448C288.695 12.1448 287.783 13.0888 287.783 14.3448C287.783 15.5928 288.695 16.5448 289.951 16.5448ZM289.951 16.0648C288.991 16.0648 288.295 15.3208 288.295 14.3448C288.295 13.3608 288.991 12.6248 289.951 12.6248C290.919 12.6248 291.607 13.3608 291.607 14.3448C291.607 15.3208 290.919 16.0648 289.951 16.0648ZM294.947 14.2808L294.347 14.0968C293.779 13.9208 293.379 13.7528 293.379 13.2808C293.379 12.8248 293.835 12.5928 294.347 12.5928C294.931 12.5928 295.531 12.8328 295.843 13.0648V12.5288C295.531 12.3288 294.963 12.1368 294.363 12.1368C293.443 12.1368 292.883 12.6488 292.883 13.2968C292.883 14.0088 293.395 14.3048 293.987 14.4728L294.635 14.6648C295.195 14.8328 295.547 14.9848 295.547 15.4488C295.547 15.9528 295.171 16.1288 294.587 16.1288C293.923 16.1288 293.251 15.8568 292.875 15.6088V16.1368C293.219 16.3448 293.875 16.5848 294.579 16.5848C295.491 16.5848 296.035 16.1848 296.035 15.4328C296.035 14.7768 295.563 14.4648 294.947 14.2808ZM300.408 16.2088V15.7368C300.112 15.9288 299.496 16.0568 298.96 16.0568C298.024 16.0568 297.328 15.5688 297.272 14.5288H300.52V14.2808C300.52 12.9048 299.864 12.1368 298.712 12.1368C297.576 12.1368 296.752 12.9368 296.752 14.3448C296.752 15.8008 297.672 16.5448 298.92 16.5448C299.456 16.5448 300.088 16.4248 300.408 16.2088ZM298.696 12.5928C299.536 12.5928 299.992 13.1448 300.016 14.1528H297.272C297.304 13.1448 297.896 12.5928 298.696 12.5928ZM306.116 16.5528C306.916 16.5528 307.516 16.3288 308.012 16.0168V15.4408C307.556 15.7608 306.932 16.0488 306.132 16.0488C304.828 16.0488 303.844 15.0968 303.844 13.7208C303.844 12.3368 304.828 11.3768 306.132 11.3768C306.932 11.3768 307.556 11.6648 308.012 11.9848V11.4168C307.516 11.1048 306.916 10.8808 306.116 10.8808C304.516 10.8808 303.292 12.0568 303.292 13.7208C303.292 15.3848 304.516 16.5528 306.116 16.5528ZM308.882 10.9608V16.4648H309.394V10.8568L308.882 10.9608ZM313.247 13.7928V14.3048C313.039 14.2328 312.687 14.1608 312.255 14.1608C311.095 14.1608 310.423 14.7208 310.423 15.4488C310.423 16.1048 310.871 16.5448 311.735 16.5448C312.399 16.5448 312.935 16.2008 313.279 15.8248V16.4648H313.751V13.8008C313.751 12.5928 312.975 12.1448 312.119 12.1448C311.351 12.1448 310.727 12.5208 310.455 12.8168V13.3608C310.807 12.9848 311.367 12.6408 312.071 12.6408C312.687 12.6408 313.247 12.9528 313.247 13.7928ZM310.911 15.4248C310.911 14.9128 311.391 14.5288 312.399 14.5288C312.703 14.5288 313.039 14.5928 313.247 14.6568V15.4888C312.871 15.8328 312.367 16.1288 311.799 16.1288C311.303 16.1288 310.911 15.9288 310.911 15.4248ZM316.776 14.2808L316.176 14.0968C315.608 13.9208 315.208 13.7528 315.208 13.2808C315.208 12.8248 315.664 12.5928 316.176 12.5928C316.76 12.5928 317.36 12.8328 317.672 13.0648V12.5288C317.36 12.3288 316.792 12.1368 316.192 12.1368C315.272 12.1368 314.712 12.6488 314.712 13.2968C314.712 14.0088 315.224 14.3048 315.816 14.4728L316.464 14.6648C317.024 14.8328 317.376 14.9848 317.376 15.4488C317.376 15.9528 317 16.1288 316.416 16.1288C315.752 16.1288 315.08 15.8568 314.704 15.6088V16.1368C315.048 16.3448 315.704 16.5848 316.408 16.5848C317.32 16.5848 317.864 16.1848 317.864 15.4328C317.864 14.7768 317.392 14.4648 316.776 14.2808ZM320.596 14.2808L319.996 14.0968C319.428 13.9208 319.028 13.7528 319.028 13.2808C319.028 12.8248 319.484 12.5928 319.996 12.5928C320.58 12.5928 321.18 12.8328 321.492 13.0648V12.5288C321.18 12.3288 320.612 12.1368 320.012 12.1368C319.092 12.1368 318.532 12.6488 318.532 13.2968C318.532 14.0088 319.044 14.3048 319.636 14.4728L320.284 14.6648C320.844 14.8328 321.196 14.9848 321.196 15.4488C321.196 15.9528 320.82 16.1288 320.236 16.1288C319.572 16.1288 318.9 15.8568 318.524 15.6088V16.1368C318.868 16.3448 319.524 16.5848 320.228 16.5848C321.14 16.5848 321.684 16.1848 321.684 15.4328C321.684 14.7768 321.212 14.4648 320.596 14.2808ZM322.888 11.5448C323.128 11.5448 323.296 11.4008 323.296 11.1928C323.296 10.9848 323.128 10.8408 322.888 10.8408C322.656 10.8408 322.488 10.9848 322.488 11.1928C322.488 11.4008 322.656 11.5448 322.888 11.5448ZM322.632 12.2248V16.4648H323.144V12.2248H322.632ZM327.669 12.4408C327.373 12.2408 326.941 12.1368 326.477 12.1368C325.181 12.1368 324.189 13.0008 324.189 14.3448C324.189 15.6488 325.181 16.5448 326.469 16.5448C326.941 16.5448 327.373 16.4248 327.669 16.2248V15.7128C327.389 15.9128 326.957 16.0568 326.485 16.0568C325.469 16.0568 324.709 15.3768 324.709 14.3448C324.709 13.2888 325.469 12.6248 326.493 12.6248C326.957 12.6248 327.389 12.7528 327.669 12.9608V12.4408Z" fill="#080317"/>
<path d="M275.453 67.4648V66.4805L276.727 66.2617V57.2539H274.148L273.922 58.832H272.766V56.0898H282.219V58.832H281.078L280.844 57.2539H278.266V66.2617L279.539 66.4805V67.4648H275.453ZM286.438 67.4648V66.4805L287.711 66.2617V57.2539H285.133L284.906 58.832H283.75V56.0898H293.203V58.832H292.062L291.828 57.2539H289.25V66.2617L290.523 66.4805V67.4648H286.438Z" fill="#08051E"/>
<path d="M307.859 67.5977C307.234 67.5977 306.737 67.4154 306.367 67.0508C306.003 66.681 305.82 66.0924 305.82 65.2852V60.1523H304.484V59.0117H305.82V56.9727H307.359V59.0117H309.195V60.1523H307.359V65.2852C307.359 65.6914 307.44 65.9909 307.602 66.1836C307.763 66.3763 307.979 66.4727 308.25 66.4727C308.432 66.4727 308.635 66.457 308.859 66.4258C309.083 66.3893 309.258 66.3581 309.383 66.332L309.594 67.3398C309.37 67.4076 309.094 67.4674 308.766 67.5195C308.443 67.5716 308.141 67.5977 307.859 67.5977ZM313.562 67.5977C312.938 67.5977 312.44 67.4154 312.07 67.0508C311.706 66.681 311.523 66.0924 311.523 65.2852V60.1523H310.188V59.0117H311.523V56.9727H313.062V59.0117H314.898V60.1523H313.062V65.2852C313.062 65.6914 313.143 65.9909 313.305 66.1836C313.466 66.3763 313.682 66.4727 313.953 66.4727C314.135 66.4727 314.339 66.457 314.562 66.4258C314.786 66.3893 314.961 66.3581 315.086 66.332L315.297 67.3398C315.073 67.4076 314.797 67.4674 314.469 67.5195C314.146 67.5716 313.844 67.5977 313.562 67.5977Z" fill="#08051E"/>
<circle cx="282" cy="89.4648" r="9.5" fill="#B39446" stroke="#409457"/>
<circle cx="297.833" cy="89.4648" r="9.5" fill="#FEFA97" stroke="#409457"/>
<circle cx="313.667" cy="89.4648" r="9.5" fill="#D87BF9" stroke="#409457"/>
<circle cx="329.5" cy="89.4648" r="9.5" fill="#F7F9FE" stroke="#409457"/>
</svg>
