<svg width="616" height="408" viewBox="0 0 616 408" fill="none" xmlns="http://www.w3.org/2000/svg">
<rect x="70.9493" y="43.6467" width="716.3" height="363.521" rx="9.74999" fill="#0D0A2C" stroke="url(#paint0_linear_1217_6764)" stroke-width="1.3"/>
<path d="M199.166 116.552V117.55C198.666 117.363 197.814 117.155 196.732 117.155C193.903 117.155 192.073 118.57 192.073 120.504C192.073 122.334 193.342 123.458 195.567 123.458C197.21 123.458 198.5 122.646 199.29 121.794V123.25H201.121V116.531C201.121 113.245 199.041 112.018 196.649 112.018C194.61 112.018 192.926 112.974 192.198 113.723V115.741C193.134 114.784 194.673 113.952 196.399 113.952C197.876 113.952 199.166 114.68 199.166 116.552ZM193.903 120.421C193.903 119.277 195.026 118.507 197.21 118.507C197.918 118.507 198.666 118.632 199.166 118.778V120.65C198.313 121.357 197.127 121.939 195.879 121.939C194.777 121.939 193.903 121.502 193.903 120.421ZM210.98 123.25H213.226L209.295 117.654L213.185 112.226H210.959L207.943 116.594L204.927 112.226H202.681L206.591 117.675L202.66 123.25H204.885L207.943 118.694L210.98 123.25ZM216.039 110.686C216.892 110.686 217.433 110.229 217.433 109.542C217.433 108.835 216.892 108.378 216.039 108.378C215.186 108.378 214.625 108.835 214.625 109.542C214.625 110.229 215.186 110.686 216.039 110.686ZM215.041 112.226V123.25H216.996V112.226H215.041ZM225.176 123.458C228.483 123.458 230.896 120.982 230.896 117.738C230.896 114.451 228.483 112.018 225.176 112.018C221.868 112.018 219.456 114.451 219.456 117.738C219.456 120.982 221.868 123.458 225.176 123.458ZM225.176 121.627C223.012 121.627 221.39 119.963 221.39 117.738C221.39 115.47 223.012 113.848 225.176 113.848C227.36 113.848 228.961 115.47 228.961 117.738C228.961 119.984 227.36 121.627 225.176 121.627ZM238.21 117.28L236.858 116.885C235.443 116.469 234.528 116.136 234.528 115.138C234.528 114.202 235.464 113.744 236.629 113.744C238.189 113.744 239.874 114.368 240.664 114.971V113.016C239.895 112.496 238.314 111.997 236.733 111.997C234.175 111.997 232.635 113.37 232.635 115.2C232.635 117.114 234.029 117.925 235.672 118.341L237.066 118.757C238.48 119.131 239.312 119.443 239.312 120.4C239.312 121.44 238.501 121.814 237.191 121.814C235.485 121.814 233.759 121.149 232.739 120.504V122.418C233.571 122.938 235.339 123.541 237.107 123.541C239.583 123.541 241.163 122.438 241.163 120.358C241.163 118.653 239.978 117.779 238.21 117.28ZM248.486 123.458C249.234 123.458 249.858 122.854 249.858 122.106C249.858 121.357 249.234 120.733 248.486 120.733C247.758 120.733 247.134 121.357 247.134 122.106C247.134 122.854 247.758 123.458 248.486 123.458ZM256.066 123.458C259.228 123.458 262.036 121.502 262.036 117.446C262.036 113.786 259.769 112.018 257.189 112.018C255.65 112.018 254.485 112.6 253.757 113.203V112.226H251.927V126.536H253.882V123.187C254.506 123.354 255.172 123.458 256.066 123.458ZM256.649 113.765C258.666 113.765 260.018 115.138 260.018 117.571C260.018 120.4 258.271 121.71 255.983 121.71C255.109 121.71 254.444 121.544 253.882 121.357V114.68C254.506 114.243 255.463 113.765 256.649 113.765ZM269.619 123.458C272.926 123.458 275.339 120.982 275.339 117.738C275.339 114.451 272.926 112.018 269.619 112.018C266.312 112.018 263.899 114.451 263.899 117.738C263.899 120.982 266.312 123.458 269.619 123.458ZM269.619 121.627C267.456 121.627 265.834 119.963 265.834 117.738C265.834 115.47 267.456 113.848 269.619 113.848C271.803 113.848 273.405 115.47 273.405 117.738C273.405 119.984 271.803 121.627 269.619 121.627ZM282.654 117.28L281.302 116.885C279.887 116.469 278.972 116.136 278.972 115.138C278.972 114.202 279.908 113.744 281.073 113.744C282.633 113.744 284.318 114.368 285.108 114.971V113.016C284.338 112.496 282.758 111.997 281.177 111.997C278.618 111.997 277.079 113.37 277.079 115.2C277.079 117.114 278.473 117.925 280.116 118.341L281.51 118.757C282.924 119.131 283.756 119.443 283.756 120.4C283.756 121.44 282.945 121.814 281.634 121.814C279.929 121.814 278.202 121.149 277.183 120.504V122.418C278.015 122.938 279.783 123.541 281.551 123.541C284.026 123.541 285.607 122.438 285.607 120.358C285.607 118.653 284.422 117.779 282.654 117.28ZM294.351 122.771V121.086C293.852 121.398 293.041 121.69 292.167 121.69C291.044 121.69 290.379 121.19 290.379 119.922V113.952H294.268V112.226H290.379V110.146H289.921L286.739 113.453V113.952H288.423V120.13C288.423 122.792 289.963 123.458 291.689 123.458C292.916 123.458 293.811 123.125 294.351 122.771ZM300.944 108.294H299.447C297.991 109.709 295.848 112.621 295.848 116.594C295.848 120.587 297.991 123.478 299.447 124.914H300.944C299.842 123.458 297.679 120.67 297.679 116.594C297.679 112.538 299.842 109.75 300.944 108.294ZM304.581 107.525H302.21L304.81 110.77H306.619L304.581 107.525ZM309.648 123.666L316.637 107.858H314.911L307.922 123.666H309.648ZM326.148 123.25H327.978V108.627L326.023 108.939V112.288C325.399 112.142 324.713 112.018 323.818 112.018C320.678 112.018 317.87 113.973 317.87 118.029C317.87 121.69 320.137 123.458 322.716 123.458C324.255 123.458 325.42 122.875 326.148 122.272V123.25ZM323.922 113.765C324.796 113.765 325.462 113.931 326.023 114.118V120.816C325.42 121.232 324.401 121.71 323.236 121.71C321.198 121.71 319.866 120.338 319.866 117.904C319.866 115.075 321.634 113.765 323.922 113.765ZM337.392 116.552V117.55C336.893 117.363 336.04 117.155 334.959 117.155C332.13 117.155 330.299 118.57 330.299 120.504C330.299 122.334 331.568 123.458 333.794 123.458C335.437 123.458 336.727 122.646 337.517 121.794V123.25H339.347V116.531C339.347 113.245 337.267 112.018 334.875 112.018C332.837 112.018 331.152 112.974 330.424 113.723V115.741C331.36 114.784 332.899 113.952 334.626 113.952C336.103 113.952 337.392 114.68 337.392 116.552ZM332.13 120.421C332.13 119.277 333.253 118.507 335.437 118.507C336.144 118.507 336.893 118.632 337.392 118.778V120.65C336.539 121.357 335.354 121.939 334.106 121.939C333.003 121.939 332.13 121.502 332.13 120.421ZM347.085 117.28L345.733 116.885C344.318 116.469 343.403 116.136 343.403 115.138C343.403 114.202 344.339 113.744 345.504 113.744C347.064 113.744 348.749 114.368 349.539 114.971V113.016C348.77 112.496 347.189 111.997 345.608 111.997C343.05 111.997 341.51 113.37 341.51 115.2C341.51 117.114 342.904 117.925 344.547 118.341L345.941 118.757C347.355 119.131 348.187 119.443 348.187 120.4C348.187 121.44 347.376 121.814 346.066 121.814C344.36 121.814 342.634 121.149 341.614 120.504V122.418C342.446 122.938 344.214 123.541 345.982 123.541C348.458 123.541 350.038 122.438 350.038 120.358C350.038 118.653 348.853 117.779 347.085 117.28ZM357.472 113.89C359.095 113.89 360.072 114.805 360.072 116.614V123.25H362.027V116.178C362.027 113.474 360.634 112.018 358.2 112.018C356.474 112.018 355.101 112.766 354.165 113.515V108.627L352.21 108.939V123.25H354.165V114.888C354.935 114.43 356.183 113.89 357.472 113.89ZM366.82 108.627L364.864 108.939V122.584C365.988 123 367.36 123.458 369.274 123.458C372.332 123.458 374.973 121.565 374.973 117.509C374.973 113.931 372.914 112.018 370.252 112.018C368.796 112.018 367.568 112.6 366.82 113.141V108.627ZM369.711 113.806C371.583 113.806 372.956 115.138 372.956 117.613C372.956 120.504 371.354 121.71 369.191 121.71C368.255 121.71 367.485 121.544 366.82 121.336V114.701C367.485 114.264 368.504 113.806 369.711 113.806ZM382.557 123.458C385.864 123.458 388.277 120.982 388.277 117.738C388.277 114.451 385.864 112.018 382.557 112.018C379.249 112.018 376.837 114.451 376.837 117.738C376.837 120.982 379.249 123.458 382.557 123.458ZM382.557 121.627C380.393 121.627 378.771 119.963 378.771 117.738C378.771 115.47 380.393 113.848 382.557 113.848C384.741 113.848 386.342 115.47 386.342 117.738C386.342 119.984 384.741 121.627 382.557 121.627ZM397.172 116.552V117.55C396.673 117.363 395.82 117.155 394.738 117.155C391.909 117.155 390.079 118.57 390.079 120.504C390.079 122.334 391.348 123.458 393.573 123.458C395.217 123.458 396.506 122.646 397.297 121.794V123.25H399.127V116.531C399.127 113.245 397.047 112.018 394.655 112.018C392.617 112.018 390.932 112.974 390.204 113.723V115.741C391.14 114.784 392.679 113.952 394.405 113.952C395.882 113.952 397.172 114.68 397.172 116.552ZM391.909 120.421C391.909 119.277 393.033 118.507 395.217 118.507C395.924 118.507 396.673 118.632 397.172 118.778V120.65C396.319 121.357 395.133 121.939 393.885 121.939C392.783 121.939 391.909 121.502 391.909 120.421ZM401.935 112.226V123.25H403.89V115.054C404.639 114.493 405.783 113.89 406.864 113.89C407.655 113.89 408.3 114.118 408.778 114.41V112.35C408.383 112.142 407.925 112.018 407.447 112.018C405.97 112.018 404.618 112.954 403.765 113.806V112.226H401.935ZM418.346 123.25H420.177V108.627L418.221 108.939V112.288C417.597 112.142 416.911 112.018 416.017 112.018C412.876 112.018 410.068 113.973 410.068 118.029C410.068 121.69 412.335 123.458 414.914 123.458C416.453 123.458 417.618 122.875 418.346 122.272V123.25ZM416.121 113.765C416.994 113.765 417.66 113.931 418.221 114.118V120.816C417.618 121.232 416.599 121.71 415.434 121.71C413.396 121.71 412.065 120.338 412.065 117.904C412.065 115.075 413.833 113.765 416.121 113.765ZM423.662 123.666L430.651 107.858H428.925L421.936 123.666H423.662ZM441.618 122.48V120.754C440.807 121.211 439.288 121.606 437.812 121.606C435.503 121.606 434.005 120.546 433.86 118.341H441.847V117.426C441.847 113.994 440.12 111.997 437.104 111.997C434.026 111.997 431.884 114.139 431.884 117.738C431.884 121.482 434.255 123.458 437.624 123.458C439.143 123.458 440.828 123.062 441.618 122.48ZM437 113.682C438.935 113.682 439.892 114.93 439.933 117.01H433.839C433.943 114.909 435.17 113.682 437 113.682ZM451.378 123.25H453.625L449.693 117.654L453.583 112.226H451.357L448.341 116.594L445.325 112.226H443.079L446.989 117.675L443.058 123.25H445.284L448.341 118.694L451.378 123.25ZM459.536 123.458C462.698 123.458 465.506 121.502 465.506 117.446C465.506 113.786 463.239 112.018 460.66 112.018C459.12 112.018 457.956 112.6 457.228 113.203V112.226H455.397V126.536H457.352V123.187C457.976 123.354 458.642 123.458 459.536 123.458ZM460.119 113.765C462.136 113.765 463.488 115.138 463.488 117.571C463.488 120.4 461.741 121.71 459.453 121.71C458.58 121.71 457.914 121.544 457.352 121.357V114.68C457.976 114.243 458.933 113.765 460.119 113.765ZM477.104 122.48V120.754C476.293 121.211 474.774 121.606 473.297 121.606C470.989 121.606 469.491 120.546 469.345 118.341H477.333V117.426C477.333 113.994 475.606 111.997 472.59 111.997C469.512 111.997 467.369 114.139 467.369 117.738C467.369 121.482 469.741 123.458 473.11 123.458C474.629 123.458 476.313 123.062 477.104 122.48ZM472.486 113.682C474.421 113.682 475.377 114.93 475.419 117.01H469.325C469.429 114.909 470.656 113.682 472.486 113.682ZM479.813 112.226V123.25H481.768V114.888C482.538 114.43 483.786 113.89 485.075 113.89C486.698 113.89 487.675 114.805 487.675 116.614V123.25H489.63V116.178C489.63 113.474 488.237 112.018 485.803 112.018C483.994 112.018 482.579 112.85 481.643 113.619V112.226H479.813ZM497.397 117.28L496.045 116.885C494.631 116.469 493.716 116.136 493.716 115.138C493.716 114.202 494.652 113.744 495.816 113.744C497.376 113.744 499.061 114.368 499.852 114.971V113.016C499.082 112.496 497.501 111.997 495.92 111.997C493.362 111.997 491.823 113.37 491.823 115.2C491.823 117.114 493.216 117.925 494.86 118.341L496.253 118.757C497.668 119.131 498.5 119.443 498.5 120.4C498.5 121.44 497.688 121.814 496.378 121.814C494.672 121.814 492.946 121.149 491.927 120.504V122.418C492.759 122.938 494.527 123.541 496.295 123.541C498.77 123.541 500.351 122.438 500.351 120.358C500.351 118.653 499.165 117.779 497.397 117.28ZM511.737 122.48V120.754C510.925 121.211 509.407 121.606 507.93 121.606C505.621 121.606 504.124 120.546 503.978 118.341H511.965V117.426C511.965 113.994 510.239 111.997 507.223 111.997C504.145 111.997 502.002 114.139 502.002 117.738C502.002 121.482 504.373 123.458 507.743 123.458C509.261 123.458 510.946 123.062 511.737 122.48ZM507.119 113.682C509.053 113.682 510.01 114.93 510.052 117.01H503.957C504.061 114.909 505.289 113.682 507.119 113.682ZM516.338 107.525H513.967L516.567 110.77H518.377L516.338 107.525ZM522.467 120.878H520.366L519.181 125.704H520.782L522.467 120.878ZM193.529 142.594C194.423 142.386 195.338 141.699 195.338 140.472V136.853C195.338 136.208 195.754 135.979 196.212 135.979C196.649 135.979 197.002 136.125 197.335 136.312V134.669C197.002 134.502 196.399 134.294 195.713 134.294C194.486 134.294 193.508 135.002 193.508 136.333V140.347C193.508 141.346 192.801 141.574 191.969 141.762L191.511 141.866V143.322L191.969 143.426C192.801 143.613 193.508 143.842 193.508 144.84V148.875C193.508 150.186 194.486 150.893 195.713 150.914C196.399 150.893 197.002 150.685 197.335 150.518V148.875C197.002 149.062 196.649 149.208 196.212 149.229C195.754 149.208 195.338 148.979 195.338 148.355V144.715C195.338 143.488 194.423 142.802 193.529 142.594ZM195.463 194.594C194.569 194.802 193.654 195.488 193.654 196.715V200.355C193.654 200.979 193.238 201.208 192.78 201.229C192.343 201.208 191.99 201.062 191.657 200.875V202.518C191.99 202.685 192.593 202.893 193.279 202.914C194.506 202.893 195.484 202.186 195.484 200.875V196.84C195.484 195.842 196.191 195.613 197.023 195.426L197.481 195.322V193.866L197.023 193.762C196.191 193.574 195.484 193.346 195.484 192.347V188.333C195.484 187.002 194.506 186.294 193.279 186.294C192.593 186.294 191.99 186.502 191.657 186.669V188.312C191.99 188.125 192.343 187.979 192.78 187.979C193.238 187.979 193.654 188.208 193.654 188.853V192.472C193.654 193.699 194.569 194.386 195.463 194.594ZM200.9 198.878H198.799L197.614 203.704H199.215L200.9 198.878ZM193.529 220.594C194.423 220.386 195.338 219.699 195.338 218.472V214.853C195.338 214.208 195.754 213.979 196.212 213.979C196.649 213.979 197.002 214.125 197.335 214.312V212.669C197.002 212.502 196.399 212.294 195.713 212.294C194.486 212.294 193.508 213.002 193.508 214.333V218.347C193.508 219.346 192.801 219.574 191.969 219.762L191.511 219.866V221.322L191.969 221.426C192.801 221.613 193.508 221.842 193.508 222.84V226.875C193.508 228.186 194.486 228.893 195.713 228.914C196.399 228.893 197.002 228.685 197.335 228.518V226.875C197.002 227.062 196.649 227.208 196.212 227.229C195.754 227.208 195.338 226.979 195.338 226.355V222.715C195.338 221.488 194.423 220.802 193.529 220.594ZM197.918 243.89C199.54 243.89 200.518 244.805 200.518 246.614V253.25H202.473V246.178C202.473 243.474 201.079 242.018 198.646 242.018C196.919 242.018 195.546 242.766 194.61 243.515V238.627L192.655 238.939V253.25H194.61V244.888C195.38 244.43 196.628 243.89 197.918 243.89ZM214.524 252.48V250.754C213.713 251.211 212.195 251.606 210.718 251.606C208.409 251.606 206.911 250.546 206.766 248.341H214.753V247.426C214.753 243.994 213.027 241.997 210.011 241.997C206.932 241.997 204.79 244.139 204.79 247.738C204.79 251.482 207.161 253.458 210.531 253.458C212.049 253.458 213.734 253.062 214.524 252.48ZM209.907 243.682C211.841 243.682 212.798 244.93 212.839 247.01H206.745C206.849 244.909 208.076 243.682 209.907 243.682ZM223.744 246.552V247.55C223.245 247.363 222.392 247.155 221.31 247.155C218.481 247.155 216.651 248.57 216.651 250.504C216.651 252.334 217.92 253.458 220.145 253.458C221.789 253.458 223.078 252.646 223.869 251.794V253.25H225.699V246.531C225.699 243.245 223.619 242.018 221.227 242.018C219.189 242.018 217.504 242.974 216.776 243.723V245.741C217.712 244.784 219.251 243.952 220.977 243.952C222.454 243.952 223.744 244.68 223.744 246.552ZM218.481 250.421C218.481 249.277 219.605 248.507 221.789 248.507C222.496 248.507 223.245 248.632 223.744 248.778V250.65C222.891 251.357 221.705 251.939 220.457 251.939C219.355 251.939 218.481 251.502 218.481 250.421ZM236.265 253.25H238.096V238.627L236.14 238.939V242.288C235.516 242.142 234.83 242.018 233.936 242.018C230.795 242.018 227.987 243.973 227.987 248.029C227.987 251.69 230.254 253.458 232.833 253.458C234.372 253.458 235.537 252.875 236.265 252.272V253.25ZM234.04 243.765C234.913 243.765 235.579 243.931 236.14 244.118V250.816C235.537 251.232 234.518 251.71 233.353 251.71C231.315 251.71 229.984 250.338 229.984 247.904C229.984 245.075 231.752 243.765 234.04 243.765ZM250.213 252.48V250.754C249.402 251.211 247.884 251.606 246.407 251.606C244.098 251.606 242.601 250.546 242.455 248.341H250.442V247.426C250.442 243.994 248.716 241.997 245.7 241.997C242.621 241.997 240.479 244.139 240.479 247.738C240.479 251.482 242.85 253.458 246.22 253.458C247.738 253.458 249.423 253.062 250.213 252.48ZM245.596 243.682C247.53 243.682 248.487 244.93 248.529 247.01H242.434C242.538 244.909 243.765 243.682 245.596 243.682ZM252.922 242.226V253.25H254.878V245.054C255.626 244.493 256.77 243.89 257.852 243.89C258.642 243.89 259.287 244.118 259.766 244.41V242.35C259.37 242.142 258.913 242.018 258.434 242.018C256.958 242.018 255.606 242.954 254.753 243.806V242.226H252.922ZM266.505 247.28L265.153 246.885C263.739 246.469 262.823 246.136 262.823 245.138C262.823 244.202 263.759 243.744 264.924 243.744C266.484 243.744 268.169 244.368 268.959 244.971V243.016C268.19 242.496 266.609 241.997 265.028 241.997C262.47 241.997 260.931 243.37 260.931 245.2C260.931 247.114 262.324 247.925 263.967 248.341L265.361 248.757C266.775 249.131 267.607 249.443 267.607 250.4C267.607 251.44 266.796 251.814 265.486 251.814C263.78 251.814 262.054 251.149 261.035 250.504V252.418C261.867 252.938 263.635 253.541 265.403 253.541C267.878 253.541 269.459 252.438 269.459 250.358C269.459 248.653 268.273 247.779 266.505 247.28ZM272.129 246.157C272.878 246.157 273.502 245.554 273.502 244.805C273.502 244.056 272.878 243.432 272.129 243.432C271.401 243.432 270.777 244.056 270.777 244.805C270.777 245.554 271.401 246.157 272.129 246.157ZM272.129 253.458C272.878 253.458 273.502 252.854 273.502 252.106C273.502 251.357 272.878 250.733 272.129 250.733C271.401 250.733 270.777 251.357 270.777 252.106C270.777 252.854 271.401 253.458 272.129 253.458ZM285.485 243.89C287.107 243.89 288.085 244.805 288.085 246.614V253.25H290.04V246.178C290.04 243.474 288.646 242.018 286.213 242.018C284.486 242.018 283.114 242.766 282.178 243.515V238.627L280.222 238.939V253.25H282.178V244.888C282.947 244.43 284.195 243.89 285.485 243.89ZM302.091 252.48V250.754C301.28 251.211 299.762 251.606 298.285 251.606C295.976 251.606 294.479 250.546 294.333 248.341H302.32V247.426C302.32 243.994 300.594 241.997 297.578 241.997C294.499 241.997 292.357 244.139 292.357 247.738C292.357 251.482 294.728 253.458 298.098 253.458C299.616 253.458 301.301 253.062 302.091 252.48ZM297.474 243.682C299.408 243.682 300.365 244.93 300.407 247.01H294.312C294.416 244.909 295.643 243.682 297.474 243.682ZM311.311 246.552V247.55C310.812 247.363 309.959 247.155 308.877 247.155C306.048 247.155 304.218 248.57 304.218 250.504C304.218 252.334 305.487 253.458 307.712 253.458C309.356 253.458 310.645 252.646 311.436 251.794V253.25H313.266V246.531C313.266 243.245 311.186 242.018 308.794 242.018C306.756 242.018 305.071 242.974 304.343 243.723V245.741C305.279 244.784 306.818 243.952 308.544 243.952C310.021 243.952 311.311 244.68 311.311 246.552ZM306.048 250.421C306.048 249.277 307.172 248.507 309.356 248.507C310.063 248.507 310.812 248.632 311.311 248.778V250.65C310.458 251.357 309.272 251.939 308.024 251.939C306.922 251.939 306.048 251.502 306.048 250.421ZM323.832 253.25H325.663V238.627L323.707 238.939V242.288C323.083 242.142 322.397 242.018 321.503 242.018C318.362 242.018 315.554 243.973 315.554 248.029C315.554 251.69 317.821 253.458 320.4 253.458C321.939 253.458 323.104 252.875 323.832 252.272V253.25ZM321.607 243.765C322.48 243.765 323.146 243.931 323.707 244.118V250.816C323.104 251.232 322.085 251.71 320.92 251.71C318.882 251.71 317.551 250.338 317.551 247.904C317.551 245.075 319.319 243.765 321.607 243.765ZM337.78 252.48V250.754C336.969 251.211 335.451 251.606 333.974 251.606C331.665 251.606 330.168 250.546 330.022 248.341H338.009V247.426C338.009 243.994 336.283 241.997 333.267 241.997C330.188 241.997 328.046 244.139 328.046 247.738C328.046 251.482 330.417 253.458 333.787 253.458C335.305 253.458 336.99 253.062 337.78 252.48ZM333.163 243.682C335.097 243.682 336.054 244.93 336.096 247.01H330.001C330.105 244.909 331.332 243.682 333.163 243.682ZM340.49 242.226V253.25H342.445V245.054C343.194 244.493 344.338 243.89 345.419 243.89C346.21 243.89 346.854 244.118 347.333 244.41V242.35C346.938 242.142 346.48 242.018 346.002 242.018C344.525 242.018 343.173 242.954 342.32 243.806V242.226H340.49ZM354.072 247.28L352.72 246.885C351.306 246.469 350.391 246.136 350.391 245.138C350.391 244.202 351.327 243.744 352.491 243.744C354.051 243.744 355.736 244.368 356.527 244.971V243.016C355.757 242.496 354.176 241.997 352.595 241.997C350.037 241.997 348.498 243.37 348.498 245.2C348.498 247.114 349.891 247.925 351.535 248.341L352.928 248.757C354.343 249.131 355.175 249.443 355.175 250.4C355.175 251.44 354.363 251.814 353.053 251.814C351.347 251.814 349.621 251.149 348.602 250.504V252.418C349.434 252.938 351.202 253.541 352.97 253.541C355.445 253.541 357.026 252.438 357.026 250.358C357.026 248.653 355.84 247.779 354.072 247.28ZM360.841 250.878H358.74L357.554 255.704H359.156L360.841 250.878ZM195.463 272.594C194.569 272.802 193.654 273.488 193.654 274.715V278.355C193.654 278.979 193.238 279.208 192.78 279.229C192.343 279.208 191.99 279.062 191.657 278.875V280.518C191.99 280.685 192.593 280.893 193.279 280.914C194.506 280.893 195.484 280.186 195.484 278.875V274.84C195.484 273.842 196.191 273.613 197.023 273.426L197.481 273.322V271.866L197.023 271.762C196.191 271.574 195.484 271.346 195.484 270.347V266.333C195.484 265.002 194.506 264.294 193.279 264.294C192.593 264.294 191.99 264.502 191.657 264.669V266.312C191.99 266.125 192.343 265.979 192.78 265.979C193.238 265.979 193.654 266.208 193.654 266.853V270.472C193.654 271.699 194.569 272.386 195.463 272.594ZM198.113 264.294C199.215 265.75 201.358 268.538 201.358 272.594C201.358 276.67 199.215 279.458 198.113 280.914H199.59C201.046 279.478 203.209 276.587 203.209 272.594C203.209 268.621 201.046 265.709 199.59 264.294H198.113ZM193.529 350.594C194.423 350.386 195.338 349.699 195.338 348.472V344.853C195.338 344.208 195.754 343.979 196.212 343.979C196.649 343.979 197.002 344.125 197.335 344.312V342.669C197.002 342.502 196.399 342.294 195.713 342.294C194.486 342.294 193.508 343.002 193.508 344.333V348.347C193.508 349.346 192.801 349.574 191.969 349.762L191.511 349.866V351.322L191.969 351.426C192.801 351.613 193.508 351.842 193.508 352.84V356.875C193.508 358.186 194.486 358.893 195.713 358.914C196.399 358.893 197.002 358.685 197.335 358.518V356.875C197.002 357.062 196.649 357.208 196.212 357.229C195.754 357.208 195.338 356.979 195.338 356.355V352.715C195.338 351.488 194.423 350.802 193.529 350.594Z" fill="#D2C5A2"/>
<path d="M201.37 164.85C200.538 164.288 199.353 163.997 198.084 163.997C194.714 163.997 192.135 166.285 192.135 169.738C192.135 173.086 194.694 175.458 198.063 175.458C199.353 175.458 200.538 175.146 201.37 174.584V172.629C200.538 173.232 199.374 173.606 198.126 173.606C195.796 173.606 194.09 172.067 194.09 169.738C194.09 167.346 195.796 165.848 198.146 165.848C199.374 165.848 200.538 166.202 201.37 166.805V164.85ZM210.175 168.552V169.55C209.676 169.363 208.823 169.155 207.741 169.155C204.913 169.155 203.082 170.57 203.082 172.504C203.082 174.334 204.351 175.458 206.577 175.458C208.22 175.458 209.509 174.646 210.3 173.794V175.25H212.13V168.531C212.13 165.245 210.05 164.018 207.658 164.018C205.62 164.018 203.935 164.974 203.207 165.723V167.741C204.143 166.784 205.682 165.952 207.409 165.952C208.885 165.952 210.175 166.68 210.175 168.552ZM204.913 172.421C204.913 171.277 206.036 170.507 208.22 170.507C208.927 170.507 209.676 170.632 210.175 170.778V172.65C209.322 173.357 208.137 173.939 206.889 173.939C205.786 173.939 204.913 173.502 204.913 172.421ZM214.938 160.939V175.25H216.893V160.627L214.938 160.939ZM229.007 174.48V172.754C228.196 173.211 226.677 173.606 225.201 173.606C222.892 173.606 221.394 172.546 221.249 170.341H229.236V169.426C229.236 165.994 227.509 163.997 224.494 163.997C221.415 163.997 219.273 166.139 219.273 169.738C219.273 173.482 221.644 175.458 225.014 175.458C226.532 175.458 228.217 175.062 229.007 174.48ZM224.39 165.682C226.324 165.682 227.281 166.93 227.322 169.01H221.228C221.332 166.909 222.559 165.682 224.39 165.682ZM231.716 164.226V175.25H233.671V166.888C234.441 166.43 235.689 165.89 236.979 165.89C238.601 165.89 239.579 166.805 239.579 168.614V175.25H241.534V168.178C241.534 165.474 240.14 164.018 237.707 164.018C235.897 164.018 234.483 164.85 233.547 165.619V164.226H231.716ZM252.129 175.25H253.96V160.627L252.004 160.939V164.288C251.38 164.142 250.694 164.018 249.8 164.018C246.659 164.018 243.851 165.973 243.851 170.029C243.851 173.69 246.118 175.458 248.697 175.458C250.236 175.458 251.401 174.875 252.129 174.272V175.25ZM249.904 165.765C250.777 165.765 251.443 165.931 252.004 166.118V172.816C251.401 173.232 250.382 173.71 249.217 173.71C247.179 173.71 245.848 172.338 245.848 169.904C245.848 167.075 247.616 165.765 249.904 165.765ZM266.077 174.48V172.754C265.266 173.211 263.748 173.606 262.271 173.606C259.962 173.606 258.465 172.546 258.319 170.341H266.306V169.426C266.306 165.994 264.58 163.997 261.564 163.997C258.485 163.997 256.343 166.139 256.343 169.738C256.343 173.482 258.714 175.458 262.084 175.458C263.602 175.458 265.287 175.062 266.077 174.48ZM261.46 165.682C263.394 165.682 264.351 166.93 264.393 169.01H258.298C258.402 166.909 259.629 165.682 261.46 165.682ZM268.786 164.226V175.25H270.742V167.054C271.49 166.493 272.634 165.89 273.716 165.89C274.506 165.89 275.151 166.118 275.63 166.41V164.35C275.234 164.142 274.777 164.018 274.298 164.018C272.822 164.018 271.47 164.954 270.617 165.806V164.226H268.786ZM285.572 171.651C285.572 172.795 284.72 173.565 282.702 173.565C280.705 173.565 278.48 172.712 277.148 171.776V173.918C278.272 174.688 280.289 175.458 282.619 175.458C285.51 175.458 287.673 174.106 287.673 171.547C287.673 168.906 285.864 168.136 283.472 167.408L281.912 166.93C280.248 166.389 279.041 165.973 279.041 164.6C279.041 163.456 280.04 162.666 281.87 162.666C283.784 162.666 285.739 163.498 286.862 164.267V162.042C285.988 161.438 284.283 160.71 281.932 160.71C279.166 160.71 276.878 162.125 276.878 164.766C276.878 167.325 278.854 168.157 280.913 168.76L282.785 169.322C284.553 169.883 285.572 170.362 285.572 171.651ZM299.146 174.48V172.754C298.335 173.211 296.817 173.606 295.34 173.606C293.031 173.606 291.533 172.546 291.388 170.341H299.375V169.426C299.375 165.994 297.649 163.997 294.633 163.997C291.554 163.997 289.412 166.139 289.412 169.738C289.412 173.482 291.783 175.458 295.153 175.458C296.671 175.458 298.356 175.062 299.146 174.48ZM294.529 165.682C296.463 165.682 297.42 166.93 297.461 169.01H291.367C291.471 166.909 292.698 165.682 294.529 165.682ZM301.855 160.939V175.25H303.81V160.627L301.855 160.939ZM315.924 174.48V172.754C315.113 173.211 313.595 173.606 312.118 173.606C309.809 173.606 308.311 172.546 308.166 170.341H316.153V169.426C316.153 165.994 314.427 163.997 311.411 163.997C308.332 163.997 306.19 166.139 306.19 169.738C306.19 173.482 308.561 175.458 311.931 175.458C313.449 175.458 315.134 175.062 315.924 174.48ZM311.307 165.682C313.241 165.682 314.198 166.93 314.239 169.01H308.145C308.249 166.909 309.476 165.682 311.307 165.682ZM327.348 164.85C326.516 164.288 325.331 163.997 324.062 163.997C320.692 163.997 318.113 166.285 318.113 169.738C318.113 173.086 320.672 175.458 324.041 175.458C325.331 175.458 326.516 175.146 327.348 174.584V172.629C326.516 173.232 325.352 173.606 324.104 173.606C321.774 173.606 320.068 172.067 320.068 169.738C320.068 167.346 321.774 165.848 324.124 165.848C325.352 165.848 326.516 166.202 327.348 166.805V164.85ZM336.215 174.771V173.086C335.716 173.398 334.905 173.69 334.031 173.69C332.908 173.69 332.243 173.19 332.243 171.922V165.952H336.132V164.226H332.243V162.146H331.785L328.603 165.453V165.952H330.287V172.13C330.287 174.792 331.827 175.458 333.553 175.458C334.78 175.458 335.675 175.125 336.215 174.771ZM347.551 174.48V172.754C346.74 173.211 345.221 173.606 343.744 173.606C341.436 173.606 339.938 172.546 339.792 170.341H347.78V169.426C347.78 165.994 346.053 163.997 343.037 163.997C339.959 163.997 337.816 166.139 337.816 169.738C337.816 173.482 340.188 175.458 343.557 175.458C345.076 175.458 346.76 175.062 347.551 174.48ZM342.933 165.682C344.868 165.682 345.824 166.93 345.866 169.01H339.772C339.876 166.909 341.103 165.682 342.933 165.682ZM358.018 175.25H359.849V160.627L357.893 160.939V164.288C357.269 164.142 356.583 164.018 355.689 164.018C352.548 164.018 349.74 165.973 349.74 170.029C349.74 173.69 352.007 175.458 354.586 175.458C356.125 175.458 357.29 174.875 358.018 174.272V175.25ZM355.793 165.765C356.666 165.765 357.332 165.931 357.893 166.118V172.816C357.29 173.232 356.271 173.71 355.106 173.71C353.068 173.71 351.737 172.338 351.737 169.904C351.737 167.075 353.505 165.765 355.793 165.765ZM363.002 160.939V175.25H365.061V169.363H372.216V167.429H365.061V162.874H373.256V160.939H363.002ZM375.386 160.939V175.25H377.342V160.627L375.386 160.939ZM386.751 168.552V169.55C386.252 169.363 385.399 169.155 384.318 169.155C381.489 169.155 379.659 170.57 379.659 172.504C379.659 174.334 380.927 175.458 383.153 175.458C384.796 175.458 386.086 174.646 386.876 173.794V175.25H388.707V168.531C388.707 165.245 386.627 164.018 384.235 164.018C382.196 164.018 380.511 164.974 379.783 165.723V167.741C380.719 166.784 382.259 165.952 383.985 165.952C385.462 165.952 386.751 166.68 386.751 168.552ZM381.489 172.421C381.489 171.277 382.612 170.507 384.796 170.507C385.503 170.507 386.252 170.632 386.751 170.778V172.65C385.899 173.357 384.713 173.939 383.465 173.939C382.363 173.939 381.489 173.502 381.489 172.421ZM401.02 173.523V164.933C400.001 164.517 398.649 164.018 396.839 164.018C393.678 164.018 390.994 165.931 390.994 169.696C390.994 172.691 392.929 174.459 395.695 174.459C397.193 174.459 398.337 173.856 399.065 173.294V173.773C399.065 175.79 397.879 176.914 395.612 176.914C393.969 176.914 392.596 176.29 391.598 175.603V177.6C392.513 178.162 394.01 178.744 395.799 178.744C398.67 178.744 401.02 177.246 401.02 173.523ZM392.991 169.467C392.991 167.054 394.593 165.765 396.818 165.765C397.754 165.765 398.462 165.952 399.065 166.181V171.734C398.42 172.192 397.38 172.691 396.174 172.691C394.322 172.691 392.991 171.63 392.991 169.467ZM404.404 168.157C405.153 168.157 405.777 167.554 405.777 166.805C405.777 166.056 405.153 165.432 404.404 165.432C403.676 165.432 403.052 166.056 403.052 166.805C403.052 167.554 403.676 168.157 404.404 168.157ZM404.404 175.458C405.153 175.458 405.777 174.854 405.777 174.106C405.777 173.357 405.153 172.733 404.404 172.733C403.676 172.733 403.052 173.357 403.052 174.106C403.052 174.854 403.676 175.458 404.404 175.458ZM412.227 160.939L411.52 162.749H414.14V175.25H416.137V160.939H412.227ZM421.006 172.878H418.905L417.72 177.704H419.321L421.006 172.878ZM427.61 164.226V175.25H429.565V166.909C430.314 166.451 431.458 165.89 432.664 165.89C434.141 165.89 435.056 166.784 435.056 168.531V175.25H437.011V167.99C437.011 167.616 436.991 167.242 436.928 166.909C437.719 166.43 438.883 165.89 440.111 165.89C441.608 165.89 442.523 166.784 442.523 168.531V175.25H444.458V168.094C444.458 165.453 443.147 164.018 440.859 164.018C438.946 164.018 437.531 164.954 436.575 165.806C436.013 164.642 434.931 164.018 433.392 164.018C431.666 164.018 430.335 164.85 429.44 165.619V164.226H427.61ZM452.493 175.458C455.8 175.458 458.213 172.982 458.213 169.738C458.213 166.451 455.8 164.018 452.493 164.018C449.185 164.018 446.773 166.451 446.773 169.738C446.773 172.982 449.185 175.458 452.493 175.458ZM452.493 173.627C450.329 173.627 448.707 171.963 448.707 169.738C448.707 167.47 450.329 165.848 452.493 165.848C454.677 165.848 456.278 167.47 456.278 169.738C456.278 171.984 454.677 173.627 452.493 173.627ZM460.597 164.226V175.25H462.552V166.888C463.322 166.43 464.57 165.89 465.86 165.89C467.482 165.89 468.46 166.805 468.46 168.614V175.25H470.415V168.178C470.415 165.474 469.021 164.018 466.588 164.018C464.778 164.018 463.364 164.85 462.428 165.619V164.226H460.597ZM479.825 174.771V173.086C479.326 173.398 478.514 173.69 477.641 173.69C476.518 173.69 475.852 173.19 475.852 171.922V165.952H479.742V164.226H475.852V162.146H475.394L472.212 165.453V165.952H473.897V172.13C473.897 174.792 475.436 175.458 477.162 175.458C478.39 175.458 479.284 175.125 479.825 174.771ZM487.208 165.89C488.83 165.89 489.808 166.805 489.808 168.614V175.25H491.763V168.178C491.763 165.474 490.37 164.018 487.936 164.018C486.21 164.018 484.837 164.766 483.901 165.515V160.627L481.946 160.939V175.25H483.901V166.888C484.67 166.43 485.918 165.89 487.208 165.89ZM495.1 168.157C495.848 168.157 496.472 167.554 496.472 166.805C496.472 166.056 495.848 165.432 495.1 165.432C494.372 165.432 493.748 166.056 493.748 166.805C493.748 167.554 494.372 168.157 495.1 168.157ZM495.1 175.458C495.848 175.458 496.472 174.854 496.472 174.106C496.472 173.357 495.848 172.733 495.1 172.733C494.372 172.733 493.748 173.357 493.748 174.106C493.748 174.854 494.372 175.458 495.1 175.458ZM502.34 171.963V174.022C503.317 174.73 504.981 175.458 507.103 175.458C510.743 175.458 512.657 173.44 512.657 171.048C512.657 168.552 510.826 166.909 507.956 166.909H506.708L512.074 162.811V160.939H502.735V162.77H509.349L504.253 167.117V168.406H507.353C509.433 168.406 510.618 169.384 510.618 170.944C510.618 172.483 509.37 173.627 506.895 173.627C504.919 173.627 503.193 172.712 502.34 171.963ZM516.556 172.878H514.455L513.27 177.704H514.871L516.556 172.878ZM524.803 178.744C526.259 178.744 527.445 177.974 528.277 176.04L533.476 164.226H531.313L527.819 172.754L524.221 164.226H522.037L526.904 174.938L526.529 175.749C526.176 176.498 525.531 176.955 524.699 176.955C523.555 176.955 522.661 176.29 522.265 175.874V177.808C522.702 178.203 523.617 178.744 524.803 178.744ZM544.176 174.48V172.754C543.364 173.211 541.846 173.606 540.369 173.606C538.06 173.606 536.563 172.546 536.417 170.341H544.404V169.426C544.404 165.994 542.678 163.997 539.662 163.997C536.584 163.997 534.441 166.139 534.441 169.738C534.441 173.482 536.812 175.458 540.182 175.458C541.7 175.458 543.385 175.062 544.176 174.48ZM539.558 165.682C541.492 165.682 542.449 166.93 542.491 169.01H536.396C536.5 166.909 537.728 165.682 539.558 165.682ZM553.395 168.552V169.55C552.896 169.363 552.043 169.155 550.962 169.155C548.133 169.155 546.302 170.57 546.302 172.504C546.302 174.334 547.571 175.458 549.797 175.458C551.44 175.458 552.73 174.646 553.52 173.794V175.25H555.35V168.531C555.35 165.245 553.27 164.018 550.878 164.018C548.84 164.018 547.155 164.974 546.427 165.723V167.741C547.363 166.784 548.902 165.952 550.629 165.952C552.106 165.952 553.395 166.68 553.395 168.552ZM548.133 172.421C548.133 171.277 549.256 170.507 551.44 170.507C552.147 170.507 552.896 170.632 553.395 170.778V172.65C552.542 173.357 551.357 173.939 550.109 173.939C549.006 173.939 548.133 173.502 548.133 172.421ZM558.158 164.226V175.25H560.113V167.054C560.862 166.493 562.006 165.89 563.088 165.89C563.878 165.89 564.523 166.118 565.001 166.41V164.35C564.606 164.142 564.149 164.018 563.67 164.018C562.193 164.018 560.841 164.954 559.989 165.806V164.226H558.158ZM567.31 168.157C568.059 168.157 568.683 167.554 568.683 166.805C568.683 166.056 568.059 165.432 567.31 165.432C566.582 165.432 565.958 166.056 565.958 166.805C565.958 167.554 566.582 168.157 567.31 168.157ZM567.31 175.458C568.059 175.458 568.683 174.854 568.683 174.106C568.683 173.357 568.059 172.733 567.31 172.733C566.582 172.733 565.958 173.357 565.958 174.106C565.958 174.854 566.582 175.458 567.31 175.458ZM580.133 175.25V173.419H572.645L576.992 169.384C578.573 167.928 579.966 166.618 579.966 164.579C579.966 162.208 578.198 160.731 575.598 160.731C573.185 160.731 571.313 161.979 570.523 162.645V164.766C571.521 163.851 573.352 162.582 575.432 162.582C577.033 162.582 577.907 163.435 577.907 164.683C577.907 165.931 577.075 166.826 575.598 168.261L570.024 173.731V175.25H580.133ZM588.357 175.458C591.54 175.458 594.202 173.19 594.202 168.094C594.202 163.019 591.54 160.731 588.357 160.731C585.196 160.731 582.533 163.019 582.533 168.094C582.533 173.19 585.196 175.458 588.357 175.458ZM588.357 173.523C586.173 173.523 584.634 171.734 584.634 168.094C584.634 164.475 586.173 162.666 588.357 162.666C590.541 162.666 592.101 164.475 592.101 168.094C592.101 171.734 590.541 173.523 588.357 173.523ZM606.498 175.25V173.419H599.01L603.357 169.384C604.938 167.928 606.332 166.618 606.332 164.579C606.332 162.208 604.564 160.731 601.964 160.731C599.551 160.731 597.679 161.979 596.889 162.645V164.766C597.887 163.851 599.717 162.582 601.797 162.582C603.399 162.582 604.273 163.435 604.273 164.683C604.273 165.931 603.441 166.826 601.964 168.261L596.389 173.731V175.25H606.498ZM618.28 175.25V173.419H610.792L615.139 169.384C616.72 167.928 618.113 166.618 618.113 164.579C618.113 162.208 616.345 160.731 613.745 160.731C611.332 160.731 609.46 161.979 608.67 162.645V164.766C609.668 163.851 611.499 162.582 613.579 162.582C615.18 162.582 616.054 163.435 616.054 164.683C616.054 165.931 615.222 166.826 613.745 168.261L608.171 173.731V175.25H618.28ZM193.154 305.458C193.903 305.458 194.527 304.854 194.527 304.106C194.527 303.357 193.903 302.733 193.154 302.733C192.426 302.733 191.802 303.357 191.802 304.106C191.802 304.854 192.426 305.458 193.154 305.458ZM203.169 304.771V303.086C202.669 303.398 201.858 303.69 200.985 303.69C199.861 303.69 199.196 303.19 199.196 301.922V295.952H203.085V294.226H199.196V292.146H198.738L195.556 295.453V295.952H197.241V302.13C197.241 304.792 198.78 305.458 200.506 305.458C201.733 305.458 202.628 305.125 203.169 304.771ZM210.552 295.89C212.174 295.89 213.152 296.805 213.152 298.614V305.25H215.107V298.178C215.107 295.474 213.714 294.018 211.28 294.018C209.554 294.018 208.181 294.766 207.245 295.515V290.627L205.29 290.939V305.25H207.245V296.888C208.014 296.43 209.262 295.89 210.552 295.89ZM227.159 304.48V302.754C226.347 303.211 224.829 303.606 223.352 303.606C221.043 303.606 219.546 302.546 219.4 300.341H227.387V299.426C227.387 295.994 225.661 293.997 222.645 293.997C219.567 293.997 217.424 296.139 217.424 299.738C217.424 303.482 219.795 305.458 223.165 305.458C224.683 305.458 226.368 305.062 227.159 304.48ZM222.541 295.682C224.475 295.682 225.432 296.93 225.474 299.01H219.379C219.483 296.909 220.711 295.682 222.541 295.682ZM229.868 294.226V305.25H231.823V296.888C232.592 296.43 233.84 295.89 235.13 295.89C236.752 295.89 237.73 296.805 237.73 298.614V305.25H239.685V298.178C239.685 295.474 238.292 294.018 235.858 294.018C234.048 294.018 232.634 294.85 231.698 295.619V294.226H229.868ZM197.127 316.294H195.63C194.174 317.709 192.031 320.621 192.031 324.594C192.031 328.587 194.174 331.478 195.63 332.914H197.127C196.025 331.458 193.862 328.67 193.862 324.594C193.862 320.538 196.025 317.75 197.127 316.294ZM203.343 316.294H201.845C200.389 317.709 198.247 320.621 198.247 324.594C198.247 328.587 200.389 331.478 201.845 332.914H203.343C202.24 331.458 200.077 328.67 200.077 324.594C200.077 320.538 202.24 317.75 203.343 316.294ZM205.086 320.226V331.25H207.042V323.054C207.79 322.493 208.934 321.89 210.016 321.89C210.806 321.89 211.451 322.118 211.93 322.41V320.35C211.534 320.142 211.077 320.018 210.598 320.018C209.122 320.018 207.77 320.954 206.917 321.806V320.226H205.086ZM222.954 330.48V328.754C222.143 329.211 220.624 329.606 219.148 329.606C216.839 329.606 215.341 328.546 215.196 326.341H223.183V325.426C223.183 321.994 221.456 319.997 218.44 319.997C215.362 319.997 213.22 322.139 213.22 325.738C213.22 329.482 215.591 331.458 218.96 331.458C220.479 331.458 222.164 331.062 222.954 330.48ZM218.336 321.682C220.271 321.682 221.228 322.93 221.269 325.01H215.175C215.279 322.909 216.506 321.682 218.336 321.682ZM230.593 325.28L229.241 324.885C227.826 324.469 226.911 324.136 226.911 323.138C226.911 322.202 227.847 321.744 229.012 321.744C230.572 321.744 232.257 322.368 233.047 322.971V321.016C232.277 320.496 230.697 319.997 229.116 319.997C226.557 319.997 225.018 321.37 225.018 323.2C225.018 325.114 226.412 325.925 228.055 326.341L229.449 326.757C230.863 327.131 231.695 327.443 231.695 328.4C231.695 329.44 230.884 329.814 229.573 329.814C227.868 329.814 226.141 329.149 225.122 328.504V330.418C225.954 330.938 227.722 331.541 229.49 331.541C231.965 331.541 233.546 330.438 233.546 328.358C233.546 326.653 232.361 325.779 230.593 325.28ZM239.857 331.458C243.018 331.458 245.826 329.502 245.826 325.446C245.826 321.786 243.559 320.018 240.98 320.018C239.441 320.018 238.276 320.6 237.548 321.203V320.226H235.718V334.536H237.673V331.187C238.297 331.354 238.962 331.458 239.857 331.458ZM240.439 321.765C242.457 321.765 243.809 323.138 243.809 325.571C243.809 328.4 242.062 329.71 239.774 329.71C238.9 329.71 238.234 329.544 237.673 329.357V322.68C238.297 322.243 239.254 321.765 240.439 321.765ZM253.41 331.458C256.717 331.458 259.13 328.982 259.13 325.738C259.13 322.451 256.717 320.018 253.41 320.018C250.103 320.018 247.69 322.451 247.69 325.738C247.69 328.982 250.103 331.458 253.41 331.458ZM253.41 329.627C251.247 329.627 249.624 327.963 249.624 325.738C249.624 323.47 251.247 321.848 253.41 321.848C255.594 321.848 257.195 323.47 257.195 325.738C257.195 327.984 255.594 329.627 253.41 329.627ZM261.515 320.226V331.25H263.47V322.888C264.239 322.43 265.487 321.89 266.777 321.89C268.399 321.89 269.377 322.805 269.377 324.614V331.25H271.332V324.178C271.332 321.474 269.939 320.018 267.505 320.018C265.695 320.018 264.281 320.85 263.345 321.619V320.226H261.515ZM279.099 325.28L277.747 324.885C276.332 324.469 275.417 324.136 275.417 323.138C275.417 322.202 276.353 321.744 277.518 321.744C279.078 321.744 280.763 322.368 281.553 322.971V321.016C280.784 320.496 279.203 319.997 277.622 319.997C275.064 319.997 273.524 321.37 273.524 323.2C273.524 325.114 274.918 325.925 276.561 326.341L277.955 326.757C279.369 327.131 280.201 327.443 280.201 328.4C280.201 329.44 279.39 329.814 278.08 329.814C276.374 329.814 274.648 329.149 273.628 328.504V330.418C274.46 330.938 276.228 331.541 277.996 331.541C280.472 331.541 282.052 330.438 282.052 328.358C282.052 326.653 280.867 325.779 279.099 325.28ZM293.438 330.48V328.754C292.627 329.211 291.109 329.606 289.632 329.606C287.323 329.606 285.826 328.546 285.68 326.341H293.667V325.426C293.667 321.994 291.941 319.997 288.925 319.997C285.846 319.997 283.704 322.139 283.704 325.738C283.704 329.482 286.075 331.458 289.445 331.458C290.963 331.458 292.648 331.062 293.438 330.48ZM288.821 321.682C290.755 321.682 291.712 322.93 291.754 325.01H285.659C285.763 322.909 286.99 321.682 288.821 321.682ZM295.003 316.294C296.106 317.75 298.248 320.538 298.248 324.594C298.248 328.67 296.106 331.458 295.003 332.914H296.48C297.936 331.478 300.099 328.587 300.099 324.594C300.099 320.621 297.936 317.709 296.48 316.294H295.003ZM306.599 323.096H315.127V321.328H306.599V323.096ZM306.599 326.861H315.127V325.072H306.599V326.861ZM317.202 326.986V328.92L325.73 324.906V323.242L317.202 319.227V321.182L323.608 324.074L317.202 326.986Z" fill="#74EB95"/>
<path d="M140.405 108.939L139.843 110.166H142.401V123.25H143.753V108.939H140.405ZM144.748 149.25V148.002H136.761L141.545 143.488C143.229 141.928 144.623 140.576 144.623 138.538C144.623 136.125 142.876 134.731 140.401 134.731C137.946 134.731 136.137 136.083 135.429 136.728V138.205C136.324 137.352 138.071 135.979 140.317 135.979C142.189 135.979 143.229 137.082 143.229 138.6C143.229 140.139 142.231 141.138 140.609 142.718L134.972 148.21V149.25H144.748ZM135.009 172.608V174.022C135.924 174.73 137.484 175.458 139.501 175.458C142.954 175.458 144.805 173.461 144.805 171.11C144.805 168.698 143.1 166.909 140.105 166.909H138.524L144.265 162.208V160.939H135.445V162.187H142.434L136.777 167.117V167.99H139.793C142.122 167.99 143.412 169.28 143.412 171.048C143.412 172.816 142.039 174.21 139.397 174.21C137.401 174.21 135.841 173.336 135.009 172.608ZM140.949 186.939L132.733 196.902V197.942H140.949V201.25H142.322V197.942H145.192V196.715H142.322V186.939H140.949ZM134.335 196.715L140.949 188.728V196.715H134.335ZM136.071 212.939L135.301 219.824H139.087C141.416 219.824 143.434 220.698 143.434 223.131C143.434 225.357 141.603 226.21 139.648 226.21C137.568 226.21 135.717 225.211 134.677 224.358V225.794C135.509 226.438 137.298 227.458 139.731 227.458C142.331 227.458 144.807 226.189 144.807 223.131C144.807 219.866 142.311 218.597 139.357 218.597H136.736L137.235 214.187H143.891V212.939H136.071ZM144.678 248.466C144.678 245.47 142.494 243.765 139.873 243.765C137.96 243.765 136.524 244.576 135.651 245.533C136.753 242.371 139.998 239.854 141.62 238.939H139.624C137.544 240.125 133.924 243.536 133.924 247.654C133.924 251.523 136.254 253.458 139.374 253.458C142.452 253.458 144.678 251.544 144.678 248.466ZM135.318 247.696C135.318 247.384 135.36 247.093 135.422 246.781C136.4 245.741 137.793 244.93 139.644 244.93C141.641 244.93 143.305 246.157 143.305 248.486C143.305 250.837 141.683 252.21 139.416 252.21C137.128 252.21 135.318 250.816 135.318 247.696ZM138.179 279.25L145.293 266.083V264.939H135.288V266.187H143.816L136.64 279.25H138.179ZM139.288 305.458C142.762 305.458 144.696 303.586 144.696 301.277C144.696 299.592 143.677 298.157 141.764 297.491C143.22 296.93 144.031 295.765 144.031 294.434C144.031 292.312 142.242 290.731 139.288 290.731C136.376 290.731 134.588 292.291 134.588 294.392C134.588 295.723 135.378 296.909 136.855 297.491C134.9 298.157 133.901 299.592 133.901 301.298C133.901 303.586 135.836 305.458 139.288 305.458ZM135.919 294.454C135.919 292.915 137.25 291.917 139.288 291.917C141.348 291.917 142.679 292.936 142.679 294.454C142.679 296.014 141.348 297.034 139.288 297.034C137.25 297.034 135.919 295.994 135.919 294.454ZM135.253 301.214C135.253 299.363 136.792 298.053 139.288 298.053C141.784 298.053 143.324 299.342 143.324 301.194C143.324 302.982 141.784 304.272 139.288 304.272C136.792 304.272 135.253 302.982 135.253 301.214ZM144.532 322.534C144.532 318.666 142.202 316.731 139.103 316.731C136.004 316.731 133.799 318.645 133.799 321.723C133.799 324.718 135.983 326.424 138.604 326.424C140.517 326.424 141.953 325.613 142.826 324.677C141.724 327.838 138.5 330.334 136.857 331.25H138.833C140.933 330.064 144.532 326.653 144.532 322.534ZM135.172 321.702C135.172 319.352 136.794 317.979 139.061 317.979C141.349 317.979 143.159 319.373 143.159 322.493C143.159 322.784 143.138 323.075 143.076 323.366C142.119 324.427 140.705 325.259 138.833 325.259C136.836 325.259 135.172 324.032 135.172 321.702ZM125.922 342.939L125.36 344.166H127.919V357.25H129.271V342.939H125.922ZM138.455 357.458C141.512 357.458 144.154 355.19 144.154 350.094C144.154 345.019 141.512 342.731 138.455 342.731C135.376 342.731 132.756 345.019 132.756 350.094C132.756 355.19 135.376 357.458 138.455 357.458ZM138.455 356.168C136.042 356.168 134.17 354.171 134.17 350.094C134.17 346.038 136.042 344.042 138.455 344.042C140.868 344.042 142.74 346.038 142.74 350.094C142.74 354.171 140.868 356.168 138.455 356.168Z" fill="#4C4786"/>
<g filter="url(#filter0_b_1217_6764)">
<rect x="0.0996094" y="30.2395" width="302.9" height="130.612" rx="10.4" fill="white" fill-opacity="0.88"/>
<rect x="0.749609" y="30.8895" width="301.6" height="129.312" rx="9.74999" stroke="url(#paint1_linear_1217_6764)" stroke-width="1.3" stroke-dasharray="5.2 5.2"/>
<rect x="0.749609" y="30.8895" width="301.6" height="129.312" rx="9.74999" stroke="#7A7A7A" stroke-width="1.3" stroke-dasharray="5.2 5.2"/>
</g>
<path d="M15.6997 10.4C15.6997 4.65623 20.3559 0 26.0997 0L121 0C126.743 0 131.4 4.65623 131.4 10.4V29.9675L15.6997 29.9675L15.6997 10.4Z" fill="#328F4C"/>
<path d="M37.4369 9.75097V20.4838H38.9813V16.069H44.3477V14.6182L38.9813 14.6182V11.2018L45.1276 11.2018V9.75097L37.4369 9.75097ZM46.7254 9.75097V20.4838H48.1918V9.51697L46.7254 9.75097ZM57.2772 19.9066V18.6118C56.6688 18.955 55.53 19.2514 54.4224 19.2514C52.6908 19.2514 51.5676 18.4558 51.4584 16.8022L57.4488 16.8022V16.1158C57.4488 13.5418 56.154 12.0442 53.892 12.0442C51.5832 12.0442 49.9764 13.651 49.9764 16.3498C49.9764 19.1578 51.7548 20.6398 54.282 20.6398C55.4208 20.6398 56.6844 20.3434 57.2772 19.9066ZM53.814 13.3078C55.2648 13.3078 55.9824 14.2438 56.0136 15.8038L51.4428 15.8038C51.5208 14.2282 52.4412 13.3078 53.814 13.3078ZM64.5974 20.4838L66.2822 20.4838L63.3338 16.2874L66.251 12.2158H64.5818L62.3198 15.4918L60.0578 12.2158H58.373L61.3058 16.303L58.3574 20.4838H60.0266L62.3198 17.0674L64.5974 20.4838ZM68.3917 11.0614C69.0313 11.0614 69.4369 10.7182 69.4369 10.2034C69.4369 9.67297 69.0313 9.32977 68.3917 9.32977C67.7521 9.32977 67.3309 9.67297 67.3309 10.2034C67.3309 10.7182 67.7521 11.0614 68.3917 11.0614ZM67.6429 12.2158V20.4838H69.1093V12.2158L67.6429 12.2158ZM72.8106 9.51697L71.3442 9.75097V19.9846C72.1866 20.2966 73.2162 20.6398 74.6514 20.6398C76.9446 20.6398 78.9258 19.2202 78.9258 16.1782C78.9258 13.495 77.3814 12.0598 75.3846 12.0598C74.2926 12.0598 73.3722 12.4966 72.8106 12.9022V9.51697ZM74.979 13.4014C76.383 13.4014 77.4126 14.3998 77.4126 16.2562C77.4126 18.4246 76.2114 19.3294 74.589 19.3294C73.887 19.3294 73.3098 19.2046 72.8106 19.0486V14.0722C73.3098 13.7446 74.0742 13.4014 74.979 13.4014ZM80.7133 9.75097V20.4838H82.1797V9.51697L80.7133 9.75097ZM91.2651 19.9066V18.6118C90.6567 18.955 89.5179 19.2514 88.4103 19.2514C86.6787 19.2514 85.5555 18.4558 85.4463 16.8022H91.4367V16.1158C91.4367 13.5418 90.1419 12.0442 87.8799 12.0442C85.5711 12.0442 83.9643 13.651 83.9643 16.3498C83.9643 19.1578 85.7427 20.6398 88.2699 20.6398C89.4087 20.6398 90.6723 20.3434 91.2651 19.9066ZM87.8019 13.3078C89.2527 13.3078 89.9703 14.2438 90.0015 15.8038L85.4307 15.8038C85.5087 14.2282 86.4291 13.3078 87.8019 13.3078ZM105.787 9.75097H104.18V16.0534C104.18 17.941 103.275 19.111 101.325 19.111C99.3752 19.111 98.4704 17.941 98.4704 16.0534V9.75097L96.8636 9.75097V16.0378C96.8636 18.7678 98.2052 20.6398 101.325 20.6398C104.445 20.6398 105.787 18.7678 105.787 16.0378V9.75097ZM108.231 9.75097V20.4838H109.775V9.75097H108.231Z" fill="#EFE7E7"/>
<mask id="mask0_1217_6764" style="mask-type:alpha" maskUnits="userSpaceOnUse" x="19" y="59" width="22" height="21">
<ellipse cx="29.9994" cy="69.6669" rx="10.4" ry="9.85748" transform="rotate(-180 29.9994 69.6669)" fill="#3FCA66"/>
</mask>
<g mask="url(#mask0_1217_6764)">
<rect width="13.3879" height="1.80566" rx="0.902832" transform="matrix(-0.737651 -0.675182 0.713673 -0.700478 30.0664 84.744)" fill="#3FCA66"/>
<rect width="11.1631" height="1.80566" rx="0.902832" transform="matrix(-0.737651 -0.675182 0.713673 -0.700478 31.8745 82.9722)" fill="#3FCA66"/>
<rect width="8.91119" height="1.80566" rx="0.902832" transform="matrix(-0.737651 -0.675182 0.713673 -0.700478 33.6787 81.1981)" fill="#3FCA66"/>
<rect width="8.62522" height="1.80566" rx="0.902832" transform="matrix(-0.737651 -0.675182 0.713673 -0.700478 31.7778 65.7544)" fill="#3FCA66"/>
<rect width="11.2049" height="1.80566" rx="0.902832" transform="matrix(-0.737651 -0.675182 0.713673 -0.700478 35.4863 65.7244)" fill="#3FCA66"/>
<rect width="13.3879" height="1.80566" rx="0.902832" transform="matrix(-0.737651 -0.675182 0.713673 -0.700478 38.9043 65.426)" fill="#3FCA66"/>
<rect width="20.9865" height="1.80566" rx="0.902832" transform="matrix(-0.737651 -0.675182 0.713673 -0.700478 27.2124 72.2992)" fill="#3FCA66"/>
<rect width="20.9865" height="1.80566" rx="0.902832" transform="matrix(-0.737651 -0.675182 0.713673 -0.700478 37.2925 77.6537)" fill="#3FCA66"/>
<rect width="20.9865" height="1.80566" rx="0.902832" transform="matrix(-0.737651 -0.675182 0.713673 -0.700478 46.1763 82.158)" fill="#3FCA66"/>
</g>
<path d="M62.2657 66.3321V75.2761H63.5527V72.2341H65.9057C67.8817 72.2341 69.2727 71.2201 69.2727 69.3091C69.2727 67.2941 67.8817 66.3321 65.9057 66.3321H62.2657ZM65.8147 67.5411C67.0627 67.5411 67.9207 68.0481 67.9207 69.3091C67.9207 70.4921 67.0627 71.0381 65.8147 71.0381H63.5527V67.5411H65.8147ZM74.8669 75.4061C77.4669 75.4061 79.4169 73.5081 79.4169 70.8171C79.4169 68.1001 77.4669 66.2021 74.8669 66.2021C72.2669 66.2021 70.3039 68.1001 70.3039 70.8171C70.3039 73.5081 72.2669 75.4061 74.8669 75.4061ZM74.8669 74.1191C73.0339 74.1191 71.6559 72.7931 71.6559 70.8171C71.6559 68.8281 73.0339 67.4891 74.8669 67.4891C76.6999 67.4891 78.0779 68.8281 78.0779 70.8171C78.0779 72.7931 76.6999 74.1191 74.8669 74.1191ZM86.0198 73.0271C86.0198 73.7421 85.4868 74.2231 84.2258 74.2231C82.9778 74.2231 81.5868 73.6901 80.7548 73.1051V74.4441C81.4568 74.9251 82.7178 75.4061 84.1738 75.4061C85.9808 75.4061 87.3328 74.5611 87.3328 72.9621C87.3328 71.3111 86.2018 70.8301 84.7068 70.3751L83.7318 70.0761C82.6918 69.7381 81.9378 69.4781 81.9378 68.6201C81.9378 67.9051 82.5618 67.4111 83.7058 67.4111C84.9018 67.4111 86.1238 67.9311 86.8258 68.4121V67.0211C86.2798 66.6441 85.2138 66.1891 83.7448 66.1891C82.0158 66.1891 80.5858 67.0731 80.5858 68.7241C80.5858 70.3231 81.8208 70.8431 83.1078 71.2201L84.2778 71.5711C85.3828 71.9221 86.0198 72.2211 86.0198 73.0271ZM87.9515 67.5411H90.9415V75.2761H92.2285V67.5411H95.2185V66.3321H87.9515V67.5411ZM99.5313 75.5361L103.899 65.6561H102.82L98.4523 75.5361H99.5313ZM104.994 66.3321V75.2761H106.216V66.1371L104.994 66.3321ZM113.788 74.7951V73.7161C113.281 74.0021 112.332 74.2491 111.409 74.2491C109.966 74.2491 109.03 73.5861 108.939 72.2081H113.931V71.6361C113.931 69.4911 112.852 68.2431 110.967 68.2431C109.043 68.2431 107.704 69.5821 107.704 71.8311C107.704 74.1711 109.186 75.4061 111.292 75.4061C112.241 75.4061 113.294 75.1591 113.788 74.7951ZM110.902 69.2961C112.111 69.2961 112.709 70.0761 112.735 71.3761H108.926C108.991 70.0631 109.758 69.2961 110.902 69.2961ZM121.422 74.1971V68.8281C120.785 68.5681 119.94 68.2561 118.809 68.2561C116.833 68.2561 115.156 69.4521 115.156 71.8051C115.156 73.6771 116.365 74.7821 118.094 74.7821C119.03 74.7821 119.745 74.4051 120.2 74.0541V74.3531C120.2 75.6141 119.459 76.3161 118.042 76.3161C117.015 76.3161 116.157 75.9261 115.533 75.4971V76.7451C116.105 77.0961 117.041 77.4601 118.159 77.4601C119.953 77.4601 121.422 76.5241 121.422 74.1971ZM116.404 71.6621C116.404 70.1541 117.405 69.3481 118.796 69.3481C119.381 69.3481 119.823 69.4651 120.2 69.6081V73.0791C119.797 73.3651 119.147 73.6771 118.393 73.6771C117.236 73.6771 116.404 73.0141 116.404 71.6621ZM127.294 71.0901V71.7141C126.982 71.5971 126.449 71.4671 125.773 71.4671C124.005 71.4671 122.861 72.3511 122.861 73.5601C122.861 74.7041 123.654 75.4061 125.045 75.4061C126.072 75.4061 126.878 74.8991 127.372 74.3661V75.2761H128.516V71.0771C128.516 69.0231 127.216 68.2561 125.721 68.2561C124.447 68.2561 123.394 68.8541 122.939 69.3221V70.5831C123.524 69.9851 124.486 69.4651 125.565 69.4651C126.488 69.4651 127.294 69.9201 127.294 71.0901ZM124.005 73.5081C124.005 72.7931 124.707 72.3121 126.072 72.3121C126.514 72.3121 126.982 72.3901 127.294 72.4811V73.6511C126.761 74.0931 126.02 74.4571 125.24 74.4571C124.551 74.4571 124.005 74.1841 124.005 73.5081ZM130.271 66.3321V75.2761H131.493V66.1371L130.271 66.3321ZM132.317 75.5361V76.4071H137.972V75.5361H132.317ZM144.561 74.7951V73.7161C144.054 74.0021 143.105 74.2491 142.182 74.2491C140.739 74.2491 139.803 73.5861 139.712 72.2081H144.704V71.6361C144.704 69.4911 143.625 68.2431 141.74 68.2431C139.816 68.2431 138.477 69.5821 138.477 71.8311C138.477 74.1711 139.959 75.4061 142.065 75.4061C143.014 75.4061 144.067 75.1591 144.561 74.7951ZM141.675 69.2961C142.884 69.2961 143.482 70.0761 143.508 71.3761H139.699C139.764 70.0631 140.531 69.2961 141.675 69.2961ZM146.254 68.3861V75.2761H147.476V70.0501C147.957 69.7641 148.737 69.4261 149.543 69.4261C150.557 69.4261 151.168 69.9981 151.168 71.1291V75.2761H152.39V70.8561C152.39 69.1661 151.519 68.2561 149.998 68.2561C148.867 68.2561 147.983 68.7761 147.398 69.2571V68.3861H146.254ZM158.271 74.9771V73.9241C157.959 74.1191 157.452 74.3011 156.906 74.3011C156.204 74.3011 155.788 73.9891 155.788 73.1961V69.4651H158.219V68.3861H155.788V67.0861H155.502L153.513 69.1531V69.4651H154.566V73.3261C154.566 74.9901 155.528 75.4061 156.607 75.4061C157.374 75.4061 157.933 75.1981 158.271 74.9771ZM160.247 67.4241C160.78 67.4241 161.118 67.1381 161.118 66.7091C161.118 66.2671 160.78 65.9811 160.247 65.9811C159.714 65.9811 159.363 66.2671 159.363 66.7091C159.363 67.1381 159.714 67.4241 160.247 67.4241ZM159.623 68.3861V75.2761H160.845V68.3861H159.623ZM166.815 74.9771V73.9241C166.503 74.1191 165.996 74.3011 165.45 74.3011C164.748 74.3011 164.332 73.9891 164.332 73.1961V69.4651H166.763V68.3861H164.332V67.0861H164.046L162.057 69.1531V69.4651H163.11V73.3261C163.11 74.9901 164.072 75.4061 165.151 75.4061C165.918 75.4061 166.477 75.1981 166.815 74.9771ZM168.791 67.4241C169.324 67.4241 169.662 67.1381 169.662 66.7091C169.662 66.2671 169.324 65.9811 168.791 65.9811C168.258 65.9811 167.907 66.2671 167.907 66.7091C167.907 67.1381 168.258 67.4241 168.791 67.4241ZM168.167 68.3861V75.2761H169.389V68.3861H168.167ZM177.01 74.7951V73.7161C176.503 74.0021 175.554 74.2491 174.631 74.2491C173.188 74.2491 172.252 73.5861 172.161 72.2081H177.153V71.6361C177.153 69.4911 176.074 68.2431 174.189 68.2431C172.265 68.2431 170.926 69.5821 170.926 71.8311C170.926 74.1711 172.408 75.4061 174.514 75.4061C175.463 75.4061 176.516 75.1591 177.01 74.7951ZM174.124 69.2961C175.333 69.2961 175.931 70.0761 175.957 71.3761H172.148C172.213 70.0631 172.98 69.2961 174.124 69.2961ZM181.784 71.5451L180.939 71.2981C180.055 71.0381 179.483 70.8301 179.483 70.2061C179.483 69.6211 180.068 69.3351 180.796 69.3351C181.771 69.3351 182.824 69.7251 183.318 70.1021V68.8801C182.837 68.5551 181.849 68.2431 180.861 68.2431C179.262 68.2431 178.3 69.1011 178.3 70.2451C178.3 71.4411 179.171 71.9481 180.198 72.2081L181.069 72.4681C181.953 72.7021 182.473 72.8971 182.473 73.4951C182.473 74.1451 181.966 74.3791 181.147 74.3791C180.081 74.3791 179.002 73.9631 178.365 73.5601V74.7561C178.885 75.0811 179.99 75.4581 181.095 75.4581C182.642 75.4581 183.63 74.7691 183.63 73.4691C183.63 72.4031 182.889 71.8571 181.784 71.5451ZM185.352 75.5361L189.72 65.6561H188.641L184.273 75.5361H185.352ZM190.646 66.3321L190.204 67.4631H191.842V75.2761H193.09V66.3321H190.646ZM200.969 75.2761V74.1321H196.289L199.006 71.6101C199.994 70.7001 200.865 69.8811 200.865 68.6071C200.865 67.1251 199.76 66.2021 198.135 66.2021C196.627 66.2021 195.457 66.9821 194.963 67.3981V68.7241C195.587 68.1521 196.731 67.3591 198.031 67.3591C199.032 67.3591 199.578 67.8921 199.578 68.6721C199.578 69.4521 199.058 70.0111 198.135 70.9081L194.651 74.3271V75.2761H200.969ZM201.936 73.2221V74.5091C202.547 74.9511 203.587 75.4061 204.913 75.4061C207.188 75.4061 208.384 74.1451 208.384 72.6501C208.384 71.0901 207.24 70.0631 205.446 70.0631H204.666L208.02 67.5021V66.3321H202.183V67.4761H206.317L203.132 70.1931V70.9991H205.069C206.369 70.9991 207.11 71.6101 207.11 72.5851C207.11 73.5471 206.33 74.2621 204.783 74.2621C203.548 74.2621 202.469 73.6901 201.936 73.2221ZM214.214 66.3321L209.235 72.4031V73.3521H214.214V75.2761H215.462V73.3521H217.178V72.2211H215.462V66.3321H214.214ZM210.678 72.2211L214.214 67.8921V72.2211H210.678ZM219 66.3321L218.519 70.9341H221.093C222.419 70.9341 223.472 71.3631 223.472 72.6371C223.472 73.7941 222.523 74.2621 221.379 74.2621C220.066 74.2621 218.844 73.6381 218.207 73.1181V74.4051C218.779 74.8211 219.936 75.4061 221.457 75.4061C223.277 75.4061 224.759 74.4831 224.759 72.6371C224.759 70.6481 223.316 69.7901 221.418 69.7901H219.832L220.105 67.4761H224.226V66.3321H219ZM232.789 72.2471C232.789 70.4141 231.489 69.3091 229.799 69.3091C228.746 69.3091 227.953 69.6991 227.433 70.1671C228.213 68.4121 230.111 66.9431 231.125 66.3321H229.331C228.005 67.1251 225.847 69.1921 225.847 71.7531C225.847 74.1061 227.264 75.4061 229.344 75.4061C231.385 75.4061 232.789 74.1581 232.789 72.2471ZM227.134 71.7921C227.134 71.5971 227.16 71.4281 227.199 71.2461C227.758 70.7391 228.564 70.3621 229.526 70.3621C230.644 70.3621 231.515 71.0121 231.515 72.2731C231.515 73.5211 230.631 74.2621 229.383 74.2621C228.109 74.2621 227.134 73.4691 227.134 71.7921ZM62.6557 87.1161C63.2147 86.9861 63.7867 86.5571 63.7867 85.7901V83.5281C63.7867 83.1251 64.0467 82.9821 64.3327 82.9821C64.6057 82.9821 64.8267 83.0731 65.0347 83.1901V82.1631C64.8267 82.0591 64.4497 81.9291 64.0207 81.9291C63.2537 81.9291 62.6427 82.3711 62.6427 83.2031V85.7121C62.6427 86.3361 62.2007 86.4791 61.6807 86.5961L61.3947 86.6611V87.5711L61.6807 87.6361C62.2007 87.7531 62.6427 87.8961 62.6427 88.5201V91.0421C62.6427 91.8611 63.2537 92.3031 64.0207 92.3161C64.4497 92.3031 64.8267 92.1731 65.0347 92.0691V91.0421C64.8267 91.1591 64.6057 91.2501 64.3327 91.2631C64.0467 91.2501 63.7867 91.1071 63.7867 90.7171V88.4421C63.7867 87.6751 63.2147 87.2461 62.6557 87.1161ZM75.2076 101.01H76.4426L76.9496 98.3321H76.0656L75.2076 101.01ZM73.1406 101.01H74.3756L74.8956 98.3321H73.9986L73.1406 101.01ZM83.7559 100.776C83.2359 100.425 82.4949 100.243 81.7019 100.243C79.5959 100.243 77.9839 101.673 77.9839 103.831C77.9839 105.924 79.5829 107.406 81.6889 107.406C82.4949 107.406 83.2359 107.211 83.7559 106.86V105.638C83.2359 106.015 82.5079 106.249 81.7279 106.249C80.2719 106.249 79.2059 105.287 79.2059 103.831C79.2059 102.336 80.2719 101.4 81.7409 101.4C82.5079 101.4 83.2359 101.621 83.7559 101.998V100.776ZM88.4398 107.406C90.5068 107.406 92.0148 105.859 92.0148 103.831C92.0148 101.777 90.5068 100.256 88.4398 100.256C86.3728 100.256 84.8648 101.777 84.8648 103.831C84.8648 105.859 86.3728 107.406 88.4398 107.406ZM88.4398 106.262C87.0878 106.262 86.0738 105.222 86.0738 103.831C86.0738 102.414 87.0878 101.4 88.4398 101.4C89.8048 101.4 90.8058 102.414 90.8058 103.831C90.8058 105.235 89.8048 106.262 88.4398 106.262ZM96.3002 106.236C95.2862 106.236 94.6752 105.664 94.6752 104.533V100.386H93.4532V104.806C93.4532 106.496 94.3242 107.406 95.8322 107.406C96.9762 107.406 97.8602 106.886 98.4452 106.405V107.276H99.5892V100.386H98.3672V105.599C97.8732 105.898 97.1062 106.236 96.3002 106.236ZM101.414 100.386V107.276H102.636V102.05C103.117 101.764 103.897 101.426 104.703 101.426C105.717 101.426 106.328 101.998 106.328 103.129V107.276H107.55V102.856C107.55 101.166 106.679 100.256 105.158 100.256C104.027 100.256 103.143 100.776 102.558 101.257V100.386H101.414ZM113.432 106.977V105.924C113.12 106.119 112.613 106.301 112.067 106.301C111.365 106.301 110.949 105.989 110.949 105.196V101.465H113.38V100.386H110.949V99.0861H110.663L108.674 101.153V101.465H109.727V105.326C109.727 106.99 110.689 107.406 111.768 107.406C112.535 107.406 113.094 107.198 113.432 106.977ZM114.757 100.386V107.276H115.979V102.154C116.447 101.803 117.162 101.426 117.838 101.426C118.332 101.426 118.735 101.569 119.034 101.751V100.464C118.787 100.334 118.501 100.256 118.202 100.256C117.279 100.256 116.434 100.841 115.901 101.374V100.386H114.757ZM121.192 109.46C122.102 109.46 122.843 108.979 123.363 107.77L126.613 100.386H125.261L123.077 105.716L120.828 100.386H119.463L122.505 107.081L122.271 107.588C122.05 108.056 121.647 108.342 121.127 108.342C120.412 108.342 119.853 107.926 119.606 107.666V108.875C119.879 109.122 120.451 109.46 121.192 109.46ZM128.815 98.3321H127.593L127.073 101.01H127.97L128.815 98.3321ZM130.882 98.3321H129.66L129.14 101.01H130.037L130.882 98.3321ZM132.424 102.843C132.892 102.843 133.282 102.466 133.282 101.998C133.282 101.53 132.892 101.14 132.424 101.14C131.969 101.14 131.579 101.53 131.579 101.998C131.579 102.466 131.969 102.843 132.424 102.843ZM132.424 107.406C132.892 107.406 133.282 107.029 133.282 106.561C133.282 106.093 132.892 105.703 132.424 105.703C131.969 105.703 131.579 106.093 131.579 106.561C131.579 107.029 131.969 107.406 132.424 107.406ZM135.849 98.3321H134.627L134.107 101.01H135.004L135.849 98.3321ZM137.916 98.3321H136.694L136.174 101.01H137.071L137.916 98.3321ZM141.94 106.236C140.926 106.236 140.315 105.664 140.315 104.533V100.386H139.093V104.806C139.093 106.496 139.964 107.406 141.472 107.406C142.616 107.406 143.5 106.886 144.085 106.405V107.276H145.229V100.386H144.007V105.599C143.513 105.898 142.746 106.236 141.94 106.236ZM150.135 103.545L149.29 103.298C148.406 103.038 147.834 102.83 147.834 102.206C147.834 101.621 148.419 101.335 149.147 101.335C150.122 101.335 151.175 101.725 151.669 102.102V100.88C151.188 100.555 150.2 100.243 149.212 100.243C147.613 100.243 146.651 101.101 146.651 102.245C146.651 103.441 147.522 103.948 148.549 104.208L149.42 104.468C150.304 104.702 150.824 104.897 150.824 105.495C150.824 106.145 150.317 106.379 149.498 106.379C148.432 106.379 147.353 105.963 146.716 105.56V106.756C147.236 107.081 148.341 107.458 149.446 107.458C150.993 107.458 151.981 106.769 151.981 105.469C151.981 104.403 151.24 103.857 150.135 103.545ZM154.612 98.3321H153.39L152.87 101.01H153.767L154.612 98.3321ZM156.679 98.3321H155.457L154.937 101.01H155.834L156.679 98.3321ZM158.935 105.794H157.622L156.881 108.81H157.882L158.935 105.794ZM75.2076 117.01H76.4426L76.9496 114.332H76.0656L75.2076 117.01ZM73.1406 117.01H74.3756L74.8956 114.332H73.9986L73.1406 117.01ZM84.0679 122.795V121.716C83.5609 122.002 82.6119 122.249 81.6889 122.249C80.2459 122.249 79.3099 121.586 79.2189 120.208H84.2109V119.636C84.2109 117.491 83.1319 116.243 81.2469 116.243C79.3229 116.243 77.9839 117.582 77.9839 119.831C77.9839 122.171 79.4659 123.406 81.5719 123.406C82.5209 123.406 83.5739 123.159 84.0679 122.795ZM81.1819 117.296C82.3909 117.296 82.9889 118.076 83.0149 119.376H79.2059C79.2709 118.063 80.0379 117.296 81.1819 117.296ZM85.7611 116.386V123.276H86.9831V118.05C87.4641 117.764 88.2441 117.426 89.0501 117.426C90.0641 117.426 90.6751 117.998 90.6751 119.129V123.276H91.8971V118.856C91.8971 117.166 91.0261 116.256 89.5051 116.256C88.3741 116.256 87.4901 116.776 86.9051 117.257V116.386H85.7611ZM97.7782 122.977V121.924C97.4662 122.119 96.9592 122.301 96.4132 122.301C95.7112 122.301 95.2952 121.989 95.2952 121.196V117.465H97.7262V116.386H95.2952V115.086H95.0092L93.0202 117.153V117.465H94.0732V121.326C94.0732 122.99 95.0352 123.406 96.1142 123.406C96.8812 123.406 97.4402 123.198 97.7782 122.977ZM99.7538 115.424C100.287 115.424 100.625 115.138 100.625 114.709C100.625 114.267 100.287 113.981 99.7538 113.981C99.2208 113.981 98.8698 114.267 98.8698 114.709C98.8698 115.138 99.2208 115.424 99.7538 115.424ZM99.1298 116.386V123.276H100.352V116.386H99.1298ZM106.322 122.977V121.924C106.01 122.119 105.503 122.301 104.957 122.301C104.255 122.301 103.839 121.989 103.839 121.196V117.465H106.27V116.386H103.839V115.086H103.553L101.564 117.153V117.465H102.617V121.326C102.617 122.99 103.579 123.406 104.658 123.406C105.425 123.406 105.984 123.198 106.322 122.977ZM108.675 125.46C109.585 125.46 110.326 124.979 110.846 123.77L114.096 116.386H112.744L110.56 121.716L108.311 116.386H106.946L109.988 123.081L109.754 123.588C109.533 124.056 109.13 124.342 108.61 124.342C107.895 124.342 107.336 123.926 107.089 123.666V124.875C107.362 125.122 107.934 125.46 108.675 125.46ZM114.036 123.536V124.407H119.691V123.536H114.036ZM125.968 116.776C125.448 116.425 124.707 116.243 123.914 116.243C121.808 116.243 120.196 117.673 120.196 119.831C120.196 121.924 121.795 123.406 123.901 123.406C124.707 123.406 125.448 123.211 125.968 122.86V121.638C125.448 122.015 124.72 122.249 123.94 122.249C122.484 122.249 121.418 121.287 121.418 119.831C121.418 118.336 122.484 117.4 123.953 117.4C124.72 117.4 125.448 117.621 125.968 117.998V116.776ZM130.652 123.406C132.719 123.406 134.227 121.859 134.227 119.831C134.227 117.777 132.719 116.256 130.652 116.256C128.585 116.256 127.077 117.777 127.077 119.831C127.077 121.859 128.585 123.406 130.652 123.406ZM130.652 122.262C129.3 122.262 128.286 121.222 128.286 119.831C128.286 118.414 129.3 117.4 130.652 117.4C132.017 117.4 133.018 118.414 133.018 119.831C133.018 121.235 132.017 122.262 130.652 122.262ZM138.512 122.236C137.498 122.236 136.887 121.664 136.887 120.533V116.386H135.665V120.806C135.665 122.496 136.536 123.406 138.044 123.406C139.188 123.406 140.072 122.886 140.657 122.405V123.276H141.801V116.386H140.579V121.599C140.085 121.898 139.318 122.236 138.512 122.236ZM143.626 116.386V123.276H144.848V118.05C145.329 117.764 146.109 117.426 146.915 117.426C147.929 117.426 148.54 117.998 148.54 119.129V123.276H149.762V118.856C149.762 117.166 148.891 116.256 147.37 116.256C146.239 116.256 145.355 116.776 144.77 117.257V116.386H143.626ZM155.643 122.977V121.924C155.331 122.119 154.824 122.301 154.278 122.301C153.576 122.301 153.16 121.989 153.16 121.196V117.465H155.591V116.386H153.16V115.086H152.874L150.885 117.153V117.465H151.938V121.326C151.938 122.99 152.9 123.406 153.979 123.406C154.746 123.406 155.305 123.198 155.643 122.977ZM156.969 116.386V123.276H158.191V118.154C158.659 117.803 159.374 117.426 160.05 117.426C160.544 117.426 160.947 117.569 161.246 117.751V116.464C160.999 116.334 160.713 116.256 160.414 116.256C159.491 116.256 158.646 116.841 158.113 117.374V116.386H156.969ZM163.404 125.46C164.314 125.46 165.055 124.979 165.575 123.77L168.825 116.386H167.473L165.289 121.716L163.04 116.386H161.675L164.717 123.081L164.483 123.588C164.262 124.056 163.859 124.342 163.339 124.342C162.624 124.342 162.065 123.926 161.818 123.666V124.875C162.091 125.122 162.663 125.46 163.404 125.46ZM168.765 123.536V124.407H174.42V123.536H168.765ZM175.9 115.424C176.433 115.424 176.771 115.138 176.771 114.709C176.771 114.267 176.433 113.981 175.9 113.981C175.367 113.981 175.016 114.267 175.016 114.709C175.016 115.138 175.367 115.424 175.9 115.424ZM175.276 116.386V123.276H176.498V116.386H175.276ZM178.361 116.386V123.276H179.583V118.05C180.064 117.764 180.844 117.426 181.65 117.426C182.664 117.426 183.275 117.998 183.275 119.129V123.276H184.497V118.856C184.497 117.166 183.626 116.256 182.105 116.256C180.974 116.256 180.09 116.776 179.505 117.257V116.386H178.361ZM185.672 117.465H186.673V123.276H187.895V117.465H189.728V116.386H187.895V116.36C187.895 115.58 188.363 115.138 189.078 115.138C189.598 115.138 190.092 115.333 190.378 115.554V114.527C190.144 114.371 189.624 114.124 188.935 114.124C187.713 114.124 186.673 114.813 186.673 116.373V116.386H185.672V117.465ZM194.331 123.406C196.398 123.406 197.906 121.859 197.906 119.831C197.906 117.777 196.398 116.256 194.331 116.256C192.264 116.256 190.756 117.777 190.756 119.831C190.756 121.859 192.264 123.406 194.331 123.406ZM194.331 122.262C192.979 122.262 191.965 121.222 191.965 119.831C191.965 118.414 192.979 117.4 194.331 117.4C195.696 117.4 196.697 118.414 196.697 119.831C196.697 121.235 195.696 122.262 194.331 122.262ZM200.671 114.332H199.449L198.929 117.01H199.826L200.671 114.332ZM202.738 114.332H201.516L200.996 117.01H201.893L202.738 114.332ZM204.279 118.843C204.747 118.843 205.137 118.466 205.137 117.998C205.137 117.53 204.747 117.14 204.279 117.14C203.824 117.14 203.434 117.53 203.434 117.998C203.434 118.466 203.824 118.843 204.279 118.843ZM204.279 123.406C204.747 123.406 205.137 123.029 205.137 122.561C205.137 122.093 204.747 121.703 204.279 121.703C203.824 121.703 203.434 122.093 203.434 122.561C203.434 123.029 203.824 123.406 204.279 123.406ZM206.976 119.116C207.535 118.986 208.107 118.557 208.107 117.79V115.528C208.107 115.125 208.367 114.982 208.653 114.982C208.926 114.982 209.147 115.073 209.355 115.19V114.163C209.147 114.059 208.77 113.929 208.341 113.929C207.574 113.929 206.963 114.371 206.963 115.203V117.712C206.963 118.336 206.521 118.479 206.001 118.596L205.715 118.661V119.571L206.001 119.636C206.521 119.753 206.963 119.896 206.963 120.52V123.042C206.963 123.861 207.574 124.303 208.341 124.316C208.77 124.303 209.147 124.173 209.355 124.069V123.042C209.147 123.159 208.926 123.25 208.653 123.263C208.367 123.25 208.107 123.107 208.107 122.717V120.442C208.107 119.675 207.535 119.246 206.976 119.116ZM210.868 123.406C211.336 123.406 211.726 123.029 211.726 122.561C211.726 122.093 211.336 121.703 210.868 121.703C210.413 121.703 210.023 122.093 210.023 122.561C210.023 123.029 210.413 123.406 210.868 123.406ZM213.331 123.406C213.799 123.406 214.189 123.029 214.189 122.561C214.189 122.093 213.799 121.703 213.331 121.703C212.876 121.703 212.486 122.093 212.486 122.561C212.486 123.029 212.876 123.406 213.331 123.406ZM215.794 123.406C216.262 123.406 216.652 123.029 216.652 122.561C216.652 122.093 216.262 121.703 215.794 121.703C215.339 121.703 214.949 122.093 214.949 122.561C214.949 123.029 215.339 123.406 215.794 123.406ZM219.7 119.116C219.141 119.246 218.569 119.675 218.569 120.442V122.717C218.569 123.107 218.309 123.25 218.023 123.263C217.75 123.25 217.529 123.159 217.321 123.042V124.069C217.529 124.173 217.906 124.303 218.335 124.316C219.102 124.303 219.713 123.861 219.713 123.042V120.52C219.713 119.896 220.155 119.753 220.675 119.636L220.961 119.571V118.661L220.675 118.596C220.155 118.479 219.713 118.336 219.713 117.712V115.203C219.713 114.371 219.102 113.929 218.335 113.929C217.906 113.929 217.529 114.059 217.321 114.163V115.19C217.529 115.073 217.75 114.982 218.023 114.982C218.309 114.982 218.569 115.125 218.569 115.528V117.79C218.569 118.557 219.141 118.986 219.7 119.116ZM63.8647 135.116C63.3057 135.246 62.7337 135.675 62.7337 136.442V138.717C62.7337 139.107 62.4737 139.25 62.1877 139.263C61.9147 139.25 61.6937 139.159 61.4857 139.042V140.069C61.6937 140.173 62.0707 140.303 62.4997 140.316C63.2667 140.303 63.8777 139.861 63.8777 139.042V136.52C63.8777 135.896 64.3197 135.753 64.8397 135.636L65.1257 135.571V134.661L64.8397 134.596C64.3197 134.479 63.8777 134.336 63.8777 133.712V131.203C63.8777 130.371 63.2667 129.929 62.4997 129.929C62.0707 129.929 61.6937 130.059 61.4857 130.163V131.19C61.6937 131.073 61.9147 130.982 62.1877 130.982C62.4737 130.982 62.7337 131.125 62.7337 131.528V133.79C62.7337 134.557 63.3057 134.986 63.8647 135.116Z" fill="#2C2C2C"/>
<defs>
<filter id="filter0_b_1217_6764" x="-7.70039" y="22.4395" width="318.5" height="146.212" filterUnits="userSpaceOnUse" color-interpolation-filters="sRGB">
<feFlood flood-opacity="0" result="BackgroundImageFix"/>
<feGaussianBlur in="BackgroundImageFix" stdDeviation="3.9"/>
<feComposite in2="SourceAlpha" operator="in" result="effect1_backgroundBlur_1217_6764"/>
<feBlend mode="normal" in="SourceGraphic" in2="effect1_backgroundBlur_1217_6764" result="shape"/>
</filter>
<linearGradient id="paint0_linear_1217_6764" x1="429.099" y1="42.9967" x2="429.099" y2="407.818" gradientUnits="userSpaceOnUse">
<stop stop-color="#1F195A"/>
<stop offset="1" stop-opacity="0"/>
</linearGradient>
<linearGradient id="paint1_linear_1217_6764" x1="151.55" y1="30.2395" x2="151.55" y2="160.851" gradientUnits="userSpaceOnUse">
<stop offset="0.340671" stop-color="#EDF0F1"/>
<stop offset="1" stop-color="white" stop-opacity="0"/>
</linearGradient>
</defs>
</svg>
