<svg width="428" height="406" viewBox="0 0 428 406" fill="none" xmlns="http://www.w3.org/2000/svg">
<rect y="82" width="428" height="78" rx="8" fill="#47A561"/>
<path d="M87.96 115.2C91.96 115.2 94.96 112.28 94.96 108.14C94.96 103.96 91.96 101.04 87.96 101.04C83.96 101.04 80.94 103.96 80.94 108.14C80.94 112.28 83.96 115.2 87.96 115.2ZM87.96 113.22C85.14 113.22 83.02 111.18 83.02 108.14C83.02 105.08 85.14 103.02 87.96 103.02C90.78 103.02 92.9 105.08 92.9 108.14C92.9 111.18 90.78 113.22 87.96 113.22ZM101.278 115.2C104.318 115.2 107.018 113.32 107.018 109.42C107.018 105.9 104.838 104.2 102.358 104.2C100.878 104.2 99.7584 104.76 99.0584 105.34V104.4H97.2984V118.16H99.1784V114.94C99.7784 115.1 100.418 115.2 101.278 115.2ZM101.838 105.88C103.778 105.88 105.078 107.2 105.078 109.54C105.078 112.26 103.398 113.52 101.198 113.52C100.358 113.52 99.7184 113.36 99.1784 113.18V106.76C99.7784 106.34 100.698 105.88 101.838 105.88ZM118.17 114.26V112.6C117.39 113.04 115.93 113.42 114.51 113.42C112.29 113.42 110.85 112.4 110.71 110.28H118.39V109.4C118.39 106.1 116.73 104.18 113.83 104.18C110.87 104.18 108.81 106.24 108.81 109.7C108.81 113.3 111.09 115.2 114.33 115.2C115.79 115.2 117.41 114.82 118.17 114.26ZM113.73 105.8C115.59 105.8 116.51 107 116.55 109H110.69C110.79 106.98 111.97 105.8 113.73 105.8ZM120.775 104.4V115H122.655V106.96C123.395 106.52 124.595 106 125.835 106C127.395 106 128.335 106.88 128.335 108.62V115H130.215V108.2C130.215 105.6 128.875 104.2 126.535 104.2C124.795 104.2 123.435 105 122.535 105.74V104.4H120.775ZM143.676 108.56V109.52C143.196 109.34 142.376 109.14 141.336 109.14C138.616 109.14 136.856 110.5 136.856 112.36C136.856 114.12 138.076 115.2 140.216 115.2C141.796 115.2 143.036 114.42 143.796 113.6V115H145.556V108.54C145.556 105.38 143.556 104.2 141.256 104.2C139.296 104.2 137.676 105.12 136.976 105.84V107.78C137.876 106.86 139.356 106.06 141.016 106.06C142.436 106.06 143.676 106.76 143.676 108.56ZM138.616 112.28C138.616 111.18 139.696 110.44 141.796 110.44C142.476 110.44 143.196 110.56 143.676 110.7V112.5C142.856 113.18 141.716 113.74 140.516 113.74C139.456 113.74 138.616 113.32 138.616 112.28ZM148.255 104.4V115H150.135V106.96C150.875 106.52 152.075 106 153.315 106C154.875 106 155.815 106.88 155.815 108.62V115H157.695V108.2C157.695 105.6 156.355 104.2 154.015 104.2C152.275 104.2 150.915 105 150.015 105.74V104.4H148.255ZM167.883 115H169.643V100.94L167.763 101.24V104.46C167.163 104.32 166.503 104.2 165.643 104.2C162.623 104.2 159.923 106.08 159.923 109.98C159.923 113.5 162.103 115.2 164.583 115.2C166.063 115.2 167.183 114.64 167.883 114.06V115ZM165.743 105.88C166.583 105.88 167.223 106.04 167.763 106.22V112.66C167.183 113.06 166.203 113.52 165.083 113.52C163.123 113.52 161.843 112.2 161.843 109.86C161.843 107.14 163.543 105.88 165.743 105.88ZM175.988 106.06H177.528V115H179.408V106.06H182.228V104.4H179.408V104.36C179.408 103.16 180.128 102.48 181.228 102.48C182.028 102.48 182.788 102.78 183.228 103.12V101.54C182.868 101.3 182.068 100.92 181.008 100.92C179.128 100.92 177.528 101.98 177.528 104.38V104.4H175.988V106.06ZM190.57 108.56V109.52C190.09 109.34 189.27 109.14 188.23 109.14C185.51 109.14 183.75 110.5 183.75 112.36C183.75 114.12 184.97 115.2 187.11 115.2C188.69 115.2 189.93 114.42 190.69 113.6V115H192.45V108.54C192.45 105.38 190.45 104.2 188.15 104.2C186.19 104.2 184.57 105.12 183.87 105.84V107.78C184.77 106.86 186.25 106.06 187.91 106.06C189.33 106.06 190.57 106.76 190.57 108.56ZM185.51 112.28C185.51 111.18 186.59 110.44 188.69 110.44C189.37 110.44 190.09 110.56 190.57 110.7V112.5C189.75 113.18 188.61 113.74 187.41 113.74C186.35 113.74 185.51 113.32 185.51 112.28ZM199.89 109.26L198.59 108.88C197.23 108.48 196.35 108.16 196.35 107.2C196.35 106.3 197.25 105.86 198.37 105.86C199.87 105.86 201.49 106.46 202.25 107.04V105.16C201.51 104.66 199.99 104.18 198.47 104.18C196.01 104.18 194.53 105.5 194.53 107.26C194.53 109.1 195.87 109.88 197.45 110.28L198.79 110.68C200.15 111.04 200.95 111.34 200.95 112.26C200.95 113.26 200.17 113.62 198.91 113.62C197.27 113.62 195.61 112.98 194.63 112.36V114.2C195.43 114.7 197.13 115.28 198.83 115.28C201.21 115.28 202.73 114.22 202.73 112.22C202.73 110.58 201.59 109.74 199.89 109.26ZM211.138 114.54V112.92C210.658 113.22 209.878 113.5 209.038 113.5C207.958 113.5 207.318 113.02 207.318 111.8V106.06H211.058V104.4H207.318V102.4H206.878L203.818 105.58V106.06H205.438V112C205.438 114.56 206.918 115.2 208.578 115.2C209.758 115.2 210.618 114.88 211.138 114.54ZM222.037 114.26V112.6C221.257 113.04 219.797 113.42 218.377 113.42C216.157 113.42 214.717 112.4 214.577 110.28H222.257V109.4C222.257 106.1 220.597 104.18 217.697 104.18C214.737 104.18 212.677 106.24 212.677 109.7C212.677 113.3 214.957 115.2 218.197 115.2C219.657 115.2 221.277 114.82 222.037 114.26ZM217.597 105.8C219.457 105.8 220.377 107 220.417 109H214.557C214.657 106.98 215.837 105.8 217.597 105.8ZM224.642 104.4V115H226.522V107.12C227.242 106.58 228.342 106 229.382 106C230.142 106 230.762 106.22 231.222 106.5V104.52C230.842 104.32 230.402 104.2 229.942 104.2C228.522 104.2 227.222 105.1 226.402 105.92V104.4H224.642ZM237.435 104.4V115H239.315V106.98C240.035 106.54 241.135 106 242.295 106C243.715 106 244.595 106.86 244.595 108.54V115H246.475V108.02C246.475 107.66 246.455 107.3 246.395 106.98C247.155 106.52 248.275 106 249.455 106C250.895 106 251.775 106.86 251.775 108.54V115H253.635V108.12C253.635 105.58 252.375 104.2 250.175 104.2C248.335 104.2 246.975 105.1 246.055 105.92C245.515 104.8 244.475 104.2 242.995 104.2C241.335 104.2 240.055 105 239.195 105.74V104.4H237.435ZM261.361 115.2C264.541 115.2 266.861 112.82 266.861 109.7C266.861 106.54 264.541 104.2 261.361 104.2C258.181 104.2 255.861 106.54 255.861 109.7C255.861 112.82 258.181 115.2 261.361 115.2ZM261.361 113.44C259.281 113.44 257.721 111.84 257.721 109.7C257.721 107.52 259.281 105.96 261.361 105.96C263.461 105.96 265.001 107.52 265.001 109.7C265.001 111.86 263.461 113.44 261.361 113.44ZM276.614 115H278.374V100.94L276.494 101.24V104.46C275.894 104.32 275.234 104.2 274.374 104.2C271.354 104.2 268.654 106.08 268.654 109.98C268.654 113.5 270.834 115.2 273.314 115.2C274.794 115.2 275.914 114.64 276.614 114.06V115ZM274.474 105.88C275.314 105.88 275.954 106.04 276.494 106.22V112.66C275.914 113.06 274.934 113.52 273.814 113.52C271.854 113.52 270.574 112.2 270.574 109.86C270.574 107.14 272.274 105.88 274.474 105.88ZM290.026 114.26V112.6C289.246 113.04 287.786 113.42 286.366 113.42C284.146 113.42 282.706 112.4 282.566 110.28H290.246V109.4C290.246 106.1 288.586 104.18 285.686 104.18C282.726 104.18 280.666 106.24 280.666 109.7C280.666 113.3 282.946 115.2 286.186 115.2C287.646 115.2 289.266 114.82 290.026 114.26ZM285.586 105.8C287.446 105.8 288.366 107 288.406 109H282.546C282.646 106.98 283.826 105.8 285.586 105.8ZM302.103 115.2C305.283 115.2 307.603 112.82 307.603 109.7C307.603 106.54 305.283 104.2 302.103 104.2C298.923 104.2 296.603 106.54 296.603 109.7C296.603 112.82 298.923 115.2 302.103 115.2ZM302.103 113.44C300.023 113.44 298.463 111.84 298.463 109.7C298.463 107.52 300.023 105.96 302.103 105.96C304.203 105.96 305.743 107.52 305.743 109.7C305.743 111.86 304.203 113.44 302.103 113.44ZM308.976 106.06H310.516V115H312.396V106.06H315.216V104.4H312.396V104.36C312.396 103.16 313.116 102.48 314.216 102.48C315.016 102.48 315.776 102.78 316.216 103.12V101.54C315.856 101.3 315.056 100.92 313.996 100.92C312.116 100.92 310.516 101.98 310.516 104.38V104.4H308.976V106.06ZM82.4 128.92C83.22 128.92 83.74 128.48 83.74 127.82C83.74 127.14 83.22 126.7 82.4 126.7C81.58 126.7 81.04 127.14 81.04 127.82C81.04 128.48 81.58 128.92 82.4 128.92ZM81.44 130.4V141H83.32V130.4H81.44ZM86.1852 130.4V141H88.0652V132.96C88.8052 132.52 90.0052 132 91.2452 132C92.8052 132 93.7452 132.88 93.7452 134.62V141H95.6252V134.2C95.6252 131.6 94.2852 130.2 91.9452 130.2C90.2052 130.2 88.8452 131 87.9452 131.74V130.4H86.1852ZM104.673 140.54V138.92C104.193 139.22 103.413 139.5 102.573 139.5C101.493 139.5 100.853 139.02 100.853 137.8V132.06H104.593V130.4H100.853V128.4H100.413L97.3531 131.58V132.06H98.9731V138C98.9731 140.56 100.453 141.2 102.113 141.2C103.293 141.2 104.153 140.88 104.673 140.54ZM115.573 140.26V138.6C114.793 139.04 113.333 139.42 111.913 139.42C109.693 139.42 108.252 138.4 108.113 136.28H115.793V135.4C115.793 132.1 114.133 130.18 111.233 130.18C108.273 130.18 106.213 132.24 106.213 135.7C106.213 139.3 108.493 141.2 111.733 141.2C113.193 141.2 114.813 140.82 115.573 140.26ZM111.133 131.8C112.993 131.8 113.913 133 113.953 135H108.093C108.193 132.98 109.373 131.8 111.133 131.8ZM127.317 139.34V131.08C126.337 130.68 125.037 130.2 123.297 130.2C120.257 130.2 117.677 132.04 117.677 135.66C117.677 138.54 119.537 140.24 122.197 140.24C123.637 140.24 124.737 139.66 125.437 139.12V139.58C125.437 141.52 124.297 142.6 122.117 142.6C120.537 142.6 119.217 142 118.257 141.34V143.26C119.137 143.8 120.577 144.36 122.297 144.36C125.057 144.36 127.317 142.92 127.317 139.34ZM119.597 135.44C119.597 133.12 121.137 131.88 123.277 131.88C124.177 131.88 124.857 132.06 125.437 132.28V137.62C124.817 138.06 123.817 138.54 122.657 138.54C120.877 138.54 119.597 137.52 119.597 135.44ZM130.091 130.4V141H131.971V133.12C132.691 132.58 133.791 132 134.831 132C135.591 132 136.211 132.22 136.671 132.5V130.52C136.291 130.32 135.851 130.2 135.391 130.2C133.971 130.2 132.671 131.1 131.851 131.92V130.4H130.091ZM144.672 134.56V135.52C144.192 135.34 143.372 135.14 142.332 135.14C139.612 135.14 137.852 136.5 137.852 138.36C137.852 140.12 139.072 141.2 141.212 141.2C142.792 141.2 144.032 140.42 144.792 139.6V141H146.552V134.54C146.552 131.38 144.552 130.2 142.252 130.2C140.292 130.2 138.672 131.12 137.972 131.84V133.78C138.872 132.86 140.352 132.06 142.012 132.06C143.432 132.06 144.672 132.76 144.672 134.56ZM139.612 138.28C139.612 137.18 140.692 136.44 142.792 136.44C143.472 136.44 144.192 136.56 144.672 136.7V138.5C143.852 139.18 142.712 139.74 141.512 139.74C140.452 139.74 139.612 139.32 139.612 138.28ZM155.572 140.54V138.92C155.092 139.22 154.312 139.5 153.472 139.5C152.392 139.5 151.752 139.02 151.752 137.8V132.06H155.492V130.4H151.752V128.4H151.312L148.252 131.58V132.06H149.872V138C149.872 140.56 151.352 141.2 153.012 141.2C154.192 141.2 155.052 140.88 155.572 140.54ZM158.611 128.92C159.431 128.92 159.951 128.48 159.951 127.82C159.951 127.14 159.431 126.7 158.611 126.7C157.791 126.7 157.251 127.14 157.251 127.82C157.251 128.48 157.791 128.92 158.611 128.92ZM157.651 130.4V141H159.531V130.4H157.651ZM167.396 141.2C170.576 141.2 172.896 138.82 172.896 135.7C172.896 132.54 170.576 130.2 167.396 130.2C164.216 130.2 161.896 132.54 161.896 135.7C161.896 138.82 164.216 141.2 167.396 141.2ZM167.396 139.44C165.316 139.44 163.756 137.84 163.756 135.7C163.756 133.52 165.316 131.96 167.396 131.96C169.496 131.96 171.036 133.52 171.036 135.7C171.036 137.86 169.496 139.44 167.396 139.44ZM175.189 130.4V141H177.069V132.96C177.809 132.52 179.009 132 180.249 132C181.809 132 182.749 132.88 182.749 134.62V141H184.629V134.2C184.629 131.6 183.289 130.2 180.949 130.2C179.209 130.2 177.849 131 176.949 131.74V130.4H175.189Z" fill="black"/>
<path d="M28.6035 112.215H34.6035C35.6644 112.215 36.6818 112.636 37.4319 113.386C38.1821 114.137 38.6035 115.154 38.6035 116.215V130.215C38.6035 129.419 38.2874 128.656 37.7248 128.094C37.1622 127.531 36.3992 127.215 35.6035 127.215H28.6035V112.215Z" stroke="black" stroke-width="2" stroke-linecap="round" stroke-linejoin="round"/>
<path d="M48.6035 112.215H42.6035C41.5426 112.215 40.5252 112.636 39.7751 113.386C39.0249 114.137 38.6035 115.154 38.6035 116.215V130.215C38.6035 129.419 38.9196 128.656 39.4822 128.094C40.0448 127.531 40.8079 127.215 41.6035 127.215H48.6035V112.215Z" stroke="black" stroke-width="2" stroke-linecap="round" stroke-linejoin="round"/>
<rect y="164" width="428" height="78" rx="8" fill="#47A561"/>
<path d="M81.64 183.24V197H83.62V191.34H90.5V189.48H83.62V185.1H91.5V183.24H81.64ZM94.5484 184.92C95.3684 184.92 95.8884 184.48 95.8884 183.82C95.8884 183.14 95.3684 182.7 94.5484 182.7C93.7284 182.7 93.1884 183.14 93.1884 183.82C93.1884 184.48 93.7284 184.92 94.5484 184.92ZM93.5884 186.4V197H95.4684V186.4H93.5884ZM104.654 196.54V194.92C104.174 195.22 103.394 195.5 102.554 195.5C101.474 195.5 100.834 195.02 100.834 193.8V188.06H104.574V186.4H100.834V184.4H100.394L97.3336 187.58V188.06H98.9536V194C98.9536 196.56 100.434 197.2 102.094 197.2C103.274 197.2 104.134 196.88 104.654 196.54ZM111.433 191.26L110.133 190.88C108.773 190.48 107.893 190.16 107.893 189.2C107.893 188.3 108.793 187.86 109.913 187.86C111.413 187.86 113.033 188.46 113.793 189.04V187.16C113.053 186.66 111.533 186.18 110.013 186.18C107.553 186.18 106.073 187.5 106.073 189.26C106.073 191.1 107.413 191.88 108.993 192.28L110.333 192.68C111.693 193.04 112.493 193.34 112.493 194.26C112.493 195.26 111.713 195.62 110.453 195.62C108.813 195.62 107.153 194.98 106.173 194.36V196.2C106.973 196.7 108.673 197.28 110.373 197.28C112.753 197.28 114.273 196.22 114.273 194.22C114.273 192.58 113.133 191.74 111.433 191.26ZM121.834 184.92C122.654 184.92 123.174 184.48 123.174 183.82C123.174 183.14 122.654 182.7 121.834 182.7C121.014 182.7 120.474 183.14 120.474 183.82C120.474 184.48 121.014 184.92 121.834 184.92ZM120.874 186.4V197H122.754V186.4H120.874ZM125.619 186.4V197H127.499V188.96C128.239 188.52 129.439 188 130.679 188C132.239 188 133.179 188.88 133.179 190.62V197H135.059V190.2C135.059 187.6 133.719 186.2 131.379 186.2C129.639 186.2 128.279 187 127.379 187.74V186.4H125.619ZM144.139 182.94L142.259 183.24V196.36C143.339 196.76 144.659 197.2 146.499 197.2C149.439 197.2 151.979 195.38 151.979 191.48C151.979 188.04 149.999 186.2 147.439 186.2C146.039 186.2 144.859 186.76 144.139 187.28V182.94ZM146.919 187.92C148.719 187.92 150.039 189.2 150.039 191.58C150.039 194.36 148.499 195.52 146.419 195.52C145.519 195.52 144.779 195.36 144.139 195.16V188.78C144.779 188.36 145.759 187.92 146.919 187.92ZM160.531 190.56V191.52C160.051 191.34 159.231 191.14 158.191 191.14C155.471 191.14 153.711 192.5 153.711 194.36C153.711 196.12 154.931 197.2 157.071 197.2C158.651 197.2 159.891 196.42 160.651 195.6V197H162.411V190.54C162.411 187.38 160.411 186.2 158.111 186.2C156.151 186.2 154.531 187.12 153.831 187.84V189.78C154.731 188.86 156.211 188.06 157.871 188.06C159.291 188.06 160.531 188.76 160.531 190.56ZM155.471 194.28C155.471 193.18 156.551 192.44 158.651 192.44C159.331 192.44 160.051 192.56 160.531 192.7V194.5C159.711 195.18 158.571 195.74 157.371 195.74C156.311 195.74 155.471 195.32 155.471 194.28ZM165.111 186.4V197H166.991V188.96C167.731 188.52 168.931 188 170.171 188C171.731 188 172.671 188.88 172.671 190.62V197H174.551V190.2C174.551 187.6 173.211 186.2 170.871 186.2C169.131 186.2 167.771 187 166.871 187.74V186.4H165.111ZM177.279 183.24V197H179.159V192.08H181.019L184.379 197H186.539L182.419 191.14L186.539 186.4H184.359L181.099 190.32H179.159V182.94L177.279 183.24ZM189.255 184.92C190.075 184.92 190.595 184.48 190.595 183.82C190.595 183.14 190.075 182.7 189.255 182.7C188.435 182.7 187.895 183.14 187.895 183.82C187.895 184.48 188.435 184.92 189.255 184.92ZM188.295 186.4V197H190.175V186.4H188.295ZM193.041 186.4V197H194.921V188.96C195.661 188.52 196.861 188 198.101 188C199.661 188 200.601 188.88 200.601 190.62V197H202.481V190.2C202.481 187.6 201.141 186.2 198.801 186.2C197.061 186.2 195.701 187 194.801 187.74V186.4H193.041ZM214.349 195.34V187.08C213.369 186.68 212.069 186.2 210.329 186.2C207.289 186.2 204.709 188.04 204.709 191.66C204.709 194.54 206.569 196.24 209.229 196.24C210.669 196.24 211.769 195.66 212.469 195.12V195.58C212.469 197.52 211.329 198.6 209.149 198.6C207.569 198.6 206.249 198 205.289 197.34V199.26C206.169 199.8 207.609 200.36 209.329 200.36C212.089 200.36 214.349 198.92 214.349 195.34ZM206.629 191.44C206.629 189.12 208.169 187.88 210.309 187.88C211.209 187.88 211.889 188.06 212.469 188.28V193.62C211.849 194.06 210.849 194.54 209.689 194.54C207.909 194.54 206.629 193.52 206.629 191.44ZM89.78 213C88.98 212.46 87.84 212.18 86.62 212.18C83.38 212.18 80.9 214.38 80.9 217.7C80.9 220.92 83.36 223.2 86.6 223.2C87.84 223.2 88.98 222.9 89.78 222.36V220.48C88.98 221.06 87.86 221.42 86.66 221.42C84.42 221.42 82.78 219.94 82.78 217.7C82.78 215.4 84.42 213.96 86.68 213.96C87.86 213.96 88.98 214.3 89.78 214.88V213ZM97.0459 214C98.6059 214 99.5459 214.88 99.5459 216.62V223H101.426V216.2C101.426 213.6 100.086 212.2 97.7459 212.2C96.0859 212.2 94.7659 212.92 93.8659 213.64V208.94L91.9859 209.24V223H93.8659V214.96C94.6059 214.52 95.8059 214 97.0459 214ZM110.414 216.56V217.52C109.934 217.34 109.114 217.14 108.074 217.14C105.354 217.14 103.594 218.5 103.594 220.36C103.594 222.12 104.814 223.2 106.954 223.2C108.534 223.2 109.774 222.42 110.534 221.6V223H112.294V216.54C112.294 213.38 110.294 212.2 107.994 212.2C106.034 212.2 104.414 213.12 103.714 213.84V215.78C104.614 214.86 106.094 214.06 107.754 214.06C109.174 214.06 110.414 214.76 110.414 216.56ZM105.354 220.28C105.354 219.18 106.434 218.44 108.534 218.44C109.214 218.44 109.934 218.56 110.414 218.7V220.5C109.594 221.18 108.454 221.74 107.254 221.74C106.194 221.74 105.354 221.32 105.354 220.28ZM114.994 212.4V223H116.874V214.96C117.614 214.52 118.814 214 120.054 214C121.614 214 122.554 214.88 122.554 216.62V223H124.434V216.2C124.434 213.6 123.094 212.2 120.754 212.2C119.014 212.2 117.654 213 116.754 213.74V212.4H114.994ZM127.162 212.4V223H129.042V214.96C129.782 214.52 130.982 214 132.222 214C133.782 214 134.722 214.88 134.722 216.62V223H136.602V216.2C136.602 213.6 135.262 212.2 132.922 212.2C131.182 212.2 129.822 213 128.922 213.74V212.4H127.162ZM148.19 222.26V220.6C147.41 221.04 145.95 221.42 144.53 221.42C142.31 221.42 140.87 220.4 140.73 218.28H148.41V217.4C148.41 214.1 146.75 212.18 143.85 212.18C140.89 212.18 138.83 214.24 138.83 217.7C138.83 221.3 141.11 223.2 144.35 223.2C145.81 223.2 147.43 222.82 148.19 222.26ZM143.75 213.8C145.61 213.8 146.53 215 146.57 217H140.71C140.81 214.98 141.99 213.8 143.75 213.8ZM150.795 209.24V223H152.675V208.94L150.795 209.24ZM166.195 216.56V217.52C165.715 217.34 164.895 217.14 163.855 217.14C161.135 217.14 159.375 218.5 159.375 220.36C159.375 222.12 160.595 223.2 162.735 223.2C164.315 223.2 165.555 222.42 166.315 221.6V223H168.075V216.54C168.075 213.38 166.075 212.2 163.775 212.2C161.815 212.2 160.195 213.12 159.495 213.84V215.78C160.395 214.86 161.875 214.06 163.535 214.06C164.955 214.06 166.195 214.76 166.195 216.56ZM161.135 220.28C161.135 219.18 162.215 218.44 164.315 218.44C164.995 218.44 165.715 218.56 166.195 218.7V220.5C165.375 221.18 164.235 221.74 163.035 221.74C161.975 221.74 161.135 221.32 161.135 220.28ZM174.755 223.2C177.795 223.2 180.495 221.32 180.495 217.42C180.495 213.9 178.315 212.2 175.835 212.2C174.355 212.2 173.235 212.76 172.535 213.34V212.4H170.775V226.16H172.655V222.94C173.255 223.1 173.895 223.2 174.755 223.2ZM175.315 213.88C177.255 213.88 178.555 215.2 178.555 217.54C178.555 220.26 176.875 221.52 174.675 221.52C173.835 221.52 173.195 221.36 172.655 221.18V214.76C173.255 214.34 174.175 213.88 175.315 213.88ZM186.767 223.2C189.807 223.2 192.507 221.32 192.507 217.42C192.507 213.9 190.327 212.2 187.847 212.2C186.367 212.2 185.247 212.76 184.547 213.34V212.4H182.787V226.16H184.667V222.94C185.267 223.1 185.907 223.2 186.767 223.2ZM187.327 213.88C189.267 213.88 190.567 215.2 190.567 217.54C190.567 220.26 188.887 221.52 186.687 221.52C185.847 221.52 185.207 221.36 184.667 221.18V214.76C185.267 214.34 186.187 213.88 187.327 213.88ZM194.798 209.24V223H196.678V208.94L194.798 209.24ZM200.466 210.92C201.286 210.92 201.806 210.48 201.806 209.82C201.806 209.14 201.286 208.7 200.466 208.7C199.646 208.7 199.106 209.14 199.106 209.82C199.106 210.48 199.646 210.92 200.466 210.92ZM199.506 212.4V223H201.386V212.4H199.506ZM212.632 213C211.832 212.46 210.692 212.18 209.472 212.18C206.232 212.18 203.752 214.38 203.752 217.7C203.752 220.92 206.212 223.2 209.452 223.2C210.692 223.2 211.832 222.9 212.632 222.36V220.48C211.832 221.06 210.712 221.42 209.512 221.42C207.272 221.42 205.632 219.94 205.632 217.7C205.632 215.4 207.272 213.96 209.532 213.96C210.712 213.96 211.832 214.3 212.632 214.88V213ZM221.098 216.56V217.52C220.618 217.34 219.798 217.14 218.758 217.14C216.038 217.14 214.278 218.5 214.278 220.36C214.278 222.12 215.498 223.2 217.638 223.2C219.218 223.2 220.458 222.42 221.218 221.6V223H222.978V216.54C222.978 213.38 220.978 212.2 218.678 212.2C216.718 212.2 215.098 213.12 214.398 213.84V215.78C215.298 214.86 216.778 214.06 218.438 214.06C219.858 214.06 221.098 214.76 221.098 216.56ZM216.038 220.28C216.038 219.18 217.118 218.44 219.218 218.44C219.898 218.44 220.618 218.56 221.098 218.7V220.5C220.278 221.18 219.138 221.74 217.938 221.74C216.878 221.74 216.038 221.32 216.038 220.28ZM231.997 222.54V220.92C231.517 221.22 230.737 221.5 229.897 221.5C228.817 221.5 228.177 221.02 228.177 219.8V214.06H231.917V212.4H228.177V210.4H227.737L224.677 213.58V214.06H226.297V220C226.297 222.56 227.777 223.2 229.437 223.2C230.617 223.2 231.477 222.88 231.997 222.54ZM235.037 210.92C235.857 210.92 236.377 210.48 236.377 209.82C236.377 209.14 235.857 208.7 235.037 208.7C234.217 208.7 233.677 209.14 233.677 209.82C233.677 210.48 234.217 210.92 235.037 210.92ZM234.077 212.4V223H235.957V212.4H234.077ZM243.822 223.2C247.002 223.2 249.322 220.82 249.322 217.7C249.322 214.54 247.002 212.2 243.822 212.2C240.642 212.2 238.322 214.54 238.322 217.7C238.322 220.82 240.642 223.2 243.822 223.2ZM243.822 221.44C241.742 221.44 240.182 219.84 240.182 217.7C240.182 215.52 241.742 213.96 243.822 213.96C245.922 213.96 247.462 215.52 247.462 217.7C247.462 219.86 245.922 221.44 243.822 221.44ZM251.615 212.4V223H253.495V214.96C254.235 214.52 255.435 214 256.675 214C258.235 214 259.175 214.88 259.175 216.62V223H261.055V216.2C261.055 213.6 259.715 212.2 257.375 212.2C255.635 212.2 254.275 213 253.375 213.74V212.4H251.615Z" fill="black"/>
<path d="M37.0234 213.498C42.5463 213.498 47.0234 209.021 47.0234 203.498C47.0234 197.975 42.5463 193.498 37.0234 193.498C31.5006 193.498 27.0234 197.975 27.0234 203.498C27.0234 209.021 31.5006 213.498 37.0234 213.498Z" stroke="black" stroke-width="2" stroke-linecap="round" stroke-linejoin="round"/>
<path d="M47.0234 203.498H43.0234" stroke="black" stroke-width="2" stroke-linecap="round" stroke-linejoin="round"/>
<path d="M31.0234 203.498H27.0234" stroke="black" stroke-width="2" stroke-linecap="round" stroke-linejoin="round"/>
<path d="M37.0234 197.498V193.498" stroke="black" stroke-width="2" stroke-linecap="round" stroke-linejoin="round"/>
<path d="M37.0234 213.498V209.498" stroke="black" stroke-width="2" stroke-linecap="round" stroke-linejoin="round"/>
<rect y="246" width="428" height="78" rx="8" fill="#47A561"/>
<path d="M92.94 280.24H90.88V288.32C90.88 290.74 89.72 292.24 87.22 292.24C84.72 292.24 83.56 290.74 83.56 288.32V280.24H81.5V288.3C81.5 291.8 83.22 294.2 87.22 294.2C91.22 294.2 92.94 291.8 92.94 288.3V280.24ZM100.574 288.26L99.2736 287.88C97.9136 287.48 97.0336 287.16 97.0336 286.2C97.0336 285.3 97.9336 284.86 99.0536 284.86C100.554 284.86 102.174 285.46 102.934 286.04V284.16C102.194 283.66 100.674 283.18 99.1536 283.18C96.6936 283.18 95.2136 284.5 95.2136 286.26C95.2136 288.1 96.5536 288.88 98.1336 289.28L99.4736 289.68C100.834 290.04 101.634 290.34 101.634 291.26C101.634 292.26 100.854 292.62 99.5936 292.62C97.9536 292.62 96.2936 291.98 95.3136 291.36V293.2C96.1136 293.7 97.8136 294.28 99.5136 294.28C101.894 294.28 103.414 293.22 103.414 291.22C103.414 289.58 102.274 288.74 100.574 288.26ZM111.762 287.56V288.52C111.282 288.34 110.462 288.14 109.422 288.14C106.702 288.14 104.942 289.5 104.942 291.36C104.942 293.12 106.162 294.2 108.302 294.2C109.882 294.2 111.122 293.42 111.882 292.6V294H113.642V287.54C113.642 284.38 111.642 283.2 109.342 283.2C107.382 283.2 105.762 284.12 105.062 284.84V286.78C105.962 285.86 107.442 285.06 109.102 285.06C110.522 285.06 111.762 285.76 111.762 287.56ZM106.702 291.28C106.702 290.18 107.782 289.44 109.882 289.44C110.562 289.44 111.282 289.56 111.762 289.7V291.5C110.942 292.18 109.802 292.74 108.602 292.74C107.542 292.74 106.702 292.32 106.702 291.28ZM125.481 292.34V284.08C124.501 283.68 123.201 283.2 121.461 283.2C118.421 283.2 115.841 285.04 115.841 288.66C115.841 291.54 117.701 293.24 120.361 293.24C121.801 293.24 122.901 292.66 123.601 292.12V292.58C123.601 294.52 122.461 295.6 120.281 295.6C118.701 295.6 117.381 295 116.421 294.34V296.26C117.301 296.8 118.741 297.36 120.461 297.36C123.221 297.36 125.481 295.92 125.481 292.34ZM117.761 288.44C117.761 286.12 119.301 284.88 121.441 284.88C122.341 284.88 123.021 285.06 123.601 285.28V290.62C122.981 291.06 121.981 291.54 120.821 291.54C119.041 291.54 117.761 290.52 117.761 288.44ZM137.115 293.26V291.6C136.335 292.04 134.875 292.42 133.455 292.42C131.235 292.42 129.795 291.4 129.655 289.28H137.335V288.4C137.335 285.1 135.675 283.18 132.775 283.18C129.815 283.18 127.755 285.24 127.755 288.7C127.755 292.3 130.035 294.2 133.275 294.2C134.735 294.2 136.355 293.82 137.115 293.26ZM132.675 284.8C134.535 284.8 135.455 286 135.495 288H129.635C129.735 285.98 130.915 284.8 132.675 284.8ZM152.573 284C151.773 283.46 150.633 283.18 149.413 283.18C146.173 283.18 143.693 285.38 143.693 288.7C143.693 291.92 146.153 294.2 149.393 294.2C150.633 294.2 151.773 293.9 152.573 293.36V291.48C151.773 292.06 150.653 292.42 149.453 292.42C147.213 292.42 145.573 290.94 145.573 288.7C145.573 286.4 147.213 284.96 149.473 284.96C150.653 284.96 151.773 285.3 152.573 285.88V284ZM159.079 292.4C157.519 292.4 156.579 291.52 156.579 289.78V283.4H154.699V290.2C154.699 292.8 156.039 294.2 158.359 294.2C160.119 294.2 161.479 293.4 162.379 292.66V294H164.139V283.4H162.259V291.42C161.499 291.88 160.319 292.4 159.079 292.4ZM171.687 288.26L170.387 287.88C169.027 287.48 168.147 287.16 168.147 286.2C168.147 285.3 169.047 284.86 170.167 284.86C171.667 284.86 173.287 285.46 174.047 286.04V284.16C173.307 283.66 171.787 283.18 170.267 283.18C167.807 283.18 166.327 284.5 166.327 286.26C166.327 288.1 167.667 288.88 169.247 289.28L170.587 289.68C171.947 290.04 172.747 290.34 172.747 291.26C172.747 292.26 171.967 292.62 170.707 292.62C169.067 292.62 167.407 291.98 166.427 291.36V293.2C167.227 293.7 168.927 294.28 170.627 294.28C173.007 294.28 174.527 293.22 174.527 291.22C174.527 289.58 173.387 288.74 171.687 288.26ZM182.935 293.54V291.92C182.455 292.22 181.675 292.5 180.835 292.5C179.755 292.5 179.115 292.02 179.115 290.8V285.06H182.855V283.4H179.115V281.4H178.675L175.615 284.58V285.06H177.235V291C177.235 293.56 178.715 294.2 180.375 294.2C181.555 294.2 182.415 293.88 182.935 293.54ZM189.974 294.2C193.154 294.2 195.474 291.82 195.474 288.7C195.474 285.54 193.154 283.2 189.974 283.2C186.794 283.2 184.474 285.54 184.474 288.7C184.474 291.82 186.794 294.2 189.974 294.2ZM189.974 292.44C187.894 292.44 186.334 290.84 186.334 288.7C186.334 286.52 187.894 284.96 189.974 284.96C192.074 284.96 193.614 286.52 193.614 288.7C193.614 290.86 192.074 292.44 189.974 292.44ZM197.767 283.4V294H199.647V285.98C200.367 285.54 201.467 285 202.627 285C204.047 285 204.927 285.86 204.927 287.54V294H206.807V287.02C206.807 286.66 206.787 286.3 206.727 285.98C207.487 285.52 208.607 285 209.787 285C211.227 285 212.107 285.86 212.107 287.54V294H213.967V287.12C213.967 284.58 212.707 283.2 210.507 283.2C208.667 283.2 207.307 284.1 206.387 284.92C205.847 283.8 204.807 283.2 203.327 283.2C201.667 283.2 200.387 284 199.527 284.74V283.4H197.767ZM217.693 281.92C218.513 281.92 219.033 281.48 219.033 280.82C219.033 280.14 218.513 279.7 217.693 279.7C216.873 279.7 216.333 280.14 216.333 280.82C216.333 281.48 216.873 281.92 217.693 281.92ZM216.733 283.4V294H218.613V283.4H216.733ZM230.218 294V292.24H223.478L229.818 284.76V283.4H221.278V285.16H227.178L220.878 292.64V294H230.218ZM238.656 287.56V288.52C238.176 288.34 237.356 288.14 236.316 288.14C233.596 288.14 231.836 289.5 231.836 291.36C231.836 293.12 233.056 294.2 235.196 294.2C236.776 294.2 238.016 293.42 238.776 292.6V294H240.536V287.54C240.536 284.38 238.536 283.2 236.236 283.2C234.276 283.2 232.656 284.12 231.956 284.84V286.78C232.856 285.86 234.336 285.06 235.996 285.06C237.416 285.06 238.656 285.76 238.656 287.56ZM233.596 291.28C233.596 290.18 234.676 289.44 236.776 289.44C237.456 289.44 238.176 289.56 238.656 289.7V291.5C237.836 292.18 236.696 292.74 235.496 292.74C234.436 292.74 233.596 292.32 233.596 291.28ZM249.556 293.54V291.92C249.076 292.22 248.296 292.5 247.456 292.5C246.376 292.5 245.736 292.02 245.736 290.8V285.06H249.476V283.4H245.736V281.4H245.296L242.236 284.58V285.06H243.856V291C243.856 293.56 245.336 294.2 246.996 294.2C248.176 294.2 249.036 293.88 249.556 293.54ZM252.595 281.92C253.415 281.92 253.935 281.48 253.935 280.82C253.935 280.14 253.415 279.7 252.595 279.7C251.775 279.7 251.235 280.14 251.235 280.82C251.235 281.48 251.775 281.92 252.595 281.92ZM251.635 283.4V294H253.515V283.4H251.635ZM261.38 294.2C264.56 294.2 266.88 291.82 266.88 288.7C266.88 285.54 264.56 283.2 261.38 283.2C258.2 283.2 255.88 285.54 255.88 288.7C255.88 291.82 258.2 294.2 261.38 294.2ZM261.38 292.44C259.3 292.44 257.74 290.84 257.74 288.7C257.74 286.52 259.3 284.96 261.38 284.96C263.48 284.96 265.02 286.52 265.02 288.7C265.02 290.86 263.48 292.44 261.38 292.44ZM269.173 283.4V294H271.053V285.96C271.793 285.52 272.993 285 274.233 285C275.793 285 276.733 285.88 276.733 287.62V294H278.613V287.2C278.613 284.6 277.273 283.2 274.933 283.2C273.193 283.2 271.833 284 270.933 284.74V283.4H269.173Z" fill="black"/>
<path d="M43.0137 283.389H31.0137" stroke="black" stroke-width="2" stroke-linecap="round" stroke-linejoin="round"/>
<path d="M46.0137 279.389H28.0137" stroke="black" stroke-width="2" stroke-linecap="round" stroke-linejoin="round"/>
<path d="M46.0137 287.389H28.0137" stroke="black" stroke-width="2" stroke-linecap="round" stroke-linejoin="round"/>
<path d="M43.0137 291.389H31.0137" stroke="black" stroke-width="2" stroke-linecap="round" stroke-linejoin="round"/>
<rect y="328" width="428" height="78" rx="8" fill="#47A561"/>
<path d="M92.94 362.24H90.88V370.32C90.88 372.74 89.72 374.24 87.22 374.24C84.72 374.24 83.56 372.74 83.56 370.32V362.24H81.5V370.3C81.5 373.8 83.22 376.2 87.22 376.2C91.22 376.2 92.94 373.8 92.94 370.3V362.24ZM100.574 370.26L99.2736 369.88C97.9136 369.48 97.0336 369.16 97.0336 368.2C97.0336 367.3 97.9336 366.86 99.0536 366.86C100.554 366.86 102.174 367.46 102.934 368.04V366.16C102.194 365.66 100.674 365.18 99.1536 365.18C96.6936 365.18 95.2136 366.5 95.2136 368.26C95.2136 370.1 96.5536 370.88 98.1336 371.28L99.4736 371.68C100.834 372.04 101.634 372.34 101.634 373.26C101.634 374.26 100.854 374.62 99.5936 374.62C97.9536 374.62 96.2936 373.98 95.3136 373.36V375.2C96.1136 375.7 97.8136 376.28 99.5136 376.28C101.894 376.28 103.414 375.22 103.414 373.22C103.414 371.58 102.274 370.74 100.574 370.26ZM114.362 375.26V373.6C113.582 374.04 112.122 374.42 110.702 374.42C108.482 374.42 107.042 373.4 106.902 371.28H114.582V370.4C114.582 367.1 112.922 365.18 110.022 365.18C107.062 365.18 105.002 367.24 105.002 370.7C105.002 374.3 107.282 376.2 110.522 376.2C111.982 376.2 113.602 375.82 114.362 375.26ZM109.922 366.8C111.782 366.8 112.702 368 112.742 370H106.882C106.982 367.98 108.162 366.8 109.922 366.8ZM116.966 365.4V376H118.846V368.12C119.566 367.58 120.666 367 121.706 367C122.466 367 123.086 367.22 123.546 367.5V365.52C123.166 365.32 122.726 365.2 122.266 365.2C120.846 365.2 119.546 366.1 118.726 366.92V365.4H116.966ZM130.679 363.94C131.499 363.94 132.019 363.5 132.019 362.82C132.019 362.14 131.499 361.72 130.679 361.72C129.859 361.72 129.319 362.14 129.319 362.82C129.319 363.5 129.859 363.94 130.679 363.94ZM128.679 379.36C130.339 379 131.599 377.94 131.599 375.82V365.4H129.719V375.76C129.719 376.9 129.239 377.46 128.119 377.84L128.679 379.36ZM139.466 376.2C142.646 376.2 144.966 373.82 144.966 370.7C144.966 367.54 142.646 365.2 139.466 365.2C136.286 365.2 133.966 367.54 133.966 370.7C133.966 373.82 136.286 376.2 139.466 376.2ZM139.466 374.44C137.386 374.44 135.826 372.84 135.826 370.7C135.826 368.52 137.386 366.96 139.466 366.96C141.566 366.96 143.106 368.52 143.106 370.7C143.106 372.86 141.566 374.44 139.466 374.44ZM151.559 374.4C149.999 374.4 149.059 373.52 149.059 371.78V365.4H147.179V372.2C147.179 374.8 148.519 376.2 150.839 376.2C152.599 376.2 153.959 375.4 154.859 374.66V376H156.619V365.4H154.739V373.42C153.979 373.88 152.799 374.4 151.559 374.4ZM159.427 365.4V376H161.307V368.12C162.027 367.58 163.127 367 164.167 367C164.927 367 165.547 367.22 166.007 367.5V365.52C165.627 365.32 165.187 365.2 164.727 365.2C163.307 365.2 162.007 366.1 161.187 366.92V365.4H159.427ZM167.748 365.4V376H169.628V367.96C170.368 367.52 171.568 367 172.808 367C174.368 367 175.308 367.88 175.308 369.62V376H177.188V369.2C177.188 366.6 175.848 365.2 173.508 365.2C171.768 365.2 170.408 366 169.508 366.74V365.4H167.748ZM188.776 375.26V373.6C187.996 374.04 186.536 374.42 185.116 374.42C182.896 374.42 181.456 373.4 181.316 371.28H188.996V370.4C188.996 367.1 187.336 365.18 184.436 365.18C181.476 365.18 179.416 367.24 179.416 370.7C179.416 374.3 181.696 376.2 184.936 376.2C186.396 376.2 188.016 375.82 188.776 375.26ZM184.336 366.8C186.196 366.8 187.116 368 187.156 370H181.296C181.396 367.98 182.576 366.8 184.336 366.8ZM192.96 379.36C194.36 379.36 195.5 378.62 196.3 376.76L201.3 365.4H199.22L195.86 373.6L192.4 365.4H190.3L194.98 375.7L194.62 376.48C194.28 377.2 193.66 377.64 192.86 377.64C191.76 377.64 190.9 377 190.52 376.6V378.46C190.94 378.84 191.82 379.36 192.96 379.36ZM211.501 374.4C209.941 374.4 209.001 373.52 209.001 371.78V365.4H207.121V372.2C207.121 374.8 208.461 376.2 210.781 376.2C212.541 376.2 213.901 375.4 214.801 374.66V376H216.561V365.4H214.681V373.42C213.921 373.88 212.741 374.4 211.501 374.4ZM219.369 365.4V376H221.249V367.96C221.989 367.52 223.189 367 224.429 367C225.989 367 226.929 367.88 226.929 369.62V376H228.809V369.2C228.809 366.6 227.469 365.2 225.129 365.2C223.389 365.2 222.029 366 221.129 366.74V365.4H219.369ZM232.537 363.92C233.357 363.92 233.877 363.48 233.877 362.82C233.877 362.14 233.357 361.7 232.537 361.7C231.717 361.7 231.177 362.14 231.177 362.82C231.177 363.48 231.717 363.92 232.537 363.92ZM231.577 365.4V376H233.457V365.4H231.577ZM235.402 367.06H236.942V376H238.822V367.06H241.642V365.4H238.822V365.36C238.822 364.16 239.542 363.48 240.642 363.48C241.442 363.48 242.202 363.78 242.642 364.12V362.54C242.282 362.3 241.482 361.92 240.422 361.92C238.542 361.92 236.942 362.98 236.942 365.38V365.4H235.402V367.06ZM248.724 376.2C251.904 376.2 254.224 373.82 254.224 370.7C254.224 367.54 251.904 365.2 248.724 365.2C245.544 365.2 243.224 367.54 243.224 370.7C243.224 373.82 245.544 376.2 248.724 376.2ZM248.724 374.44C246.644 374.44 245.084 372.84 245.084 370.7C245.084 368.52 246.644 366.96 248.724 366.96C250.824 366.96 252.364 368.52 252.364 370.7C252.364 372.86 250.824 374.44 248.724 374.44ZM256.517 365.4V376H258.397V368.12C259.117 367.58 260.217 367 261.257 367C262.017 367 262.637 367.22 263.097 367.5V365.52C262.717 365.32 262.277 365.2 261.817 365.2C260.397 365.2 259.097 366.1 258.277 366.92V365.4H256.517ZM264.838 365.4V376H266.718V367.98C267.438 367.54 268.538 367 269.698 367C271.118 367 271.998 367.86 271.998 369.54V376H273.878V369.02C273.878 368.66 273.858 368.3 273.798 367.98C274.558 367.52 275.678 367 276.858 367C278.298 367 279.178 367.86 279.178 369.54V376H281.038V369.12C281.038 366.58 279.778 365.2 277.578 365.2C275.738 365.2 274.378 366.1 273.458 366.92C272.918 365.8 271.878 365.2 270.398 365.2C268.738 365.2 267.458 366 266.598 366.74V365.4H264.838ZM284.763 363.92C285.583 363.92 286.103 363.48 286.103 362.82C286.103 362.14 285.583 361.7 284.763 361.7C283.943 361.7 283.403 362.14 283.403 362.82C283.403 363.48 283.943 363.92 284.763 363.92ZM283.803 365.4V376H285.683V365.4H283.803ZM294.868 375.54V373.92C294.388 374.22 293.608 374.5 292.768 374.5C291.688 374.5 291.048 374.02 291.048 372.8V367.06H294.788V365.4H291.048V363.4H290.608L287.548 366.58V367.06H289.168V373C289.168 375.56 290.648 376.2 292.308 376.2C293.488 376.2 294.348 375.88 294.868 375.54ZM298.488 379.36C299.888 379.36 301.028 378.62 301.828 376.76L306.828 365.4H304.748L301.388 373.6L297.928 365.4H295.828L300.508 375.7L300.148 376.48C299.808 377.2 299.188 377.64 298.388 377.64C297.288 377.64 296.428 377 296.048 376.6V378.46C296.468 378.84 297.348 379.36 298.488 379.36Z" fill="black"/>
<g clip-path="url(#clip0_1217_6719)">
<path d="M42.0137 376.389V374.389C42.0137 373.328 41.5922 372.31 40.8421 371.56C40.092 370.81 39.0745 370.389 38.0137 370.389H30.0137C28.9528 370.389 27.9354 370.81 27.1852 371.56C26.4351 372.31 26.0137 373.328 26.0137 374.389V376.389" stroke="black" stroke-width="2" stroke-linecap="round" stroke-linejoin="round"/>
<path d="M34.0137 366.389C36.2228 366.389 38.0137 364.598 38.0137 362.389C38.0137 360.18 36.2228 358.389 34.0137 358.389C31.8045 358.389 30.0137 360.18 30.0137 362.389C30.0137 364.598 31.8045 366.389 34.0137 366.389Z" stroke="black" stroke-width="2" stroke-linecap="round" stroke-linejoin="round"/>
<path d="M48.0137 376.389V374.389C48.013 373.502 47.718 372.641 47.175 371.941C46.632 371.241 45.8718 370.74 45.0137 370.519" stroke="black" stroke-width="2" stroke-linecap="round" stroke-linejoin="round"/>
<path d="M41.0137 358.519C41.8741 358.739 42.6367 359.239 43.1813 359.941C43.7259 360.643 44.0215 361.506 44.0215 362.394C44.0215 363.282 43.7259 364.145 43.1813 364.846C42.6367 365.548 41.8741 366.048 41.0137 366.269" stroke="black" stroke-width="2" stroke-linecap="round" stroke-linejoin="round"/>
</g>
<rect x="0.5" y="0.5" width="427" height="77" rx="7.5" fill="#5ACC79" stroke="url(#paint0_linear_1217_6719)"/>
<path d="M88.92 29.38C88.92 30.18 88.3 30.68 86.64 30.68C84.78 30.68 82.46 29.86 81.14 28.92V31.74C82.14 32.42 84.12 33.2 86.5 33.2C89.5 33.2 91.72 31.8 91.72 29.2C91.72 26.48 89.74 25.74 87.56 25.1L86.08 24.68C84.6 24.26 83.62 23.94 83.62 22.96C83.62 22.12 84.4 21.62 85.78 21.62C87.58 21.62 89.62 22.4 90.84 23.2V20.28C89.96 19.74 88.32 19 85.86 19C83.04 19 80.7 20.48 80.7 23.16C80.7 25.8 82.7 26.62 84.86 27.2L86.62 27.68C88.04 28.1 88.92 28.42 88.92 29.38ZM102.743 32.16V29.9C101.923 30.34 100.523 30.78 99.0433 30.78C96.9633 30.78 95.9033 30 95.7233 28.44H102.903V27.24C102.903 24.08 101.223 22.2 98.2633 22.2C95.1633 22.2 93.1033 24.32 93.1033 27.7C93.1033 31.24 95.3833 33.2 98.7433 33.2C100.363 33.2 102.003 32.74 102.743 32.16ZM98.1033 24.38C99.6633 24.38 100.363 25.34 100.383 26.78H95.7033C95.8033 25.34 96.6233 24.38 98.1033 24.38ZM113.61 23.08C112.75 22.48 111.53 22.2 110.21 22.2C106.97 22.2 104.49 24.44 104.49 27.7C104.49 30.86 106.93 33.2 110.19 33.2C111.51 33.2 112.75 32.88 113.61 32.3V29.74C112.67 30.4 111.51 30.78 110.29 30.78C108.39 30.78 107.09 29.54 107.09 27.7C107.09 25.8 108.39 24.62 110.31 24.62C111.51 24.62 112.67 25 113.61 25.64V23.08ZM120.137 30.7C118.677 30.7 117.997 29.9 117.997 28.54V22.4H115.417V29.2C115.417 31.64 116.537 33.2 119.037 33.2C120.737 33.2 122.097 32.46 122.957 31.68V33H125.357V22.4H122.797V30.04C122.137 30.38 121.157 30.7 120.137 30.7ZM127.743 22.4V33H130.323V25.42C130.963 25.06 131.863 24.7 132.783 24.7C133.583 24.7 134.283 24.9 134.763 25.18V22.44C134.423 22.28 134.043 22.2 133.643 22.2C132.243 22.2 130.963 23 130.163 23.78V22.4H127.743ZM145.419 32.16V29.9C144.599 30.34 143.199 30.78 141.719 30.78C139.639 30.78 138.579 30 138.399 28.44H145.579V27.24C145.579 24.08 143.899 22.2 140.939 22.2C137.839 22.2 135.779 24.32 135.779 27.7C135.779 31.24 138.059 33.2 141.419 33.2C143.039 33.2 144.679 32.74 145.419 32.16ZM140.779 24.38C142.339 24.38 143.039 25.34 143.059 26.78H138.379C138.479 25.34 139.299 24.38 140.779 24.38ZM154.886 33H157.306V18.88L154.726 19.24V22.34C154.246 22.26 153.726 22.2 153.086 22.2C150.126 22.2 147.166 23.94 147.166 27.96C147.166 31.66 149.566 33.2 151.846 33.2C153.226 33.2 154.186 32.78 154.886 32.22V33ZM153.226 24.5C153.806 24.5 154.306 24.6 154.726 24.72V30.34C154.226 30.62 153.446 30.9 152.626 30.9C150.966 30.9 149.826 29.86 149.826 27.78C149.826 25.38 151.426 24.5 153.226 24.5ZM168.115 33.2C171.075 33.2 174.035 31.46 174.035 27.44C174.035 23.74 171.635 22.2 169.355 22.2C167.975 22.2 167.015 22.62 166.315 23.18V22.4H163.895V36.16H166.475V33.06C166.955 33.14 167.475 33.2 168.115 33.2ZM168.535 24.5C170.195 24.5 171.375 25.54 171.375 27.62C171.375 30.02 169.775 30.9 167.975 30.9C167.395 30.9 166.895 30.8 166.475 30.68V25.06C166.975 24.78 167.715 24.5 168.535 24.5ZM175.946 22.4V33H178.526V25.42C179.166 25.06 180.066 24.7 180.986 24.7C181.786 24.7 182.486 24.9 182.966 25.18V22.44C182.626 22.28 182.246 22.2 181.846 22.2C180.446 22.2 179.166 23 178.366 23.78V22.4H175.946ZM189.582 33.2C192.822 33.2 195.202 30.82 195.202 27.7C195.202 24.5 192.822 22.2 189.582 22.2C186.362 22.2 183.982 24.5 183.982 27.7C183.982 30.82 186.362 33.2 189.582 33.2ZM189.582 30.78C187.882 30.78 186.562 29.5 186.562 27.7C186.562 25.86 187.882 24.62 189.582 24.62C191.302 24.62 192.642 25.86 192.642 27.7C192.642 29.5 191.302 30.78 189.582 30.78ZM205.798 23.08C204.938 22.48 203.718 22.2 202.398 22.2C199.158 22.2 196.678 24.44 196.678 27.7C196.678 30.86 199.118 33.2 202.378 33.2C203.698 33.2 204.938 32.88 205.798 32.3V29.74C204.858 30.4 203.698 30.78 202.478 30.78C200.578 30.78 199.278 29.54 199.278 27.7C199.278 25.8 200.578 24.62 202.498 24.62C203.698 24.62 204.858 25 205.798 25.64V23.08ZM216.864 32.16V29.9C216.044 30.34 214.644 30.78 213.164 30.78C211.084 30.78 210.024 30 209.844 28.44H217.024V27.24C217.024 24.08 215.344 22.2 212.384 22.2C209.284 22.2 207.224 24.32 207.224 27.7C207.224 31.24 209.504 33.2 212.864 33.2C214.484 33.2 216.124 32.74 216.864 32.16ZM212.224 24.38C213.784 24.38 214.484 25.34 214.504 26.78H209.824C209.924 25.34 210.744 24.38 212.224 24.38ZM224.111 26.94L223.071 26.64C221.771 26.3 220.991 26.08 220.991 25.36C220.991 24.76 221.671 24.48 222.571 24.48C224.111 24.48 225.851 25.1 226.611 25.68V23.14C225.911 22.68 224.271 22.2 222.711 22.2C220.071 22.2 218.491 23.56 218.491 25.48C218.491 27.42 219.911 28.2 221.631 28.6L222.671 28.86C223.931 29.18 224.631 29.4 224.631 30.06C224.631 30.74 224.071 30.98 223.011 30.98C221.431 30.98 219.771 30.38 218.731 29.76V32.24C219.471 32.68 221.231 33.24 222.871 33.24C225.391 33.24 227.051 32.14 227.051 29.98C227.051 28.38 226.011 27.42 224.111 26.94ZM233.896 26.94L232.856 26.64C231.556 26.3 230.776 26.08 230.776 25.36C230.776 24.76 231.456 24.48 232.356 24.48C233.896 24.48 235.636 25.1 236.396 25.68V23.14C235.696 22.68 234.056 22.2 232.496 22.2C229.856 22.2 228.276 23.56 228.276 25.48C228.276 27.42 229.696 28.2 231.416 28.6L232.456 28.86C233.716 29.18 234.416 29.4 234.416 30.06C234.416 30.74 233.856 30.98 232.796 30.98C231.216 30.98 229.556 30.38 228.516 29.76V32.24C229.256 32.68 231.016 33.24 232.656 33.24C235.176 33.24 236.836 32.14 236.836 29.98C236.836 28.38 235.796 27.42 233.896 26.94ZM88.46 59H90.88V44.88L88.3 45.24V48.34C87.82 48.26 87.3 48.2 86.66 48.2C83.7 48.2 80.74 49.94 80.74 53.96C80.74 57.66 83.14 59.2 85.42 59.2C86.8 59.2 87.76 58.78 88.46 58.22V59ZM86.8 50.5C87.38 50.5 87.88 50.6 88.3 50.72V56.34C87.8 56.62 87.02 56.9 86.2 56.9C84.54 56.9 83.4 55.86 83.4 53.78C83.4 51.38 85 50.5 86.8 50.5ZM102.431 58.16V55.9C101.611 56.34 100.211 56.78 98.7308 56.78C96.6508 56.78 95.5908 56 95.4108 54.44H102.591V53.24C102.591 50.08 100.911 48.2 97.9508 48.2C94.8508 48.2 92.7908 50.32 92.7908 53.7C92.7908 57.24 95.0708 59.2 98.4308 59.2C100.051 59.2 101.691 58.74 102.431 58.16ZM97.7908 50.38C99.3508 50.38 100.051 51.34 100.071 52.78H95.3908C95.4908 51.34 96.3108 50.38 97.7908 50.38ZM109.678 52.94L108.638 52.64C107.338 52.3 106.558 52.08 106.558 51.36C106.558 50.76 107.238 50.48 108.138 50.48C109.678 50.48 111.418 51.1 112.178 51.68V49.14C111.478 48.68 109.838 48.2 108.278 48.2C105.638 48.2 104.058 49.56 104.058 51.48C104.058 53.42 105.478 54.2 107.198 54.6L108.238 54.86C109.498 55.18 110.198 55.4 110.198 56.06C110.198 56.74 109.638 56.98 108.577 56.98C106.998 56.98 105.338 56.38 104.298 55.76V58.24C105.038 58.68 106.798 59.24 108.438 59.24C110.958 59.24 112.618 58.14 112.618 55.98C112.618 54.38 111.578 53.42 109.678 52.94ZM115.783 47.18C116.883 47.18 117.543 46.66 117.543 45.8C117.543 44.94 116.883 44.44 115.783 44.44C114.703 44.44 114.023 44.94 114.023 45.8C114.023 46.66 114.703 47.18 115.783 47.18ZM114.483 48.4V59H117.063V48.4H114.483ZM129.1 57V49.12C128.06 48.7 126.7 48.2 124.82 48.2C121.88 48.2 119.08 49.92 119.08 53.58C119.08 56.36 120.98 58.04 123.54 58.04C124.82 58.04 125.84 57.6 126.52 57.1V57.38C126.52 58.94 125.66 59.94 123.5 59.94C122.04 59.94 120.74 59.4 119.76 58.7V61.3C120.64 61.84 122.08 62.36 123.78 62.36C126.66 62.36 129.1 60.9 129.1 57ZM121.74 53.24C121.74 51.42 123.08 50.5 124.8 50.5C125.48 50.5 126.04 50.64 126.52 50.78V55.1C125.94 55.42 125.12 55.72 124.26 55.72C122.86 55.72 121.74 55 121.74 53.24ZM136.654 50.7C138.094 50.7 138.794 51.5 138.794 52.86V59H141.374V52.2C141.374 49.76 140.234 48.2 137.754 48.2C136.074 48.2 134.694 48.94 133.834 49.7V48.4H131.414V59H133.994V51.36C134.674 51.02 135.634 50.7 136.654 50.7ZM152.88 58.16V55.9C152.06 56.34 150.66 56.78 149.18 56.78C147.1 56.78 146.04 56 145.86 54.44H153.04V53.24C153.04 50.08 151.36 48.2 148.4 48.2C145.3 48.2 143.24 50.32 143.24 53.7C143.24 57.24 145.52 59.2 148.88 59.2C150.5 59.2 152.14 58.74 152.88 58.16ZM148.24 50.38C149.8 50.38 150.5 51.34 150.52 52.78H145.84C145.94 51.34 146.76 50.38 148.24 50.38ZM162.347 59H164.767V44.88L162.187 45.24V48.34C161.707 48.26 161.187 48.2 160.547 48.2C157.587 48.2 154.627 49.94 154.627 53.96C154.627 57.66 157.027 59.2 159.307 59.2C160.687 59.2 161.647 58.78 162.347 58.22V59ZM160.687 50.5C161.267 50.5 161.767 50.6 162.187 50.72V56.34C161.687 56.62 160.907 56.9 160.087 56.9C158.427 56.9 157.287 55.86 157.287 53.78C157.287 51.38 158.887 50.5 160.687 50.5ZM170.516 50.66H171.976V59H174.556V50.66H177.196V48.4H174.556C174.656 47.42 175.336 46.96 176.216 46.96C176.976 46.96 177.736 47.24 178.116 47.54V45.44C177.756 45.2 176.956 44.86 175.896 44.86C173.736 44.86 172.076 46.02 171.976 48.4H170.516V50.66ZM184.192 59.2C187.432 59.2 189.812 56.82 189.812 53.7C189.812 50.5 187.432 48.2 184.192 48.2C180.972 48.2 178.592 50.5 178.592 53.7C178.592 56.82 180.972 59.2 184.192 59.2ZM184.192 56.78C182.492 56.78 181.172 55.5 181.172 53.7C181.172 51.86 182.492 50.62 184.192 50.62C185.912 50.62 187.252 51.86 187.252 53.7C187.252 55.5 185.912 56.78 184.192 56.78ZM191.727 48.4V59H194.307V51.42C194.947 51.06 195.847 50.7 196.767 50.7C197.567 50.7 198.267 50.9 198.747 51.18V48.44C198.407 48.28 198.027 48.2 197.627 48.2C196.227 48.2 194.947 49 194.147 49.78V48.4H191.727ZM207.022 44.88L204.442 45.24V58.3C205.542 58.7 206.922 59.2 208.882 59.2C211.802 59.2 214.582 57.48 214.582 53.46C214.582 49.9 212.522 48.2 210.062 48.2C208.802 48.2 207.742 48.62 207.022 49.1V44.88ZM209.282 50.56C210.702 50.56 211.922 51.48 211.922 53.62C211.922 56.12 210.502 56.9 208.742 56.9C208.082 56.9 207.502 56.78 207.022 56.64V51.1C207.582 50.82 208.402 50.56 209.282 50.56ZM222.513 52.88V53.42C222.053 53.22 221.293 53.04 220.312 53.04C217.812 53.04 215.972 54.32 215.972 56.26C215.972 58.14 217.293 59.2 219.413 59.2C220.873 59.2 222.013 58.54 222.673 57.82V59H225.073V52.76C225.073 49.46 223.013 48.2 220.533 48.2C218.533 48.2 216.853 49.08 216.153 49.78V52.42C217.053 51.52 218.613 50.76 220.193 50.76C221.493 50.76 222.513 51.38 222.513 52.88ZM218.353 56.12C218.353 55.26 219.293 54.76 220.893 54.76C221.453 54.76 222.053 54.84 222.513 54.98V56.44C221.853 56.9 220.833 57.24 219.893 57.24C219.013 57.24 218.353 56.94 218.353 56.12ZM232.611 50.7C234.051 50.7 234.751 51.5 234.751 52.86V59H237.331V52.2C237.331 49.76 236.191 48.2 233.711 48.2C232.031 48.2 230.651 48.94 229.791 49.7V48.4H227.371V59H229.951V51.36C230.631 51.02 231.591 50.7 232.611 50.7ZM239.637 45.24V59H242.217V54.56H243.857L246.857 59H249.817L245.717 53.24L249.797 48.4H246.837L243.897 52.16H242.217V44.88L239.637 45.24ZM256.26 52.94L255.22 52.64C253.92 52.3 253.14 52.08 253.14 51.36C253.14 50.76 253.82 50.48 254.72 50.48C256.26 50.48 258 51.1 258.76 51.68V49.14C258.06 48.68 256.42 48.2 254.86 48.2C252.22 48.2 250.64 49.56 250.64 51.48C250.64 53.42 252.06 54.2 253.78 54.6L254.82 54.86C256.08 55.18 256.78 55.4 256.78 56.06C256.78 56.74 256.22 56.98 255.16 56.98C253.58 56.98 251.92 56.38 250.88 55.76V58.24C251.62 58.68 253.38 59.24 255.02 59.24C257.54 59.24 259.2 58.14 259.2 55.98C259.2 54.38 258.16 53.42 256.26 52.94Z" fill="#08051E"/>
<rect x="18" y="17" width="42" height="44" rx="8" fill="#53C171"/>
<path d="M34 38V34C34 32.6739 34.5268 31.4021 35.4645 30.4645C36.4021 29.5268 37.6739 29 39 29C40.3261 29 41.5979 29.5268 42.5355 30.4645C43.4732 31.4021 44 32.6739 44 34V38" stroke="white" stroke-width="2" stroke-linecap="round" stroke-linejoin="round"/>
<path d="M46 38H32C30.8954 38 30 38.8954 30 40V47C30 48.1046 30.8954 49 32 49H46C47.1046 49 48 48.1046 48 47V40C48 38.8954 47.1046 38 46 38Z" stroke="white" stroke-width="2" stroke-linecap="round" stroke-linejoin="round"/>
<defs>
<linearGradient id="paint0_linear_1217_6719" x1="214" y1="0" x2="214" y2="78" gradientUnits="userSpaceOnUse">
<stop stop-color="#6EDA8D"/>
<stop offset="1" stop-color="#4C8F5F" stop-opacity="0"/>
</linearGradient>
<clipPath id="clip0_1217_6719">
<rect width="24" height="24" fill="white" transform="translate(25.0137 355.389)"/>
</clipPath>
</defs>
</svg>
