<svg width="1073" height="541" viewBox="0 0 1073 541" fill="none" xmlns="http://www.w3.org/2000/svg">
<g clip-path="url(#clip0_174_712)">
<mask id="mask0_174_712" style="mask-type:alpha" maskUnits="userSpaceOnUse" x="0" y="0" width="1073" height="541">
<rect x="0.71582" y="0.345215" width="1072" height="540" rx="12" fill="url(#paint0_linear_174_712)"/>
</mask>
<g mask="url(#mask0_174_712)">
<path fill-rule="evenodd" clip-rule="evenodd" d="M535.69 -109.059L534.801 -109.948L535.508 -110.655L536.397 -109.766L537.286 -110.655L537.993 -109.948L537.104 -109.059L930.349 284.186L929.642 284.893L536.397 -108.352L143.152 284.893L142.445 284.186L535.69 -109.059ZM1247.51 642.487L536.398 -63.6663L-174.711 642.487L-175.416 641.777L535.688 -64.371L534.806 -65.2472L535.51 -65.9568L536.398 -65.0757L537.285 -65.9568L537.99 -65.2472L537.107 -64.371L1248.21 641.777L1247.51 642.487ZM536.398 -23.9413L1153.14 585.372L1153.84 584.661L537.109 -24.6442L537.989 -25.5139L537.287 -26.2253L536.398 -25.3471L535.509 -26.2253L534.806 -25.5139L535.686 -24.6442L-81.0494 584.661L-80.3466 585.372L536.398 -23.9413ZM1063.74 540.674L536.397 20.7561L9.05151 540.674L8.34937 539.962L535.685 20.0539L534.804 19.1857L535.506 18.4736L536.397 19.3518L537.287 18.4736L537.99 19.1857L537.109 20.0539L1064.44 539.962L1063.74 540.674ZM536.4 65.4502L974.348 495.976L975.049 495.263L537.113 64.7491L537.991 63.8854L537.29 63.1723L536.4 64.0479L535.509 63.1723L534.808 63.8854L535.686 64.7491L97.7504 495.263L98.4513 495.976L536.4 65.4502ZM894.884 456.244L536.399 105.176L177.914 456.244L177.214 455.529L535.684 104.476L534.809 103.618L535.508 102.904L536.399 103.776L537.289 102.904L537.989 103.618L537.113 104.476L895.583 455.529L894.884 456.244ZM536.399 154.876L1041.39 659.869L1042.1 659.162L537.106 154.169L537.994 153.281L537.287 152.574L536.399 153.462L535.51 152.574L534.803 153.281L535.692 154.169L30.6985 659.162L31.4055 659.869L536.399 154.876ZM899.845 563.022L536.396 199.573L172.947 563.022L172.24 562.315L535.689 198.866L534.803 197.98L535.51 197.273L536.396 198.158L537.281 197.273L537.988 197.98L537.103 198.866L900.552 562.315L899.845 563.022ZM536.398 249.181L601.857 312.216L602.551 311.496L537.119 248.487L537.988 247.651L537.294 246.93L536.398 247.793L535.502 246.93L534.809 247.651L535.678 248.487L470.246 311.496L470.94 312.216L536.398 249.181Z" fill="url(#paint1_linear_174_712)"/>
</g>
</g>
<defs>
<linearGradient id="paint0_linear_174_712" x1="536.716" y1="0.345215" x2="536.716" y2="540.345" gradientUnits="userSpaceOnUse">
<stop stop-color="#FFFAF6"/>
<stop offset="1" stop-color="#FFFAF6" stop-opacity="0"/>
</linearGradient>
<linearGradient id="paint1_linear_174_712" x1="536.398" y1="-110.655" x2="536.398" y2="659.869" gradientUnits="userSpaceOnUse">
<stop offset="0.390509" stop-color="#E9E2DC"/>
<stop offset="1" stop-color="#FEFEFF"/>
</linearGradient>
<clipPath id="clip0_174_712">
<rect x="0.71582" y="0.345215" width="1072" height="540" rx="12" fill="white"/>
</clipPath>
</defs>
</svg>
