<svg width="354" height="194" viewBox="0 0 354 194" fill="none" xmlns="http://www.w3.org/2000/svg">
<path d="M3.42786 190.948C3.42786 190.948 12.9094 187.191 19.2305 184.895C25.5515 182.598 28.712 181.68 35.0331 179.467C41.3541 177.255 44.5146 176.754 50.8356 173.831C57.1567 170.909 60.3172 168.195 66.6382 164.855C72.9593 161.515 76.1198 160.806 82.4408 157.132C88.7619 153.458 91.9224 150.702 98.2434 146.486C104.564 142.269 107.725 140.349 114.046 136.049C120.367 131.749 123.528 128.116 129.849 124.985C136.17 121.854 139.33 122.439 145.651 120.393C151.972 118.347 155.133 117.596 161.454 114.757C167.775 111.918 170.935 109.831 177.256 106.198C183.577 102.566 186.738 99.5187 193.059 96.5963C199.38 93.6739 202.541 93.7157 208.862 91.5865C215.183 89.4573 218.343 88.4136 224.664 85.9504C230.985 83.4873 234.146 82.694 240.467 79.2707C246.788 75.8473 249.948 73.1754 256.269 68.8335C262.59 64.4917 265.751 61.1935 272.072 57.5614C278.393 53.9293 281.554 53.6788 287.875 50.6729C294.196 47.667 297.356 46.3728 303.677 42.5319C309.998 38.691 313.159 35.1424 319.48 31.4685C325.801 27.7947 328.961 27.6277 335.282 24.1625C341.603 20.6974 351.085 14.1429 351.085 14.1429" stroke="#E4E591" stroke-width="2"/>
<path d="M3.42785 193.797C2.63991 193.797 1.88422 193.484 1.32699 192.927C0.769765 192.37 0.456618 191.614 0.456421 190.826C0.456224 190.038 0.768993 189.283 1.32594 188.725C1.8829 188.168 2.63842 187.855 3.42636 187.854C4.21431 187.854 4.97015 188.166 5.52765 188.723C6.08516 189.28 6.39869 190.035 6.39928 190.823C6.39987 191.611 6.08748 192.367 5.5308 192.925C4.97413 193.482 4.21876 193.796 3.43082 193.797H3.42785Z" fill="#E4E591"/>
<path d="M19.0278 187.854C18.2399 187.854 17.4842 187.541 16.927 186.984C16.3697 186.427 16.0566 185.671 16.0564 184.883C16.0562 184.095 16.369 183.34 16.9259 182.782C17.4829 182.225 18.2384 181.912 19.0263 181.911C19.8143 181.911 20.5701 182.223 21.1276 182.78C21.6851 183.337 21.9987 184.093 21.9993 184.88C21.9998 185.668 21.6875 186.424 21.1308 186.982C20.5741 187.54 19.8187 187.853 19.0308 187.854H19.0278Z" fill="#E4E591"/>
<path d="M34.6279 182.654C33.8399 182.654 33.0842 182.341 32.527 181.784C31.9698 181.227 31.6566 180.471 31.6564 179.683C31.6562 178.895 31.969 178.14 32.526 177.582C33.0829 177.025 33.8384 176.712 34.6264 176.711C35.4143 176.711 36.1702 177.023 36.7277 177.58C37.2852 178.137 37.5987 178.893 37.5993 179.68C37.5999 180.468 37.2875 181.224 36.7308 181.782C36.1741 182.34 35.4188 182.653 34.6308 182.654H34.6279Z" fill="#E4E591"/>
<path d="M50.2278 176.711C49.4399 176.711 48.6842 176.398 48.127 175.841C47.5698 175.284 47.2566 174.529 47.2564 173.741C47.2562 172.953 47.569 172.197 48.1259 171.639C48.6829 171.082 49.4384 170.769 50.2264 170.768C51.0143 170.768 51.7701 171.081 52.3276 171.637C52.8852 172.194 53.1987 172.95 53.1993 173.738C53.1999 174.526 52.8875 175.281 52.3308 175.839C51.7741 176.397 51.0188 176.71 50.2308 176.711H50.2278Z" fill="#E4E591"/>
<path d="M66.5707 167.797C65.7828 167.797 65.0271 167.484 64.4698 166.927C63.9126 166.37 63.5995 165.614 63.5993 164.826C63.5991 164.038 63.9118 163.283 64.4688 162.725C65.0257 162.168 65.7813 161.855 66.5692 161.854C67.3572 161.854 68.113 162.166 68.6705 162.723C69.228 163.28 69.5415 164.035 69.5421 164.823C69.5427 165.611 69.2303 166.367 68.6737 166.925C68.117 167.482 67.3616 167.796 66.5737 167.797H66.5707Z" fill="#E4E591"/>
<path d="M82.1707 160.368C81.3828 160.368 80.6271 160.055 80.0699 159.498C79.5126 158.941 79.1995 158.186 79.1993 157.398C79.1991 156.61 79.5119 155.854 80.0688 155.297C80.6258 154.739 81.3813 154.426 82.1692 154.426C82.9572 154.425 83.713 154.738 84.2705 155.295C84.828 155.851 85.1415 156.607 85.1421 157.395C85.1427 158.183 84.8303 158.939 84.2737 159.496C83.717 160.054 82.9616 160.368 82.1737 160.368H82.1707Z" fill="#E4E591"/>
<path d="M97.7707 149.226C96.9828 149.226 96.2271 148.913 95.6699 148.355C95.1126 147.798 94.7995 147.043 94.7993 146.255C94.7991 145.467 95.1119 144.711 95.6688 144.154C96.2258 143.596 96.9813 143.283 97.7692 143.283C98.5572 143.282 99.313 143.595 99.8705 144.152C100.428 144.708 100.742 145.464 100.742 146.252C100.743 147.04 100.43 147.796 99.8737 148.353C99.317 148.911 98.5616 149.225 97.7737 149.226H97.7707Z" fill="#E4E591"/>
<path d="M113.371 138.826C112.583 138.826 111.827 138.513 111.27 137.955C110.713 137.398 110.399 136.643 110.399 135.855C110.399 135.067 110.712 134.311 111.269 133.754C111.826 133.196 112.581 132.883 113.369 132.883C114.157 132.882 114.913 133.195 115.471 133.752C116.028 134.308 116.342 135.064 116.342 135.852C116.343 136.64 116.03 137.396 115.474 137.953C114.917 138.511 114.162 138.825 113.374 138.826H113.371Z" fill="#E4E591"/>
<path d="M129.714 127.683C128.926 127.683 128.17 127.37 127.613 126.813C127.055 126.256 126.742 125.5 126.742 124.712C126.742 123.924 127.055 123.168 127.612 122.611C128.169 122.054 128.924 121.74 129.712 121.74C130.5 121.739 131.256 122.052 131.813 122.609C132.371 123.166 132.684 123.921 132.685 124.709C132.686 125.497 132.373 126.253 131.817 126.811C131.26 127.368 130.504 127.682 129.717 127.683H129.714Z" fill="#E4E591"/>
<path d="M145.314 123.226C144.526 123.226 143.77 122.913 143.213 122.355C142.655 121.798 142.342 121.043 142.342 120.255C142.342 119.467 142.655 118.711 143.212 118.154C143.769 117.596 144.524 117.283 145.312 117.283C146.1 117.282 146.856 117.595 147.413 118.152C147.971 118.708 148.284 119.464 148.285 120.252C148.286 121.04 147.973 121.796 147.417 122.353C146.86 122.911 146.104 123.225 145.317 123.226H145.314Z" fill="#E4E591"/>
<path d="M160.914 118.026C160.126 118.026 159.37 117.713 158.813 117.155C158.255 116.598 157.942 115.843 157.942 115.055C157.942 114.267 158.255 113.511 158.812 112.954C159.369 112.396 160.124 112.083 160.912 112.083C161.7 112.082 162.456 112.395 163.013 112.952C163.571 113.508 163.884 114.264 163.885 115.052C163.886 115.84 163.573 116.596 163.017 117.153C162.46 117.711 161.704 118.025 160.917 118.026H160.914Z" fill="#E4E591"/>
<path d="M177.256 109.111C176.468 109.111 175.713 108.798 175.156 108.241C174.598 107.684 174.285 106.929 174.285 106.141C174.285 105.353 174.598 104.597 175.155 104.04C175.711 103.482 176.467 103.169 177.255 103.168C178.043 103.168 178.799 103.481 179.356 104.037C179.914 104.594 180.227 105.35 180.228 106.138C180.228 106.926 179.916 107.681 179.359 108.239C178.803 108.797 178.047 109.11 177.259 109.111H177.256Z" fill="#E4E591"/>
<path d="M192.856 99.4541C192.068 99.4541 191.313 99.1412 190.756 98.5841C190.198 98.027 189.885 97.2714 189.885 96.4834C189.885 95.6955 190.198 94.9397 190.755 94.3824C191.311 93.825 192.067 93.5117 192.855 93.5113C193.643 93.5109 194.399 93.8234 194.956 94.3803C195.514 94.9371 195.827 95.6925 195.828 96.4805C195.828 97.2684 195.516 98.0243 194.959 98.582C194.403 99.1396 193.647 99.4533 192.859 99.4541H192.856Z" fill="#E4E591"/>
<path d="M208.456 94.2541C207.668 94.2541 206.913 93.9412 206.356 93.3841C205.798 92.827 205.485 92.0714 205.485 91.2834C205.485 90.4955 205.798 89.7397 206.355 89.1824C206.911 88.625 207.667 88.3117 208.455 88.3113C209.243 88.3109 209.999 88.6234 210.556 89.1803C211.114 89.7371 211.427 90.4925 211.428 91.2805C211.428 92.0684 211.116 92.8243 210.559 93.382C210.003 93.9396 209.247 94.2533 208.459 94.2541H208.456Z" fill="#E4E591"/>
<path d="M224.056 89.0541C223.268 89.0541 222.513 88.7412 221.956 88.1841C221.398 87.627 221.085 86.8714 221.085 86.0834C221.085 85.2955 221.398 84.5397 221.955 83.9824C222.511 83.425 223.267 83.1117 224.055 83.1113C224.843 83.1109 225.599 83.4234 226.156 83.9803C226.714 84.5371 227.027 85.2925 227.028 86.0805C227.028 86.8684 226.716 87.6243 226.159 88.182C225.603 88.7396 224.847 89.0533 224.059 89.0541H224.056Z" fill="#E4E591"/>
<path d="M240.399 82.3684C239.611 82.3684 238.856 82.0554 238.298 81.4984C237.741 80.9413 237.428 80.1857 237.428 79.3977C237.428 78.6098 237.74 77.854 238.297 77.2966C238.854 76.7393 239.61 76.4259 240.398 76.4255C241.186 76.4252 241.942 76.7377 242.499 77.2945C243.057 77.8514 243.37 78.6068 243.371 79.3947C243.371 80.1827 243.059 80.9386 242.502 81.4963C241.946 82.0539 241.19 82.3676 240.402 82.3684H240.399Z" fill="#E4E591"/>
<path d="M255.999 71.9684C255.211 71.9684 254.456 71.6554 253.898 71.0984C253.341 70.5413 253.028 69.7857 253.028 68.9977C253.028 68.2098 253.34 67.454 253.897 66.8966C254.454 66.3393 255.21 66.0259 255.998 66.0255C256.786 66.0251 257.542 66.3377 258.099 66.8945C258.657 67.4514 258.97 68.2068 258.971 68.9947C258.971 69.7827 258.659 70.5386 258.102 71.0962C257.546 71.6539 256.79 71.9676 256.002 71.9684H255.999Z" fill="#E4E591"/>
<path d="M271.599 60.8255C270.811 60.8255 270.056 60.5126 269.498 59.9555C268.941 59.3984 268.628 58.6428 268.628 57.8549C268.628 57.0669 268.94 56.3112 269.497 55.7538C270.054 55.1964 270.81 54.8831 271.598 54.8827C272.386 54.8823 273.142 55.1949 273.699 55.7517C274.257 56.3085 274.57 57.0639 274.571 57.8519C274.571 58.6398 274.259 59.3957 273.702 59.9534C273.146 60.511 272.39 60.8248 271.602 60.8255H271.599Z" fill="#E4E591"/>
<path d="M287.199 53.397C286.411 53.397 285.656 53.084 285.098 52.5269C284.541 51.9698 284.228 51.2142 284.228 50.4263C284.228 49.6383 284.54 48.8826 285.097 48.3252C285.654 47.7678 286.41 47.4545 287.198 47.4541C287.986 47.4537 288.742 47.7663 289.299 48.3231C289.857 48.8799 290.17 49.6354 290.171 50.4233C290.171 51.2113 289.859 51.9672 289.302 52.5248C288.746 53.0825 287.99 53.3962 287.202 53.397H287.199Z" fill="#E4E591"/>
<path d="M303.542 45.2255C302.754 45.2255 301.999 44.9126 301.441 44.3555C300.884 43.7984 300.571 43.0428 300.571 42.2549C300.571 41.4669 300.883 40.7112 301.44 40.1538C301.997 39.5964 302.753 39.2831 303.541 39.2827C304.329 39.2823 305.084 39.5949 305.642 40.1517C306.199 40.7085 306.513 41.4639 306.514 42.2519C306.514 43.0398 306.202 43.7957 305.645 44.3534C305.088 44.911 304.333 45.2248 303.545 45.2255H303.542Z" fill="#E4E591"/>
<path d="M319.142 34.0827C318.354 34.0827 317.598 33.7697 317.041 33.2126C316.484 32.6555 316.171 31.8999 316.171 31.112C316.17 30.3241 316.483 29.5683 317.04 29.0109C317.597 28.4536 318.353 28.1402 319.141 28.1398C319.929 28.1394 320.684 28.452 321.242 29.0088C321.799 29.5656 322.113 30.3211 322.114 31.109C322.114 31.897 321.802 32.6529 321.245 33.2105C320.688 33.7682 319.933 34.0819 319.145 34.0827L319.142 34.0827Z" fill="#E4E591"/>
<path d="M334.742 27.397C333.954 27.397 333.199 27.084 332.641 26.5269C332.084 25.9698 331.771 25.2142 331.771 24.4263C331.77 23.6383 332.083 22.8826 332.64 22.3252C333.197 21.7678 333.953 21.4545 334.741 21.4541C335.529 21.4537 336.284 21.7663 336.842 22.3231C337.399 22.8799 337.713 23.6354 337.714 24.4233C337.714 25.2113 337.402 25.9672 336.845 26.5248C336.288 27.0825 335.533 27.3962 334.745 27.397L334.742 27.397Z" fill="#E4E591"/>
<path d="M2.97144 190.202C2.97144 190.202 12.453 185.109 18.774 181.226C25.0951 177.343 28.2556 175.131 34.5766 170.789C40.8977 166.447 44.0582 163.149 50.3792 159.517C56.7003 155.885 59.8608 156.177 66.1818 152.628C72.5029 149.08 75.6634 145.99 81.9844 141.774C88.3055 137.557 91.466 134.718 97.787 131.545C104.108 128.372 107.269 128.247 113.59 125.909C119.911 123.571 123.071 123.196 129.392 119.856C135.713 116.516 138.874 112.508 145.195 109.21C151.516 105.912 154.676 106.037 160.997 103.365C167.318 100.693 170.479 98.4386 176.8 95.8502C183.121 93.2618 186.282 93.0948 192.603 90.4229C198.924 87.751 202.084 85.1208 208.405 82.4907C214.726 79.8605 217.887 80.3615 224.208 77.2721C230.529 74.1827 233.689 71.2603 240.01 67.0437C246.331 62.8271 249.492 59.9464 255.813 56.1891C262.134 52.4317 265.295 51.3462 271.616 48.2568C277.937 45.1674 281.097 44.5412 287.418 40.7421C293.739 36.943 296.9 32.6011 303.221 29.2612C309.542 25.9213 312.702 27.4243 319.023 24.0427C325.344 20.661 328.505 16.6114 334.826 12.3531C341.147 8.09471 350.629 2.75089 350.629 2.75089" stroke="#EA66FF" stroke-width="2"/>
<path d="M350.629 17.0857C349.841 17.0857 349.085 16.7728 348.528 16.2157C347.97 15.6586 347.657 14.903 347.657 14.115C347.657 13.3271 347.97 12.5713 348.527 12.014C349.084 11.4566 349.839 11.1433 350.627 11.1429C351.415 11.1425 352.171 11.455 352.728 12.0119C353.286 12.5687 353.599 13.3241 353.6 14.1121C353.601 14.9 353.288 15.6559 352.732 16.2136C352.175 16.7712 351.419 17.0849 350.632 17.0857L350.629 17.0857Z" fill="#E4E591"/>
<path d="M2.97143 193.143C2.18349 193.143 1.4278 192.83 0.870574 192.273C0.313344 191.716 0.000197079 190.96 9.29915e-08 190.172C-0.000196893 189.384 0.312572 188.628 0.869523 188.071C1.42647 187.514 2.182 187.2 2.96994 187.2C3.75789 187.2 4.51372 187.512 5.07123 188.069C5.62874 188.626 5.94227 189.381 5.94286 190.169C5.94345 190.957 5.63106 191.713 5.07438 192.271C4.51771 192.828 3.76234 193.142 2.9744 193.143H2.97143Z" fill="#EA66FF"/>
<path d="M18.5714 184.229C17.7835 184.229 17.0278 183.916 16.4705 183.359C15.9133 182.801 15.6002 182.046 15.6 181.258C15.5998 180.47 15.9125 179.714 16.4695 179.157C17.0265 178.599 17.782 178.286 18.5699 178.286C19.3579 178.285 20.1137 178.598 20.6712 179.155C21.2287 179.712 21.5422 180.467 21.5428 181.255C21.5434 182.043 21.231 182.799 20.6744 183.356C20.1177 183.914 19.3623 184.228 18.5744 184.229H18.5714Z" fill="#EA66FF"/>
<path d="M34.1714 173.829C33.3835 173.829 32.6278 173.516 32.0706 172.959C31.5134 172.401 31.2002 171.646 31.2 170.858C31.1998 170.07 31.5126 169.314 32.0695 168.757C32.6265 168.199 33.382 167.886 34.17 167.886C34.9579 167.885 35.7137 168.198 36.2712 168.755C36.8288 169.312 37.1423 170.067 37.1429 170.855C37.1435 171.643 36.8311 172.399 36.2744 172.956C35.7177 173.514 34.9624 173.828 34.1744 173.829H34.1714Z" fill="#EA66FF"/>
<path d="M49.7714 162.686C48.9835 162.686 48.2278 162.373 47.6706 161.816C47.1133 161.259 46.8002 160.503 46.8 159.715C46.7998 158.927 47.1126 158.171 47.6695 157.614C48.2265 157.057 48.982 156.743 49.7699 156.743C50.5579 156.742 51.3137 157.055 51.8712 157.612C52.4287 158.169 52.7423 158.924 52.7428 159.712C52.7434 160.5 52.431 161.256 51.8744 161.814C51.3177 162.371 50.5623 162.685 49.7744 162.686H49.7714Z" fill="#EA66FF"/>
<path d="M66.1143 155.257C65.3263 155.257 64.5707 154.944 64.0134 154.387C63.4562 153.83 63.143 153.074 63.1429 152.286C63.1427 151.499 63.4554 150.743 64.0124 150.185C64.5693 149.628 65.3249 149.315 66.1128 149.314C66.9007 149.314 67.6566 149.626 68.2141 150.183C68.7716 150.74 69.0851 151.496 69.0857 152.283C69.0863 153.071 68.7739 153.827 68.2172 154.385C67.6606 154.943 66.9052 155.256 66.1173 155.257H66.1143Z" fill="#EA66FF"/>
<path d="M81.7143 144.857C80.9263 144.857 80.1707 144.544 79.6134 143.987C79.0562 143.43 78.7431 142.674 78.7429 141.886C78.7427 141.099 79.0554 140.343 79.6124 139.785C80.1693 139.228 80.9249 138.915 81.7128 138.914C82.5007 138.914 83.2566 139.226 83.8141 139.783C84.3716 140.34 84.6851 141.096 84.6857 141.883C84.6863 142.671 84.3739 143.427 83.8172 143.985C83.2606 144.543 82.5052 144.856 81.7173 144.857H81.7143Z" fill="#EA66FF"/>
<path d="M97.3143 134.457C96.5264 134.457 95.7707 134.144 95.2134 133.587C94.6562 133.03 94.3431 132.274 94.3429 131.486C94.3427 130.699 94.6554 129.943 95.2124 129.385C95.7693 128.828 96.5249 128.515 97.3128 128.514C98.1008 128.514 98.8566 128.826 99.4141 129.383C99.9716 129.94 100.285 130.696 100.286 131.483C100.286 132.271 99.9739 133.027 99.4172 133.585C98.8606 134.143 98.1052 134.456 97.3173 134.457H97.3143Z" fill="#EA66FF"/>
<path d="M112.914 128.514C112.126 128.514 111.371 128.201 110.813 127.644C110.256 127.087 109.943 126.332 109.943 125.544C109.943 124.756 110.255 124 110.812 123.443C111.369 122.885 112.125 122.572 112.913 122.571C113.701 122.571 114.457 122.884 115.014 123.44C115.572 123.997 115.885 124.753 115.886 125.541C115.886 126.329 115.574 127.085 115.017 127.642C114.461 128.2 113.705 128.514 112.917 128.514H112.914Z" fill="#EA66FF"/>
<path d="M129.257 122.571C128.469 122.571 127.714 122.258 127.156 121.701C126.599 121.144 126.286 120.389 126.286 119.601C126.286 118.813 126.598 118.057 127.155 117.5C127.712 116.942 128.468 116.629 129.256 116.629C130.044 116.628 130.799 116.941 131.357 117.498C131.914 118.054 132.228 118.81 132.229 119.598C132.229 120.386 131.917 121.142 131.36 121.699C130.803 122.257 130.048 122.571 129.26 122.571H129.257Z" fill="#EA66FF"/>
<path d="M144.857 112.171C144.069 112.171 143.314 111.858 142.756 111.301C142.199 110.744 141.886 109.989 141.886 109.201C141.886 108.413 142.198 107.657 142.755 107.1C143.312 106.542 144.068 106.229 144.856 106.229C145.644 106.228 146.399 106.541 146.957 107.098C147.514 107.654 147.828 108.41 147.829 109.198C147.829 109.986 147.517 110.742 146.96 111.299C146.403 111.857 145.648 112.171 144.86 112.171H144.857Z" fill="#EA66FF"/>
<path d="M160.457 106.229C159.669 106.229 158.914 105.916 158.356 105.359C157.799 104.801 157.486 104.046 157.486 103.258C157.486 102.47 157.798 101.714 158.355 101.157C158.912 100.599 159.668 100.286 160.456 100.286C161.244 100.285 161.999 100.598 162.557 101.155C163.114 101.712 163.428 102.467 163.429 103.255C163.429 104.043 163.117 104.799 162.56 105.356C162.003 105.914 161.248 106.228 160.46 106.229H160.457Z" fill="#EA66FF"/>
<path d="M176.8 98.8C176.012 98.8 175.256 98.487 174.699 97.93C174.142 97.3729 173.829 96.6173 173.829 95.8293C173.828 95.0414 174.141 94.2856 174.698 93.7283C175.255 93.1709 176.011 92.8575 176.798 92.8571C177.586 92.8568 178.342 93.1693 178.9 93.7261C179.457 94.283 179.771 95.0384 179.771 95.8263C179.772 96.6143 179.46 97.3702 178.903 97.9279C178.346 98.4855 177.591 98.7992 176.803 98.8H176.8Z" fill="#EA66FF"/>
<path d="M192.4 93.6C191.612 93.6 190.856 93.287 190.299 92.73C189.742 92.1729 189.429 91.4173 189.429 90.6293C189.428 89.8414 189.741 89.0856 190.298 88.5282C190.855 87.9709 191.611 87.6575 192.399 87.6571C193.186 87.6567 193.942 87.9693 194.5 88.5261C195.057 89.0829 195.371 89.8384 195.371 90.6263C195.372 91.4143 195.06 92.1702 194.503 92.7279C193.946 93.2855 193.191 93.5992 192.403 93.6H192.4Z" fill="#EA66FF"/>
<path d="M208 85.4286C207.212 85.4286 206.456 85.1156 205.899 84.5585C205.342 84.0014 205.029 83.2458 205.029 82.4579C205.028 81.6699 205.341 80.9142 205.898 80.3568C206.455 79.7994 207.211 79.4861 207.998 79.4857C208.786 79.4853 209.542 79.7979 210.1 80.3547C210.657 80.9115 210.971 81.667 210.971 82.4549C210.972 83.2429 210.66 83.9988 210.103 84.5564C209.546 85.1141 208.791 85.4278 208.003 85.4286H208Z" fill="#EA66FF"/>
<path d="M223.6 80.2286C222.812 80.2286 222.056 79.9156 221.499 79.3585C220.942 78.8014 220.629 78.0458 220.629 77.2579C220.628 76.4699 220.941 75.7142 221.498 75.1568C222.055 74.5994 222.811 74.2861 223.599 74.2857C224.386 74.2853 225.142 74.5979 225.7 75.1547C226.257 75.7115 226.571 76.467 226.571 77.2549C226.572 78.0429 226.26 78.7988 225.703 79.3564C225.146 79.9141 224.391 80.2278 223.603 80.2286H223.6Z" fill="#EA66FF"/>
<path d="M239.943 69.8286C239.155 69.8286 238.399 69.5156 237.842 68.9585C237.285 68.4014 236.972 67.6458 236.971 66.8579C236.971 66.0699 237.284 65.3142 237.841 64.7568C238.398 64.1994 239.153 63.8861 239.941 63.8857C240.729 63.8853 241.485 64.1979 242.043 64.7547C242.6 65.3115 242.914 66.067 242.914 66.8549C242.915 67.6429 242.602 68.3988 242.046 68.9564C241.489 69.5141 240.734 69.8278 239.946 69.8286H239.943Z" fill="#EA66FF"/>
<path d="M255.543 59.4286C254.755 59.4286 253.999 59.1156 253.442 58.5585C252.885 58.0014 252.572 57.2458 252.571 56.4579C252.571 55.6699 252.884 54.9142 253.441 54.3568C253.998 53.7994 254.753 53.4861 255.541 53.4857C256.329 53.4853 257.085 53.7979 257.643 54.3547C258.2 54.9115 258.514 55.667 258.514 56.4549C258.515 57.2429 258.202 57.9988 257.646 58.5564C257.089 59.1141 256.334 59.4278 255.546 59.4286H255.543Z" fill="#EA66FF"/>
<path d="M271.143 51.2571C270.355 51.2571 269.599 50.9442 269.042 50.3871C268.485 49.83 268.172 49.0744 268.171 48.2865C268.171 47.4985 268.484 46.7428 269.041 46.1854C269.598 45.628 270.353 45.3147 271.141 45.3143C271.929 45.3139 272.685 45.6265 273.243 46.1833C273.8 46.7401 274.114 47.4955 274.114 48.2835C274.115 49.0714 273.802 49.8273 273.246 50.385C272.689 50.9426 271.934 51.2564 271.146 51.2571H271.143Z" fill="#EA66FF"/>
<path d="M286.743 43.8286C285.955 43.8286 285.199 43.5156 284.642 42.9585C284.085 42.4014 283.772 41.6458 283.771 40.8579C283.771 40.0699 284.084 39.3142 284.641 38.7568C285.198 38.1994 285.953 37.8861 286.741 37.8857C287.529 37.8853 288.285 38.1979 288.843 38.7547C289.4 39.3115 289.714 40.067 289.714 40.8549C289.715 41.6429 289.402 42.3988 288.846 42.9564C288.289 43.5141 287.534 43.8278 286.746 43.8286H286.743Z" fill="#EA66FF"/>
<path d="M303.086 31.9429C302.298 31.9429 301.542 31.6299 300.985 31.0728C300.428 30.5157 300.114 29.7601 300.114 28.9722C300.114 28.1842 300.427 27.4285 300.984 26.8711C301.541 26.3137 302.296 26.0004 303.084 26C303.872 25.9996 304.628 26.3122 305.186 26.869C305.743 27.4258 306.057 28.1813 306.057 28.9692C306.058 29.7571 305.745 30.5131 305.189 31.0707C304.632 31.6284 303.877 31.9421 303.089 31.9429L303.086 31.9429Z" fill="#EA66FF"/>
<path d="M318.686 26.7429C317.898 26.7429 317.142 26.4299 316.585 25.8728C316.028 25.3157 315.714 24.5601 315.714 23.7722C315.714 22.9842 316.027 22.2285 316.584 21.6711C317.141 21.1137 317.896 20.8004 318.684 20.8C319.472 20.7996 320.228 21.1122 320.785 21.669C321.343 22.2258 321.657 22.9813 321.657 23.7692C321.658 24.5571 321.345 25.3131 320.789 25.8707C320.232 26.4284 319.477 26.7421 318.689 26.7429L318.686 26.7429Z" fill="#EA66FF"/>
<path d="M334.286 15.6C333.498 15.6 332.742 15.287 332.185 14.73C331.628 14.1729 331.314 13.4173 331.314 12.6293C331.314 11.8414 331.627 11.0856 332.184 10.5282C332.741 9.97087 333.496 9.65754 334.284 9.65714C335.072 9.65675 335.828 9.96933 336.386 10.5261C336.943 11.083 337.257 11.8384 337.257 12.6263C337.258 13.4143 336.945 14.1702 336.389 14.7278C335.832 15.2855 335.077 15.5992 334.289 15.6L334.286 15.6Z" fill="#EA66FF"/>
<path d="M350.629 5.94286C349.841 5.94286 349.085 5.6299 348.528 5.07281C347.97 4.51572 347.657 3.76011 347.657 2.97217C347.657 2.18423 347.97 1.42847 348.527 0.871099C349.084 0.31373 349.839 0.000394344 350.627 3.71966e-07C351.415 -0.0003936 352.171 0.312186 352.728 0.868998C353.286 1.42581 353.599 2.18126 353.6 2.9692C353.601 3.75714 353.288 4.51306 352.732 5.07071C352.175 5.62835 351.419 5.94207 350.632 5.94286L350.629 5.94286Z" fill="#EA66FF"/>
</svg>
