<svg width="376" height="229" viewBox="0 0 376 229" fill="none" xmlns="http://www.w3.org/2000/svg">
<path d="M24.1429 4.45715V213.2" stroke="#F6F6F6"/>
<path d="M56.0857 4.45715V213.2" stroke="#F6F6F6"/>
<path d="M87.2857 4.45715V213.2" stroke="#F6F6F6"/>
<path d="M119.229 4.45715V213.2" stroke="#F6F6F6"/>
<path d="M150.429 4.45715V213.2" stroke="#F6F6F6"/>
<path d="M182.371 4.45715V213.2" stroke="#F6F6F6"/>
<path d="M213.571 4.45715V213.2" stroke="#F6F6F6"/>
<path d="M245.514 4.45715V213.2" stroke="#F6F6F6"/>
<path d="M276.714 4.45715V213.2" stroke="#F6F6F6"/>
<path d="M308.657 4.45715V213.2" stroke="#F6F6F6"/>
<path d="M339.857 4.45715V213.2" stroke="#F6F6F6"/>
<path d="M372.543 4.45715V213.2" stroke="#F6F6F6"/>
<path d="M24.5143 213.571H372.171" stroke="#F6F6F6"/>
<path d="M24.5143 161.571H372.171" stroke="#F6F6F6"/>
<path d="M24.5143 109.571H372.171" stroke="#F6F6F6"/>
<path d="M24.5143 56.8286H372.171" stroke="#F6F6F6"/>
<path d="M24.5143 4.08572H372.171" stroke="#F6F6F6"/>
<path d="M24.5143 213.571H372.171" stroke="#F6F6F6"/>
<path d="M24.1429 4.45715V213.2" stroke="#F6F6F6"/>
<path d="M25.859 222.67V223.321C25.859 223.67 25.8278 223.965 25.7653 224.205C25.7028 224.446 25.6129 224.639 25.4957 224.785C25.3785 224.932 25.2369 225.038 25.0709 225.105C24.9069 225.169 24.7213 225.201 24.5143 225.201C24.3502 225.201 24.1988 225.181 24.0602 225.14C23.9215 225.099 23.7965 225.033 23.6852 224.944C23.5758 224.852 23.4821 224.733 23.4039 224.586C23.3258 224.44 23.2662 224.262 23.2252 224.053C23.1842 223.844 23.1637 223.6 23.1637 223.321V222.67C23.1637 222.321 23.1949 222.028 23.2574 221.791C23.3219 221.555 23.4127 221.366 23.5299 221.223C23.6471 221.078 23.7877 220.975 23.9518 220.912C24.1178 220.85 24.3033 220.819 24.5084 220.819C24.6744 220.819 24.8268 220.839 24.9654 220.88C25.1061 220.919 25.2311 220.983 25.3404 221.071C25.4498 221.157 25.5426 221.272 25.6188 221.416C25.6969 221.559 25.7565 221.734 25.7975 221.941C25.8385 222.148 25.859 222.391 25.859 222.67ZM25.3141 223.408V222.579C25.3141 222.388 25.3024 222.22 25.2789 222.075C25.2574 221.929 25.2252 221.804 25.1822 221.7C25.1393 221.597 25.0846 221.513 25.0182 221.449C24.9537 221.384 24.8785 221.337 24.7926 221.308C24.7086 221.277 24.6139 221.261 24.5084 221.261C24.3795 221.261 24.2653 221.285 24.1656 221.334C24.066 221.381 23.9821 221.456 23.9137 221.56C23.8473 221.663 23.7965 221.799 23.7613 221.967C23.7262 222.135 23.7086 222.339 23.7086 222.579V223.408C23.7086 223.6 23.7194 223.769 23.7408 223.915C23.7643 224.062 23.7985 224.189 23.8434 224.296C23.8883 224.402 23.943 224.489 24.0074 224.557C24.0719 224.625 24.1461 224.676 24.2301 224.709C24.316 224.741 24.4108 224.756 24.5143 224.756C24.6471 224.756 24.7633 224.731 24.8629 224.68C24.9625 224.629 25.0455 224.55 25.1119 224.443C25.1803 224.333 25.2311 224.194 25.2643 224.024C25.2975 223.852 25.3141 223.647 25.3141 223.408Z" fill="#A3A3A3"/>
<path d="M57.581 224.698V225.143H54.789V224.753L56.1865 223.198C56.3583 223.006 56.4911 222.844 56.5849 222.711C56.6806 222.576 56.747 222.456 56.7841 222.351C56.8232 222.243 56.8427 222.134 56.8427 222.023C56.8427 221.882 56.8134 221.755 56.7548 221.642C56.6982 221.527 56.6142 221.435 56.5029 221.366C56.3915 221.298 56.2568 221.264 56.0986 221.264C55.9091 221.264 55.7509 221.301 55.624 221.375C55.499 221.448 55.4052 221.549 55.3427 221.68C55.2802 221.811 55.249 221.961 55.249 222.131H54.707C54.707 221.891 54.7597 221.671 54.8652 221.472C54.9706 221.273 55.1269 221.115 55.3339 220.997C55.5409 220.878 55.7958 220.819 56.0986 220.819C56.3681 220.819 56.5986 220.866 56.79 220.962C56.9814 221.056 57.1279 221.189 57.2294 221.361C57.3329 221.531 57.3847 221.73 57.3847 221.958C57.3847 222.083 57.3632 222.21 57.3202 222.339C57.2792 222.466 57.2216 222.593 57.1474 222.72C57.0751 222.847 56.9902 222.972 56.8925 223.095C56.7968 223.218 56.6943 223.339 56.5849 223.458L55.4423 224.698H57.581Z" fill="#A3A3A3"/>
<path d="M89.2751 223.707V224.153H86.1931V223.833L88.1033 220.877H88.5456L88.071 221.733L86.8083 223.707H89.2751ZM88.6804 220.877V225.143H88.1384V220.877H88.6804Z" fill="#A3A3A3"/>
<path d="M120.077 220.871H120.124V221.331H120.077C119.79 221.331 119.55 221.378 119.357 221.472C119.163 221.564 119.01 221.688 118.897 221.844C118.783 221.998 118.701 222.172 118.65 222.366C118.602 222.559 118.577 222.755 118.577 222.954V223.581C118.577 223.771 118.6 223.939 118.645 224.085C118.69 224.23 118.751 224.352 118.829 224.451C118.907 224.551 118.995 224.626 119.093 224.677C119.192 224.728 119.296 224.753 119.403 224.753C119.528 224.753 119.64 224.73 119.737 224.683C119.835 224.634 119.917 224.567 119.983 224.481C120.052 224.393 120.104 224.289 120.139 224.17C120.174 224.051 120.191 223.92 120.191 223.778C120.191 223.651 120.176 223.529 120.145 223.411C120.113 223.292 120.065 223.187 120.001 223.095C119.937 223.001 119.856 222.928 119.758 222.875C119.662 222.821 119.548 222.793 119.415 222.793C119.265 222.793 119.124 222.83 118.993 222.905C118.864 222.977 118.758 223.073 118.674 223.192C118.592 223.309 118.545 223.437 118.533 223.575L118.246 223.573C118.273 223.354 118.324 223.167 118.398 223.013C118.475 222.857 118.568 222.73 118.68 222.632C118.793 222.533 118.919 222.46 119.058 222.415C119.198 222.368 119.347 222.345 119.503 222.345C119.716 222.345 119.899 222.385 120.054 222.465C120.208 222.545 120.335 222.653 120.435 222.787C120.534 222.92 120.607 223.071 120.654 223.239C120.703 223.405 120.728 223.575 120.728 223.751C120.728 223.952 120.699 224.141 120.643 224.317C120.586 224.492 120.501 224.647 120.388 224.78C120.276 224.912 120.139 225.016 119.975 225.09C119.811 225.164 119.62 225.201 119.403 225.201C119.173 225.201 118.972 225.155 118.8 225.061C118.628 224.965 118.485 224.838 118.372 224.68C118.259 224.522 118.174 224.346 118.117 224.153C118.061 223.959 118.032 223.763 118.032 223.564V223.309C118.032 223.008 118.063 222.713 118.123 222.424C118.184 222.135 118.288 221.873 118.437 221.639C118.587 221.405 118.795 221.218 119.061 221.079C119.326 220.941 119.665 220.871 120.077 220.871Z" fill="#A3A3A3"/>
<path d="M152.291 223.989C152.291 224.248 152.231 224.469 152.11 224.651C151.991 224.83 151.828 224.967 151.623 225.061C151.42 225.155 151.191 225.201 150.935 225.201C150.679 225.201 150.449 225.155 150.244 225.061C150.038 224.967 149.876 224.83 149.757 224.651C149.638 224.469 149.578 224.248 149.578 223.989C149.578 223.819 149.611 223.663 149.675 223.523C149.742 223.38 149.834 223.256 149.953 223.151C150.075 223.045 150.217 222.964 150.381 222.908C150.547 222.849 150.73 222.82 150.929 222.82C151.191 222.82 151.424 222.87 151.629 222.972C151.834 223.072 151.995 223.209 152.113 223.385C152.232 223.561 152.291 223.762 152.291 223.989ZM151.746 223.977C151.746 223.819 151.712 223.679 151.644 223.558C151.576 223.435 151.48 223.339 151.357 223.271C151.234 223.202 151.091 223.168 150.929 223.168C150.763 223.168 150.62 223.202 150.498 223.271C150.379 223.339 150.286 223.435 150.22 223.558C150.154 223.679 150.12 223.819 150.12 223.977C150.12 224.141 150.153 224.282 150.217 224.399C150.284 224.514 150.377 224.603 150.498 224.665C150.621 224.726 150.767 224.756 150.935 224.756C151.103 224.756 151.247 224.726 151.369 224.665C151.49 224.603 151.582 224.514 151.647 224.399C151.713 224.282 151.746 224.141 151.746 223.977ZM152.192 221.988C152.192 222.195 152.137 222.381 152.028 222.547C151.918 222.713 151.769 222.844 151.579 222.94C151.39 223.035 151.175 223.083 150.935 223.083C150.691 223.083 150.473 223.035 150.282 222.94C150.092 222.844 149.944 222.713 149.836 222.547C149.729 222.381 149.675 222.195 149.675 221.988C149.675 221.74 149.729 221.529 149.836 221.355C149.946 221.181 150.095 221.048 150.285 220.956C150.474 220.865 150.69 220.819 150.932 220.819C151.176 220.819 151.393 220.865 151.582 220.956C151.772 221.048 151.92 221.181 152.028 221.355C152.137 221.529 152.192 221.74 152.192 221.988ZM151.65 221.996C151.65 221.854 151.62 221.728 151.559 221.618C151.498 221.509 151.414 221.423 151.307 221.361C151.2 221.296 151.075 221.264 150.932 221.264C150.789 221.264 150.664 221.294 150.557 221.355C150.452 221.413 150.369 221.497 150.308 221.607C150.249 221.716 150.22 221.846 150.22 221.996C150.22 222.143 150.249 222.271 150.308 222.38C150.369 222.49 150.453 222.574 150.56 222.635C150.667 222.696 150.792 222.726 150.935 222.726C151.078 222.726 151.202 222.696 151.307 222.635C151.414 222.574 151.498 222.49 151.559 222.38C151.62 222.271 151.65 222.143 151.65 221.996Z" fill="#A3A3A3"/>
<path d="M181.3 220.854V225.143H180.758V221.531L179.666 221.929V221.44L181.216 220.854H181.3ZM185.572 222.67V223.321C185.572 223.67 185.541 223.965 185.478 224.205C185.416 224.446 185.326 224.639 185.209 224.785C185.091 224.932 184.95 225.038 184.784 225.105C184.62 225.169 184.434 225.201 184.227 225.201C184.063 225.201 183.912 225.181 183.773 225.14C183.634 225.099 183.509 225.033 183.398 224.944C183.289 224.852 183.195 224.733 183.117 224.586C183.039 224.44 182.979 224.262 182.938 224.053C182.897 223.844 182.877 223.6 182.877 223.321V222.67C182.877 222.321 182.908 222.028 182.97 221.791C183.035 221.555 183.126 221.366 183.243 221.223C183.36 221.078 183.501 220.975 183.665 220.912C183.831 220.85 184.016 220.819 184.221 220.819C184.387 220.819 184.54 220.839 184.678 220.88C184.819 220.919 184.944 220.983 185.053 221.071C185.163 221.157 185.256 221.272 185.332 221.416C185.41 221.559 185.469 221.734 185.51 221.941C185.551 222.148 185.572 222.391 185.572 222.67ZM185.027 223.408V222.579C185.027 222.388 185.015 222.22 184.992 222.075C184.97 221.929 184.938 221.804 184.895 221.7C184.852 221.597 184.798 221.513 184.731 221.449C184.667 221.384 184.591 221.337 184.506 221.308C184.422 221.277 184.327 221.261 184.221 221.261C184.092 221.261 183.978 221.285 183.879 221.334C183.779 221.381 183.695 221.456 183.627 221.56C183.56 221.663 183.509 221.799 183.474 221.967C183.439 222.135 183.422 222.339 183.422 222.579V223.408C183.422 223.6 183.432 223.769 183.454 223.915C183.477 224.062 183.511 224.189 183.556 224.296C183.601 224.402 183.656 224.489 183.72 224.557C183.785 224.625 183.859 224.676 183.943 224.709C184.029 224.741 184.124 224.756 184.227 224.756C184.36 224.756 184.476 224.731 184.576 224.68C184.675 224.629 184.758 224.55 184.825 224.443C184.893 224.333 184.944 224.194 184.977 224.024C185.01 223.852 185.027 223.647 185.027 223.408Z" fill="#A3A3A3"/>
<path d="M212.907 220.854V225.143H212.365V221.531L211.272 221.929V221.44L212.822 220.854H212.907ZM217.295 224.698V225.143H214.503V224.753L215.901 223.198C216.073 223.006 216.206 222.844 216.299 222.711C216.395 222.576 216.461 222.456 216.499 222.351C216.538 222.243 216.557 222.134 216.557 222.023C216.557 221.882 216.528 221.755 216.469 221.642C216.413 221.527 216.329 221.435 216.217 221.366C216.106 221.298 215.971 221.264 215.813 221.264C215.624 221.264 215.465 221.301 215.338 221.375C215.213 221.448 215.12 221.549 215.057 221.68C214.995 221.811 214.963 221.961 214.963 222.131H214.421C214.421 221.891 214.474 221.671 214.58 221.472C214.685 221.273 214.841 221.115 215.048 220.997C215.255 220.878 215.51 220.819 215.813 220.819C216.083 220.819 216.313 220.866 216.504 220.962C216.696 221.056 216.842 221.189 216.944 221.361C217.047 221.531 217.099 221.73 217.099 221.958C217.099 222.083 217.078 222.21 217.035 222.339C216.994 222.466 216.936 222.593 216.862 222.72C216.79 222.847 216.705 222.972 216.607 223.095C216.511 223.218 216.409 223.339 216.299 223.458L215.157 224.698H217.295Z" fill="#A3A3A3"/>
<path d="M244.512 220.854V225.143H243.97V221.531L242.877 221.929V221.44L244.427 220.854H244.512ZM248.988 223.707V224.153H245.906V223.833L247.816 220.877H248.259L247.784 221.733L246.521 223.707H248.988ZM248.393 220.877V225.143H247.851V220.877H248.393Z" fill="#A3A3A3"/>
<path d="M276.116 220.854V225.143H275.574V221.531L274.482 221.929V221.44L276.031 220.854H276.116ZM279.79 220.871H279.837V221.331H279.79C279.503 221.331 279.263 221.378 279.069 221.472C278.876 221.564 278.723 221.688 278.609 221.844C278.496 221.998 278.414 222.172 278.363 222.366C278.315 222.559 278.29 222.755 278.29 222.954V223.581C278.29 223.771 278.313 223.939 278.358 224.085C278.402 224.23 278.464 224.352 278.542 224.451C278.62 224.551 278.708 224.626 278.806 224.677C278.905 224.728 279.009 224.753 279.116 224.753C279.241 224.753 279.353 224.73 279.45 224.683C279.548 224.634 279.63 224.567 279.696 224.481C279.765 224.393 279.817 224.289 279.852 224.17C279.887 224.051 279.904 223.92 279.904 223.778C279.904 223.651 279.889 223.529 279.858 223.411C279.826 223.292 279.778 223.187 279.714 223.095C279.65 223.001 279.568 222.928 279.471 222.875C279.375 222.821 279.261 222.793 279.128 222.793C278.978 222.793 278.837 222.83 278.706 222.905C278.577 222.977 278.471 223.073 278.387 223.192C278.305 223.309 278.258 223.437 278.246 223.575L277.959 223.573C277.986 223.354 278.037 223.167 278.111 223.013C278.188 222.857 278.281 222.73 278.393 222.632C278.506 222.533 278.632 222.46 278.771 222.415C278.911 222.368 279.06 222.345 279.216 222.345C279.429 222.345 279.612 222.385 279.767 222.465C279.921 222.545 280.048 222.653 280.148 222.787C280.247 222.92 280.32 223.071 280.367 223.239C280.416 223.405 280.441 223.575 280.441 223.751C280.441 223.952 280.412 224.141 280.356 224.317C280.299 224.492 280.214 224.647 280.101 224.78C279.989 224.912 279.852 225.016 279.688 225.09C279.524 225.164 279.333 225.201 279.116 225.201C278.886 225.201 278.685 225.155 278.513 225.061C278.341 224.965 278.198 224.838 278.085 224.68C277.972 224.522 277.887 224.346 277.83 224.153C277.774 223.959 277.745 223.763 277.745 223.564V223.309C277.745 223.008 277.776 222.713 277.836 222.424C277.897 222.135 278.001 221.873 278.15 221.639C278.3 221.405 278.508 221.218 278.774 221.079C279.039 220.941 279.378 220.871 279.79 220.871Z" fill="#A3A3A3"/>
<path d="M307.721 220.854V225.143H307.179V221.531L306.086 221.929V221.44L307.636 220.854H307.721ZM312.004 223.989C312.004 224.248 311.944 224.469 311.823 224.651C311.704 224.83 311.541 224.967 311.336 225.061C311.133 225.155 310.904 225.201 310.648 225.201C310.392 225.201 310.162 225.155 309.956 225.061C309.751 224.967 309.589 224.83 309.47 224.651C309.351 224.469 309.291 224.248 309.291 223.989C309.291 223.819 309.324 223.663 309.388 223.523C309.455 223.38 309.547 223.256 309.666 223.151C309.788 223.045 309.93 222.964 310.094 222.908C310.26 222.849 310.443 222.82 310.642 222.82C310.904 222.82 311.137 222.87 311.342 222.972C311.547 223.072 311.708 223.209 311.826 223.385C311.945 223.561 312.004 223.762 312.004 223.989ZM311.459 223.977C311.459 223.819 311.425 223.679 311.357 223.558C311.289 223.435 311.193 223.339 311.07 223.271C310.947 223.202 310.804 223.168 310.642 223.168C310.476 223.168 310.332 223.202 310.211 223.271C310.092 223.339 309.999 223.435 309.933 223.558C309.867 223.679 309.833 223.819 309.833 223.977C309.833 224.141 309.866 224.282 309.93 224.399C309.997 224.514 310.09 224.603 310.211 224.665C310.334 224.726 310.48 224.756 310.648 224.756C310.816 224.756 310.96 224.726 311.081 224.665C311.203 224.603 311.295 224.514 311.36 224.399C311.426 224.282 311.459 224.141 311.459 223.977ZM311.905 221.988C311.905 222.195 311.85 222.381 311.741 222.547C311.631 222.713 311.482 222.844 311.292 222.94C311.103 223.035 310.888 223.083 310.648 223.083C310.404 223.083 310.186 223.035 309.995 222.94C309.805 222.844 309.657 222.713 309.549 222.547C309.442 222.381 309.388 222.195 309.388 221.988C309.388 221.74 309.442 221.529 309.549 221.355C309.659 221.181 309.808 221.048 309.997 220.956C310.187 220.865 310.403 220.819 310.645 220.819C310.889 220.819 311.106 220.865 311.295 220.956C311.485 221.048 311.633 221.181 311.741 221.355C311.85 221.529 311.905 221.74 311.905 221.988ZM311.363 221.996C311.363 221.854 311.332 221.728 311.272 221.618C311.211 221.509 311.127 221.423 311.02 221.361C310.913 221.296 310.788 221.264 310.645 221.264C310.502 221.264 310.377 221.294 310.27 221.355C310.164 221.413 310.081 221.497 310.021 221.607C309.962 221.716 309.933 221.846 309.933 221.996C309.933 222.143 309.962 222.271 310.021 222.38C310.081 222.49 310.165 222.574 310.273 222.635C310.38 222.696 310.505 222.726 310.648 222.726C310.79 222.726 310.914 222.696 311.02 222.635C311.127 222.574 311.211 222.49 311.272 222.38C311.332 222.271 311.363 222.143 311.363 221.996Z" fill="#A3A3A3"/>
<path d="M340.341 224.698V225.143H337.549V224.753L338.947 223.198C339.118 223.006 339.251 222.844 339.345 222.711C339.441 222.576 339.507 222.456 339.544 222.351C339.583 222.243 339.603 222.134 339.603 222.023C339.603 221.882 339.573 221.755 339.515 221.642C339.458 221.527 339.374 221.435 339.263 221.366C339.152 221.298 339.017 221.264 338.859 221.264C338.669 221.264 338.511 221.301 338.384 221.375C338.259 221.448 338.165 221.549 338.103 221.68C338.04 221.811 338.009 221.961 338.009 222.131H337.467C337.467 221.891 337.52 221.671 337.625 221.472C337.731 221.273 337.887 221.115 338.094 220.997C338.301 220.878 338.556 220.819 338.859 220.819C339.128 220.819 339.359 220.866 339.55 220.962C339.741 221.056 339.888 221.189 339.989 221.361C340.093 221.531 340.145 221.73 340.145 221.958C340.145 222.083 340.123 222.21 340.08 222.339C340.039 222.466 339.982 222.593 339.907 222.72C339.835 222.847 339.75 222.972 339.653 223.095C339.557 223.218 339.454 223.339 339.345 223.458L338.202 224.698H340.341ZM343.599 222.67V223.321C343.599 223.67 343.568 223.965 343.505 224.205C343.443 224.446 343.353 224.639 343.236 224.785C343.118 224.932 342.977 225.038 342.811 225.105C342.647 225.169 342.461 225.201 342.254 225.201C342.09 225.201 341.939 225.181 341.8 225.14C341.661 225.099 341.536 225.033 341.425 224.944C341.316 224.852 341.222 224.733 341.144 224.586C341.066 224.44 341.006 224.262 340.965 224.053C340.924 223.844 340.904 223.6 340.904 223.321V222.67C340.904 222.321 340.935 222.028 340.997 221.791C341.062 221.555 341.153 221.366 341.27 221.223C341.387 221.078 341.528 220.975 341.692 220.912C341.858 220.85 342.043 220.819 342.248 220.819C342.414 220.819 342.567 220.839 342.705 220.88C342.846 220.919 342.971 220.983 343.08 221.071C343.19 221.157 343.282 221.272 343.359 221.416C343.437 221.559 343.496 221.734 343.537 221.941C343.578 222.148 343.599 222.391 343.599 222.67ZM343.054 223.408V222.579C343.054 222.388 343.042 222.22 343.019 222.075C342.997 221.929 342.965 221.804 342.922 221.7C342.879 221.597 342.824 221.513 342.758 221.449C342.694 221.384 342.618 221.337 342.532 221.308C342.448 221.277 342.354 221.261 342.248 221.261C342.119 221.261 342.005 221.285 341.906 221.334C341.806 221.381 341.722 221.456 341.654 221.56C341.587 221.663 341.536 221.799 341.501 221.967C341.466 222.135 341.448 222.339 341.448 222.579V223.408C341.448 223.6 341.459 223.769 341.481 223.915C341.504 224.062 341.538 224.189 341.583 224.296C341.628 224.402 341.683 224.489 341.747 224.557C341.812 224.625 341.886 224.676 341.97 224.709C342.056 224.741 342.151 224.756 342.254 224.756C342.387 224.756 342.503 224.731 342.603 224.68C342.702 224.629 342.785 224.55 342.852 224.443C342.92 224.333 342.971 224.194 343.004 224.024C343.037 223.852 343.054 223.647 343.054 223.408Z" fill="#A3A3A3"/>
<path d="M370.46 224.698V225.143H367.668V224.753L369.066 223.198C369.237 223.006 369.37 222.844 369.464 222.711C369.56 222.576 369.626 222.456 369.663 222.351C369.702 222.243 369.722 222.134 369.722 222.023C369.722 221.882 369.693 221.755 369.634 221.642C369.577 221.527 369.493 221.435 369.382 221.366C369.271 221.298 369.136 221.264 368.978 221.264C368.788 221.264 368.63 221.301 368.503 221.375C368.378 221.448 368.284 221.549 368.222 221.68C368.159 221.811 368.128 221.961 368.128 222.131H367.586C367.586 221.891 367.639 221.671 367.744 221.472C367.85 221.273 368.006 221.115 368.213 220.997C368.42 220.878 368.675 220.819 368.978 220.819C369.247 220.819 369.478 220.866 369.669 220.962C369.861 221.056 370.007 221.189 370.109 221.361C370.212 221.531 370.264 221.73 370.264 221.958C370.264 222.083 370.242 222.21 370.199 222.339C370.158 222.466 370.101 222.593 370.027 222.72C369.954 222.847 369.869 222.972 369.772 223.095C369.676 223.218 369.573 223.339 369.464 223.458L368.321 224.698H370.46ZM373.835 224.698V225.143H371.043V224.753L372.441 223.198C372.612 223.006 372.745 222.844 372.839 222.711C372.935 222.576 373.001 222.456 373.038 222.351C373.077 222.243 373.097 222.134 373.097 222.023C373.097 221.882 373.068 221.755 373.009 221.642C372.952 221.527 372.868 221.435 372.757 221.366C372.646 221.298 372.511 221.264 372.353 221.264C372.163 221.264 372.005 221.301 371.878 221.375C371.753 221.448 371.659 221.549 371.597 221.68C371.534 221.811 371.503 221.961 371.503 222.131H370.961C370.961 221.891 371.014 221.671 371.119 221.472C371.225 221.273 371.381 221.115 371.588 220.997C371.795 220.878 372.05 220.819 372.353 220.819C372.622 220.819 372.853 220.866 373.044 220.962C373.236 221.056 373.382 221.189 373.484 221.361C373.587 221.531 373.639 221.73 373.639 221.958C373.639 222.083 373.617 222.21 373.574 222.339C373.533 222.466 373.476 222.593 373.402 222.72C373.329 222.847 373.244 222.972 373.147 223.095C373.051 223.218 372.948 223.339 372.839 223.458L371.696 224.698H373.835Z" fill="#A3A3A3"/>
<path d="M16.743 212.27V212.921C16.743 213.27 16.7117 213.565 16.6492 213.805C16.5867 214.046 16.4969 214.239 16.3797 214.385C16.2625 214.532 16.1209 214.638 15.9549 214.705C15.7908 214.769 15.6053 214.801 15.3982 214.801C15.2342 214.801 15.0828 214.781 14.9441 214.74C14.8055 214.699 14.6805 214.633 14.5691 214.544C14.4598 214.452 14.366 214.333 14.2879 214.186C14.2098 214.04 14.1502 213.862 14.1092 213.653C14.0682 213.444 14.0477 213.2 14.0477 212.921V212.27C14.0477 211.921 14.0789 211.628 14.1414 211.391C14.2059 211.155 14.2967 210.966 14.4139 210.823C14.5311 210.678 14.6717 210.575 14.8357 210.512C15.0018 210.45 15.1873 210.419 15.3924 210.419C15.5584 210.419 15.7107 210.439 15.8494 210.48C15.99 210.519 16.115 210.583 16.2244 210.671C16.3338 210.757 16.4266 210.872 16.5027 211.016C16.5809 211.159 16.6404 211.334 16.6814 211.541C16.7225 211.748 16.743 211.991 16.743 212.27ZM16.198 213.008V212.179C16.198 211.988 16.1863 211.82 16.1629 211.675C16.1414 211.529 16.1092 211.404 16.0662 211.3C16.0232 211.197 15.9686 211.113 15.9022 211.049C15.8377 210.984 15.7625 210.937 15.6766 210.908C15.5926 210.877 15.4979 210.861 15.3924 210.861C15.2635 210.861 15.1492 210.885 15.0496 210.934C14.95 210.981 14.866 211.056 14.7977 211.16C14.7313 211.263 14.6805 211.399 14.6453 211.567C14.6102 211.735 14.5926 211.939 14.5926 212.179V213.008C14.5926 213.2 14.6033 213.369 14.6248 213.515C14.6482 213.662 14.6824 213.789 14.7273 213.896C14.7723 214.002 14.827 214.089 14.8914 214.157C14.9559 214.225 15.0301 214.276 15.1141 214.309C15.2 214.341 15.2947 214.356 15.3982 214.356C15.5311 214.356 15.6473 214.331 15.7469 214.28C15.8465 214.229 15.9295 214.15 15.9959 214.043C16.0643 213.933 16.115 213.794 16.1482 213.624C16.1814 213.452 16.198 213.247 16.198 213.008Z" fill="#A3A3A3"/>
<path d="M10.1101 162.298V162.743H7.31815V162.353L8.71561 160.798C8.88748 160.606 9.0203 160.444 9.11405 160.311C9.20975 160.176 9.27615 160.056 9.31326 159.951C9.35233 159.843 9.37186 159.734 9.37186 159.623C9.37186 159.482 9.34256 159.355 9.28397 159.242C9.22733 159.127 9.14334 159.035 9.03201 158.966C8.92069 158.898 8.78592 158.864 8.62772 158.864C8.43826 158.864 8.28006 158.901 8.15311 158.975C8.02811 159.048 7.93436 159.149 7.87186 159.28C7.80936 159.411 7.77811 159.561 7.77811 159.731H7.23612C7.23612 159.491 7.28885 159.271 7.39432 159.072C7.49979 158.873 7.65604 158.715 7.86307 158.597C8.0701 158.478 8.32498 158.419 8.62772 158.419C8.89725 158.419 9.12772 158.466 9.31912 158.562C9.51053 158.656 9.65701 158.789 9.75858 158.961C9.86209 159.131 9.91385 159.33 9.91385 159.558C9.91385 159.683 9.89237 159.81 9.8494 159.939C9.80838 160.066 9.75076 160.193 9.67655 160.32C9.60428 160.447 9.51932 160.572 9.42166 160.695C9.32596 160.818 9.22342 160.939 9.11405 161.058L7.97147 162.298H10.1101ZM11.3758 160.713L10.9422 160.601L11.156 158.477H13.3445V158.978H11.616L11.4871 160.138C11.5652 160.093 11.6638 160.051 11.783 160.012C11.9041 159.973 12.0428 159.954 12.199 159.954C12.3963 159.954 12.573 159.988 12.7293 160.056C12.8855 160.123 13.0183 160.218 13.1277 160.343C13.239 160.468 13.324 160.619 13.3826 160.795C13.4412 160.97 13.4705 161.167 13.4705 161.383C13.4705 161.589 13.4422 161.777 13.3855 161.949C13.3308 162.121 13.2478 162.271 13.1365 162.4C13.0252 162.527 12.8846 162.626 12.7146 162.696C12.5467 162.766 12.3484 162.801 12.1199 162.801C11.948 162.801 11.7849 162.778 11.6306 162.731C11.4783 162.682 11.3416 162.609 11.2205 162.511C11.1013 162.412 11.0037 162.289 10.9275 162.142C10.8533 161.994 10.8064 161.82 10.7869 161.621H11.3025C11.326 161.781 11.3728 161.916 11.4431 162.025C11.5135 162.134 11.6053 162.217 11.7185 162.274C11.8338 162.329 11.9676 162.356 12.1199 162.356C12.2488 162.356 12.3631 162.334 12.4627 162.289C12.5623 162.244 12.6463 162.179 12.7146 162.095C12.783 162.011 12.8347 161.91 12.8699 161.791C12.907 161.672 12.9256 161.538 12.9256 161.389C12.9256 161.255 12.907 161.13 12.8699 161.014C12.8328 160.899 12.7771 160.799 12.7029 160.713C12.6306 160.627 12.5418 160.56 12.4363 160.513C12.3308 160.465 12.2097 160.44 12.073 160.44C11.8914 160.44 11.7537 160.465 11.6599 160.513C11.5681 160.562 11.4734 160.629 11.3758 160.713ZM16.743 160.27V160.921C16.743 161.27 16.7117 161.565 16.6492 161.805C16.5867 162.046 16.4969 162.239 16.3797 162.385C16.2625 162.532 16.1209 162.638 15.9549 162.705C15.7908 162.769 15.6053 162.801 15.3982 162.801C15.2342 162.801 15.0828 162.781 14.9441 162.74C14.8055 162.699 14.6805 162.633 14.5691 162.544C14.4597 162.452 14.366 162.333 14.2879 162.186C14.2097 162.04 14.1502 161.862 14.1092 161.653C14.0681 161.444 14.0476 161.2 14.0476 160.921V160.27C14.0476 159.921 14.0789 159.628 14.1414 159.391C14.2058 159.155 14.2967 158.966 14.4138 158.823C14.531 158.678 14.6717 158.575 14.8357 158.512C15.0017 158.45 15.1873 158.419 15.3924 158.419C15.5584 158.419 15.7107 158.439 15.8494 158.48C15.99 158.519 16.115 158.583 16.2244 158.671C16.3338 158.757 16.4265 158.872 16.5027 159.016C16.5808 159.159 16.6404 159.334 16.6814 159.541C16.7224 159.748 16.743 159.991 16.743 160.27ZM16.198 161.008V160.179C16.198 159.988 16.1863 159.82 16.1629 159.675C16.1414 159.529 16.1092 159.404 16.0662 159.3C16.0232 159.197 15.9685 159.113 15.9021 159.049C15.8377 158.984 15.7625 158.937 15.6765 158.908C15.5926 158.877 15.4978 158.861 15.3924 158.861C15.2635 158.861 15.1492 158.885 15.0496 158.934C14.95 158.981 14.866 159.056 14.7976 159.16C14.7312 159.263 14.6805 159.399 14.6453 159.567C14.6101 159.735 14.5926 159.939 14.5926 160.179V161.008C14.5926 161.2 14.6033 161.369 14.6248 161.515C14.6482 161.662 14.6824 161.789 14.7273 161.896C14.7722 162.002 14.8269 162.089 14.8914 162.157C14.9558 162.225 15.0301 162.276 15.114 162.309C15.2 162.341 15.2947 162.356 15.3982 162.356C15.531 162.356 15.6472 162.331 15.7469 162.28C15.8465 162.229 15.9295 162.15 15.9959 162.043C16.0642 161.933 16.115 161.794 16.1482 161.624C16.1814 161.452 16.198 161.247 16.198 161.008Z" fill="#A3A3A3"/>
<path d="M8.00076 108.713L7.56717 108.601L7.78104 106.477H9.96951V106.978H8.241L8.11209 108.138C8.19022 108.093 8.28885 108.051 8.40799 108.012C8.52908 107.973 8.66776 107.954 8.82401 107.954C9.02127 107.954 9.19803 107.988 9.35428 108.056C9.51053 108.123 9.64334 108.218 9.75272 108.343C9.86405 108.468 9.94901 108.619 10.0076 108.795C10.0662 108.97 10.0955 109.167 10.0955 109.383C10.0955 109.589 10.0672 109.777 10.0105 109.949C9.95584 110.121 9.87283 110.271 9.76151 110.4C9.65018 110.527 9.50955 110.626 9.33963 110.696C9.17166 110.766 8.97342 110.801 8.7449 110.801C8.57303 110.801 8.40994 110.778 8.25565 110.731C8.1033 110.682 7.96658 110.609 7.84549 110.511C7.72635 110.412 7.62869 110.289 7.55252 110.142C7.4783 109.994 7.43143 109.82 7.4119 109.621H7.92752C7.95096 109.781 7.99783 109.916 8.06815 110.025C8.13846 110.134 8.23026 110.217 8.34354 110.274C8.45877 110.329 8.59256 110.356 8.7449 110.356C8.87381 110.356 8.98807 110.334 9.08768 110.289C9.18729 110.244 9.27127 110.179 9.33963 110.095C9.40799 110.011 9.45975 109.91 9.4949 109.791C9.53201 109.672 9.55057 109.538 9.55057 109.389C9.55057 109.255 9.53201 109.13 9.4949 109.014C9.4578 108.899 9.40213 108.799 9.32791 108.713C9.25565 108.627 9.16678 108.56 9.06131 108.513C8.95584 108.465 8.83475 108.44 8.69803 108.44C8.51639 108.44 8.37869 108.465 8.28494 108.513C8.19315 108.562 8.09842 108.629 8.00076 108.713ZM13.368 108.27V108.921C13.368 109.27 13.3367 109.565 13.2742 109.805C13.2117 110.046 13.1219 110.239 13.0047 110.385C12.8875 110.532 12.7459 110.638 12.5799 110.705C12.4158 110.769 12.2303 110.801 12.0232 110.801C11.8592 110.801 11.7078 110.781 11.5691 110.74C11.4305 110.699 11.3055 110.633 11.1941 110.544C11.0847 110.452 10.991 110.333 10.9129 110.186C10.8347 110.04 10.7752 109.862 10.7342 109.653C10.6931 109.444 10.6726 109.2 10.6726 108.921V108.27C10.6726 107.921 10.7039 107.628 10.7664 107.391C10.8308 107.155 10.9217 106.966 11.0388 106.823C11.156 106.678 11.2967 106.575 11.4607 106.512C11.6267 106.45 11.8123 106.419 12.0174 106.419C12.1834 106.419 12.3357 106.439 12.4744 106.48C12.615 106.519 12.74 106.583 12.8494 106.671C12.9588 106.757 13.0515 106.872 13.1277 107.016C13.2058 107.159 13.2654 107.334 13.3064 107.541C13.3474 107.748 13.368 107.991 13.368 108.27ZM12.823 109.008V108.179C12.823 107.988 12.8113 107.82 12.7879 107.675C12.7664 107.529 12.7342 107.404 12.6912 107.3C12.6482 107.197 12.5935 107.113 12.5271 107.049C12.4627 106.984 12.3875 106.937 12.3015 106.908C12.2176 106.877 12.1228 106.861 12.0174 106.861C11.8885 106.861 11.7742 106.885 11.6746 106.934C11.575 106.981 11.491 107.056 11.4226 107.16C11.3562 107.263 11.3055 107.399 11.2703 107.567C11.2351 107.735 11.2176 107.939 11.2176 108.179V109.008C11.2176 109.2 11.2283 109.369 11.2498 109.515C11.2732 109.662 11.3074 109.789 11.3523 109.896C11.3972 110.002 11.4519 110.089 11.5164 110.157C11.5808 110.225 11.6551 110.276 11.739 110.309C11.825 110.341 11.9197 110.356 12.0232 110.356C12.156 110.356 12.2722 110.331 12.3719 110.28C12.4715 110.229 12.5545 110.15 12.6209 110.043C12.6892 109.933 12.74 109.794 12.7732 109.624C12.8064 109.452 12.823 109.247 12.823 109.008ZM16.743 108.27V108.921C16.743 109.27 16.7117 109.565 16.6492 109.805C16.5867 110.046 16.4969 110.239 16.3797 110.385C16.2625 110.532 16.1209 110.638 15.9549 110.705C15.7908 110.769 15.6053 110.801 15.3982 110.801C15.2342 110.801 15.0828 110.781 14.9441 110.74C14.8055 110.699 14.6805 110.633 14.5691 110.544C14.4597 110.452 14.366 110.333 14.2879 110.186C14.2097 110.04 14.1502 109.862 14.1092 109.653C14.0681 109.444 14.0476 109.2 14.0476 108.921V108.27C14.0476 107.921 14.0789 107.628 14.1414 107.391C14.2058 107.155 14.2967 106.966 14.4138 106.823C14.531 106.678 14.6717 106.575 14.8357 106.512C15.0017 106.45 15.1873 106.419 15.3924 106.419C15.5584 106.419 15.7107 106.439 15.8494 106.48C15.99 106.519 16.115 106.583 16.2244 106.671C16.3338 106.757 16.4265 106.872 16.5027 107.016C16.5808 107.159 16.6404 107.334 16.6814 107.541C16.7224 107.748 16.743 107.991 16.743 108.27ZM16.198 109.008V108.179C16.198 107.988 16.1863 107.82 16.1629 107.675C16.1414 107.529 16.1092 107.404 16.0662 107.3C16.0232 107.197 15.9685 107.113 15.9021 107.049C15.8377 106.984 15.7625 106.937 15.6765 106.908C15.5926 106.877 15.4978 106.861 15.3924 106.861C15.2635 106.861 15.1492 106.885 15.0496 106.934C14.95 106.981 14.866 107.056 14.7976 107.16C14.7312 107.263 14.6805 107.399 14.6453 107.567C14.6101 107.735 14.5926 107.939 14.5926 108.179V109.008C14.5926 109.2 14.6033 109.369 14.6248 109.515C14.6482 109.662 14.6824 109.789 14.7273 109.896C14.7722 110.002 14.8269 110.089 14.8914 110.157C14.9558 110.225 15.0301 110.276 15.114 110.309C15.2 110.341 15.2947 110.356 15.3982 110.356C15.531 110.356 15.6472 110.331 15.7469 110.28C15.8465 110.229 15.9295 110.15 15.9959 110.043C16.0642 109.933 16.115 109.794 16.1482 109.624C16.1814 109.452 16.198 109.247 16.198 109.008Z" fill="#A3A3A3"/>
<path d="M10.0721 54.4772V54.7819L8.30545 58.7429H7.73416L9.49783 54.9225H7.18924V54.4772H10.0721ZM11.3758 56.7126L10.9422 56.6013L11.156 54.4772H13.3445V54.9782H11.616L11.4871 56.1384C11.5652 56.0934 11.6638 56.0515 11.783 56.0124C11.9041 55.9733 12.0428 55.9538 12.199 55.9538C12.3963 55.9538 12.573 55.988 12.7293 56.0563C12.8855 56.1227 13.0183 56.2184 13.1277 56.3434C13.239 56.4684 13.324 56.6188 13.3826 56.7946C13.4412 56.9704 13.4705 57.1667 13.4705 57.3835C13.4705 57.5886 13.4422 57.777 13.3855 57.9489C13.3308 58.1208 13.2478 58.2712 13.1365 58.4001C13.0252 58.527 12.8846 58.6257 12.7146 58.696C12.5467 58.7663 12.3484 58.8015 12.1199 58.8015C11.948 58.8015 11.7849 58.778 11.6306 58.7311C11.4783 58.6823 11.3416 58.6091 11.2205 58.5114C11.1013 58.4118 11.0037 58.2888 10.9275 58.1423C10.8533 57.9938 10.8064 57.82 10.7869 57.6208H11.3025C11.326 57.7809 11.3728 57.9157 11.4431 58.0251C11.5135 58.1345 11.6053 58.2175 11.7185 58.2741C11.8338 58.3288 11.9676 58.3561 12.1199 58.3561C12.2488 58.3561 12.3631 58.3337 12.4627 58.2888C12.5623 58.2438 12.6463 58.1794 12.7146 58.0954C12.783 58.0114 12.8347 57.9099 12.8699 57.7907C12.907 57.6716 12.9256 57.5378 12.9256 57.3893C12.9256 57.2546 12.907 57.1296 12.8699 57.0143C12.8328 56.8991 12.7771 56.7985 12.7029 56.7126C12.6306 56.6266 12.5418 56.5602 12.4363 56.5134C12.3308 56.4645 12.2097 56.4401 12.073 56.4401C11.8914 56.4401 11.7537 56.4645 11.6599 56.5134C11.5681 56.5622 11.4734 56.6286 11.3758 56.7126ZM16.743 56.2702V56.9206C16.743 57.2702 16.7117 57.5651 16.6492 57.8054C16.5867 58.0456 16.4969 58.239 16.3797 58.3854C16.2625 58.5319 16.1209 58.6384 15.9549 58.7048C15.7908 58.7692 15.6053 58.8015 15.3982 58.8015C15.2342 58.8015 15.0828 58.7809 14.9441 58.7399C14.8055 58.6989 14.6805 58.6335 14.5691 58.5436C14.4597 58.4518 14.366 58.3327 14.2879 58.1862C14.2097 58.0397 14.1502 57.862 14.1092 57.653C14.0681 57.444 14.0476 57.1999 14.0476 56.9206V56.2702C14.0476 55.9206 14.0789 55.6276 14.1414 55.3913C14.2058 55.155 14.2967 54.9655 14.4138 54.8229C14.531 54.6784 14.6717 54.5749 14.8357 54.5124C15.0017 54.4499 15.1873 54.4186 15.3924 54.4186C15.5584 54.4186 15.7107 54.4391 15.8494 54.4802C15.99 54.5192 16.115 54.5827 16.2244 54.6706C16.3338 54.7565 16.4265 54.8718 16.5027 55.0163C16.5808 55.1589 16.6404 55.3337 16.6814 55.5407C16.7224 55.7477 16.743 55.9909 16.743 56.2702ZM16.198 57.0085V56.1794C16.198 55.988 16.1863 55.82 16.1629 55.6755C16.1414 55.529 16.1092 55.404 16.0662 55.3005C16.0232 55.197 15.9685 55.113 15.9021 55.0485C15.8377 54.9841 15.7625 54.9372 15.6765 54.9079C15.5926 54.8766 15.4978 54.861 15.3924 54.861C15.2635 54.861 15.1492 54.8854 15.0496 54.9343C14.95 54.9811 14.866 55.0563 14.7976 55.1599C14.7312 55.2634 14.6805 55.3991 14.6453 55.5671C14.6101 55.735 14.5926 55.9391 14.5926 56.1794V57.0085C14.5926 57.1999 14.6033 57.3688 14.6248 57.5153C14.6482 57.6618 14.6824 57.7888 14.7273 57.8962C14.7722 58.0016 14.8269 58.0886 14.8914 58.1569C14.9558 58.2253 15.0301 58.2761 15.114 58.3093C15.2 58.3405 15.2947 58.3561 15.3982 58.3561C15.531 58.3561 15.6472 58.3307 15.7469 58.28C15.8465 58.2292 15.9295 58.1501 15.9959 58.0427C16.0642 57.9333 16.115 57.7936 16.1482 57.6237C16.1814 57.4518 16.198 57.2468 16.198 57.0085Z" fill="#A3A3A3"/>
<path d="M5.72146 1.71094V6H5.17946V2.3877L4.08669 2.78613V2.29688L5.6365 1.71094H5.72146ZM9.99294 3.52734V4.17773C9.99294 4.52734 9.96169 4.82227 9.89919 5.0625C9.83669 5.30273 9.74685 5.49609 9.62966 5.64258C9.51247 5.78906 9.37087 5.89551 9.20485 5.96191C9.04079 6.02637 8.85525 6.05859 8.64821 6.05859C8.48415 6.05859 8.33278 6.03809 8.19411 5.99707C8.05544 5.95605 7.93044 5.89062 7.81911 5.80078C7.70974 5.70898 7.61599 5.58984 7.53786 5.44336C7.45974 5.29688 7.40017 5.11914 7.35915 4.91016C7.31814 4.70117 7.29763 4.45703 7.29763 4.17773V3.52734C7.29763 3.17773 7.32888 2.88477 7.39138 2.64844C7.45583 2.41211 7.54665 2.22266 7.66384 2.08008C7.78103 1.93555 7.92165 1.83203 8.08571 1.76953C8.25173 1.70703 8.43728 1.67578 8.64235 1.67578C8.80837 1.67578 8.96071 1.69629 9.09939 1.7373C9.24001 1.77637 9.36501 1.83984 9.47439 1.92773C9.58376 2.01367 9.67653 2.12891 9.75271 2.27344C9.83083 2.41602 9.8904 2.59082 9.93142 2.79785C9.97243 3.00488 9.99294 3.24805 9.99294 3.52734ZM9.44802 4.26562V3.43652C9.44802 3.24512 9.4363 3.07715 9.41286 2.93262C9.39138 2.78613 9.35915 2.66113 9.31618 2.55762C9.27321 2.4541 9.21853 2.37012 9.15212 2.30566C9.08767 2.24121 9.01247 2.19434 8.92653 2.16504C8.84255 2.13379 8.74782 2.11816 8.64235 2.11816C8.51345 2.11816 8.39919 2.14258 8.29958 2.19141C8.19997 2.23828 8.11599 2.31348 8.04763 2.41699C7.98122 2.52051 7.93044 2.65625 7.89528 2.82422C7.86013 2.99219 7.84255 3.19629 7.84255 3.43652V4.26562C7.84255 4.45703 7.85329 4.62598 7.87478 4.77246C7.89821 4.91895 7.93239 5.0459 7.97732 5.15332C8.02224 5.25879 8.07693 5.3457 8.14138 5.41406C8.20583 5.48242 8.28005 5.5332 8.36403 5.56641C8.44997 5.59766 8.5447 5.61328 8.64821 5.61328C8.78103 5.61328 8.89724 5.58789 8.99685 5.53711C9.09646 5.48633 9.17946 5.40723 9.24587 5.2998C9.31423 5.19043 9.36501 5.05078 9.39821 4.88086C9.43142 4.70898 9.44802 4.50391 9.44802 4.26562ZM13.3679 3.52734V4.17773C13.3679 4.52734 13.3367 4.82227 13.2742 5.0625C13.2117 5.30273 13.1218 5.49609 13.0047 5.64258C12.8875 5.78906 12.7459 5.89551 12.5799 5.96191C12.4158 6.02637 12.2302 6.05859 12.0232 6.05859C11.8592 6.05859 11.7078 6.03809 11.5691 5.99707C11.4304 5.95605 11.3054 5.89062 11.1941 5.80078C11.0847 5.70898 10.991 5.58984 10.9129 5.44336C10.8347 5.29688 10.7752 5.11914 10.7342 4.91016C10.6931 4.70117 10.6726 4.45703 10.6726 4.17773V3.52734C10.6726 3.17773 10.7039 2.88477 10.7664 2.64844C10.8308 2.41211 10.9217 2.22266 11.0388 2.08008C11.156 1.93555 11.2967 1.83203 11.4607 1.76953C11.6267 1.70703 11.8123 1.67578 12.0174 1.67578C12.1834 1.67578 12.3357 1.69629 12.4744 1.7373C12.615 1.77637 12.74 1.83984 12.8494 1.92773C12.9588 2.01367 13.0515 2.12891 13.1277 2.27344C13.2058 2.41602 13.2654 2.59082 13.3064 2.79785C13.3474 3.00488 13.3679 3.24805 13.3679 3.52734ZM12.823 4.26562V3.43652C12.823 3.24512 12.8113 3.07715 12.7879 2.93262C12.7664 2.78613 12.7342 2.66113 12.6912 2.55762C12.6482 2.4541 12.5935 2.37012 12.5271 2.30566C12.4627 2.24121 12.3875 2.19434 12.3015 2.16504C12.2176 2.13379 12.1228 2.11816 12.0174 2.11816C11.8884 2.11816 11.7742 2.14258 11.6746 2.19141C11.575 2.23828 11.491 2.31348 11.4226 2.41699C11.3562 2.52051 11.3054 2.65625 11.2703 2.82422C11.2351 2.99219 11.2176 3.19629 11.2176 3.43652V4.26562C11.2176 4.45703 11.2283 4.62598 11.2498 4.77246C11.2732 4.91895 11.3074 5.0459 11.3523 5.15332C11.3972 5.25879 11.4519 5.3457 11.5164 5.41406C11.5808 5.48242 11.6551 5.5332 11.739 5.56641C11.825 5.59766 11.9197 5.61328 12.0232 5.61328C12.156 5.61328 12.2722 5.58789 12.3718 5.53711C12.4715 5.48633 12.5545 5.40723 12.6209 5.2998C12.6892 5.19043 12.74 5.05078 12.7732 4.88086C12.8064 4.70898 12.823 4.50391 12.823 4.26562ZM16.7429 3.52734V4.17773C16.7429 4.52734 16.7117 4.82227 16.6492 5.0625C16.5867 5.30273 16.4968 5.49609 16.3797 5.64258C16.2625 5.78906 16.1209 5.89551 15.9549 5.96191C15.7908 6.02637 15.6052 6.05859 15.3982 6.05859C15.2342 6.05859 15.0828 6.03809 14.9441 5.99707C14.8054 5.95605 14.6804 5.89062 14.5691 5.80078C14.4597 5.70898 14.366 5.58984 14.2879 5.44336C14.2097 5.29688 14.1502 5.11914 14.1092 4.91016C14.0681 4.70117 14.0476 4.45703 14.0476 4.17773V3.52734C14.0476 3.17773 14.0789 2.88477 14.1414 2.64844C14.2058 2.41211 14.2967 2.22266 14.4138 2.08008C14.531 1.93555 14.6717 1.83203 14.8357 1.76953C15.0017 1.70703 15.1873 1.67578 15.3924 1.67578C15.5584 1.67578 15.7107 1.69629 15.8494 1.7373C15.99 1.77637 16.115 1.83984 16.2244 1.92773C16.3338 2.01367 16.4265 2.12891 16.5027 2.27344C16.5808 2.41602 16.6404 2.59082 16.6814 2.79785C16.7224 3.00488 16.7429 3.24805 16.7429 3.52734ZM16.198 4.26562V3.43652C16.198 3.24512 16.1863 3.07715 16.1629 2.93262C16.1414 2.78613 16.1092 2.66113 16.0662 2.55762C16.0232 2.4541 15.9685 2.37012 15.9021 2.30566C15.8377 2.24121 15.7625 2.19434 15.6765 2.16504C15.5926 2.13379 15.4978 2.11816 15.3924 2.11816C15.2634 2.11816 15.1492 2.14258 15.0496 2.19141C14.95 2.23828 14.866 2.31348 14.7976 2.41699C14.7312 2.52051 14.6804 2.65625 14.6453 2.82422C14.6101 2.99219 14.5926 3.19629 14.5926 3.43652V4.26562C14.5926 4.45703 14.6033 4.62598 14.6248 4.77246C14.6482 4.91895 14.6824 5.0459 14.7273 5.15332C14.7722 5.25879 14.8269 5.3457 14.8914 5.41406C14.9558 5.48242 15.0301 5.5332 15.114 5.56641C15.2 5.59766 15.2947 5.61328 15.3982 5.61328C15.531 5.61328 15.6472 5.58789 15.7468 5.53711C15.8465 5.48633 15.9295 5.40723 15.9959 5.2998C16.0642 5.19043 16.115 5.05078 16.1482 4.88086C16.1814 4.70898 16.198 4.50391 16.198 4.26562Z" fill="#A3A3A3"/>
</svg>
