<svg width="19" height="18" viewBox="0 0 19 18" fill="none" xmlns="http://www.w3.org/2000/svg">
<path d="M18.366 8.99996C18.366 4.02939 14.3365 -4.00543e-05 9.36597 -4.00543e-05C4.3954 -4.00543e-05 0.365967 4.02939 0.365967 8.99996C0.365967 13.4921 3.65714 17.2154 7.95972 17.8906V11.6015H5.67456V8.99996H7.95972V7.01715C7.95972 4.76152 9.30335 3.51558 11.3591 3.51558C12.3438 3.51558 13.3738 3.69137 13.3738 3.69137V5.90621H12.2389C11.1209 5.90621 10.7722 6.59997 10.7722 7.3117V8.99996H13.2683L12.8693 11.6015H10.7722V17.8906C15.0748 17.2154 18.366 13.4921 18.366 8.99996Z" fill="#1877F2"/>
<path d="M12.8693 11.6016L13.2683 9H10.7722V7.31174C10.7722 6.60001 11.1209 5.90625 12.2389 5.90625H13.3738V3.69141C13.3738 3.69141 12.3438 3.51562 11.3592 3.51562C9.30335 3.51562 7.95972 4.76156 7.95972 7.01719V9H5.67456V11.6016H7.95972V17.8907C8.41793 17.9626 8.88756 18 9.36597 18C9.84437 18 10.314 17.9626 10.7722 17.8907V11.6016H12.8693Z" fill="white"/>
</svg>
