<svg width="1176" height="660" viewBox="0 0 1176 660" fill="none" xmlns="http://www.w3.org/2000/svg">
<g opacity="0.64">
<mask id="mask0_76_9711" style="mask-type:alpha" maskUnits="userSpaceOnUse" x="52" y="0" width="1072" height="540">
<rect x="52" width="1072" height="540" fill="url(#paint0_linear_76_9711)"/>
</mask>
<g mask="url(#mask0_76_9711)">
<path fill-rule="evenodd" clip-rule="evenodd" d="M586.977 -109.403L586.087 -110.293L586.794 -111L587.684 -110.11L588.574 -111L589.281 -110.293L588.391 -109.403L981.635 283.841L980.928 284.548L587.684 -108.696L194.44 284.548L193.733 283.841L586.977 -109.403ZM1298.79 642.142L587.685 -64.0106L-123.423 642.142L-124.127 641.432L586.975 -64.7153L586.092 -65.5925L586.797 -66.3021L587.685 -65.42L588.573 -66.3021L589.278 -65.5925L588.394 -64.7153L1299.5 641.432L1298.79 642.142ZM587.684 -24.2847L1204.43 585.027L1205.13 584.316L588.395 -24.9876L589.278 -25.8592L588.575 -26.5706L587.684 -25.6904L586.793 -26.5706L586.09 -25.8592L586.972 -24.9876L-29.7614 584.316L-29.0585 585.027L587.684 -24.2847ZM1115.03 540.329L587.684 20.4118L60.3396 540.329L59.6375 539.617L586.972 19.7096L586.09 18.8404L586.792 18.1283L587.684 19.0075L588.576 18.1283L589.278 18.8404L588.396 19.7096L1115.73 539.617L1115.03 540.329ZM587.687 65.1054L1025.63 495.63L1026.34 494.917L588.4 64.4042L589.279 63.5396L588.578 62.8265L587.687 63.7031L586.795 62.8265L586.094 63.5396L586.974 64.4042L149.038 494.917L149.739 495.63L587.687 65.1054ZM946.17 455.899L587.686 104.831L229.202 455.899L228.502 455.184L586.971 104.132L586.095 103.273L586.794 102.559L587.686 103.432L588.577 102.559L589.277 103.273L588.4 104.132L946.87 455.184L946.17 455.899ZM587.686 154.531L1092.68 659.524L1093.39 658.816L588.393 153.824L589.282 152.935L588.575 152.228L587.686 153.117L586.797 152.228L586.089 152.935L586.979 153.824L81.9866 658.816L82.6936 659.524L587.686 154.531ZM951.131 562.676L587.683 199.227L224.235 562.676L223.528 561.968L586.976 198.52L586.089 197.634L586.796 196.927L587.683 197.813L588.569 196.927L589.276 197.634L588.39 198.52L951.838 561.968L951.131 562.676ZM587.687 248.837L653.146 311.871L653.839 311.151L588.408 248.143L589.276 247.306L588.583 246.586L587.687 247.448L586.791 246.586L586.097 247.306L586.966 248.143L521.534 311.151L522.228 311.871L587.687 248.837Z" fill="url(#paint1_linear_76_9711)"/>
</g>
</g>
<defs>
<linearGradient id="paint0_linear_76_9711" x1="588" y1="0" x2="588" y2="540" gradientUnits="userSpaceOnUse">
<stop stop-color="#FFFAF6"/>
<stop offset="1" stop-color="#FFFAF6" stop-opacity="0"/>
</linearGradient>
<linearGradient id="paint1_linear_76_9711" x1="587.685" y1="-111" x2="587.685" y2="659.524" gradientUnits="userSpaceOnUse">
<stop offset="0.390509" stop-color="#39BC5E"/>
<stop offset="1" stop-color="#39BC5E" stop-opacity="0"/>
</linearGradient>
</defs>
</svg>
