<svg width="48" height="48" viewBox="0 0 48 48" fill="none" xmlns="http://www.w3.org/2000/svg">
<rect x="0.5" y="0.5" width="47" height="47" rx="7.5" fill="#F7FAFC" stroke="#EBEBEB"/>
<path d="M32.6406 23.9746C32.6441 25.2945 32.3357 26.5965 31.7406 27.7746C31.0351 29.1864 29.9504 30.3738 28.6081 31.2039C27.2658 32.034 25.7189 32.474 24.1406 32.4746C22.8208 32.4781 21.5187 32.1697 20.3406 31.5746L14.6406 33.4746L16.5406 27.7746C15.9456 26.5965 15.6372 25.2945 15.6406 23.9746C15.6412 22.3964 16.0812 20.8495 16.9113 19.5072C17.7415 18.1649 18.9289 17.0802 20.3406 16.3746C21.5187 15.7796 22.8208 15.4712 24.1406 15.4746H24.6406C26.725 15.5896 28.6937 16.4694 30.1698 17.9455C31.6459 19.4216 32.5256 21.3903 32.6406 23.4746V23.9746Z" stroke="#31B456" stroke-width="2" stroke-linecap="round" stroke-linejoin="round"/>
</svg>
