<svg width="376" height="462" viewBox="0 0 376 462" fill="none" xmlns="http://www.w3.org/2000/svg">
<rect x="1.34766" y="0.765137" width="374" height="460" rx="7.5" fill="white" fill-opacity="0.1" stroke="url(#paint0_linear_86_135348)"/>
<g opacity="0.11">
<rect x="15.8477" y="345.265" width="345" height="92" rx="12" fill="#FFFAFA"/>
<rect x="16.3477" y="345.765" width="344" height="91" rx="11.5" stroke="#FFB6B6" stroke-opacity="0.08"/>
</g>
<mask id="mask0_86_135348" style="mask-type:alpha" maskUnits="userSpaceOnUse" x="15" y="345" width="346" height="93">
<rect x="16.3477" y="345.765" width="344" height="91" rx="7.5" fill="#181351" stroke="url(#paint1_linear_86_135348)"/>
</mask>
<g mask="url(#mask0_86_135348)">
<rect x="258.848" y="358.265" width="1" height="66" fill="#36353D"/>
<path d="M280.319 384.405V383.385C281.795 383.277 282.851 382.509 282.851 381.141C282.851 379.629 281.807 379.173 280.439 378.753L279.515 378.477C278.555 378.177 277.859 377.937 277.859 377.145C277.859 376.485 278.423 376.029 279.491 376.029C280.595 376.029 281.711 376.497 282.371 376.953V375.669C281.975 375.381 281.267 375.057 280.319 374.937V373.893H279.239V374.901C277.775 374.985 276.611 375.801 276.611 377.229C276.611 378.717 277.739 379.221 278.939 379.557L280.043 379.881C281.075 380.205 281.639 380.457 281.639 381.201C281.639 381.861 281.171 382.305 279.983 382.305C278.831 382.305 277.559 381.825 276.791 381.285V382.509C277.319 382.881 278.195 383.241 279.239 383.361V384.405H280.319ZM286.731 375.009L286.323 376.053H287.835V383.265H288.987V375.009H286.731ZM291.796 381.897H290.584L289.9 384.681H290.824L291.796 381.897ZM295.862 383.385C297.926 383.385 299.102 382.293 299.102 380.925C299.102 379.989 298.562 379.197 297.518 378.789C298.298 378.441 298.706 377.793 298.706 377.085C298.706 375.837 297.638 374.889 295.862 374.889C294.11 374.889 293.042 375.825 293.042 377.061C293.042 377.769 293.438 378.429 294.23 378.789C293.174 379.197 292.634 380.001 292.634 380.949C292.634 382.305 293.81 383.385 295.862 383.385ZM294.17 377.121C294.17 376.341 294.866 375.873 295.862 375.873C296.87 375.873 297.566 376.353 297.566 377.145C297.566 377.937 296.858 378.429 295.862 378.429C294.866 378.429 294.17 377.925 294.17 377.121ZM293.798 380.841C293.798 379.857 294.65 379.233 295.862 379.233C297.074 379.233 297.938 379.833 297.938 380.829C297.938 381.801 297.074 382.389 295.862 382.389C294.662 382.389 293.798 381.801 293.798 380.841ZM303.852 383.385C305.688 383.385 307.224 382.077 307.224 379.137C307.224 376.209 305.688 374.889 303.852 374.889C302.028 374.889 300.492 376.209 300.492 379.137C300.492 382.077 302.028 383.385 303.852 383.385ZM303.852 382.269C302.592 382.269 301.704 381.237 301.704 379.137C301.704 377.049 302.592 376.005 303.852 376.005C305.112 376.005 306.012 377.049 306.012 379.137C306.012 381.237 305.112 382.269 303.852 382.269ZM312.266 383.385C314.102 383.385 315.638 382.077 315.638 379.137C315.638 376.209 314.102 374.889 312.266 374.889C310.442 374.889 308.906 376.209 308.906 379.137C308.906 382.077 310.442 383.385 312.266 383.385ZM312.266 382.269C311.006 382.269 310.118 381.237 310.118 379.137C310.118 377.049 311.006 376.005 312.266 376.005C313.526 376.005 314.426 377.049 314.426 379.137C314.426 381.237 313.526 382.269 312.266 382.269Z" fill="white"/>
<path d="M276.779 360.761V366.265H280.579V365.769H277.307V363.721H280.179V363.225H277.307V361.257H280.579V360.761H276.779ZM284.269 366.265H284.869L283.325 364.089L284.853 362.025H284.253L282.973 363.801L281.685 362.025H281.085L282.613 364.105L281.069 366.265H281.669L282.965 364.377L284.269 366.265ZM287.14 366.345C288.38 366.345 289.372 365.545 289.372 364.033C289.372 362.673 288.564 361.945 287.516 361.945C286.868 361.945 286.38 362.225 286.1 362.473V362.025H285.62V367.529H286.132V366.185C286.412 366.273 286.716 366.345 287.14 366.345ZM287.404 362.409C288.284 362.409 288.844 363.025 288.844 364.057C288.844 365.257 288.132 365.881 287.124 365.881C286.7 365.881 286.404 365.793 286.132 365.697V362.881C286.396 362.665 286.836 362.409 287.404 362.409ZM293.841 366.009V365.537C293.545 365.729 292.929 365.857 292.393 365.857C291.457 365.857 290.761 365.369 290.705 364.329H293.953V364.081C293.953 362.705 293.297 361.937 292.145 361.937C291.009 361.937 290.185 362.737 290.185 364.145C290.185 365.601 291.105 366.345 292.353 366.345C292.889 366.345 293.521 366.225 293.841 366.009ZM292.129 362.393C292.969 362.393 293.425 362.945 293.449 363.953H290.705C290.737 362.945 291.329 362.393 292.129 362.393ZM295.027 362.025V366.265H295.539V362.929C295.867 362.721 296.411 362.433 296.987 362.433C297.651 362.433 298.123 362.809 298.123 363.633V366.265H298.627V363.545C298.627 362.457 298.019 361.945 297.139 361.945C296.411 361.945 295.875 362.281 295.507 362.577V362.025H295.027ZM301.647 364.081L301.047 363.897C300.479 363.721 300.079 363.553 300.079 363.081C300.079 362.625 300.535 362.393 301.047 362.393C301.631 362.393 302.231 362.633 302.543 362.865V362.329C302.231 362.129 301.663 361.937 301.063 361.937C300.143 361.937 299.583 362.449 299.583 363.097C299.583 363.809 300.095 364.105 300.687 364.273L301.335 364.465C301.895 364.633 302.247 364.785 302.247 365.249C302.247 365.753 301.871 365.929 301.287 365.929C300.623 365.929 299.951 365.657 299.575 365.409V365.937C299.919 366.145 300.575 366.385 301.279 366.385C302.191 366.385 302.735 365.985 302.735 365.233C302.735 364.577 302.263 364.265 301.647 364.081ZM307.107 366.009V365.537C306.811 365.729 306.195 365.857 305.659 365.857C304.723 365.857 304.027 365.369 303.971 364.329H307.219V364.081C307.219 362.705 306.563 361.937 305.411 361.937C304.275 361.937 303.451 362.737 303.451 364.145C303.451 365.601 304.371 366.345 305.619 366.345C306.155 366.345 306.787 366.225 307.107 366.009ZM305.395 362.393C306.235 362.393 306.691 362.945 306.715 363.953H303.971C304.003 362.945 304.595 362.393 305.395 362.393Z" fill="#CACACA"/>
<path d="M280.047 424.405V423.385C281.523 423.277 282.579 422.509 282.579 421.141C282.579 419.629 281.535 419.173 280.167 418.753L279.243 418.477C278.283 418.177 277.587 417.937 277.587 417.145C277.587 416.485 278.151 416.029 279.219 416.029C280.323 416.029 281.439 416.497 282.099 416.953V415.669C281.703 415.381 280.995 415.057 280.047 414.937V413.893H278.967V414.901C277.503 414.985 276.339 415.801 276.339 417.229C276.339 418.717 277.467 419.221 278.667 419.557L279.771 419.881C280.803 420.205 281.367 420.457 281.367 421.201C281.367 421.861 280.899 422.305 279.711 422.305C278.559 422.305 277.287 421.825 276.519 421.285V422.509C277.047 422.881 277.923 423.241 278.967 423.361V424.405H280.047ZM287.167 415.009L286.723 419.257H289.099C290.323 419.257 291.295 419.653 291.295 420.829C291.295 421.897 290.419 422.329 289.363 422.329C288.151 422.329 287.023 421.753 286.435 421.273V422.461C286.963 422.845 288.031 423.385 289.435 423.385C291.115 423.385 292.483 422.533 292.483 420.829C292.483 418.993 291.151 418.201 289.399 418.201H287.935L288.187 416.065H291.991V415.009H287.167ZM297.124 423.385C298.96 423.385 300.496 422.077 300.496 419.137C300.496 416.209 298.96 414.889 297.124 414.889C295.3 414.889 293.764 416.209 293.764 419.137C293.764 422.077 295.3 423.385 297.124 423.385ZM297.124 422.269C295.864 422.269 294.976 421.237 294.976 419.137C294.976 417.049 295.864 416.005 297.124 416.005C298.384 416.005 299.284 417.049 299.284 419.137C299.284 421.237 298.384 422.269 297.124 422.269ZM305.538 423.385C307.374 423.385 308.91 422.077 308.91 419.137C308.91 416.209 307.374 414.889 305.538 414.889C303.714 414.889 302.178 416.209 302.178 419.137C302.178 422.077 303.714 423.385 305.538 423.385ZM305.538 422.269C304.278 422.269 303.39 421.237 303.39 419.137C303.39 417.049 304.278 416.005 305.538 416.005C306.798 416.005 307.698 417.049 307.698 419.137C307.698 421.237 306.798 422.269 305.538 422.269Z" fill="white"/>
<path d="M276.154 401.257H278.082V406.265H278.61V401.257H280.538V400.761H276.154V401.257ZM283.189 406.345C284.445 406.345 285.357 405.393 285.357 404.145C285.357 402.889 284.445 401.945 283.189 401.945C281.933 401.945 281.021 402.889 281.021 404.145C281.021 405.393 281.933 406.345 283.189 406.345ZM283.189 405.865C282.229 405.865 281.533 405.121 281.533 404.145C281.533 403.161 282.229 402.425 283.189 402.425C284.157 402.425 284.845 403.161 284.845 404.145C284.845 405.121 284.157 405.865 283.189 405.865ZM288.738 406.081V405.617C288.538 405.753 288.234 405.873 287.882 405.873C287.402 405.873 287.122 405.649 287.122 405.105V402.481H288.698V402.025H287.122V401.225H286.994L285.954 402.345V402.481H286.61V405.145C286.61 406.113 287.194 406.345 287.786 406.345C288.226 406.345 288.546 406.209 288.738 406.081ZM292.244 403.593V404.105C292.036 404.033 291.684 403.961 291.252 403.961C290.092 403.961 289.42 404.521 289.42 405.249C289.42 405.905 289.868 406.345 290.732 406.345C291.396 406.345 291.932 406.001 292.276 405.625V406.265H292.748V403.601C292.748 402.393 291.972 401.945 291.116 401.945C290.348 401.945 289.724 402.321 289.452 402.617V403.161C289.804 402.785 290.364 402.441 291.068 402.441C291.684 402.441 292.244 402.753 292.244 403.593ZM289.908 405.225C289.908 404.713 290.388 404.329 291.396 404.329C291.7 404.329 292.036 404.393 292.244 404.457V405.289C291.868 405.633 291.364 405.929 290.796 405.929C290.3 405.929 289.908 405.729 289.908 405.225ZM293.98 400.761V406.265H294.492V400.657L293.98 400.761ZM297.756 406.265H300.068C301.196 406.265 301.972 405.801 301.972 404.777C301.972 403.977 301.468 403.465 300.548 403.345C301.148 403.225 301.62 402.793 301.62 402.113C301.62 401.129 300.884 400.761 299.916 400.761H297.756V406.265ZM299.876 401.257C300.564 401.257 301.06 401.489 301.06 402.193C301.06 402.841 300.532 403.153 299.82 403.153H298.284V401.257H299.876ZM299.964 403.609C300.788 403.609 301.404 403.929 301.404 404.689C301.404 405.481 300.804 405.769 300.028 405.769H298.284V403.609H299.964ZM304.595 405.857C303.931 405.857 303.459 405.481 303.459 404.657V402.025H302.947V404.745C302.947 405.833 303.555 406.345 304.443 406.345C305.163 406.345 305.707 406.009 306.075 405.713V406.265H306.555V402.025H306.043V405.353C305.723 405.569 305.171 405.857 304.595 405.857ZM310.872 406.265H311.344V400.657L310.832 400.761V402.105C310.552 402.017 310.248 401.945 309.824 401.945C308.584 401.945 307.592 402.737 307.592 404.257C307.592 405.617 308.4 406.345 309.456 406.345C310.096 406.345 310.6 406.057 310.872 405.817V406.265ZM309.84 402.409C310.272 402.409 310.568 402.497 310.832 402.593V405.417C310.576 405.625 310.12 405.881 309.56 405.881C308.68 405.881 308.12 405.265 308.12 404.233C308.12 403.033 308.832 402.409 309.84 402.409ZM316.117 405.721V402.289C315.733 402.129 315.245 401.945 314.589 401.945C313.349 401.945 312.381 402.721 312.381 404.161C312.381 405.353 313.125 406.025 314.213 406.025C314.829 406.025 315.333 405.753 315.605 405.521V405.769C315.605 406.665 315.045 407.129 314.165 407.129C313.493 407.129 312.965 406.873 312.581 406.625V407.161C312.933 407.369 313.509 407.609 314.205 407.609C315.269 407.609 316.117 407.041 316.117 405.721ZM312.909 404.113C312.909 403.025 313.589 402.409 314.581 402.409C315.021 402.409 315.333 402.505 315.605 402.609V405.089C315.333 405.305 314.877 405.561 314.309 405.561C313.469 405.561 312.909 405.057 312.909 404.113ZM320.802 406.009V405.537C320.506 405.729 319.89 405.857 319.354 405.857C318.418 405.857 317.722 405.369 317.666 404.329H320.914V404.081C320.914 402.705 320.258 401.937 319.106 401.937C317.97 401.937 317.146 402.737 317.146 404.145C317.146 405.601 318.066 406.345 319.314 406.345C319.85 406.345 320.482 406.225 320.802 406.009ZM319.09 402.393C319.93 402.393 320.386 402.945 320.41 403.953H317.666C317.698 402.945 318.29 402.393 319.09 402.393ZM324.331 406.081V405.617C324.131 405.753 323.827 405.873 323.475 405.873C322.995 405.873 322.715 405.649 322.715 405.105V402.481H324.291V402.025H322.715V401.225H322.587L321.547 402.345V402.481H322.203V405.145C322.203 406.113 322.787 406.345 323.379 406.345C323.819 406.345 324.139 406.209 324.331 406.081Z" fill="#CACACA"/>
</g>
<path d="M38.004 416.833V415.409C40.004 415.201 41.396 414.113 41.396 412.273C41.396 410.097 39.812 409.473 38.068 408.993L36.836 408.641C35.652 408.321 34.868 408.065 34.868 407.265C34.868 406.593 35.492 406.193 36.596 406.193C38.036 406.193 39.668 406.833 40.644 407.457V405.121C40.132 404.801 39.252 404.385 38.004 404.209V402.737H36.004V404.145C34.068 404.353 32.548 405.489 32.548 407.425C32.548 409.553 34.132 410.241 35.86 410.673L37.316 411.057C38.468 411.377 39.156 411.633 39.156 412.369C39.156 413.025 38.692 413.441 37.348 413.441C35.844 413.441 33.988 412.785 32.932 412.033V414.289C33.556 414.721 34.644 415.185 36.004 415.377V416.833H38.004ZM45.9104 410.145V411.905H49.8784V410.145H45.9104ZM65.5822 415.265V411.877H56.2302L61.3822 407.201C63.4262 405.381 65.3022 403.729 65.3022 400.985C65.3022 397.849 62.8942 395.721 59.1422 395.721C55.9782 395.721 53.3182 397.233 52.1422 398.157V402.049C53.6822 400.733 56.2582 399.165 58.8062 399.165C60.4582 399.165 61.4382 399.921 61.4382 401.181C61.4382 402.441 60.5422 403.449 58.8062 405.157L51.3862 412.437V415.265H65.5822ZM71.9958 411.177H68.2158L66.5918 418.485H69.5878L71.9958 411.177ZM73.4513 409.833V413.585C74.8233 414.537 77.2033 415.545 80.2833 415.545C85.4353 415.545 88.1513 412.773 88.1513 409.497C88.1513 406.025 85.4913 404.009 81.8233 404.009H80.6473L87.2553 399.501V396.001H73.8993V399.389H82.1873L76.2233 404.345V406.725H80.5913C82.9153 406.725 84.3433 407.537 84.3433 409.273C84.3433 410.981 82.8593 412.157 79.8353 412.157C77.1473 412.157 74.6273 410.841 73.4513 409.833ZM98.9016 415.545C103.326 415.545 106.994 412.493 106.994 405.633C106.994 398.801 103.326 395.721 98.9016 395.721C94.4776 395.721 90.8376 398.801 90.8376 405.633C90.8376 412.493 94.4776 415.545 98.9016 415.545ZM98.9016 411.961C96.3536 411.961 94.7576 409.833 94.7576 405.633C94.7576 401.433 96.3536 399.333 98.9016 399.333C101.478 399.333 103.074 401.433 103.074 405.633C103.074 409.833 101.478 411.961 98.9016 411.961ZM118.698 415.545C123.122 415.545 126.79 412.493 126.79 405.633C126.79 398.801 123.122 395.721 118.698 395.721C114.274 395.721 110.634 398.801 110.634 405.633C110.634 412.493 114.274 415.545 118.698 415.545ZM118.698 411.961C116.15 411.961 114.554 409.833 114.554 405.633C114.554 401.433 116.15 399.333 118.698 399.333C121.274 399.333 122.87 401.433 122.87 405.633C122.87 409.833 121.274 411.961 118.698 411.961Z" fill="white"/>
<rect x="31.8477" y="367.265" width="12" height="12" rx="6" fill="#EA8C8C"/>
<path d="M33.9902 376.275L36.5603 373.724L38.2738 375.422L41.9148 371.364L41.3108 370.765L38.2738 374.148L36.5603 372.45L33.3477 375.638L33.9902 376.275Z" fill="#131227"/>
<path d="M54.1836 377.365C56.1536 377.365 57.6536 375.905 57.6536 373.835C57.6536 371.745 56.1536 370.285 54.1836 370.285C52.1936 370.285 50.6936 371.745 50.6936 373.835C50.6936 375.905 52.1936 377.365 54.1836 377.365ZM54.1836 376.705C52.5936 376.705 51.3836 375.525 51.3836 373.835C51.3836 372.125 52.5836 370.945 54.1836 370.945C55.7636 370.945 56.9636 372.125 56.9636 373.835C56.9636 375.525 55.7636 376.705 54.1836 376.705ZM60.53 377.265H61.27L63.5 371.965H62.81L60.91 376.675L58.99 371.965H58.3L60.53 377.265ZM68.6611 376.945V376.355C68.2911 376.595 67.5211 376.755 66.8511 376.755C65.6811 376.755 64.8111 376.145 64.7411 374.845H68.8011V374.535C68.8011 372.815 67.9811 371.855 66.5411 371.855C65.1211 371.855 64.0911 372.855 64.0911 374.615C64.0911 376.435 65.2411 377.365 66.8011 377.365C67.4711 377.365 68.2611 377.215 68.6611 376.945ZM66.5211 372.425C67.5711 372.425 68.1411 373.115 68.1711 374.375H64.7411C64.7811 373.115 65.5211 372.425 66.5211 372.425ZM70.1425 371.965V377.265H70.7825V373.225C71.1625 372.885 71.8225 372.475 72.3925 372.475C72.7525 372.475 73.0325 372.575 73.2525 372.725V372.055C73.0425 371.935 72.8125 371.865 72.5525 371.865C71.8225 371.865 71.1725 372.355 70.7425 372.785V371.965H70.1425ZM80.5474 375.615C80.5474 376.285 80.0574 376.745 78.9574 376.745C77.9774 376.745 76.9874 376.345 76.3674 375.925V376.625C76.9474 377.005 77.8974 377.365 78.9574 377.365C80.2674 377.365 81.2274 376.755 81.2274 375.585C81.2274 374.395 80.4574 374.025 79.2574 373.635L78.5174 373.395C77.6574 373.115 77.0074 372.855 77.0074 372.065C77.0074 371.405 77.5474 370.915 78.5974 370.915C79.5374 370.915 80.3974 371.305 80.8874 371.665V370.925C80.4774 370.625 79.6674 370.275 78.6074 370.275C77.3474 370.275 76.3074 370.915 76.3074 372.115C76.3074 373.275 77.2174 373.665 78.1274 373.955L79.0574 374.255C80.0274 374.575 80.5474 374.855 80.5474 375.615ZM84.3765 377.365C85.9265 377.365 87.1665 376.365 87.1665 374.475C87.1665 372.775 86.1565 371.865 84.8465 371.865C84.0365 371.865 83.4265 372.215 83.0765 372.525V371.965H82.4765V378.845H83.1165V377.165C83.4665 377.275 83.8465 377.365 84.3765 377.365ZM84.7065 372.445C85.8065 372.445 86.5065 373.215 86.5065 374.505C86.5065 376.005 85.6165 376.785 84.3565 376.785C83.8265 376.785 83.4565 376.675 83.1165 376.555V373.035C83.4465 372.765 83.9965 372.445 84.7065 372.445ZM92.7529 376.945V376.355C92.3829 376.595 91.6129 376.755 90.9429 376.755C89.7729 376.755 88.9029 376.145 88.8329 374.845H92.8929V374.535C92.8929 372.815 92.0729 371.855 90.6329 371.855C89.2129 371.855 88.1829 372.855 88.1829 374.615C88.1829 376.435 89.3329 377.365 90.8929 377.365C91.5629 377.365 92.3529 377.215 92.7529 376.945ZM90.6129 372.425C91.6629 372.425 92.2329 373.115 92.2629 374.375H88.8329C88.8729 373.115 89.6129 372.425 90.6129 372.425ZM94.2343 371.965V377.265H94.8743V373.095C95.2843 372.835 95.9643 372.475 96.6843 372.475C97.5143 372.475 98.1043 372.945 98.1043 373.975V377.265H98.7343V373.865C98.7343 372.505 97.9743 371.865 96.8743 371.865C95.9643 371.865 95.2943 372.285 94.8343 372.655V371.965H94.2343ZM103.199 377.035V376.455C102.949 376.625 102.569 376.775 102.129 376.775C101.529 376.775 101.179 376.495 101.179 375.815V372.535H103.149V371.965H101.179V370.965H101.019L99.7195 372.365V372.535H100.539V375.865C100.539 377.075 101.269 377.365 102.009 377.365C102.559 377.365 102.959 377.195 103.199 377.035Z" fill="#CACACA"/>
<circle cx="104.848" cy="311.265" r="9.5" fill="#08061D" stroke="#A6D8C3"/>
<circle cx="104.848" cy="311.265" r="7" fill="#8CEAA6"/>
<path d="M128.94 315.919C130.354 315.919 131.334 315.541 132.174 315.037V313.595C131.418 314.127 130.368 314.617 128.996 314.617C126.896 314.617 125.37 313.147 125.37 310.963C125.37 308.779 126.896 307.295 128.996 307.295C130.368 307.295 131.418 307.785 132.174 308.317V306.875C131.334 306.371 130.354 305.993 128.94 305.993C126.07 305.993 123.914 308.051 123.914 310.963C123.914 313.875 126.07 315.919 128.94 315.919ZM137.06 315.905C139.286 315.905 140.91 314.239 140.91 312.055C140.91 309.843 139.286 308.205 137.06 308.205C134.834 308.205 133.21 309.843 133.21 312.055C133.21 314.239 134.834 315.905 137.06 315.905ZM137.06 314.673C135.604 314.673 134.512 313.553 134.512 312.055C134.512 310.529 135.604 309.437 137.06 309.437C138.53 309.437 139.608 310.529 139.608 312.055C139.608 313.567 138.53 314.673 137.06 314.673ZM142.515 308.345V315.765H143.831V310.151C144.335 309.843 145.105 309.465 145.917 309.465C146.911 309.465 147.527 310.067 147.527 311.243V315.765H148.843V310.879C148.843 310.627 148.829 310.375 148.787 310.151C149.319 309.829 150.103 309.465 150.929 309.465C151.937 309.465 152.553 310.067 152.553 311.243V315.765H153.855V310.949C153.855 309.171 152.973 308.205 151.433 308.205C150.145 308.205 149.193 308.835 148.549 309.409C148.171 308.625 147.443 308.205 146.407 308.205C145.245 308.205 144.349 308.765 143.747 309.283V308.345H142.515ZM158.549 315.905C160.677 315.905 162.567 314.589 162.567 311.859C162.567 309.395 161.041 308.205 159.305 308.205C158.269 308.205 157.485 308.597 156.995 309.003V308.345H155.763V317.977H157.079V315.723C157.499 315.835 157.947 315.905 158.549 315.905ZM158.941 309.381C160.299 309.381 161.209 310.305 161.209 311.943C161.209 313.847 160.033 314.729 158.493 314.729C157.905 314.729 157.457 314.617 157.079 314.491V309.997C157.499 309.703 158.143 309.381 158.941 309.381ZM168.553 311.257V311.929C168.217 311.803 167.643 311.663 166.915 311.663C165.011 311.663 163.779 312.615 163.779 313.917C163.779 315.149 164.633 315.905 166.131 315.905C167.237 315.905 168.105 315.359 168.637 314.785V315.765H169.869V311.243C169.869 309.031 168.469 308.205 166.859 308.205C165.487 308.205 164.353 308.849 163.863 309.353V310.711C164.493 310.067 165.529 309.507 166.691 309.507C167.685 309.507 168.553 309.997 168.553 311.257ZM165.011 313.861C165.011 313.091 165.767 312.573 167.237 312.573C167.713 312.573 168.217 312.657 168.553 312.755V314.015C167.979 314.491 167.181 314.883 166.341 314.883C165.599 314.883 165.011 314.589 165.011 313.861ZM171.759 308.345V315.765H173.075V310.249C173.579 309.871 174.349 309.465 175.077 309.465C175.609 309.465 176.043 309.619 176.365 309.815V308.429C176.099 308.289 175.791 308.205 175.469 308.205C174.475 308.205 173.565 308.835 172.991 309.409V308.345H171.759ZM178.284 307.309C178.858 307.309 179.222 307.001 179.222 306.539C179.222 306.063 178.858 305.755 178.284 305.755C177.71 305.755 177.332 306.063 177.332 306.539C177.332 307.001 177.71 307.309 178.284 307.309ZM177.612 308.345V315.765H178.928V308.345H177.612ZM180.933 308.345V315.765H182.249V310.137C182.767 309.829 183.607 309.465 184.475 309.465C185.567 309.465 186.225 310.081 186.225 311.299V315.765H187.541V311.005C187.541 309.185 186.603 308.205 184.965 308.205C183.747 308.205 182.795 308.765 182.165 309.283V308.345H180.933ZM195.849 314.603V308.821C195.163 308.541 194.253 308.205 193.035 308.205C190.907 308.205 189.101 309.493 189.101 312.027C189.101 314.043 190.403 315.233 192.265 315.233C193.273 315.233 194.043 314.827 194.533 314.449V314.771C194.533 316.129 193.735 316.885 192.209 316.885C191.103 316.885 190.179 316.465 189.507 316.003V317.347C190.123 317.725 191.131 318.117 192.335 318.117C194.267 318.117 195.849 317.109 195.849 314.603ZM190.445 311.873C190.445 310.249 191.523 309.381 193.021 309.381C193.651 309.381 194.127 309.507 194.533 309.661V313.399C194.099 313.707 193.399 314.043 192.587 314.043C191.341 314.043 190.445 313.329 190.445 311.873ZM202.461 315.765H203.987L205.933 309.829L207.851 315.765H209.391L211.659 308.345H210.245L208.607 314.519L206.675 308.345H205.177L203.245 314.519L201.621 308.345H200.193L202.461 315.765ZM213.598 307.309C214.172 307.309 214.536 307.001 214.536 306.539C214.536 306.063 214.172 305.755 213.598 305.755C213.024 305.755 212.646 306.063 212.646 306.539C212.646 307.001 213.024 307.309 213.598 307.309ZM212.926 308.345V315.765H214.242V308.345H212.926ZM220.672 315.443V314.309C220.336 314.519 219.79 314.715 219.202 314.715C218.446 314.715 217.998 314.379 217.998 313.525V309.507H220.616V308.345H217.998V306.945H217.69L215.548 309.171V309.507H216.682V313.665C216.682 315.457 217.718 315.905 218.88 315.905C219.706 315.905 220.308 315.681 220.672 315.443ZM225.641 309.465C226.733 309.465 227.391 310.081 227.391 311.299V315.765H228.707V311.005C228.707 309.185 227.769 308.205 226.131 308.205C224.969 308.205 224.045 308.709 223.415 309.213V305.923L222.099 306.133V315.765H223.415V310.137C223.933 309.829 224.773 309.465 225.641 309.465ZM233.916 315.765H238.326C240.384 315.765 241.714 314.911 241.714 313.175C241.714 311.789 240.79 310.865 239.166 310.655C240.174 310.515 241.112 309.801 241.112 308.527C241.112 306.805 239.74 306.133 238.018 306.133H233.916V315.765ZM237.892 307.435C238.928 307.435 239.614 307.785 239.614 308.779C239.614 309.717 238.886 310.165 237.822 310.165H235.302V307.435H237.892ZM238.13 311.327C239.32 311.327 240.202 311.803 240.202 312.895C240.202 314.057 239.334 314.463 238.2 314.463H235.302V311.327H238.13ZM246.287 314.645C245.195 314.645 244.537 314.029 244.537 312.811V308.345H243.221V313.105C243.221 314.925 244.159 315.905 245.783 315.905C247.015 315.905 247.967 315.345 248.597 314.827V315.765H249.829V308.345H248.513V313.959C247.981 314.281 247.155 314.645 246.287 314.645ZM257.016 315.765H258.248V305.923L256.932 306.133V308.387C256.512 308.289 256.05 308.205 255.448 308.205C253.334 308.205 251.444 309.521 251.444 312.251C251.444 314.715 252.97 315.905 254.706 315.905C255.742 315.905 256.526 315.513 257.016 315.107V315.765ZM255.518 309.381C256.106 309.381 256.554 309.493 256.932 309.619V314.127C256.526 314.407 255.84 314.729 255.056 314.729C253.684 314.729 252.788 313.805 252.788 312.167C252.788 310.263 253.978 309.381 255.518 309.381ZM266.601 314.603V308.821C265.915 308.541 265.005 308.205 263.787 308.205C261.659 308.205 259.853 309.493 259.853 312.027C259.853 314.043 261.155 315.233 263.017 315.233C264.025 315.233 264.795 314.827 265.285 314.449V314.771C265.285 316.129 264.487 316.885 262.961 316.885C261.855 316.885 260.931 316.465 260.259 316.003V317.347C260.875 317.725 261.883 318.117 263.087 318.117C265.019 318.117 266.601 317.109 266.601 314.603ZM261.197 311.873C261.197 310.249 262.275 309.381 263.773 309.381C264.403 309.381 264.879 309.507 265.285 309.661V313.399C264.851 313.707 264.151 314.043 263.339 314.043C262.093 314.043 261.197 313.329 261.197 311.873ZM274.745 315.247V314.085C274.199 314.393 273.177 314.659 272.183 314.659C270.629 314.659 269.62 313.945 269.523 312.461H274.899V311.845C274.899 309.535 273.737 308.191 271.707 308.191C269.635 308.191 268.193 309.633 268.193 312.055C268.193 314.575 269.789 315.905 272.057 315.905C273.079 315.905 274.213 315.639 274.745 315.247ZM271.637 309.325C272.939 309.325 273.583 310.165 273.611 311.565H269.509C269.579 310.151 270.405 309.325 271.637 309.325ZM280.992 315.443V314.309C280.656 314.519 280.11 314.715 279.522 314.715C278.766 314.715 278.318 314.379 278.318 313.525V309.507H280.936V308.345H278.318V306.945H278.01L275.868 309.171V309.507H277.002V313.665C277.002 315.457 278.038 315.905 279.2 315.905C280.026 315.905 280.628 315.681 280.992 315.443Z" fill="#FFFAFA"/>
<path d="M236.253 39.7484V49.3804H237.177V39.7484H236.253ZM239.585 41.9604V49.3804H240.481V43.5424C241.055 43.1784 242.007 42.6744 243.015 42.6744C244.177 42.6744 245.003 43.3324 245.003 44.7744V49.3804H245.885V44.6204C245.885 42.7164 244.821 41.8204 243.281 41.8204C242.007 41.8204 241.069 42.4084 240.425 42.9264V41.9604H239.585ZM253.732 42.3384C253.214 41.9884 252.458 41.8064 251.646 41.8064C249.378 41.8064 247.642 43.3184 247.642 45.6704C247.642 47.9524 249.378 49.5204 251.632 49.5204C252.458 49.5204 253.214 49.3104 253.732 48.9604V48.0644C253.242 48.4144 252.486 48.6664 251.66 48.6664C249.882 48.6664 248.552 47.4764 248.552 45.6704C248.552 43.8224 249.882 42.6604 251.674 42.6604C252.486 42.6604 253.242 42.8844 253.732 43.2484V42.3384ZM258.86 49.5204C261.058 49.5204 262.654 47.8544 262.654 45.6704C262.654 43.4724 261.058 41.8204 258.86 41.8204C256.662 41.8204 255.066 43.4724 255.066 45.6704C255.066 47.8544 256.662 49.5204 258.86 49.5204ZM258.86 48.6804C257.18 48.6804 255.962 47.3784 255.962 45.6704C255.962 43.9484 257.18 42.6604 258.86 42.6604C260.554 42.6604 261.758 43.9484 261.758 45.6704C261.758 47.3784 260.554 48.6804 258.86 48.6804ZM264.467 41.9604V49.3804H265.363V43.5424C265.909 43.1784 266.805 42.6744 267.757 42.6744C268.835 42.6744 269.605 43.3184 269.605 44.7044V49.3804H270.487V44.4384C270.487 44.1164 270.459 43.8364 270.389 43.5704C270.977 43.1644 271.901 42.6744 272.895 42.6744C273.959 42.6744 274.729 43.3184 274.729 44.7044V49.3804H275.625V44.5504C275.625 42.7024 274.631 41.8204 273.161 41.8204C271.845 41.8204 270.865 42.4644 270.207 43.0384C269.801 42.2264 269.031 41.8204 268.023 41.8204C266.819 41.8204 265.937 42.4224 265.307 42.9124V41.9604H264.467ZM283.776 48.9324V48.1064C283.258 48.4424 282.18 48.6664 281.242 48.6664C279.604 48.6664 278.386 47.8124 278.288 45.9924H283.972V45.5584C283.972 43.1504 282.824 41.8064 280.808 41.8064C278.82 41.8064 277.378 43.2064 277.378 45.6704C277.378 48.2184 278.988 49.5204 281.172 49.5204C282.11 49.5204 283.216 49.3104 283.776 48.9324ZM280.78 42.6044C282.25 42.6044 283.048 43.5704 283.09 45.3344H278.288C278.344 43.5704 279.38 42.6044 280.78 42.6044Z" fill="#FFFAFA"/>
<rect x="45.3477" y="24.8413" width="286" height="39.127" rx="19.5635" stroke="#F3F3F3"/>
<path d="M64.9111 24.8413H188.348V63.9683H64.9111C54.1065 63.9683 45.3477 55.2094 45.3477 44.4048C45.3477 33.6002 54.1065 24.8413 64.9111 24.8413Z" fill="#BADFC5" stroke="white"/>
<path d="M90.0272 39.7484V49.3804H97.3492V47.5884H91.9312V45.4184H96.6492V43.6264H91.9312V41.5404H97.3492V39.7484H90.0272ZM103.577 49.3804H105.635L103.031 45.6564L105.607 41.9604H103.577L101.813 44.6764L100.035 41.9604H97.9766L100.567 45.6704L97.9766 49.3804H100.007L101.799 46.6084L103.577 49.3804ZM109.63 49.5204C111.702 49.5204 113.774 48.3024 113.774 45.4884C113.774 42.8984 112.094 41.8204 110.498 41.8204C109.532 41.8204 108.86 42.1144 108.37 42.5064V41.9604H106.676V51.5924H108.482V49.4224C108.818 49.4784 109.182 49.5204 109.63 49.5204ZM109.924 43.4304C111.086 43.4304 111.912 44.1584 111.912 45.6144C111.912 47.2944 110.792 47.9104 109.532 47.9104C109.126 47.9104 108.776 47.8404 108.482 47.7564V43.8224C108.832 43.6264 109.35 43.4304 109.924 43.4304ZM121.551 48.7924V47.2104C120.977 47.5184 119.997 47.8264 118.961 47.8264C117.505 47.8264 116.763 47.2804 116.637 46.1884H121.663V45.3484C121.663 43.1364 120.487 41.8204 118.415 41.8204C116.245 41.8204 114.803 43.3044 114.803 45.6704C114.803 48.1484 116.399 49.5204 118.751 49.5204C119.885 49.5204 121.033 49.1984 121.551 48.7924ZM118.303 43.3464C119.395 43.3464 119.885 44.0184 119.899 45.0264H116.623C116.693 44.0184 117.267 43.3464 118.303 43.3464ZM126.75 43.5704C127.758 43.5704 128.248 44.1304 128.248 45.0824V49.3804H130.054V44.6204C130.054 42.9124 129.256 41.8204 127.52 41.8204C126.344 41.8204 125.378 42.3384 124.776 42.8704V41.9604H123.082V49.3804H124.888V44.0324C125.364 43.7944 126.036 43.5704 126.75 43.5704ZM135.21 45.1384L134.482 44.9284C133.572 44.6904 133.026 44.5364 133.026 44.0324C133.026 43.6124 133.502 43.4164 134.132 43.4164C135.21 43.4164 136.428 43.8504 136.96 44.2564V42.4784C136.47 42.1564 135.322 41.8204 134.23 41.8204C132.382 41.8204 131.276 42.7724 131.276 44.1164C131.276 45.4744 132.27 46.0204 133.474 46.3004L134.202 46.4824C135.084 46.7064 135.574 46.8604 135.574 47.3224C135.574 47.7984 135.182 47.9664 134.44 47.9664C133.334 47.9664 132.172 47.5464 131.444 47.1124V48.8484C131.962 49.1564 133.194 49.5484 134.342 49.5484C136.106 49.5484 137.268 48.7784 137.268 47.2664C137.268 46.1464 136.54 45.4744 135.21 45.1384ZM144.957 48.7924V47.2104C144.383 47.5184 143.403 47.8264 142.367 47.8264C140.911 47.8264 140.169 47.2804 140.043 46.1884H145.069V45.3484C145.069 43.1364 143.893 41.8204 141.821 41.8204C139.651 41.8204 138.209 43.3044 138.209 45.6704C138.209 48.1484 139.805 49.5204 142.157 49.5204C143.291 49.5204 144.439 49.1984 144.957 48.7924ZM141.709 43.3464C142.801 43.3464 143.291 44.0184 143.305 45.0264H140.029C140.099 44.0184 140.673 43.3464 141.709 43.3464Z" fill="#07051A"/>
<rect x="188.098" y="24.5913" width="0.5" height="39.627" stroke="#F3F3F3" stroke-width="0.5"/>
<rect opacity="0.1" x="61.8477" y="94.2651" width="1" height="156" fill="#F7F7F7"/>
<rect opacity="0.1" x="103.848" y="94.2651" width="1" height="156" fill="#F7F7F7"/>
<rect opacity="0.1" x="150.848" y="94.2651" width="1" height="156" fill="#F7F7F7"/>
<rect opacity="0.1" x="197.848" y="94.2651" width="1" height="156" fill="#F7F7F7"/>
<rect opacity="0.1" x="244.848" y="94.2651" width="1" height="156" fill="#F7F7F7"/>
<rect opacity="0.1" x="291.848" y="94.2651" width="1" height="156" fill="#F7F7F7"/>
<rect opacity="0.1" x="338.848" y="94.2651" width="1" height="156" fill="#F7F7F7"/>
<rect opacity="0.1" x="61.8477" y="120.265" width="278" height="1" fill="#F7F7F7"/>
<rect opacity="0.1" x="61.8477" y="146.265" width="278" height="1" fill="#F7F7F7"/>
<rect opacity="0.1" x="61.8477" y="172.265" width="278" height="1" fill="#F7F7F7"/>
<rect opacity="0.1" x="61.8477" y="198.265" width="278" height="1" fill="#F7F7F7"/>
<rect opacity="0.1" x="61.8477" y="224.265" width="278" height="1" fill="#F7F7F7"/>
<rect opacity="0.1" x="61.8477" y="250.265" width="278" height="1" fill="#F7F7F7"/>
<path d="M47.3462 249.365C48.8162 249.365 50.0862 248.275 50.0862 245.825C50.0862 243.385 48.8162 242.285 47.3462 242.285C45.8662 242.285 44.6062 243.385 44.6062 245.825C44.6062 248.275 45.8662 249.365 47.3462 249.365ZM47.3462 248.745C46.1862 248.745 45.2862 247.785 45.2862 245.825C45.2862 243.875 46.1862 242.915 47.3462 242.915C48.5062 242.915 49.4062 243.875 49.4062 245.825C49.4062 247.785 48.5062 248.745 47.3462 248.745Z" fill="#C0C0C0"/>
<path d="M96.8958 258.385V265.265H97.5558V262.275H101.126V261.655H97.5558V259.005H101.626V258.385H96.8958ZM107.052 264.945V264.355C106.682 264.595 105.912 264.755 105.242 264.755C104.072 264.755 103.202 264.145 103.132 262.845H107.192V262.535C107.192 260.815 106.372 259.855 104.932 259.855C103.512 259.855 102.482 260.855 102.482 262.615C102.482 264.435 103.632 265.365 105.192 265.365C105.862 265.365 106.652 265.215 107.052 264.945ZM104.912 260.425C105.962 260.425 106.532 261.115 106.562 262.375H103.132C103.172 261.115 103.912 260.425 104.912 260.425ZM109.173 258.255L108.533 258.385V264.965C109.063 265.165 109.713 265.365 110.573 265.365C112.043 265.365 113.223 264.405 113.223 262.505C113.223 260.835 112.263 259.865 110.923 259.865C110.163 259.865 109.523 260.205 109.173 260.485V258.255ZM110.793 260.455C111.853 260.455 112.563 261.245 112.563 262.535C112.563 264.055 111.743 264.785 110.553 264.785C110.003 264.785 109.563 264.675 109.173 264.555V261.035C109.513 260.765 110.083 260.455 110.793 260.455Z" fill="#C0C0C0"/>
<path d="M142.646 265.265L143.606 262.995H146.986L147.946 265.265H148.676L145.716 258.385H144.886L141.926 265.265H142.646ZM145.296 259.015L146.736 262.405H143.856L145.296 259.015ZM151.441 265.365C152.991 265.365 154.231 264.365 154.231 262.475C154.231 260.775 153.221 259.865 151.911 259.865C151.101 259.865 150.491 260.215 150.141 260.525V259.965H149.541V266.845H150.181V265.165C150.531 265.275 150.911 265.365 151.441 265.365ZM151.771 260.445C152.871 260.445 153.571 261.215 153.571 262.505C153.571 264.005 152.681 264.785 151.421 264.785C150.891 264.785 150.521 264.675 150.181 264.555V261.035C150.511 260.765 151.061 260.445 151.771 260.445ZM155.527 259.965V265.265H156.167V261.225C156.547 260.885 157.207 260.475 157.777 260.475C158.137 260.475 158.417 260.575 158.637 260.725V260.055C158.427 259.935 158.197 259.865 157.937 259.865C157.207 259.865 156.557 260.355 156.127 260.785V259.965H155.527Z" fill="#C0C0C0"/>
<path d="M191.24 263.895V264.625C191.7 264.995 192.45 265.375 193.36 265.375C194.6 265.375 195.53 264.705 195.53 263.235V258.385H194.86V263.235C194.86 264.315 194.2 264.735 193.35 264.735C192.5 264.735 191.69 264.325 191.24 263.895ZM199.173 264.755C198.343 264.755 197.753 264.285 197.753 263.255V259.965H197.113V263.365C197.113 264.725 197.873 265.365 198.983 265.365C199.883 265.365 200.563 264.945 201.023 264.575V265.265H201.623V259.965H200.983V264.125C200.583 264.395 199.893 264.755 199.173 264.755ZM203.198 258.385V265.265H203.838V258.255L203.198 258.385Z" fill="#C0C0C0"/>
<path d="M236.694 265.265L237.654 262.995H241.034L241.994 265.265H242.724L239.764 258.385H238.934L235.974 265.265H236.694ZM239.344 259.015L240.784 262.405H237.904L239.344 259.015ZM245.599 264.755C244.769 264.755 244.179 264.285 244.179 263.255V259.965H243.539V263.365C243.539 264.725 244.299 265.365 245.409 265.365C246.309 265.365 246.989 264.945 247.449 264.575V265.265H248.049V259.965H247.409V264.125C247.009 264.395 246.319 264.755 245.599 264.755ZM254.014 264.585V260.295C253.534 260.095 252.924 259.865 252.104 259.865C250.554 259.865 249.344 260.835 249.344 262.635C249.344 264.125 250.274 264.965 251.634 264.965C252.404 264.965 253.034 264.625 253.374 264.335V264.645C253.374 265.765 252.674 266.345 251.574 266.345C250.734 266.345 250.074 266.025 249.594 265.715V266.385C250.034 266.645 250.754 266.945 251.624 266.945C252.954 266.945 254.014 266.235 254.014 264.585ZM250.004 262.575C250.004 261.215 250.854 260.445 252.094 260.445C252.644 260.445 253.034 260.565 253.374 260.695V263.795C253.034 264.065 252.464 264.385 251.754 264.385C250.704 264.385 250.004 263.755 250.004 262.575Z" fill="#C0C0C0"/>
<path d="M287.167 265.365C289.137 265.365 290.637 263.905 290.637 261.835C290.637 259.745 289.137 258.285 287.167 258.285C285.177 258.285 283.677 259.745 283.677 261.835C283.677 263.905 285.177 265.365 287.167 265.365ZM287.167 264.705C285.577 264.705 284.367 263.525 284.367 261.835C284.367 260.125 285.567 258.945 287.167 258.945C288.747 258.945 289.947 260.125 289.947 261.835C289.947 263.525 288.747 264.705 287.167 264.705ZM296.053 260.235C295.683 259.985 295.143 259.855 294.563 259.855C292.943 259.855 291.703 260.935 291.703 262.615C291.703 264.245 292.943 265.365 294.553 265.365C295.143 265.365 295.683 265.215 296.053 264.965V264.325C295.703 264.575 295.163 264.755 294.573 264.755C293.303 264.755 292.353 263.905 292.353 262.615C292.353 261.295 293.303 260.465 294.583 260.465C295.163 260.465 295.703 260.625 296.053 260.885V260.235ZM300.216 265.035V264.455C299.966 264.625 299.586 264.775 299.146 264.775C298.546 264.775 298.196 264.495 298.196 263.815V260.535H300.166V259.965H298.196V258.965H298.036L296.736 260.365V260.535H297.556V263.865C297.556 265.075 298.286 265.365 299.026 265.365C299.576 265.365 299.976 265.195 300.216 265.035Z" fill="#C0C0C0"/>
<path d="M331.015 258.385V265.265H333.275C335.485 265.265 336.985 263.885 336.985 261.835C336.985 259.765 335.485 258.385 333.275 258.385H331.015ZM333.275 259.005C335.105 259.005 336.315 260.125 336.315 261.835C336.315 263.525 335.105 264.645 333.275 264.645H331.675V259.005H333.275ZM342.616 264.945V264.355C342.246 264.595 341.476 264.755 340.806 264.755C339.636 264.755 338.766 264.145 338.696 262.845H342.756V262.535C342.756 260.815 341.936 259.855 340.496 259.855C339.076 259.855 338.046 260.855 338.046 262.615C338.046 264.435 339.196 265.365 340.756 265.365C341.426 265.365 342.216 265.215 342.616 264.945ZM340.476 260.425C341.526 260.425 342.096 261.115 342.126 262.375H338.696C338.736 261.115 339.476 260.425 340.476 260.425ZM348.168 260.235C347.798 259.985 347.258 259.855 346.678 259.855C345.058 259.855 343.818 260.935 343.818 262.615C343.818 264.245 345.058 265.365 346.668 265.365C347.258 265.365 347.798 265.215 348.168 264.965V264.325C347.818 264.575 347.278 264.755 346.688 264.755C345.418 264.755 344.468 263.905 344.468 262.615C344.468 261.295 345.418 260.465 346.698 260.465C347.278 260.465 347.818 260.625 348.168 260.885V260.235Z" fill="#C0C0C0"/>
<path d="M30.892 216.385L30.622 216.975H31.852V223.265H32.502V216.385H30.892ZM36.9175 223.365C38.3875 223.365 39.6575 222.275 39.6575 219.825C39.6575 217.385 38.3875 216.285 36.9175 216.285C35.4375 216.285 34.1775 217.385 34.1775 219.825C34.1775 222.275 35.4375 223.365 36.9175 223.365ZM36.9175 222.745C35.7575 222.745 34.8575 221.785 34.8575 219.825C34.8575 217.875 35.7575 216.915 36.9175 216.915C38.0775 216.915 38.9775 217.875 38.9775 219.825C38.9775 221.785 38.0775 222.745 36.9175 222.745ZM43.8804 223.365C45.3504 223.365 46.6204 222.275 46.6204 219.825C46.6204 217.385 45.3504 216.285 43.8804 216.285C42.4004 216.285 41.1404 217.385 41.1404 219.825C41.1404 222.275 42.4004 223.365 43.8804 223.365ZM43.8804 222.745C42.7204 222.745 41.8204 221.785 41.8204 219.825C41.8204 217.875 42.7204 216.915 43.8804 216.915C45.0404 216.915 45.9404 217.875 45.9404 219.825C45.9404 221.785 45.0404 222.745 43.8804 222.745Z" fill="#C0C0C0"/>
<path d="M31.1911 197.265V196.665H27.3511L29.6511 194.495C30.4611 193.745 31.1311 193.095 31.1311 192.115C31.1311 190.955 30.2911 190.285 29.1011 190.285C27.9211 190.285 27.0511 190.935 26.7111 191.245V191.955C27.1411 191.545 27.9811 190.885 29.0611 190.885C29.9611 190.885 30.4611 191.415 30.4611 192.145C30.4611 192.885 29.9811 193.365 29.2011 194.125L26.4911 196.765V197.265H31.1911ZM35.1284 197.365C36.5984 197.365 37.8684 196.275 37.8684 193.825C37.8684 191.385 36.5984 190.285 35.1284 190.285C33.6484 190.285 32.3884 191.385 32.3884 193.825C32.3884 196.275 33.6484 197.365 35.1284 197.365ZM35.1284 196.745C33.9684 196.745 33.0684 195.785 33.0684 193.825C33.0684 191.875 33.9684 190.915 35.1284 190.915C36.2884 190.915 37.1884 191.875 37.1884 193.825C37.1884 195.785 36.2884 196.745 35.1284 196.745ZM42.0913 197.365C43.5613 197.365 44.8313 196.275 44.8313 193.825C44.8313 191.385 43.5613 190.285 42.0913 190.285C40.6113 190.285 39.3513 191.385 39.3513 193.825C39.3513 196.275 40.6113 197.365 42.0913 197.365ZM42.0913 196.745C40.9313 196.745 40.0313 195.785 40.0313 193.825C40.0313 191.875 40.9313 190.915 42.0913 190.915C43.2513 190.915 44.1513 191.875 44.1513 193.825C44.1513 195.785 43.2513 196.745 42.0913 196.745Z" fill="#C0C0C0"/>
<path d="M26.4599 169.995V170.675C26.8999 171.015 27.6499 171.365 28.6199 171.365C30.2799 171.365 31.1699 170.405 31.1699 169.275C31.1699 168.115 30.3499 167.255 28.9099 167.255H28.1499L30.9099 164.995V164.385H26.6699V164.985H30.0299L27.3099 167.355V167.775H28.7599C29.8799 167.775 30.4999 168.395 30.4999 169.245C30.4999 170.095 29.8399 170.765 28.5699 170.765C27.6099 170.765 26.8599 170.345 26.4599 169.995ZM35.0796 171.365C36.5496 171.365 37.8196 170.275 37.8196 167.825C37.8196 165.385 36.5496 164.285 35.0796 164.285C33.5996 164.285 32.3396 165.385 32.3396 167.825C32.3396 170.275 33.5996 171.365 35.0796 171.365ZM35.0796 170.745C33.9196 170.745 33.0196 169.785 33.0196 167.825C33.0196 165.875 33.9196 164.915 35.0796 164.915C36.2396 164.915 37.1396 165.875 37.1396 167.825C37.1396 169.785 36.2396 170.745 35.0796 170.745ZM42.0425 171.365C43.5125 171.365 44.7825 170.275 44.7825 167.825C44.7825 165.385 43.5125 164.285 42.0425 164.285C40.5625 164.285 39.3025 165.385 39.3025 167.825C39.3025 170.275 40.5625 171.365 42.0425 171.365ZM42.0425 170.745C40.8825 170.745 39.9825 169.785 39.9825 167.825C39.9825 165.875 40.8825 164.915 42.0425 164.915C43.2025 164.915 44.1025 165.875 44.1025 167.825C44.1025 169.785 43.2025 170.745 42.0425 170.745Z" fill="#C0C0C0"/>
<path d="M28.3579 138.385L24.4079 143.175V143.675H28.3579V145.265H29.0179V143.675H30.3979V143.085H29.0179V138.385H28.3579ZM25.1779 143.085L28.3579 139.245V143.085H25.1779ZM34.1216 145.365C35.5916 145.365 36.8616 144.275 36.8616 141.825C36.8616 139.385 35.5916 138.285 34.1216 138.285C32.6416 138.285 31.3816 139.385 31.3816 141.825C31.3816 144.275 32.6416 145.365 34.1216 145.365ZM34.1216 144.745C32.9616 144.745 32.0616 143.785 32.0616 141.825C32.0616 139.875 32.9616 138.915 34.1216 138.915C35.2816 138.915 36.1816 139.875 36.1816 141.825C36.1816 143.785 35.2816 144.745 34.1216 144.745ZM41.0845 145.365C42.5545 145.365 43.8245 144.275 43.8245 141.825C43.8245 139.385 42.5545 138.285 41.0845 138.285C39.6045 138.285 38.3445 139.385 38.3445 141.825C38.3445 144.275 39.6045 145.365 41.0845 145.365ZM41.0845 144.745C39.9245 144.745 39.0245 143.785 39.0245 141.825C39.0245 139.875 39.9245 138.915 41.0845 138.915C42.2445 138.915 43.1445 139.875 43.1445 141.825C43.1445 143.785 42.2445 144.745 41.0845 144.745Z" fill="#C0C0C0"/>
<path d="M26.1902 112.385L25.8202 115.695H27.6402C28.7602 115.695 29.7302 116.115 29.7302 117.285C29.7302 118.355 28.8502 118.765 27.9102 118.765C26.9102 118.765 26.0202 118.285 25.5202 117.875V118.565C25.9202 118.875 26.7802 119.365 27.9502 119.365C29.2002 119.365 30.3902 118.755 30.3902 117.285C30.3902 115.715 29.1902 115.105 27.7702 115.105H26.5102L26.7502 112.985H29.9502V112.385H26.1902ZM34.2993 119.365C35.7693 119.365 37.0393 118.275 37.0393 115.825C37.0393 113.385 35.7693 112.285 34.2993 112.285C32.8193 112.285 31.5593 113.385 31.5593 115.825C31.5593 118.275 32.8193 119.365 34.2993 119.365ZM34.2993 118.745C33.1393 118.745 32.2393 117.785 32.2393 115.825C32.2393 113.875 33.1393 112.915 34.2993 112.915C35.4593 112.915 36.3593 113.875 36.3593 115.825C36.3593 117.785 35.4593 118.745 34.2993 118.745ZM41.2622 119.365C42.7322 119.365 44.0022 118.275 44.0022 115.825C44.0022 113.385 42.7322 112.285 41.2622 112.285C39.7822 112.285 38.5222 113.385 38.5222 115.825C38.5222 118.275 39.7822 119.365 41.2622 119.365ZM41.2622 118.745C40.1022 118.745 39.2022 117.785 39.2022 115.825C39.2022 113.875 40.1022 112.915 41.2622 112.915C42.4222 112.915 43.3222 113.875 43.3222 115.825C43.3222 117.785 42.4222 118.745 41.2622 118.745Z" fill="#C0C0C0"/>
<path d="M79.8477 224.265L101.64 201.138C103.283 199.395 105.806 198.795 108.058 199.614L122.114 204.726C124.622 205.638 127.432 204.783 129.007 202.629L149.495 174.615C150.366 173.424 151.646 172.595 153.089 172.288L172.784 168.098C173.808 167.88 174.758 167.397 175.539 166.698L193.948 150.206C196.389 148.02 200.133 148.196 202.357 150.602L216.627 166.037C219.563 169.212 224.791 168.334 226.528 164.374L241.959 129.19C243.754 125.097 249.233 124.333 252.08 127.779L266.619 145.383C267.1 145.966 267.688 146.452 268.35 146.817L288.981 158.186C290.768 159.17 292.932 159.179 294.728 158.21L312.521 148.601C315.037 147.243 318.162 147.848 319.988 150.048L338.848 172.765" stroke="#BFCBEE" stroke-width="3"/>
<path d="M79.8477 239.265L101.821 193.332C103.226 190.394 106.719 189.114 109.69 190.447L123.941 196.842C126.279 197.89 129.024 197.339 130.775 195.47L148.865 176.169C150.643 174.272 153.442 173.736 155.795 174.842L171.736 182.335C173.924 183.364 176.515 182.979 178.31 181.359L194.183 167.025C196.527 164.909 200.11 164.972 202.378 167.169L218.234 182.524C220.093 184.324 222.896 184.73 225.189 183.53L240.343 175.604C243.155 174.134 246.625 175.106 248.263 177.824L261.08 199.089C263.809 203.617 270.636 202.658 272.012 197.554L286.534 143.685C288.164 137.639 296.804 137.819 298.18 143.928L312.386 206.961C313.323 211.118 318.173 213 321.669 210.564L338.848 198.594" stroke="#A6D8C3" stroke-width="3"/>
<defs>
<linearGradient id="paint0_linear_86_135348" x1="188.348" y1="0.265137" x2="188.348" y2="461.265" gradientUnits="userSpaceOnUse">
<stop stop-color="#4A4A4A"/>
<stop offset="1" stop-opacity="0"/>
</linearGradient>
<linearGradient id="paint1_linear_86_135348" x1="188.348" y1="345.265" x2="188.348" y2="437.265" gradientUnits="userSpaceOnUse">
<stop stop-color="#1F195A"/>
<stop offset="1" stop-opacity="0"/>
</linearGradient>
</defs>
</svg>
