<svg width="225" height="23" viewBox="0 0 225 23" fill="none" xmlns="http://www.w3.org/2000/svg">
<g clip-path="url(#clip0_76_11543)">
<path d="M207.317 21.5255C207.317 21.027 207.723 20.6221 208.253 20.6221C208.784 20.6221 209.189 21.027 209.189 21.5255C209.189 22.0239 208.784 22.46 208.253 22.46C207.723 22.46 207.317 22.055 207.317 21.5255ZM207.505 21.5255C207.505 21.9304 207.848 22.2731 208.284 22.2731C208.69 22.2731 209.033 21.9616 209.033 21.5255C209.033 21.1205 208.69 20.809 208.284 20.809C207.817 20.809 207.505 21.1516 207.505 21.5255Z" fill="#E31837"/>
<path d="M208.722 22.055H208.535L208.223 21.5877H208.036V22.055H207.911V21.027H208.379C208.473 21.027 208.566 21.027 208.629 21.0893C208.722 21.1204 208.753 21.2139 208.753 21.3073C208.753 21.4942 208.597 21.5877 208.41 21.5877L208.722 22.055ZM208.223 21.4631C208.379 21.4631 208.566 21.4942 208.566 21.3073C208.566 21.1827 208.441 21.1516 208.317 21.1516H208.036V21.4631H208.223Z" fill="#E31837"/>
<path d="M203.793 22.46C210.343 16.8528 219.546 11.4014 224.599 9.43886C223.819 8.94044 222.603 8.22397 221.23 7.44519C214.711 9.59462 207.099 14.3607 200.299 19.7499C201.453 20.6221 202.67 21.5255 203.793 22.46Z" fill="#E31837"/>
<path d="M200.798 7.22703C199.831 6.75976 198.77 6.32364 197.959 5.94983C195.495 7.16472 192.282 9.00264 188.227 11.8997C189.1 12.367 190.036 12.9277 191.034 13.4884C194.153 11.1832 197.304 9.00264 200.798 7.22703Z" fill="#012169"/>
<path d="M206.632 4.54813C205.447 3.89396 201.329 2.36755 198.491 1.71338C197.648 2.02489 196.463 2.49216 195.652 2.83482C196.681 3.11518 200.518 4.14317 203.794 5.79418C204.636 5.38921 205.821 4.89079 206.632 4.54813Z" fill="#E31837"/>
<path d="M192.688 4.14307C189.038 5.82523 185.201 8.13041 183.111 9.46991C183.86 9.81257 184.609 10.0929 185.638 10.5913C190.255 7.47624 193.873 5.57602 195.308 4.953C194.279 4.57918 193.312 4.32997 192.688 4.14307Z" fill="#012169"/>
<path d="M209.377 3.58238C210.219 3.30202 211.186 3.05281 212.028 2.8036C209.595 1.77561 206.538 0.685325 203.793 0C203.356 0.124605 202.046 0.467267 201.142 0.747627C202.077 1.02799 205.166 1.74446 209.377 3.58238ZM193.998 15.2952C194.996 15.8871 196.057 16.697 197.086 17.3823C203.918 12.0866 210.656 8.00584 218.049 5.70066C217.019 5.17109 216.115 4.70382 214.961 4.1431C210.531 5.26454 202.951 8.2862 193.998 15.2952Z" fill="#E31837"/>
<path d="M0 20.84H4.9911C7.51785 20.84 8.70324 19.5316 8.70324 17.6937C8.70324 16.1985 7.92338 15.2016 6.30127 14.8901C7.73621 14.5475 8.39129 13.6752 8.39129 12.398C8.39129 10.7782 7.2059 9.46984 4.67916 9.46984H0.0311944V20.84H0ZM4.33602 16.0116C5.27185 16.0116 5.92693 16.4788 5.92693 17.4134C5.92693 18.4102 5.30305 18.8152 4.33602 18.8152H2.71391V15.9804H4.33602V16.0116ZM4.02408 11.4635C4.95991 11.4635 5.61499 11.8685 5.61499 12.803C5.61499 13.7375 4.9911 14.1425 4.02408 14.1425H2.71391V11.4635H4.02408ZM18.779 9.43869H15.9715L11.6979 20.84H14.5366L15.3164 18.4725H19.4341L20.214 20.84H23.0839L18.779 9.43869ZM17.3753 12.18L18.7166 16.3854H15.9715L17.3753 12.18ZM37.3085 9.43869H34.7194V17.0707L29.853 9.43869H26.952V20.84H29.5411V13.2391L34.4074 20.84H37.3085V9.43869ZM49.2559 20.84L45.5126 15.0459V20.84H42.7363V9.43869H45.5126V14.9213L49.0688 9.43869H52.157L48.4137 14.9213L52.5002 20.84H49.2559ZM62.3264 15.1393C62.3264 17.4134 63.6989 18.8152 65.477 18.8152C67.2551 18.8152 68.6277 17.4134 68.6277 15.1393C68.6277 12.8653 67.2551 11.4635 65.477 11.4635C63.6989 11.4635 62.3264 12.8653 62.3264 15.1393ZM59.3941 15.1393C59.4253 11.8062 61.7649 9.18948 65.477 9.18948C69.1892 9.18948 71.5287 11.8062 71.5599 15.1393C71.5287 18.4725 69.1892 21.0892 65.477 21.0892C61.7649 21.0892 59.4253 18.4725 59.3941 15.1393ZM75.3657 20.84H78.142V16.3542H81.7605V14.1737H78.142V11.6193H82.5092L83.0083 9.43869H75.3657V20.84ZM95.9539 9.43869H93.1465L88.8728 20.84H91.7115L92.4914 18.4725H96.609L97.3889 20.84H100.259L95.9539 9.43869ZM94.5502 12.18L95.8916 16.3854H93.1465L94.5502 12.18ZM116.729 9.43869H113.485L110.522 15.6066L107.558 9.43869H104.314V20.84H106.81V13.208L110.491 20.84L114.171 13.208V20.84H116.761L116.729 9.43869ZM122.126 20.84H129.925V18.6594H124.902V16.105H128.864V13.9868H124.902V11.6193H129.488L129.987 9.43869H122.126V20.84ZM140.5 20.84H143.525L140.687 16.0116C142.246 15.5755 142.995 14.4852 142.995 12.8965C142.995 10.8405 141.747 9.46984 138.94 9.46984H134.541V20.8711H137.255V16.3854H138.004L140.5 20.84ZM138.41 11.557C139.564 11.557 140.156 12.0554 140.156 13.0211C140.156 13.9867 139.564 14.4852 138.41 14.4852H137.224V11.557H138.41ZM147.674 20.84H150.451V9.46984H147.674V20.84ZM164.114 17.7872C163.053 18.5348 162.117 18.784 161.15 18.784C159.029 18.784 157.532 17.3199 157.532 15.1393C157.532 12.9588 158.998 11.4947 161.057 11.4947C161.992 11.4947 162.928 11.7439 163.958 12.4915V9.90595C163.022 9.37638 161.93 9.15833 160.714 9.15833C156.939 9.15833 154.568 11.775 154.537 15.1082C154.568 18.4725 156.877 21.0581 160.714 21.0581C161.992 21.0581 163.084 20.84 164.083 20.3104V17.7872H164.114ZM174.283 9.43869H171.476L167.202 20.84H170.041L170.82 18.4725H174.938L175.718 20.84H178.588L174.283 9.43869ZM172.879 12.18L174.221 16.3854H171.476L172.879 12.18Z" fill="#012169"/>
</g>
<defs>
<clipPath id="clip0_76_11543">
<rect width="224.6" height="22.46" fill="white"/>
</clipPath>
</defs>
</svg>
