<svg width="83" height="83" viewBox="0 0 83 83" fill="none" xmlns="http://www.w3.org/2000/svg">
<mask id="mask0_86_12640" style="mask-type:alpha" maskUnits="userSpaceOnUse" x="0" y="0" width="83" height="83">
<circle cx="41.124" cy="41.124" r="41.124" transform="rotate(-180 41.124 41.124)" fill="#3FCA66"/>
</mask>
<g mask="url(#mask0_86_12640)">
<rect x="41.3789" y="104.02" width="54.3425" height="7.34358" rx="1.26937" transform="rotate(-136 41.3789 104.02)" fill="#3FCA66"/>
<rect x="48.5234" y="96.625" width="45.3118" height="7.34358" rx="1.26937" transform="rotate(-136 48.5234 96.625)" fill="#3FCA66"/>
<rect x="55.666" y="89.2285" width="36.171" height="7.34358" rx="1.26937" transform="rotate(-136 55.666 89.2285)" fill="#3FCA66"/>
<rect x="48.1387" y="24.793" width="35.0103" height="7.34358" rx="1.26937" transform="rotate(-136 48.1387 24.793)" fill="#3FCA66"/>
<rect x="62.8145" y="24.6719" width="45.4815" height="7.34358" rx="1.26937" transform="rotate(-136 62.8145 24.6719)" fill="#3FCA66"/>
<rect x="76.3262" y="23.4297" width="54.3425" height="7.34358" rx="1.26937" transform="rotate(-136 76.3262 23.4297)" fill="#3FCA66"/>
<rect x="30.084" y="52.1035" width="85.1855" height="7.34358" rx="1.26937" transform="rotate(-136 30.084 52.1035)" fill="#3FCA66"/>
<rect x="69.9473" y="74.4375" width="85.1855" height="7.34358" rx="1.26937" transform="rotate(-136 69.9473 74.4375)" fill="#3FCA66"/>
<rect x="105.074" y="93.2285" width="85.1855" height="7.34358" rx="1.26937" transform="rotate(-136 105.074 93.2285)" fill="#3FCA66"/>
</g>
</svg>
