<svg width="1176" height="645" viewBox="0 0 1176 645" fill="none" xmlns="http://www.w3.org/2000/svg">
<path fill-rule="evenodd" clip-rule="evenodd" d="M586.974 -109.404L586.085 -110.293L586.792 -111L587.681 -110.111L588.57 -111L589.277 -110.293L588.388 -109.404L981.633 283.841L980.926 284.548L587.681 -108.697L194.436 284.548L193.729 283.841L586.974 -109.404ZM1298.79 642.142L587.682 -64.0116L-123.427 642.142L-124.131 641.432L586.972 -64.7162L586.09 -65.5924L586.795 -66.302L587.682 -65.4209L588.569 -66.302L589.274 -65.5924L588.391 -64.7162L1299.5 641.432L1298.79 642.142ZM587.682 -24.2866L1204.43 585.027L1205.13 584.316L588.393 -24.9894L589.274 -25.8591L588.571 -26.5705L587.682 -25.6923L586.793 -26.5705L586.09 -25.8591L586.97 -24.9894L-29.7653 584.316L-29.0624 585.027L587.682 -24.2866ZM1115.03 540.329L587.681 20.4109L60.3357 540.329L59.6335 539.617L586.969 19.7087L586.088 18.8405L586.79 18.1284L587.681 19.0066L588.572 18.1284L589.274 18.8405L588.393 19.7087L1115.73 539.617L1115.03 540.329ZM587.684 65.105L1025.63 495.63L1026.33 494.917L588.397 64.4038L589.276 63.5402L588.575 62.8271L587.684 63.7027L586.793 62.8271L586.092 63.5402L586.971 64.4038L149.035 494.917L149.735 495.63L587.684 65.105ZM946.168 455.899L587.683 104.83L229.198 455.899L228.498 455.184L586.968 104.131L586.093 103.273L586.792 102.559L587.683 103.431L588.573 102.559L589.273 103.273L588.397 104.131L946.868 455.184L946.168 455.899ZM587.683 154.531L1092.68 659.524L1093.38 658.817L588.39 153.824L589.278 152.936L588.571 152.229L587.683 153.117L586.795 152.229L586.087 152.936L586.976 153.824L81.9827 658.817L82.6897 659.524L587.683 154.531ZM951.129 562.677L587.68 199.227L224.231 562.677L223.524 561.969L586.973 198.52L586.087 197.635L586.794 196.928L587.68 197.813L588.565 196.928L589.273 197.635L588.387 198.52L951.836 561.969L951.129 562.677ZM587.683 248.836L653.141 311.871L653.835 311.15L588.403 248.142L589.272 247.305L588.579 246.585L587.683 247.448L586.787 246.585L586.093 247.305L586.962 248.142L521.53 311.15L522.224 311.871L587.683 248.836Z" fill="url(#paint0_linear_86_12618)"/>
<defs>
<linearGradient id="paint0_linear_86_12618" x1="587.682" y1="-111" x2="587.682" y2="659.524" gradientUnits="userSpaceOnUse">
<stop offset="0.390509" stop-color="#E9E2DC"/>
<stop offset="1" stop-color="#FEFEFF"/>
</linearGradient>
</defs>
</svg>
